<svg width="32" height="32" viewBox="0 0 32 32" fill="none" xmlns="http://www.w3.org/2000/svg">
<path d="M28.5492 12.3636C27.931 8.60725 21.3783 5.58544 21.091 5.45453H21.0619L19.4474 4.87271L19.3819 4.85453C19.3211 4.84488 19.2589 4.85083 19.201 4.87182C19.1431 4.89281 19.0915 4.92815 19.051 4.97453C18.6686 5.38294 18.2078 5.71002 17.6961 5.9362C17.1844 6.16238 16.6323 6.28302 16.0728 6.29089C15.5125 6.28539 14.9591 6.16585 14.4465 5.93953C13.9338 5.71322 13.4727 5.38488 13.091 4.97453H13.0692L13.0365 4.94544L13.0074 4.92725L12.9783 4.90907H12.9419H12.9092H12.8728H12.7674H12.7274L10.9383 5.45453H10.9092C10.6292 5.57816 4.07648 8.59998 3.4583 12.3636C3.45466 12.3999 3.45466 12.4364 3.4583 12.4727C3.5364 12.9055 3.71627 13.3136 3.98308 13.6632C4.24989 14.0129 4.59599 14.294 4.99285 14.4836C5.05667 14.5148 5.12821 14.5265 5.19865 14.5175C5.26908 14.5084 5.33533 14.479 5.38921 14.4327C6.66194 13.3745 8.72739 11.7818 9.88012 11.16C9.30557 13.0909 8.02194 18.48 9.01466 25.8182C9.03285 25.9309 9.04739 26.04 9.06194 26.1491C9.07185 26.2105 9.09546 26.2689 9.13103 26.32C9.37172 26.5924 9.66873 26.8092 10.0015 26.9555C10.3343 27.1018 10.6949 27.1741 11.0583 27.1673C11.8677 27.1352 12.6511 26.8728 13.3165 26.4109C13.3664 26.3798 13.408 26.3371 13.4377 26.2865C13.4675 26.2358 13.4845 26.1787 13.4874 26.12C13.4874 26.08 13.7856 22.12 16.0001 21.0654C18.2147 22.1309 18.5092 26.0836 18.5128 26.1236C18.5163 26.1817 18.5336 26.2381 18.5633 26.2881C18.5931 26.338 18.6344 26.3802 18.6838 26.4109C19.3491 26.8728 20.1326 27.1352 20.9419 27.1673C21.3054 27.1741 21.666 27.1018 21.9987 26.9555C22.3315 26.8092 22.6285 26.5924 22.8692 26.32C22.9048 26.2689 22.9284 26.2105 22.9383 26.1491C22.9383 26.04 22.9674 25.9309 22.9856 25.8182C23.9783 18.4982 22.6947 13.0909 22.1274 11.1782C23.2801 11.7891 25.3456 13.3818 26.6183 14.4509C26.6722 14.4972 26.7384 14.5266 26.8089 14.5357C26.8793 14.5447 26.9508 14.5329 27.0147 14.5018C27.4112 14.3117 27.757 14.0304 28.0237 13.6809C28.2905 13.3313 28.4706 12.9235 28.5492 12.4909C28.5542 12.4486 28.5542 12.4059 28.5492 12.3636ZM26.9092 13.6945C26.0038 12.9673 22.7347 10.3163 21.5928 10.1782C21.5298 10.1692 21.4654 10.1769 21.4062 10.2007C21.3471 10.2244 21.2952 10.2632 21.2558 10.3133C21.2164 10.3634 21.1908 10.423 21.1817 10.4861C21.1726 10.5491 21.1802 10.6135 21.2038 10.6727C21.2256 10.7345 23.4619 16.88 22.2619 25.7018C22.2619 25.7745 22.2619 25.8473 22.2328 25.92C22.0038 26.1527 21.051 26.9273 19.2438 25.8618C19.1492 24.9636 18.6292 21.3163 16.1492 20.3018C16.1009 20.2791 16.0481 20.2673 15.9947 20.2673C15.9412 20.2673 15.8885 20.2791 15.8401 20.3018H15.8001C13.3819 21.3563 12.8692 24.9454 12.7783 25.8327C10.9601 26.8982 10.0183 26.1273 9.78921 25.8909C9.78921 25.8182 9.76739 25.7454 9.76012 25.6727C8.56012 16.8509 10.7965 10.7054 10.8183 10.6436C10.8353 10.5853 10.8374 10.5236 10.8245 10.4642C10.8115 10.4049 10.7838 10.3497 10.7441 10.3038C10.7043 10.2579 10.6536 10.2226 10.5967 10.2013C10.5398 10.18 10.4785 10.1733 10.4183 10.1818C9.27648 10.32 6.00739 12.9527 5.10194 13.6982C4.64059 13.4088 4.31247 12.9486 4.18921 12.4182C4.79285 9.17089 10.811 6.31998 11.1892 6.14544L12.7274 5.64362C13.6209 6.5259 14.8244 7.02322 16.0801 7.02907C17.3329 7.01753 18.5328 6.52246 19.4292 5.64725L20.8147 6.13816C21.1456 6.29089 27.211 9.15271 27.8147 12.4145C27.7558 12.6771 27.6455 12.9255 27.4901 13.1452C27.3347 13.3649 27.1372 13.5516 26.9092 13.6945Z" fill="#252525"/>
</svg>
