<svg width="32" height="32" viewBox="0 0 32 32" fill="none" xmlns="http://www.w3.org/2000/svg">
<path d="M20.5761 12.6026C20.4719 12.6025 20.3712 12.5651 20.2921 12.4972C20.2131 12.4293 20.1609 12.3354 20.1451 12.2324C19.5182 8.15747 15.7387 4.55235 15.7009 4.51555C15.6166 4.43616 15.5674 4.32654 15.5639 4.21081C15.5605 4.09507 15.6031 3.98271 15.6825 3.89843C15.7619 3.81416 15.8715 3.76488 15.9873 3.76142C16.103 3.75797 16.2154 3.80064 16.2996 3.88003C16.4638 4.03491 20.3348 7.72387 21.0081 12.0999C21.0256 12.2143 20.9969 12.3311 20.9284 12.4244C20.8599 12.5178 20.7571 12.5801 20.6427 12.5978C20.6206 12.601 20.5984 12.6026 20.5761 12.6026Z" fill="#252525"/>
<path d="M11.4241 12.6026C11.4017 12.6026 11.3794 12.601 11.3572 12.5978C11.2428 12.5801 11.1401 12.5178 11.0716 12.4244C11.0031 12.331 10.9745 12.2143 10.9921 12.0999C11.6641 7.72387 15.5361 4.03587 15.7006 3.88003C15.7848 3.80064 15.8972 3.75797 16.0129 3.76142C16.1287 3.76488 16.2383 3.81416 16.3177 3.89843C16.3971 3.98271 16.4398 4.09507 16.4363 4.21081C16.4328 4.32654 16.3836 4.43616 16.2993 4.51555C16.2612 4.55139 12.4817 8.15747 11.8551 12.2324C11.8393 12.3354 11.7872 12.4293 11.7081 12.4972C11.6291 12.5651 11.5283 12.6025 11.4241 12.6026ZM8.55465 11.4084C8.45213 11.4082 8.35293 11.372 8.27442 11.306C8.1959 11.2401 8.14309 11.1487 8.12521 11.0477C7.84682 9.43832 7.94985 7.78606 8.42601 6.22371C8.4642 6.11432 8.54429 6.02457 8.64865 5.97422C8.75301 5.92387 8.8731 5.91704 8.98249 5.95523C9.09189 5.99343 9.18163 6.07351 9.23198 6.17787C9.28233 6.28223 9.28916 6.40232 9.25097 6.51171C8.82903 7.93362 8.73796 9.4332 8.98473 10.8957C8.99477 10.9522 8.99359 11.01 8.98125 11.066C8.96891 11.122 8.94565 11.175 8.91281 11.222C8.87997 11.269 8.83819 11.309 8.78986 11.3398C8.74152 11.3707 8.68759 11.3917 8.63113 11.4016C8.60588 11.4061 8.58029 11.4083 8.55465 11.4084Z" fill="#252525"/>
<path d="M12.4523 9.47968C12.3889 9.47976 12.3261 9.46596 12.2685 9.43927C12.2109 9.41257 12.1599 9.37361 12.1189 9.32512C11.1767 8.22959 10.0019 7.35807 8.68018 6.77408C8.57449 6.73067 8.49004 6.64754 8.44496 6.54255C8.39987 6.43756 8.39776 6.31908 8.43907 6.21255C8.48037 6.10601 8.5618 6.01993 8.66588 5.97277C8.76995 5.92561 8.88837 5.92114 8.9957 5.96032C10.4563 6.59212 11.7527 7.55018 12.7855 8.76096C12.8392 8.82453 12.8736 8.90213 12.8847 8.98462C12.8958 9.06711 12.8831 9.15105 12.8481 9.22656C12.8131 9.30208 12.7573 9.36602 12.6872 9.41086C12.617 9.45571 12.5356 9.47958 12.4523 9.47968ZM23.4453 11.4083C23.4197 11.4082 23.3941 11.4058 23.3688 11.4013C23.2548 11.381 23.1535 11.3163 23.0872 11.2214C23.0209 11.1264 22.995 11.0091 23.0152 10.895C23.262 9.43257 23.1712 7.93302 22.7496 6.51104C22.7114 6.40169 22.7182 6.28164 22.7686 6.17731C22.8189 6.07298 22.9086 5.99291 23.0179 5.95472C23.1273 5.91653 23.2473 5.92334 23.3517 5.97366C23.456 6.02398 23.5361 6.11369 23.5743 6.22304C24.0504 7.78551 24.1533 9.43789 23.8747 11.0474C23.8569 11.1484 23.8041 11.2399 23.7256 11.3059C23.6471 11.3719 23.5479 11.4082 23.4453 11.4083Z" fill="#252525"/>
<path d="M19.5471 9.47965C19.4638 9.47956 19.3824 9.45568 19.3123 9.41084C19.2421 9.36599 19.1863 9.30205 19.1513 9.22654C19.1163 9.15102 19.1036 9.06708 19.1147 8.98459C19.1258 8.90211 19.1602 8.82451 19.214 8.76093C20.2471 7.55029 21.5437 6.59226 23.0044 5.96029C23.1123 5.91837 23.2324 5.92103 23.3384 5.96769C23.4443 6.01435 23.5274 6.10118 23.5693 6.20909C23.6112 6.317 23.6086 6.43715 23.5619 6.5431C23.5153 6.64905 23.4284 6.73213 23.3205 6.77405C21.9982 7.35779 20.8228 8.22932 19.8802 9.32509C19.8393 9.37356 19.7883 9.4125 19.7307 9.4392C19.6732 9.4659 19.6105 9.4797 19.5471 9.47965ZM15.0079 28.2387C4.61587 28.2387 3.63859 17.8067 3.31027 14.304C3.27507 13.928 3.24819 13.632 3.21651 13.4435C2.92627 11.7065 1.87411 11.1139 1.82931 11.0899C1.74384 11.0438 1.67618 10.9705 1.63699 10.8816C1.59781 10.7927 1.58935 10.6933 1.61294 10.5991C1.63654 10.5049 1.69084 10.4212 1.76728 10.3612C1.84372 10.3013 1.93794 10.2686 2.03507 10.2681H6.30387C8.9904 10.2712 11.566 11.3398 13.4656 13.2396C15.3652 15.1393 16.4336 17.715 16.4364 20.4016V27.7712C16.4364 27.8823 16.394 27.9892 16.3179 28.0702C16.2418 28.1511 16.1377 28.1999 16.0268 28.2067C15.6799 28.2285 15.3378 28.2387 15.0079 28.2387ZM3.16051 11.1414C3.64547 11.7708 3.9615 12.5136 4.07859 13.2995C4.11411 13.512 4.14259 13.8253 4.18067 14.2221C4.72659 20.0432 6.51667 27.6864 15.5631 27.3555V20.4016C15.5603 17.9467 14.5839 15.5931 12.8481 13.8571C11.1123 12.1211 8.7588 11.1445 6.30387 11.1414H3.16051Z" fill="#252525"/>
<path d="M16.0001 28.2077C15.9615 28.2077 15.9231 28.2027 15.8858 28.1927C12.1854 27.1959 10.2039 21.8887 9.03559 17.9847C7.24359 11.9952 2.18759 11.1687 1.97159 11.1367C1.85702 11.1197 1.75388 11.0579 1.68487 10.9649C1.61586 10.8719 1.58662 10.7552 1.60359 10.6407C1.62057 10.5261 1.68236 10.4229 1.77538 10.3539C1.8684 10.2849 1.98502 10.2557 2.09959 10.2727C2.15751 10.281 7.91655 11.1984 9.8724 17.7357C10.9809 21.44 12.8321 26.4663 16.1137 27.3495C16.2157 27.3772 16.3041 27.4411 16.3626 27.5291C16.4212 27.6172 16.4458 27.7234 16.4319 27.8282C16.418 27.933 16.3666 28.0292 16.2872 28.099C16.2078 28.1688 16.1058 28.2074 16.0001 28.2077Z" fill="#252525"/>
<path d="M16.992 28.2388C16.6624 28.2388 16.3231 28.2281 15.9741 28.2068C15.8632 28.2 15.759 28.1511 15.6829 28.0702C15.6068 27.9893 15.5644 27.8823 15.5645 27.7712V20.4016C15.5672 17.7153 16.6355 15.1397 18.5349 13.24C20.4342 11.3402 23.0096 10.2715 25.696 10.2682H29.9635C30.0612 10.2681 30.1561 10.3008 30.233 10.361C30.31 10.4212 30.3645 10.5055 30.3878 10.6004C30.4112 10.6953 30.402 10.7952 30.3618 10.8843C30.3216 10.9733 30.2527 11.0463 30.1661 11.0915C30.1245 11.1143 29.0713 11.7066 28.7821 13.4435C28.7501 13.633 28.7232 13.9274 28.6883 14.3027C28.36 17.8039 27.3817 28.2388 16.992 28.2388ZM16.4377 27.3555C25.5037 27.6941 27.2745 20.0429 27.8205 14.2211C27.8573 13.825 27.8867 13.512 27.9222 13.2999C28.0388 12.5138 28.3549 11.7707 28.8403 11.1415H25.696C23.241 11.1444 20.8874 12.121 19.1516 13.857C17.4157 15.593 16.4392 17.9467 16.4365 20.4016L16.4377 27.3555Z" fill="#252525"/>
<path d="M16 28.2077C15.8943 28.2074 15.7923 28.1687 15.713 28.0989C15.6336 28.0291 15.5823 27.9329 15.5685 27.8281C15.5546 27.7233 15.5793 27.6171 15.6378 27.5291C15.6963 27.4411 15.7847 27.3773 15.8867 27.3495C19.168 26.466 21.0189 21.4401 22.1267 17.7361C24.0832 11.2001 29.8422 10.2813 29.8998 10.2721C30.0144 10.2551 30.131 10.2843 30.224 10.3533C30.317 10.4223 30.3788 10.5255 30.3958 10.6401C30.4128 10.7546 30.3836 10.8712 30.3145 10.9643C30.2455 11.0573 30.1424 11.1191 30.0278 11.1361C29.8134 11.1681 24.7552 11.9962 22.9635 17.9857C21.7958 21.8897 19.8147 27.1949 16.1136 28.1937C16.0765 28.2033 16.0383 28.208 16 28.2077Z" fill="#252525"/>
</svg>
