<svg width="32" height="32" viewBox="0 0 32 32" fill="none" xmlns="http://www.w3.org/2000/svg">
<path d="M9.60899 18.3579H5.77752C5.57429 18.3579 5.37938 18.4386 5.23567 18.5824C5.09196 18.7261 5.01123 18.921 5.01123 19.1242V27.1703C5.01123 27.2719 5.0516 27.3693 5.12345 27.4412C5.19531 27.5131 5.29276 27.5534 5.39438 27.5534H9.99213C10.0937 27.5534 10.1912 27.5131 10.2631 27.4412C10.3349 27.3693 10.3753 27.2719 10.3753 27.1703V19.1242C10.3753 18.921 10.2945 18.7261 10.1508 18.5824C10.0071 18.4386 9.81222 18.3579 9.60899 18.3579ZM9.60899 26.7871H5.77752V19.1242H9.60899V26.7871Z" fill="#252525"/>
<path d="M27.234 11.4613H23.4025C23.1993 11.4613 23.0044 11.542 22.8607 11.6857C22.7169 11.8295 22.6362 12.0244 22.6362 12.2276V16.6859C21.5072 16.3177 20.2835 16.3672 19.1879 16.8254V15.2928C19.1879 15.0895 19.1072 14.8946 18.9635 14.7509C18.8198 14.6072 18.6248 14.5265 18.4216 14.5265H14.5901C14.3869 14.5265 14.192 14.6072 14.0483 14.7509C13.9046 14.8946 13.8239 15.0895 13.8239 15.2928V27.1703C13.8239 27.2719 13.8642 27.3694 13.9361 27.4412C14.0079 27.5131 14.1054 27.5534 14.207 27.5534H18.8048C18.9064 27.5534 19.0038 27.5131 19.0757 27.4412C19.1475 27.3694 19.1879 27.2719 19.1879 27.1703V26.0209C20.2834 26.4794 21.5071 26.5293 22.6362 26.1615V27.1703C22.6362 27.2719 22.6766 27.3694 22.7484 27.4412C22.8203 27.5131 22.9177 27.5534 23.0194 27.5534H27.6171C27.7187 27.5534 27.8162 27.5131 27.888 27.4412C27.9599 27.3694 28.0003 27.2719 28.0003 27.1703V12.2276C28.0003 12.0244 27.9195 11.8295 27.7758 11.6857C27.6321 11.542 27.4372 11.4613 27.234 11.4613ZM18.4216 26.7872H14.5901V15.2928H18.4216V17.2326C17.717 17.6815 17.137 18.3008 16.7352 19.0333C16.3333 19.7657 16.1227 20.5877 16.1227 21.4231C16.1227 22.2585 16.3333 23.0805 16.7352 23.8129C17.137 24.5454 17.717 25.1647 18.4216 25.6136V26.7872ZM21.1036 25.6377C20.2701 25.6377 19.4552 25.3905 18.7621 24.9274C18.069 24.4643 17.5288 23.8061 17.2098 23.036C16.8908 22.2658 16.8074 21.4184 16.97 20.6009C17.1326 19.7833 17.534 19.0324 18.1235 18.4429C18.7129 17.8535 19.4638 17.4521 20.2814 17.2895C21.099 17.1269 21.9464 17.2103 22.7165 17.5293C23.4866 17.8483 24.1448 18.3885 24.6079 19.0816C25.0711 19.7747 25.3182 20.5895 25.3182 21.4231C25.3169 22.5405 24.8725 23.6117 24.0824 24.4018C23.2922 25.1919 22.221 25.6364 21.1036 25.6377ZM27.234 26.7872H23.4025V25.8373C24.2109 25.4177 24.8885 24.7841 25.3615 24.0057C25.8344 23.2273 26.0845 22.3339 26.0845 21.4231C26.0845 20.5123 25.8344 19.6189 25.3615 18.8405C24.8885 18.0621 24.2109 17.4285 23.4025 17.0089V12.2276H27.234V26.7872Z" fill="#252525"/>
<path d="M5.87305 17.0801C6.09035 17.2923 6.38201 17.411 6.68571 17.411C6.98941 17.411 7.28106 17.2923 7.49836 17.0801C9.21562 15.3261 14.441 10.1379 14.441 10.1379C14.441 10.1379 16.51 12.4011 17.1916 13.1647C17.3324 13.3161 17.502 13.4377 17.6906 13.5225C17.8791 13.6073 18.0827 13.6535 18.2893 13.6583C18.496 13.6632 18.7015 13.6267 18.8939 13.551C19.0862 13.4752 19.2614 13.3617 19.4092 13.2172C20.6023 11.9977 24.2346 8.38995 24.2346 8.38995C24.2346 8.38995 24.397 8.55088 24.4499 8.60567C24.5551 8.70689 24.6869 8.77625 24.8299 8.80574C24.9729 8.83523 25.1214 8.82363 25.2581 8.77229C25.3948 8.72095 25.5142 8.63197 25.6024 8.51562C25.6907 8.39928 25.7442 8.26034 25.7568 8.11486C25.7901 7.41791 25.9423 5.33091 25.9423 5.33091C25.9488 5.22204 25.9322 5.11301 25.8935 5.01104C25.8548 4.90906 25.7949 4.81645 25.7177 4.73933C25.6406 4.6622 25.548 4.60231 25.446 4.56361C25.3441 4.52491 25.235 4.50828 25.1262 4.51481L22.3414 4.70064C22.1955 4.71218 22.0559 4.76506 21.9389 4.8531C21.8219 4.94113 21.7324 5.06067 21.6809 5.19772C21.6294 5.33477 21.618 5.48365 21.6481 5.62694C21.6781 5.77023 21.7484 5.90199 21.8506 6.00679L22.0667 6.22288L18.3778 9.91181C18.3778 9.91181 16.3199 7.67156 15.6498 6.91101C15.5105 6.75435 15.3409 6.62761 15.1512 6.53848C14.9614 6.44936 14.7556 6.39971 14.5461 6.39254C14.3366 6.38538 14.1278 6.42084 13.9325 6.4968C13.7371 6.57275 13.5592 6.6876 13.4095 6.83438C11.4003 8.86276 7.37345 12.9172 5.33128 14.9123C5.11891 15.1295 5 15.4213 5 15.7251C5 16.0289 5.11891 16.3207 5.33128 16.5379C5.46807 16.672 5.73895 16.9429 5.87305 17.0801ZM5.87305 15.454C7.92288 13.4643 11.9842 9.44629 13.9525 7.375C14.0298 7.30356 14.1206 7.24818 14.2195 7.21206C14.3184 7.17594 14.4235 7.1598 14.5287 7.16458C14.6339 7.16935 14.7371 7.19495 14.8323 7.23988C14.9276 7.28481 15.0129 7.34819 15.0835 7.42634C15.7939 8.28497 17.3441 9.88959 18.0816 10.7245C18.117 10.762 18.1595 10.7922 18.2066 10.8132C18.2537 10.8342 18.3045 10.8456 18.3561 10.8468C18.4077 10.8481 18.459 10.839 18.507 10.8202C18.5551 10.8015 18.5989 10.7733 18.636 10.7375C19.6778 9.65779 22.8801 6.49376 22.8801 6.49376C22.952 6.42191 22.9923 6.32448 22.9923 6.22288C22.9923 6.12128 22.952 6.02385 22.8801 5.952L22.3932 5.46502L25.1775 5.27919L24.9921 8.0639L24.5055 7.5773C24.4336 7.50547 24.3362 7.46512 24.2346 7.46512C24.133 7.46512 24.0355 7.50547 23.9637 7.5773C23.9637 7.5773 20.1303 11.3888 18.8678 12.6731C18.7939 12.7452 18.7063 12.8018 18.6101 12.8396C18.514 12.8774 18.4113 12.8956 18.3081 12.8931C18.2048 12.8906 18.1031 12.8676 18.0089 12.8253C17.9147 12.7829 17.8298 12.7222 17.7594 12.6467C17.0115 11.8095 15.4946 10.1536 14.7387 9.32407C14.7038 9.28571 14.6615 9.25484 14.6143 9.23332C14.5671 9.2118 14.5161 9.20007 14.4643 9.19885C14.4124 9.19764 14.3609 9.20695 14.3128 9.22623C14.2646 9.24552 14.2209 9.27437 14.1843 9.31104C12.3773 11.1176 8.74358 14.7107 6.95736 16.5372C6.88492 16.6079 6.7877 16.6475 6.68647 16.6475C6.58524 16.6475 6.48802 16.6079 6.41559 16.5372C6.28149 16.4 6.0106 16.1291 5.87382 15.995C5.80304 15.9228 5.76333 15.8258 5.76319 15.7247C5.76305 15.6236 5.80248 15.5264 5.87305 15.454Z" fill="#252525"/>
</svg>
