<svg width="32" height="32" viewBox="0 0 32 32" fill="none" xmlns="http://www.w3.org/2000/svg">
<path d="M20.5833 7.29167C20.5833 6.02804 19.5553 5 18.2917 5H13.7083C12.4447 5 11.4167 6.02804 11.4167 7.29167V8.66667H5V16.4583H5.91667V27H26.0833V16.4583H27V8.66667H20.5833V7.29167ZM12.3333 7.29167C12.3333 6.53358 12.9503 5.91667 13.7083 5.91667H18.2917C19.0498 5.91667 19.6667 6.53358 19.6667 7.29167V8.66667H12.3333V7.29167ZM6.83333 23.8329C7.39526 23.9289 7.91355 24.1969 8.31665 24.6C8.71975 25.0031 8.98778 25.5214 9.08375 26.0833H6.83333V23.8329ZM22.9163 26.0833C23.0122 25.5214 23.2803 25.0031 23.6834 24.6C24.0865 24.1969 24.6047 23.9289 25.1667 23.8329V26.0833H22.9163ZM25.1667 22.9066C24.36 23.0094 23.6104 23.3771 23.0354 23.9521C22.4604 24.5271 22.0927 25.2767 21.99 26.0833H10.01C9.90721 25.2767 9.53945 24.5271 8.96449 23.9522C8.38953 23.3772 7.63992 23.0095 6.83333 22.9066V16.4583H13.25V19.2083H15.5417V20.125H16.4583V19.2083H18.75V16.4583H25.1667V22.9066ZM15.5417 17.375V18.2917H14.1667V16.4583H17.8333V18.2917H16.4583V17.375H15.5417ZM26.0833 15.5417H5.91667V9.58333H26.0833V15.5417Z" fill="#252525"/>
</svg>
