<svg width="32" height="32" viewBox="0 0 32 32" fill="none" xmlns="http://www.w3.org/2000/svg">
<path d="M16.4445 4.44385C16.3266 4.44386 16.2136 4.49065 16.1302 4.574C16.0469 4.65735 16.0001 4.77042 16 4.88829V7.17128C15.9992 7.23017 16.0101 7.28861 16.0321 7.34326C16.054 7.39791 16.0866 7.4477 16.128 7.48964C16.1693 7.53158 16.2186 7.56489 16.2729 7.58762C16.3273 7.61035 16.3856 7.62202 16.4445 7.62202C16.5034 7.62202 16.5617 7.61035 16.616 7.58762C16.6704 7.56489 16.7197 7.53158 16.761 7.48964C16.8024 7.4477 16.835 7.39791 16.8569 7.34326C16.8789 7.28861 16.8898 7.23017 16.8889 7.17128V5.33274H29.3334V13.3327H23.1789C23.134 13.3258 23.0883 13.3258 23.0434 13.3327H18.698C18.6391 13.3319 18.5806 13.3428 18.5259 13.3647C18.4713 13.3867 18.4215 13.4193 18.3796 13.4607C18.3377 13.502 18.3044 13.5513 18.2816 13.6056C18.2589 13.66 18.2472 13.7183 18.2472 13.7772C18.2472 13.8361 18.2589 13.8944 18.2816 13.9487C18.3044 14.0031 18.3377 14.0523 18.3796 14.0937C18.4215 14.1351 18.4713 14.1677 18.5259 14.1896C18.5806 14.2116 18.6391 14.2225 18.698 14.2216H22.6667V16.3675L20.3646 17.9091C20.315 17.941 20.2722 17.9825 20.2387 18.0311C20.2052 18.0797 20.1818 18.1345 20.1697 18.1922C20.1576 18.25 20.1572 18.3096 20.1684 18.3676C20.1796 18.4255 20.2022 18.4807 20.2349 18.5298C20.2677 18.5789 20.3099 18.621 20.359 18.6536C20.4082 18.6862 20.4634 18.7087 20.5214 18.7198C20.5793 18.7309 20.6389 18.7302 20.6967 18.718C20.7544 18.7058 20.8092 18.6823 20.8577 18.6487L23.1112 17.14L25.3646 18.6487C25.4132 18.6823 25.4679 18.7058 25.5256 18.718C25.5834 18.7302 25.643 18.7309 25.7009 18.7198C25.7589 18.7087 25.8141 18.6862 25.8633 18.6536C25.9124 18.621 25.9546 18.5789 25.9874 18.5298C26.0201 18.4807 26.0427 18.4255 26.0539 18.3676C26.0651 18.3096 26.0647 18.25 26.0526 18.1922C26.0406 18.1345 26.0171 18.0797 25.9836 18.0311C25.9502 17.9825 25.9073 17.941 25.8577 17.9091L23.5556 16.3675V14.2216H29.7778C29.8957 14.2216 30.0087 14.1748 30.0921 14.0914C30.1754 14.0081 30.2223 13.8951 30.2223 13.7772V4.88829C30.2223 4.77042 30.1754 4.65735 30.0921 4.574C30.0087 4.49065 29.8957 4.44386 29.7778 4.44385H16.4445Z" fill="#252525"/>
<path fill-rule="evenodd" clip-rule="evenodd" d="M27.9896 7.13834C27.9248 7.13759 27.8606 7.15104 27.8015 7.17772C27.7424 7.20441 27.6899 7.24371 27.6476 7.29285L25.9567 9.19389L24.9011 8.17653C24.8183 8.09687 24.7078 8.05229 24.5929 8.05229C24.478 8.05229 24.3676 8.09687 24.2848 8.17653L21.9306 10.4422L20.8507 9.42827C20.7668 9.34979 20.6557 9.30693 20.5408 9.30858C20.4259 9.31024 20.3161 9.35629 20.2344 9.43716L18.3924 11.2566C18.3497 11.2974 18.3156 11.3462 18.292 11.4003C18.2685 11.4544 18.2559 11.5126 18.255 11.5716C18.2542 11.6306 18.2651 11.6893 18.2872 11.744C18.3092 11.7988 18.342 11.8485 18.3834 11.8905C18.4249 11.9325 18.4744 11.9657 18.5289 11.9884C18.5834 12.011 18.6418 12.0226 18.7008 12.0225C18.7598 12.0223 18.8182 12.0103 18.8726 11.9873C18.9269 11.9643 18.9762 11.9308 19.0174 11.8886L20.5539 10.3712L21.6303 11.3816C21.7129 11.4603 21.8226 11.5041 21.9367 11.5041C22.0508 11.5041 22.1605 11.4603 22.2431 11.3816L24.5921 9.11946L25.6719 10.1594C25.715 10.201 25.766 10.2335 25.8219 10.2549C25.8779 10.2763 25.9375 10.2861 25.9974 10.2838C26.0572 10.2816 26.1159 10.2674 26.1701 10.2419C26.2243 10.2163 26.2727 10.1801 26.3126 10.1354L28.3108 7.88899C28.3687 7.8258 28.4072 7.74716 28.4214 7.66264C28.4357 7.57812 28.4253 7.49124 28.3913 7.41253C28.3574 7.33382 28.3014 7.26669 28.2301 7.21906C28.1589 7.17144 28.0753 7.14533 27.9896 7.14409V7.13834Z" fill="#252525"/>
<path d="M14.4845 6.47862C11.9108 6.47862 9.8265 8.57027 9.8265 11.1488V15.2859C9.8265 16.6083 10.4994 17.7724 11.3977 18.6019C11.5387 18.7321 11.7117 18.7983 11.863 18.9127L11.5123 19.0863C11.5117 19.0863 11.5111 19.0863 11.5105 19.0863C11.5105 19.0863 7.4325 21.1133 3.79868 23.1002C2.80008 23.6011 1.90459 24.5902 1.90459 25.812V26.8415C1.90375 26.9004 1.91463 26.9588 1.93659 27.0135C1.95856 27.0681 1.99116 27.1179 2.03251 27.1598C2.07387 27.2018 2.12314 27.2351 2.17748 27.2578C2.23182 27.2805 2.29013 27.2922 2.34903 27.2922C2.40793 27.2922 2.46624 27.2805 2.52058 27.2578C2.57492 27.2351 2.62419 27.2018 2.66555 27.1598C2.7069 27.1179 2.7395 27.0681 2.76146 27.0135C2.78343 26.9588 2.79431 26.9004 2.79347 26.8415V25.812C2.79347 25.0499 3.4361 24.2749 4.19625 23.8936C4.20094 23.8907 4.20557 23.8877 4.21014 23.8847C7.82627 21.9067 11.9063 19.8794 11.9063 19.8794L12.698 19.4888C12.7126 19.4977 12.7371 19.4977 12.7518 19.503C13.3204 19.7771 13.9088 19.9527 14.4844 19.9527C14.4852 19.9528 14.4855 19.9527 14.4862 19.9527C14.49 19.9529 14.4912 19.9527 14.4949 19.9527C14.5111 19.9536 14.5274 19.9536 14.5436 19.9527C14.7237 19.9394 14.7699 19.8789 14.9203 19.852C15.3537 19.796 15.7837 19.7108 16.2067 19.5082C16.255 19.4905 16.3338 19.478 16.3821 19.4612L17.0991 19.8117L17.047 19.7824C17.2198 19.898 17.4393 19.9971 17.8595 20.2043C18.2797 20.4115 18.8554 20.6926 19.5679 21.0498C20.988 21.7618 22.9567 22.7759 25.3022 24.088C26.043 24.552 26.304 25.2324 26.304 26.246V26.9005C26.3031 26.9594 26.314 27.0178 26.336 27.0725C26.3579 27.1271 26.3905 27.1769 26.4319 27.2189C26.4733 27.2608 26.5225 27.2941 26.5769 27.3168C26.6312 27.3396 26.6895 27.3512 26.7484 27.3512C26.8073 27.3512 26.8656 27.3396 26.92 27.3168C26.9743 27.2941 27.0236 27.2608 27.0649 27.2189C27.1063 27.1769 27.1389 27.1271 27.1609 27.0725C27.1828 27.0178 27.1937 26.9594 27.1929 26.9005V26.246C27.1929 25.0551 26.7924 23.972 25.7745 23.3345C25.7682 23.3302 25.7618 23.326 25.7554 23.3221C23.3847 21.9954 21.4002 20.9728 19.9672 20.2543C19.2506 19.8951 18.6716 19.6116 18.2536 19.4055C17.8357 19.1994 17.534 19.0374 17.5418 19.0426C17.5251 19.0317 17.5077 19.0219 17.4897 19.0133L17.1772 18.8605C17.304 18.7616 17.452 18.7086 17.5713 18.5984C18.4697 17.7689 19.1425 16.6047 19.1425 15.2823V11.1452C19.1425 8.56669 17.0581 6.4751 14.4845 6.4751L14.4845 6.47862ZM14.4845 7.36751C16.5796 7.36751 18.2536 9.04601 18.2536 11.1488V15.2859C18.2536 16.3041 17.7246 17.2512 16.9689 17.9491C16.6272 18.2646 16.2364 18.5036 15.8456 18.6922C15.4387 18.8428 15.0891 19.0051 14.5244 19.055C14.517 19.0552 14.5076 19.0639 14.5001 19.0639C14.4995 19.0639 14.4991 19.064 14.4983 19.0639C13.9609 19.0417 13.5603 18.8599 13.1216 18.6906C12.7322 18.5023 12.3405 18.2654 12.0001 17.9511C11.2443 17.2532 10.7154 16.3061 10.7154 15.2879V11.1507C10.7154 9.04796 12.3892 7.36947 14.4845 7.36947L14.4845 7.36751Z" fill="#252525"/>
<path fill-rule="evenodd" clip-rule="evenodd" d="M20.8687 6.22487L20.669 6.50064H21.2291C21.2872 6.50064 21.6913 6.52908 21.8357 6.80348H20.8652L20.6649 7.0793H21.885C21.8848 7.08819 21.8844 7.08996 21.8842 7.09352C21.8842 7.09352 21.8779 7.69727 20.7784 7.59265V7.72329L20.7793 7.8649L21.9657 9.15634H22.4173V9.09949L21.279 7.81845V7.80066C21.279 7.80066 22.1749 7.814 22.3233 7.08386C22.3233 7.08386 22.3232 7.08385 22.3239 7.07496H22.7L22.8997 6.79925H22.3076C22.2853 6.69818 22.2397 6.58682 22.1503 6.49624H22.7046L22.9043 6.22058H20.8687V6.22487Z" fill="#252525"/>
</svg>
