<svg width="32" height="32" viewBox="0 0 32 32" fill="none" xmlns="http://www.w3.org/2000/svg">
<path fill-rule="evenodd" clip-rule="evenodd" d="M9.45605 0C9.69609 0 9.89066 0.195381 9.89066 0.436395V4.93795C9.90001 4.94541 9.90913 4.95327 9.918 4.96156L14.1726 8.95428C14.5851 9.34062 15.1279 9.55594 15.6919 9.55707C15.9721 9.5552 16.2495 9.502 16.5107 9.40014C16.7693 9.29515 17.007 9.14437 17.2124 8.95498L21.1692 5.15842V0.436395C21.1692 0.195381 21.3638 0 21.6038 0C21.8439 0 22.0384 0.195381 22.0384 0.436395V4.93285C22.395 5.27062 22.6809 5.67651 22.8794 6.12674C23.0819 6.58604 23.1891 7.08192 23.1945 7.58417V7.59443C23.1882 8.09628 23.0807 8.59168 22.8783 9.05063C22.6802 9.50008 22.3953 9.90545 22.0402 10.2433C20.9908 11.547 20.4791 13.2054 20.6115 14.877C20.6273 15.0767 20.5058 15.2616 20.3167 15.3253C18.7478 15.8545 17.1034 16.1231 15.4484 16.1205C13.942 16.1457 12.4443 15.886 11.0334 15.3552C10.8526 15.2872 10.7381 15.1075 10.7524 14.9142C10.8759 13.2448 10.3577 11.5916 9.30491 10.2944C8.94334 9.95995 8.65376 9.55458 8.45417 9.10322C8.25004 8.64156 8.14456 8.14206 8.14456 7.63693C8.14456 7.1318 8.25004 6.6323 8.45417 6.17068C8.59848 5.8443 8.78983 5.54201 9.02143 5.27315V0.436395C9.02143 0.195381 9.21601 0 9.45605 0ZM9.63764 5.89313C9.48041 6.08454 9.3494 6.29693 9.24863 6.52482C9.09381 6.87498 9.01381 7.25382 9.01381 7.63693C9.01381 8.02004 9.09381 8.39888 9.24863 8.74904C9.40347 9.09916 9.62969 9.41284 9.9127 9.66979C9.92852 9.68415 9.9433 9.69969 9.95686 9.71623C11.0941 11.1042 11.6884 12.8562 11.6365 14.6452C12.8584 15.0657 14.1447 15.2698 15.4378 15.2478L15.446 15.2477C16.8976 15.2504 18.3406 15.0318 19.7257 14.5999C19.6676 12.8133 20.2543 11.061 21.3844 9.66966C21.3969 9.65426 21.4104 9.63973 21.4249 9.6262C21.7047 9.36445 21.9287 9.0485 22.0835 8.69742C22.2375 8.34786 22.3198 7.97073 22.3253 7.58853C22.3204 7.20651 22.2385 6.82942 22.0845 6.48C21.9851 6.25456 21.8571 6.04369 21.704 5.85251L17.8099 9.58893L17.8041 9.59443C17.5202 9.85692 17.1913 10.0656 16.8334 10.2106L16.8287 10.2125C16.4674 10.3538 16.0833 10.4275 15.6956 10.4299H15.6923C14.9081 10.4288 14.1532 10.1297 13.5798 9.59255L9.63764 5.89313ZM20.4166 16.288C20.5281 16.3614 20.5999 16.4821 20.6113 16.6155C20.6225 16.7462 20.6927 17.0215 20.8353 17.4435C20.973 17.8508 21.1644 18.3566 21.393 18.9272C21.85 20.0678 22.4485 21.4501 23.0448 22.7888C23.6407 24.1268 24.2327 25.4176 24.6759 26.3742C24.8974 26.8525 25.0817 27.247 25.2105 27.5219C25.275 27.6594 25.3255 27.7669 25.36 27.84L25.4124 27.9512C25.4124 27.9513 25.4126 27.9516 25.02 28.1388L25.4126 27.9516C25.463 28.0583 25.4683 28.181 25.4271 28.2916C25.386 28.4022 25.3019 28.4913 25.1941 28.5386C22.1801 29.8622 18.926 30.5455 15.6364 30.5455C12.3468 30.5455 9.0927 29.8622 6.07871 28.5386C5.96195 28.4874 5.87348 28.3872 5.83672 28.2647C5.79995 28.1422 5.8186 28.0096 5.88771 27.9022C6.46357 27.0065 7.65031 24.5559 8.71621 22.1122C9.24644 20.8966 9.74143 19.6949 10.1101 18.7052C10.2945 18.2101 10.4457 17.7721 10.5537 17.4143C10.6647 17.0467 10.7204 16.7939 10.7307 16.6554C10.7409 16.5184 10.8147 16.3942 10.93 16.3201C11.0452 16.2461 11.1885 16.2309 11.3166 16.2791C12.6266 16.772 14.0173 17.0128 15.4161 16.989L15.4249 16.9889C16.9937 16.9941 18.5527 16.7409 20.0399 16.2392C20.1662 16.1966 20.3051 16.2146 20.4166 16.288ZM24.4341 27.915C24.4308 27.908 24.4274 27.9008 24.424 27.8936C24.2947 27.6177 24.1099 27.2219 23.8877 26.7423C23.4434 25.7834 22.8495 24.4883 22.2513 23.1451C21.6534 21.8028 21.0496 20.4088 20.5866 19.253C20.3552 18.6754 20.1571 18.1529 20.0122 17.7239C19.9512 17.5436 19.8968 17.3718 19.8531 17.2147C18.4181 17.6479 16.9265 17.8662 15.4264 17.8617C14.0918 17.8839 12.764 17.6827 11.4975 17.2674C11.4657 17.3933 11.4278 17.5275 11.3856 17.6674C11.2703 18.0496 11.1122 18.5064 10.9242 19.011C10.5482 20.0206 10.0465 21.238 9.51244 22.4624C8.58563 24.5872 7.54493 26.7707 6.88309 27.9334C9.65819 29.0812 12.6319 29.6727 15.6364 29.6727C18.6569 29.6727 21.6463 29.0748 24.4341 27.915Z" fill="#252525"/>
</svg>
