<svg width="32" height="32" viewBox="0 0 32 32" fill="none" xmlns="http://www.w3.org/2000/svg">
<path d="M26.0129 17.943V13.8131C26.0127 13.7925 26.0112 13.7719 26.0084 13.7515C26.0077 13.7466 26.0069 13.7417 26.0061 13.7369C26.0032 13.7185 25.9992 13.7003 25.994 13.6824C25.9936 13.6808 25.9933 13.6792 25.9928 13.6777C25.9869 13.6581 25.9796 13.639 25.9711 13.6204C25.9695 13.6169 25.9678 13.6135 25.9661 13.6101C25.9584 13.594 25.9498 13.5784 25.9403 13.5634C25.9388 13.5609 25.9374 13.5583 25.9358 13.5558C25.9249 13.5393 25.9129 13.5236 25.9001 13.5086C25.8972 13.5052 25.8942 13.5021 25.8912 13.4988C25.8799 13.4864 25.868 13.4745 25.8555 13.4634C25.8526 13.4608 25.8498 13.458 25.8468 13.4555C25.8316 13.4426 25.8155 13.4307 25.7988 13.4199C25.7956 13.4178 25.7923 13.416 25.7891 13.414C25.7732 13.4042 25.7567 13.3953 25.7397 13.3875C25.7381 13.3867 25.7366 13.3857 25.735 13.385L25.7278 13.3817L25.7261 13.381L15.3791 8.7679C15.319 8.74113 15.254 8.72729 15.1882 8.72729C15.1225 8.72729 15.0574 8.74113 14.9974 8.7679L4.64154 13.385C4.55881 13.4218 4.48853 13.4819 4.43921 13.5579C4.38989 13.6339 4.36365 13.7225 4.36365 13.8131C4.36365 13.9037 4.38989 13.9923 4.43921 14.0683C4.48853 14.1443 4.55881 14.2043 4.64154 14.2412L7.83923 15.6669V21.1884C7.83968 21.4434 7.91871 21.6921 8.06558 21.9006C8.21244 22.1091 8.41999 22.2672 8.65997 22.3535L8.74939 22.3855C10.3325 22.9525 11.9695 23.5389 15.0548 23.5553C15.0995 23.5555 15.1435 23.5556 15.1876 23.5556C18.3413 23.5556 20.0319 22.9533 21.6672 22.3706L21.7147 22.3537C21.9551 22.2677 22.1632 22.1096 22.3104 21.9009C22.4577 21.6922 22.5369 21.4432 22.5374 21.1878V15.6669L25.0754 14.5353V17.943C24.7029 18.0555 24.3832 18.2981 24.1747 18.6266C23.9662 18.9552 23.8828 19.3477 23.9396 19.7326C23.9964 20.1176 24.1898 20.4692 24.4843 20.7235C24.7789 20.9777 25.155 21.1176 25.5441 21.1176C25.9332 21.1176 26.3093 20.9777 26.6039 20.7235C26.8984 20.4692 27.0918 20.1176 27.1486 19.7326C27.2055 19.3477 27.122 18.9552 26.9135 18.6266C26.705 18.2981 26.3854 18.0555 26.0129 17.943ZM21.5999 21.1878C21.5997 21.2498 21.5804 21.3102 21.5447 21.3608C21.5089 21.4114 21.4584 21.4498 21.4 21.4706L21.3525 21.4875C19.7706 22.0512 18.136 22.6329 15.0598 22.6178C12.1348 22.6022 10.6439 22.0683 9.06549 21.5029L8.97589 21.4708C8.91769 21.4499 8.86734 21.4116 8.8317 21.3611C8.79606 21.3105 8.77687 21.2502 8.77673 21.1884V16.0849L14.9974 18.8583C15.0574 18.8851 15.1225 18.8989 15.1882 18.8989C15.254 18.8989 15.319 18.8851 15.3791 18.8583L21.5999 16.0848V21.1878ZM15.1882 17.917L5.98352 13.8131L15.1882 9.70924L24.393 13.8131L15.1882 17.917ZM25.5441 20.1801C25.4088 20.1801 25.2764 20.1399 25.1639 20.0647C25.0513 19.9895 24.9636 19.8827 24.9118 19.7576C24.86 19.6325 24.8464 19.4949 24.8728 19.3621C24.8992 19.2294 24.9644 19.1074 25.0601 19.0117C25.1558 18.916 25.2778 18.8508 25.4105 18.8244C25.5433 18.7979 25.6809 18.8115 25.806 18.8633C25.9311 18.9151 26.0379 19.0028 26.1132 19.1154C26.1884 19.2279 26.2285 19.3602 26.2285 19.4956C26.2283 19.6771 26.1561 19.851 26.0278 19.9793C25.8995 20.1077 25.7256 20.1798 25.5441 20.1801Z" fill="#252525"/>
</svg>
