<svg width="32" height="32" viewBox="0 0 32 32" fill="none" xmlns="http://www.w3.org/2000/svg">
<path d="M2.98064 4.20189C2.98064 6.19783 4.57313 8.60845 6.55126 8.60845C8.52938 8.60845 10.1225 6.19783 10.1225 4.20189C10.1225 2.23783 8.52064 0.640015 6.55127 0.640015C4.58251 0.640015 2.98064 2.23783 2.98064 4.20189ZM8.84251 4.20189C8.84251 5.5672 7.73126 7.32845 6.55126 7.32845C5.37126 7.32845 4.26064 5.5672 4.26064 4.20189C4.26064 2.94377 5.28814 1.92001 6.55127 1.92001C7.8144 1.92001 8.84251 2.94377 8.84251 4.20189ZM1.28001 16.9794H5.42657C5.91298 22.3455 10.3027 26.4802 15.743 26.6291L14.3575 28.0103C14.1075 28.2597 14.1069 28.665 14.3563 28.9153C14.6041 29.1638 15.0091 29.1681 15.2613 28.9166L17.7256 26.4597C17.8463 26.3397 17.9138 26.1766 17.9138 26.0066C17.9138 25.8366 17.8463 25.6734 17.7256 25.5534L15.2613 23.0966C15.0113 22.8472 14.6063 22.8478 14.3563 23.0978C14.1069 23.3481 14.1075 23.7534 14.3575 24.0028L15.7063 25.3473C10.9909 25.1828 7.18767 21.619 6.70907 16.9794H11.6538C12.0075 16.9794 12.2938 16.6928 12.2938 16.3394V14.2169C12.2938 14.2128 12.2938 14.2087 12.2938 14.205C12.2513 11.5238 10.03 9.34281 7.34126 9.34281H5.59564C2.91064 9.34281 0.734389 11.4359 0.640015 14.1306V16.3394C0.640015 16.6928 0.926261 16.9794 1.28001 16.9794ZM5.59564 10.6228H7.34126C9.33564 10.6228 10.9831 12.2397 11.0138 14.2169V15.6994H1.92001L1.91939 14.1531C1.98939 12.1735 3.60376 10.6228 5.59564 10.6228ZM31.36 28.5972C31.36 28.5941 31.36 28.5906 31.36 28.5875C31.3194 25.9053 29.0981 23.7231 26.4081 23.7231H24.6625C21.9775 23.7231 19.8013 25.8166 19.7069 28.5113V30.72C19.7069 31.0735 19.9931 31.36 20.3469 31.36H30.72C31.0738 31.36 31.36 31.0735 31.36 30.72V28.5972ZM30.08 30.08H20.9869L20.9863 28.5338C21.0563 26.5541 22.6706 25.0031 24.6625 25.0031H26.4081C28.4025 25.0031 30.05 26.6197 30.08 28.5972V30.08H30.08ZM25.3722 15.0328C23.5177 15.1597 22.0469 16.7013 22.0469 18.5825C22.0469 20.5785 23.64 22.9891 25.6181 22.9891C27.5963 22.9891 29.1894 20.5785 29.1894 18.5825C29.1894 16.9823 28.1258 15.6255 26.6666 15.1776C26.2525 9.7358 21.8391 5.52689 16.3416 5.37829L17.7256 3.99845C17.9756 3.74907 17.9763 3.34376 17.7269 3.09345C17.4769 2.84314 17.0719 2.84251 16.8219 3.0922L14.3575 5.54908C14.2369 5.66908 14.1694 5.8322 14.1694 6.0022C14.1694 6.17221 14.2369 6.33533 14.3575 6.45533L16.8219 8.91189C17.0704 9.15978 17.4754 9.16276 17.7269 8.91065C17.9763 8.66034 17.9756 8.25502 17.7256 8.00565L16.3755 6.65987C21.0988 6.82158 24.9 10.3869 25.3722 15.0328ZM27.9094 18.5825C27.9094 19.9478 26.7981 21.7091 25.6181 21.7091C24.4381 21.7091 23.3269 19.9478 23.3269 18.5825C23.3269 17.3241 24.355 16.3003 25.6181 16.3003C26.8813 16.3003 27.9094 17.3241 27.9094 18.5825Z" fill="#252525"/>
</svg>
