<svg width="32" height="32" viewBox="0 0 32 32" fill="none" xmlns="http://www.w3.org/2000/svg">
<path d="M19.7498 9.66983C19.9751 9.43078 20.1158 9.11091 20.1158 8.75717C20.1158 8.26573 19.8459 7.84016 19.4494 7.60845L20.9251 3.67177C21.0096 3.44713 20.8866 3.19261 20.6507 3.12455C19.0274 2.65118 17.7455 3.00306 16.5064 3.34308C15.0352 3.74632 13.6456 4.1276 11.6493 3.15023C11.3111 2.98429 10.9425 3.3191 11.0748 3.67172L12.5505 7.60839C12.154 7.84011 11.8841 8.26567 11.8841 8.75712C11.8841 9.11288 12.0261 9.43461 12.2536 9.67403C8.58957 12.2917 6 18.2318 6 22.4693C6 27.3818 9.55433 30.0872 16.0082 30.0872C22.4514 30.0872 26 27.3818 26 22.4693C25.9999 18.2292 23.4114 12.2849 19.7498 9.66983ZM13.2187 9.25665C12.9435 9.25665 12.7193 9.03238 12.7193 8.75717C12.7193 8.48154 12.9435 8.25727 13.2187 8.25727H18.7812C19.0564 8.25727 19.2807 8.48154 19.2807 8.75717C19.2807 9.03238 19.0564 9.25665 18.7812 9.25665H13.2187ZM16.727 4.14838C17.7806 3.85967 18.7816 3.58569 19.9779 3.81932L18.6272 7.42219H13.3726L12.1944 4.27929C14.0077 4.89377 15.3871 4.51621 16.727 4.14838ZM16.0081 29.2522C11.8234 29.2522 6.83503 28.0754 6.83503 22.4693C6.83503 18.3746 9.5119 12.3471 13.1228 10.0821C13.155 10.0844 13.1859 10.0917 13.2187 10.0917H18.7812C18.8174 10.0917 18.8514 10.0839 18.8868 10.081C22.4922 12.3453 25.1649 18.374 25.1649 22.4693C25.1649 28.0754 20.1855 29.2522 16.0081 29.2522Z" fill="#252525"/>
<path d="M15.9988 15.3289C13.4059 15.3289 11.2966 17.4381 11.2966 20.0306C11.2966 22.623 13.4059 24.7323 15.9988 24.7323C18.5937 24.7323 20.705 22.623 20.705 20.0306C20.705 17.4381 18.5937 15.3289 15.9988 15.3289ZM15.9988 23.8972C13.8667 23.8972 12.1317 22.1627 12.1317 20.0306C12.1317 17.8985 13.8667 16.1639 15.9988 16.1639C18.1333 16.1639 19.87 17.8985 19.87 20.0306C19.87 22.1627 18.1333 23.8972 15.9988 23.8972Z" fill="#252525"/>
<path d="M15.9273 18.7557H16.9178C17.1486 18.7557 17.3353 18.5689 17.3353 18.3381C17.3353 18.1073 17.1486 17.9206 16.9178 17.9206H16.4183V17.7457C16.4183 17.5149 16.2316 17.3281 16.0007 17.3281C15.7699 17.3281 15.5832 17.5149 15.5832 17.7457V17.9742C15.0543 18.1251 14.6637 18.6074 14.6637 19.1842C14.6637 19.881 15.2305 20.4482 15.9274 20.4482C15.9692 20.4482 16.1135 20.4482 16.0717 20.4482C16.3082 20.4482 16.5003 20.6406 16.5003 20.8771C16.5003 21.1136 16.3082 21.3057 16.0717 21.3057H15.0812C14.8504 21.3057 14.6637 21.4924 14.6637 21.7232C14.6637 21.954 14.8504 22.1408 15.0812 22.1408H15.5832V22.3157C15.5832 22.5465 15.7699 22.7332 16.0007 22.7332C16.2315 22.7332 16.4182 22.5465 16.4182 22.3157V22.0863C16.9459 21.9346 17.3352 21.453 17.3352 20.8771C17.3352 20.1803 16.7685 19.6131 16.0716 19.6131C16.0298 19.6131 15.8855 19.6131 15.9273 19.6131C15.6908 19.6131 15.4987 19.4207 15.4987 19.1842C15.4987 18.9477 15.6908 18.7557 15.9273 18.7557Z" fill="#252525"/>
</svg>
