<svg width="32" height="32" viewBox="0 0 32 32" fill="none" xmlns="http://www.w3.org/2000/svg">
<g clip-path="url(#clip0_1_520)">
<path d="M29.7687 10.0938C29.2206 9.5532 28.4692 9.21892 27.6469 9.22461C26.0022 9.23602 24.6567 10.6003 24.668 12.245L24.675 13.2449L6.67732 13.3695L6.66765 12.3724C6.65628 10.7277 5.28917 9.37945 3.64449 9.39085C1.99995 9.40211 0.654279 10.7666 0.665654 12.4112L0.723833 20.4129C0.735207 22.0576 2.09954 23.4032 3.74421 23.3918C5.3889 23.3804 6.73442 22.0161 6.72305 20.3714L6.71612 19.3715L24.7165 19.2441L24.7234 20.244C24.7348 21.8886 26.0991 23.2342 27.7438 23.2228C29.3885 23.2114 30.734 21.8471 30.7227 20.2024L30.6673 12.2034C30.6616 11.3811 30.3169 10.6345 29.7687 10.0938ZM28.3753 11.5067C28.5551 11.684 28.6655 11.9316 28.6675 12.2173L28.7229 20.2163C28.7269 20.7876 28.3013 21.2191 27.73 21.223C27.1587 21.227 26.7271 20.8014 26.7232 20.2301L26.7163 19.2302L26.6747 13.231L26.6678 12.2311C26.6638 11.6598 27.0894 11.2283 27.6607 11.2244C27.9464 11.2224 28.1955 11.3293 28.3753 11.5067ZM24.6888 15.2446L24.7027 17.2443L6.70227 17.3718L6.68843 15.372L24.6888 15.2446ZM4.37568 11.6701C4.55551 11.8475 4.66316 12.0979 4.66513 12.3835L4.67206 13.3834L4.63339 13.3837L4.64031 14.3835L4.67771 19.3856L4.71638 19.3854L4.72331 20.3852C4.72725 20.9565 4.30167 21.388 3.73037 21.392C3.15907 21.396 2.72751 20.9704 2.72357 20.3991L2.66539 12.3974C2.66146 11.8261 3.08718 11.3944 3.65834 11.3906C3.94399 11.3886 4.19587 11.4928 4.37568 11.6701Z" fill="#252525"/>
</g>
<defs>
<clipPath id="clip0_1_520">
<rect width="32" height="32" fill="white"/>
</clipPath>
</defs>
</svg>
