<svg width="32" height="32" viewBox="0 0 32 32" fill="none" xmlns="http://www.w3.org/2000/svg">
<path d="M17.3332 4.26672C15.425 4.26672 13.8666 5.82512 13.8666 7.73339C13.8666 9.68555 15.0066 11.6792 16.2499 13.2331C16.8716 14.0102 17.5252 14.6739 18.1104 15.1571C18.4029 15.3987 18.6771 15.5947 18.9354 15.7404C19.1936 15.8862 19.4222 15.9998 19.7333 15.9998C20.0444 15.9998 20.273 15.8862 20.5312 15.7404C20.7894 15.5947 21.0636 15.3987 21.3562 15.1571C21.9414 14.6739 22.5949 14.0102 23.2166 13.2331C24.46 11.6789 25.6 9.68528 25.6 7.73339C25.6 5.82512 24.0416 4.26672 22.1333 4.26672C21.2036 4.26674 20.3782 4.71149 19.7333 5.35942C19.0884 4.71147 18.2631 4.26672 17.3333 4.26672H17.3332ZM17.3332 5.33339C18.1154 5.33341 18.8471 5.71321 19.2968 6.35318C19.346 6.42323 19.4113 6.4804 19.4873 6.51988C19.5632 6.55935 19.6476 6.57995 19.7332 6.57995C19.8188 6.57995 19.9032 6.55935 19.9791 6.51988C20.0551 6.4804 20.1204 6.42323 20.1697 6.35318C20.6193 5.71323 21.351 5.33339 22.1332 5.33339C23.465 5.33339 24.5332 6.4016 24.5332 7.73339C24.5332 9.2479 23.5398 11.1209 22.3832 12.5667C21.8049 13.2897 21.1918 13.9093 20.677 14.3345C20.4195 14.547 20.1854 14.7114 20.0061 14.8126C19.8269 14.9137 19.6888 14.9334 19.7332 14.9334C19.7777 14.9334 19.6396 14.9137 19.4603 14.8126C19.281 14.7114 19.0469 14.547 18.7895 14.3345C18.2747 13.9093 17.6616 13.2897 17.0832 12.5667C15.9266 11.1209 14.9333 9.2479 14.9333 7.73339C14.9333 6.4016 16.0015 5.33339 17.3333 5.33339H17.3332ZM10.674 16.0001C10.5737 15.9987 10.4751 16.0256 10.3894 16.0778C10.3038 16.1299 10.2345 16.2051 10.1897 16.2948L7.67088 21.3334H4.80006C4.65861 21.3334 4.52295 21.3896 4.42293 21.4896C4.32291 21.5896 4.26672 21.7253 4.26672 21.8667C4.26672 22.0082 4.32291 22.1438 4.42293 22.2439C4.52295 22.3439 4.65861 22.4001 4.80006 22.4001H8.00006C8.09911 22.4001 8.1962 22.3725 8.28047 22.3204C8.36473 22.2684 8.43283 22.1939 8.47714 22.1053L10.6667 17.7261L15.523 27.4387C15.5673 27.5273 15.6354 27.6018 15.7197 27.6539C15.8039 27.706 15.901 27.7336 16.0001 27.7336C16.0992 27.7336 16.1963 27.706 16.2805 27.6539C16.3648 27.6018 16.4329 27.5273 16.4772 27.4387L19.7335 20.9261L21.3897 24.2386C21.4277 24.3145 21.4832 24.3803 21.5517 24.4304C21.6202 24.4805 21.6997 24.5136 21.7835 24.5268C21.8674 24.5401 21.9532 24.5331 22.0338 24.5066C22.1144 24.48 22.1875 24.4345 22.247 24.374L24.1897 22.4001H27.2001C27.3416 22.4001 27.4772 22.3439 27.5773 22.2439C27.6773 22.1438 27.7335 22.0082 27.7335 21.8667C27.7335 21.7253 27.6773 21.5896 27.5773 21.4896C27.4772 21.3896 27.3416 21.3334 27.2001 21.3334H23.9668C23.896 21.3334 23.8259 21.3475 23.7607 21.3749C23.6954 21.4022 23.6362 21.4423 23.5866 21.4928L22.0105 23.0938L20.2105 19.4949C20.1662 19.4063 20.0981 19.3318 20.0139 19.2797C19.9296 19.2276 19.8325 19.2 19.7334 19.2C19.6344 19.2 19.5373 19.2276 19.453 19.2797C19.3687 19.3318 19.3006 19.4063 19.2563 19.4949L16.0001 26.0074L11.1438 16.2949C11.1001 16.2074 11.0331 16.1336 10.9502 16.0816C10.8674 16.0297 10.7718 16.0015 10.674 16.0001L10.674 16.0001Z" fill="#252525"/>
</svg>
