<svg width="32" height="32" viewBox="0 0 32 32" fill="none" xmlns="http://www.w3.org/2000/svg">
<g clip-path="url(#clip0_1_522)">
<path d="M14.9598 17.6059H14.6498V13.0259C14.6498 12.7559 14.4348 12.5409 14.1648 12.5409H13.7448V5.66089C13.6098 2.88089 10.2798 0.215888 10.1348 0.105888C9.98982 -0.00911163 9.78982 -0.0291116 9.61982 0.0508884C7.48982 1.09589 7.39982 5.21589 7.39482 5.68589V12.5409H6.97482C6.70482 12.5409 6.48982 12.7559 6.48982 13.0259V17.6059H6.17982C5.90982 17.6059 5.69482 17.8209 5.69482 18.0909V30.2609C5.69482 31.2209 6.47482 32.0009 7.43482 32.0009H13.6998C14.6598 32.0009 15.4398 31.2209 15.4398 30.2609V18.0909C15.4448 17.8209 15.2298 17.6059 14.9598 17.6059ZM8.36982 5.69089C8.37482 4.66089 8.65482 1.97589 9.79482 1.08589C10.5448 1.74089 12.6848 3.77089 12.7798 5.69089V12.5459H8.36982V5.69089ZM7.46482 13.5109H13.6798V17.6059H7.46482V13.5109ZM14.4748 30.2609C14.4748 30.6859 14.1298 31.0309 13.7048 31.0309H7.43982C7.01482 31.0309 6.66982 30.6859 6.66982 30.2609V18.5759H14.4748V30.2609ZM25.8148 13.0909H18.0398C17.7698 13.0909 17.5548 13.3059 17.5548 13.5759V30.3159C17.5548 31.2459 18.3098 31.9959 19.2348 31.9959H24.6148C25.5448 31.9959 26.2948 31.2409 26.2948 30.3159V13.5759C26.2998 13.3109 26.0798 13.0909 25.8148 13.0909ZM25.3298 30.3209C25.3298 30.7159 25.0098 31.0309 24.6198 31.0309H19.2398C18.8448 31.0309 18.5248 30.7109 18.5248 30.3209V14.0609H25.3298V30.3209Z" fill="#252525"/>
</g>
<defs>
<clipPath id="clip0_1_522">
<rect width="32" height="32" fill="white"/>
</clipPath>
</defs>
</svg>
