<svg width="32" height="32" viewBox="0 0 32 32" fill="none" xmlns="http://www.w3.org/2000/svg">
<path d="M8.03784 11.1152L9.03041 11.527C9.45999 11.7049 9.65299 11.8556 9.65299 12.1669C9.65299 12.6209 9.29101 12.8313 8.69333 12.8313C8.38402 12.8258 8.07787 12.7679 7.78792 12.6601C7.71138 12.6313 7.62902 12.6215 7.54786 12.6314C7.46669 12.6414 7.38915 12.6709 7.32186 12.7173C7.25456 12.7638 7.19951 12.8258 7.16141 12.8982C7.12332 12.9705 7.1033 13.051 7.10308 13.1328C7.10134 13.2265 7.12625 13.3187 7.1749 13.3988C7.22356 13.4788 7.29396 13.5434 7.37791 13.5851C7.71229 13.7315 8.06882 13.8209 8.43274 13.8496V14.4398C8.43274 14.5154 8.46277 14.5879 8.51623 14.6413C8.56968 14.6948 8.64219 14.7248 8.71779 14.7248H9.17494C9.25046 14.7247 9.32285 14.6946 9.37622 14.6412C9.42958 14.5877 9.45955 14.5153 9.45955 14.4398V13.7656C9.85026 13.6902 10.201 13.4772 10.448 13.1653C10.695 12.8533 10.8219 12.4631 10.8057 12.0655C10.8057 11.2748 10.361 10.8541 9.65299 10.5598L8.71912 10.1644C8.33223 10.0043 8.13879 9.86113 8.13879 9.54984C8.13879 9.12915 8.50077 8.91881 9.16516 8.91881C9.39577 8.92077 9.62452 8.96027 9.84244 9.03577C9.91144 9.06126 9.98501 9.07206 10.0584 9.06745C10.1318 9.06285 10.2035 9.04295 10.2688 9.00904C10.334 8.97512 10.3915 8.92794 10.4375 8.87051C10.4835 8.81308 10.5169 8.74668 10.5357 8.67556C10.5678 8.54928 10.5517 8.41561 10.4906 8.30054C10.4295 8.18546 10.3278 8.09722 10.2053 8.05298C9.96459 7.97 9.714 7.91902 9.45999 7.90133V7.38637C9.45999 7.31085 9.43002 7.23841 9.37666 7.18497C9.3233 7.13152 9.25091 7.10144 9.17538 7.10132H8.71823C8.64263 7.10132 8.57013 7.13135 8.51667 7.18481C8.46321 7.23827 8.43318 7.31077 8.43318 7.38637V7.97693C8.0349 8.03756 7.671 8.23737 7.40608 8.54088C7.14116 8.84439 6.99237 9.23196 6.98612 9.63478C6.97127 9.96347 7.06671 10.2877 7.25727 10.5559C7.44783 10.8242 7.72257 11.021 8.03784 11.1152Z" fill="#252525"/>
<path d="M11.8901 17.6892H6.50342V18.5786H11.8901V17.6892Z" fill="#252525"/>
<path d="M11.89 20.8341H4.7655V21.7235H11.89V20.8341Z" fill="#252525"/>
<path d="M11.8901 23.979H6.50342V24.8684H11.8901V23.979Z" fill="#252525"/>
<path d="M28.1426 15.998V13.7652C28.1426 13.6972 28.127 13.63 28.0971 13.569C28.0671 13.5079 28.0235 13.4545 27.9696 13.413C27.9156 13.3718 27.853 13.3434 27.7865 13.3298C27.7199 13.3163 27.6512 13.318 27.5854 13.3347L26.0774 13.7292C25.4913 13.03 24.7672 12.4594 23.9505 12.0529C23.1337 11.6464 22.2418 11.4129 21.3307 11.3669V8.96286C21.3307 8.84492 21.2838 8.73183 21.2004 8.64845L16.6796 4.1303C16.5962 4.04689 16.4831 4.00003 16.3652 4H2.4447C2.32676 4 2.21365 4.04685 2.13025 4.13025C2.04685 4.21365 2 4.32676 2 4.4447V28.2553C2 28.3732 2.04685 28.4863 2.13025 28.5697C2.21365 28.6531 2.32676 28.7 2.4447 28.7H20.8838C21.0017 28.7 21.1148 28.6531 21.1982 28.5697C21.2816 28.4863 21.3285 28.3732 21.3285 28.2553V24.7173C22.2061 24.6709 23.066 24.4517 23.8587 24.0721C24.6514 23.6925 25.3612 23.16 25.9476 22.5053L27.5832 22.9331C27.6199 22.9425 27.6577 22.9473 27.6957 22.9474C27.8136 22.9474 27.9267 22.9005 28.0101 22.8171C28.0935 22.7337 28.1404 22.6206 28.1404 22.5027V20.2698C28.6142 20.1677 29.0387 19.9066 29.3435 19.5297C29.6483 19.1529 29.8149 18.6831 29.8156 18.1984V18.069C29.8149 17.5847 29.6486 17.1152 29.3442 16.7385C29.0399 16.3618 28.6159 16.1005 28.1426 15.998ZM25.273 14.8587V21.4069L20.9207 20.2711V15.9967L25.273 14.8587ZM16.8121 5.51999L19.812 8.51994H16.8099L16.8121 5.51999ZM2.8894 27.8106V4.8894H15.9191V8.96286C15.9191 9.0808 15.966 9.19391 16.0494 9.27731C16.1328 9.3607 16.2459 9.40756 16.3638 9.40756H20.4377V11.3731C18.7598 11.5071 17.1938 12.2677 16.0511 13.5036C14.9084 14.7396 14.2728 16.3604 14.2706 18.0436C14.2697 18.9414 14.4513 19.8299 14.8043 20.6554L13.8997 24.3726C13.8842 24.4381 13.8837 24.5063 13.8983 24.572C13.913 24.6377 13.9423 24.6993 13.9842 24.752C14.0261 24.8047 14.0794 24.8472 14.1401 24.8763C14.2008 24.9054 14.2673 24.9204 14.3347 24.92C14.3657 24.9201 14.3968 24.9168 14.4272 24.9103L18.1626 24.1151C18.8795 24.4465 19.6498 24.6471 20.4373 24.7075V27.8106H2.8894ZM20.9674 23.8465C20.0822 23.8464 19.209 23.642 18.4157 23.2493C18.3263 23.205 18.2246 23.1923 18.1271 23.2133L14.935 23.8941L15.7074 20.7172C15.7308 20.6208 15.7212 20.5194 15.6803 20.429C15.3387 19.6796 15.1621 18.8655 15.1622 18.0419C15.1625 16.8885 15.5063 15.7614 16.1496 14.8042C16.793 13.8471 17.7069 13.1032 18.7748 12.6675C19.8426 12.2317 21.0161 12.1239 22.1454 12.3578C23.2748 12.5916 24.3089 13.1565 25.116 13.9804L20.4182 15.2087H19.7066C19.1054 15.2094 18.5289 15.4486 18.1037 15.8737C17.6785 16.2989 17.4394 16.8754 17.4387 17.4766V18.7916C17.4395 19.3929 17.6787 19.9693 18.1038 20.3944C18.529 20.8196 19.1054 21.0588 19.7066 21.0596H20.4182L24.9674 22.2496C23.8889 23.2764 22.4565 23.8487 20.9674 23.8479V23.8465ZM20.0335 20.1684H19.7093C19.3437 20.1684 18.993 20.0232 18.7345 19.7646C18.476 19.5061 18.3307 19.1555 18.3307 18.7898V17.4762C18.3307 17.1106 18.476 16.7599 18.7345 16.5014C18.993 16.2429 19.3437 16.0976 19.7093 16.0976H20.0335V20.1684ZM27.2532 21.9268L26.1624 21.6417V14.6261L27.2532 14.3411V21.9268ZM28.9284 18.1984C28.9282 18.4466 28.8531 18.6889 28.7129 18.8937C28.5727 19.0985 28.3739 19.2562 28.1426 19.3462V16.9212C28.3738 17.0113 28.5725 17.169 28.7127 17.3738C28.8529 17.5786 28.9281 17.8208 28.9284 18.069V18.1984Z" fill="#252525"/>
</svg>
