<svg width="32" height="32" viewBox="0 0 32 32" fill="none" xmlns="http://www.w3.org/2000/svg">
<path d="M26 14.5C26.276 14.5 26.5 14.276 26.5 14V13H27C27.276 13 27.5 12.776 27.5 12.5V10.5495C27.502 10.5325 27.51 10.5175 27.51 10.5C27.51 10.3015 27.394 10.1295 27.226 10.049L16.2815 2.58699C16.1115 2.47149 15.888 2.47149 15.718 2.58699L4.718 10.087C4.5885 10.1755 4.5 10.343 4.5 10.5V12.5C4.5 12.776 4.724 13 5 13H5.5V14C5.5 14.276 5.724 14.5 6 14.5H6.5V25H6C5.724 25 5.5 25.224 5.5 25.5V26.5H5C4.724 26.5 4.5 26.724 4.5 27V29C4.5 29.276 4.724 29.5 5 29.5H27C27.276 29.5 27.5 29.276 27.5 29V27C27.5 26.724 27.276 26.5 27 26.5H26.5V25.5C26.5 25.224 26.276 25 26 25H25.5V14.5H26ZM25.5 13.5H23V13H25.5V13.5ZM22.5 25C22.224 25 22 25.224 22 25.5V26.5H21V25.5C21 25.224 20.776 25 20.5 25H20V14.5H20.5C20.776 14.5 21 14.276 21 14V13H22V14C22 14.276 22.224 14.5 22.5 14.5H23V25H22.5ZM17.5 26.5V26H20V26.5H17.5ZM15.5 26.5V25.5C15.5 25.224 15.276 25 15 25H14.5V14.5H15C15.276 14.5 15.5 14.276 15.5 14V13H16.5V14C16.5 14.276 16.724 14.5 17 14.5H17.5V25H17C16.724 25 16.5 25.224 16.5 25.5V26.5H15.5ZM12 26.5V26H14.5V26.5H12ZM10 26.5V25.5C10 25.224 9.776 25 9.5 25H9V14.5H9.5C9.776 14.5 10 14.276 10 14V13H11V14C11 14.276 11.224 14.5 11.5 14.5H12V25H11.5C11.224 25 11 25.224 11 25.5V26.5H10ZM14.5 13V13.5H12V13H14.5ZM13.5 25H13V14.5H13.5V25ZM20 13V13.5H17.5V13H20ZM19 25H18.5V14.5H19V25ZM5.5 12V11H26.5V12H5.5ZM16 3.60499L25.379 9.99999H6.621L16 3.60499ZM9 13V13.5H6.5V13H9ZM7.5 14.5H8V25H7.5V14.5ZM6.5 26H9V26.5H6.5V26ZM26.5 28.5H5.5V27.5H26.5V28.5ZM23 26.5V26H25.5V26.5H23ZM24.5 25H24V14.5H24.5V25Z" fill="#252525"/>
</svg>
