<svg width="32" height="32" viewBox="0 0 32 32" fill="none" xmlns="http://www.w3.org/2000/svg">
<path d="M12.5311 1.4756C12.4104 1.51617 12.3111 1.59975 12.2544 1.70858L10.2866 5.43626C10.2486 5.49163 10.2235 5.55402 10.2129 5.61929C10.2022 5.68456 10.2064 5.75122 10.2251 5.81485V14.5225H7.76527C7.71434 14.5148 7.66246 14.5148 7.61153 14.5225C7.50902 14.5543 7.42039 14.6171 7.35928 14.7013C7.29817 14.7855 7.26796 14.8864 7.27331 14.9884V27.9479C7.27228 28.0416 7.30107 28.1333 7.35592 28.2113C7.41076 28.2892 7.48913 28.3497 7.58079 28.3848L15.4521 31.2388C15.5705 31.2841 15.7028 31.2841 15.8211 31.2388L23.6925 28.3848C23.7841 28.3497 23.8625 28.2892 23.9173 28.2113C23.9722 28.1333 24.001 28.0416 24 27.9479V14.9884C23.9999 14.8649 23.9481 14.7463 23.8558 14.659C23.7636 14.5716 23.6385 14.5225 23.508 14.5225H22.0321V1.94156C22.0321 1.81798 21.9803 1.69947 21.888 1.61209C21.7957 1.52471 21.6706 1.47561 21.5402 1.4756H16.6206C16.5696 1.46797 16.5177 1.46797 16.4668 1.4756C16.3643 1.50741 16.2757 1.57025 16.2146 1.65444C16.1534 1.73863 16.1232 1.83951 16.1286 1.94156V14.5225H15.1447V5.81485C15.1633 5.75122 15.1675 5.68456 15.1569 5.61929C15.1463 5.55402 15.1212 5.49163 15.0832 5.43626L13.1153 1.70858C13.0626 1.61076 12.975 1.53374 12.8681 1.49111C12.7612 1.44848 12.6419 1.44299 12.5311 1.4756ZM17.1125 2.40752H21.0482V14.5225H17.1125V13.5906H19.0804V12.6586H17.1125V11.7267H18.0964V10.7948H17.1125V9.86287H19.0804V8.93095H17.1125V7.99903H18.0964V7.06712H17.1125V6.1352H19.0804V5.20328H17.1125V4.27136H18.0964V3.33944H17.1125V2.40752ZM12.6849 2.96085L13.8533 5.20328H11.5165L12.6849 2.96085ZM11.209 6.1352H14.1607V14.5225H11.209V6.1352ZM8.25723 15.4544H23.016V27.6276L15.6366 30.3069L8.25723 27.6276V15.4544Z" fill="#252525"/>
</svg>
