<svg width="32" height="32" viewBox="0 0 32 32" fill="none" xmlns="http://www.w3.org/2000/svg">
<path d="M15.4596 12.3106C15.2244 12.0415 14.9344 11.826 14.609 11.6783C14.2836 11.5307 13.9304 11.4544 13.5731 11.4546H12.8801C13.2463 11.1645 13.5131 10.7677 13.6436 10.3191C13.774 9.8705 13.7616 9.39243 13.6081 8.95122C13.4545 8.51001 13.1674 8.12754 12.7866 7.85689C12.4058 7.58624 11.9503 7.44082 11.4831 7.44082C11.0159 7.44082 10.5603 7.58624 10.1796 7.85689C9.79877 8.12754 9.51168 8.51001 9.35811 8.95122C9.20455 9.39243 9.19213 9.8705 9.32258 10.3191C9.45303 10.7677 9.71987 11.1645 10.0861 11.4546H9.39308C9.03587 11.4543 8.68274 11.5305 8.35744 11.6781C8.03213 11.8257 7.74218 12.0411 7.50708 12.3101L5.70708 14.3666C5.3219 14.8081 5.10403 15.3709 5.09151 15.9567C5.07899 16.5424 5.27262 17.114 5.63858 17.5716L8.42509 21.0581L7.98308 29.4281C7.97948 29.4959 7.98975 29.5638 8.01326 29.6276C8.03677 29.6913 8.07303 29.7496 8.11982 29.7989C8.16661 29.8482 8.22296 29.8874 8.28542 29.9142C8.34787 29.9409 8.41513 29.9547 8.48308 29.9546H10.2331C10.3543 29.9545 10.4714 29.9105 10.5625 29.8305C10.6537 29.7506 10.7127 29.6403 10.7286 29.5201L11.4831 23.7871L12.2376 29.5201C12.2535 29.6403 12.3125 29.7506 12.4036 29.8305C12.4948 29.9105 12.6119 29.9545 12.7331 29.9546H14.4831C14.551 29.9547 14.6183 29.9409 14.6808 29.9142C14.7432 29.8874 14.7996 29.8482 14.8463 29.7989C14.8931 29.7496 14.9294 29.6913 14.9529 29.6276C14.9764 29.5638 14.9867 29.4959 14.9831 29.4281L14.5426 21.0581L17.3286 17.5721C17.695 17.1143 17.8889 16.5423 17.8762 15.9561C17.8636 15.3698 17.6454 14.8067 17.2596 14.3651L15.4596 12.3106ZM11.4831 8.45459C11.7303 8.45459 11.972 8.5279 12.1775 8.66525C12.3831 8.80261 12.5433 8.99783 12.6379 9.22624C12.7325 9.45464 12.7573 9.70598 12.7091 9.94845C12.6608 10.1909 12.5418 10.4137 12.367 10.5885C12.1922 10.7633 11.9694 10.8823 11.7269 10.9306C11.4845 10.9788 11.2331 10.9541 11.0047 10.8594C10.7763 10.7648 10.5811 10.6046 10.4437 10.3991C10.3064 10.1935 10.2331 9.95182 10.2331 9.70459C10.2331 9.37307 10.3648 9.05513 10.5992 8.82071C10.8336 8.58629 11.1516 8.45459 11.4831 8.45459ZM16.5476 16.9476L14.4831 19.5301V18.3546L15.8991 16.2306C15.9632 16.1344 15.992 16.019 15.9807 15.9039C15.9693 15.7889 15.9183 15.6813 15.8366 15.5996L14.3366 14.0996C14.2666 14.0296 14.1773 13.982 14.0802 13.9627C13.9831 13.9435 13.8825 13.9535 13.7911 13.9915C13.6997 14.0296 13.6216 14.0939 13.5668 14.1763C13.5119 14.2587 13.4828 14.3556 13.4831 14.4546V19.9811L13.5331 20.9211L13.9561 28.9546H13.1716L11.9786 19.8891C11.9624 19.7692 11.9032 19.6592 11.8121 19.5795C11.721 19.4999 11.6041 19.456 11.4831 19.456C11.3621 19.456 11.2452 19.4999 11.154 19.5795C11.0629 19.6592 11.0038 19.7692 10.9876 19.8891L9.79458 28.9546H9.01008L9.43308 20.9211L9.48308 19.9546V14.4546C9.48306 14.3557 9.45373 14.2591 9.39879 14.1769C9.34384 14.0947 9.26576 14.0306 9.17441 13.9928C9.08306 13.9549 8.98254 13.945 8.88557 13.9643C8.78859 13.9836 8.69951 14.0312 8.62958 14.1011L7.12958 15.6011C7.04782 15.6828 6.99691 15.7904 6.98552 15.9054C6.97412 16.0205 7.00295 16.1359 7.06708 16.2321L8.48308 18.3546V19.5296L6.41808 16.9471C6.19862 16.6726 6.08251 16.3298 6.09 15.9784C6.09749 15.627 6.22812 15.2895 6.45908 15.0246L8.25908 12.9686C8.40047 12.8069 8.57482 12.6774 8.77042 12.5888C8.96602 12.5001 9.17833 12.4544 9.39308 12.4546H13.5731C13.7879 12.4545 14.0002 12.5003 14.1958 12.5891C14.3914 12.6778 14.5657 12.8074 14.7071 12.9691L16.5071 15.0231C16.7385 15.2882 16.8693 15.6262 16.8768 15.978C16.8842 16.3298 16.7676 16.673 16.5476 16.9476ZM14.4831 16.5546V15.6616L14.8396 16.0181L14.4831 16.5546ZM8.48308 15.6616V16.5546L8.12658 16.0196L8.48308 15.6616ZM22.4831 1.45459C21.7592 1.45443 21.0459 1.62892 20.4038 1.96324C19.7618 2.29756 19.2098 2.78186 18.7948 3.37501C18.3799 3.96817 18.1141 4.65269 18.0202 5.37047C17.9262 6.08825 18.0068 6.8181 18.2551 7.49809L17.3431 9.62709C17.3066 9.7124 17.2946 9.80618 17.3084 9.89794C17.3222 9.98969 17.3612 10.0758 17.4211 10.1466C17.4811 10.2175 17.5595 10.2702 17.6477 10.299C17.7359 10.3278 17.8304 10.3314 17.9206 10.3096L20.1111 9.77659C20.7027 10.1443 21.3716 10.3696 22.0651 10.4348C22.7586 10.5 23.4577 10.4034 24.1075 10.1525C24.7573 9.90152 25.34 9.50317 25.8096 8.98877C26.2793 8.47437 26.6231 7.85796 26.8141 7.18809C27.005 6.51821 27.0378 5.81315 26.91 5.12844C26.7821 4.44372 26.497 3.79804 26.0771 3.24223C25.6573 2.68643 25.1141 2.23567 24.4905 1.92547C23.8668 1.61526 23.1796 1.45407 22.4831 1.45459ZM22.4831 9.45459C21.77 9.45532 21.0738 9.23678 20.4891 8.82859C20.4311 8.78805 20.365 8.76038 20.2954 8.74745C20.2259 8.73451 20.1543 8.73661 20.0856 8.75359L18.6561 9.10359L19.2561 7.70359C19.2824 7.64176 19.2959 7.57527 19.2959 7.50809C19.2959 7.44091 19.2824 7.37442 19.2561 7.31259C18.9644 6.61979 18.9036 5.85151 19.0825 5.12143C19.2614 4.39136 19.6707 3.73828 20.2496 3.25886C20.8286 2.77945 21.5465 2.49915 22.2971 2.45947C23.0478 2.41979 23.7912 2.62282 24.4175 3.03853C25.0438 3.45423 25.5196 4.06052 25.7745 4.76766C26.0294 5.4748 26.0499 6.24522 25.8329 6.96491C25.6159 7.68459 25.173 8.3153 24.5697 8.76369C23.9664 9.21209 23.2348 9.45434 22.4831 9.45459Z" fill="#252525"/>
<path d="M14.3467 5.09094V4.09094H15.3467V3.09094H14.3467V2.09094H13.3467V3.09094H12.3467V4.09094H13.3467V5.09094H14.3467Z" fill="#252525"/>
<path d="M22.8467 14.5909H21.8467V15.5909H20.8467V16.5909H21.8467V17.5909H22.8467V16.5909H23.8467V15.5909H22.8467V14.5909Z" fill="#252525"/>
</svg>
