<svg width="32" height="32" viewBox="0 0 32 32" fill="none" xmlns="http://www.w3.org/2000/svg">
<g clip-path="url(#clip0_1_570)">
<path d="M22.6667 26.6667H3.33333C2.4496 26.6656 1.60237 26.3141 0.97748 25.6892C0.352588 25.0643 0.00105857 24.2171 0 23.3333L0 3.33333C0 1.496 1.496 0 3.33333 0H14C14.139 7.93322e-06 14.2745 0.0434514 14.3876 0.124255C14.5006 0.205059 14.5856 0.319183 14.6307 0.450667L23.2973 25.784C23.3311 25.8844 23.3405 25.9913 23.3249 26.096C23.3093 26.2008 23.2691 26.3003 23.2075 26.3865C23.146 26.4726 23.0648 26.5429 22.9708 26.5917C22.8768 26.6404 22.7726 26.6661 22.6667 26.6667ZM3.33333 1.33333C2.23067 1.33333 1.33333 2.23067 1.33333 3.33333V23.3333C1.33333 24.436 2.23067 25.3333 3.33333 25.3333H21.7333L13.524 1.33333H3.33333Z" fill="#252525"/>
<path d="M28.6667 32H18C17.8644 32 17.7321 31.9586 17.6206 31.8814C17.5091 31.8043 17.4238 31.6949 17.376 31.568L15.376 26.2346C15.3138 26.0692 15.3199 25.8857 15.3929 25.7247C15.4659 25.5637 15.5999 25.4382 15.7654 25.376C15.9309 25.3137 16.1143 25.3198 16.2753 25.3928C16.4364 25.4658 16.5618 25.5998 16.624 25.7653L18.4627 30.6666H28.6667C29.7694 30.6666 30.6667 29.7693 30.6667 28.6666V8.66665C30.6667 7.56398 29.7694 6.66665 28.6667 6.66665H16C15.8232 6.66665 15.6537 6.59641 15.5286 6.47138C15.4036 6.34636 15.3334 6.17679 15.3334 5.99998C15.3334 5.82317 15.4036 5.6536 15.5286 5.52858C15.6537 5.40355 15.8232 5.33331 16 5.33331H28.6667C30.504 5.33331 32 6.82931 32 8.66665V28.6666C32 30.504 30.504 32 28.6667 32Z" fill="#252525"/>
<path d="M18.0001 32C17.8719 32.0001 17.7464 31.9632 17.6386 31.8938C17.5308 31.8243 17.4453 31.7252 17.3924 31.6084C17.3395 31.4916 17.3214 31.362 17.3402 31.2352C17.3591 31.1084 17.4142 30.9897 17.4988 30.8933L22.1655 25.56C22.2232 25.4941 22.2933 25.4402 22.3718 25.4013C22.4503 25.3625 22.5357 25.3395 22.6231 25.3337C22.7106 25.3279 22.7983 25.3394 22.8812 25.3674C22.9642 25.3955 23.0409 25.4396 23.1068 25.4973C23.1727 25.555 23.2266 25.6252 23.2655 25.7037C23.3043 25.7822 23.3273 25.8676 23.3331 25.955C23.3389 26.0424 23.3274 26.1301 23.2994 26.2131C23.2713 26.2961 23.2272 26.3728 23.1695 26.4387L18.5028 31.772C18.44 31.8436 18.3627 31.9009 18.2761 31.9402C18.1894 31.9796 18.0953 31.9999 18.0001 32ZM12.6668 18.6667C12.5292 18.6669 12.3949 18.6244 12.2824 18.5452C12.17 18.4659 12.0848 18.3537 12.0388 18.224L9.33346 10.6493L6.62813 18.224C6.56872 18.3906 6.44558 18.5267 6.2858 18.6025C6.12602 18.6782 5.94268 18.6874 5.77613 18.628C5.60957 18.5686 5.47344 18.4455 5.39767 18.2857C5.32191 18.1259 5.31272 17.9426 5.37213 17.776L8.70546 8.44268C8.89479 7.91201 9.77213 7.91201 9.96013 8.44268L13.2935 17.776C13.3293 17.8765 13.3405 17.9842 13.3261 18.0899C13.3117 18.1956 13.2722 18.2964 13.2108 18.3836C13.1494 18.4709 13.0679 18.5422 12.9733 18.5914C12.8786 18.6407 12.7735 18.6665 12.6668 18.6667Z" fill="#252525"/>
<path d="M10.6667 14.6666H8.00004C7.82323 14.6666 7.65366 14.5964 7.52864 14.4714C7.40361 14.3464 7.33337 14.1768 7.33337 14C7.33337 13.8232 7.40361 13.6536 7.52864 13.5286C7.65366 13.4036 7.82323 13.3333 8.00004 13.3333H10.6667C10.8435 13.3333 11.0131 13.4036 11.1381 13.5286C11.2631 13.6536 11.3334 13.8232 11.3334 14C11.3334 14.1768 11.2631 14.3464 11.1381 14.4714C11.0131 14.5964 10.8435 14.6666 10.6667 14.6666ZM28.6667 14.6666H19.3334C19.1566 14.6666 18.987 14.5964 18.862 14.4714C18.7369 14.3464 18.6667 14.1768 18.6667 14C18.6667 13.8232 18.7369 13.6536 18.862 13.5286C18.987 13.4036 19.1566 13.3333 19.3334 13.3333H28.6667C28.8435 13.3333 29.0131 13.4036 29.1381 13.5286C29.2631 13.6536 29.3334 13.8232 29.3334 14C29.3334 14.1768 29.2631 14.3464 29.1381 14.4714C29.0131 14.5964 28.8435 14.6666 28.6667 14.6666Z" fill="#252525"/>
<path d="M23.3334 14.6667C23.1566 14.6667 22.987 14.5964 22.862 14.4714C22.737 14.3464 22.6667 14.1768 22.6667 14V12.6667C22.6667 12.4899 22.737 12.3203 22.862 12.1953C22.987 12.0702 23.1566 12 23.3334 12C23.5102 12 23.6798 12.0702 23.8048 12.1953C23.9298 12.3203 24.0001 12.4899 24.0001 12.6667V14C24.0001 14.1768 23.9298 14.3464 23.8048 14.4714C23.6798 14.5964 23.5102 14.6667 23.3334 14.6667ZM21.3334 22.6667C21.1913 22.6684 21.0524 22.6244 20.9372 22.5413C20.8219 22.4582 20.7363 22.3403 20.693 22.2049C20.6498 22.0696 20.6511 21.9239 20.6967 21.7893C20.7424 21.6548 20.83 21.5384 20.9467 21.4573C23.8654 19.384 26.0001 15.1547 26.0001 14.0013C26.0001 13.8245 26.0703 13.655 26.1953 13.5299C26.3204 13.4049 26.4899 13.3347 26.6667 13.3347C26.8436 13.3347 27.0131 13.4049 27.1381 13.5299C27.2632 13.655 27.3334 13.8245 27.3334 14.0013C27.3334 15.7587 24.7641 20.3813 21.7201 22.5453C21.6066 22.6244 21.4717 22.6667 21.3334 22.6667Z" fill="#252525"/>
<path d="M26.6665 24C26.5001 24.0006 26.3395 23.9382 26.2172 23.8253C25.7332 23.3826 21.4732 19.448 20.7159 17.584C20.6563 17.4217 20.6621 17.2425 20.7321 17.0844C20.802 16.9263 20.9307 16.8016 21.0909 16.7365C21.2511 16.6715 21.4303 16.6712 21.5907 16.7358C21.7511 16.8004 21.8801 16.9247 21.9505 17.0826C22.4959 18.4253 25.8652 21.6946 27.1172 22.8413C27.2164 22.932 27.2859 23.0507 27.3165 23.1816C27.3471 23.3125 27.3374 23.4497 27.2887 23.575C27.2399 23.7003 27.1544 23.8079 27.0434 23.8838C26.9324 23.9596 26.801 24.0001 26.6665 24Z" fill="#252525"/>
</g>
<defs>
<clipPath id="clip0_1_570">
<rect width="32" height="32" fill="white"/>
</clipPath>
</defs>
</svg>
