<svg width="32" height="32" viewBox="0 0 32 32" fill="none" xmlns="http://www.w3.org/2000/svg">
<path d="M16.025 19.9939C16.7118 19.9939 17.2496 19.3603 17.2496 18.5513C17.2496 18.2751 17.0258 18.0513 16.7496 18.0513C16.4734 18.0513 16.2496 18.2751 16.2496 18.5513C16.2496 18.8259 16.104 18.9939 16.025 18.9939C15.946 18.9939 15.8006 18.8259 15.8006 18.5513C15.8006 18.2767 15.946 18.1085 16.025 18.1085C16.3012 18.1085 16.525 17.8847 16.525 17.6085C16.525 17.3323 16.3012 17.1085 16.025 17.1085C15.3384 17.1085 14.8006 17.7423 14.8006 18.5513C14.8006 19.3467 15.3498 19.9939 16.025 19.9939ZM14.3178 9.84953L10.3118 6.57154C10.1618 6.44954 9.95384 6.42554 9.77984 6.50754C9.60584 6.58954 9.49384 6.76554 9.49384 6.95954V8.06354H8.54184C8.52984 7.89554 8.51384 7.72954 8.49784 7.56354C8.48584 7.43954 8.47184 7.31754 8.45584 7.19354L8.44584 7.11954C8.33184 6.20354 8.13584 5.29154 7.86384 4.40954L6.98384 1.55354C6.86984 1.18554 6.47784 0.977538 6.10784 1.09154C5.73784 1.20554 5.53184 1.59754 5.64584 1.96754L6.52584 4.82354C6.77384 5.62754 6.95184 6.45754 7.05784 7.29354L7.06584 7.36754C7.07384 7.43354 7.08184 7.49754 7.08784 7.56354C7.10784 7.72954 7.12384 7.89754 7.13584 8.06354H3.83984C3.70784 8.06354 3.57984 8.11554 3.48584 8.20954C3.39184 8.30354 3.33984 8.42954 3.33984 8.56354V11.9115C3.33984 12.1875 3.56384 12.4115 3.83984 12.4115H9.49384V13.5155C9.49384 13.7095 9.60584 13.8855 9.77984 13.9675C9.84784 13.9995 9.92184 14.0155 9.99384 14.0155C10.1078 14.0155 10.2198 13.9775 10.3118 13.9035L14.3178 10.6235C14.4338 10.5295 14.5018 10.3875 14.5018 10.2375C14.5018 10.0875 14.4338 9.94553 14.3178 9.84953ZM10.4938 12.4615V11.9115C10.4938 11.6355 10.2698 11.4115 9.99384 11.4115H4.33984V9.06354H9.99384C10.1278 9.06354 10.2538 9.00953 10.3478 8.91553C10.4418 8.82353 10.4938 8.69554 10.4938 8.56354V8.01354L13.2118 10.2375L10.4938 12.4615ZM28.5138 8.20954C28.4198 8.11554 28.2918 8.06354 28.1598 8.06354H24.8638C24.8758 7.89754 24.8918 7.72954 24.9118 7.56354C24.9178 7.49754 24.9258 7.43154 24.9338 7.36554L24.9418 7.29354C25.0478 6.45754 25.2258 5.62754 25.4738 4.82354L26.3538 1.96754C26.4678 1.59754 26.2618 1.20554 25.8918 1.09154C25.5218 0.977538 25.1298 1.18554 25.0158 1.55354L24.1358 4.40954C23.8638 5.29154 23.6678 6.20354 23.5538 7.11954L23.5438 7.19354C23.5278 7.31754 23.5138 7.43954 23.5018 7.56354C23.4838 7.72954 23.4698 7.89754 23.4578 8.06354H22.5058V6.95954C22.5058 6.76554 22.3938 6.58954 22.2198 6.50754C22.0458 6.42554 21.8378 6.44954 21.6878 6.57154L17.6818 9.84953C17.5658 9.94553 17.4978 10.0875 17.4978 10.2375C17.4978 10.3875 17.5658 10.5295 17.6818 10.6235L21.6878 13.9035C21.7798 13.9775 21.8918 14.0155 22.0058 14.0155C22.0778 14.0155 22.1518 13.9995 22.2198 13.9675C22.3938 13.8855 22.5058 13.7095 22.5058 13.5155V12.4115H28.1598C28.4358 12.4115 28.6598 12.1875 28.6598 11.9115V8.56354C28.6598 8.42954 28.6078 8.30354 28.5138 8.20954ZM27.6598 11.4115H22.0058C21.7298 11.4115 21.5058 11.6355 21.5058 11.9115V12.4615L18.7878 10.2375L21.5058 8.01354V8.56354C21.5058 8.69554 21.5578 8.82353 21.6518 8.91553C21.7458 9.00953 21.8718 9.06354 22.0058 9.06354H27.6598V11.4115Z" fill="#252525"/>
<path d="M27.5859 19.5296C27.3639 18.2836 26.9679 17.0756 26.4079 15.9416L26.3639 15.8556C25.8959 14.9076 25.5319 13.9216 25.2779 12.9116H23.8359C24.1179 14.1376 24.5439 15.3316 25.1099 16.4756L25.1519 16.5596C25.6539 17.5756 26.0079 18.6576 26.2079 19.7756L26.3859 20.7716C26.4037 20.8702 26.4173 20.97 26.4325 21.0692H16.0251H15.9747H5.56748C5.58268 20.9698 5.59608 20.8702 5.61388 20.7716L5.79188 19.7756C5.99188 18.6576 6.34588 17.5756 6.84788 16.5596L6.88988 16.4756C7.45588 15.3316 7.88188 14.1376 8.16388 12.9116H6.72188C6.46588 13.9216 6.10188 14.9096 5.63388 15.8576L5.59188 15.9396C5.03188 17.0756 4.63588 18.2836 4.41388 19.5296L4.23588 20.5256C4.09588 21.3096 4.02588 22.1116 4.02588 22.9076C4.02588 24.3416 4.13988 25.7876 4.36388 27.2036L4.86388 30.3496C4.91988 30.6936 5.21588 30.9396 5.55388 30.9396C5.59188 30.9396 5.62788 30.9356 5.66588 30.9296C6.04788 30.8696 6.30788 30.5116 6.24788 30.1296L5.74588 26.9836C5.68708 26.6102 5.63808 26.2346 5.59528 25.8578H10.5417C11.8687 25.8578 13.1395 26.4228 14.0285 27.4078L15.1939 28.6992C15.2385 28.7486 15.2909 28.7878 15.3463 28.822V30.2388C15.3463 30.6254 15.6597 30.9388 16.0463 30.9388C16.4329 30.9388 16.7463 30.6254 16.7463 30.2388V28.8222C16.8017 28.7878 16.8543 28.7486 16.8989 28.6992L18.0643 27.4078C18.9531 26.4228 20.2241 25.8578 21.5509 25.8578H26.4043C26.3611 26.2346 26.3115 26.6102 26.2521 26.9836L25.7521 30.1296C25.6921 30.5116 25.9521 30.8696 26.3341 30.9296C26.3721 30.9356 26.4081 30.9396 26.4461 30.9396C26.7841 30.9396 27.0801 30.6936 27.1361 30.3496L27.6361 27.2036C27.8601 25.7876 27.9761 24.3416 27.9761 22.9076C27.9761 22.1116 27.9041 21.3096 27.7641 20.5256L27.5859 19.5296ZM21.5507 24.4578C19.8285 24.4578 18.1789 25.1912 17.0247 26.47L16.0679 27.5304H16.0247L15.0679 26.47C13.9137 25.1912 12.2641 24.4578 10.5417 24.4578H5.47728C5.44648 23.9408 5.42588 23.4234 5.42588 22.9076C5.42588 22.7618 5.43028 22.6154 5.43548 22.4692H15.9747H16.0251H26.5661C26.5715 22.6154 26.5759 22.7616 26.5759 22.9076C26.5759 23.4238 26.5551 23.941 26.5237 24.4578H21.5507Z" fill="#252525"/>
</svg>
