<svg width="19" height="17" viewBox="0 0 19 17" fill="none" xmlns="http://www.w3.org/2000/svg">
<path d="M18.1374 10.459C18.0999 10.2483 17.9805 10.061 17.8053 9.93817C17.63 9.81529 17.4133 9.7668 17.2024 9.80328L17.765 12.9928C17.8698 12.9742 17.9698 12.9352 18.0595 12.878C18.1491 12.8207 18.2266 12.7464 18.2875 12.6592C18.3484 12.572 18.3915 12.4736 18.4144 12.3697C18.4372 12.2658 18.4394 12.1585 18.4208 12.0538L18.1374 10.459ZM0.59909 13.5514L0.882423 15.1461C0.923658 15.3539 1.04464 15.5371 1.21943 15.6567C1.39422 15.7762 1.60889 15.8225 1.81742 15.7857L1.2548 12.6123C1.15007 12.6309 1.05002 12.6699 0.960374 12.7272C0.870728 12.7844 0.793243 12.8588 0.732347 12.946C0.671451 13.0332 0.628338 13.1315 0.605473 13.2354C0.582608 13.3393 0.580439 13.4467 0.59909 13.5514ZM6.88099 14.7373C6.73933 13.9278 6.88099 14.2071 6.33861 13.5635C6.14838 13.3409 6.26576 13.1588 6.49647 12.5395C6.32647 11.5842 6.28599 11.6976 6.74337 11.3252L2.34361 11.653C2.28761 11.6578 2.23321 11.6742 2.18389 11.7011C2.13456 11.7281 2.09139 11.765 2.05712 11.8096C2.02285 11.8541 1.99823 11.9053 1.98484 11.9599C1.97145 12.0145 1.96957 12.0713 1.97933 12.1266C2.38409 14.4823 2.23433 13.5757 2.66742 16.0326C2.67674 16.0884 2.69767 16.1417 2.72886 16.1889C2.76004 16.2362 2.80079 16.2763 2.84847 16.3069C2.89616 16.3374 2.94971 16.3575 3.00567 16.3661C3.06164 16.3746 3.11877 16.3713 3.17338 16.3564L7.41933 15.1421L7.14004 15.0409C7.07431 15.017 7.0159 14.9765 6.9705 14.9233C6.92511 14.8701 6.89427 14.806 6.88099 14.7373ZM16.3403 9.58471C16.331 9.52887 16.31 9.47561 16.2788 9.42837C16.2477 9.38112 16.2069 9.34094 16.1592 9.31043C16.1115 9.27991 16.058 9.25973 16.002 9.2512C15.9461 9.24267 15.8889 9.24598 15.8343 9.2609L11.5884 10.4752L11.8677 10.5764C11.9339 10.6006 11.9927 10.6418 12.0381 10.6957C12.0835 10.7497 12.1141 10.8146 12.1267 10.884C12.2684 11.6935 12.1267 11.4142 12.6691 12.0578C12.8593 12.2804 12.7419 12.4626 12.5112 13.0819C12.6812 14.0371 12.7217 13.9238 12.2603 14.2961L16.6641 13.9642C16.7201 13.9595 16.7745 13.9431 16.8238 13.9161C16.8731 13.8892 16.9163 13.8523 16.9506 13.8077C16.9849 13.7632 17.0095 13.712 17.0229 13.6574C17.0363 13.6028 17.0381 13.546 17.0284 13.4907C16.5953 11.0378 16.7531 11.9364 16.3403 9.58471ZM9.51195 12.3978C9.44245 12.3975 9.37404 12.4151 9.31331 12.4489C9.25257 12.4826 9.20156 12.5315 9.16519 12.5907C9.12881 12.6499 9.1083 12.7175 9.10562 12.787C9.10294 12.8564 9.11819 12.9254 9.14989 12.9872C9.1816 13.0491 9.22869 13.1017 9.28664 13.1401C9.34459 13.1784 9.41144 13.2012 9.48076 13.2063C9.55007 13.2113 9.61952 13.1984 9.6824 13.1688C9.74529 13.1392 9.79949 13.0939 9.8398 13.0373C9.88282 12.9769 9.90841 12.9059 9.91378 12.8319C9.91915 12.7579 9.9041 12.6839 9.87027 12.6179C9.83644 12.5519 9.78512 12.4965 9.72193 12.4577C9.65874 12.4189 9.58611 12.3981 9.51195 12.3978Z" fill="#000"/>
<path d="M11.3698 11.2402C10.6371 10.973 10.8678 11.1471 10.3417 10.5197C9.56856 10.6573 9.85594 10.6897 9.08689 10.4104C8.49999 10.9285 8.75499 10.803 7.94951 10.9285C7.68237 11.6652 7.85642 11.4344 7.22904 11.9606C7.36666 12.7297 7.39904 12.4423 7.11975 13.2113C7.64594 13.8387 7.52451 13.5797 7.64999 14.3528C8.38261 14.6199 8.15189 14.4459 8.67808 15.0733C9.45118 14.9356 9.1638 14.9033 9.93285 15.1825C10.5319 14.6806 10.2648 14.7778 11.0702 14.6523C11.3374 13.9197 11.1633 14.1504 11.7907 13.6202C11.6531 12.8511 11.6207 13.1385 11.9 12.3694C11.3738 11.738 11.5074 12.0133 11.3698 11.2402ZM10.5238 13.4987C10.4095 13.6621 10.2568 13.7948 10.0791 13.8852C9.90141 13.9756 9.70419 14.0208 9.50487 14.0169C9.30554 14.013 9.11025 13.96 8.93623 13.8628C8.76221 13.7655 8.61481 13.6269 8.50706 13.4591C8.39931 13.2914 8.33451 13.0997 8.31839 12.901C8.30227 12.7023 8.33533 12.5027 8.41464 12.3198C8.49395 12.1369 8.61708 11.9763 8.77314 11.8522C8.92921 11.7282 9.11342 11.6445 9.30951 11.6085C9.54638 11.565 9.79082 11.593 10.0118 11.6888C10.2327 11.7846 10.4202 11.9439 10.5503 12.1465C10.6805 12.3491 10.7475 12.5859 10.7428 12.8267C10.738 13.0674 10.6618 13.3014 10.5238 13.4987ZM10.7828 15.5387C10.2607 15.9759 10.1433 16.1337 9.87618 16.0366C9.09499 15.7492 9.36618 15.7856 8.81975 15.8828L9.01808 16.9999L10.1433 16.3887L11.4102 16.579L11.2119 15.4618L10.7828 15.5387ZM9.71427 3.23801C9.71427 3.13066 9.67163 3.02771 9.59572 2.9518C9.51982 2.8759 9.41686 2.83325 9.30951 2.83325C9.20216 2.83325 9.09921 2.8759 9.0233 2.9518C8.94739 3.02771 8.90475 3.13066 8.90475 3.23801C8.90475 3.34536 8.94739 3.44832 9.0233 3.52422C9.09921 3.60013 9.20216 3.64278 9.30951 3.64278C9.41686 3.64278 9.51982 3.60013 9.59572 3.52422C9.67163 3.44832 9.71427 3.34536 9.71427 3.23801Z" fill="#000"/>
<path d="M8.13571 2.94262C8.20563 2.66501 8.37138 2.42103 8.6037 2.25375C8.83602 2.08647 9.11998 2.00665 9.40543 2.02839C9.69088 2.05013 9.95947 2.17202 10.1638 2.37254C10.3681 2.57307 10.495 2.83933 10.5221 3.12433C10.5491 3.40933 10.4747 3.69472 10.3118 3.93013C10.1489 4.16555 9.90802 4.33583 9.63177 4.41093C9.35552 4.48603 9.06161 4.46111 8.80195 4.34057C8.54228 4.22003 8.33356 4.01162 8.21262 3.75214L2.95071 4.26619L9.30952 6.47619L18.619 3.2381L9.30952 0L0 3.2381L1.64333 3.80881C1.75667 3.46476 1.56238 3.58214 8.13571 2.94262ZM2.42857 6.12405V4.94214L1.61905 4.65881V6.12405C1.88454 6.0555 2.16308 6.0555 2.42857 6.12405Z" fill="#000"/>
<path d="M4.65066 5.71118L4.04757 10.5238L4.53733 10.6655C7.47185 10.4469 7.25328 10.4833 7.26947 10.4428C7.36257 10.1757 7.54066 10.1919 8.2328 10.0705C8.77519 9.61713 8.87233 9.47142 9.14352 9.56856C9.89638 9.8438 9.6009 9.83166 10.4307 9.6819C10.5058 9.66658 10.5837 9.6729 10.6553 9.70013C10.727 9.72736 10.7894 9.77437 10.8354 9.83571L14.373 8.83594L13.9683 5.71118L9.30947 7.33428L4.65066 5.71118ZM1.21423 7.69047V9.30952H2.83328V7.69047C2.83328 7.47577 2.74799 7.26986 2.59618 7.11805C2.44436 6.96623 2.23846 6.88094 2.02376 6.88094C1.80906 6.88094 1.60315 6.96623 1.45134 7.11805C1.29952 7.26986 1.21423 7.47577 1.21423 7.69047Z" fill="#000"/>
</svg>
