<svg width="16" height="16" viewBox="0 0 16 16" fill="none" xmlns="http://www.w3.org/2000/svg">
<path fill-rule="evenodd" clip-rule="evenodd" d="M12.2529 16H0.810194C0.363968 16 0 15.6262 0 15.168V7.86021C0 7.40194 0.363968 7.02818 0.810194 7.02818H6.05352L5.78616 8.65769C5.73894 8.94541 5.89055 9.2288 6.15229 9.3422C6.41452 9.4558 6.71716 9.36979 6.88519 9.13388L8.38503 7.02818H12.2529C12.491 7.02818 12.696 7.12194 12.8553 7.30375L15.4282 10.2413C15.7585 10.6184 16 11.007 16 11.5141C16 12.0212 15.7584 12.4098 15.4282 12.7868L12.8553 15.7244C12.696 15.9062 12.491 16 12.2529 16ZM6.40816 3.31422e-05C6.27319 3.31422e-05 6.15803 0.0803706 6.10829 0.209209L4.38248 4.67984C4.36219 4.73242 4.36803 4.78715 4.399 4.83396C4.42997 4.88077 4.47732 4.90651 4.53242 4.90651H6.92503L6.29513 8.74575C6.28758 8.79173 6.3111 8.83569 6.35294 8.85381C6.39477 8.87193 6.44184 8.85855 6.46865 8.82092L10.0574 3.78245C10.0942 3.73084 10.0992 3.66673 10.071 3.60972C10.0428 3.5527 9.98948 3.51904 9.92723 3.51904H8.33919L9.83932 0.48113C9.89152 0.375449 9.88687 0.258902 9.82652 0.157925C9.76613 0.0569485 9.66703 0 9.55165 0H6.40816V3.31422e-05ZM12.8651 10.9672C12.571 11.2692 12.571 11.7589 12.8651 12.061C13.1592 12.3631 13.636 12.363 13.9302 12.061C14.2243 11.7589 14.2243 11.2692 13.9302 10.9672C13.636 10.6651 13.1592 10.6651 12.8651 10.9672ZM4.69774 13.2063L4.9419 12.4244L5.95403 12.4243L6.19829 13.2061C6.24171 13.3451 6.38658 13.4215 6.52187 13.377C6.65716 13.3324 6.73161 13.1836 6.68819 13.0446L5.69339 9.86053C5.66926 9.78125 5.60923 9.7149 5.52639 9.68757C5.3911 9.64297 5.24623 9.71944 5.20281 9.85838L4.20777 13.0448C4.16435 13.1837 4.23881 13.3325 4.3741 13.3771C4.50945 13.4217 4.65432 13.3452 4.69774 13.2063ZM5.44787 10.8041L5.10681 11.8963L5.7891 11.8963L5.44787 10.8041ZM11.2855 12.8307L10.0193 12.8308L10.0193 11.7656L10.841 11.7656C10.983 11.7656 11.0981 11.6474 11.0981 11.5016C11.0981 11.3558 10.983 11.2376 10.841 11.2376L10.0192 11.2376L10.0192 10.1725L11.2853 10.1724C11.4273 10.1724 11.5424 10.0542 11.5424 9.90837C11.5424 9.76257 11.4273 9.64437 11.2853 9.64437L9.7621 9.64447C9.62013 9.64447 9.50503 9.76267 9.50503 9.90847L9.50526 13.0948C9.50526 13.2406 9.62035 13.3588 9.76232 13.3588L11.2855 13.3587C11.4275 13.3587 11.5426 13.2405 11.5426 13.0947C11.5426 12.9489 11.4275 12.8307 11.2855 12.8307ZM8.86439 12.8309L7.59819 12.831L7.598 9.90867C7.598 9.76287 7.4829 9.64466 7.34094 9.64466C7.19897 9.64466 7.08387 9.76287 7.08387 9.90867L7.0841 13.095C7.0841 13.2408 7.19919 13.359 7.34116 13.359L8.86439 13.3589C9.00635 13.3589 9.12145 13.2407 9.12145 13.0949C9.12145 12.9491 9.00635 12.8309 8.86439 12.8309ZM3.81177 10.3214C3.81177 10.1425 3.74132 9.98069 3.62787 9.86417C3.622 9.85815 3.61594 9.85248 3.60965 9.84718C3.49774 9.74067 3.34755 9.67534 3.18261 9.67534L2.30542 9.67541C2.07848 9.67541 1.87303 9.76992 1.72487 9.92208C1.57668 10.0743 1.48471 10.2853 1.48474 10.5183L1.48477 10.9537H1.48377H1.48477C1.48477 11.1868 1.57681 11.3978 1.725 11.5499C1.87323 11.7021 2.07868 11.7966 2.30555 11.7965L2.30558 11.7976V11.7965L2.99116 11.7965C3.07426 11.7965 3.15068 11.8323 3.20681 11.8899C3.26294 11.9475 3.29781 12.026 3.29784 12.1113L3.29787 12.5467L3.29687 12.5467H3.29787C3.29787 12.6321 3.26303 12.7106 3.2069 12.7682C3.15077 12.8259 3.07435 12.8617 2.99129 12.8617V12.8606V12.8617L2.1141 12.8617C2.08368 12.8617 2.05516 12.8481 2.03377 12.8261C2.01235 12.8041 1.99906 12.7748 1.99906 12.7436C1.99906 12.5978 1.88397 12.4796 1.742 12.4796C1.60003 12.4796 1.48494 12.5978 1.48494 12.7436C1.48494 12.9226 1.55539 13.0844 1.66884 13.2009C1.78232 13.3174 1.93987 13.3897 2.1141 13.3897L2.99129 13.3896V13.3907V13.3896C3.21819 13.3896 3.42365 13.2952 3.57181 13.143C3.72 12.9908 3.81197 12.7798 3.81197 12.5467L3.81297 12.5467H3.81197L3.81194 12.1113C3.81194 11.8783 3.7199 11.6673 3.57171 11.5151C3.42348 11.3629 3.21803 11.2685 2.99113 11.2685L2.30555 11.2685L2.30552 11.2675V11.2685C2.22242 11.2685 2.146 11.2328 2.08987 11.1751C2.03371 11.1175 1.99884 11.039 1.99884 10.9537H1.99984H1.99884L1.99881 10.5183C1.99881 10.433 2.03364 10.3545 2.08974 10.2969C2.14587 10.2392 2.22229 10.2034 2.30539 10.2034L3.18258 10.2033C3.20987 10.2033 3.23548 10.2139 3.25581 10.2313L3.26294 10.239C3.28435 10.261 3.29765 10.2902 3.29765 10.3215C3.29765 10.4673 3.41274 10.5855 3.55471 10.5855C3.69668 10.5854 3.81177 10.4672 3.81177 10.3214Z" fill="#000"/>
</svg>
