<svg width="32" height="32" viewBox="0 0 32 32" fill="none" xmlns="http://www.w3.org/2000/svg">
<path d="M22.6667 9H9.33333C7.5 9 6 10.5 6 12.3333V13.1667C6 13.6667 6.33333 14 6.83333 14H25.1667C25.6667 14 26 13.6667 26 13.1667V12.3333C26 10.5 24.5 9 22.6667 9Z" fill="#000"/>
<path d="M25.1667 15.6666H6.83333C6.33333 15.6666 6 16 6 16.5V20.6666C6 22.5 7.5 24 9.33333 24H22.6667C24.5 24 26 22.5 26 20.6666V16.5C26 16 25.6667 15.6666 25.1667 15.6666ZM15.1667 21.5H10.1667C9.66667 21.5 9.33333 21.1666 9.33333 20.6666C9.33333 20.1666 9.66667 19.8333 10.1667 19.8333H15.1667C15.6667 19.8333 16 20.1666 16 20.6666C16 21.1666 15.6667 21.5 15.1667 21.5ZM21.8333 19H20.1667C19.6667 19 19.3333 18.6666 19.3333 18.1666C19.3333 17.6666 19.6667 17.3333 20.1667 17.3333H21.8333C22.3333 17.3333 22.6667 17.6666 22.6667 18.1666C22.6667 18.6666 22.3333 19 21.8333 19Z" fill="#000"/>
</svg>
