<svg width="32" height="32" viewBox="0 0 32 32" fill="none" xmlns="http://www.w3.org/2000/svg">
<path d="M26.6666 29.3333V2.66663H9.33325C8.27239 2.66663 7.25497 3.08805 6.50482 3.8382C5.75468 4.58834 5.33325 5.60576 5.33325 6.66663V25.3333C5.33325 26.3942 5.75468 27.4116 6.50482 28.1617C7.25497 28.9119 8.27239 29.3333 9.33325 29.3333H26.6666ZM10.6666 7.99996H21.3333V10.6666H10.6666V7.99996ZM7.99992 25.3333C8.00238 25.1559 8.04021 24.9809 8.11118 24.8183C8.18216 24.6558 8.28485 24.509 8.41325 24.3866C8.53145 24.262 8.67426 24.1632 8.83264 24.0967C8.99101 24.0301 9.16148 23.9972 9.33325 24H23.9999V26.6666H9.33325C8.97963 26.6666 8.64049 26.5262 8.39044 26.2761C8.14039 26.0261 7.99992 25.6869 7.99992 25.3333Z" fill="#000"/>
</svg>
