<svg width="32" height="32" viewBox="0 0 32 32" fill="none" xmlns="http://www.w3.org/2000/svg">
<path d="M16 21C17.6569 21 19 19.6569 19 18C19 16.3431 17.6569 15 16 15C14.3431 15 13 16.3431 13 18C13 19.6569 14.3431 21 16 21Z" fill="#000"/>
<path d="M18.25 22H15.5H12.75C11.2312 22 10 23.3025 10 24.9091V30H21V24.9091C21 23.3025 19.7688 22 18.25 22Z" fill="#000"/>
<path d="M17.6366 10.8787C17.6366 10.6988 17.7353 10.5391 17.8858 10.4351C18.7242 9.85942 19.2729 8.91121 19.2729 7.83672C19.2729 5.95146 17.5886 4.44929 15.6042 4.67586C14.1746 4.83929 12.9898 5.94297 12.7684 7.3268C12.5638 8.60664 13.1453 9.76868 14.1135 10.4351C14.2651 10.5391 14.3638 10.7004 14.3638 10.8808V12.0816H17.6366V10.8787Z" fill="#000"/>
<path d="M16.546 2H15.4551V3.59184H16.546V2Z" fill="#000"/>
<path d="M21.9996 7.30615H20.3633V8.36738H21.9996V7.30615Z" fill="#000"/>
<path d="M11.6364 7.30615H10V8.36738H11.6364V7.30615Z" fill="#000"/>
<path d="M12.1424 3.33349L11.3711 4.08398L12.5283 5.20941L13.2996 4.45892L12.1424 3.33349Z" fill="#000"/>
<path d="M19.8573 3.33413L18.7002 4.45972L19.4716 5.21011L20.6286 4.08452L19.8573 3.33413Z" fill="#000"/>
<path d="M17.364 12.6122H14.6367V13.6734H17.364V12.6122Z" fill="#000"/>
<path d="M16.0001 17.2653C16.6028 17.2653 17.091 16.7904 17.091 16.2041H14.9092C14.9092 16.7904 15.3974 17.2653 16.0001 17.2653Z" fill="#000"/>
</svg>
