<svg width="32" height="32" viewBox="0 0 32 32" fill="none" xmlns="http://www.w3.org/2000/svg">
<path d="M9.74727 11.4953C10.0929 11.4954 10.4308 11.393 10.7182 11.201C11.0057 11.0091 11.2297 10.7362 11.3621 10.4169C11.4945 10.0976 11.5292 9.74625 11.4618 9.40723C11.3945 9.06822 11.2282 8.75678 10.9839 8.51229C10.7395 8.26781 10.4282 8.10126 10.0892 8.03371C9.75026 7.96615 9.39887 8.00063 9.07949 8.13277C8.76011 8.26492 8.48709 8.4888 8.29494 8.7761C8.10279 9.06341 8.00015 9.40124 8 9.74688C7.9999 9.97641 8.04501 10.2037 8.13277 10.4158C8.22053 10.6279 8.34921 10.8207 8.51146 10.983C8.67372 11.1454 8.86637 11.2742 9.07841 11.3621C9.29045 11.45 9.51773 11.4953 9.74727 11.4953Z" fill="#000"/>
<path d="M14.2736 15.6148C13.1201 15.4222 12.3072 14.8027 11.8248 14.3117C11.5248 14.0066 11.3561 13.6117 11.2197 13.2058C11.1253 12.9217 10.9438 12.6744 10.701 12.4992C10.4582 12.3239 10.1664 12.2295 9.86699 12.2292H9.79746C9.61015 12.2292 9.42467 12.2662 9.25163 12.3379C9.07859 12.4096 8.92139 12.5148 8.78901 12.6473C8.65663 12.7798 8.55166 12.9371 8.48012 13.1102C8.40858 13.2834 8.37187 13.4689 8.37207 13.6562V22.7679C8.37207 22.9597 8.40984 23.1495 8.48322 23.3267C8.5566 23.5039 8.66415 23.6648 8.79974 23.8004C8.93533 23.936 9.0963 24.0435 9.27345 24.1169C9.4506 24.1903 9.64048 24.2281 9.83223 24.2281C10.024 24.2281 10.2139 24.1903 10.391 24.1169C10.5682 24.0435 10.7291 23.936 10.8647 23.8004C11.0003 23.6648 11.1079 23.5039 11.1812 23.3267C11.2546 23.1495 11.2924 22.9597 11.2924 22.7679V16.2625C11.2924 16.2625 12.0307 17.1976 13.9764 17.4558C14.1047 17.4727 14.2352 17.462 14.3591 17.4245C14.4831 17.387 14.5976 17.3235 14.695 17.2383C14.7925 17.153 14.8707 17.048 14.9244 16.9302C14.9781 16.8124 15.0061 16.6845 15.0064 16.555V16.516C15.0064 16.0804 14.7037 15.6867 14.2736 15.6148Z" fill="#000"/>
<path d="M21.5439 11.4953C21.8896 11.4952 22.2274 11.3927 22.5147 11.2006C22.802 11.0086 23.026 10.7357 23.1582 10.4164C23.2905 10.0971 23.3251 9.74572 23.2576 9.40675C23.1902 9.06779 23.0238 8.75642 22.7795 8.51202C22.5351 8.26761 22.2238 8.10114 21.8848 8.03365C21.5459 7.96616 21.1945 8.00068 20.8752 8.13285C20.5559 8.26501 20.2829 8.48889 20.0908 8.77618C19.8987 9.06347 19.7961 9.40127 19.7959 9.74688C19.7958 9.97648 19.8409 10.2039 19.9287 10.416C20.0166 10.6282 20.1453 10.8209 20.3076 10.9833C20.47 11.1457 20.6627 11.2745 20.8748 11.3623C21.087 11.4502 21.3143 11.4954 21.5439 11.4953Z" fill="#000"/>
<path d="M21.4932 12.2195H21.4236C21.1242 12.2197 20.8324 12.3141 20.5896 12.4894C20.3468 12.6647 20.1654 12.9119 20.0709 13.196C19.9357 13.6019 19.7658 13.9968 19.4658 14.3019C18.9834 14.7933 18.1705 15.4125 17.017 15.605C16.5873 15.6769 16.2842 16.0707 16.2842 16.5066V16.5457C16.2846 16.6751 16.3126 16.803 16.3662 16.9208C16.4199 17.0387 16.4981 17.1437 16.5956 17.2289C16.6931 17.3141 16.8076 17.3776 16.9315 17.4151C17.0554 17.4526 17.1859 17.4633 17.3143 17.4464C19.26 17.1882 19.9982 16.2531 19.9982 16.2531V22.7566C19.9982 23.1438 20.1521 23.5152 20.4259 23.7891C20.6997 24.0629 21.0711 24.2167 21.4584 24.2167C21.8457 24.2167 22.2171 24.0629 22.4909 23.7891C22.7647 23.5152 22.9186 23.1438 22.9186 22.7566V13.6449C22.9186 13.2668 22.7684 12.9043 22.5011 12.637C22.2338 12.3697 21.8712 12.2195 21.4932 12.2195Z" fill="#000"/>
</svg>
