<svg width="278" height="83" viewBox="0 0 278 83" fill="none" xmlns="http://www.w3.org/2000/svg">
<path d="M5.39062 72.7031L8.21289 62.7812H9.58008L8.78906 66.6387L5.75195 77H4.39453L5.39062 72.7031ZM2.4707 62.7812L4.7168 72.5078L5.39062 77H4.04297L0.595703 62.7812H2.4707ZM13.2324 72.498L15.4297 62.7812H17.3145L13.877 77H12.5293L13.2324 72.498ZM9.78516 62.7812L12.5293 72.7031L13.5254 77H12.168L9.23828 66.6387L8.4375 62.7812H9.78516ZM18.3398 71.834V71.6094C18.3398 70.8477 18.4505 70.1413 18.6719 69.4902C18.8932 68.8327 19.2122 68.263 19.6289 67.7812C20.0456 67.293 20.5501 66.9154 21.1426 66.6484C21.735 66.375 22.3991 66.2383 23.1348 66.2383C23.877 66.2383 24.5443 66.375 25.1367 66.6484C25.7357 66.9154 26.2435 67.293 26.6602 67.7812C27.0833 68.263 27.4056 68.8327 27.627 69.4902C27.8483 70.1413 27.959 70.8477 27.959 71.6094V71.834C27.959 72.5957 27.8483 73.3021 27.627 73.9531C27.4056 74.6042 27.0833 75.1738 26.6602 75.6621C26.2435 76.1439 25.7389 76.5215 25.1465 76.7949C24.5605 77.0618 23.8965 77.1953 23.1543 77.1953C22.4121 77.1953 21.7448 77.0618 21.1523 76.7949C20.5599 76.5215 20.0521 76.1439 19.6289 75.6621C19.2122 75.1738 18.8932 74.6042 18.6719 73.9531C18.4505 73.3021 18.3398 72.5957 18.3398 71.834ZM20.1465 71.6094V71.834C20.1465 72.3613 20.2083 72.8594 20.332 73.3281C20.4557 73.7904 20.6413 74.2005 20.8887 74.5586C21.1426 74.9167 21.4583 75.1999 21.8359 75.4082C22.2135 75.61 22.653 75.7109 23.1543 75.7109C23.6491 75.7109 24.082 75.61 24.4531 75.4082C24.8307 75.1999 25.1432 74.9167 25.3906 74.5586C25.638 74.2005 25.8236 73.7904 25.9473 73.3281C26.0775 72.8594 26.1426 72.3613 26.1426 71.834V71.6094C26.1426 71.0885 26.0775 70.597 25.9473 70.1348C25.8236 69.666 25.6348 69.2526 25.3809 68.8945C25.1335 68.5299 24.821 68.2435 24.4434 68.0352C24.0723 67.8268 23.6361 67.7227 23.1348 67.7227C22.64 67.7227 22.2038 67.8268 21.8262 68.0352C21.4551 68.2435 21.1426 68.5299 20.8887 68.8945C20.6413 69.2526 20.4557 69.666 20.332 70.1348C20.2083 70.597 20.1465 71.0885 20.1465 71.6094ZM32.0215 68.5332V77H30.2051V66.4336H31.9238L32.0215 68.5332ZM31.6504 71.3164L30.8105 71.2871C30.8171 70.5645 30.9115 69.8971 31.0938 69.2852C31.276 68.6667 31.5462 68.1296 31.9043 67.6738C32.2624 67.2181 32.7083 66.8665 33.2422 66.6191C33.776 66.3652 34.3945 66.2383 35.0977 66.2383C35.5924 66.2383 36.0482 66.3099 36.4648 66.4531C36.8815 66.5898 37.2428 66.8079 37.5488 67.1074C37.8548 67.4069 38.0924 67.791 38.2617 68.2598C38.431 68.7285 38.5156 69.2949 38.5156 69.959V77H36.709V70.0469C36.709 69.4935 36.6146 69.0508 36.4258 68.7188C36.2435 68.3867 35.9831 68.1458 35.6445 67.9961C35.306 67.8398 34.9089 67.7617 34.4531 67.7617C33.9193 67.7617 33.4733 67.8561 33.1152 68.0449C32.7572 68.2337 32.4707 68.4941 32.2559 68.8262C32.041 69.1582 31.8848 69.5391 31.7871 69.9688C31.696 70.3919 31.6504 70.8411 31.6504 71.3164ZM38.4961 70.3203L37.2852 70.6914C37.2917 70.112 37.3861 69.5553 37.5684 69.0215C37.7572 68.4876 38.0273 68.0124 38.3789 67.5957C38.737 67.179 39.1764 66.8503 39.6973 66.6094C40.2181 66.362 40.8138 66.2383 41.4844 66.2383C42.0508 66.2383 42.5521 66.3132 42.9883 66.4629C43.431 66.6126 43.8021 66.8438 44.1016 67.1562C44.4076 67.4622 44.6387 67.8561 44.7949 68.3379C44.9512 68.8197 45.0293 69.3926 45.0293 70.0566V77H43.2129V70.0371C43.2129 69.4447 43.1185 68.9857 42.9297 68.6602C42.7474 68.3281 42.487 68.097 42.1484 67.9668C41.8164 67.8301 41.4193 67.7617 40.957 67.7617C40.5599 67.7617 40.2083 67.8301 39.9023 67.9668C39.5964 68.1035 39.3392 68.2923 39.1309 68.5332C38.9225 68.7676 38.763 69.0378 38.6523 69.3438C38.5482 69.6497 38.4961 69.9753 38.4961 70.3203ZM52.1484 77.1953C51.4128 77.1953 50.7454 77.0716 50.1465 76.8242C49.554 76.5703 49.043 76.2155 48.6133 75.7598C48.1901 75.304 47.8646 74.7637 47.6367 74.1387C47.4089 73.5137 47.2949 72.8301 47.2949 72.0879V71.6777C47.2949 70.8184 47.4219 70.0534 47.6758 69.3828C47.9297 68.7057 48.2747 68.1328 48.7109 67.6641C49.1471 67.1953 49.6419 66.8405 50.1953 66.5996C50.7487 66.3587 51.3216 66.2383 51.9141 66.2383C52.6693 66.2383 53.3203 66.3685 53.8672 66.6289C54.4206 66.8893 54.873 67.2539 55.2246 67.7227C55.5762 68.1849 55.8366 68.7318 56.0059 69.3633C56.1751 69.9883 56.2598 70.6719 56.2598 71.4141V72.2246H48.3691V70.75H54.4531V70.6133C54.4271 70.1445 54.3294 69.6888 54.1602 69.2461C53.9974 68.8034 53.737 68.4388 53.3789 68.1523C53.0208 67.8659 52.5326 67.7227 51.9141 67.7227C51.5039 67.7227 51.1263 67.8105 50.7812 67.9863C50.4362 68.1556 50.14 68.4095 49.8926 68.748C49.6452 69.0866 49.4531 69.5 49.3164 69.9883C49.1797 70.4766 49.1113 71.0397 49.1113 71.6777V72.0879C49.1113 72.5892 49.1797 73.0612 49.3164 73.5039C49.4596 73.9401 49.6647 74.3242 49.9316 74.6562C50.2051 74.9883 50.5339 75.2487 50.918 75.4375C51.3086 75.6263 51.7513 75.7207 52.2461 75.7207C52.8841 75.7207 53.4245 75.5905 53.8672 75.3301C54.3099 75.0697 54.6973 74.7214 55.0293 74.2852L56.123 75.1543C55.8952 75.4993 55.6055 75.8281 55.2539 76.1406C54.9023 76.4531 54.4694 76.707 53.9551 76.9023C53.4473 77.0977 52.8451 77.1953 52.1484 77.1953ZM60.1758 68.6895V77H58.3691V66.4336H60.0781L60.1758 68.6895ZM59.7461 71.3164L58.9941 71.2871C59.0007 70.5645 59.1081 69.8971 59.3164 69.2852C59.5247 68.6667 59.8177 68.1296 60.1953 67.6738C60.5729 67.2181 61.0221 66.8665 61.543 66.6191C62.0703 66.3652 62.653 66.2383 63.291 66.2383C63.8118 66.2383 64.2806 66.3099 64.6973 66.4531C65.1139 66.5898 65.4688 66.8112 65.7617 67.1172C66.0612 67.4232 66.2891 67.8203 66.4453 68.3086C66.6016 68.7904 66.6797 69.3796 66.6797 70.0762V77H64.8633V70.0566C64.8633 69.5033 64.7819 69.0605 64.6191 68.7285C64.4564 68.39 64.2188 68.1458 63.9062 67.9961C63.5938 67.8398 63.2096 67.7617 62.7539 67.7617C62.3047 67.7617 61.8945 67.8561 61.5234 68.0449C61.1589 68.2337 60.8431 68.4941 60.5762 68.8262C60.3158 69.1582 60.1107 69.5391 59.9609 69.9688C59.8177 70.3919 59.7461 70.8411 59.7461 71.3164ZM83.6914 75.4668V77H76.1621V75.4668H83.6914ZM76.543 62.7812V77H74.6582V62.7812H76.543ZM82.6953 68.8945V70.4277H76.1621V68.8945H82.6953ZM83.5938 62.7812V64.3242H76.1621V62.7812H83.5938ZM92.2168 74.9492V62H94.0332V77H92.373L92.2168 74.9492ZM85.1074 71.834V71.6289C85.1074 70.8216 85.2051 70.0892 85.4004 69.4316C85.6022 68.7676 85.8854 68.1979 86.25 67.7227C86.6211 67.2474 87.0605 66.8828 87.5684 66.6289C88.0827 66.3685 88.6556 66.2383 89.2871 66.2383C89.9512 66.2383 90.5306 66.3555 91.0254 66.5898C91.5267 66.8177 91.9499 67.153 92.2949 67.5957C92.6465 68.0319 92.9232 68.5592 93.125 69.1777C93.3268 69.7962 93.4668 70.4961 93.5449 71.2773V72.1758C93.4733 72.9505 93.3333 73.6471 93.125 74.2656C92.9232 74.8841 92.6465 75.4115 92.2949 75.8477C91.9499 76.2839 91.5267 76.6191 91.0254 76.8535C90.5241 77.0814 89.9382 77.1953 89.2676 77.1953C88.6491 77.1953 88.0827 77.0618 87.5684 76.7949C87.0605 76.528 86.6211 76.1536 86.25 75.6719C85.8854 75.1901 85.6022 74.6237 85.4004 73.9727C85.2051 73.3151 85.1074 72.6022 85.1074 71.834ZM86.9238 71.6289V71.834C86.9238 72.3613 86.9759 72.8561 87.0801 73.3184C87.1908 73.7806 87.36 74.1875 87.5879 74.5391C87.8158 74.8906 88.1055 75.1673 88.457 75.3691C88.8086 75.5645 89.2285 75.6621 89.7168 75.6621C90.3158 75.6621 90.8073 75.5352 91.1914 75.2812C91.582 75.0273 91.8945 74.6921 92.1289 74.2754C92.3633 73.8587 92.5456 73.4062 92.6758 72.918V70.5645C92.5977 70.2064 92.4837 69.8613 92.334 69.5293C92.1908 69.1908 92.002 68.8913 91.7676 68.6309C91.5397 68.3639 91.2565 68.1523 90.918 67.9961C90.5859 67.8398 90.1921 67.7617 89.7363 67.7617C89.2415 67.7617 88.8151 67.8659 88.457 68.0742C88.1055 68.276 87.8158 68.556 87.5879 68.9141C87.36 69.2656 87.1908 69.6758 87.0801 70.1445C86.9759 70.6068 86.9238 71.1016 86.9238 71.6289ZM103.311 74.5586V66.4336H105.127V77H103.398L103.311 74.5586ZM103.652 72.332L104.404 72.3125C104.404 73.0156 104.329 73.6667 104.18 74.2656C104.036 74.8581 103.802 75.3724 103.477 75.8086C103.151 76.2448 102.725 76.5866 102.197 76.834C101.67 77.0749 101.029 77.1953 100.273 77.1953C99.7591 77.1953 99.2871 77.1204 98.8574 76.9707C98.4342 76.821 98.0697 76.5898 97.7637 76.2773C97.4577 75.9648 97.2201 75.5579 97.0508 75.0566C96.888 74.5553 96.8066 73.9531 96.8066 73.25V66.4336H98.6133V73.2695C98.6133 73.7448 98.6654 74.1387 98.7695 74.4512C98.8802 74.7572 99.0267 75.0013 99.209 75.1836C99.3978 75.3594 99.6061 75.4831 99.834 75.5547C100.068 75.6263 100.309 75.6621 100.557 75.6621C101.325 75.6621 101.934 75.5156 102.383 75.2227C102.832 74.9232 103.154 74.5228 103.35 74.0215C103.551 73.5137 103.652 72.9505 103.652 72.332ZM112.109 75.7109C112.539 75.7109 112.936 75.623 113.301 75.4473C113.665 75.2715 113.965 75.0306 114.199 74.7246C114.434 74.4121 114.567 74.0573 114.6 73.6602H116.318C116.286 74.2852 116.074 74.8678 115.684 75.4082C115.299 75.9421 114.795 76.375 114.17 76.707C113.545 77.0326 112.858 77.1953 112.109 77.1953C111.315 77.1953 110.622 77.0553 110.029 76.7754C109.443 76.4954 108.955 76.1113 108.564 75.623C108.18 75.1348 107.891 74.5749 107.695 73.9434C107.507 73.3053 107.412 72.6315 107.412 71.9219V71.5117C107.412 70.8021 107.507 70.1315 107.695 69.5C107.891 68.862 108.18 68.2988 108.564 67.8105C108.955 67.3223 109.443 66.9382 110.029 66.6582C110.622 66.3783 111.315 66.2383 112.109 66.2383C112.936 66.2383 113.659 66.4076 114.277 66.7461C114.896 67.0781 115.381 67.5339 115.732 68.1133C116.09 68.6862 116.286 69.3372 116.318 70.0664H114.6C114.567 69.6302 114.443 69.2363 114.229 68.8848C114.02 68.5332 113.734 68.2533 113.369 68.0449C113.011 67.8301 112.591 67.7227 112.109 67.7227C111.556 67.7227 111.09 67.8333 110.713 68.0547C110.342 68.2695 110.046 68.5625 109.824 68.9336C109.609 69.2982 109.453 69.7051 109.355 70.1543C109.264 70.597 109.219 71.0495 109.219 71.5117V71.9219C109.219 72.3841 109.264 72.8398 109.355 73.2891C109.447 73.7383 109.6 74.1452 109.814 74.5098C110.036 74.8743 110.332 75.1673 110.703 75.3887C111.081 75.6035 111.549 75.7109 112.109 75.7109ZM124.58 75.1934V69.7539C124.58 69.3372 124.495 68.9759 124.326 68.6699C124.163 68.3574 123.916 68.1165 123.584 67.9473C123.252 67.778 122.842 67.6934 122.354 67.6934C121.898 67.6934 121.497 67.7715 121.152 67.9277C120.814 68.084 120.547 68.2891 120.352 68.543C120.163 68.7969 120.068 69.0703 120.068 69.3633H118.262C118.262 68.9857 118.359 68.6113 118.555 68.2402C118.75 67.8691 119.03 67.5339 119.395 67.2344C119.766 66.9284 120.208 66.6875 120.723 66.5117C121.243 66.3294 121.823 66.2383 122.461 66.2383C123.229 66.2383 123.906 66.3685 124.492 66.6289C125.085 66.8893 125.547 67.2832 125.879 67.8105C126.217 68.3314 126.387 68.9857 126.387 69.7734V74.6953C126.387 75.0469 126.416 75.4212 126.475 75.8184C126.54 76.2155 126.634 76.5573 126.758 76.8438V77H124.873C124.782 76.7917 124.71 76.515 124.658 76.1699C124.606 75.8184 124.58 75.4928 124.58 75.1934ZM124.893 70.5938L124.912 71.8633H123.086C122.572 71.8633 122.113 71.9056 121.709 71.9902C121.305 72.0684 120.967 72.1888 120.693 72.3516C120.42 72.5143 120.212 72.7194 120.068 72.9668C119.925 73.2077 119.854 73.4909 119.854 73.8164C119.854 74.1484 119.928 74.4512 120.078 74.7246C120.228 74.998 120.452 75.2161 120.752 75.3789C121.058 75.5352 121.432 75.6133 121.875 75.6133C122.428 75.6133 122.917 75.4961 123.34 75.2617C123.763 75.0273 124.098 74.7409 124.346 74.4023C124.6 74.0638 124.736 73.735 124.756 73.416L125.527 74.2852C125.482 74.5586 125.358 74.8613 125.156 75.1934C124.954 75.5254 124.684 75.8444 124.346 76.1504C124.014 76.4499 123.617 76.7005 123.154 76.9023C122.699 77.0977 122.184 77.1953 121.611 77.1953C120.895 77.1953 120.267 77.0553 119.727 76.7754C119.193 76.4954 118.776 76.1211 118.477 75.6523C118.184 75.1771 118.037 74.6465 118.037 74.0605C118.037 73.4941 118.148 72.9961 118.369 72.5664C118.59 72.1302 118.91 71.7689 119.326 71.4824C119.743 71.1895 120.244 70.9681 120.83 70.8184C121.416 70.6686 122.07 70.5938 122.793 70.5938H124.893ZM133.652 66.4336V67.8203H127.939V66.4336H133.652ZM129.873 63.8652H131.68V74.3828C131.68 74.7409 131.735 75.0111 131.846 75.1934C131.956 75.3757 132.1 75.4961 132.275 75.5547C132.451 75.6133 132.64 75.6426 132.842 75.6426C132.992 75.6426 133.148 75.6296 133.311 75.6035C133.48 75.571 133.607 75.5449 133.691 75.5254L133.701 77C133.558 77.0456 133.369 77.0879 133.135 77.127C132.907 77.1725 132.63 77.1953 132.305 77.1953C131.862 77.1953 131.455 77.1074 131.084 76.9316C130.713 76.7559 130.417 76.4629 130.195 76.0527C129.98 75.6361 129.873 75.0762 129.873 74.373V63.8652ZM137.734 66.4336V77H135.918V66.4336H137.734ZM135.781 63.6309C135.781 63.3379 135.869 63.0905 136.045 62.8887C136.227 62.6868 136.494 62.5859 136.846 62.5859C137.191 62.5859 137.454 62.6868 137.637 62.8887C137.826 63.0905 137.92 63.3379 137.92 63.6309C137.92 63.9108 137.826 64.1517 137.637 64.3535C137.454 64.5488 137.191 64.6465 136.846 64.6465C136.494 64.6465 136.227 64.5488 136.045 64.3535C135.869 64.1517 135.781 63.9108 135.781 63.6309ZM140.156 71.834V71.6094C140.156 70.8477 140.267 70.1413 140.488 69.4902C140.71 68.8327 141.029 68.263 141.445 67.7812C141.862 67.293 142.367 66.9154 142.959 66.6484C143.551 66.375 144.215 66.2383 144.951 66.2383C145.693 66.2383 146.361 66.375 146.953 66.6484C147.552 66.9154 148.06 67.293 148.477 67.7812C148.9 68.263 149.222 68.8327 149.443 69.4902C149.665 70.1413 149.775 70.8477 149.775 71.6094V71.834C149.775 72.5957 149.665 73.3021 149.443 73.9531C149.222 74.6042 148.9 75.1738 148.477 75.6621C148.06 76.1439 147.555 76.5215 146.963 76.7949C146.377 77.0618 145.713 77.1953 144.971 77.1953C144.229 77.1953 143.561 77.0618 142.969 76.7949C142.376 76.5215 141.868 76.1439 141.445 75.6621C141.029 75.1738 140.71 74.6042 140.488 73.9531C140.267 73.3021 140.156 72.5957 140.156 71.834ZM141.963 71.6094V71.834C141.963 72.3613 142.025 72.8594 142.148 73.3281C142.272 73.7904 142.458 74.2005 142.705 74.5586C142.959 74.9167 143.275 75.1999 143.652 75.4082C144.03 75.61 144.469 75.7109 144.971 75.7109C145.465 75.7109 145.898 75.61 146.27 75.4082C146.647 75.1999 146.96 74.9167 147.207 74.5586C147.454 74.2005 147.64 73.7904 147.764 73.3281C147.894 72.8594 147.959 72.3613 147.959 71.834V71.6094C147.959 71.0885 147.894 70.597 147.764 70.1348C147.64 69.666 147.451 69.2526 147.197 68.8945C146.95 68.5299 146.637 68.2435 146.26 68.0352C145.889 67.8268 145.452 67.7227 144.951 67.7227C144.456 67.7227 144.02 67.8268 143.643 68.0352C143.271 68.2435 142.959 68.5299 142.705 68.8945C142.458 69.2526 142.272 69.666 142.148 70.1348C142.025 70.597 141.963 71.0885 141.963 71.6094ZM153.848 68.6895V77H152.041V66.4336H153.75L153.848 68.6895ZM153.418 71.3164L152.666 71.2871C152.673 70.5645 152.78 69.8971 152.988 69.2852C153.197 68.6667 153.49 68.1296 153.867 67.6738C154.245 67.2181 154.694 66.8665 155.215 66.6191C155.742 66.3652 156.325 66.2383 156.963 66.2383C157.484 66.2383 157.952 66.3099 158.369 66.4531C158.786 66.5898 159.141 66.8112 159.434 67.1172C159.733 67.4232 159.961 67.8203 160.117 68.3086C160.273 68.7904 160.352 69.3796 160.352 70.0762V77H158.535V70.0566C158.535 69.5033 158.454 69.0605 158.291 68.7285C158.128 68.39 157.891 68.1458 157.578 67.9961C157.266 67.8398 156.882 67.7617 156.426 67.7617C155.977 67.7617 155.566 67.8561 155.195 68.0449C154.831 68.2337 154.515 68.4941 154.248 68.8262C153.988 69.1582 153.783 69.5391 153.633 69.9688C153.49 70.3919 153.418 70.8411 153.418 71.3164ZM168.926 62.7812H170.752L175.41 74.373L180.059 62.7812H181.895L176.113 77H174.688L168.926 62.7812ZM168.33 62.7812H169.941L170.205 71.4531V77H168.33V62.7812ZM180.869 62.7812H182.48V77H180.605V71.4531L180.869 62.7812ZM191.748 75.1934V69.7539C191.748 69.3372 191.663 68.9759 191.494 68.6699C191.331 68.3574 191.084 68.1165 190.752 67.9473C190.42 67.778 190.01 67.6934 189.521 67.6934C189.066 67.6934 188.665 67.7715 188.32 67.9277C187.982 68.084 187.715 68.2891 187.52 68.543C187.331 68.7969 187.236 69.0703 187.236 69.3633H185.43C185.43 68.9857 185.527 68.6113 185.723 68.2402C185.918 67.8691 186.198 67.5339 186.562 67.2344C186.934 66.9284 187.376 66.6875 187.891 66.5117C188.411 66.3294 188.991 66.2383 189.629 66.2383C190.397 66.2383 191.074 66.3685 191.66 66.6289C192.253 66.8893 192.715 67.2832 193.047 67.8105C193.385 68.3314 193.555 68.9857 193.555 69.7734V74.6953C193.555 75.0469 193.584 75.4212 193.643 75.8184C193.708 76.2155 193.802 76.5573 193.926 76.8438V77H192.041C191.95 76.7917 191.878 76.515 191.826 76.1699C191.774 75.8184 191.748 75.4928 191.748 75.1934ZM192.061 70.5938L192.08 71.8633H190.254C189.74 71.8633 189.281 71.9056 188.877 71.9902C188.473 72.0684 188.135 72.1888 187.861 72.3516C187.588 72.5143 187.38 72.7194 187.236 72.9668C187.093 73.2077 187.021 73.4909 187.021 73.8164C187.021 74.1484 187.096 74.4512 187.246 74.7246C187.396 74.998 187.62 75.2161 187.92 75.3789C188.226 75.5352 188.6 75.6133 189.043 75.6133C189.596 75.6133 190.085 75.4961 190.508 75.2617C190.931 75.0273 191.266 74.7409 191.514 74.4023C191.768 74.0638 191.904 73.735 191.924 73.416L192.695 74.2852C192.65 74.5586 192.526 74.8613 192.324 75.1934C192.122 75.5254 191.852 75.8444 191.514 76.1504C191.182 76.4499 190.785 76.7005 190.322 76.9023C189.867 77.0977 189.352 77.1953 188.779 77.1953C188.063 77.1953 187.435 77.0553 186.895 76.7754C186.361 76.4954 185.944 76.1211 185.645 75.6523C185.352 75.1771 185.205 74.6465 185.205 74.0605C185.205 73.4941 185.316 72.9961 185.537 72.5664C185.758 72.1302 186.077 71.7689 186.494 71.4824C186.911 71.1895 187.412 70.9681 187.998 70.8184C188.584 70.6686 189.238 70.5938 189.961 70.5938H192.061ZM198.203 68.0938V77H196.396V66.4336H198.154L198.203 68.0938ZM201.504 66.375L201.494 68.0547C201.344 68.0221 201.201 68.0026 201.064 67.9961C200.934 67.9831 200.785 67.9766 200.615 67.9766C200.199 67.9766 199.831 68.0417 199.512 68.1719C199.193 68.3021 198.923 68.4844 198.701 68.7188C198.48 68.9531 198.304 69.2331 198.174 69.5586C198.05 69.8776 197.969 70.2292 197.93 70.6133L197.422 70.9062C197.422 70.2682 197.484 69.6693 197.607 69.1094C197.738 68.5495 197.936 68.0547 198.203 67.625C198.47 67.1888 198.809 66.8503 199.219 66.6094C199.635 66.362 200.13 66.2383 200.703 66.2383C200.833 66.2383 200.983 66.2546 201.152 66.2871C201.322 66.3132 201.439 66.3424 201.504 66.375ZM204.99 62V77H203.174V62H204.99ZM211.445 66.4336L206.836 71.3652L204.258 74.041L204.111 72.1172L205.957 69.9102L209.238 66.4336H211.445ZM209.795 77L206.025 71.9609L206.963 70.3496L211.924 77H209.795ZM217.5 77.1953C216.764 77.1953 216.097 77.0716 215.498 76.8242C214.906 76.5703 214.395 76.2155 213.965 75.7598C213.542 75.304 213.216 74.7637 212.988 74.1387C212.76 73.5137 212.646 72.8301 212.646 72.0879V71.6777C212.646 70.8184 212.773 70.0534 213.027 69.3828C213.281 68.7057 213.626 68.1328 214.062 67.6641C214.499 67.1953 214.993 66.8405 215.547 66.5996C216.1 66.3587 216.673 66.2383 217.266 66.2383C218.021 66.2383 218.672 66.3685 219.219 66.6289C219.772 66.8893 220.225 67.2539 220.576 67.7227C220.928 68.1849 221.188 68.7318 221.357 69.3633C221.527 69.9883 221.611 70.6719 221.611 71.4141V72.2246H213.721V70.75H219.805V70.6133C219.779 70.1445 219.681 69.6888 219.512 69.2461C219.349 68.8034 219.089 68.4388 218.73 68.1523C218.372 67.8659 217.884 67.7227 217.266 67.7227C216.855 67.7227 216.478 67.8105 216.133 67.9863C215.788 68.1556 215.492 68.4095 215.244 68.748C214.997 69.0866 214.805 69.5 214.668 69.9883C214.531 70.4766 214.463 71.0397 214.463 71.6777V72.0879C214.463 72.5892 214.531 73.0612 214.668 73.5039C214.811 73.9401 215.016 74.3242 215.283 74.6562C215.557 74.9883 215.885 75.2487 216.27 75.4375C216.66 75.6263 217.103 75.7207 217.598 75.7207C218.236 75.7207 218.776 75.5905 219.219 75.3301C219.661 75.0697 220.049 74.7214 220.381 74.2852L221.475 75.1543C221.247 75.4993 220.957 75.8281 220.605 76.1406C220.254 76.4531 219.821 76.707 219.307 76.9023C218.799 77.0977 218.197 77.1953 217.5 77.1953ZM228.145 66.4336V67.8203H222.432V66.4336H228.145ZM224.365 63.8652H226.172V74.3828C226.172 74.7409 226.227 75.0111 226.338 75.1934C226.449 75.3757 226.592 75.4961 226.768 75.5547C226.943 75.6133 227.132 75.6426 227.334 75.6426C227.484 75.6426 227.64 75.6296 227.803 75.6035C227.972 75.571 228.099 75.5449 228.184 75.5254L228.193 77C228.05 77.0456 227.861 77.0879 227.627 77.127C227.399 77.1725 227.122 77.1953 226.797 77.1953C226.354 77.1953 225.947 77.1074 225.576 76.9316C225.205 76.7559 224.909 76.4629 224.688 76.0527C224.473 75.6361 224.365 75.0762 224.365 74.373V63.8652ZM232.07 68.4648V81.0625H230.254V66.4336H231.914L232.07 68.4648ZM239.189 71.6289V71.834C239.189 72.6022 239.098 73.3151 238.916 73.9727C238.734 74.6237 238.467 75.1901 238.115 75.6719C237.77 76.1536 237.344 76.528 236.836 76.7949C236.328 77.0618 235.745 77.1953 235.088 77.1953C234.417 77.1953 233.825 77.0846 233.311 76.8633C232.796 76.6419 232.36 76.3197 232.002 75.8965C231.644 75.4733 231.357 74.9655 231.143 74.373C230.934 73.7806 230.791 73.1133 230.713 72.3711V71.2773C230.791 70.4961 230.938 69.7962 231.152 69.1777C231.367 68.5592 231.65 68.0319 232.002 67.5957C232.36 67.153 232.793 66.8177 233.301 66.5898C233.809 66.3555 234.395 66.2383 235.059 66.2383C235.723 66.2383 236.312 66.3685 236.826 66.6289C237.34 66.8828 237.773 67.2474 238.125 67.7227C238.477 68.1979 238.74 68.7676 238.916 69.4316C239.098 70.0892 239.189 70.8216 239.189 71.6289ZM237.373 71.834V71.6289C237.373 71.1016 237.318 70.6068 237.207 70.1445C237.096 69.6758 236.924 69.2656 236.689 68.9141C236.462 68.556 236.169 68.276 235.811 68.0742C235.452 67.8659 235.026 67.7617 234.531 67.7617C234.076 67.7617 233.678 67.8398 233.34 67.9961C233.008 68.1523 232.725 68.3639 232.49 68.6309C232.256 68.8913 232.064 69.1908 231.914 69.5293C231.771 69.8613 231.663 70.2064 231.592 70.5645V73.0938C231.722 73.5495 231.904 73.9792 232.139 74.3828C232.373 74.7799 232.686 75.1022 233.076 75.3496C233.467 75.5905 233.958 75.7109 234.551 75.7109C235.039 75.7109 235.459 75.61 235.811 75.4082C236.169 75.1999 236.462 74.9167 236.689 74.5586C236.924 74.2005 237.096 73.7904 237.207 73.3281C237.318 72.8594 237.373 72.3613 237.373 71.834ZM243.457 62V77H241.641V62H243.457ZM252.588 75.1934V69.7539C252.588 69.3372 252.503 68.9759 252.334 68.6699C252.171 68.3574 251.924 68.1165 251.592 67.9473C251.26 67.778 250.85 67.6934 250.361 67.6934C249.906 67.6934 249.505 67.7715 249.16 67.9277C248.822 68.084 248.555 68.2891 248.359 68.543C248.171 68.7969 248.076 69.0703 248.076 69.3633H246.27C246.27 68.9857 246.367 68.6113 246.562 68.2402C246.758 67.8691 247.038 67.5339 247.402 67.2344C247.773 66.9284 248.216 66.6875 248.73 66.5117C249.251 66.3294 249.831 66.2383 250.469 66.2383C251.237 66.2383 251.914 66.3685 252.5 66.6289C253.092 66.8893 253.555 67.2832 253.887 67.8105C254.225 68.3314 254.395 68.9857 254.395 69.7734V74.6953C254.395 75.0469 254.424 75.4212 254.482 75.8184C254.548 76.2155 254.642 76.5573 254.766 76.8438V77H252.881C252.79 76.7917 252.718 76.515 252.666 76.1699C252.614 75.8184 252.588 75.4928 252.588 75.1934ZM252.9 70.5938L252.92 71.8633H251.094C250.579 71.8633 250.12 71.9056 249.717 71.9902C249.313 72.0684 248.975 72.1888 248.701 72.3516C248.428 72.5143 248.219 72.7194 248.076 72.9668C247.933 73.2077 247.861 73.4909 247.861 73.8164C247.861 74.1484 247.936 74.4512 248.086 74.7246C248.236 74.998 248.46 75.2161 248.76 75.3789C249.066 75.5352 249.44 75.6133 249.883 75.6133C250.436 75.6133 250.924 75.4961 251.348 75.2617C251.771 75.0273 252.106 74.7409 252.354 74.4023C252.607 74.0638 252.744 73.735 252.764 73.416L253.535 74.2852C253.49 74.5586 253.366 74.8613 253.164 75.1934C252.962 75.5254 252.692 75.8444 252.354 76.1504C252.021 76.4499 251.624 76.7005 251.162 76.9023C250.706 77.0977 250.192 77.1953 249.619 77.1953C248.903 77.1953 248.275 77.0553 247.734 76.7754C247.201 76.4954 246.784 76.1211 246.484 75.6523C246.191 75.1771 246.045 74.6465 246.045 74.0605C246.045 73.4941 246.156 72.9961 246.377 72.5664C246.598 72.1302 246.917 71.7689 247.334 71.4824C247.751 71.1895 248.252 70.9681 248.838 70.8184C249.424 70.6686 250.078 70.5938 250.801 70.5938H252.9ZM261.465 75.7109C261.895 75.7109 262.292 75.623 262.656 75.4473C263.021 75.2715 263.32 75.0306 263.555 74.7246C263.789 74.4121 263.923 74.0573 263.955 73.6602H265.674C265.641 74.2852 265.43 74.8678 265.039 75.4082C264.655 75.9421 264.15 76.375 263.525 76.707C262.9 77.0326 262.214 77.1953 261.465 77.1953C260.671 77.1953 259.977 77.0553 259.385 76.7754C258.799 76.4954 258.311 76.1113 257.92 75.623C257.536 75.1348 257.246 74.5749 257.051 73.9434C256.862 73.3053 256.768 72.6315 256.768 71.9219V71.5117C256.768 70.8021 256.862 70.1315 257.051 69.5C257.246 68.862 257.536 68.2988 257.92 67.8105C258.311 67.3223 258.799 66.9382 259.385 66.6582C259.977 66.3783 260.671 66.2383 261.465 66.2383C262.292 66.2383 263.014 66.4076 263.633 66.7461C264.251 67.0781 264.736 67.5339 265.088 68.1133C265.446 68.6862 265.641 69.3372 265.674 70.0664H263.955C263.923 69.6302 263.799 69.2363 263.584 68.8848C263.376 68.5332 263.089 68.2533 262.725 68.0449C262.367 67.8301 261.947 67.7227 261.465 67.7227C260.911 67.7227 260.446 67.8333 260.068 68.0547C259.697 68.2695 259.401 68.5625 259.18 68.9336C258.965 69.2982 258.809 69.7051 258.711 70.1543C258.62 70.597 258.574 71.0495 258.574 71.5117V71.9219C258.574 72.3841 258.62 72.8398 258.711 73.2891C258.802 73.7383 258.955 74.1452 259.17 74.5098C259.391 74.8743 259.688 75.1673 260.059 75.3887C260.436 75.6035 260.905 75.7109 261.465 75.7109ZM272.09 77.1953C271.354 77.1953 270.687 77.0716 270.088 76.8242C269.495 76.5703 268.984 76.2155 268.555 75.7598C268.132 75.304 267.806 74.7637 267.578 74.1387C267.35 73.5137 267.236 72.8301 267.236 72.0879V71.6777C267.236 70.8184 267.363 70.0534 267.617 69.3828C267.871 68.7057 268.216 68.1328 268.652 67.6641C269.089 67.1953 269.583 66.8405 270.137 66.5996C270.69 66.3587 271.263 66.2383 271.855 66.2383C272.611 66.2383 273.262 66.3685 273.809 66.6289C274.362 66.8893 274.814 67.2539 275.166 67.7227C275.518 68.1849 275.778 68.7318 275.947 69.3633C276.117 69.9883 276.201 70.6719 276.201 71.4141V72.2246H268.311V70.75H274.395V70.6133C274.368 70.1445 274.271 69.6888 274.102 69.2461C273.939 68.8034 273.678 68.4388 273.32 68.1523C272.962 67.8659 272.474 67.7227 271.855 67.7227C271.445 67.7227 271.068 67.8105 270.723 67.9863C270.378 68.1556 270.081 68.4095 269.834 68.748C269.587 69.0866 269.395 69.5 269.258 69.9883C269.121 70.4766 269.053 71.0397 269.053 71.6777V72.0879C269.053 72.5892 269.121 73.0612 269.258 73.5039C269.401 73.9401 269.606 74.3242 269.873 74.6562C270.146 74.9883 270.475 75.2487 270.859 75.4375C271.25 75.6263 271.693 75.7207 272.188 75.7207C272.826 75.7207 273.366 75.5905 273.809 75.3301C274.251 75.0697 274.639 74.7214 274.971 74.2852L276.064 75.1543C275.837 75.4993 275.547 75.8281 275.195 76.1406C274.844 76.4531 274.411 76.707 273.896 76.9023C273.389 77.0977 272.786 77.1953 272.09 77.1953Z" fill="#252525"/>
<path d="M48.7687 33.5875L38.2995 2.40469H30.4934L19.8016 33.4357L9.54707 2.40469H0L15.1354 47.9285H23.8557L34.2136 17.4728L44.5636 47.9285H53.1647L68.3001 2.40469H59.2379L48.7687 33.5875Z" fill="url(#paint0_linear_14_165)"/>
<path d="M82.5343 29.0015H103.656V20.6685H82.5343V10.8655H106.239V2.40469H73.345V47.9285H107.082V39.4677H82.5343V29.0015Z" fill="url(#paint1_linear_14_165)"/>
<path d="M147.061 5.23953C143.165 3.30794 138.868 2.33576 134.525 2.40329H115.152V47.9431H134.525C138.881 48.017 143.193 47.0446 147.1 45.1068C150.699 43.3006 153.708 40.498 155.773 37.0295C157.795 33.4099 158.857 29.3284 158.857 25.1772C158.857 21.026 157.795 16.9445 155.773 13.3248C153.694 9.85083 150.672 7.04573 147.061 5.23953ZM124.35 10.8321H134.127C136.987 10.7677 139.821 11.3894 142.394 12.6457C144.623 13.7454 146.48 15.479 147.736 17.6312C148.973 19.9365 149.62 22.5143 149.62 25.1332C149.62 27.7521 148.973 30.33 147.736 32.6353C146.48 34.7851 144.622 36.516 142.394 37.6127C139.822 38.8718 136.988 39.4963 134.127 39.4343H124.35V10.8321Z" fill="url(#paint2_linear_14_165)"/>
<path d="M195.735 27.8271C195.735 31.9896 194.845 35.0735 193.088 36.991C191.332 38.9084 188.835 39.8352 185.417 39.8352C178.414 39.8352 175.155 36.0162 175.155 27.851V2.40469H165.989V28.0668C165.989 34.5142 167.714 39.5716 171.132 43.0869C174.551 46.6023 179.344 48.4079 185.378 48.4079C191.411 48.4079 196.204 46.6342 199.631 43.1189C203.057 39.6035 204.774 34.5622 204.774 28.0668V2.40469H195.735V27.8271Z" fill="url(#paint3_linear_14_165)"/>
<path d="M261.866 2.40469H253.146L242.788 32.8604L232.438 2.40469H223.837L208.701 47.9285H217.764L228.233 16.7457L238.702 47.9285H246.508L257.2 16.8975L267.454 47.9285H277.002L261.866 2.40469Z" fill="url(#paint4_linear_14_165)"/>
<defs>
<linearGradient id="paint0_linear_14_165" x1="3.10028" y1="47.9285" x2="64.3543" y2="47.9285" gradientUnits="userSpaceOnUse">
<stop stop-color="#4C1175"/>
<stop offset="1" stop-color="#C511A9"/>
</linearGradient>
<linearGradient id="paint1_linear_14_165" x1="74.8763" y1="47.9285" x2="105.133" y2="47.9285" gradientUnits="userSpaceOnUse">
<stop stop-color="#4C1175"/>
<stop offset="1" stop-color="#C511A9"/>
</linearGradient>
<linearGradient id="paint2_linear_14_165" x1="117.136" y1="47.947" x2="156.333" y2="47.947" gradientUnits="userSpaceOnUse">
<stop stop-color="#4C1175"/>
<stop offset="1" stop-color="#C511A9"/>
</linearGradient>
<linearGradient id="paint3_linear_14_165" x1="167.75" y1="48.4079" x2="202.533" y2="48.4079" gradientUnits="userSpaceOnUse">
<stop stop-color="#4C1175"/>
<stop offset="1" stop-color="#C511A9"/>
</linearGradient>
<linearGradient id="paint4_linear_14_165" x1="211.802" y1="47.9285" x2="273.056" y2="47.9285" gradientUnits="userSpaceOnUse">
<stop stop-color="#4C1175"/>
<stop offset="1" stop-color="#C511A9"/>
</linearGradient>
</defs>
</svg>
