<svg width="30" height="30" viewBox="0 0 30 30" fill="none" xmlns="http://www.w3.org/2000/svg">
<path d="M15 30C12.0333 30 9.13319 29.1203 6.66645 27.4721C4.19972 25.8238 2.27713 23.4812 1.14181 20.7403C0.00649941 17.9994 -0.290551 14.9834 0.288228 12.0737C0.867006 9.16394 2.29562 6.49119 4.3934 4.3934C6.49119 2.29562 9.16394 0.867006 12.0737 0.288228C14.9834 -0.290551 17.9994 0.00649941 20.7403 1.14181C23.4812 2.27713 25.8238 4.19972 27.4721 6.66645C29.1203 9.13319 30 12.0333 30 15C30 18.9783 28.4197 22.7936 25.6066 25.6066C22.7936 28.4197 18.9783 30 15 30ZM15 2.00001C12.4288 2.00001 9.91543 2.76244 7.77759 4.1909C5.63975 5.61936 3.97351 7.64968 2.98957 10.0251C2.00563 12.4006 1.74819 15.0144 2.2498 17.5362C2.75141 20.0579 3.98954 22.3743 5.80762 24.1924C7.6257 26.0105 9.94208 27.2486 12.4638 27.7502C14.9856 28.2518 17.5995 27.9944 19.9749 27.0104C22.3503 26.0265 24.3807 24.3603 25.8091 22.2224C27.2376 20.0846 28 17.5712 28 15C28 11.5522 26.6304 8.24559 24.1924 5.80762C21.7544 3.36965 18.4478 2.00001 15 2.00001Z" fill="#A43FD4"/>
<path d="M15 25C14.6044 25 14.2178 24.8827 13.8889 24.6629C13.56 24.4432 13.3036 24.1308 13.1522 23.7654C13.0009 23.3999 12.9613 22.9978 13.0384 22.6098C13.1156 22.2219 13.3061 21.8655 13.5858 21.5858C13.8655 21.3061 14.2219 21.1156 14.6098 21.0384C14.9978 20.9613 15.3999 21.0009 15.7654 21.1522C16.1308 21.3036 16.4432 21.56 16.6629 21.8889C16.8827 22.2178 17 22.6044 17 23C17 23.5304 16.7893 24.0391 16.4142 24.4142C16.0391 24.7893 15.5304 25 15 25Z" fill="#A43FD4"/>
<path d="M15 17.5L15 7.5" stroke="#A43FD4" stroke-width="2" stroke-linecap="round"/>
</svg>
