<svg width="32" height="32" viewBox="0 0 32 32" fill="none" xmlns="http://www.w3.org/2000/svg">
<path d="M5.92904 21.4158L4.89659 29.8143C4.88708 29.899 4.89562 29.9847 4.92163 30.0659C4.94765 30.1471 4.99056 30.2218 5.04753 30.2852C5.10411 30.3496 5.17376 30.4012 5.25184 30.4366C5.32992 30.472 5.41464 30.4904 5.50036 30.4905H26.4996C26.5853 30.4904 26.6701 30.472 26.7481 30.4366C26.8262 30.4012 26.8959 30.3496 26.9524 30.2852C27.0094 30.2218 27.0523 30.1471 27.0783 30.0659C27.1044 29.9847 27.1129 29.899 27.1034 29.8143L26.0709 21.4158C26.0592 21.3197 26.0245 21.2279 25.9699 21.148C25.9153 21.0682 25.8422 21.0026 25.757 20.9569L20.1117 17.938L19.0672 16.6097V15.1969C19.8832 14.5968 20.5512 13.8181 21.02 12.9202C21.4888 12.0223 21.7461 11.0291 21.7721 10.0165C22.1845 9.56199 22.4698 9.00672 22.5991 8.40672C22.7284 7.80673 22.6972 7.18325 22.5087 6.59916C21.9472 4.46784 19.9245 2.27614 17.9502 1.7086C16.5917 1.3101 15.7102 1.57577 15.1668 1.96218C15.0884 1.88288 15.0036 1.81018 14.9132 1.74482C14.5932 1.52143 14.0136 1.34029 13.0656 1.74482C12.1034 2.23518 11.2724 2.94868 10.6422 3.82574C10.012 4.70279 9.60081 5.71792 9.44301 6.78633C9.39768 7.22139 9.44411 7.66113 9.57931 8.07713C9.71451 8.49313 9.93547 8.87614 10.2279 9.20143C10.2279 9.27992 10.2279 9.35841 10.2279 9.44294C10.2065 10.536 10.4417 11.6188 10.9146 12.6045C11.3875 13.5901 12.0849 14.4512 12.9509 15.1184V16.5675L12.0573 17.7146H12.009L6.25508 20.9327C6.16439 20.9792 6.08694 21.0479 6.02993 21.1323C5.97292 21.2168 5.93822 21.3143 5.92904 21.4158ZM16.0423 29.2648H15.046L15.6981 23.4203C15.7186 23.3227 15.7186 23.222 15.6981 23.1244L14.9313 21.2527L16.0241 20.4135L17.1532 21.2829L16.3864 23.0943C16.3498 23.1883 16.3373 23.29 16.3502 23.3901L17.0204 29.2527L16.0423 29.2648ZM13.5547 17.7448L15.1245 19.5561L13.6513 20.6912L12.957 18.5056L13.5547 17.7448ZM18.4453 17.7448L19.049 18.5116L18.3547 20.6973L16.9056 19.5622L18.4453 17.7448ZM19.2362 21.8807L20.0694 19.2663L24.8996 21.8746L25.8053 29.2829H18.2098L17.5396 23.4384L18.1434 22.0437L18.3185 22.1765C18.4239 22.2583 18.5534 22.3029 18.6868 22.3033C18.7468 22.3124 18.8079 22.3124 18.8679 22.3033C18.9589 22.2679 19.0399 22.2109 19.1041 22.1373C19.1682 22.0637 19.2136 21.9757 19.2362 21.8807ZM10.6385 6.94331C10.7692 6.09644 11.0939 5.29125 11.5872 4.59057C12.0805 3.8899 12.7291 3.31272 13.4823 2.90407C13.9472 2.67463 14.1826 2.71086 14.2128 2.72897C14.3582 2.84762 14.474 2.99853 14.5509 3.16973C14.5985 3.26206 14.669 3.34058 14.7557 3.39769C14.8424 3.4548 14.9424 3.48858 15.046 3.49577C15.1504 3.50275 15.2548 3.4825 15.349 3.43699C15.4432 3.39147 15.524 3.32226 15.5834 3.23614C15.9517 2.70482 16.634 2.57803 17.6121 2.86784C19.1517 3.31463 20.8906 5.19841 21.3434 6.90709C21.4519 7.2354 21.4887 7.58318 21.4512 7.92693C21.4137 8.27067 21.3028 8.60235 21.126 8.89954L20.8121 8.77878C18.6204 7.91539 16.5434 7.10633 15.7826 4.89652C15.7388 4.78305 15.6618 4.68545 15.5616 4.6165C15.4614 4.54755 15.3427 4.51046 15.2211 4.5101H15.0943C14.9537 4.53582 14.8267 4.61063 14.736 4.72119C14.6454 4.83176 14.5969 4.97091 14.5992 5.11388C14.4403 5.96198 14.0108 6.73574 13.3751 7.31919C12.7395 7.90264 11.9318 8.26435 11.0732 8.35011C10.9109 8.15628 10.7888 7.93204 10.7142 7.69049C10.6395 7.44893 10.6138 7.19493 10.6385 6.94331ZM11.4234 9.53954C12.7142 9.34724 13.8895 8.68763 14.726 7.68595C14.9721 7.38384 15.1847 7.05588 15.36 6.70784C16.5373 8.39841 18.4815 9.15916 20.3713 9.9018L20.5645 9.98029C20.4136 12.7999 18.4634 14.9614 16 14.9614C13.5366 14.9614 11.4717 12.5343 11.4234 9.53954ZM16 16.181C16.6352 16.1814 17.2652 16.0669 17.8596 15.8429V16.5856L16 18.7169L14.1404 16.5614V15.8067C14.732 16.0432 15.3629 16.1661 16 16.169V16.181ZM7.08829 21.8686L11.9185 19.1818L12.7758 21.8807C12.8051 21.9727 12.856 22.0564 12.9243 22.1247C12.9926 22.193 13.0763 22.2439 13.1683 22.2731C13.2283 22.2822 13.2894 22.2822 13.3494 22.2731C13.4828 22.2727 13.6123 22.2281 13.7177 22.1463L13.923 21.9893L14.5268 23.4082L13.8264 29.2829H6.18263L7.08829 21.8686Z" fill="#4C1175"/>
</svg>
