<svg width="15" height="13" viewBox="0 0 15 13" fill="none" xmlns="http://www.w3.org/2000/svg">
<path d="M13.4842 8.44055C13.4842 8.80018 13.3802 9.15174 13.1852 9.45077C12.9903 9.74979 12.7132 9.98286 12.389 10.1205C12.0649 10.2581 11.7082 10.2941 11.364 10.224C11.0199 10.1538 10.7038 9.98064 10.4556 9.72634C10.2075 9.47204 10.0386 9.14805 9.9701 8.79533C9.90164 8.4426 9.93676 8.07699 10.071 7.74473C10.2053 7.41247 10.4327 7.12848 10.7244 6.92867C11.0162 6.72886 11.3592 6.6222 11.7101 6.62219C12.1804 6.6227 12.6314 6.81444 12.964 7.15533C13.2966 7.49623 13.4837 7.95844 13.4842 8.44055ZM10.6068 10.8233V12.7259C10.6068 12.7736 10.6189 12.8204 10.642 12.8619C10.6651 12.9033 10.6984 12.9378 10.7385 12.962C10.7786 12.9863 10.8241 12.9993 10.8707 13C10.9172 13.0006 10.9631 12.9888 11.0038 12.9657L11.5158 12.6751C11.5753 12.6413 11.6421 12.6236 11.7101 12.6236C11.7781 12.6236 11.845 12.6413 11.9045 12.6751L12.4161 12.9657C12.4568 12.9888 12.5027 13.0006 12.5493 13C12.5958 12.9993 12.6414 12.9863 12.6815 12.962C12.7216 12.9378 12.7549 12.9033 12.778 12.8619C12.8011 12.8204 12.8132 12.7735 12.8132 12.7258V10.8235C12.469 10.9932 12.0919 11.0814 11.71 11.0813C11.328 11.0813 10.9509 10.9931 10.6068 10.8233ZM15 0.274146V10.7877C15 10.8604 14.9718 10.9301 14.9217 10.9815C14.8715 11.0329 14.8035 11.0618 14.7325 11.0618H13.6145V10.2119C14.0469 9.72871 14.2865 9.09666 14.2858 8.44096C14.2869 8.01174 14.1858 7.58874 13.9914 7.2086C13.7969 6.82845 13.515 6.50263 13.17 6.25935C12.825 6.01608 12.4273 5.86269 12.0114 5.81248C11.5955 5.76227 11.1739 5.81675 10.7832 5.9712C10.3925 6.12565 10.0444 6.37541 9.76909 6.69884C9.4938 7.02228 9.29959 7.40963 9.2033 7.82735C9.10701 8.24506 9.11154 8.68054 9.21649 9.09606C9.32145 9.51158 9.52367 9.8946 9.80563 10.2119V11.0618H0.267475C0.196536 11.0618 0.128503 11.0329 0.0783417 10.9815C0.0281804 10.9301 0 10.8604 0 10.7877V0.274146C0 0.201438 0.0281804 0.131708 0.0783417 0.0802955C0.128503 0.0288831 0.196536 0 0.267475 0H14.7325C14.8035 0 14.8715 0.0288831 14.9217 0.0802955C14.9718 0.131708 15 0.201438 15 0.274146ZM4.65139 2.21236C4.65132 2.26638 4.66165 2.31989 4.68179 2.36981C4.70193 2.41974 4.73148 2.4651 4.76875 2.5033C4.80602 2.5415 4.85027 2.57178 4.89898 2.59242C4.94769 2.61306 4.9999 2.62365 5.0526 2.62358H9.9474C10.0538 2.62358 10.1559 2.58025 10.2311 2.50314C10.3063 2.42602 10.3486 2.32142 10.3486 2.21236C10.3486 2.1033 10.3063 1.9987 10.2311 1.92158C10.1559 1.84446 10.0538 1.80114 9.9474 1.80114H5.0526C4.9999 1.80107 4.94769 1.81166 4.89898 1.8323C4.85027 1.85294 4.80602 1.88322 4.76875 1.92142C4.73148 1.95962 4.70193 2.00498 4.68179 2.05491C4.66165 2.10483 4.65132 2.15834 4.65139 2.21236ZM8.28638 7.81591C8.28645 7.76188 8.27612 7.70838 8.25598 7.65845C8.23584 7.60853 8.20629 7.56317 8.16902 7.52497C8.13175 7.48677 8.08749 7.45648 8.03878 7.43584C7.99008 7.4152 7.93787 7.40461 7.88516 7.40469H1.89105C1.78464 7.40469 1.68259 7.44801 1.60735 7.52513C1.53211 7.60225 1.48984 7.70684 1.48984 7.81591C1.48984 7.92497 1.53211 8.02956 1.60735 8.10668C1.68259 8.1838 1.78464 8.22713 1.89105 8.22713H7.88516C7.93787 8.2272 7.99008 8.21661 8.03878 8.19597C8.08749 8.17533 8.13175 8.14504 8.16902 8.10684C8.20629 8.06864 8.23584 8.02328 8.25598 7.97336C8.27612 7.92343 8.28645 7.86993 8.28638 7.81591ZM8.8347 5.94897C8.83477 5.89495 8.82444 5.84144 8.8043 5.79152C8.78417 5.7416 8.75461 5.69623 8.71735 5.65803C8.68007 5.61983 8.63582 5.58955 8.58711 5.56891C8.5384 5.54827 8.4862 5.53768 8.43349 5.53775H1.89105C1.78464 5.53775 1.68259 5.58108 1.60735 5.6582C1.53211 5.73531 1.48984 5.83991 1.48984 5.94897C1.48984 6.05803 1.53211 6.16263 1.60735 6.23975C1.68259 6.31687 1.78464 6.36019 1.89105 6.36019H8.43349C8.4862 6.36026 8.5384 6.34968 8.58711 6.32904C8.63582 6.30839 8.68007 6.27811 8.71735 6.23991C8.75461 6.20171 8.78417 6.15635 8.8043 6.10642C8.82444 6.0565 8.83477 6.00299 8.8347 5.94897ZM13.5102 4.07929C13.5099 3.97033 13.4675 3.86592 13.3923 3.78887C13.3171 3.71182 13.2153 3.66839 13.109 3.66808H1.89105C1.78464 3.66808 1.68259 3.7114 1.60735 3.78852C1.53211 3.86564 1.48984 3.97023 1.48984 4.07929C1.48984 4.18836 1.53211 4.29295 1.60735 4.37007C1.68259 4.44719 1.78464 4.49051 1.89105 4.49051H13.109C13.1617 4.49059 13.2139 4.48 13.2626 4.45936C13.3113 4.43872 13.3555 4.40843 13.3928 4.37023C13.4301 4.33203 13.4596 4.28667 13.4798 4.23675C13.4999 4.18682 13.5102 4.13332 13.5102 4.07929Z" fill="#555555"/>
</svg>
