<svg width="31" height="31" viewBox="0 0 31 31" fill="none" xmlns="http://www.w3.org/2000/svg">
<path opacity="0.3" d="M15.375 10.8501L29.8125 5.6626V7.6126L15.375 12.9626V10.8501Z" fill="#BB2FA6"/>
<path d="M29.125 23.1062C29.125 24.1 28.6875 24.95 28.0563 25.3437C27.8188 25.4937 27.5563 25.575 27.275 25.575C26.9938 25.575 26.7313 25.4937 26.4938 25.3437C25.8625 24.95 25.425 24.1 25.425 23.1062C25.425 21.7437 26.25 20.6375 27.275 20.6375C28.3 20.6375 29.125 21.7437 29.125 23.1062Z" fill="#3C0E5D"/>
<path d="M30.425 4.88125L15.5625 0.0375C15.4438 -0.0125 15.3062 -0.0125 15.1875 0.0375L0.325 4.88125C0.13125 4.94375 0 5.125 0 5.325V7.93749C0 8.13124 0.125 8.30624 0.30625 8.37499L6.5125 10.675V17.0312C6.5125 17.1437 6.55 17.25 6.625 17.3375C6.65625 17.375 7.45 18.3 8.925 19.2312C10.2812 20.0875 12.5 21.1 15.3687 21.1062H15.3875C18.25 21.1 20.4688 20.0875 21.825 19.2312C23.3 18.3062 24.0938 17.3812 24.125 17.3375C24.2 17.25 24.2375 17.1437 24.2375 17.0312V10.675L26.8062 9.72499V20.6312C26.8062 20.8875 27.0187 21.1 27.275 21.1C27.5312 21.1 27.7437 20.8875 27.7437 20.6312V9.37499L30.4438 8.37499C30.625 8.30624 30.75 8.13124 30.75 7.93749V5.325C30.75 5.125 30.6187 4.94375 30.425 4.88125ZM23.3 16.85C23.0437 17.1187 22.3562 17.7875 21.3 18.45C20.0562 19.2312 18.0188 20.1562 15.3875 20.1625H15.3687C12.7375 20.1625 10.7 19.2312 9.45 18.45C8.3875 17.7875 7.7 17.1187 7.45 16.85V11.025L8.425 11.3875L15.1375 13.875C15.2063 13.9125 15.2875 13.9375 15.3687 13.9375C15.375 13.9375 15.375 13.9375 15.3813 13.9375C15.3875 13.9375 15.3937 13.9375 15.3937 13.9375C15.4687 13.9375 15.55 13.9187 15.625 13.875L23.3062 11.025V16.85H23.3ZM29.8125 7.6125L27.2687 8.55624L15.4438 4.43125C15.2 4.34375 14.9312 4.475 14.8438 4.71875C14.7563 4.9625 14.8875 5.23125 15.1313 5.31875L25.8813 9.06874L23.5938 9.91249L15.375 12.9625L7.14375 9.91249L0.9375 7.6125V5.66875L15.375 0.968749L29.8125 5.66875V7.6125Z" fill="#4C1175"/>
<path d="M29.1249 30.0375H25.4312L26.4999 25.3438C26.7374 25.4938 26.9999 25.575 27.2812 25.575C27.5624 25.575 27.8249 25.4938 28.0624 25.3438L29.1249 30.0375Z" fill="#E1A1FF"/>
<path opacity="0.3" d="M0.9375 5.6626L15.375 10.8501V12.9626L0.9375 7.6126V5.6626Z" fill="#BB2FA6"/>
</svg>
