<svg width="15" height="15" viewBox="0 0 15 15" fill="none" xmlns="http://www.w3.org/2000/svg">
<path fill-rule="evenodd" clip-rule="evenodd" d="M6.59205 3.04H7.49077V7.26561L9.43261 9.2157L8.79707 9.85391L6.60568 7.65316H6.59205V3.04005V3.04ZM7.13118 0.733398C10.9402 0.733398 14.028 3.83441 14.028 7.65968C14.028 8.87633 13.7152 10.0195 13.1666 11.0132L12.441 10.2845C12.8304 9.49308 13.0496 8.6022 13.0496 7.65968C13.0496 4.38267 10.4044 1.72617 7.14127 1.72617C3.87825 1.72617 1.23301 4.38267 1.23301 7.65968C1.23301 10.9367 3.87825 13.5932 7.14127 13.5932C7.99431 13.5932 8.8049 13.4114 9.53726 13.0846L10.2754 13.8258C9.33255 14.3117 8.26377 14.586 7.13118 14.586C3.32219 14.586 0.234375 11.4849 0.234375 7.65968C0.234375 3.83441 3.32219 0.733398 7.13118 0.733398Z" fill="#DF0000"/>
</svg>
