<svg width="24" height="24" viewBox="0 0 24 24" fill="none" xmlns="http://www.w3.org/2000/svg">
<path d="M21.0973 23.3716H2.90274C1.6622 23.3716 0.628418 22.3378 0.628418 21.0973V4.40166C0.628418 3.16112 1.45545 2.12734 2.54092 2.12734H3.67808V3.62632H2.54092C2.38585 3.62632 2.17909 3.93645 2.17909 4.40166V21.0973C2.17909 21.5108 2.54092 21.8726 2.95443 21.8726H21.149C21.5625 21.8726 21.9244 21.5108 21.9244 21.0973V4.40166C21.9244 3.93645 21.6659 3.62632 21.5625 3.62632H20.4254V2.12734H21.5625C22.5963 2.12734 23.475 3.16112 23.475 4.40166V21.0973C23.3717 22.3378 22.3379 23.3716 21.0973 23.3716Z" fill="#A43FD4"/>
<path d="M5.9524 5.177C5.53889 5.177 5.17707 4.81517 5.17707 4.40166V1.352C5.17707 0.938485 5.53889 0.57666 5.9524 0.57666C6.36592 0.57666 6.72774 0.938485 6.72774 1.352V4.40166C6.67605 4.81517 6.36592 5.177 5.9524 5.177ZM18.0477 5.177C17.6342 5.177 17.2723 4.81517 17.2723 4.40166V1.352C17.2723 0.938485 17.6342 0.57666 18.0477 0.57666C18.4612 0.57666 18.823 0.938485 18.823 1.352V4.40166C18.823 4.81517 18.4612 5.177 18.0477 5.177Z" fill="#A43FD4"/>
<path d="M8.22673 2.12734H15.7733V3.67801H8.22673V2.12734Z" fill="#A43FD4"/>
<path d="M2.1274 6.67599H21.8727V8.22667H2.1274V6.67599Z" fill="#A43FD4"/>
<path d="M18.823 9.72564H20.322V11.2246H18.823V9.72564Z" fill="#A43FD4"/>
<path d="M15.7733 9.72564H17.324V11.2246H15.7733V9.72564Z" fill="#A43FD4"/>
<path d="M12.7754 9.72564H14.2744V11.2246H12.7754V9.72564Z" fill="#A43FD4"/>
<path d="M9.72571 9.72564H11.2247V11.2246H9.72571V9.72564Z" fill="#A43FD4"/>
<path d="M6.67605 9.72564H8.22673V11.2246H6.67605V9.72564Z" fill="#A43FD4"/>
<path d="M18.823 12.7753H20.322V14.2743H18.823V12.7753Z" fill="#A43FD4"/>
<path d="M15.7733 12.7753H17.324V14.2743H15.7733V12.7753Z" fill="#A43FD4"/>
<path d="M12.7754 12.7753H14.2744V14.2743H12.7754V12.7753Z" fill="#A43FD4"/>
<path d="M9.72571 12.7753H11.2247V14.2743H9.72571V12.7753Z" fill="#A43FD4"/>
<path d="M6.67605 12.7753H8.22673V14.2743H6.67605V12.7753Z" fill="#A43FD4"/>
<path d="M3.67808 12.7753H5.17707V14.2743H3.67808V12.7753Z" fill="#A43FD4"/>
<path d="M18.823 15.7733H20.322V17.3239H18.823V15.7733Z" fill="#A43FD4"/>
<path d="M15.7733 15.7733H17.324V17.3239H15.7733V15.7733Z" fill="#A43FD4"/>
<path d="M12.7754 15.7733H14.2744V17.3239H12.7754V15.7733Z" fill="#A43FD4"/>
<path d="M9.72571 15.7733H11.2247V17.3239H9.72571V15.7733Z" fill="#A43FD4"/>
<path d="M6.67605 15.7733H8.22673V17.3239H6.67605V15.7733Z" fill="#A43FD4"/>
<path d="M3.67808 15.7733H5.17707V17.3239H3.67808V15.7733Z" fill="#A43FD4"/>
<path d="M15.7733 18.8229H17.324V20.3219H15.7733V18.8229Z" fill="#A43FD4"/>
<path d="M12.7754 18.8229H14.2744V20.3219H12.7754V18.8229Z" fill="#A43FD4"/>
<path d="M9.72571 18.8229H11.2247V20.3219H9.72571V18.8229Z" fill="#A43FD4"/>
<path d="M6.67605 18.8229H8.22673V20.3219H6.67605V18.8229Z" fill="#A43FD4"/>
<path d="M3.67808 18.8229H5.17707V20.3219H3.67808V18.8229Z" fill="#A43FD4"/>
</svg>
