<svg width="46" height="64" viewBox="0 0 46 64" fill="none" xmlns="http://www.w3.org/2000/svg">
<path d="M32.1097 28.2979L44.3029 35.8894L20.1971 36.5036L8.00391 28.9121L32.1097 28.2979Z" fill="url(#paint0_linear_0_668)"/>
<path d="M44.301 35.8894L41.2774 63.2477L17.1716 63.8617L20.1952 36.5037L44.301 35.8894Z" fill="url(#paint1_linear_0_668)"/>
<path d="M20.1972 36.5034L17.1736 63.8614L4.98022 56.2699L8.00404 28.9119L20.1972 36.5034Z" fill="url(#paint2_linear_0_668)"/>
<path d="M32.1113 28.2977C32.1113 28.2977 31.7207 31.5609 31.1717 36.2239L44.3044 35.8893L32.1113 28.2977Z" fill="url(#paint3_linear_0_668)"/>
<path d="M32.1097 28.2979L8.00391 28.9121L20.1971 36.5036L44.3029 35.8894L32.1097 28.2979ZM8.79311 29.1274L32.0468 28.5351L43.5137 35.6743L20.26 36.2667L8.79311 29.1274Z" fill="url(#paint4_linear_0_668)"/>
<path d="M26.2654 63.6295L32.6611 63.4665L35.673 36.1085L29.2771 36.2716L26.2654 63.6295Z" fill="url(#paint5_linear_0_668)"/>
<path d="M8.17967 58.2628L12.9123 61.2094L15.925 33.8441L11.1921 30.8976L8.17967 58.2628Z" fill="url(#paint6_linear_0_668)"/>
<path d="M25.0286 10.2028L40.0854 13.359L15.9634 22.9048L0.906626 19.7489L25.0286 10.2028Z" fill="url(#paint7_linear_0_668)"/>
<path d="M40.0872 13.3591L41.4996 19.3479L17.3775 28.8937L15.9652 22.9049L40.0872 13.3591Z" fill="url(#paint8_linear_0_668)"/>
<path d="M15.963 22.9049L17.3753 28.8937L2.31833 25.7378L0.90625 19.749L15.963 22.9049Z" fill="url(#paint9_linear_0_668)"/>
<path d="M6.59794 26.6355L12.0377 27.7755L10.6116 21.7839L5.17188 20.6436L6.59794 26.6355Z" fill="url(#paint10_linear_0_668)"/>
<path d="M26.2291 25.3893L32.1864 23.0318L30.7623 17.0476L24.805 19.4051L26.2291 25.3893Z" fill="url(#paint11_linear_0_668)"/>
<path d="M16.7787 13.4664L10.8476 15.8136L24.8015 19.4061L30.7588 17.0485L16.7787 13.4664Z" fill="url(#paint12_linear_0_668)"/>
<path d="M28.4589 10.9227L5.17451 20.6442L6.97978 21.0227L10.6143 21.7845L33.9069 12.0648L28.4589 10.9227Z" fill="url(#paint13_linear_0_668)"/>
<path d="M31.1707 2.70166C27.1498 -0.176863 17.6793 11.9776 21.4937 15.28L23.2843 16.7653C20.1395 10.2705 30.258 2.21918 32.9613 4.18697L31.1707 2.70166Z" fill="url(#paint14_linear_0_668)"/>
<path d="M21.4936 15.2797C24.015 16.8947 32.4386 9.28189 32.0511 4.5322C31.9875 3.75273 31.6913 3.13659 31.1706 2.70133L32.9612 4.18664C36.9418 8.00426 27.4338 17.2657 23.9152 16.9877C23.674 16.9687 23.4264 16.8812 23.2845 16.765L21.4936 15.2797Z" fill="url(#paint15_linear_0_668)"/>
<path d="M24.854 0.0164311C20.093 -1.25596 15.4274 13.4883 20.1412 15.2309L22.3317 15.9883C17.1407 11.0169 23.8325 -0.112432 27.0444 0.773837L24.854 0.0164311Z" fill="url(#paint16_linear_0_668)"/>
<path d="M20.1416 15.2308C23.0613 15.8508 28.3174 5.73278 26.3121 1.41967C25.983 0.71187 25.4925 0.239536 24.8544 0.0160503L27.0448 0.773457C32.0926 2.94025 26.3912 14.9871 22.9998 15.9733C22.7675 16.0409 22.5052 16.0467 22.332 15.9882L20.1416 15.2308Z" fill="url(#paint17_linear_0_668)"/>
<path d="M4.5413 9.19349C6.82717 4.78162 20.7303 11.253 18.8189 15.9474L17.8926 18.0934C17.7712 10.8632 5.13711 8.34408 3.61494 11.3394L4.5413 9.19349Z" fill="url(#paint18_linear_0_668)"/>
<path d="M18.8213 15.9477C17.3023 18.5452 6.37505 15.6373 4.58333 11.229C4.28927 10.5055 4.27595 9.82071 4.5437 9.19354L3.61734 11.3395C1.78991 16.5694 14.4248 20.447 17.4334 18.5819C17.6396 18.454 17.8208 18.2624 17.895 18.0937L18.8213 15.9477Z" fill="url(#paint19_linear_0_668)"/>
<path d="M8.46515 4.01923C12.1542 0.722125 22.8717 11.7806 19.4332 15.4766L17.8121 17.1472C20.2428 10.3494 9.32054 3.44057 6.84405 5.6898L8.46515 4.01923Z" fill="url(#paint20_linear_0_668)"/>
<path d="M19.4305 15.4769C17.0967 17.3557 7.90661 10.699 7.78303 5.93493C7.76276 5.15312 7.99129 4.50857 8.46221 4.0193L6.8411 5.68987C3.29267 9.91625 13.7375 18.0945 17.2061 17.4369C17.4439 17.392 17.6805 17.2782 17.8094 17.1472L19.4305 15.4769Z" fill="url(#paint21_linear_0_668)"/>
<path d="M12.455 10.6589C13.542 9.23871 21.3014 14.5944 20.3296 16.1388L18.8233 18.4238C17.3203 15.7149 10.8664 13.0335 11.0476 12.7932L12.455 10.6589Z" fill="url(#paint22_linear_0_668)"/>
<path d="M20.3325 16.1388C19.21 16.2646 11.6453 11.9031 12.458 10.6588L11.0505 12.7931C10.0752 14.533 17.4471 19.0376 18.632 18.5676C18.7131 18.5355 18.7895 18.4789 18.8263 18.4238L20.3325 16.1388Z" fill="url(#paint23_linear_0_668)"/>
<path d="M20.2538 15.9996C18.8136 14.9475 23.8292 6.91796 25.3882 7.84917L27.697 9.29622C25.0752 10.9076 22.6544 17.527 22.4104 17.3517L20.2538 15.9996Z" fill="url(#paint24_linear_0_668)"/>
<path d="M25.3911 7.84864C25.5548 8.98009 21.514 16.7794 20.2567 15.9991L22.4131 17.3512C24.165 18.2795 28.3538 10.6702 27.8485 9.4875C27.8137 9.40645 27.7554 9.33116 27.6997 9.2957L25.3911 7.84864Z" fill="url(#paint25_linear_0_668)"/>
<path d="M15.884 16.5609C16.1621 16.2297 24.0052 14.4681 24.3301 14.5955L25.9767 16.1249C22.3007 15.9022 15.0446 18.744 15.1742 18.4503L15.884 16.5609Z" fill="url(#paint26_linear_0_668)"/>
<path d="M24.3307 14.5956C23.8771 15.1308 15.5191 17.5499 15.8846 16.5609L15.1749 18.4503C14.5014 20.7218 26.0504 17.4485 26.0611 16.3165C26.0617 16.2482 26.0286 16.1731 25.9773 16.125L24.3307 14.5956Z" fill="url(#paint27_linear_0_668)"/>
<defs>
<linearGradient id="paint0_linear_0_668" x1="-5.98482" y1="58.3874" x2="47.0711" y2="16.5059" gradientUnits="userSpaceOnUse">
<stop stop-color="#C460AC"/>
<stop offset="0.167" stop-color="#BF5EAC"/>
<stop offset="0.3724" stop-color="#B05AAC"/>
<stop offset="0.598" stop-color="#9752AC"/>
<stop offset="0.8364" stop-color="#7447AD"/>
<stop offset="1" stop-color="#583EAD"/>
</linearGradient>
<linearGradient id="paint1_linear_0_668" x1="14.0207" y1="28.7002" x2="33.9572" y2="53.356" gradientUnits="userSpaceOnUse">
<stop offset="0.0235" stop-color="#A6CAFF"/>
<stop offset="0.5923" stop-color="#A59DE2"/>
<stop offset="1" stop-color="#A581D0"/>
</linearGradient>
<linearGradient id="paint2_linear_0_668" x1="-19.6671" y1="72.4685" x2="22.9368" y2="38.8377" gradientUnits="userSpaceOnUse">
<stop stop-color="#9381D0"/>
<stop offset="0.4077" stop-color="#9A9DE2"/>
<stop offset="0.9765" stop-color="#A6CAFF"/>
</linearGradient>
<linearGradient id="paint3_linear_0_668" x1="54.3767" y1="57.1345" x2="27.9961" y2="24.5091" gradientUnits="userSpaceOnUse">
<stop stop-color="#C460AC"/>
<stop offset="0.167" stop-color="#BF5EAC"/>
<stop offset="0.3724" stop-color="#B05AAC"/>
<stop offset="0.598" stop-color="#9752AC"/>
<stop offset="0.8364" stop-color="#7447AD"/>
<stop offset="1" stop-color="#583EAD"/>
</linearGradient>
<linearGradient id="paint4_linear_0_668" x1="-5.98479" y1="58.3873" x2="47.0711" y2="16.5059" gradientUnits="userSpaceOnUse">
<stop stop-color="#9381D0"/>
<stop offset="0.4077" stop-color="#9A9DE2"/>
<stop offset="0.9765" stop-color="#A6CAFF"/>
</linearGradient>
<linearGradient id="paint5_linear_0_668" x1="36.0903" y1="49.7119" x2="25.848" y2="50.0261" gradientUnits="userSpaceOnUse">
<stop stop-color="#CB11AB"/>
<stop offset="1" stop-color="#481173"/>
</linearGradient>
<linearGradient id="paint6_linear_0_668" x1="16.2956" y1="45.9233" x2="7.80909" y2="46.1836" gradientUnits="userSpaceOnUse">
<stop stop-color="#CB11AB"/>
<stop offset="1" stop-color="#481173"/>
</linearGradient>
<linearGradient id="paint7_linear_0_668" x1="-2.57534" y1="54.7127" x2="35.854" y2="-7.26927" gradientUnits="userSpaceOnUse">
<stop offset="0.0235" stop-color="#A6CAFF"/>
<stop offset="0.5923" stop-color="#9A9DE2"/>
<stop offset="1" stop-color="#9381D0"/>
</linearGradient>
<linearGradient id="paint8_linear_0_668" x1="15.2585" y1="12.7725" x2="31.2037" y2="22.4131" gradientUnits="userSpaceOnUse">
<stop offset="0.0235" stop-color="#A6CAFF"/>
<stop offset="0.5923" stop-color="#9A9DE2"/>
<stop offset="1" stop-color="#9381D0"/>
</linearGradient>
<linearGradient id="paint9_linear_0_668" x1="0.625967" y1="38.4043" x2="11.9732" y2="20.1026" gradientUnits="userSpaceOnUse">
<stop stop-color="#9381D0"/>
<stop offset="0.4077" stop-color="#9A9DE2"/>
<stop offset="0.9765" stop-color="#A6CAFF"/>
</linearGradient>
<linearGradient id="paint10_linear_0_668" x1="11.9252" y1="24.1077" x2="5.2844" y2="24.3114" gradientUnits="userSpaceOnUse">
<stop stop-color="#CB11AB"/>
<stop offset="1" stop-color="#481173"/>
</linearGradient>
<linearGradient id="paint11_linear_0_668" x1="32.1273" y1="21.1071" x2="24.864" y2="21.3299" gradientUnits="userSpaceOnUse">
<stop stop-color="#CB11AB"/>
<stop offset="1" stop-color="#481173"/>
</linearGradient>
<linearGradient id="paint12_linear_0_668" x1="30.7307" y1="16.1313" x2="10.876" y2="16.7404" gradientUnits="userSpaceOnUse">
<stop stop-color="#CB11AB"/>
<stop offset="1" stop-color="#481173"/>
</linearGradient>
<linearGradient id="paint13_linear_0_668" x1="34.0249" y1="15.9091" x2="5.05651" y2="16.7978" gradientUnits="userSpaceOnUse">
<stop stop-color="#CB11AB"/>
<stop offset="1" stop-color="#481173"/>
</linearGradient>
<linearGradient id="paint14_linear_0_668" x1="33.1186" y1="9.31175" x2="20.5005" y2="9.69886" gradientUnits="userSpaceOnUse">
<stop stop-color="#CB11AB"/>
<stop offset="1" stop-color="#481173"/>
</linearGradient>
<linearGradient id="paint15_linear_0_668" x1="34.0163" y1="9.65196" x2="21.3329" y2="10.0411" gradientUnits="userSpaceOnUse">
<stop stop-color="#CB11AB"/>
<stop offset="1" stop-color="#481173"/>
</linearGradient>
<linearGradient id="paint16_linear_0_668" x1="27.2613" y1="7.84142" x2="18.0849" y2="8.12294" gradientUnits="userSpaceOnUse">
<stop stop-color="#CB11AB"/>
<stop offset="1" stop-color="#481173"/>
</linearGradient>
<linearGradient id="paint17_linear_0_668" x1="29.1496" y1="7.85638" x2="19.924" y2="8.13941" gradientUnits="userSpaceOnUse">
<stop stop-color="#CB11AB"/>
<stop offset="1" stop-color="#481173"/>
</linearGradient>
<linearGradient id="paint18_linear_0_668" x1="18.9291" y1="12.7181" x2="3.67159" y2="13.1861" gradientUnits="userSpaceOnUse">
<stop stop-color="#CB11AB"/>
<stop offset="1" stop-color="#481173"/>
</linearGradient>
<linearGradient id="paint19_linear_0_668" x1="18.7571" y1="13.8535" x2="3.49604" y2="14.3217" gradientUnits="userSpaceOnUse">
<stop stop-color="#CB11AB"/>
<stop offset="1" stop-color="#481173"/>
</linearGradient>
<linearGradient id="paint20_linear_0_668" x1="19.9973" y1="10.0951" x2="6.99144" y2="10.4941" gradientUnits="userSpaceOnUse">
<stop stop-color="#CB11AB"/>
<stop offset="1" stop-color="#481173"/>
</linearGradient>
<linearGradient id="paint21_linear_0_668" x1="19.2792" y1="10.5432" x2="6.21404" y2="10.944" gradientUnits="userSpaceOnUse">
<stop stop-color="#CB11AB"/>
<stop offset="1" stop-color="#481173"/>
</linearGradient>
<linearGradient id="paint22_linear_0_668" x1="20.3666" y1="14.2868" x2="11.098" y2="14.5712" gradientUnits="userSpaceOnUse">
<stop stop-color="#CB11AB"/>
<stop offset="1" stop-color="#481173"/>
</linearGradient>
<linearGradient id="paint23_linear_0_668" x1="20.2817" y1="14.4819" x2="11.0113" y2="14.7663" gradientUnits="userSpaceOnUse">
<stop stop-color="#CB11AB"/>
<stop offset="1" stop-color="#481173"/>
</linearGradient>
<linearGradient id="paint24_linear_0_668" x1="27.7935" y1="12.4408" x2="19.9151" y2="12.6825" gradientUnits="userSpaceOnUse">
<stop stop-color="#CB11AB"/>
<stop offset="1" stop-color="#481173"/>
</linearGradient>
<linearGradient id="paint25_linear_0_668" x1="27.9761" y1="12.5192" x2="20.1573" y2="12.7591" gradientUnits="userSpaceOnUse">
<stop stop-color="#CB11AB"/>
<stop offset="1" stop-color="#481173"/>
</linearGradient>
<linearGradient id="paint26_linear_0_668" x1="25.9832" y1="16.3386" x2="15.1177" y2="16.6719" gradientUnits="userSpaceOnUse">
<stop stop-color="#CB11AB"/>
<stop offset="1" stop-color="#481173"/>
</linearGradient>
<linearGradient id="paint27_linear_0_668" x1="26.0743" y1="16.7439" x2="15.0987" y2="17.0806" gradientUnits="userSpaceOnUse">
<stop stop-color="#CB11AB"/>
<stop offset="1" stop-color="#481173"/>
</linearGradient>
</defs>
</svg>
