<svg width="32" height="32" viewBox="0 0 32 32" fill="none" xmlns="http://www.w3.org/2000/svg">
<path d="M17.7203 18.3864L17.3337 18.7864V15.333C17.3337 14.9794 17.1932 14.6403 16.9431 14.3902C16.6931 14.1402 16.3539 13.9997 16.0003 13.9997C15.6467 13.9997 15.3076 14.1402 15.0575 14.3902C14.8075 14.6403 14.667 14.9794 14.667 15.333V18.7864L14.2803 18.3864C14.0293 18.1353 13.6887 17.9942 13.3337 17.9942C12.9786 17.9942 12.6381 18.1353 12.387 18.3864C12.1359 18.6374 11.9949 18.978 11.9949 19.333C11.9949 19.6881 12.1359 20.0286 12.387 20.2797L15.0537 22.9464C15.1805 23.0678 15.33 23.1629 15.4937 23.2264C15.6533 23.2969 15.8258 23.3333 16.0003 23.3333C16.1748 23.3333 16.3474 23.2969 16.507 23.2264C16.6707 23.1629 16.8202 23.0678 16.947 22.9464L19.6137 20.2797C19.8647 20.0286 20.0058 19.6881 20.0058 19.333C20.0058 18.978 19.8647 18.6374 19.6137 18.3864C19.3626 18.1353 19.0221 17.9942 18.667 17.9942C18.3119 17.9942 17.9714 18.1353 17.7203 18.3864V18.3864ZM25.3337 7.33304H16.9603L16.5337 5.9997C16.2571 5.21734 15.744 4.54038 15.0655 4.06259C14.3871 3.5848 13.5768 3.32984 12.747 3.33304H6.66699C5.60613 3.33304 4.58871 3.75447 3.83857 4.50461C3.08842 5.25476 2.66699 6.27217 2.66699 7.33304V24.6664C2.66699 25.7272 3.08842 26.7447 3.83857 27.4948C4.58871 28.2449 5.60613 28.6664 6.66699 28.6664H25.3337C26.3945 28.6664 27.4119 28.2449 28.1621 27.4948C28.9122 26.7447 29.3337 25.7272 29.3337 24.6664V11.333C29.3337 10.2722 28.9122 9.25476 28.1621 8.50461C27.4119 7.75447 26.3945 7.33304 25.3337 7.33304ZM26.667 24.6664C26.667 25.02 26.5265 25.3591 26.2765 25.6092C26.0264 25.8592 25.6873 25.9997 25.3337 25.9997H6.66699C6.31337 25.9997 5.97423 25.8592 5.72418 25.6092C5.47413 25.3591 5.33366 25.02 5.33366 24.6664V7.33304C5.33366 6.97942 5.47413 6.64028 5.72418 6.39023C5.97423 6.14018 6.31337 5.9997 6.66699 5.9997H12.747C13.0265 5.99898 13.2992 6.08613 13.5265 6.24883C13.7538 6.41152 13.9242 6.64154 14.0137 6.90637L14.7337 9.09304C14.8231 9.35787 14.9935 9.58788 15.2208 9.75058C15.4481 9.91328 15.7208 10.0004 16.0003 9.9997H25.3337C25.6873 9.9997 26.0264 10.1402 26.2765 10.3902C26.5265 10.6403 26.667 10.9794 26.667 11.333V24.6664Z" fill="#A43FD4"/>
</svg>
