<svg width="190" height="135" viewBox="0 0 190 135" fill="none" xmlns="http://www.w3.org/2000/svg">
<path opacity="0.41" d="M80.3132 97.983C79.1327 97.9771 77.9521 97.9307 76.7686 97.8348C63.8115 96.7716 48.8007 90.5754 42.3467 79.2927C36.7079 69.4276 34.4947 56.6576 37.0618 45.6596C39.4751 35.3181 46.9616 26.9432 57.4417 23.7623C69.2299 20.1864 82.2567 24.5321 93.8534 19.6461C110.735 12.5377 131.953 18.182 143.785 31.7102C154.274 43.7046 156.815 63.0426 153.52 78.0262C151.855 85.5993 147.478 92.8935 140.51 96.7048C134.967 99.7375 128.264 100.336 121.923 99.5458C116.826 98.9096 112.133 97.2451 107.228 95.874C103.298 94.7759 100.072 95.3482 96.0492 96.1441C90.8745 97.1725 85.6098 98.0062 80.3132 97.983Z" fill="#EEEEEE"/>
<path d="M83.2054 90.7471C82.2511 90.7442 81.2939 90.7035 80.3396 90.6251C69.8538 89.7652 57.7088 84.7514 52.4876 75.6212C47.9249 67.6414 46.1323 57.3086 48.2092 48.405C50.1642 40.0389 56.2179 33.2617 64.6993 30.6879C74.2366 27.7946 84.7776 31.3096 94.1641 27.3589C107.823 21.6072 124.992 26.1737 134.567 37.1194C143.054 46.8248 145.108 62.4735 142.445 74.5987C141.099 80.7251 137.558 86.6279 131.919 89.713C127.432 92.1676 122.01 92.6527 116.879 92.0107C112.754 91.4966 108.957 90.1487 104.989 89.039C101.807 88.1501 99.1996 88.612 95.9421 89.2569C91.7507 90.0906 87.4926 90.7645 83.2054 90.7471Z" stroke="white" stroke-width="1.55395" stroke-miterlimit="10" stroke-dasharray="3.08 3.08"/>
<path d="M103.44 52.8576C103.44 52.8576 105.207 47.3121 102.625 45.7028C100.986 44.8575 100.09 45.9091 100.09 45.9091C100.09 45.9091 99.3185 41.9874 94.0074 43.283C90.5673 44.1225 89.4795 42.3447 89.4795 42.3447C89.4795 42.3447 89.4476 47.2599 91.8174 48.721C93.5346 50.1938 92.8762 54.1794 92.8762 54.1794L103.44 52.8576Z" fill="#252525"/>
<path opacity="0.87" d="M119.092 125.32C119.092 125.32 128.658 125.608 131.327 128.077C134.135 130.671 137.079 134.726 124.995 134.648C112.908 134.57 102.196 131.238 92.058 132.295C81.9202 133.352 73.6041 135.174 71.1791 134.77C68.7571 134.366 86.0275 126.078 86.0275 126.078L118.094 127.258L119.092 125.32Z" fill="#515159"/>
<path d="M110.146 103.775L98.0885 102.561L86.0305 103.775C86.0305 103.775 85.3141 109.48 82.9849 112.524C98.0885 117.957 98.0885 117.957 98.0885 117.957C98.0885 117.957 98.0885 117.957 113.192 112.524C110.863 109.48 110.146 103.775 110.146 103.775Z" fill="#F6BA1E"/>
<path d="M97.6129 117.785C98.0886 117.957 98.0886 117.957 98.0886 117.957C98.0886 117.957 98.0886 117.957 98.5643 117.785C101.343 111.383 100.679 104.202 100.514 102.805L98.0886 102.561L94.9849 102.871C94.924 104.408 94.8196 111.423 97.6129 117.785Z" fill="#F6BA1E"/>
<path d="M85.9609 104.24C85.9609 104.24 98.6483 109.843 110.904 107.409C110.352 105.416 110.146 103.775 110.146 103.775L98.0885 102.561L88.4033 103.534L85.9609 104.24Z" fill="#895436"/>
<path d="M97.6507 62.6387L87.6812 66.2785L86.0308 103.775C86.0308 103.775 89.555 105.428 98.0887 105.428C98.0887 66.4528 98.0887 63.2197 98.0887 63.2197L97.6507 62.6387Z" fill="white"/>
<path d="M98.5269 62.6387L108.496 66.2785L110.147 103.775C110.147 103.775 106.623 105.428 98.0889 105.428C98.0889 66.4528 98.0889 63.2197 98.0889 63.2197L98.5269 62.6387Z" fill="white"/>
<path d="M87.6809 66.2753L87.6345 66.2928C84.7223 67.3356 82.396 69.5753 81.2444 72.4483L70.5439 98.3863L79.6433 99.4727L87.3474 80.5675L87.6809 66.2753Z" fill="#F8A998"/>
<path d="M108.497 66.2754L108.543 66.2928C111.455 67.3357 113.782 69.5754 114.933 72.4483L125.634 98.3864L116.534 99.4728L108.83 80.5676L108.497 66.2754Z" fill="#F8A998"/>
<path d="M119.087 82.5226L114.933 72.4513C113.782 69.5783 111.455 67.3357 108.543 66.2957L108.497 66.2783L108.833 80.5676L111.014 85.9243C113.927 83.4783 116.85 82.6853 119.087 82.5226Z" fill="#EEEEEE"/>
<path d="M77.0879 82.5226L81.2416 72.4513C82.3932 69.5783 84.7224 67.3357 87.6317 66.2957L87.6781 66.2783L87.3417 80.5676L85.1604 85.9243C82.251 83.4783 79.3272 82.6853 77.0879 82.5226Z" fill="#EEEEEE"/>
<path d="M98.1148 67.2627H98.0597C96.5862 67.2627 95.3911 66.0658 95.3911 64.5901V58.2109H100.78V64.5901C100.783 66.0658 99.5883 67.2627 98.1148 67.2627Z" fill="#F8A998"/>
<path d="M104.357 54.3768C104.357 55.3354 103.582 56.1111 102.625 56.1111C101.668 56.1111 100.894 55.3354 100.894 54.3768C100.894 53.4182 101.668 52.6426 102.625 52.6426C103.582 52.6455 104.357 53.4211 104.357 54.3768Z" fill="#F8A998"/>
<path d="M91.8174 54.3768C91.8174 55.3354 92.5919 56.1111 93.5491 56.1111C94.5063 56.1111 95.2808 55.3354 95.2808 54.3768C95.2808 53.4182 94.5063 52.6426 93.5491 52.6426C92.5919 52.6455 91.8174 53.4211 91.8174 54.3768Z" fill="#F8A998"/>
<path d="M101.134 48.3174H98.0882H95.0425L93.5342 51.6174L93.7865 54.8825C93.9229 56.6254 95.0454 59.632 96.6263 60.3728C97.0962 60.5936 97.5951 60.7388 98.0853 60.7388C98.5784 60.7388 99.0744 60.5936 99.5443 60.3728C101.125 59.6349 102.251 56.6254 102.384 54.8825L102.636 51.6174L101.134 48.3174Z" fill="#F8A998"/>
<path d="M99.6523 52.457C99.6523 52.457 100.673 52.7446 101.831 52.457" stroke="#252525" stroke-width="1.06722" stroke-miterlimit="10" stroke-linecap="round"/>
<path d="M96.5251 52.457C96.5251 52.457 95.504 52.7446 94.3467 52.457" stroke="#252525" stroke-width="1.06722" stroke-miterlimit="10" stroke-linecap="round"/>
<path d="M108.497 118.443L74.0461 107.977C69.4718 106.588 64.6596 109.284 63.4529 113.914L63.4065 114.089C62.1621 118.861 65.2513 123.681 70.1012 124.532C82.8379 126.763 105.927 130.554 118.078 131.019L123.2 134.438C123.975 134.955 125.002 134.868 125.677 134.231L125.704 134.205C126.51 133.45 126.551 132.18 125.796 131.373L124.999 130.519C124.999 130.519 124.288 127.045 120.77 125.557C117.254 124.067 116.923 120.43 116.097 118.443C115.267 116.459 109.982 115.466 108.497 118.443Z" fill="#8C4242"/>
<path d="M63.4495 113.913C64.6591 109.283 69.4683 106.584 74.0426 107.976L85.7264 111.526C83.9657 113.725 81.6452 118.187 81.5756 126.471C77.3088 125.777 73.3639 125.103 70.1007 124.531C65.2508 123.683 62.1587 118.861 63.406 114.088L63.4495 113.913Z" fill="#F6BA1E"/>
<path d="M110.146 123.241C110.146 123.241 109.65 126.132 104.861 125.1" stroke="#7B3C38" stroke-width="0.909721" stroke-miterlimit="10"/>
<path d="M114.782 130.829C114.782 130.829 121.108 136.891 126.5 134.396C127.397 133.981 127.678 132.833 127.092 132.037C122.55 125.858 116.821 119.128 114.637 116.598C114.091 115.964 113.224 115.709 112.424 115.941L106.21 117.748L114.782 130.829Z" fill="#252525"/>
<path d="M106.21 117.747L100.261 115.94L104.768 129.832L114.781 130.828L106.21 117.747Z" fill="#B6B6B6"/>
<path d="M87.6811 118.442L122.132 107.976C126.706 106.587 131.518 109.283 132.725 113.913L132.772 114.088C134.016 118.86 130.927 123.68 126.077 124.531C113.34 126.762 90.2511 130.553 78.1003 131.018L72.9777 134.437C72.2033 134.954 71.1764 134.867 70.5006 134.23L70.4745 134.204C69.6681 133.449 69.6275 132.18 70.3817 131.372L71.1793 130.518C71.1793 130.518 71.8929 127.044 75.4085 125.556C78.924 124.066 79.2547 120.429 80.0814 118.442C80.9081 116.458 86.196 115.465 87.6811 118.442Z" fill="#F8A998"/>
<path d="M132.725 113.913C131.516 109.283 126.706 106.584 122.132 107.976L110.448 111.526C112.209 113.725 114.529 118.187 114.599 126.471C118.866 125.777 122.811 125.103 126.074 124.531C130.927 123.683 134.016 118.861 132.769 114.088L132.725 113.913Z" fill="#F6BA1E"/>
<path opacity="0.57" d="M75.4085 125.556L70.2453 124.598C65.5724 123.851 62.4049 119.424 63.2026 114.753L63.2345 114.57C64.1047 109.475 69.2678 106.326 74.1873 107.886L83.9393 110.982" stroke="white" stroke-width="0.889673" stroke-miterlimit="10"/>
<path d="M96.3163 55.249C96.1306 55.249 96.0204 55.464 96.1364 55.6121C96.6527 56.2774 97.3373 56.6841 98.0915 56.6841C98.8427 56.6841 99.5302 56.2774 100.047 55.6121C100.16 55.4669 100.052 55.249 99.8667 55.249H96.3163Z" fill="white"/>
<path d="M98.599 52.3839V54.1791C98.599 54.1791 98.1871 53.9467 97.6128 54.1791" stroke="#252525" stroke-width="0.655894" stroke-miterlimit="10" stroke-linecap="round"/>
<path d="M100.093 45.9092H99.6523V48.7182H100.093V45.9092Z" fill="#F8A998"/>
<path d="M125.633 98.3867L125.651 98.4361C126.683 101.3 125.448 104.487 122.753 105.899L104.357 115.558L104.267 115.322C102.646 111.128 104.343 106.381 108.25 104.165L116.534 99.4702L125.633 98.3867Z" fill="#F8A998"/>
<path d="M70.596 98.3867L70.5786 98.4361C69.5459 101.3 70.7816 104.487 73.4763 105.899L91.8722 115.558L91.9621 115.322C93.5836 111.128 91.8867 106.381 87.9795 104.165L79.6953 99.4702L70.596 98.3867Z" fill="#F8A998"/>
<path d="M89.8306 114.487C89.8306 114.487 90.7588 109.386 87.7363 107.748" stroke="#4C2A29" stroke-width="1.06722" stroke-miterlimit="10" stroke-linecap="round"/>
<path d="M106.347 114.487C106.347 114.487 105.419 109.386 108.441 107.748" stroke="#4C2A29" stroke-width="1.06722" stroke-miterlimit="10" stroke-linecap="round"/>
<path d="M81.3956 130.829C81.3956 130.829 75.0693 136.891 69.677 134.396C68.7807 133.981 68.4993 132.833 69.0852 132.037C73.6276 125.858 79.3564 119.128 81.5406 116.598C82.0859 115.964 82.9532 115.709 83.7538 115.941L89.967 117.748L81.3956 130.829Z" fill="#252525"/>
<path d="M89.964 117.747L95.9161 115.94L91.4085 129.832L81.3955 130.828L89.964 117.747Z" fill="#EEEEEE"/>
<path opacity="0.28" d="M87.4897 121.527C89.2562 121.338 91.5477 121.062 94.3846 120.661L95.9161 115.94L89.9669 117.747L87.4897 121.527Z" fill="#4C2A29"/>
<path d="M83.2921 126.61L79.8404 131.88C79.6257 132.208 79.2428 132.382 78.8541 132.33L78.8309 132.327C78.0826 132.225 77.7026 131.371 78.1261 130.747L81.6562 125.527C81.8824 125.193 82.2914 125.033 82.683 125.126L82.7033 125.132C83.3588 125.283 83.6605 126.044 83.2921 126.61Z" fill="#FFF6E7"/>
<path d="M97.6132 96.1582H76.4878L81.6973 114.738H97.6132H113.532L118.741 96.1582H97.6132Z" fill="url(#paint0_linear_143_969)"/>
<path d="M113.532 114.738H81.6973V117.446H113.532V114.738Z" fill="url(#paint1_linear_143_969)"/>
<path d="M118.739 94.9238H76.4878V96.1555H118.739V94.9238Z" fill="#5A5A63"/>
<path d="M86.6487 115.514H83.4609V116.603H86.6487V115.514Z" fill="#5A5A63"/>
<path d="M91.2493 115.514H88.0615V116.603H91.2493V115.514Z" fill="#5A5A63"/>
<path d="M113.532 116.092H94.1558" stroke="#252525" stroke-width="0.798701" stroke-miterlimit="10"/>
<path opacity="0.57" d="M76.4878 96.1582H118.741" stroke="#252525" stroke-width="0.798701" stroke-miterlimit="10"/>
<path d="M60.2479 70.748L57.3588 71.4684C56.9382 71.573 56.5147 71.3173 56.4103 70.8961L56.1318 69.7748L60.5408 68.6768L60.8193 69.7981C60.9237 70.2164 60.6684 70.6434 60.2479 70.748Z" fill="#F6BA1E"/>
<path d="M70.989 67.2969L46.0232 73.5163C45.591 73.6238 45.1501 73.3594 45.0428 72.9266L40.9268 56.3424C40.8194 55.9096 41.0834 55.4681 41.5156 55.3606L66.4814 49.1411C66.9136 49.0337 67.3545 49.298 67.4618 49.7308L71.5778 66.3092C71.6852 66.7478 71.4212 67.1865 70.989 67.2969Z" fill="#F6BA1E"/>
<path d="M70.2463 64.4302L69.5531 66.4346L47.4009 71.9511L45.4343 70.6119L41.356 54.1846L66.168 48.0029L70.2463 64.4302Z" fill="#F6BA1E"/>
<path d="M53.4425 51.173L41.353 54.1836L45.4315 70.6095L57.521 67.5989L53.4425 51.173Z" fill="white"/>
<path d="M52.697 52.5781L42.7637 55.0518L42.9065 55.6268L52.8398 53.1531L52.697 52.5781Z" fill="#B6B6B6"/>
<path d="M53.1541 54.4159L43.2207 56.8906L43.3635 57.4657L53.2969 54.991L53.1541 54.4159Z" fill="#B6B6B6"/>
<path d="M53.6101 56.2529L43.6768 58.7266L43.8195 59.3016L53.7529 56.828L53.6101 56.2529Z" fill="#B6B6B6"/>
<path d="M54.0657 58.0918L44.1323 60.5654L44.2751 61.1405L54.2085 58.6668L54.0657 58.0918Z" fill="#B6B6B6"/>
<path d="M54.5232 59.9296L44.5898 62.4043L44.7327 62.9794L54.6661 60.5047L54.5232 59.9296Z" fill="#B6B6B6"/>
<path d="M54.9793 61.7695L45.0459 64.2432L45.1887 64.8182L55.122 62.3445L54.9793 61.7695Z" fill="#B6B6B6"/>
<path d="M55.4343 63.6054L45.501 66.0791L45.6438 66.6542L55.5771 64.1805L55.4343 63.6054Z" fill="#B6B6B6"/>
<path d="M55.8919 65.4423L45.9585 67.917L46.1013 68.4921L56.0347 66.0174L55.8919 65.4423Z" fill="#B6B6B6"/>
<path d="M66.1676 47.9999L54.0781 51.0117L58.1583 67.4376L70.2478 64.4258L66.1676 47.9999Z" fill="white"/>
<path d="M65.3298 49.4306L55.3965 51.9053L55.5393 52.4803L65.4727 50.0056L65.3298 49.4306Z" fill="#B6B6B6"/>
<path d="M65.7844 51.2724L55.8511 53.7461L55.9939 54.3212L65.9272 51.8475L65.7844 51.2724Z" fill="#B6B6B6"/>
<path d="M66.2425 53.1084L56.3091 55.582L56.4519 56.1571L66.3852 53.6834L66.2425 53.1084Z" fill="#B6B6B6"/>
<path d="M66.699 54.9442L56.7656 57.4189L56.9085 57.994L66.8418 55.5193L66.699 54.9442Z" fill="#B6B6B6"/>
<path d="M67.156 56.7861L57.2227 59.2598L57.3654 59.8348L67.2988 57.3612L67.156 56.7861Z" fill="#B6B6B6"/>
<path d="M67.6111 58.622L57.6777 61.0957L57.8205 61.6708L67.7539 59.1971L67.6111 58.622Z" fill="#B6B6B6"/>
<path d="M68.0681 60.4569L58.1348 62.9316L58.2776 63.5067L68.211 61.032L68.0681 60.4569Z" fill="#B6B6B6"/>
<path d="M68.5247 62.2988L58.5913 64.7725L58.7341 65.3475L68.6675 62.8739L68.5247 62.2988Z" fill="#B6B6B6"/>
<path d="M59.4911 69.7867L57.5796 70.2631C57.1619 70.3677 56.7355 70.112 56.6311 69.6908L56.457 68.9878L59.8885 68.1338L60.0625 68.8368C60.167 69.258 59.9117 69.6821 59.4911 69.7867Z" fill="#F6BA1E"/>
<path d="M123.959 54.1749V52.1385H123.06C122.889 51.1712 122.495 50.2852 121.932 49.5299L122.645 48.8153L121.207 47.3744L120.467 48.1152C119.71 47.5981 118.831 47.2495 117.882 47.113V46.0498H115.849V47.1537C114.941 47.3251 114.106 47.6969 113.384 48.2227L112.664 47.5023L111.226 48.9431L111.954 49.6722C111.42 50.4304 111.057 51.3135 110.912 52.2721H109.903V54.3085H110.935C111.101 55.241 111.478 56.1008 112.012 56.8358L111.217 57.6317L112.656 59.0725L113.459 58.2679C114.196 58.7879 115.051 59.1452 115.98 59.2991V60.3972H118.013V59.2991C118.935 59.1452 119.788 58.7908 120.525 58.2737L121.198 58.9476L122.637 57.5068L121.975 56.8445C122.538 56.0718 122.924 55.1654 123.078 54.1778H123.959V54.1749ZM116.998 56.6789C115.089 56.6789 113.54 55.1277 113.54 53.2162C113.54 51.3048 115.089 49.7536 116.998 49.7536C118.906 49.7536 120.455 51.3048 120.455 53.2162C120.455 55.1277 118.906 56.6789 116.998 56.6789Z" fill="#B6B6B6"/>
<path d="M132.064 61.8956V60.722H131.545C131.446 60.1643 131.22 59.653 130.895 59.2173L131.307 58.8048L130.477 57.974L130.051 58.401C129.613 58.1018 129.108 57.9013 128.56 57.8229V57.21H127.388V57.8461C126.863 57.9449 126.382 58.1599 125.967 58.462L125.552 58.0466L124.722 58.8774L125.143 59.2986C124.835 59.7372 124.627 60.2456 124.543 60.7975H123.959V61.9711H124.554C124.65 62.5085 124.867 63.0053 125.175 63.4294L124.717 63.8884L125.546 64.7192L126.01 64.2544C126.437 64.5536 126.93 64.7598 127.463 64.8499V65.4832H128.635V64.8499C129.169 64.7598 129.659 64.5565 130.086 64.2573L130.474 64.6465L131.304 63.8157L130.924 63.4352C131.249 62.9878 131.472 62.465 131.559 61.8956H132.064ZM128.049 63.3393C126.947 63.3393 126.054 62.4446 126.054 61.3408C126.054 60.2369 126.947 59.3422 128.049 59.3422C129.152 59.3422 130.045 60.2369 130.045 61.3408C130.045 62.4446 129.152 63.3393 128.049 63.3393Z" fill="#EEEEEE"/>
<path d="M150.541 46.6858V42.5057H148.696C148.348 40.5187 147.536 38.6973 146.379 37.1461L147.844 35.6791L144.891 32.7219L143.374 34.2412C141.819 33.178 140.012 32.4663 138.065 32.1845V30H133.891V32.2658C132.026 32.6173 130.309 33.3842 128.83 34.459L127.353 32.9804L124.401 35.9377L125.897 37.4366C124.804 38.9936 124.058 40.8092 123.757 42.7729H121.683V46.9531H123.8C124.142 48.8703 124.914 50.6307 126.01 52.1442L124.38 53.7768L127.333 56.734L128.984 55.0811C130.498 56.1472 132.255 56.8821 134.158 57.1987V59.4559H138.332V57.1987C140.226 56.8821 141.981 56.153 143.49 55.0927L144.87 56.4754L147.823 53.5182L146.466 52.1587C147.62 50.5726 148.412 48.7077 148.728 46.6829H150.541V46.6858ZM136.247 51.8276C132.325 51.8276 129.146 48.6438 129.146 44.7163C129.146 40.7889 132.325 37.6051 136.247 37.6051C140.168 37.6051 143.348 40.7889 143.348 44.7163C143.35 48.6409 140.168 51.8276 136.247 51.8276Z" fill="#B6B6B6"/>
<path d="M136.114 48.9054C138.416 48.9054 140.282 47.0364 140.282 44.731C140.282 42.4256 138.416 40.5566 136.114 40.5566C133.811 40.5566 131.945 42.4256 131.945 44.731C131.945 47.0364 133.811 48.9054 136.114 48.9054Z" fill="#B6B6B6"/>
<path d="M103.81 19.9805C103.343 17.3885 101.875 15.6893 100.234 14.6189C97.4519 12.8093 93.7601 12.8093 90.9828 14.6189C89.3415 15.6893 87.8734 17.3885 87.4065 19.9805C86.5497 24.7709 90.7759 27.3437 91.5701 28.3085C91.5701 28.3085 92.1043 28.7501 92.3643 29.2733C92.4268 29.4029 92.499 29.8157 92.576 30.3677H95.6133H98.6505C98.7323 29.8157 98.7997 29.4029 98.8623 29.2733C99.1174 28.7501 99.6565 28.3085 99.6565 28.3085C100.441 27.3437 104.667 24.7661 103.81 19.9805Z" fill="#F6BA1E" stroke="#252525" stroke-miterlimit="10"/>
<path d="M94.3328 30.8813C94.3328 30.8813 94.3328 26.3405 94.0007 25.6925C93.6686 25.0445 92.1331 22.7741 91.8732 22.2989C91.6133 21.8189 92.1476 21.2669 92.5567 21.9725C92.9081 22.5773 94.3954 24.6461 94.7275 25.4957C95.0597 26.3405 95.3436 31.1117 95.3436 31.1117L94.3328 30.8813Z" fill="white"/>
<path d="M96.8599 30.8813C96.8599 30.8813 96.8599 26.3405 97.192 25.6925C97.5242 25.0445 99.0596 22.7741 99.3195 22.2989C99.5795 21.8189 99.0452 21.2669 98.636 21.9725C98.2847 22.5773 96.7973 24.6461 96.4652 25.4957C96.1331 26.3405 95.8491 31.1117 95.8491 31.1117L96.8599 30.8813Z" fill="white"/>
<path d="M99.0593 22.1452C98.4432 22.4332 97.3938 22.4668 96.6189 22.2316C96.6141 22.2364 96.6045 22.2412 96.5996 22.246C95.9595 22.7164 95.069 22.5388 94.4144 22.0588C93.6009 22.3756 92.4794 22.414 92.311 22.4188L92.3062 21.9868C92.7971 21.9772 93.4999 21.8956 94.0486 21.7324C93.5961 21.2428 93.4999 20.7148 93.8031 20.3548C94.1834 19.8988 94.6647 19.9276 94.9679 20.158C95.3337 20.4364 95.507 21.0268 95.1653 21.5356C95.0883 21.6508 94.9824 21.7468 94.8572 21.8332C95.2664 22.0732 95.7525 22.1788 96.1424 22.03C96.0076 21.9532 95.8921 21.8572 95.8103 21.7516C95.6803 21.5836 95.507 21.238 95.8391 20.7772C96.0654 20.4652 96.359 20.3212 96.6478 20.3836C96.927 20.4412 97.1436 20.686 97.2013 21.0028C97.2591 21.3004 97.1724 21.6076 96.9655 21.8812C97.596 22.0204 98.4046 21.9964 98.9052 21.766L99.0593 22.1452ZM96.3301 20.8636C96.2772 20.902 96.229 20.9548 96.1809 21.022C96.0124 21.2572 96.075 21.3868 96.1424 21.478C96.229 21.5836 96.3686 21.6748 96.5419 21.7516C96.744 21.5452 96.8355 21.31 96.7922 21.094C96.7633 20.9452 96.667 20.8252 96.5515 20.8012C96.4841 20.7868 96.4071 20.8108 96.3301 20.8636ZM94.4914 21.5644C94.6358 21.4876 94.7465 21.4012 94.8139 21.3052C95.0112 21.0076 94.915 20.6716 94.708 20.5132C94.5251 20.3788 94.3181 20.422 94.1352 20.638C93.9523 20.854 94.1545 21.214 94.3807 21.4588C94.4144 21.4924 94.4529 21.526 94.4914 21.5644Z" fill="white"/>
<path d="M95.594 29.8829C93.943 29.8829 92.5327 29.4509 92.2969 29.3213C92.3161 29.3549 92.3354 29.3837 92.3498 29.4173C92.5712 29.8685 92.8456 33.6365 93.4424 35.0909C93.5483 35.3501 93.6639 35.5325 93.789 35.6141C94.1308 35.8349 94.8383 36.0701 95.594 36.0317C96.3497 36.0653 97.0573 35.8349 97.399 35.6141C97.5242 35.5325 97.6397 35.3501 97.7456 35.0909C98.3376 33.6365 98.6168 29.8733 98.8382 29.4173C98.8526 29.3837 98.8767 29.3501 98.8911 29.3213C98.6553 29.4509 97.245 29.8829 95.594 29.8829Z" fill="white" stroke="#252525" stroke-miterlimit="10"/>
<path d="M95.5938 31.582C96.5468 31.5676 97.5865 31.4524 98.5299 31.1548C98.5925 30.7084 98.6502 30.3052 98.6984 29.998C96.7009 30.7564 94.4819 30.7564 92.4844 29.998C92.5373 30.3052 92.5903 30.7084 92.6528 31.1548C93.6011 31.4524 94.6407 31.5676 95.5938 31.582Z" fill="#252525"/>
<path d="M95.5941 33.5018C96.4461 33.4874 97.3654 33.3914 98.227 33.161C98.2944 32.7866 98.3522 32.3978 98.4099 32.0186C96.5857 32.6378 94.6026 32.6378 92.7783 32.0186C92.8361 32.3978 92.8938 32.7866 92.9612 33.161C93.8228 33.3962 94.7422 33.4922 95.5941 33.5018Z" fill="#252525"/>
<path d="M93.144 34.0635C93.2355 34.4619 93.3366 34.8171 93.4473 35.0859C93.4665 35.1291 93.4858 35.1675 93.5002 35.2107C94.1982 35.3499 94.9202 35.4123 95.5988 35.4267C96.2775 35.4171 96.9947 35.3499 97.6926 35.2107C97.7119 35.1723 97.7312 35.1339 97.7456 35.0859C97.8563 34.8123 97.9574 34.4619 98.0488 34.0635C96.4508 34.5291 94.7421 34.5291 93.144 34.0635Z" fill="#252525"/>
<path d="M95.7625 10.8416H95.7432C95.2619 10.8416 94.8672 10.4528 94.8672 9.968V5.8736C94.8672 5.3936 95.2571 5 95.7432 5H95.7625C96.2438 5 96.6385 5.3888 96.6385 5.8736V9.968C96.6337 10.4528 96.2438 10.8416 95.7625 10.8416Z" fill="white" stroke="#252525" stroke-miterlimit="10"/>
<path d="M102.058 11.9748L102.044 11.9652C101.615 11.7396 101.457 11.2068 101.688 10.7844L103.627 7.17484C103.854 6.75244 104.388 6.58925 104.811 6.81965L104.826 6.82924C105.249 7.05484 105.413 7.58764 105.182 8.01004L103.242 11.6196C103.016 12.042 102.482 12.2052 102.058 11.9748Z" fill="white" stroke="#252525" stroke-miterlimit="10"/>
<path d="M89.4472 11.9748L89.4617 11.9652C89.89 11.7396 90.0489 11.2068 89.8178 10.7844L87.8781 7.17484C87.6518 6.75244 87.1176 6.58925 86.694 6.81965L86.6795 6.82924C86.256 7.05484 86.0923 7.58764 86.3234 8.01004L88.2631 11.6196C88.4894 12.042 89.0188 12.2052 89.4472 11.9748Z" fill="white" stroke="#252525" stroke-miterlimit="10"/>
<path d="M84.7832 16.7794L84.7783 16.7986C84.6773 17.269 84.2152 17.5714 83.7435 17.4754L79.7243 16.6354C79.2526 16.5346 78.9494 16.0738 79.0457 15.6034L79.0505 15.5842C79.1515 15.1138 79.6136 14.8114 80.0853 14.9074L84.1045 15.7474C84.581 15.8434 84.8794 16.309 84.7832 16.7794Z" fill="white" stroke="#252525" stroke-miterlimit="10"/>
<path d="M84.5617 23.3222L84.5569 23.303C84.4221 22.8422 83.9359 22.5734 83.469 22.7126L79.5317 23.8645C79.0697 23.9989 78.8001 24.4837 78.9397 24.9493L78.9445 24.9685C79.0793 25.4293 79.5654 25.6981 80.0323 25.5589L83.9696 24.4069C84.4317 24.2725 84.6964 23.783 84.5617 23.3222Z" fill="white" stroke="#252525" stroke-miterlimit="10"/>
<path d="M106.722 16.7794L106.727 16.7986C106.828 17.269 107.29 17.5714 107.762 17.4754L111.781 16.6354C112.253 16.5346 112.556 16.0738 112.46 15.6034L112.455 15.5842C112.354 15.1138 111.892 14.8114 111.42 14.9074L107.401 15.7474C106.924 15.8434 106.621 16.309 106.722 16.7794Z" fill="white" stroke="#252525" stroke-miterlimit="10"/>
<path d="M106.939 23.3222L106.944 23.303C107.079 22.8422 107.565 22.5734 108.032 22.7126L111.969 23.8645C112.431 23.9989 112.701 24.4837 112.561 24.9493L112.556 24.9685C112.421 25.4293 111.935 25.6981 111.468 25.5589L107.531 24.4069C107.069 24.2725 106.804 23.783 106.939 23.3222Z" fill="white" stroke="#252525" stroke-miterlimit="10"/>
<path d="M101.853 109.275L99.0936 99H97.0363L94.2186 109.225L91.5161 99H89L92.9888 114H95.287L98.0168 103.965L100.744 114H103.011L107 99H104.612L101.853 109.275Z" fill="white"/>
<defs>
<linearGradient id="paint0_linear_143_969" x1="118.741" y1="105.448" x2="76.4878" y2="105.448" gradientUnits="userSpaceOnUse">
<stop stop-color="#CB11AB"/>
<stop offset="1" stop-color="#481173"/>
</linearGradient>
<linearGradient id="paint1_linear_143_969" x1="113.532" y1="116.092" x2="81.6973" y2="116.092" gradientUnits="userSpaceOnUse">
<stop stop-color="#CB11AB"/>
<stop offset="1" stop-color="#481173"/>
</linearGradient>
</defs>
</svg>
