<svg width="64" height="64" viewBox="0 0 64 64" fill="none" xmlns="http://www.w3.org/2000/svg">
<path d="M35.9171 39.2829L29.6504 43.1995V35.3662L35.9171 39.2829Z" fill="white"/>
<path d="M53.15 15H10.85C10.2273 15.0019 9.63066 15.25 9.19035 15.6904C8.75005 16.1307 8.50186 16.7273 8.5 17.35V59.65C8.50186 60.2727 8.75005 60.8693 9.19035 61.3096C9.63066 61.75 10.2273 61.9981 10.85 62H53.15C53.7727 61.9981 54.3693 61.75 54.8096 61.3096C55.25 60.8693 55.4981 60.2727 55.5 59.65V17.35C55.4981 16.7273 55.25 16.1307 54.8096 15.6904C54.3693 15.25 53.7727 15.0019 53.15 15V15ZM53.9333 59.65C53.9333 59.8578 53.8508 60.057 53.7039 60.2039C53.557 60.3508 53.3578 60.4333 53.15 60.4333H10.85C10.6422 60.4333 10.443 60.3508 10.2961 60.2039C10.1492 60.057 10.0667 59.8578 10.0667 59.65V58.0833H53.9333V59.65ZM53.9333 56.5167H10.0667V25.1833H53.9333V56.5167ZM53.9333 23.6167H10.0667V17.35C10.0667 17.1422 10.1492 16.943 10.2961 16.7961C10.443 16.6492 10.6422 16.5667 10.85 16.5667H53.15C53.3578 16.5667 53.557 16.6492 53.7039 16.7961C53.8508 16.943 53.9333 17.1422 53.9333 17.35V23.6167Z" fill="black"/>
<path d="M19.4671 49.4668H17.9004V52.6001H19.4671V49.4668Z" fill="black"/>
<path d="M21.8167 49.4668H20.25V52.6001H21.8167V49.4668Z" fill="black"/>
<path d="M45.3161 50.2501V51.8168H37.4828V52.6001H35.9161V51.8168H23.3828V50.2501H35.9161V49.4668H37.4828V50.2501H45.3161Z" fill="black"/>
<path d="M31.9994 31.4502C30.4501 31.4502 28.9356 31.9096 27.6474 32.7704C26.3592 33.6311 25.3552 34.8545 24.7623 36.2858C24.1694 37.7172 24.0143 39.2922 24.3165 40.8117C24.6188 42.3313 25.3648 43.727 26.4604 44.8225C27.5559 45.918 28.9516 46.6641 30.4711 46.9663C31.9907 47.2686 33.5657 47.1135 34.997 46.5206C36.4284 45.9277 37.6518 44.9237 38.5125 43.6355C39.3733 42.3473 39.8327 40.8328 39.8327 39.2835C39.8294 37.207 39.003 35.2165 37.5347 33.7482C36.0664 32.2799 34.0759 31.4535 31.9994 31.4502V31.4502ZM31.9994 45.5502C30.7599 45.5502 29.5483 45.1827 28.5178 44.4941C27.4872 43.8055 26.684 42.8268 26.2097 41.6817C25.7354 40.5366 25.6113 39.2766 25.8531 38.061C26.0949 36.8453 26.6917 35.7287 27.5682 34.8523C28.4446 33.9759 29.5612 33.3791 30.7768 33.1373C31.9924 32.8955 33.2524 33.0196 34.3975 33.4939C35.5426 33.9682 36.5213 34.7714 37.2099 35.802C37.8985 36.8325 38.266 38.0441 38.266 39.2835C38.2637 40.9449 37.6028 42.5375 36.428 43.7122C35.2533 44.8869 33.6607 45.5479 31.9994 45.5502V45.5502Z" fill="black"/>
<path d="M36.3324 38.6168L30.0657 34.7001C29.9466 34.628 29.8106 34.5887 29.6715 34.5861C29.5323 34.5835 29.3949 34.6177 29.2733 34.6853C29.1516 34.7529 29.05 34.8514 28.9786 34.971C28.9073 35.0905 28.8689 35.2268 28.8672 35.3659V43.1993C28.8674 43.339 28.9053 43.4761 28.977 43.5961C29.0487 43.7161 29.1515 43.8144 29.2745 43.8808C29.388 43.9489 29.5182 43.9841 29.6505 43.9826C29.7971 43.9825 29.9408 43.9418 30.0657 43.8651L36.3324 39.9484C36.4457 39.8782 36.5393 39.7801 36.6041 39.6636C36.669 39.5471 36.703 39.416 36.703 39.2826C36.703 39.1492 36.669 39.0181 36.6041 38.9016C36.5393 38.785 36.4457 38.687 36.3324 38.6168ZM30.4339 41.7893V36.7759L34.4367 39.2826L30.4339 41.7893Z" fill="#A43FD4"/>
</svg>
