<svg width="190" height="135" viewBox="0 0 190 135" fill="none" xmlns="http://www.w3.org/2000/svg">
<path d="M94.1271 71.7217H90.7402V96.5331H94.1271V71.7217Z" fill="#D18C11"/>
<path d="M94.1159 71.7217H92.4341V96.5331H94.1159V71.7217Z" fill="#F6BA1E"/>
<path d="M92.4341 0L106.852 29.4823L139.093 34.2097L115.764 57.1586L121.27 89.5631L92.4341 74.2639L63.5971 89.5631L69.1048 57.1586L45.7754 34.2097L78.0151 29.4823L92.4341 0Z" fill="#F6BA1E"/>
<path d="M92.4341 0V44.7816L106.852 29.4823L92.4341 0Z" fill="#D18C11"/>
<path d="M139.093 34.21L92.4341 44.7818L115.763 57.1588L139.093 34.21Z" fill="#D18C11"/>
<path d="M92.4342 44.7807L78.0152 29.4814L45.7754 34.2088L92.4342 44.7807Z" fill="#D18C11"/>
<path d="M63.5972 89.5639L92.4342 44.7822L69.1049 57.1593L63.5972 89.5639Z" fill="#D18C11"/>
<path d="M121.27 89.5639L92.4341 44.7822V74.2646L121.27 89.5639Z" fill="#D18C11"/>
<path d="M117.928 106.801H66.9404V129.184H117.928V106.801Z" fill="url(#paint0_linear_143_1080)"/>
<path d="M117.928 126.739H66.9404V129.184H117.928V126.739Z" fill="#A017FF"/>
<path d="M117.928 106.173H66.9404V108.617H117.928V106.173Z" fill="#A017FF"/>
<path d="M105.306 99.4837H98.9778C96.9621 96.6742 94.1957 94.5996 92.4339 94.5996C90.2991 94.5996 87.6806 96.5859 85.783 99.4837H79.5618C78.5042 99.4837 77.6475 100.348 77.6475 101.416V106.013H107.22V101.416C107.22 100.349 106.364 99.4837 105.306 99.4837Z" fill="#F6BA1E"/>
<path d="M118.849 107.636H66.0194C64.6818 107.636 63.5972 106.541 63.5972 105.191C63.5972 103.842 64.6818 102.747 66.0194 102.747H118.849C120.187 102.747 121.271 103.842 121.271 105.191C121.27 106.541 120.186 107.636 118.849 107.636Z" fill="url(#paint1_linear_143_1080)"/>
<path d="M118.849 133.299H66.0194C64.6818 133.299 63.5972 132.204 63.5972 130.855C63.5972 129.505 64.6818 128.41 66.0194 128.41H118.849C120.187 128.41 121.271 129.505 121.271 130.855C121.27 132.205 120.186 133.299 118.849 133.299Z" fill="url(#paint2_linear_143_1080)"/>
<path d="M158 134.149C158 134.62 157.773 135 157.494 135L31.5042 134.88C31.2251 134.88 30.9991 134.498 31 134.029C31 133.559 31.227 133.178 31.506 133.179L157.496 133.298C157.775 133.298 158.001 133.679 158 134.149Z" fill="#EEEEEE"/>
<path d="M104.634 76.7949C105.184 75.4582 105.744 74.1196 107.171 73.4428C108.327 72.8946 109.534 73.1011 110.561 73.8802C113.47 76.0881 110.935 78.5203 114.247 82.706C115.275 84.0071 116.521 85.0566 117.138 86.5811C118.001 88.7148 116.973 89.7389 115.326 90.7612C107.444 95.65 103.312 85.6123 103.46 83.3153C103.571 81.6068 104.279 77.6548 104.634 76.7949Z" fill="#252525"/>
<path d="M118.863 102.814C118.531 102.761 117.724 102.178 117.439 102.125C117.219 102.084 116.741 102.011 116.538 101.98C116.289 101.041 115.023 95.9201 114.881 94.4191C114.728 92.7923 113.614 85.46 113.614 85.46L110.637 86.2982C110.637 86.2982 111.863 91.7109 112.201 94.3356C112.492 96.5894 114.943 101.659 115.255 102.193C115.255 102.206 115.253 102.218 115.256 102.232C115.349 102.624 115.683 102.762 115.683 102.762L116.272 102.835C116.272 102.835 118.484 103.133 118.626 103.187C118.768 103.238 119.195 102.867 118.863 102.814Z" fill="#F7A491"/>
<path d="M88.2739 113.526C87.6358 115.225 87.3046 116.862 87.2749 117.06C87.2609 117.155 87.3939 117.616 87.3809 117.716C86.1 119.48 84.2582 119.866 82.6797 119.978C83.4843 119.186 84.6657 118.435 84.7224 118.183C84.8126 117.783 85.2991 116.005 85.5373 113.54C86.5195 113.997 87.1856 113.633 88.2739 113.526Z" fill="#F7A491"/>
<path d="M106.429 94.5186L109.249 102.531C109.249 102.531 104.718 103.392 103.025 103.706C101.331 104.019 91.8678 104.436 91.6278 104.606C91.4502 104.732 89.4949 111.112 88.6214 114.631C87.6308 114.85 85.935 114.587 85.0327 114.273C85.5201 109.239 87.281 101.263 87.8447 100.395C88.7619 98.9812 106.429 94.5186 106.429 94.5186Z" fill="#FFEBC7"/>
<path d="M95.3087 116.215C94.9971 118.004 94.9757 119.674 94.9832 119.875C94.9869 119.971 95.2036 120.4 95.2092 120.499C94.2781 122.474 92.5405 123.202 91.0112 123.61C91.654 122.68 92.6754 121.719 92.6847 121.461C92.6995 121.052 92.8465 119.212 92.6233 116.745C93.6725 117.008 94.2595 116.526 95.3087 116.215Z" fill="#F7A491"/>
<path d="M109.613 94.1113L110.707 95.9963C112.372 98.8659 111.096 102.558 108.024 103.76C108.007 103.767 107.991 103.774 107.974 103.779C106.369 104.407 97.1507 106.607 96.947 106.819C96.7953 106.976 96.0605 113.613 95.8558 117.235C94.9238 117.638 93.2085 117.699 92.2643 117.561C91.8085 112.524 92.0569 104.357 92.4494 103.398C93.0885 101.835 109.613 94.1113 109.613 94.1113Z" fill="#FFF9F0"/>
<path d="M94.8421 119.929C95.0877 119.656 95.989 121.161 96.2141 121.483C96.4671 121.844 96.3955 122.117 96.3648 122.173C96.2848 122.322 91.5334 125.143 90.3744 125.344C90.2646 125.363 90.0758 125.293 90.0274 125.25C89.5744 124.846 91.659 121.859 92.5948 121.466C93.2003 121.213 93.738 121.161 94.8421 119.929Z" fill="white"/>
<path d="M103.457 80.2199C103.457 80.2199 99.5519 74.2731 98.7157 72.9467C97.8794 71.6203 96.1688 66.0593 96.0907 65.8519C96.0125 65.6444 97.5911 63.1502 97.2385 63.0648C96.886 62.9794 96.4962 64.3799 96.1204 64.2119C95.7446 64.0448 94.647 60.6739 94.4331 60.841C94.0321 61.1536 95.0247 62.9315 94.8107 63.0441C94.5968 63.1559 93.9503 61.0879 93.5308 61.1489C93.1113 61.2099 94.3289 63.0451 94.2117 63.2065C94.0945 63.3689 92.8303 61.6398 92.6024 62.0087C92.4787 62.2087 93.7643 63.5182 93.5178 63.6402C93.2703 63.7632 92.1271 62.9174 92.0052 63.1615C91.8843 63.4056 93.0629 63.7388 93.4154 64.3959C93.768 65.053 94.3689 65.3365 94.6182 66.5531C94.8675 67.7697 95.2405 72.1713 96.5176 74.3679C97.7948 76.5636 100.604 81.4252 100.604 81.4252L103.457 80.2199Z" fill="#F7A491"/>
<path d="M102.294 89.7545C102.193 88.5313 102.024 85.2308 102.079 84.8252C101.712 83.5551 100.375 81.6711 100.094 81.1389C100.094 81.1389 101.909 79.0643 103.254 79.0821C103.254 79.0821 104.685 80.9061 105.748 81.4656C105.763 81.4618 106.123 81.628 106.281 81.6261C107.307 81.6186 110.892 81.5087 111.56 81.7106L111.182 87.2997C110.989 87.6198 110.781 94.6827 110.452 95.1493C108.326 96.103 103.455 96.5489 102.441 95.5604C102.409 95.5285 102.496 92.227 102.294 89.7545Z" fill="#444444"/>
<path d="M111.598 81.6985C113.071 81.4281 114.286 88.0799 114.286 88.0799C114.286 88.0799 111.012 89.0017 110.174 88.5182C110.174 88.5182 109.223 84.2602 108.881 84.4095L111.598 81.6985Z" fill="#444444"/>
<path d="M108.621 79.5666C108.621 79.5666 108.25 81.506 108.325 82.2701C108.399 83.0352 108.041 85.5003 106.437 85.5078C104.833 85.5162 106.132 82.3734 106.284 81.6243C106.434 80.8752 106.471 78.5547 106.471 78.5547L108.621 79.5666Z" fill="#F7A491"/>
<path d="M106.436 79.7207C106.461 79.0861 106.47 78.5566 106.47 78.5566L108.621 79.5676C108.621 79.5676 108.545 79.9638 108.469 80.4697C107.526 80.6603 106.844 80.3083 106.436 79.7207Z" fill="#F47458"/>
<path d="M109.407 74.2162C109.407 74.2162 110.236 74.6799 110.539 75.6862C110.842 76.6916 110.497 79.2881 108.356 79.9142C106.214 80.5404 105.287 78.4855 105.728 76.8784C106.169 75.2713 107.128 73.2362 109.407 74.2162Z" fill="#F7A491"/>
<path d="M105.46 76.2551C105.502 76.6869 105.738 77.0164 105.988 76.992C106.237 76.9676 106.404 76.5978 106.363 76.1659C106.321 75.7341 106.084 75.4046 105.835 75.429C105.586 75.4544 105.417 75.8242 105.46 76.2551Z" fill="#F7A491"/>
<path d="M87.1222 117.112C87.4143 116.89 88.0198 118.539 88.1808 118.898C88.3621 119.301 88.2412 119.555 88.2012 119.605C88.0952 119.736 82.9037 121.609 81.728 121.586C81.6173 121.584 81.4433 121.48 81.4043 121.429C81.035 120.945 83.6367 118.405 84.6293 118.197C85.2711 118.062 85.8097 118.113 87.1222 117.112Z" fill="white"/>
<path d="M109.156 74.085C109.156 74.085 109.544 76.9799 110.472 77.5028C111.399 78.0257 111.011 79.3098 111.011 79.3098C111.011 79.3098 111.852 76.3275 111.119 75.3691C110.385 74.4107 109.156 74.085 109.156 74.085Z" fill="black"/>
<path d="M109.922 77.9182C109.671 78.2956 109.672 78.7405 109.924 78.9123C110.177 79.0841 110.585 78.917 110.837 78.5396C111.088 78.1623 111.088 77.7173 110.835 77.5455C110.583 77.3747 110.173 77.5418 109.922 77.9182Z" fill="#F7A491"/>
<path d="M106.803 78.0791L108.312 78.4621C108.312 78.4621 108.131 79.0403 107.462 78.892C106.646 78.7109 106.803 78.0791 106.803 78.0791Z" fill="#FFF9F0"/>
<path d="M150.809 65.6358L133.088 69.5296C132.464 69.6667 131.85 69.2677 131.714 68.6388L129.186 56.9264C129.051 56.2975 129.446 55.677 130.069 55.5399L147.79 51.6461C148.414 51.509 149.028 51.908 149.164 52.5369L151.692 64.2493C151.827 64.8783 151.432 65.4988 150.809 65.6358Z" fill="#F6BA1E"/>
<path d="M131.048 62.5801L126.467 70.0504L133.495 66.9977L131.048 62.5801Z" fill="#F6BA1E"/>
<path d="M136.221 60.4959L138.003 60.0557C138.003 60.0557 139.878 57.8422 139.813 57.2264C139.748 56.6096 139.094 55.4231 139.408 55.1837C139.723 54.9443 140.435 54.6496 141.081 55.3386C141.55 55.8389 141.738 58.0111 141.979 58.1041C142.131 58.1623 143.163 57.9388 143.913 57.7633C144.407 57.6478 144.924 57.8187 145.254 58.2073L145.255 58.2083C145.478 58.4702 145.489 58.855 145.281 59.1301L144.957 59.5581L145.365 59.9073C145.67 60.1674 145.708 60.6273 145.452 60.9352L145.191 61.2497L145.463 61.4487C145.813 61.705 145.864 62.21 145.574 62.5329L145.337 62.7948L145.397 62.8634C145.644 63.1487 145.635 63.5777 145.375 63.8518L145.136 64.1044L140.388 65.2749C139.943 65.3848 139.481 65.4017 139.029 65.3247L137.291 65.458C137.104 65.4721 136.935 65.3463 136.894 65.1623L135.942 60.954C135.896 60.7484 136.02 60.5457 136.221 60.4959Z" fill="white"/>
<defs>
<linearGradient id="paint0_linear_143_1080" x1="117.928" y1="117.992" x2="66.9404" y2="117.992" gradientUnits="userSpaceOnUse">
<stop stop-color="#CB11AB"/>
<stop offset="1" stop-color="#481173"/>
</linearGradient>
<linearGradient id="paint1_linear_143_1080" x1="121.271" y1="105.192" x2="63.5972" y2="105.192" gradientUnits="userSpaceOnUse">
<stop stop-color="#CB11AB"/>
<stop offset="1" stop-color="#481173"/>
</linearGradient>
<linearGradient id="paint2_linear_143_1080" x1="121.271" y1="130.855" x2="63.5972" y2="130.855" gradientUnits="userSpaceOnUse">
<stop stop-color="#CB11AB"/>
<stop offset="1" stop-color="#481173"/>
</linearGradient>
</defs>
</svg>
