<svg width="64" height="64" viewBox="0 0 64 64" fill="none" xmlns="http://www.w3.org/2000/svg">
<path d="M57 27.25L55 26.1V28.41L56 28.98L54 30.1361V5H10V30.1361L9 29.56L8 28.98L9 28.41V26.1L7 27.25L5 28.4V59H59V28.4L57 27.25ZM32 45.1143L38.6856 41.2622L55.4745 57H8.5259L25.3147 41.2624L32 45.1143ZM12 7H52V31.2822L32 42.8057L12 31.2822V7ZM23.5034 40.2188L7 55.6889V30.71L23.5034 40.2188ZM57 55.6894L40.4963 40.2189L57 30.71V55.6894Z" fill="black"/>
<path d="M32.3824 35.8123L30.5318 29.2195L31.0334 29.0793L42.6588 30.0877C42.735 30.0945 42.8111 30.0975 42.8873 30.0975C43.6646 30.0975 44.4088 29.7518 44.9098 29.1463C45.4606 28.4822 45.65 27.5897 45.4166 26.7586L44.1088 22.1087C45.3301 21.5643 46.15 20.3386 46.15 18.9695C46.15 18.6619 46.107 18.3504 46.0201 18.034C45.5475 16.38 43.9321 15.3632 42.2704 15.5725L40.9615 10.9188C40.7271 10.0887 40.1002 9.42563 39.2847 9.14543C38.4663 8.86323 37.565 9.00283 36.8726 9.51553L27.4681 16.4454L23.8584 17.4569C22.5713 17.8192 21.502 18.661 20.8486 19.827C20.5135 20.4241 20.3125 21.0703 20.2405 21.7313C18.8288 22.1827 17.8496 23.5036 17.8496 24.9999C17.8496 25.3085 17.8916 25.62 17.9775 25.9335C18.4082 27.4462 19.7949 28.4394 21.2978 28.4384C21.5648 28.4384 21.8354 28.4009 22.1049 28.3357C22.5098 28.861 23.0162 29.3063 23.6103 29.6406C24.1607 29.9505 24.7534 30.1458 25.3605 30.2311L27.3271 37.2334L32.3824 35.8123ZM29.9166 34.4275L28.712 34.7664L27.4 30.0944C27.4029 30.0936 27.4059 30.0934 27.4087 30.0926L28.6053 29.7581L29.9166 34.4275ZM44.0943 18.574C44.1324 18.7097 44.15 18.8386 44.15 18.9695C44.15 19.4387 43.9172 19.8642 43.5524 20.1304L42.8241 17.5409C43.4057 17.5909 43.9272 17.9862 44.0943 18.574ZM38.0582 11.1248C38.2984 10.951 38.5426 11.0047 38.6353 11.0369C38.7291 11.0691 38.9556 11.1746 39.0357 11.4607L43.4908 27.2996C43.5719 27.5857 43.4332 27.7947 43.3697 27.8709C43.3072 27.9461 43.1109 28.1268 42.8326 28.0955L31.7017 27.1297L29.0645 17.7527L38.0582 11.1248ZM19.9044 25.3963C19.8683 25.2645 19.8497 25.1307 19.8497 24.9998C19.8497 24.5268 20.0848 24.0969 20.4539 23.8316L21.1902 26.4307C20.6002 26.3883 20.0728 25.9885 19.9044 25.3963ZM23.1715 26.0877L22.3219 23.0887C22.1041 22.3162 22.2003 21.5047 22.5929 20.8055C22.9855 20.1053 23.6276 19.6004 24.3995 19.3826L27.2226 18.5913L29.6939 27.3773L26.8683 28.1667C26.0963 28.3855 25.2877 28.2878 24.591 27.8972C23.8941 27.5057 23.3902 26.8631 23.1715 26.0877Z" fill="#A43FD4"/>
</svg>
