<svg width="64" height="64" viewBox="0 0 64 64" fill="none" xmlns="http://www.w3.org/2000/svg">
<path d="M27 20C26.7348 20 26.4804 20.1054 26.2929 20.2929C26.1054 20.4804 26 20.7348 26 21V51C26 51.2652 26.1054 51.5196 26.2929 51.7071C26.4804 51.8946 26.7348 52 27 52C27.2652 52 27.5196 51.8946 27.7071 51.7071C27.8946 51.5196 28 51.2652 28 51V21C28 20.7348 27.8946 20.4804 27.7071 20.2929C27.5196 20.1054 27.2652 20 27 20ZM46.5 19H35.5C35.1022 19 34.7206 19.158 34.4393 19.4393C34.158 19.7206 34 20.1022 34 20.5V27.5C34 27.8978 34.158 28.2794 34.4393 28.5607C34.7206 28.842 35.1022 29 35.5 29H46.5C46.8978 29 47.2794 28.842 47.5607 28.5607C47.842 28.2794 48 27.8978 48 27.5V20.5C48 20.1022 47.842 19.7206 47.5607 19.4393C47.2794 19.158 46.8978 19 46.5 19ZM46 27H36V21H46V27ZM31 34H37C37.2652 34 37.5196 33.8946 37.7071 33.7071C37.8946 33.5196 38 33.2652 38 33C38 32.7348 37.8946 32.4804 37.7071 32.2929C37.5196 32.1054 37.2652 32 37 32H31C30.7348 32 30.4804 32.1054 30.2929 32.2929C30.1054 32.4804 30 32.7348 30 33C30 33.2652 30.1054 33.5196 30.2929 33.7071C30.4804 33.8946 30.7348 34 31 34ZM47 36H31C30.7348 36 30.4804 36.1054 30.2929 36.2929C30.1054 36.4804 30 36.7348 30 37C30 37.2652 30.1054 37.5196 30.2929 37.7071C30.4804 37.8946 30.7348 38 31 38H47C47.2652 38 47.5196 37.8946 47.7071 37.7071C47.8946 37.5196 48 37.2652 48 37C48 36.7348 47.8946 36.4804 47.7071 36.2929C47.5196 36.1054 47.2652 36 47 36ZM47 40H31C30.7348 40 30.4804 40.1054 30.2929 40.2929C30.1054 40.4804 30 40.7348 30 41C30 41.2652 30.1054 41.5196 30.2929 41.7071C30.4804 41.8946 30.7348 42 31 42H47C47.2652 42 47.5196 41.8946 47.7071 41.7071C47.8946 41.5196 48 41.2652 48 41C48 40.7348 47.8946 40.4804 47.7071 40.2929C47.5196 40.1054 47.2652 40 47 40ZM47 44H31C30.7348 44 30.4804 44.1054 30.2929 44.2929C30.1054 44.4804 30 44.7348 30 45C30 45.2652 30.1054 45.5196 30.2929 45.7071C30.4804 45.8946 30.7348 46 31 46H47C47.2652 46 47.5196 45.8946 47.7071 45.7071C47.8946 45.5196 48 45.2652 48 45C48 44.7348 47.8946 44.4804 47.7071 44.2929C47.5196 44.1054 47.2652 44 47 44ZM47 48H41C40.7348 48 40.4804 48.1054 40.2929 48.2929C40.1054 48.4804 40 48.7348 40 49C40 49.2652 40.1054 49.5196 40.2929 49.7071C40.4804 49.8946 40.7348 50 41 50H47C47.2652 50 47.5196 49.8946 47.7071 49.7071C47.8946 49.5196 48 49.2652 48 49C48 48.7348 47.8946 48.4804 47.7071 48.2929C47.5196 48.1054 47.2652 48 47 48ZM7 26H15C15.2652 26 15.5196 25.8946 15.7071 25.7071C15.8946 25.5196 16 25.2652 16 25C16 24.7348 15.8946 24.4804 15.7071 24.2929C15.5196 24.1054 15.2652 24 15 24H7C6.73478 24 6.48043 24.1054 6.29289 24.2929C6.10536 24.4804 6 24.7348 6 25C6 25.2652 6.10536 25.5196 6.29289 25.7071C6.48043 25.8946 6.73478 26 7 26ZM23 28H7C6.73478 28 6.48043 28.1054 6.29289 28.2929C6.10536 28.4804 6 28.7348 6 29C6 29.2652 6.10536 29.5196 6.29289 29.7071C6.48043 29.8946 6.73478 30 7 30H23C23.2652 30 23.5196 29.8946 23.7071 29.7071C23.8946 29.5196 24 29.2652 24 29C24 28.7348 23.8946 28.4804 23.7071 28.2929C23.5196 28.1054 23.2652 28 23 28ZM23 32H7C6.73478 32 6.48043 32.1054 6.29289 32.2929C6.10536 32.4804 6 32.7348 6 33C6 33.2652 6.10536 33.5196 6.29289 33.7071C6.48043 33.8946 6.73478 34 7 34H23C23.2652 34 23.5196 33.8946 23.7071 33.7071C23.8946 33.5196 24 33.2652 24 33C24 32.7348 23.8946 32.4804 23.7071 32.2929C23.5196 32.1054 23.2652 32 23 32ZM23 36H7C6.73478 36 6.48043 36.1054 6.29289 36.2929C6.10536 36.4804 6 36.7348 6 37C6 37.2652 6.10536 37.5196 6.29289 37.7071C6.48043 37.8946 6.73478 38 7 38H23C23.2652 38 23.5196 37.8946 23.7071 37.7071C23.8946 37.5196 24 37.2652 24 37C24 36.7348 23.8946 36.4804 23.7071 36.2929C23.5196 36.1054 23.2652 36 23 36ZM23 40H7C6.73478 40 6.48043 40.1054 6.29289 40.2929C6.10536 40.4804 6 40.7348 6 41C6 41.2652 6.10536 41.5196 6.29289 41.7071C6.48043 41.8946 6.73478 42 7 42H23C23.2652 42 23.5196 41.8946 23.7071 41.7071C23.8946 41.5196 24 41.2652 24 41C24 40.7348 23.8946 40.4804 23.7071 40.2929C23.5196 40.1054 23.2652 40 23 40ZM23 48H15C14.7348 48 14.4804 48.1054 14.2929 48.2929C14.1054 48.4804 14 48.7348 14 49C14 49.2652 14.1054 49.5196 14.2929 49.7071C14.4804 49.8946 14.7348 50 15 50H23C23.2652 50 23.5196 49.8946 23.7071 49.7071C23.8946 49.5196 24 49.2652 24 49C24 48.7348 23.8946 48.4804 23.7071 48.2929C23.5196 48.1054 23.2652 48 23 48ZM23 44H7C6.73478 44 6.48043 44.1054 6.29289 44.2929C6.10536 44.4804 6 44.7348 6 45C6 45.2652 6.10536 45.5196 6.29289 45.7071C6.48043 45.8946 6.73478 46 7 46H23C23.2652 46 23.5196 45.8946 23.7071 45.7071C23.8946 45.5196 24 45.2652 24 45C24 44.7348 23.8946 44.4804 23.7071 44.2929C23.5196 44.1054 23.2652 44 23 44Z" fill="#A43FD4"/>
<path d="M60 6H14C13.4696 6 12.9609 6.21071 12.5858 6.58579C12.2107 6.96086 12 7.46957 12 8V15H4C3.46957 15 2.96086 15.2107 2.58579 15.5858C2.21071 15.9609 2 16.4696 2 17V55C2 55.5304 2.21071 56.0391 2.58579 56.4142C2.96086 56.7893 3.46957 57 4 57H50C50.5304 57 51.0391 56.7893 51.4142 56.4142C51.7893 56.0391 52 55.5304 52 55V48H60C60.5304 48 61.0391 47.7893 61.4142 47.4142C61.7893 47.0391 62 46.5304 62 46V8C62 7.46957 61.7893 6.96086 61.4142 6.58579C61.0391 6.21071 60.5304 6 60 6ZM4 55V17H50V47V55H4ZM60 46H52V17C52 16.4696 51.7893 15.9609 51.4142 15.5858C51.0391 15.2107 50.5304 15 50 15H14V8H60V46Z" fill="black"/>
</svg>
