<svg width="190" height="135" viewBox="0 0 190 135" fill="none" xmlns="http://www.w3.org/2000/svg">
<path d="M20.6626 72.4914L22.0585 73.8834C22.8093 73.1346 23.8057 72.7218 24.8694 72.7218C25.9332 72.7218 26.9296 73.1346 27.6804 73.8834L29.0763 72.4914C27.95 71.3682 26.4578 70.7538 24.8694 70.7538C23.2859 70.7538 21.7889 71.373 20.6626 72.4914Z" stroke="#A43FD4" stroke-miterlimit="10"/>
<path d="M18.3477 70.1829L19.7435 71.5749C21.1153 70.2069 22.9348 69.4581 24.8745 69.4581C26.8143 69.4581 28.6337 70.2117 30.0055 71.5749L31.4014 70.1829C29.659 68.4453 27.3389 67.4853 24.8745 67.4853C22.4101 67.4853 20.0901 68.4405 18.3477 70.1829Z" stroke="#A43FD4" stroke-miterlimit="10"/>
<path d="M24.8742 64.2119C21.5338 64.2119 18.3907 65.5079 16.0273 67.8646L17.4232 69.2566C19.4111 67.2742 22.0584 66.1798 24.8742 66.1798C27.69 66.1798 30.3325 67.2742 32.3253 69.2566L33.7211 67.8646C31.3578 65.5127 28.2147 64.2119 24.8742 64.2119Z" stroke="#A43FD4" stroke-miterlimit="10"/>
<path d="M24.8741 77.2533C25.8071 77.2533 26.5635 76.499 26.5635 75.5685C26.5635 74.638 25.8071 73.8837 24.8741 73.8837C23.941 73.8837 23.1846 74.638 23.1846 75.5685C23.1846 76.499 23.941 77.2533 24.8741 77.2533Z" stroke="#A43FD4" stroke-miterlimit="10"/>
<path d="M41.3791 48.2418C41.3791 49.9698 39.9736 51.3714 38.2408 51.3714C36.508 51.3714 35.1025 49.9698 35.1025 48.2418C35.1025 46.5138 36.508 45.1122 38.2408 45.1122C39.9736 45.1122 41.3791 46.5138 41.3791 48.2418Z" stroke="#BB2FA6" stroke-miterlimit="10"/>
<path d="M29.0136 95.1759C44.4292 95.1759 56.9261 82.9888 56.9261 67.9551C56.9261 52.9215 44.4292 40.7343 29.0136 40.7343C13.5979 40.7343 1.10107 52.9215 1.10107 67.9551C1.10107 82.9888 13.5979 95.1759 29.0136 95.1759Z" stroke="#EEEEEE" stroke-miterlimit="10" stroke-dasharray="4 4"/>
<path d="M164.687 123.506H59.6359C56.0163 123.506 53.085 120.582 53.085 116.973V42.232C53.085 38.6224 56.0163 35.6992 59.6359 35.6992H164.687C168.307 35.6992 171.238 38.6224 171.238 42.232V116.973C171.238 120.578 168.307 123.506 164.687 123.506Z" fill="#F6BA1E"/>
<path d="M113.569 134.526H103.273C101.43 134.526 100.188 132.645 100.924 130.955L106.474 118.177L111.22 107.243C112.111 105.189 115.032 105.189 115.923 107.243L120.669 118.177L126.219 130.955C126.95 132.64 125.713 134.526 123.87 134.526H113.569Z" fill="#F6BA1E"/>
<path d="M116.713 113.656C116.713 115.322 115.36 116.67 113.69 116.67C112.02 116.67 110.667 115.322 110.667 113.656C110.667 111.99 112.02 110.642 113.69 110.642C115.355 110.637 116.713 111.99 116.713 113.656Z" stroke="#252525" stroke-miterlimit="10"/>
<path d="M163.113 107.018H63.1544C61.4938 107.018 60.1509 105.674 60.1509 104.023V45.4386C60.1509 43.7826 61.4986 42.4434 63.1544 42.4434H163.113C164.773 42.4434 166.116 43.7874 166.116 45.4386V104.018C166.121 105.679 164.773 107.018 163.113 107.018Z" fill="white" stroke="#252525" stroke-miterlimit="10"/>
<path d="M73.5125 99.2943H132.952C136.529 99.2943 139.426 96.4047 139.426 92.8383V51.2607C139.426 47.6943 136.529 44.8047 132.952 44.8047H73.5125C69.9362 44.8047 67.0386 47.6943 67.0386 51.2607V92.8383C67.0386 96.4047 69.9362 99.2943 73.5125 99.2943Z" fill="white" stroke="#252525" stroke-miterlimit="10"/>
<path d="M74.1043 49.7971C74.1043 50.4787 73.5556 51.0307 72.8818 51.0307C72.2079 51.0307 71.6592 50.4787 71.6592 49.7971C71.6592 49.1155 72.2079 48.5635 72.8818 48.5635C73.5556 48.5635 74.1043 49.1155 74.1043 49.7971Z" fill="#DB7294" stroke="#252525" stroke-miterlimit="10"/>
<path d="M78.9755 49.7971C78.9755 50.4787 78.4268 51.0307 77.7529 51.0307C77.079 51.0307 76.5303 50.4787 76.5303 49.7971C76.5303 49.1155 77.079 48.5635 77.7529 48.5635C78.4316 48.5635 78.9755 49.1155 78.9755 49.7971Z" fill="#F6BA1E" stroke="#252525" stroke-miterlimit="10"/>
<path d="M83.8514 49.7971C83.8514 50.4787 83.3027 51.0307 82.6288 51.0307C81.955 51.0307 81.4062 50.4787 81.4062 49.7971C81.4062 49.1155 81.955 48.5635 82.6288 48.5635C83.3027 48.5635 83.8514 49.1155 83.8514 49.7971Z" fill="#A43FD4" stroke="#252525" stroke-miterlimit="10"/>
<path d="M67.207 54.1221H139.421" stroke="#252525" stroke-miterlimit="10"/>
<path d="M135.316 76.9541H121.833V85.3349H135.316V76.9541Z" stroke="#9E88E5" stroke-miterlimit="10"/>
<path d="M123.489 79.1572H133.275" stroke="#9E88E5" stroke-miterlimit="10"/>
<path d="M123.489 80.6836H133.275" stroke="#9E88E5" stroke-miterlimit="10"/>
<path d="M123.489 82.2051H133.275" stroke="#9E88E5" stroke-miterlimit="10"/>
<path d="M105.863 68.344V58.5088C100.414 58.5088 96 62.9104 96 68.344C96 73.7776 100.414 78.1792 105.863 78.1792C111.311 78.1792 115.725 73.7776 115.725 68.344C115.725 67.6336 115.643 66.9376 115.499 66.2704L105.863 68.344Z" fill="url(#paint0_linear_143_1129)"/>
<path d="M116.711 64.5419C115.758 60.1067 111.807 56.7803 107.075 56.7803V66.6155L116.711 64.5419Z" fill="#A43FD4"/>
<path d="M87.3173 59.0895H75.4958C75.0385 59.0895 74.6631 58.7199 74.6631 58.2591C74.6631 57.8031 75.0337 57.4287 75.4958 57.4287H87.3173C87.7746 57.4287 88.1501 57.7983 88.1501 58.2591C88.1452 58.7199 87.7746 59.0895 87.3173 59.0895Z" stroke="#9E88E5" stroke-miterlimit="10"/>
<path d="M75.5151 60.3184H86.9564" stroke="#9E88E5" stroke-miterlimit="10"/>
<path d="M75.5151 61.8447H86.9564" stroke="#9E88E5" stroke-miterlimit="10"/>
<path d="M75.5151 63.3711H86.9564" stroke="#9E88E5" stroke-miterlimit="10"/>
<path d="M88.9971 58.5234H93.3195L99.5383 64.2018" stroke="#9E88E5" stroke-miterlimit="10"/>
<path d="M134.483 60.0495H122.662C122.205 60.0495 121.829 59.6799 121.829 59.2191C121.829 58.7631 122.2 58.3887 122.662 58.3887H134.483C134.941 58.3887 135.316 58.7583 135.316 59.2191C135.316 59.6799 134.945 60.0495 134.483 60.0495Z" stroke="#9E88E5" stroke-miterlimit="10"/>
<path d="M122.686 61.2783H134.127" stroke="#9E88E5" stroke-miterlimit="10"/>
<path d="M122.686 62.8047H134.127" stroke="#9E88E5" stroke-miterlimit="10"/>
<path d="M122.686 64.3311H134.127" stroke="#9E88E5" stroke-miterlimit="10"/>
<path d="M122.686 65.915H134.127" stroke="#9E88E5" stroke-miterlimit="10"/>
<path d="M122.686 67.4365H134.127" stroke="#9E88E5" stroke-miterlimit="10"/>
<path d="M122.686 68.9629H134.127" stroke="#9E88E5" stroke-miterlimit="10"/>
<path d="M113.069 63.0778L117.247 59.665H120.948" stroke="#9E88E5" stroke-miterlimit="10"/>
<path d="M76.3765 72.2558V91.5806H105.704" stroke="#9E88E5" stroke-miterlimit="10"/>
<path d="M76.3765 72.3614H75.3271L75.8518 71.459L76.3765 70.5566L76.8963 71.459L77.421 72.3614H76.3765Z" fill="#9E88E5"/>
<path d="M105.391 91.5806V90.5342L106.301 91.0574L107.206 91.5806L106.301 92.1038L105.391 92.6222V91.5806Z" fill="#9E88E5"/>
<path d="M73.9453 89.9816L81.0787 83.5736L86.9461 89.8664L94.349 76.3496L99.7592 89.54" stroke="#F6BA1E" stroke-miterlimit="10"/>
<path d="M71.5005 80.4496C71.5005 80.4496 71.7604 80.1808 72.1936 79.7872" stroke="#DB7294" stroke-miterlimit="10"/>
<path d="M73.623 78.6063C75.5195 77.1855 78.2583 75.7215 80.0007 77.3967C82.8839 80.1663 82.2004 82.2975 87.9908 81.0543C93.4347 79.8879 100.116 81.5007 102.079 90.7647" stroke="#DB7294" stroke-miterlimit="10" stroke-dasharray="3.85 3.85"/>
<path d="M102.253 91.672C102.306 91.9792 102.354 92.296 102.397 92.6224" stroke="#DB7294" stroke-miterlimit="10"/>
<path d="M109.657 75.4914C109.657 75.4914 106.625 73.5474 107 72.621C107.375 71.6946 108.256 72.213 108.256 72.213C108.256 72.213 107.351 71.661 107.77 71.0466C108.189 70.437 108.757 70.6626 108.757 70.6626C108.757 70.6626 108.117 69.7266 108.733 69.3762C109.349 69.0306 110.278 69.2514 110.278 69.2514C110.278 69.2514 109.922 68.4738 109.941 68.1954C109.96 67.9218 110.36 67.3122 111.65 67.6146C112.944 67.9122 115.707 69.4482 116.641 69.9234C117.575 70.3986 118.624 71.493 118.658 71.1378C118.687 70.7826 119.086 68.517 119.972 67.8546C120.853 67.1922 121.204 67.0866 121.363 68.3442C121.522 69.6018 121.478 73.1058 123.187 75.6882C124.896 78.2706 125.478 79.989 127.283 82.0818C129.088 84.1746 129.916 85.2306 129.916 85.2306L121.782 91.8354C121.782 91.8354 113.888 79.989 113.83 79.9074C113.772 79.8306 111.212 76.6962 109.657 75.4914Z" fill="#F7A491"/>
<path d="M135.841 89.3776C134.695 88.6096 133.525 87.6064 132.404 86.5216C128.765 82.9936 125.656 78.5968 125.656 78.5968L116.712 86.2384C116.712 86.2384 126.469 101.339 132.327 103.226C138.185 105.112 151.58 89.9248 151.58 89.9248L152.634 69.9424C152.634 69.9424 150.117 71.2912 148.095 73.1104C144.779 76.096 138.979 81.4384 132.409 86.5216" fill="#A43FD4"/>
<path d="M135.841 89.3776C134.695 88.6096 133.525 87.6064 132.404 86.5216C128.765 82.9936 125.656 78.5968 125.656 78.5968L116.712 86.2384C116.712 86.2384 126.469 101.339 132.327 103.226C138.185 105.112 151.58 89.9248 151.58 89.9248L152.634 69.9424C152.634 69.9424 150.117 71.2912 148.095 73.1104C144.779 76.096 138.979 81.4384 132.409 86.5216" stroke="#252525" stroke-miterlimit="10"/>
<path d="M128.572 82.3455C126.825 80.2527 125.656 78.5967 125.656 78.5967L116.712 86.2383C116.712 86.2383 117.848 87.9951 119.572 90.3807L128.572 82.3455Z" fill="white" stroke="#252525" stroke-miterlimit="10"/>
<g clip-path="url(#clip0_143_1129)">
<path d="M162.737 69.5488C162.737 69.5488 180.542 76.4896 189.976 106.509L177.919 112.475L168.995 89.752L162.737 69.5488Z" fill="#A43FD4" stroke="#252525" stroke-miterlimit="10"/>
<path d="M177 107C177 106.834 177 103.462 177 103.301C177 83.8054 168.494 68 158 68C147.505 68 139 83.8054 139 103.301C139 103.467 139 106.838 139 107H177Z" fill="#A43FD4"/>
<path d="M141.3 85.3611C139.842 90.609 139 96.7668 139 103.351C139 103.515 139 106.841 139 107H171C171 106.836 171 103.511 171 103.351C171 96.6167 170.121 90.3276 168.598 85" stroke="#252525" stroke-miterlimit="10"/>
</g>
<path d="M158.174 77.7329L165.404 71.2289C163.18 69.4625 160.735 68.4785 158.174 68.4785C155.696 68.4785 153.106 69.5681 150.94 71.2241L158.174 77.7329Z" fill="white" stroke="#252525" stroke-miterlimit="10"/>
<path d="M165.409 71.229C163.185 69.4578 160.74 68.4834 158.179 68.4834C155.623 68.4834 153.193 69.453 150.969 71.2098" stroke="#252525" stroke-miterlimit="10"/>
<path d="M163.113 107.018H63.1544C61.4938 107.018 60.1509 105.674 60.1509 104.023V45.4386C60.1509 43.7826 61.4986 42.4434 63.1544 42.4434H163.113C164.773 42.4434 166.116 43.7874 166.116 45.4386V104.018C166.121 105.679 164.773 107.018 163.113 107.018Z" stroke="#252525" stroke-miterlimit="10"/>
<path d="M165.621 73.1581L161.631 67.1821C160.851 66.0109 159.383 65.5789 158.117 66.0445C156.851 65.5741 155.383 66.0109 154.603 67.1821L150.613 73.1581C149.703 74.5213 150.074 76.3645 151.441 77.2765L152.014 77.6557C153.381 78.5629 155.229 78.1933 156.144 76.8301L158.122 73.8685L160.1 76.8301C161.01 78.1933 162.858 78.5629 164.23 77.6557L164.803 77.2765C166.16 76.3645 166.531 74.5213 165.621 73.1581Z" fill="white" stroke="#252525" stroke-miterlimit="10"/>
<path d="M158.757 72.453C158.757 72.7698 158.497 73.029 158.18 73.029C157.862 73.029 157.602 72.7698 157.602 72.453C157.602 72.1362 157.862 71.877 158.18 71.877C158.497 71.8722 158.757 72.1314 158.757 72.453Z" fill="white" stroke="#252525" stroke-miterlimit="10"/>
<path d="M152.495 48.7842H156.403C159.003 48.7842 161.125 51.1986 161.125 54.1458V60.1842C161.125 60.3522 161.116 60.5202 161.101 60.6882C161.145 60.8658 161.169 61.053 161.169 61.2402V64.917V65.1234V68.8002C161.169 70.1346 160.076 71.2242 158.738 71.2242H157.188C155.85 71.2242 154.757 70.1346 154.757 68.8002V65.5458H152.5C149.901 65.5458 147.778 63.1314 147.778 60.1842V54.1458C147.773 51.1986 149.896 48.7842 152.495 48.7842Z" fill="#F7A491"/>
<path d="M160.1 58.2304L159.378 53.4976C159.378 53.4976 146.252 55.1392 141.997 48.7792C137.742 42.4192 142.214 39.904 144.375 40.264C146.536 40.624 149.068 43.7152 149.068 43.7152C149.068 43.7152 147.056 40.984 149.068 40.552C151.08 40.12 153.308 42.208 154.463 44.3632C154.463 44.3632 163.113 43.5568 166.04 48.7792C168.966 54.0016 166.593 57.7024 161.245 63.0976L160.889 60.0784L160.1 58.2304Z" fill="#252525"/>
<path d="M173.119 43.544C173.119 46.6064 170.63 49.088 167.559 49.088C164.488 49.088 162 46.6064 162 43.544C162 40.4816 164.488 38 167.559 38C170.63 38 173.119 40.4816 173.119 43.544Z" fill="#252525"/>
<path d="M154.872 56.037C154.872 56.4786 154.516 56.8338 154.073 56.8338C153.631 56.8338 153.274 56.4786 153.274 56.037C153.274 55.5954 153.631 55.2402 154.073 55.2402C154.516 55.2402 154.872 55.6002 154.872 56.037Z" fill="#252525"/>
<path d="M149.65 55.9218C149.65 56.2962 149.347 56.5986 148.971 56.5986C148.596 56.5986 148.292 56.2962 148.292 55.9218C148.292 55.5474 148.596 55.2402 148.971 55.2402C149.347 55.2402 149.65 55.5474 149.65 55.9218Z" fill="#252525"/>
<path d="M150.411 59.1757C150.411 59.1757 150.81 60.3421 151.657 60.4189C152.504 60.5005 153.169 59.5645 153.217 58.8301L150.411 59.1757Z" fill="white"/>
<path d="M158.116 55.5714C158.116 57.285 156.87 58.677 155.329 58.677C153.789 58.677 152.542 57.285 152.542 55.5714C152.542 53.8578 153.789 52.4658 155.329 52.4658C156.87 52.4658 158.116 53.8578 158.116 55.5714Z" stroke="#A43FD4" stroke-miterlimit="10"/>
<path d="M148.389 57.957C149.654 57.957 150.68 56.7149 150.68 55.1826C150.68 53.6503 149.654 52.4082 148.389 52.4082C147.123 52.4082 146.098 53.6503 146.098 55.1826C146.098 56.7149 147.123 57.957 148.389 57.957Z" stroke="#A43FD4" stroke-miterlimit="10"/>
<path d="M151.575 55.2549V57.9525L150.16 57.0885L151.575 55.2549Z" fill="#D96980"/>
<path d="M150.608 56.0126C150.608 56.0126 151.729 55.5422 152.543 56.2142" stroke="#A43FD4" stroke-miterlimit="10"/>
<path d="M166.044 58.3317C166.044 60.0309 164.653 61.4085 162.935 61.4085C161.216 61.4085 159.825 60.0309 159.825 58.3317C159.825 56.6325 161.216 55.2549 162.935 55.2549C164.653 55.2549 166.044 56.6325 166.044 58.3317Z" fill="#F7A491"/>
<path d="M108.612 28.4326H127.865C130.324 28.4326 132.317 30.4198 132.317 32.8726V40.711V43.4518V52.039L127.788 47.8918H108.612C106.152 47.8918 104.159 45.9046 104.159 43.4518V32.8726C104.159 30.4198 106.152 28.4326 108.612 28.4326Z" fill="white" stroke="#252525" stroke-miterlimit="10"/>
<path d="M117.091 40.0782H116.791V40.3782H117.091V40.0782ZM117.516 38.4955L117.763 38.6654L117.766 38.6619L117.516 38.4955ZM118.751 37.1058L118.955 37.3256L118.956 37.3253L118.751 37.1058ZM119.581 36.2372L119.818 36.4215L119.823 36.4152L119.581 36.2372ZM119.369 34.5773L119.189 34.8176L119.2 34.8254L119.369 34.5773ZM116.744 34.5966L116.594 34.3366L116.591 34.3387L116.744 34.5966ZM115.74 35.6196L115.598 35.8839L115.853 36.0204L115.999 35.7717L115.74 35.6196ZM112.864 34.0755L112.606 33.9239L112.448 34.1925L112.722 34.3398L112.864 34.0755ZM115.103 31.9716L115.242 32.2378H115.242L115.103 31.9716ZM122.283 32.1839L122.112 32.4304L122.116 32.433L122.283 32.1839ZM123.422 36.2565L123.696 36.38L123.697 36.3768L123.422 36.2565ZM122.766 37.2795L122.544 37.0777L122.543 37.0782L122.766 37.2795ZM121.801 38.2059L121.996 38.4342L121.998 38.4322L121.801 38.2059ZM120.836 39.171L121.07 39.3585L121.074 39.3528L120.836 39.171ZM120.527 40.0782V40.3782H120.827V40.0782H120.527ZM117.246 44.5947L117.037 44.8102L117.041 44.8135L117.246 44.5947ZM117.226 41.7188L117.025 41.4965L117.022 41.4997L117.226 41.7188ZM120.392 41.7188L120.19 41.9411L120.392 41.7188ZM120.392 44.5947L120.597 44.8136L120.601 44.8101L120.392 44.5947ZM117.391 40.0782C117.391 39.4781 117.523 39.0146 117.763 38.6654L117.269 38.3255C116.943 38.7999 116.791 39.3915 116.791 40.0782H117.391ZM117.766 38.6619C118.031 38.2633 118.425 37.8179 118.955 37.3256L118.547 36.8859C117.996 37.3973 117.567 37.8784 117.266 38.3291L117.766 38.6619ZM118.956 37.3253C119.333 36.9737 119.623 36.6716 119.818 36.4214L119.344 36.053C119.179 36.2661 118.916 36.543 118.547 36.8862L118.956 37.3253ZM119.823 36.4152C120.036 36.1258 120.151 35.8073 120.151 35.4652H119.551C119.551 35.6635 119.487 35.8596 119.34 36.0593L119.823 36.4152ZM120.151 35.4652C120.151 34.9877 119.937 34.601 119.538 34.3292L119.2 34.8254C119.444 34.9911 119.551 35.1963 119.551 35.4652H120.151ZM119.549 34.3373C119.174 34.0565 118.7 33.9299 118.153 33.9299V34.5299C118.609 34.5299 118.946 34.6349 119.189 34.8173L119.549 34.3373ZM118.153 33.9299C117.588 33.9299 117.067 34.0646 116.594 34.3366L116.894 34.8566C117.27 34.6397 117.688 34.5299 118.153 34.5299V33.9299ZM116.591 34.3387C116.133 34.6105 115.763 34.9891 115.482 35.4675L115.999 35.7717C116.232 35.3751 116.531 35.0717 116.897 34.8546L116.591 34.3387ZM115.882 35.3553L113.006 33.8112L112.722 34.3398L115.598 35.8839L115.882 35.3553ZM113.123 34.2271C113.621 33.3772 114.325 32.7147 115.242 32.2378L114.965 31.7055C113.952 32.2322 113.163 32.9723 112.606 33.9239L113.123 34.2271ZM115.242 32.2378C116.155 31.7631 117.269 31.5189 118.597 31.5189V30.9189C117.197 30.9189 115.982 31.1765 114.965 31.7055L115.242 32.2378ZM118.597 31.5189C120.088 31.5189 121.251 31.8324 122.112 32.4304L122.455 31.9375C121.463 31.2488 120.168 30.9189 118.597 30.9189V31.5189ZM122.116 32.433C122.971 33.007 123.392 33.8008 123.392 34.8475H123.992C123.992 33.6038 123.474 32.6219 122.451 31.9349L122.116 32.433ZM123.392 34.8475C123.392 35.3408 123.308 35.7684 123.147 36.1363L123.697 36.3768C123.896 35.9211 123.992 35.4094 123.992 34.8475H123.392ZM123.149 36.133C122.98 36.5073 122.777 36.8209 122.544 37.0777L122.988 37.4813C123.269 37.1719 123.504 36.8035 123.696 36.38L123.149 36.133ZM122.543 37.0782C122.31 37.3367 121.997 37.637 121.604 37.9797L121.998 38.4322C122.402 38.0801 122.733 37.7627 122.988 37.4808L122.543 37.0782ZM121.606 37.9777C121.162 38.3566 120.822 38.6943 120.597 38.9892L121.074 39.3528C121.262 39.1073 121.565 38.8016 121.996 38.4342L121.606 37.9777ZM120.602 38.9836C120.351 39.2972 120.227 39.6666 120.227 40.0782H120.827C120.827 39.7949 120.909 39.5596 121.07 39.3584L120.602 38.9836ZM120.527 39.7782H117.091V40.3782H120.527V39.7782ZM118.809 44.8737C118.245 44.8737 117.8 44.7035 117.451 44.3758L117.041 44.8135C117.515 45.2579 118.112 45.4737 118.809 45.4737V44.8737ZM117.455 44.3792C117.1 44.036 116.928 43.6309 116.928 43.1471H116.328C116.328 43.7956 116.568 44.3555 117.037 44.8101L117.455 44.3792ZM116.928 43.1471C116.928 42.6455 117.097 42.2506 117.431 41.9379L117.022 41.4997C116.558 41.9333 116.328 42.4906 116.328 43.1471H116.928ZM117.428 41.9411C117.776 41.6257 118.228 41.459 118.809 41.459V40.859C118.104 40.859 117.501 41.0655 117.025 41.4965L117.428 41.9411ZM118.809 41.459C119.391 41.459 119.842 41.6257 120.19 41.9411L120.593 41.4965C120.118 41.0655 119.515 40.859 118.809 40.859V41.459ZM120.19 41.9411C120.537 42.2547 120.71 42.6487 120.71 43.1471H121.31C121.31 42.4874 121.071 41.9292 120.593 41.4965L120.19 41.9411ZM120.71 43.1471C120.71 43.6309 120.537 44.036 120.183 44.3792L120.601 44.8101C121.07 44.3555 121.31 43.7956 121.31 43.1471H120.71ZM120.187 44.3758C119.838 44.7024 119.388 44.8737 118.809 44.8737V45.4737C119.517 45.4737 120.122 45.259 120.597 44.8135L120.187 44.3758Z" fill="#252525"/>
<path d="M59.0494 98.1416H36.8311C33.9912 98.1416 31.6904 100.436 31.6904 103.268V112.311V115.474V125.386L36.9177 120.601H59.0494C61.8893 120.601 64.19 118.306 64.19 115.474V103.268C64.19 100.441 61.8893 98.1416 59.0494 98.1416Z" fill="white" stroke="#252525" stroke-miterlimit="10"/>
<path d="M42.8574 109.782C42.8574 111.011 41.8563 112.009 40.624 112.009C39.3918 112.009 38.3906 111.011 38.3906 109.782C38.3906 108.553 39.3918 107.555 40.624 107.555C41.8563 107.555 42.8574 108.548 42.8574 109.782Z" fill="white" stroke="#252525" stroke-miterlimit="10"/>
<path d="M50.6308 109.782C50.6308 111.011 49.6297 112.009 48.3975 112.009C47.1652 112.009 46.1641 111.011 46.1641 109.782C46.1641 108.553 47.1652 107.555 48.3975 107.555C49.6297 107.555 50.6308 108.548 50.6308 109.782Z" fill="white" stroke="#252525" stroke-miterlimit="10"/>
<path d="M58.4048 109.782C58.4048 111.011 57.4036 112.009 56.1714 112.009C54.9392 112.009 53.938 111.011 53.938 109.782C53.938 108.553 54.9392 107.555 56.1714 107.555C57.4036 107.555 58.4048 108.548 58.4048 109.782Z" fill="white" stroke="#252525" stroke-miterlimit="10"/>
<path d="M65.4513 90.8457H43.2329C40.3931 90.8457 38.0923 93.1401 38.0923 95.9721V105.015V108.178V118.09L43.3196 113.305H65.4513C68.2911 113.305 70.5919 111.01 70.5919 108.178V95.9721C70.5919 93.1449 68.2911 90.8457 65.4513 90.8457Z" fill="white" stroke="#252525" stroke-miterlimit="10"/>
<path d="M49.2592 102.486C49.2592 103.715 48.2581 104.713 47.0259 104.713C45.7937 104.713 44.7925 103.715 44.7925 102.486C44.7925 101.257 45.7937 100.259 47.0259 100.259C48.2581 100.259 49.2592 101.252 49.2592 102.486Z" fill="white" stroke="#252525" stroke-miterlimit="10"/>
<path d="M57.0326 102.486C57.0326 103.715 56.0315 104.713 54.7993 104.713C53.5671 104.713 52.5659 103.715 52.5659 102.486C52.5659 101.257 53.5671 100.259 54.7993 100.259C56.0315 100.259 57.0326 101.252 57.0326 102.486Z" fill="white" stroke="#252525" stroke-miterlimit="10"/>
<path d="M64.8066 102.486C64.8066 103.715 63.8055 104.713 62.5732 104.713C61.341 104.713 60.3398 103.715 60.3398 102.486C60.3398 101.257 61.341 100.259 62.5732 100.259C63.8055 100.259 64.8066 101.252 64.8066 102.486Z" fill="white" stroke="#252525" stroke-miterlimit="10"/>
<path d="M33.9075 28.9806C33.4406 26.3886 31.9726 24.6894 30.3312 23.619C27.5491 21.8094 23.8573 21.8094 21.08 23.619C19.4387 24.6894 17.9706 26.3886 17.5037 28.9806C16.6469 33.771 20.873 36.3438 21.6672 37.3086C21.6672 37.3086 22.2015 37.7502 22.4614 38.2734C22.524 38.403 22.5962 38.8158 22.6732 39.3678H25.7104H28.7476C28.8295 38.8158 28.8969 38.403 28.9594 38.2734C29.2145 37.7502 29.7536 37.3086 29.7536 37.3086C30.5382 36.3438 34.7643 33.7662 33.9075 28.9806Z" fill="#F6BA1E" stroke="#252525" stroke-miterlimit="10"/>
<path d="M24.43 39.8814C24.43 39.8814 24.43 35.3406 24.0979 34.6926C23.7658 34.0446 22.2303 31.7742 21.9704 31.299C21.7105 30.819 22.2448 30.267 22.6539 30.9726C23.0053 31.5774 24.4926 33.6462 24.8247 34.4958C25.1568 35.3406 25.4408 40.1118 25.4408 40.1118L24.43 39.8814Z" fill="white"/>
<path d="M26.9571 39.8814C26.9571 39.8814 26.9571 35.3406 27.2892 34.6926C27.6213 34.0446 29.1568 31.7742 29.4167 31.299C29.6766 30.819 29.1423 30.267 28.7332 30.9726C28.3818 31.5774 26.8945 33.6462 26.5624 34.4958C26.2303 35.3406 25.9463 40.1118 25.9463 40.1118L26.9571 39.8814Z" fill="white"/>
<path d="M29.1564 31.1453C28.5403 31.4333 27.491 31.4669 26.7161 31.2317C26.7113 31.2365 26.7016 31.2413 26.6968 31.2461C26.0566 31.7165 25.1662 31.5389 24.5116 31.0589C23.6981 31.3757 22.5766 31.4141 22.4081 31.4189L22.4033 30.9869C22.8943 30.9773 23.597 30.8957 24.1457 30.7325C23.6933 30.2429 23.597 29.7149 23.9003 29.3549C24.2805 28.8989 24.7619 28.9277 25.0651 29.1581C25.4309 29.4365 25.6042 30.0269 25.2624 30.5357C25.1854 30.6509 25.0795 30.7469 24.9544 30.8333C25.3635 31.0733 25.8497 31.1789 26.2395 31.0301C26.1048 30.9533 25.9893 30.8573 25.9074 30.7517C25.7775 30.5837 25.6042 30.2381 25.9363 29.7773C26.1625 29.4653 26.4562 29.3213 26.745 29.3837C27.0241 29.4413 27.2407 29.6861 27.2985 30.0029C27.3562 30.3005 27.2696 30.6077 27.0626 30.8813C27.6932 31.0205 28.5018 30.9965 29.0024 30.7661L29.1564 31.1453ZM26.4273 29.8637C26.3743 29.9021 26.3262 29.9549 26.2781 30.0221C26.1096 30.2573 26.1722 30.3869 26.2395 30.4781C26.3262 30.5837 26.4658 30.6749 26.6391 30.7517C26.8412 30.5453 26.9327 30.3101 26.8893 30.0941C26.8605 29.9453 26.7642 29.8253 26.6487 29.8013C26.5813 29.7869 26.5043 29.8109 26.4273 29.8637ZM24.5886 30.5645C24.733 30.4877 24.8437 30.4013 24.9111 30.3053C25.1084 30.0077 25.0121 29.6717 24.8052 29.5133C24.6223 29.3789 24.4153 29.4221 24.2324 29.6381C24.0495 29.8541 24.2516 30.2141 24.4779 30.4589C24.5116 30.4925 24.5501 30.5261 24.5886 30.5645Z" fill="white"/>
<path d="M25.6912 38.883C24.0402 38.883 22.6299 38.451 22.394 38.3214C22.4133 38.355 22.4325 38.3838 22.447 38.4174C22.6684 38.8686 22.9428 42.6366 23.5396 44.091C23.6455 44.3502 23.761 44.5326 23.8862 44.6142C24.2279 44.835 24.9355 45.0702 25.6912 45.0318C26.4469 45.0654 27.1544 44.835 27.4962 44.6142C27.6213 44.5326 27.7368 44.3502 27.8427 44.091C28.4348 42.6366 28.7139 38.8734 28.9354 38.4174C28.9498 38.3838 28.9739 38.3502 28.9883 38.3214C28.7525 38.451 27.3421 38.883 25.6912 38.883Z" fill="white" stroke="#252525" stroke-miterlimit="10"/>
<path d="M25.691 40.5822C26.644 40.5678 27.6837 40.4525 28.6271 40.1549C28.6897 39.7086 28.7474 39.3054 28.7956 38.9982C26.798 39.7566 24.5791 39.7566 22.5815 38.9982C22.6345 39.3054 22.6874 39.7086 22.75 40.1549C23.6982 40.4525 24.7379 40.5678 25.691 40.5822Z" fill="#252525"/>
<path d="M25.6913 42.5019C26.5433 42.4875 27.4626 42.3915 28.3242 42.1611C28.3916 41.7867 28.4493 41.3979 28.5071 41.0187C26.6828 41.6379 24.6997 41.6379 22.8755 41.0187C22.9332 41.3979 22.991 41.7867 23.0584 42.1611C23.92 42.3963 24.8393 42.4923 25.6913 42.5019Z" fill="#252525"/>
<path d="M23.2412 43.0636C23.3327 43.462 23.4337 43.8172 23.5445 44.086C23.5637 44.1292 23.583 44.1676 23.5974 44.2108C24.2953 44.35 25.0173 44.4124 25.696 44.4268C26.3747 44.4172 27.0919 44.35 27.7898 44.2108C27.8091 44.1724 27.8283 44.134 27.8428 44.086C27.9535 43.8124 28.0545 43.462 28.146 43.0636C26.548 43.5292 24.8392 43.5292 23.2412 43.0636Z" fill="#252525"/>
<path d="M25.8596 19.8416H25.8404C25.359 19.8416 24.9644 19.4528 24.9644 18.968V14.8736C24.9644 14.3936 25.3542 14 25.8404 14H25.8596C26.341 14 26.7357 14.3888 26.7357 14.8736V18.968C26.7309 19.4528 26.341 19.8416 25.8596 19.8416Z" fill="white" stroke="#252525" stroke-miterlimit="10"/>
<path d="M32.1554 20.9748L32.141 20.9652C31.7126 20.7396 31.5537 20.2068 31.7848 19.7844L33.7245 16.1748C33.9508 15.7524 34.485 15.5892 34.9086 15.8196L34.9231 15.8292C35.3466 16.0548 35.5103 16.5876 35.2792 17.01L33.3395 20.6196C33.1132 21.042 32.579 21.2052 32.1554 20.9748Z" fill="white" stroke="#252525" stroke-miterlimit="10"/>
<path d="M19.5444 20.9748L19.5588 20.9652C19.9872 20.7396 20.146 20.2068 19.915 19.7844L17.9752 16.1748C17.749 15.7524 17.2147 15.5892 16.7912 15.8196L16.7767 15.8292C16.3531 16.0548 16.1895 16.5876 16.4205 17.01L18.3603 20.6196C18.5865 21.042 19.116 21.2052 19.5444 20.9748Z" fill="white" stroke="#252525" stroke-miterlimit="10"/>
<path d="M14.8803 25.7795L14.8755 25.7987C14.7744 26.2691 14.3123 26.5715 13.8406 26.4755L9.8215 25.6355C9.3498 25.5347 9.04656 25.0739 9.14282 24.6035L9.14764 24.5843C9.24872 24.1139 9.7108 23.8115 10.1825 23.9075L14.2016 24.7475C14.6782 24.8435 14.9766 25.3091 14.8803 25.7795Z" fill="white" stroke="#252525" stroke-miterlimit="10"/>
<path d="M14.6588 32.3222L14.654 32.303C14.5193 31.8422 14.0331 31.5734 13.5662 31.7126L9.62891 32.8645C9.16683 32.9989 8.89729 33.4837 9.03687 33.9493L9.04169 33.9685C9.17646 34.4293 9.66261 34.6981 10.1295 34.5589L14.0668 33.4069C14.5289 33.2725 14.7936 32.783 14.6588 32.3222Z" fill="white" stroke="#252525" stroke-miterlimit="10"/>
<path d="M36.8192 25.7795L36.824 25.7987C36.9251 26.2691 37.3872 26.5715 37.8589 26.4755L41.8781 25.6355C42.3498 25.5347 42.653 25.0739 42.5567 24.6035L42.5519 24.5843C42.4508 24.1139 41.9888 23.8115 41.5171 23.9075L37.4979 24.7475C37.0214 24.8435 36.7182 25.3091 36.8192 25.7795Z" fill="white" stroke="#252525" stroke-miterlimit="10"/>
<path d="M37.0361 32.3222L37.0409 32.303C37.1757 31.8422 37.6618 31.5734 38.1287 31.7126L42.066 32.8645C42.5281 32.9989 42.7977 33.4837 42.6581 33.9493L42.6533 33.9685C42.5185 34.4293 42.0324 34.6981 41.5655 34.5589L37.6282 33.4069C37.1661 33.2725 36.9013 32.783 37.0361 32.3222Z" fill="white" stroke="#252525" stroke-miterlimit="10"/>
<defs>
<linearGradient id="paint0_linear_143_1129" x1="115.725" y1="68.344" x2="96" y2="68.344" gradientUnits="userSpaceOnUse">
<stop stop-color="#CB11AB"/>
<stop offset="1" stop-color="#481173"/>
</linearGradient>
<clipPath id="clip0_143_1129">
<rect width="27" height="44" fill="white" transform="translate(139 68)"/>
</clipPath>
</defs>
</svg>
