<svg width="45" height="44" viewBox="0 0 45 44" fill="none" xmlns="http://www.w3.org/2000/svg">
<path d="M13.747 22L0 30.6255V13.3745L13.747 22ZM31.253 22L45 30.6255V13.3745L31.253 22ZM29.2445 23.2639L23.0982 27.1192C22.9171 27.2303 22.7085 27.2885 22.5 27.2885C22.2915 27.2885 22.0829 27.2303 21.9018 27.1192L15.7555 23.2639L0.910976 32.5769L0.0493903 33.1163C0.318293 34.6077 1.66829 35.75 3.29268 35.75H41.7073C43.3317 35.75 44.6817 34.613 44.9506 33.1163L44.0835 32.5769L29.2445 23.2639ZM22.5 24.9668L44.0835 11.4231L44.9506 10.8837C44.6817 9.38702 43.3317 8.25 41.7073 8.25H3.29268C1.66829 8.25 0.318293 9.39231 0.0493903 10.8837L0.910976 11.4231L22.5 24.9668Z" fill="url(#paint0_linear_1_302)"/>
<defs>
<linearGradient id="paint0_linear_1_302" x1="45" y1="22" x2="0" y2="22" gradientUnits="userSpaceOnUse">
<stop stop-color="#CB11AB"/>
<stop offset="1" stop-color="#481173"/>
</linearGradient>
</defs>
</svg>
