<svg width="24" height="24" viewBox="0 0 24 24" fill="none" xmlns="http://www.w3.org/2000/svg">
<path d="M17.7994 17.6059H5.50696C5.10741 17.6054 4.72435 17.4465 4.44183 17.164C4.15932 16.8814 4.00042 16.4983 4 16.0988V8.5071C4.00042 8.10755 4.15932 7.72448 4.44183 7.44193C4.72435 7.15939 5.10741 7.00046 5.50696 7H17.7994C18.1989 7.00046 18.582 7.15939 18.8645 7.44193C19.147 7.72448 19.3059 8.10755 19.3063 8.5071V16.0988C19.3059 16.4983 19.147 16.8814 18.8645 17.164C18.582 17.4465 18.1989 17.6054 17.7994 17.6059ZM5.50696 7.576C5.26011 7.57627 5.02345 7.67446 4.84892 7.84902C4.67438 8.02358 4.57623 8.26026 4.576 8.5071V16.0988C4.57623 16.3456 4.67438 16.5823 4.84892 16.7569C5.02345 16.9314 5.26011 17.0296 5.50696 17.0299H17.7994C18.0462 17.0296 18.2829 16.9314 18.4574 16.7569C18.632 16.5823 18.7301 16.3456 18.7303 16.0988V8.5071C18.7301 8.26026 18.632 8.02358 18.4574 7.84902C18.2829 7.67446 18.0462 7.57627 17.7994 7.576H5.50696Z" fill="black"/>
<path d="M17.7994 17.6059H5.50696C5.10741 17.6054 4.72435 17.4465 4.44183 17.164C4.15932 16.8814 4.00042 16.4983 4 16.0988V8.5071C4.00042 8.10755 4.15932 7.72448 4.44183 7.44193C4.72435 7.15939 5.10741 7.00046 5.50696 7H17.7994C18.1989 7.00046 18.582 7.15939 18.8645 7.44193C19.147 7.72448 19.3059 8.10755 19.3063 8.5071V16.0988C19.3059 16.4983 19.147 16.8814 18.8645 17.164C18.582 17.4465 18.1989 17.6054 17.7994 17.6059ZM5.50696 7.576C5.26011 7.57627 5.02345 7.67446 4.84892 7.84902C4.67438 8.02358 4.57623 8.26026 4.576 8.5071V16.0988C4.57623 16.3456 4.67438 16.5823 4.84892 16.7569C5.02345 16.9314 5.26011 17.0296 5.50696 17.0299H17.7994C18.0462 17.0296 18.2829 16.9314 18.4574 16.7569C18.632 16.5823 18.7301 16.3456 18.7303 16.0988V8.5071C18.7301 8.26026 18.632 8.02358 18.4574 7.84902C18.2829 7.67446 18.0462 7.57627 17.7994 7.576H5.50696Z" fill="black"/>
<path d="M11.6529 13.9979C11.5827 13.9979 11.5149 13.9723 11.4623 13.9259L4.52148 7.79894L4.90265 7.36694L11.6529 13.3263L18.4035 7.36766L18.7847 7.79966L11.8439 13.9266C11.7911 13.9729 11.7232 13.9983 11.6529 13.9979Z" fill="black"/>
<path d="M11.6529 13.9979C11.5827 13.9979 11.5149 13.9723 11.4623 13.9259L4.52148 7.79894L4.90265 7.36694L11.6529 13.3263L18.4035 7.36766L18.7847 7.79966L11.8439 13.9266C11.7911 13.9729 11.7232 13.9983 11.6529 13.9979Z" fill="black"/>
<path d="M4.36523 16.7014L9.02799 11.3887L9.46114 11.7689L4.79839 17.0816L4.36523 16.7014Z" fill="black"/>
<path d="M4.36523 16.7014L9.02799 11.3887L9.46114 11.7689L4.79839 17.0816L4.36523 16.7014Z" fill="black"/>
<path d="M13.8604 11.7634L14.2935 11.3833L18.9563 16.6961L18.5232 17.0762L13.8604 11.7634Z" fill="black"/>
<path d="M13.8604 11.7634L14.2935 11.3833L18.9563 16.6961L18.5232 17.0762L13.8604 11.7634Z" fill="black"/>
</svg>
