<svg width="60" height="44" viewBox="0 0 60 44" fill="none" xmlns="http://www.w3.org/2000/svg">
<path d="M51.4201 43.3199H8.58008C6.32655 43.3173 4.16608 42.4209 2.57259 40.8274C0.979108 39.2339 0.0827247 37.0735 0.0800781 34.8199V9.17993C0.0827247 6.9264 0.979108 4.76593 2.57259 3.17245C4.16608 1.57896 6.32655 0.682578 8.58008 0.679932H51.4201C53.6736 0.682578 55.8341 1.57896 57.4276 3.17245C59.0211 4.76593 59.9174 6.9264 59.9201 9.17993V34.8199C59.9174 37.0735 59.0211 39.2339 57.4276 40.8274C55.8341 42.4209 53.6736 43.3173 51.4201 43.3199V43.3199ZM8.58008 3.67993C7.12139 3.67993 5.72244 4.25939 4.69099 5.29084C3.65954 6.32229 3.08008 7.72124 3.08008 9.17993V34.8199C3.08008 36.2786 3.65954 37.6776 4.69099 38.709C5.72244 39.7405 7.12139 40.3199 8.58008 40.3199H51.4201C52.8788 40.3199 54.2777 39.7405 55.3092 38.709C56.3406 37.6776 56.9201 36.2786 56.9201 34.8199V9.17993C56.9201 7.72124 56.3406 6.32229 55.3092 5.29084C54.2777 4.25939 52.8788 3.67993 51.4201 3.67993H8.58008Z" fill="#A43FD4"/>
<path d="M30.0001 28.08C28.1497 28.0829 26.3487 27.4825 24.8701 26.37L1.52013 8.70997C1.35516 8.59418 1.21521 8.44633 1.10864 8.27525C1.00207 8.10417 0.93108 7.91337 0.899897 7.71425C0.868714 7.51512 0.877982 7.31175 0.927147 7.11628C0.976313 6.92081 1.06437 6.73726 1.18605 6.57658C1.30774 6.41591 1.46055 6.2814 1.63538 6.1811C1.81021 6.0808 2.00345 6.01676 2.20358 5.99281C2.40371 5.96886 2.60661 5.98548 2.80017 6.04169C2.99372 6.0979 3.17397 6.19255 3.33013 6.31997L26.6801 24C27.639 24.7158 28.8035 25.1025 30.0001 25.1025C31.1967 25.1025 32.3613 24.7158 33.3201 24L56.6701 6.31997C56.8263 6.19255 57.0065 6.0979 57.2001 6.04169C57.3937 5.98548 57.5966 5.96886 57.7967 5.99281C57.9968 6.01676 58.1901 6.0808 58.3649 6.1811C58.5397 6.2814 58.6925 6.41591 58.8142 6.57658C58.9359 6.73726 59.024 6.92081 59.0731 7.11628C59.1223 7.31175 59.1316 7.51512 59.1004 7.71425C59.0692 7.91337 58.9982 8.10417 58.8916 8.27525C58.7851 8.44633 58.6451 8.59418 58.4801 8.70997L35.1301 26.37C33.6515 27.4825 31.8506 28.0829 30.0001 28.08V28.08Z" fill="#A43FD4"/>
<path d="M2.17017 39.14C1.86595 39.1404 1.56877 39.0484 1.31809 38.876C1.06741 38.7036 0.875061 38.4591 0.766577 38.1749C0.658093 37.8906 0.638599 37.5801 0.710682 37.2846C0.782765 36.989 0.943017 36.7224 1.17017 36.52L19.5702 20.11C19.8672 19.8448 20.2574 19.7084 20.655 19.7309C21.0526 19.7534 21.425 19.9329 21.6902 20.23C21.9554 20.527 22.0917 20.9173 22.0692 21.3148C22.0467 21.7124 21.8672 22.0848 21.5702 22.35L3.17017 38.76C2.89692 39.0086 2.53958 39.1444 2.17017 39.14V39.14ZM57.8302 39.14C57.4608 39.1444 57.1034 39.0086 56.8302 38.76L38.4302 22.35C38.2831 22.2187 38.1633 22.0597 38.0777 21.882C37.9921 21.7044 37.9422 21.5117 37.9311 21.3148C37.92 21.118 37.9477 20.9208 38.0127 20.7347C38.0778 20.5486 38.1789 20.3771 38.3102 20.23C38.4415 20.0829 38.6005 19.9631 38.7781 19.8775C38.9557 19.7919 39.1485 19.7421 39.3453 19.7309C39.5422 19.7198 39.7393 19.7475 39.9254 19.8126C40.1116 19.8776 40.2831 19.9787 40.4302 20.11L58.8202 36.52C59.0473 36.7224 59.2076 36.989 59.2797 37.2846C59.3517 37.5801 59.3323 37.8906 59.2238 38.1749C59.1153 38.4591 58.9229 38.7036 58.6723 38.876C58.4216 39.0484 58.1244 39.1404 57.8202 39.14H57.8302Z" fill="#A43FD4"/>
</svg>
