<svg width="28" height="28" viewBox="0 0 28 28" fill="none" xmlns="http://www.w3.org/2000/svg">
<path d="M14 2.8C13.8745 2.80076 13.7493 2.8142 13.6264 2.84011L13.6245 2.83828L4.32036 4.69948L4.31854 4.70131C3.89182 4.78232 3.50671 5.0096 3.22954 5.344C2.95237 5.67841 2.80049 6.099 2.80005 6.53334V21.4667C2.80014 21.9016 2.95209 22.3228 3.22966 22.6576C3.50723 22.9924 3.893 23.2198 4.32036 23.3005L13.6245 25.1617C13.7481 25.1871 13.8739 25.2 14 25.2C14.4951 25.2 14.9699 25.0033 15.32 24.6533C15.67 24.3032 15.8667 23.8284 15.8667 23.3333V4.66667C15.8667 4.1716 15.67 3.6968 15.32 3.34674C14.9699 2.99667 14.4951 2.8 14 2.8ZM17.7334 4.66667V7.46667H19.6V9.33334H17.7334V11.2H19.6V13.0667H17.7334V14.9333H19.6V16.8H17.7334V18.6667H19.6V20.5333H17.7334V23.3333H23.3334C24.3647 23.3333 25.2 22.498 25.2 21.4667V6.53334C25.2 5.502 24.3647 4.66667 23.3334 4.66667H17.7334ZM21.4667 7.46667H22.4C22.9152 7.46667 23.3334 7.8848 23.3334 8.4C23.3334 8.9152 22.9152 9.33334 22.4 9.33334H21.4667V7.46667ZM5.77323 9.33334H8.01541L9.17661 12.1242C9.27088 12.352 9.34626 12.6158 9.41906 12.9154H9.45005C9.49205 12.7352 9.57468 12.4617 9.70161 12.1023L10.9995 9.33334H13.0412L10.6021 13.9581L13.1141 18.6648H10.9357L9.53208 15.6242C9.47888 15.5169 9.41664 15.3004 9.36437 15.0008H9.34432C9.31259 15.1445 9.24994 15.3613 9.15474 15.6497L7.74198 18.6667H5.55265L8.15031 13.9945L5.77323 9.33334ZM21.4667 11.2H22.4C22.9152 11.2 23.3334 11.6181 23.3334 12.1333C23.3334 12.6485 22.9152 13.0667 22.4 13.0667H21.4667V11.2ZM21.4667 14.9333H22.4C22.9152 14.9333 23.3334 15.3515 23.3334 15.8667C23.3334 16.3819 22.9152 16.8 22.4 16.8H21.4667V14.9333ZM21.4667 18.6667H22.4C22.9152 18.6667 23.3334 19.0848 23.3334 19.6C23.3334 20.1152 22.9152 20.5333 22.4 20.5333H21.4667V18.6667Z" fill="#252525"/>
</svg>
