<svg width="22" height="22" viewBox="0 0 22 22" fill="none" xmlns="http://www.w3.org/2000/svg">
<path d="M10.8583 1.16904C10.905 1.0347 11.095 1.03471 11.1417 1.16904L13.4938 7.93589C13.5831 8.19268 13.8228 8.3668 14.0946 8.37234L21.2571 8.5183C21.3993 8.5212 21.458 8.70188 21.3446 8.7878L15.6358 13.1159C15.4192 13.2801 15.3277 13.5619 15.4064 13.8221L17.4809 20.6792C17.5221 20.8153 17.3684 20.9269 17.2517 20.8457L11.3713 16.7538C11.1481 16.5985 10.8519 16.5985 10.6287 16.7538L4.74835 20.8457C4.63161 20.9269 4.47791 20.8153 4.51909 20.6792L6.59362 13.8221C6.67234 13.5619 6.5808 13.2802 6.36416 13.1159L0.655361 8.7878C0.542029 8.70188 0.60074 8.5212 0.742925 8.5183L7.90544 8.37234C8.17725 8.3668 8.4169 8.19268 8.50616 7.93589L10.8583 1.16904Z" fill="#F6BA1E" stroke="#F6BA1E" stroke-width="0.5"/>
</svg>
