<svg width="24" height="24" viewBox="0 0 24 24" fill="none" xmlns="http://www.w3.org/2000/svg">
<path d="M0.662346 7.71675L11.1226 4.14594C11.6926 3.95135 12.3076 3.95135 12.8773 4.14594L23.3379 7.71675C24.2207 8.01799 24.2207 9.31507 23.3379 9.61632L21.5143 10.2388C21.9144 10.7884 22.1604 11.4588 22.1848 12.193C22.5459 12.423 22.8002 12.838 22.8002 13.3334C22.8002 13.7825 22.5872 14.1605 22.2804 14.4021L23.2378 19.1888C23.3211 19.605 23.0361 20 22.6524 20H20.5483C20.1643 20 19.8793 19.605 19.9625 19.1888L20.9199 14.4021C20.6132 14.1605 20.4002 13.7825 20.4002 13.3334C20.4002 12.8513 20.6428 12.448 20.9874 12.2138C20.9589 11.588 20.6709 11.0346 20.2115 10.6838L12.8776 13.1875C12.5379 13.3034 11.8861 13.448 11.123 13.1875L0.662346 9.61673C-0.220783 9.31507 -0.220783 8.01841 0.662346 7.71675ZM10.7705 14.4621C11.8404 14.8271 12.752 14.6255 13.2301 14.4621L18.6684 12.6059L19.2002 17.3334C19.2002 18.8063 15.9767 20 12.0001 20C8.02363 20 4.80011 18.8063 4.80011 17.3334L5.33186 12.6055L10.7705 14.4621Z" fill="#A43FD4"/>
</svg>
