<svg width="24" height="24" viewBox="0 0 24 24" fill="none" xmlns="http://www.w3.org/2000/svg">
<path d="M20 15.7656V1.98438C20 1.43887 19.594 1 19.0893 1H6.64286C4.6317 1 3 2.76367 3 4.9375V18.0625C3 20.2363 4.6317 22 6.64286 22H19.0893C19.594 22 20 21.5611 20 21.0156V20.3594C20 20.0518 19.8672 19.7729 19.6623 19.5924C19.5029 18.9607 19.5029 17.1602 19.6623 16.5285C19.8672 16.3521 20 16.0732 20 15.7656ZM7.85714 6.49609C7.85714 6.36074 7.9596 6.25 8.08482 6.25H16.1295C16.2547 6.25 16.3571 6.36074 16.3571 6.49609V7.31641C16.3571 7.45176 16.2547 7.5625 16.1295 7.5625H8.08482C7.9596 7.5625 7.85714 7.45176 7.85714 7.31641V6.49609ZM7.85714 9.12109C7.85714 8.98574 7.9596 8.875 8.08482 8.875H16.1295C16.2547 8.875 16.3571 8.98574 16.3571 9.12109V9.94141C16.3571 10.0768 16.2547 10.1875 16.1295 10.1875H8.08482C7.9596 10.1875 7.85714 10.0768 7.85714 9.94141V9.12109ZM17.4728 19.375H6.64286C5.97121 19.375 5.42857 18.7885 5.42857 18.0625C5.42857 17.3406 5.975 16.75 6.64286 16.75H17.4728C17.4007 17.4514 17.4007 18.6736 17.4728 19.375Z" fill="#A43FD4"/>
</svg>
