<svg width="24" height="24" viewBox="0 0 24 24" fill="none" xmlns="http://www.w3.org/2000/svg">
<path d="M21.4911 5.84637C19.6673 2.18717 15.1703 1.79694 12.7863 5.74673L11.9994 7.05059L11.2125 5.74668C8.82902 1.79696 4.3326 2.18718 2.50887 5.84635C0.386985 10.1038 3.27997 15.8884 11.9995 20.8007C20.7198 15.8884 23.6131 10.1037 21.4911 5.84637ZM23.1368 5.01934C25.8111 10.3848 22.2788 17.2789 12.4401 22.6677L11.9994 22.909L11.5588 22.6677C1.72094 17.2789 -1.81093 10.3848 0.86321 5.01936C3.12482 0.481622 8.67297 -0.335826 11.9995 3.67683C15.3265 -0.335811 20.875 0.481611 23.1368 5.01934Z" fill="#000"/>
</svg>
