<svg width="16" height="16" viewBox="0 0 16 16" fill="none" xmlns="http://www.w3.org/2000/svg">
<path d="M13.9758 2.12046H12.6264V0.771092C12.6264 0.346968 12.2794 0 11.8555 0H2.02399C1.5999 0 1.25293 0.346968 1.25293 0.771092V13.1084C1.25293 13.5325 1.5999 13.8795 2.02402 13.8795H3.37343V15.2289C3.37343 15.653 3.72024 16 4.14452 16H10.6985C11.1224 16 11.7223 15.7621 12.031 15.4716L14.185 13.4441C14.494 13.1536 14.7465 12.5687 14.7465 12.1446L14.7469 2.89162C14.7469 2.46746 14.3999 2.12046 13.9758 2.12046ZM3.37336 2.89159V13.3012H2.02399C1.91952 13.3012 1.83124 13.2129 1.83124 13.1084V0.771092C1.83124 0.666624 1.91952 0.578343 2.02399 0.578343H11.8555C11.9598 0.578343 12.0483 0.666624 12.0483 0.771092V2.1205H4.14446C3.72018 2.1205 3.37336 2.46746 3.37336 2.89159ZM13.7886 13.023L11.6346 15.0504C11.5905 15.0919 11.533 15.1325 11.4696 15.1713V13.3976C11.4696 13.2651 11.523 13.146 11.6111 13.0573C11.6999 12.9692 11.8191 12.9157 11.9515 12.9157H13.8802C13.8503 12.9563 13.8197 12.9937 13.7886 13.023ZM14.1682 12.1445C14.1682 12.2018 14.1577 12.2681 14.1419 12.3373H11.9515C11.3664 12.3384 10.8924 12.8125 10.8912 13.3975V15.3983C10.8224 15.4122 10.7561 15.4216 10.6985 15.4216H4.14446V15.4216C4.03977 15.4216 3.95171 15.3333 3.95171 15.2289V2.89156C3.95171 2.78709 4.0398 2.69881 4.14446 2.69881H13.9757C14.0802 2.69881 14.1685 2.78709 14.1685 2.89156L14.1682 12.1445Z" fill="#4C1175"/>
<path d="M11.8551 4.81921H6.26474C6.10493 4.81921 5.97559 4.94856 5.97559 5.10837C5.97559 5.26818 6.10496 5.39752 6.26474 5.39752H11.8551C12.0147 5.39752 12.1442 5.26818 12.1442 5.10837C12.1442 4.94856 12.0147 4.81921 11.8551 4.81921Z" fill="#4C1175"/>
<path d="M11.8551 8.67468H6.26474C6.10493 8.67468 5.97559 8.80403 5.97559 8.96384C5.97559 9.12365 6.10496 9.25299 6.26474 9.25299H11.8551C12.0147 9.25299 12.1442 9.12365 12.1442 8.96384C12.1442 8.80399 12.0147 8.67468 11.8551 8.67468Z" fill="#4C1175"/>
<path d="M9.34905 10.6023H6.26474C6.10493 10.6023 5.97559 10.7316 5.97559 10.8915C5.97559 11.0513 6.10493 11.1806 6.26474 11.1806H9.34905C9.50867 11.1806 9.63802 11.0513 9.63802 10.8915C9.63802 10.7316 9.50867 10.6023 9.34905 10.6023Z" fill="#4C1175"/>
<path d="M11.8551 6.74695H6.26474C6.10493 6.74695 5.97559 6.87629 5.97559 7.0361C5.97559 7.19592 6.10496 7.32526 6.26474 7.32526H11.8551C12.0147 7.32526 12.1442 7.19592 12.1442 7.0361C12.1442 6.87629 12.0147 6.74695 11.8551 6.74695Z" fill="#4C1175"/>
</svg>
