<svg width="60" height="60" viewBox="0 0 60 60" fill="none" xmlns="http://www.w3.org/2000/svg">
<g clip-path="url(#clip0_0_992)">
<path d="M29.8142 3.3145C44.3512 3.3145 56.1784 15.0806 56.1784 29.5426C56.1784 44.0047 44.3512 55.7708 29.8142 55.7708C15.2771 55.7708 3.44991 44.0047 3.44991 29.5426C3.44991 15.0806 15.2771 3.3145 29.8142 3.3145ZM29.8142 -0.432373C13.1736 -0.432373 -0.316406 12.988 -0.316406 29.5426C-0.316406 46.0973 13.1736 59.5177 29.8142 59.5177C46.4547 59.5177 59.9447 46.0973 59.9447 29.5426C59.9447 12.988 46.4547 -0.432373 29.8142 -0.432373Z" fill="#FBEC9A"/>
<path d="M29.8143 55.9203C15.1942 55.9203 3.29941 44.087 3.29941 29.5423C3.29941 14.9977 15.1942 3.16431 29.8143 3.16431C44.4344 3.16431 56.3292 14.9977 56.3292 29.5423C56.3292 44.087 44.4344 55.9203 29.8143 55.9203Z" fill="url(#paint0_linear_0_992)"/>
<path d="M3.45108 29.5524C3.45108 15.0857 15.2819 3.31573 29.8235 3.31573C37.2878 3.31573 44.0325 6.42197 48.8351 11.3976L51.5082 8.7383C46.0265 3.08803 38.3399 -0.432373 29.8235 -0.432373C13.1778 -0.432373 -0.316406 12.9924 -0.316406 29.5524C-0.316406 38.025 3.2222 45.6721 8.90168 51.1247L11.5747 48.4654C6.57338 43.6884 3.45108 36.9784 3.45108 29.5524Z" fill="#FCF6C2"/>
<path d="M22.2599 48.7382L22.9316 48.9586L22.7023 49.4356L22.0305 49.2152C21.939 49.1851 21.8577 49.1754 21.7867 49.1861C21.7156 49.1968 21.6547 49.2237 21.6039 49.2668C21.5513 49.3106 21.5092 49.3654 21.4776 49.4311C21.4438 49.5016 21.4261 49.5712 21.4245 49.6399C21.4217 49.7083 21.44 49.77 21.4794 49.8251C21.5183 49.8813 21.5835 49.9244 21.6751 49.9545L22.1019 50.0946L23.1047 48.0087L23.7561 48.2224L22.5239 50.7854L21.4457 50.4315C21.2292 50.3605 21.0611 50.2618 20.9413 50.1355C20.8203 50.0089 20.7493 49.866 20.7284 49.707C20.7069 49.5491 20.7365 49.3863 20.8171 49.2185C20.8967 49.053 21.0082 48.9225 21.1515 48.8269C21.2949 48.7313 21.4618 48.6746 21.6522 48.6569C21.8408 48.64 22.0433 48.6671 22.2599 48.7382Z" fill="white"/>
<path d="M18.1578 46.1496C18.3021 46.2431 18.4141 46.3473 18.4938 46.4622C18.5727 46.5781 18.6213 46.6982 18.6397 46.8226C18.6569 46.9463 18.647 47.0694 18.61 47.1919C18.5719 47.3137 18.509 47.4279 18.4214 47.5345L18.3743 47.5919C18.2759 47.7116 18.1669 47.8105 18.0474 47.8888C17.927 47.968 17.7999 48.0228 17.666 48.0533C17.5321 48.0837 17.3943 48.0853 17.2525 48.0582C17.1099 48.0321 16.9675 47.973 16.8255 47.8809C16.6998 47.7995 16.6026 47.7079 16.5337 47.6063C16.4649 47.5046 16.4245 47.3968 16.4127 47.2828C16.3998 47.168 16.4159 47.0497 16.4608 46.9277C16.5047 46.8051 16.5771 46.6824 16.6779 46.5596L16.8478 46.3529L18.2967 47.2919L18.0351 47.6103L17.1254 47.0208L17.0932 47.06C17.0474 47.1136 17.0198 47.1666 17.0102 47.219C16.9996 47.2707 17.0062 47.3197 17.0301 47.366C17.054 47.4123 17.0949 47.4542 17.1528 47.4918C17.2129 47.5307 17.2725 47.5509 17.3317 47.5522C17.3898 47.5529 17.4471 47.5391 17.5037 47.511C17.5584 47.4832 17.6124 47.445 17.6658 47.3964C17.7192 47.3477 17.7707 47.2932 17.8203 47.2328L17.8674 47.1755C17.917 47.1151 17.9533 47.0547 17.9763 46.994C17.9983 46.9327 18.0068 46.8735 18.0018 46.8163C17.995 46.7594 17.9753 46.7059 17.943 46.6556C17.9095 46.6046 17.8616 46.559 17.7993 46.5186C17.7239 46.4697 17.6389 46.4347 17.5442 46.4134C17.4495 46.3921 17.3511 46.3946 17.2491 46.421L17.224 45.9839C17.2989 45.9599 17.3879 45.9475 17.4909 45.9464C17.5928 45.9446 17.7013 45.9594 17.8162 45.9907C17.9303 46.023 18.0442 46.076 18.1578 46.1496Z" fill="white"/>
<path d="M13.057 45.1008L14.7206 43.7976L15.1614 44.2863L13.4978 45.5896L13.057 45.1008ZM12.1401 44.084L13.8033 43.8801L14.1983 44.3181L13.7637 44.7526L13.5269 44.4901L12.7051 44.7106L12.1401 44.084ZM14.3596 43.3972L13.9471 44.2228L13.3209 43.9387L13.7618 42.7344L14.3596 43.3972Z" fill="white"/>
<path d="M11.3597 41.5655L11.3229 41.5834C11.1835 41.6512 11.0454 41.6937 10.9086 41.711C10.7705 41.7289 10.639 41.7204 10.5141 41.6856C10.3891 41.6509 10.2744 41.5886 10.1701 41.4989C10.0646 41.4098 9.97493 41.2912 9.90118 41.1432C9.82685 40.994 9.78611 40.851 9.77897 40.714C9.77007 40.5764 9.78978 40.4481 9.83811 40.3291C9.88644 40.2101 9.95987 40.102 10.0584 40.0048C10.1558 39.9083 10.2741 39.8261 10.4135 39.7584L10.4504 39.7405C10.5885 39.6733 10.7266 39.6307 10.8646 39.6129C11.0015 39.5956 11.133 39.604 11.2592 39.6382C11.3841 39.673 11.4988 39.7353 11.6031 39.825C11.7075 39.9147 11.7965 40.0335 11.8703 40.1815C11.944 40.3295 11.9853 40.4723 11.9942 40.6099C12.0031 40.7474 11.9834 40.8757 11.9351 40.9948C11.8856 41.1144 11.8122 41.2225 11.7148 41.319C11.6163 41.4162 11.4979 41.4983 11.3597 41.5655ZM11.0293 40.9943L11.0662 40.9764C11.1376 40.9416 11.2018 40.904 11.2586 40.8633C11.3154 40.8226 11.3612 40.7787 11.3958 40.7314C11.4293 40.6847 11.4485 40.6342 11.4533 40.5797C11.4582 40.5252 11.4449 40.4665 11.4136 40.4036C11.3828 40.3418 11.3444 40.2968 11.2983 40.2685C11.2516 40.2391 11.1993 40.2232 11.1415 40.221C11.0824 40.2193 11.0193 40.2283 10.952 40.2479C10.8847 40.2676 10.8153 40.2948 10.7439 40.3296L10.707 40.3475C10.6379 40.3811 10.5755 40.4179 10.5199 40.458C10.463 40.4987 10.4173 40.5426 10.3827 40.5899C10.3468 40.6377 10.3259 40.6891 10.3199 40.7442C10.3139 40.7992 10.3265 40.8582 10.3579 40.9212C10.3887 40.9829 10.428 41.0282 10.4758 41.0571C10.5231 41.0848 10.5768 41.0992 10.637 41.1003C10.696 41.102 10.7592 41.0931 10.8265 41.0734C10.8926 41.0543 10.9602 41.0279 11.0293 40.9943Z" fill="white"/>
<path d="M9.40788 36.0212L7.97827 35.847L7.89798 35.3436L10.0827 35.6469L10.1519 36.0809L8.20866 37.2916L8.12807 36.7863L9.40788 36.0212ZM8.15145 36.9329L10.2152 36.4782L10.3189 37.1282L8.25511 37.5829L8.15145 36.9329ZM10.0156 35.2265L7.95181 35.6811L7.84815 35.0311L9.91195 34.5765L10.0156 35.2265Z" fill="white"/>
<path d="M9.88521 30.7353C9.86126 30.9055 9.81316 31.0569 9.74092 31.1894C9.66738 31.322 9.57657 31.4333 9.46849 31.5233C9.36059 31.6121 9.24137 31.6792 9.11083 31.7247C8.98047 31.7688 8.84631 31.7888 8.70834 31.7848L8.63416 31.7827C8.47927 31.7782 8.3391 31.7528 8.21363 31.7064C8.08687 31.66 7.97992 31.5935 7.8928 31.5068C7.80568 31.4202 7.74368 31.3128 7.7068 31.1849C7.66862 31.0569 7.66133 30.9091 7.68492 30.7415C7.7058 30.5932 7.74857 30.4611 7.81324 30.3452C7.87791 30.2292 7.96087 30.132 8.06211 30.0533C8.16353 29.9734 8.28101 29.914 8.41455 29.8752C8.54827 29.835 8.69453 29.8173 8.85332 29.8219L9.12078 29.8296L8.88012 31.5393L8.46819 31.5274L8.61928 30.454L8.56852 30.4525C8.49842 30.4492 8.43682 30.4597 8.38373 30.4841C8.33083 30.5071 8.288 30.5421 8.25526 30.5891C8.22251 30.636 8.20133 30.6937 8.19171 30.762C8.18173 30.8329 8.18909 30.892 8.21379 30.9394C8.23867 30.9854 8.27663 31.0221 8.32767 31.0495C8.37758 31.0755 8.43696 31.0947 8.50579 31.1071C8.57462 31.1194 8.64808 31.1267 8.72617 31.129L8.80036 31.1311C8.87845 31.1334 8.95084 31.1251 9.01752 31.1064C9.08438 31.0863 9.1434 31.0569 9.19458 31.0183C9.24464 30.9783 9.28603 30.9303 9.31874 30.8743C9.35164 30.817 9.37326 30.7516 9.3836 30.6781C9.39613 30.5891 9.39155 30.5009 9.36987 30.4136C9.34819 30.3262 9.30266 30.2504 9.23328 30.1863L9.63025 29.9007C9.68543 29.945 9.73612 30.0073 9.78232 30.0876C9.8287 30.1666 9.86248 30.2608 9.88368 30.3702C9.90358 30.4795 9.90409 30.6012 9.88521 30.7353Z" fill="white"/>
<path d="M8.79524 24.6197L9.28258 24.7553L8.8696 25.7258L8.38226 25.5902L8.79524 24.6197ZM7.68228 25.1482L9.7182 25.7147L9.46048 26.3204L7.42455 25.7538L7.68228 25.1482ZM8.16638 24.0106L10.2023 24.5771L9.94381 25.1846L7.90789 24.618L8.16638 24.0106Z" fill="white"/>
<path d="M8.94816 20.4539L9.34801 19.931L9.91492 20.2785C10.1186 20.4038 10.2786 20.531 10.3948 20.6601C10.5106 20.7874 10.5913 20.915 10.6369 21.0427C10.6813 21.1698 10.6971 21.2949 10.6843 21.4181C10.6712 21.5396 10.6378 21.6566 10.5843 21.7692L10.5416 21.8251L10.1032 21.5809L10.1273 21.5366C10.1076 21.4347 10.0806 21.3487 10.0462 21.2787C10.0115 21.207 9.96886 21.1456 9.91834 21.0946C9.86861 21.0426 9.81061 20.9939 9.74433 20.9486C9.67694 20.9026 9.60052 20.8535 9.51508 20.8014L8.94816 20.4539ZM9.05969 20.308L9.94718 19.1476L11.7648 20.2255L11.3662 20.7468L9.9853 19.9279L9.49647 20.5671L9.05969 20.308ZM10.0134 21.6855L11.5203 19.7152L12.5081 20.301L12.1082 20.8238L11.5572 20.497L10.8607 21.4077L11.4118 21.7345L11.0012 22.2713L10.0134 21.6855Z" fill="white"/>
<path d="M15.0781 16.3265L14.1928 14.6422L14.7349 14.1882L15.7815 16.4689C15.8048 16.5188 15.8264 16.5752 15.8463 16.6382C15.867 16.7021 15.877 16.7708 15.8762 16.8442C15.8755 16.9177 15.8559 16.9933 15.8176 17.0711C15.7803 17.1481 15.7158 17.225 15.6239 17.302C15.575 17.3429 15.5368 17.3707 15.5093 17.3853C15.4837 17.3999 15.4429 17.4214 15.387 17.4496L15.0578 17.1132C15.0708 17.1023 15.0817 17.0931 15.0907 17.0856C15.1007 17.0772 15.1117 17.068 15.1237 17.058C15.1776 17.0129 15.2155 16.9718 15.2374 16.9348C15.2603 16.897 15.2707 16.8612 15.2686 16.8274C15.2674 16.7928 15.2582 16.7574 15.2408 16.7211L15.0781 16.3265ZM13.6673 15.0824L15.0203 15.872L15.5633 16.324L15.2249 16.6074L13.1268 15.5351L13.6673 15.0824Z" fill="white"/>
<path d="M18.2254 13.0696L18.1484 11.7243L18.7309 11.4178L19.7509 13.2686L19.1684 13.5752L18.5745 12.4975L18.6534 13.8462L18.0692 14.1536L17.0492 12.3028L17.6334 11.9954L18.2254 13.0696ZM17.7151 10.9462L18.1143 10.736C18.1709 10.8387 18.1947 10.9439 18.1857 11.0516C18.1772 11.1575 18.1374 11.2579 18.0663 11.3527C17.9951 11.4475 17.8945 11.5292 17.7642 11.5977C17.5672 11.7014 17.3844 11.7351 17.2157 11.6988C17.0464 11.6614 16.9191 11.5651 16.8336 11.41L17.2311 11.2008C17.2619 11.2567 17.308 11.2972 17.3694 11.3223C17.4308 11.3473 17.5058 11.3365 17.5946 11.2898C17.6833 11.2431 17.7333 11.1881 17.7445 11.1249C17.7557 11.0616 17.7459 11.002 17.7151 10.9462Z" fill="white"/>
<path d="M27.36 9.72473L27.9027 8.43293L28.5567 8.35858L28.6181 10.471L27.9641 10.5453L27.9284 9.31537L27.3858 10.6111L26.7299 10.6856L26.6684 8.57326L27.3244 8.49868L27.36 9.72473Z" fill="white"/>
<path d="M36.4728 10.5208L36.0551 10.4046L36.1591 10.1602L36.4207 10.2329C36.4746 10.2479 36.5212 10.2522 36.5604 10.2457C36.6009 10.2396 36.6346 10.2248 36.6614 10.2014C36.6899 10.1772 36.7118 10.1471 36.7271 10.1112C36.7404 10.08 36.7475 10.0485 36.7484 10.0166C36.7506 9.98507 36.7407 9.95552 36.7188 9.92797C36.6968 9.90042 36.6564 9.87845 36.5974 9.86204C36.5485 9.84843 36.5033 9.84255 36.4618 9.84441C36.4204 9.84627 36.3842 9.85698 36.3535 9.87656C36.3232 9.89493 36.2999 9.92329 36.2836 9.96163L35.6476 9.78465C35.7011 9.65885 35.7844 9.56209 35.8974 9.49438C36.0109 9.42546 36.1409 9.38527 36.2875 9.3738C36.4346 9.36113 36.5847 9.37609 36.7377 9.41868C36.8719 9.45603 36.9882 9.50247 37.0867 9.558C37.1856 9.61233 37.2638 9.67428 37.3212 9.74385C37.3785 9.81341 37.4129 9.8893 37.4242 9.97151C37.4373 10.0529 37.4242 10.1397 37.3849 10.2319C37.3569 10.2978 37.3141 10.3556 37.2565 10.4052C37.1989 10.4549 37.1297 10.4939 37.0488 10.5223C36.9685 10.5495 36.8791 10.5635 36.7805 10.5642C36.6833 10.5653 36.5807 10.5508 36.4728 10.5208ZM36.1102 10.2752L36.5279 10.3914C36.6483 10.4249 36.7495 10.4658 36.8314 10.5141C36.915 10.5614 36.979 10.6154 37.0234 10.676C37.0677 10.7366 37.0921 10.803 37.0964 10.8752C37.1025 10.9466 37.0883 11.023 37.0536 11.1045C37.0143 11.1968 36.9566 11.2732 36.8803 11.3337C36.8046 11.393 36.7146 11.4363 36.6104 11.4636C36.5062 11.4909 36.392 11.502 36.2679 11.4969C36.1438 11.4919 36.0146 11.4707 35.8804 11.4333C35.7386 11.3939 35.6105 11.3341 35.4958 11.2539C35.3812 11.1738 35.3004 11.0769 35.2533 10.9633C35.2063 10.8497 35.2128 10.7223 35.273 10.5809L35.909 10.7579C35.8952 10.7902 35.8919 10.8228 35.899 10.8556C35.9061 10.8884 35.9261 10.9187 35.9591 10.9467C35.9939 10.9738 36.0439 10.9964 36.1091 11.0146C36.1731 11.0324 36.227 11.036 36.2707 11.0254C36.3158 11.0151 36.3521 10.9957 36.3797 10.9672C36.4085 10.9391 36.43 10.9082 36.4443 10.8747C36.4662 10.8232 36.4738 10.779 36.467 10.7423C36.4602 10.7056 36.4397 10.6744 36.4057 10.6489C36.3735 10.6225 36.3285 10.6012 36.2708 10.5852L36.0092 10.5124L36.1102 10.2752Z" fill="white"/>
<path d="M40.9441 12.4613L41.4635 11.7619C41.4992 11.7139 41.5225 11.6684 41.5334 11.6255C41.5443 11.5826 41.541 11.5426 41.5233 11.5057C41.5064 11.4678 41.4714 11.4336 41.4182 11.4032C41.3753 11.3787 41.3335 11.3644 41.2929 11.3606C41.2523 11.3567 41.214 11.3639 41.178 11.382C41.142 11.4001 41.1084 11.4301 41.0774 11.4719L40.506 11.1451C40.5642 11.0667 40.6368 11.0048 40.7238 10.9592C40.8127 10.9132 40.9108 10.8852 41.0182 10.8751C41.1266 10.8656 41.2401 10.8754 41.3587 10.9045C41.4791 10.9331 41.6003 10.9824 41.7224 11.0522C41.8682 11.1356 41.9815 11.2324 42.0623 11.3426C42.1442 11.4535 42.1851 11.573 42.1851 11.701C42.1858 11.828 42.136 11.9589 42.0359 12.0938L41.52 12.7884C41.4378 12.8992 41.382 12.9873 41.3529 13.0525C41.3246 13.1167 41.3069 13.1774 41.2999 13.2344L41.2801 13.2611L40.7071 12.9334C40.7188 12.8656 40.7458 12.7902 40.7881 12.7072C40.8323 12.6237 40.8843 12.5418 40.9441 12.4613ZM41.4666 11.8911L41.2604 12.1753L41.0078 12.0308C40.9546 12.0004 40.9044 11.9813 40.857 11.9736C40.8107 11.9665 40.7674 11.9685 40.7269 11.9796C40.6884 11.9904 40.6531 12.0074 40.6212 12.0309C40.5904 12.055 40.563 12.0832 40.5389 12.1156C40.5157 12.147 40.5026 12.1798 40.4998 12.2139C40.4989 12.2476 40.5075 12.2794 40.5257 12.3091C40.5439 12.3389 40.5705 12.3638 40.6055 12.3838C40.6688 12.42 40.7306 12.4397 40.791 12.443C40.8533 12.4459 40.9084 12.4379 40.9562 12.419C41.004 12.4002 41.0384 12.3767 41.0593 12.3484L41.0241 12.6366C40.9704 12.6655 40.913 12.6929 40.8518 12.719C40.7917 12.7457 40.7266 12.7651 40.6565 12.7771C40.5882 12.7887 40.5151 12.7886 40.437 12.7767C40.3596 12.7637 40.2774 12.7323 40.1904 12.6826C40.0774 12.6179 39.9893 12.537 39.9262 12.4399C39.8642 12.3434 39.8333 12.2408 39.8334 12.1322C39.8344 12.0225 39.8721 11.9175 39.9466 11.8171C40.0118 11.7293 40.087 11.6606 40.1721 11.611C40.2584 11.562 40.3545 11.5336 40.4602 11.5256C40.566 11.5175 40.6825 11.532 40.8096 11.569C40.9368 11.6059 41.0738 11.6664 41.2208 11.7505L41.4666 11.8911Z" fill="white"/>
<path d="M45.4113 13.9009L43.5012 15.544L43.0333 15.0811L45.2513 13.1731L45.6873 13.6044L45.4113 13.9009ZM45.8594 15.2206L45.8283 15.2473C45.7118 15.3475 45.5913 15.4282 45.4666 15.4892C45.3419 15.5502 45.218 15.5883 45.0949 15.6035C44.9718 15.6186 44.853 15.6079 44.7384 15.5712C44.6257 15.5346 44.5217 15.4691 44.4264 15.3748C44.3366 15.286 44.2805 15.1912 44.2582 15.0906C44.2358 14.99 44.2404 14.8859 44.2719 14.7783C44.3034 14.6708 44.3541 14.5621 44.424 14.4523C44.4939 14.3425 44.5748 14.2336 44.6666 14.1255L44.7066 14.0911C44.8378 14.0073 44.9662 13.9362 45.0918 13.8779C45.2183 13.8187 45.3404 13.7787 45.4579 13.7581C45.5754 13.7374 45.6869 13.7409 45.7922 13.7684C45.8985 13.7968 45.9965 13.8555 46.0863 13.9443C46.1816 14.0386 46.2461 14.138 46.2798 14.2426C46.3145 14.3481 46.3203 14.456 46.2973 14.5666C46.2762 14.6772 46.2283 14.7877 46.1536 14.8982C46.0789 15.0087 45.9808 15.1161 45.8594 15.2206ZM45.3604 14.7844L45.3915 14.7577C45.4537 14.7042 45.5063 14.6512 45.5493 14.5988C45.5933 14.5456 45.6252 14.4933 45.6452 14.4418C45.6661 14.3913 45.6721 14.3425 45.6633 14.2953C45.6544 14.2482 45.6282 14.2031 45.5847 14.1601C45.5347 14.1106 45.4842 14.0762 45.4331 14.0567C45.384 14.0374 45.3325 14.032 45.2786 14.0408C45.2266 14.0495 45.1717 14.071 45.114 14.1053C45.0583 14.1395 44.9983 14.1852 44.934 14.2421L44.8126 14.3466C44.7357 14.4093 44.6766 14.473 44.635 14.5379C44.5945 14.6018 44.5779 14.6666 44.5852 14.7323C44.5925 14.7979 44.6294 14.8637 44.6961 14.9296C44.7405 14.9736 44.7884 15.0009 44.8397 15.0115C44.8921 15.0213 44.9468 15.0179 45.0038 15.0013C45.0619 14.9839 45.1208 14.9563 45.1805 14.9186C45.2402 14.881 45.3002 14.8362 45.3604 14.7844Z" fill="white"/>
<path d="M47.7653 19.2889L48.5296 18.871C48.5821 18.8422 48.623 18.8102 48.6523 18.775C48.6815 18.7397 48.6973 18.7007 48.6996 18.6579C48.703 18.6144 48.6894 18.5662 48.6588 18.5133C48.634 18.4704 48.6054 18.4378 48.5729 18.4155C48.5405 18.3932 48.5048 18.3823 48.466 18.3828C48.4272 18.3832 48.3849 18.396 48.3392 18.4209L48.0097 17.8512C48.0954 17.8043 48.1855 17.7795 48.2801 17.7767C48.3766 17.7744 48.4724 17.7932 48.5677 17.8331C48.6636 17.8742 48.7547 17.9356 48.8412 18.0174C48.9294 18.0997 49.0087 18.2018 49.0791 18.3235C49.1632 18.4689 49.2136 18.6119 49.2303 18.7526C49.2477 18.8945 49.2265 19.0255 49.1667 19.1457C49.1081 19.2653 49.005 19.3654 48.8577 19.446L48.0985 19.8611C47.9774 19.9273 47.8894 19.9844 47.8343 20.0322C47.7805 20.0795 47.7373 20.1283 47.7048 20.1787L47.6757 20.1947L47.3451 19.6232C47.3866 19.5649 47.4446 19.5065 47.519 19.448C47.5952 19.39 47.6773 19.337 47.7653 19.2889ZM48.472 18.9937L48.1655 19.1657L48.0198 18.9138C47.9892 18.8609 47.9557 18.8198 47.9193 18.7908C47.8836 18.7628 47.8461 18.7447 47.8067 18.7366C47.7692 18.7289 47.7315 18.7287 47.6937 18.7361C47.6565 18.7446 47.6202 18.7585 47.5847 18.7778C47.5505 18.7966 47.5242 18.8213 47.5059 18.8521C47.4894 18.8834 47.4819 18.9172 47.4833 18.9535C47.4848 18.9898 47.4956 19.0254 47.5158 19.0603C47.5523 19.1235 47.5953 19.1704 47.6447 19.2013C47.6959 19.2326 47.7461 19.2504 47.7952 19.2547C47.8443 19.259 47.8843 19.2528 47.9151 19.2359L47.751 19.4903C47.6922 19.4928 47.631 19.4921 47.5672 19.4884C47.504 19.4859 47.4401 19.4741 47.3753 19.4531C47.3124 19.4327 47.2507 19.3989 47.1904 19.3518C47.1312 19.304 47.0765 19.2368 47.0263 19.15C46.9611 19.0373 46.9245 18.9208 46.9166 18.8005C46.9094 18.6813 46.9311 18.5707 46.9819 18.4688C47.0339 18.3662 47.1147 18.2849 47.2244 18.225C47.3203 18.1725 47.4158 18.1425 47.5107 18.1351C47.6064 18.1288 47.7006 18.1463 47.7936 18.1874C47.8866 18.2285 47.9781 18.2957 48.0681 18.3889C48.1581 18.4822 48.2455 18.602 48.3302 18.7485L48.472 18.9937Z" fill="white"/>
<path d="M52.1366 22.7899L52.2675 23.3028C52.1776 23.3295 52.0941 23.3441 52.0169 23.3467C51.9409 23.3489 51.8676 23.3327 51.797 23.298C51.7276 23.263 51.659 23.2019 51.5911 23.1149C51.5248 23.0287 51.4567 22.9092 51.3867 22.7562C51.3403 22.6587 51.2838 22.5818 51.2171 22.5256C51.1504 22.4694 51.0697 22.4323 50.9751 22.4143C50.8821 22.3971 50.7722 22.3979 50.6454 22.4166C50.5189 22.4365 50.3725 22.4732 50.2062 22.5267L50.1556 22.5417L49.9449 22.079L49.9954 22.064C50.2466 21.9907 50.4701 21.9481 50.6657 21.9361C50.8627 21.9238 51.0349 21.9384 51.1825 21.9801C51.3305 22.023 51.457 22.0899 51.5621 22.1808C51.6672 22.2718 51.7534 22.3832 51.8207 22.5153C51.8636 22.5989 51.9006 22.6626 51.9319 22.7062C51.9635 22.7511 51.9948 22.7791 52.0259 22.7903C52.0572 22.8027 52.0941 22.8026 52.1366 22.7899ZM51.0892 22.9321C51.1253 23.0734 51.1335 23.2054 51.1137 23.328C51.094 23.4506 51.0504 23.5612 50.983 23.66C50.9155 23.7588 50.828 23.8445 50.7203 23.9172C50.6139 23.9895 50.492 24.0461 50.3547 24.0869L50.3154 24.0986C50.1781 24.1394 50.0453 24.1557 49.9171 24.1477C49.79 24.1393 49.6728 24.1062 49.5654 24.0486C49.4581 23.9909 49.3649 23.9073 49.2859 23.7977C49.2072 23.6894 49.1474 23.5552 49.1065 23.395C49.0656 23.2347 49.0556 23.085 49.0764 22.9458C49.0985 22.8062 49.1469 22.6799 49.2214 22.5668C49.2962 22.455 49.3931 22.3583 49.5119 22.2769C49.6308 22.1954 49.7676 22.1317 49.9224 22.0857L49.9617 22.074C49.9789 22.0676 49.9978 22.0735 50.0186 22.0917C50.0409 22.1109 50.068 22.1327 50.0998 22.1572C50.1331 22.1826 50.1742 22.2016 50.2231 22.2142C50.397 22.2589 50.542 22.3142 50.6582 22.3802C50.7757 22.4457 50.8688 22.5239 50.9377 22.6147C51.0078 22.7052 51.0583 22.811 51.0892 22.9321ZM50.5715 22.9556C50.5486 22.8661 50.5088 22.8019 50.4519 22.7632C50.3965 22.7253 50.3306 22.7062 50.254 22.7059C50.1777 22.7069 50.0971 22.7199 50.0122 22.7452L49.9729 22.7568C49.9067 22.7765 49.8464 22.8005 49.7919 22.8289C49.7386 22.857 49.6935 22.8907 49.6566 22.9302C49.6209 22.9693 49.597 23.0151 49.5849 23.0676C49.5731 23.1213 49.5759 23.1822 49.5933 23.2503C49.6104 23.3172 49.6366 23.3698 49.6719 23.4082C49.7072 23.4466 49.7494 23.4727 49.7986 23.4866C49.8491 23.5001 49.9038 23.5042 49.9629 23.4989C50.0232 23.4932 50.0865 23.4805 50.1526 23.4608L50.1919 23.4491C50.2556 23.4302 50.314 23.4067 50.3673 23.3787C50.4218 23.3503 50.4669 23.3165 50.5026 23.2774C50.5395 23.238 50.5645 23.1912 50.5775 23.1371C50.5909 23.0842 50.5889 23.0238 50.5715 22.9556Z" fill="white"/>
<path d="M50.3801 27.6117L51.2487 27.5459C51.3084 27.5414 51.3599 27.529 51.403 27.5088C51.4461 27.4887 51.4797 27.4595 51.5036 27.4212C51.5289 27.3829 51.542 27.3332 51.543 27.272C51.5439 27.2225 51.5361 27.1808 51.5198 27.1469C51.5035 27.1131 51.4786 27.0883 51.4452 27.0726C51.4117 27.057 51.369 27.0511 51.3171 27.055L51.328 26.3969C51.4253 26.3895 51.5152 26.4042 51.5976 26.4409C51.6813 26.4787 51.7536 26.5356 51.8146 26.6116C51.8756 26.6889 51.922 26.7829 51.9539 26.8936C51.987 27.0055 52.0025 27.1318 52.0001 27.2724C51.9974 27.4404 51.967 27.5922 51.909 27.7279C51.851 27.8649 51.7655 27.9761 51.6526 28.0614C51.5409 28.1466 51.4014 28.1955 51.2339 28.2082L50.3711 28.2736C50.2335 28.2841 50.1289 28.2998 50.0572 28.3208C49.9868 28.3418 49.9248 28.3686 49.8711 28.4013L49.838 28.4038L49.8489 27.7437C49.9143 27.7075 49.9939 27.6781 50.0876 27.6554C50.1826 27.6339 50.2801 27.6193 50.3801 27.6117ZM51.1364 27.6344L50.7858 27.6649L50.7906 27.3739C50.7916 27.3127 50.784 27.2613 50.7678 27.2196C50.7516 27.1792 50.7288 27.1471 50.6994 27.1233C50.6712 27.1008 50.6391 27.085 50.6029 27.076C50.5667 27.0684 50.5285 27.0661 50.4883 27.0691C50.4493 27.0721 50.4141 27.0839 50.3826 27.1044C50.3525 27.1262 50.3287 27.1541 50.3112 27.1879C50.2938 27.2217 50.2848 27.2588 50.2841 27.2992C50.2829 27.3721 50.2955 27.4329 50.322 27.4816C50.3497 27.5315 50.3834 27.5686 50.4232 27.5929C50.463 27.6172 50.5004 27.628 50.5355 27.6253L50.2643 27.7902C50.2128 27.7681 50.1608 27.7422 50.1081 27.7123C50.0554 27.6838 50.0067 27.6466 49.9621 27.6005C49.9187 27.5557 49.8834 27.4992 49.856 27.4311C49.8299 27.3629 49.8176 27.2786 49.8193 27.1784C49.8214 27.0482 49.85 26.9264 49.9051 26.813C49.9601 26.7009 50.0355 26.6087 50.1314 26.5364C50.2285 26.464 50.3394 26.4231 50.4641 26.4137C50.5731 26.4054 50.6702 26.4176 50.7552 26.4501C50.8403 26.484 50.912 26.539 50.9704 26.6152C51.0287 26.6914 51.0725 26.7908 51.1016 26.9134C51.1307 27.036 51.1438 27.182 51.1411 27.3512L51.1364 27.6344Z" fill="white"/>
<path d="M51.4474 32.3428L49.3539 32.054L49.5243 31.4162L51.6178 31.705L51.4474 32.3428ZM51.275 32.9882L50.7758 32.9193L51.288 31.0021L51.7871 31.071L51.275 32.9882Z" fill="white"/>
<path d="M49.67 36.0007L49.3676 36.5207C49.2655 36.6963 49.1481 36.834 49.0154 36.9337C48.8833 37.035 48.7436 37.0968 48.5963 37.1189C48.4502 37.1415 48.3057 37.1228 48.1629 37.0627C48.0608 37.0198 47.9777 36.9611 47.9136 36.8864C47.8506 36.8123 47.8092 36.7256 47.7893 36.6262C47.77 36.5284 47.7734 36.4198 47.7994 36.3005C47.826 36.1828 47.8776 36.0581 47.9542 35.9264L48.4549 35.0654L50.403 35.8845L50.0712 36.4552L48.5876 35.8314L48.4187 36.1218C48.3808 36.1871 48.3611 36.2439 48.3598 36.2924C48.3579 36.342 48.3693 36.384 48.3942 36.4182C48.4191 36.4525 48.4531 36.4787 48.4964 36.4969C48.5444 36.5171 48.5919 36.5252 48.6391 36.5212C48.6874 36.5177 48.7336 36.5 48.7775 36.4681C48.822 36.4377 48.8633 36.3899 48.9012 36.3247L49.2036 35.8046L49.67 36.0007ZM48.9224 38.4306L46.9744 37.6115L47.3062 37.0408L49.2543 37.8599L48.9224 38.4306Z" fill="white"/>
<path d="M45.3006 41.2055L45.7568 40.7447L46.0746 40.9983L45.6954 41.3814C45.6578 41.4193 45.6326 41.4531 45.6197 41.4827C45.6059 41.5132 45.6035 41.5405 45.6125 41.5646C45.6216 41.5903 45.6393 41.6139 45.6656 41.6353C45.6918 41.6567 45.7177 41.671 45.7432 41.6784C45.7678 41.6867 45.793 41.688 45.8188 41.6823C45.8436 41.6774 45.8691 41.6664 45.8952 41.6492C45.9213 41.6321 45.9486 41.6091 45.977 41.5804L46.1515 41.4042L44.9032 40.3884L45.3663 39.9207L47.0055 41.2545L46.3679 41.8985C46.2698 41.9975 46.1723 42.0785 46.0753 42.1416C45.9792 42.2054 45.885 42.249 45.7925 42.2724C45.7002 42.2975 45.6106 42.3014 45.5237 42.2842C45.4368 42.267 45.3545 42.2267 45.2767 42.1635C45.2262 42.1224 45.1898 42.0726 45.1673 42.0143C45.1449 41.9559 45.138 41.891 45.1467 41.8196C45.1545 41.7491 45.1784 41.6733 45.2185 41.5923C45.2596 41.5121 45.3179 41.4293 45.3935 41.3437L45.3006 41.2055ZM44.6325 40.6619L45.189 40.0997L45.4383 40.5607L45.0233 40.9799C44.9849 41.0188 44.9588 41.0543 44.9451 41.0866C44.9313 41.1189 44.9291 41.1488 44.9383 41.1763C44.9475 41.2039 44.9667 41.2296 44.996 41.2534C45.0243 41.2764 45.0536 41.2919 45.084 41.2999C45.1144 41.3079 45.1475 41.3048 45.1835 41.2906C45.2185 41.2774 45.2575 41.249 45.3006 41.2055L45.6633 40.8391L45.9757 41.0982L45.5841 41.4938L45.3564 41.489C45.2339 41.5998 45.1183 41.677 45.0095 41.7205C44.8999 41.7649 44.8004 41.7817 44.7109 41.7707C44.6206 41.7607 44.542 41.7285 44.4754 41.6743C44.3976 41.611 44.3432 41.5417 44.3121 41.4662C44.2801 41.3918 44.2709 41.3116 44.2847 41.2259C44.2994 41.141 44.3356 41.051 44.3933 40.9559C44.4511 40.8626 44.5308 40.7646 44.6325 40.6619Z" fill="white"/>
<path d="M41.4571 44.1897L41.9656 44.897C42.0006 44.9456 42.0377 44.9828 42.0769 45.0084C42.1162 45.0341 42.158 45.0465 42.2022 45.0456C42.2472 45.0458 42.2953 45.0292 42.3466 44.9958C42.3881 44.9688 42.4186 44.9388 42.4382 44.9059C42.4577 44.873 42.4653 44.8378 42.4608 44.8004C42.4563 44.7629 42.4389 44.7231 42.4085 44.6808L42.9601 44.3216C43.0171 44.4009 43.0519 44.4861 43.0645 44.5772C43.0768 44.6701 43.0674 44.7639 43.0362 44.8587C43.004 44.9543 42.9502 45.0467 42.8751 45.136C42.7996 45.227 42.7029 45.3109 42.5851 45.3877C42.4443 45.4793 42.3025 45.5383 42.1596 45.5646C42.0156 45.5916 41.8788 45.5806 41.749 45.5316C41.62 45.4837 41.5065 45.3915 41.4085 45.2551L40.9034 44.5526C40.8228 44.4405 40.7551 44.3597 40.7002 44.3101C40.6461 44.2615 40.5914 44.2234 40.5363 44.1956L40.5169 44.1687L41.0701 43.8085C41.1343 43.8443 41.2003 43.896 41.2681 43.9636C41.3356 44.0329 41.3986 44.1083 41.4571 44.1897ZM41.8335 44.8503L41.625 44.567L41.8689 44.4082C41.9202 44.3748 41.9589 44.3395 41.985 44.3023C42.01 44.2658 42.0247 44.2283 42.0291 44.1898C42.0331 44.153 42.0294 44.1167 42.0179 44.0807C42.0053 44.0454 41.9873 44.0113 41.9637 43.9786C41.9409 43.9469 41.9128 43.9233 41.8792 43.9079C41.8454 43.8942 41.8099 43.8894 41.7727 43.8934C41.7356 43.8974 41.7001 43.9104 41.6663 43.9325C41.6051 43.9723 41.5613 44.0171 41.5347 44.067C41.5078 44.1187 41.4946 44.1684 41.4953 44.2161C41.4959 44.2638 41.5065 44.3019 41.527 44.3304L41.2486 44.1905C41.24 44.134 41.2343 44.0748 41.2315 44.013C41.2277 43.9519 41.2331 43.8893 41.248 43.8253C41.2625 43.7631 41.2909 43.7011 41.3331 43.6395C41.3761 43.579 41.4396 43.5213 41.5236 43.4666C41.6327 43.3956 41.7487 43.3519 41.8715 43.3355C41.9932 43.3199 42.1091 43.3329 42.2191 43.3746C42.3299 43.4173 42.4218 43.4894 42.4948 43.5909C42.5586 43.6797 42.5993 43.7696 42.6167 43.8607C42.633 43.9525 42.6248 44.0448 42.5922 44.1374C42.5595 44.2301 42.4999 44.3233 42.4134 44.4168C42.3269 44.5104 42.2127 44.6034 42.0708 44.6958L41.8335 44.8503Z" fill="white"/>
<path d="M37.6889 46.8883L37.5497 48.2489L36.9329 48.4786L36.233 46.4846L36.8498 46.2548L37.2573 47.4159L37.3952 46.0517L38.0139 45.8212L38.7137 47.8153L38.0951 48.0457L37.6889 46.8883ZM37.8483 49.0879L37.4255 49.2453C37.3867 49.1348 37.3803 49.026 37.4062 48.9191C37.4314 48.8139 37.4862 48.7185 37.5706 48.6328C37.6551 48.5472 37.7663 48.4787 37.9041 48.4273C38.1128 48.3496 38.2964 48.3402 38.4551 48.3992C38.6142 48.4594 38.7231 48.5731 38.7817 48.7402L38.3608 48.897C38.3396 48.8368 38.3012 48.79 38.2453 48.7566C38.1894 48.7232 38.1145 48.724 38.0206 48.759C37.9266 48.794 37.8691 48.8425 37.8481 48.9045C37.8271 48.9666 37.8272 49.0277 37.8483 49.0879Z" fill="white"/>
<path d="M33.0476 31.25C32.5093 31.25 32.0146 31.4435 31.624 31.767L29.1839 30.1823C29.2562 29.8427 29.2562 29.4907 29.1839 29.1511L31.624 27.5664C32.0146 27.8899 32.5093 28.0834 33.0476 28.0834C34.31 28.0834 35.3333 27.02 35.3333 25.7084C35.3333 24.3967 34.31 23.3334 33.0476 23.3334C31.7853 23.3334 30.7619 24.3967 30.7619 25.7084C30.7619 25.8855 30.7807 26.0579 30.8161 26.224L28.3759 27.8086C27.9854 27.4851 27.4907 27.2917 26.9524 27.2917C25.69 27.2917 24.6667 28.355 24.6667 29.6667C24.6667 30.9784 25.69 32.0417 26.9524 32.0417C27.4907 32.0417 27.9854 31.8483 28.3759 31.5248L30.8161 33.1094C30.78 33.2787 30.7618 33.4516 30.7619 33.625C30.7619 34.9367 31.7853 36 33.0476 36C34.31 36 35.3333 34.9367 35.3333 33.625C35.3333 32.3134 34.31 31.25 33.0476 31.25Z" fill="white"/>
</g>
<defs>
<linearGradient id="paint0_linear_0_992" x1="56.3292" y1="29.5423" x2="3.29941" y2="29.5423" gradientUnits="userSpaceOnUse">
<stop stop-color="#CB11AB"/>
<stop offset="1" stop-color="#481173"/>
</linearGradient>
<clipPath id="clip0_0_992">
<rect width="60" height="60" fill="white"/>
</clipPath>
</defs>
</svg>
