<svg width="30" height="29" viewBox="0 0 30 29" fill="none" xmlns="http://www.w3.org/2000/svg">
<path d="M28.6667 2.66778H24.24C24.3933 1.92111 24.2453 1.14511 23.8267 0.507775C23.536 0.173109 23.1093 -0.0122246 22.6667 0.0011087C20.5627 0.307775 18.5987 1.23711 17.0267 2.66778H12.4667C10.8453 1.21578 8.824 0.286442 6.66667 0.0011087C6.21867 -0.0162246 5.788 0.170442 5.49333 0.507775C5.08 1.14644 4.936 1.92378 5.09333 2.66778H0.666667C0.298667 2.66778 0 2.96644 0 3.33444V8.66778C0 9.03578 0.298667 9.33444 0.666667 9.33444H9.72L9 10.6678H2C1.632 10.6678 1.33333 10.9664 1.33333 11.3344V28.6678C1.33333 29.0358 1.632 29.3344 2 29.3344H12.6667C13.0347 29.3344 13.3333 29.0358 13.3333 28.6678V11.7078L14.6667 9.04111L16 12.5344V28.6678C16 29.0358 16.2987 29.3344 16.6667 29.3344H27.3333C27.7013 29.3344 28 29.0358 28 28.6678V11.3344C28 10.9664 27.7013 10.6678 27.3333 10.6678H19.9067L19.3733 9.33444H28.7067C29.0747 9.33444 29.3733 9.03578 29.3733 8.66778V3.33444C29.3733 2.96644 29.076 2.66778 28.708 2.66644C28.6947 2.66644 28.68 2.66644 28.6667 2.66778ZM18.8267 11.5744L18.1867 11.3611C17.8373 11.2478 17.4613 11.4384 17.3467 11.7878L17.2533 12.0544L15.56 7.78778C15.8627 7.67444 16.1427 7.50778 16.3867 7.29444L17.2933 7.73444L17.7467 8.86778L18.8267 11.5744ZM11.5867 12.2544L11.2267 11.6544C11.0667 11.3824 10.7387 11.2611 10.44 11.3611L10.04 11.4944L12 7.85444L12.9733 7.41444C13.1827 7.58244 13.4173 7.71711 13.6667 7.81444L11.5867 12.2544ZM16 5.33444C16 6.07044 15.4027 6.66778 14.6667 6.66778C13.9307 6.66778 13.3333 6.07044 13.3333 5.33444C13.3333 4.59844 13.9307 4.00111 14.6667 4.00111C15.4027 4.00111 16 4.59844 16 5.33444ZM22.8267 1.33444C23.04 1.58778 22.9333 2.53444 22.8267 3.18778V3.40111C22.8267 3.64111 22.76 3.86778 22.7333 4.08111C22.7227 4.25844 22.7227 4.43711 22.7333 4.61444V5.04111C22.7333 5.80111 22.7333 7.37444 22.32 7.84111C21.9067 8.30778 19.8533 7.45444 18.1067 6.66778L17.1867 6.24111C17.428 5.63311 17.428 4.95578 17.1867 4.34778C18.9467 2.66778 21.3333 1.33444 22.6667 1.33444C22.7173 1.31311 22.776 1.31311 22.8267 1.33444ZM6.50667 1.33444C6.55733 1.31311 6.616 1.31311 6.66667 1.33444C8.78 1.70511 10.7267 2.72111 12.24 4.24111C11.9587 4.90644 11.9587 5.65578 12.24 6.32111C10.2933 7.18778 7.45333 8.28111 7.06667 7.89444C6.68 7.50778 6.66667 5.85444 6.66667 5.09444V4.66778C6.67733 4.49044 6.67733 4.31178 6.66667 4.13444C6.66667 3.92111 6.66667 3.69444 6.57333 3.45444V3.24111C6.4 2.56111 6.29333 1.62778 6.50667 1.33444Z" fill="#A43FD4"/>
</svg>
