<svg width="20" height="20" viewBox="0 0 20 20" fill="none" xmlns="http://www.w3.org/2000/svg">
<path d="M7.63118 17.3096V14.754C7.63116 14.1039 8.16109 13.5758 8.81767 13.5714H11.2227C11.8824 13.5714 12.4173 14.1009 12.4173 14.754V17.3175C12.4171 17.8694 12.862 18.3205 13.4194 18.3334H15.0227C16.6211 18.3334 17.9168 17.0506 17.9168 15.4683V8.19828C17.9083 7.57577 17.6131 6.99121 17.1151 6.61094L11.6316 2.23783C10.6709 1.47639 9.30533 1.47639 8.34468 2.23783L2.88518 6.61888C2.38538 6.9976 2.08965 7.58314 2.0835 8.20621V15.4683C2.0835 17.0506 3.37923 18.3334 4.97759 18.3334H6.58096C7.15212 18.3334 7.61514 17.875 7.61514 17.3096" stroke="#4C1175" stroke-width="1.5" stroke-linecap="round" stroke-linejoin="round"/>
</svg>
