<svg width="18" height="9" viewBox="0 0 18 9" fill="none" xmlns="http://www.w3.org/2000/svg">
<path d="M13.2497 0C11.3906 0 9.93656 1.16156 9 2.21063C8.06344 1.16156 6.60938 0 4.75031 0C2.13188 0 0 2.01938 0 4.5C0 6.98062 2.13188 9 4.75031 9C6.60938 9 8.06344 7.83844 9 6.78937C9.93656 7.83844 11.3906 9 13.2497 9C15.8681 9 18 6.98062 18 4.5C18 2.01938 15.8681 0 13.2497 0ZM4.75031 6.3C3.61969 6.3 2.7 5.49281 2.7 4.5C2.7 3.50719 3.61969 2.7 4.75031 2.7C5.82469 2.7 6.81469 3.71531 7.39406 4.5C6.82031 5.27625 5.82188 6.3 4.75031 6.3ZM13.2497 6.3C12.1753 6.3 11.1853 5.28469 10.6059 4.5C11.1797 3.72375 12.1781 2.7 13.2497 2.7C14.3803 2.7 15.3 3.50719 15.3 4.5C15.3 5.49281 14.3803 6.3 13.2497 6.3Z" fill="#555555"/>
</svg>
