<svg width="40" height="40" viewBox="0 0 40 40" fill="none" xmlns="http://www.w3.org/2000/svg">
<path d="M19.5 5.97129C23.9086 5.97129 24.4307 5.99062 26.1645 6.06797C27.7758 6.13887 28.6459 6.40957 29.226 6.63516C29.993 6.93164 30.5473 7.29258 31.1209 7.86621C31.701 8.44629 32.0555 8.99414 32.352 9.76113C32.5775 10.3412 32.8482 11.2178 32.9191 12.8227C32.9965 14.5629 33.0158 15.085 33.0158 19.4871C33.0158 23.8957 32.9965 24.4178 32.9191 26.1516C32.8482 27.7629 32.5775 28.633 32.352 29.2131C32.0555 29.9801 31.6945 30.5344 31.1209 31.108C30.5408 31.6881 29.993 32.0426 29.226 32.3391C28.6459 32.5647 27.7693 32.8354 26.1645 32.9062C24.4242 32.9836 23.9022 33.0029 19.5 33.0029C15.0914 33.0029 14.5693 32.9836 12.8355 32.9062C11.2242 32.8354 10.3541 32.5647 9.77402 32.3391C9.00703 32.0426 8.45273 31.6816 7.8791 31.108C7.29902 30.5279 6.94453 29.9801 6.64805 29.2131C6.42246 28.633 6.15176 27.7564 6.08086 26.1516C6.00352 24.4113 5.98418 23.8893 5.98418 19.4871C5.98418 15.0785 6.00352 14.5564 6.08086 12.8227C6.15176 11.2113 6.42246 10.3412 6.64805 9.76113C6.94453 8.99414 7.30547 8.43984 7.8791 7.86621C8.45918 7.28613 9.00703 6.93164 9.77402 6.63516C10.3541 6.40957 11.2307 6.13887 12.8355 6.06797C14.5693 5.99062 15.0914 5.97129 19.5 5.97129ZM19.5 3C15.0205 3 14.4598 3.01934 12.7002 3.09668C10.9471 3.17402 9.7418 3.45762 8.69766 3.86367C7.6084 4.28906 6.68672 4.8498 5.77148 5.77148C4.8498 6.68672 4.28906 7.6084 3.86367 8.69121C3.45762 9.7418 3.17402 10.9406 3.09668 12.6937C3.01934 14.4598 3 15.0205 3 19.5C3 23.9795 3.01934 24.5402 3.09668 26.2998C3.17402 28.0529 3.45762 29.2582 3.86367 30.3023C4.28906 31.3916 4.8498 32.3133 5.77148 33.2285C6.68672 34.1437 7.6084 34.7109 8.69121 35.1299C9.7418 35.5359 10.9406 35.8195 12.6938 35.8969C14.4533 35.9742 15.0141 35.9936 19.4936 35.9936C23.973 35.9936 24.5338 35.9742 26.2934 35.8969C28.0465 35.8195 29.2518 35.5359 30.2959 35.1299C31.3787 34.7109 32.3004 34.1437 33.2156 33.2285C34.1309 32.3133 34.698 31.3916 35.117 30.3088C35.523 29.2582 35.8066 28.0594 35.884 26.3063C35.9613 24.5467 35.9807 23.9859 35.9807 19.5064C35.9807 15.027 35.9613 14.4662 35.884 12.7066C35.8066 10.9535 35.523 9.74824 35.117 8.7041C34.7109 7.6084 34.1502 6.68672 33.2285 5.77148C32.3133 4.85625 31.3916 4.28906 30.3088 3.87012C29.2582 3.46406 28.0594 3.18047 26.3063 3.10313C24.5402 3.01934 23.9795 3 19.5 3Z" fill="white"/>
<path d="M19.5 11.0244C14.8207 11.0244 11.0244 14.8207 11.0244 19.5C11.0244 24.1793 14.8207 27.9756 19.5 27.9756C24.1793 27.9756 27.9756 24.1793 27.9756 19.5C27.9756 14.8207 24.1793 11.0244 19.5 11.0244ZM19.5 24.9979C16.4643 24.9979 14.0021 22.5357 14.0021 19.5C14.0021 16.4643 16.4643 14.0021 19.5 14.0021C22.5357 14.0021 24.9979 16.4643 24.9979 19.5C24.9979 22.5357 22.5357 24.9979 19.5 24.9979Z" fill="white"/>
<path d="M30.2895 10.6892C30.2895 11.7849 29.4 12.6679 28.3107 12.6679C27.215 12.6679 26.332 11.7784 26.332 10.6892C26.332 9.59346 27.2215 8.71045 28.3107 8.71045C29.4 8.71045 30.2895 9.5999 30.2895 10.6892Z" fill="white"/>
</svg>
