<svg width="8" height="14" viewBox="0 0 8 14" fill="none" xmlns="http://www.w3.org/2000/svg">
<path d="M0.847987 7.2049C0.85973 7.06937 0.914083 6.94108 1.00322 6.8385L6.13088 0.895564C6.18512 0.82865 6.25223 0.773363 6.32823 0.732993C6.40423 0.692623 6.48756 0.668 6.57325 0.660585C6.65895 0.653169 6.74525 0.663112 6.82703 0.689828C6.90881 0.716545 6.98438 0.759481 7.04926 0.816087C7.11413 0.872693 7.16698 0.941807 7.20465 1.01931C7.24233 1.09682 7.26405 1.18113 7.26854 1.26723C7.27302 1.35333 7.26018 1.43946 7.23076 1.52048C7.20135 1.60149 7.15597 1.67575 7.09733 1.73882L2.33521 7.26012L7.09733 12.7814C7.15597 12.8445 7.20135 12.9188 7.23076 12.9998C7.26017 13.0808 7.27302 13.1669 7.26853 13.253C7.26405 13.3391 7.24232 13.4234 7.20465 13.5009C7.16698 13.5784 7.11413 13.6475 7.04926 13.7042C6.98438 13.7608 6.9088 13.8037 6.82703 13.8304C6.74525 13.8571 6.65894 13.8671 6.57325 13.8597C6.48756 13.8523 6.40423 13.8276 6.32823 13.7873C6.25223 13.7469 6.18512 13.6916 6.13088 13.6247L1.00322 7.68175C0.946767 7.61676 0.903933 7.54106 0.877265 7.45914C0.850597 7.37722 0.84064 7.29076 0.847987 7.2049Z" fill="white"/>
</svg>
