<svg width="15" height="14" viewBox="0 0 15 14" fill="none" xmlns="http://www.w3.org/2000/svg">
<path d="M12.6113 3.08338C11.5453 0.953558 8.91705 0.726423 7.52375 3.02539L7.06382 3.78429L6.60394 3.02535C5.2109 0.726435 2.58297 0.953564 1.51709 3.08337C0.276954 5.56137 1.96776 8.9283 7.06387 11.7875C12.1605 8.92829 13.8515 5.56136 12.6113 3.08338ZM13.573 2.60201C15.1361 5.72497 13.0716 9.73766 7.32137 12.8742L7.06385 13.0146L6.80633 12.8741C1.05658 9.73765 -1.00762 5.72497 0.555284 2.60202C1.87708 -0.0391519 5.11969 -0.514944 7.06389 1.82061C9.00833 -0.514936 12.2512 -0.0391586 13.573 2.60201Z" fill="black"/>
</svg>
