<svg width="65" height="66" viewBox="0 0 65 66" fill="none" xmlns="http://www.w3.org/2000/svg">
<path d="M27.9219 62.6737C31.2262 63.2299 34.6007 63.2299 37.905 62.6737" stroke="#BB2FA6" stroke-width="4"/>
<path d="M27.9219 3.32826C31.2262 2.77209 34.6007 2.77209 37.905 3.32826" stroke="#BB2FA6" stroke-width="4"/>
<path d="M62.5856 28.0098C63.14 31.3144 63.1381 34.6887 62.5801 37.9927" stroke="#BB2FA6" stroke-width="4"/>
<path d="M3.24245 28.0098C2.68814 31.3144 2.69004 34.6887 3.24805 37.9927" stroke="#BB2FA6" stroke-width="4"/>
<path d="M50.5639 8.63252C53.2767 10.5994 55.642 13.0062 57.5615 15.7528" stroke="#BB2FA6" stroke-width="4"/>
<path d="M8.25645 50.2513C10.1787 52.9959 12.5466 55.4001 15.2614 57.3643" stroke="#BB2FA6" stroke-width="4"/>
<path d="M57.2796 50.6518C55.3127 53.3646 52.9059 55.7298 50.1593 57.6494" stroke="#BB2FA6" stroke-width="4"/>
<path d="M15.6579 8.34727C12.9133 10.2695 10.5091 12.6374 8.54492 15.3523" stroke="#BB2FA6" stroke-width="4"/>
<path d="M58.445 17.0337C60.2219 19.8746 61.5117 22.9929 62.2607 26.2589" stroke="#BB2FA6" stroke-width="4"/>
<path d="M3.6136 39.7437C4.36586 43.009 5.65863 46.126 7.43836 48.9651" stroke="#BB2FA6" stroke-width="4"/>
<path d="M48.9039 58.5047C46.063 60.2816 42.9447 61.5711 39.6787 62.3201" stroke="#BB2FA6" stroke-width="4"/>
<path d="M26.1938 3.67596C22.9285 4.42822 19.8117 5.72121 16.9726 7.50094" stroke="#BB2FA6" stroke-width="4"/>
<path d="M39.6843 3.69124C42.948 4.45051 46.062 5.75019 48.8973 7.53601" stroke="#BB2FA6" stroke-width="4"/>
<path d="M16.8548 58.4718C19.6919 60.2548 22.8073 61.551 26.0718 62.307" stroke="#BB2FA6" stroke-width="4"/>
<path d="M62.1876 39.8073C61.4283 43.071 60.1287 46.1852 58.3429 49.0205" stroke="#BB2FA6" stroke-width="4"/>
<path d="M7.40623 16.9798C5.62324 19.8169 4.32669 22.9324 3.57069 26.1968" stroke="#BB2FA6" stroke-width="4"/>
<path d="M55.1433 32.5726C55.1433 45.0416 45.037 55.1471 32.5722 55.1471C20.1042 55.1471 10 45.0416 10 32.5726C10 20.1066 20.1042 10 32.5722 10C45.037 10 55.1433 20.1066 55.1433 32.5726Z" fill="url(#paint0_linear_0_582)"/>
<path d="M30.5752 33.0498L28.8877 32.6367L29.582 26.2031H36.4814V27.9961H31.3398L30.9883 31.1338C31.1875 31.0166 31.4629 30.9023 31.8145 30.791C32.166 30.6738 32.5674 30.6152 33.0186 30.6152C33.6221 30.6152 34.1611 30.7148 34.6357 30.9141C35.1162 31.1074 35.5234 31.3916 35.8574 31.7666C36.1914 32.1357 36.4463 32.5869 36.6221 33.1201C36.7979 33.6475 36.8857 34.2422 36.8857 34.9043C36.8857 35.4961 36.7979 36.0498 36.6221 36.5654C36.4521 37.0811 36.1943 37.5352 35.8486 37.9277C35.5029 38.3203 35.0664 38.6279 34.5391 38.8506C34.0176 39.0674 33.3994 39.1758 32.6846 39.1758C32.1514 39.1758 31.6387 39.0996 31.1465 38.9473C30.6602 38.7891 30.2236 38.5576 29.8369 38.2529C29.4502 37.9424 29.1396 37.5615 28.9053 37.1104C28.6709 36.6533 28.5361 36.1289 28.501 35.5371H30.5752C30.6279 35.9531 30.7422 36.3076 30.918 36.6006C31.0996 36.8877 31.3398 37.1074 31.6387 37.2598C31.9375 37.4121 32.2832 37.4883 32.6758 37.4883C33.0332 37.4883 33.3408 37.4268 33.5986 37.3037C33.8564 37.1748 34.0703 36.9932 34.2402 36.7588C34.416 36.5186 34.5449 36.2373 34.627 35.915C34.7148 35.5928 34.7588 35.2354 34.7588 34.8428C34.7588 34.4678 34.709 34.125 34.6094 33.8145C34.5156 33.5039 34.3721 33.2344 34.1787 33.0059C33.9912 32.7773 33.7539 32.6016 33.4668 32.4785C33.1797 32.3496 32.8486 32.2852 32.4736 32.2852C31.9697 32.2852 31.583 32.3584 31.3135 32.5049C31.0498 32.6514 30.8037 32.833 30.5752 33.0498Z" fill="white"/>
<defs>
<linearGradient id="paint0_linear_0_582" x1="55.1433" y1="32.5735" x2="10" y2="32.5735" gradientUnits="userSpaceOnUse">
<stop stop-color="#CB11AB"/>
<stop offset="1" stop-color="#481173"/>
</linearGradient>
</defs>
</svg>
