<svg width="112" height="19" viewBox="0 0 112 19" fill="none" xmlns="http://www.w3.org/2000/svg">
<path d="M19.6555 12.5064L15.4361 0.00183105H12.2899L7.98075 12.4455L3.8478 0.00183105H0L6.1001 18.2573H9.6147L13.7893 6.04425L17.9607 18.2573H21.4272L27.5273 0.00183105H23.875L19.6555 12.5064Z" fill="white"/>
<path d="M33.2654 10.6669H41.778V7.3253H33.2654V3.3942H42.8192V0.00134277H29.5618V18.2568H43.1588V14.8639H33.2654V10.6669Z" fill="white"/>
<path d="M59.2708 1.13868C57.7008 0.364096 55.9689 -0.0257583 54.2184 0.00132009H46.4106V18.2632H54.2184C55.9743 18.2928 57.7119 17.9029 59.2868 17.1258C60.737 16.4015 61.9498 15.2776 62.7822 13.8867C63.5973 12.4352 64.0253 10.7985 64.0253 9.13385C64.0253 7.46917 63.5973 5.83246 62.7822 4.38095C61.9444 2.98785 60.7262 1.86298 59.2708 1.13868ZM50.1175 3.38136H54.0582C55.2109 3.35552 56.3531 3.60483 57.3902 4.10863C58.2883 4.54959 59.037 5.2448 59.5431 6.10782C60.0414 7.03227 60.3023 8.06602 60.3023 9.11622C60.3023 10.1664 60.0414 11.2002 59.5431 12.1246C59.0368 12.9867 58.2881 13.6808 57.3902 14.1206C56.3534 14.6255 55.2111 14.8759 54.0582 14.8511H50.1175V3.38136Z" fill="white"/>
<path d="M78.888 10.1959C78.888 11.8651 78.5292 13.1018 77.8211 13.8707C77.1131 14.6396 76.107 15.0113 74.7294 15.0113C71.9068 15.0113 70.5932 13.4799 70.5932 10.2055V0.00134277H66.8992V10.2921C66.8992 12.8775 67.5945 14.9056 68.9721 16.3153C70.3498 17.7249 72.2817 18.449 74.7134 18.449C77.1451 18.449 79.077 17.7378 80.4579 16.3281C81.8387 14.9184 82.5307 12.8968 82.5307 10.2921V0.00134277H78.888V10.1959Z" fill="white"/>
<path d="M105.541 0.00134277H102.026L97.8514 12.2143L93.6801 0.00134277H90.2135L84.1134 18.2568H87.7658L91.9852 5.75222L96.2047 18.2568H99.3508L103.66 5.81309L107.793 18.2568H111.641L105.541 0.00134277Z" fill="white"/>
</svg>
