<svg width="56" height="10" viewBox="0 0 56 10" fill="none" xmlns="http://www.w3.org/2000/svg">
<path d="M9.85938 6.27331L7.74287 0.000915527H6.16473L4.00321 6.24278L1.93009 0.000915527H0L3.05986 9.158H4.82282L6.91683 3.03185L9.00924 9.158H10.7481L13.808 0.000915527H11.9759L9.85938 6.27331Z" fill="#252525"/>
<path d="M16.6862 5.35061H20.9562V3.67443H16.6862V1.70256H21.4785V0.000671387H14.8284V9.15776H21.6488V7.45587H16.6862V5.35061Z" fill="#252525"/>
<path d="M29.7308 0.57117C28.9433 0.182634 28.0745 -0.0129206 27.1965 0.000662171H23.28V9.16097H27.1965C28.0772 9.17583 28.9489 8.98024 29.7388 8.59045C30.4663 8.22714 31.0746 7.6634 31.4922 6.96571C31.901 6.23762 32.1157 5.41664 32.1157 4.58162C32.1157 3.7466 31.901 2.92561 31.4922 2.19753C31.0719 1.49873 30.4608 0.934488 29.7308 0.57117ZM25.1394 1.69612H27.1161C27.6943 1.68316 28.2673 1.80822 28.7875 2.06092C29.238 2.28211 29.6135 2.63084 29.8674 3.06374C30.1174 3.52745 30.2482 4.04599 30.2482 4.57278C30.2482 5.09956 30.1174 5.61811 29.8674 6.08182C29.6134 6.51424 29.2378 6.86242 28.7875 7.08302C28.2674 7.33628 27.6944 7.46189 27.1161 7.44943H25.1394V1.69612Z" fill="#252525"/>
<path d="M39.571 5.11437C39.571 5.95165 39.391 6.57198 39.0358 6.95768C38.6807 7.34338 38.176 7.5298 37.485 7.5298C36.0692 7.5298 35.4103 6.76162 35.4103 5.11919V0.000671387H33.5573V5.16258C33.5573 6.45949 33.906 7.47676 34.5971 8.18388C35.2881 8.89099 36.2572 9.25419 37.477 9.25419C38.6967 9.25419 39.6658 8.89742 40.3584 8.19031C41.0511 7.48319 41.3982 6.46913 41.3982 5.16258V0.000671387H39.571V5.11437Z" fill="#252525"/>
<path d="M52.9401 0.000671387H51.1772L49.0831 6.12683L46.9907 0.000671387H45.2519L42.192 9.15776H44.0241L46.1406 2.88536L48.2571 9.15776H49.8352L51.9968 2.9159L54.0699 9.15776H56L52.9401 0.000671387Z" fill="#252525"/>
</svg>
