<svg width="83" height="83" viewBox="0 0 83 83" fill="none" xmlns="http://www.w3.org/2000/svg">
<path d="M75.9646 81.8475H7.03516L13.0802 63.5378C14.0004 60.7541 16.6093 58.8672 19.5329 58.8672H63.467C66.4022 58.8672 68.9995 60.7541 69.9196 63.5378L75.9646 81.8475Z" fill="#BB2FA6"/>
<path d="M49.6635 58.8662H33.3574V81.8468H49.6635V58.8662Z" fill="white"/>
<path d="M50.1519 58.8707L50.3144 70.3581L41.5072 64.8351L32.7023 70.3581L32.5098 58.8707L36.6379 56.9824H46.3662L50.1519 58.8707Z" fill="#EEEEEE"/>
<path d="M39.526 70.5769C39.6055 70.833 39.8424 71.0074 40.1106 71.0074H42.8921C43.1602 71.0074 43.3971 70.833 43.4768 70.5769L44.2011 68.2472C44.3236 67.853 44.0291 67.4531 43.6164 67.4531H39.3863C38.9736 67.4531 38.6792 67.853 38.8017 68.2472L39.526 70.5769ZM43.3651 72.0303C43.3325 71.7417 43.0883 71.5236 42.7978 71.5236H40.2038C39.9133 71.5236 39.6693 71.7417 39.6365 72.0303L38.3945 81.8474H44.6072L43.3651 72.0303Z" fill="#F6BA1E"/>
<path d="M37.9614 81.8474H30.6221L24.0293 72.7162L29.1404 69.6381L24.4313 67.0422C27.4979 63.8493 29.485 61.196 31.6673 59.1861C32.7814 58.1524 33.9415 57.2909 35.3197 56.6133C35.2049 56.7626 35.0786 56.9119 34.9636 57.0727C34.4812 57.7159 34.1252 58.4395 33.8839 59.1861C32.6695 62.9479 34.351 65.017 37.9614 81.8474ZM58.9804 72.7161L52.376 81.8474H45.0366L49.2748 63.7688C49.6423 62.2411 49.5963 60.6447 49.114 59.1861C48.8727 58.4394 48.5167 57.7158 48.0343 57.0727C47.9195 56.9119 47.793 56.7626 47.6782 56.6133C49.068 57.2909 50.228 58.1524 51.3422 59.1861C53.513 61.196 55.5 63.8608 58.5782 67.0422L53.8575 69.6381L58.9804 72.7161Z" fill="#A43FD4"/>
<path d="M48.5699 45.9785V56.1528C48.5699 60.3058 45.5004 63.671 41.7122 63.671H41.2914C37.5032 63.671 34.4336 60.3058 34.4336 56.1528V45.9785H48.5699Z" fill="#FAB687"/>
<path d="M41.5294 57.3544C37.9644 57.3544 34.9201 54.871 34.6069 51.5941C34.5541 51.0412 34.5273 50.4834 34.5273 49.9214C34.5273 49.3635 34.5537 48.8101 34.6057 48.2621C34.9164 44.9846 37.9627 42.501 41.5282 42.501H41.5295C45.3671 42.501 48.4781 45.3716 48.4781 48.9127V50.9427C48.478 54.4838 45.367 57.3544 41.5294 57.3544Z" fill="#F8A771"/>
<path d="M59.3091 33.3095C59.3091 34.8004 59.1811 36.2678 58.9481 37.6772C57.2825 47.5775 50.1078 55.0203 41.5002 55.0203C32.8926 55.0203 25.718 47.5776 24.0525 37.6772C23.8195 36.2678 23.6914 34.8002 23.6914 33.3095C23.6914 27.2993 25.6947 21.8717 28.9327 17.9349C32.159 14.0213 36.5966 11.5986 41.5003 11.5986C46.404 11.5986 50.8416 14.0213 54.0679 17.9349C57.3058 21.8717 59.3091 27.2993 59.3091 33.3095Z" fill="#FAB687"/>
<path d="M28.6788 15.0154C28.026 13.5825 28.4024 11.8136 29.3853 10.5836C30.3682 9.35357 31.8704 8.61891 33.4124 8.30086C34.9545 7.9828 36.5486 8.04609 38.1178 8.17405C40.7058 8.38501 43.2797 8.76796 45.817 9.31957C48.3946 9.87993 50.955 10.6225 53.2875 11.8546C55.6199 13.0867 57.7261 14.8375 59.0795 17.1016C60.7637 19.9195 61.1766 23.3309 61.0368 26.6108C60.828 31.5071 59.3566 36.2441 56.9678 40.5233C56.5373 36.6934 56.1067 32.8636 55.6762 29.0337C55.522 27.6612 55.3475 26.2309 54.5859 25.0786C53.7169 23.7635 52.1901 23.0057 50.6453 22.6919C49.1005 22.3781 47.5078 22.4513 45.9315 22.4574C42.7997 22.4696 39.6673 22.2106 36.5799 21.6855C34.4015 21.315 31.456 20.226 29.6034 22.0595C28.7675 22.8868 28.5108 24.1182 28.2929 25.2739C27.3403 30.3273 26.3877 35.3809 25.4351 40.4343C22.7851 34.9856 21.5721 28.9074 22.0335 22.866C22.1786 20.9656 22.5023 19.0205 23.499 17.3959C24.4957 15.7713 26.7774 14.8844 28.6788 15.0154Z" fill="#252525"/>
<path d="M23.748 34.667C23.8011 35.6886 23.8904 36.6998 24.052 37.6771C25.7176 47.5775 32.8923 55.0201 41.4998 55.0201C50.1073 55.0201 57.2822 47.5775 58.9478 37.6771C59.1094 36.6998 59.1987 35.6886 59.2515 34.667H23.748Z" fill="#FAB687"/>
<path d="M35.1754 37.1047C36.1903 37.1047 37.0129 36.2821 37.0129 35.2672C37.0129 34.2524 36.1903 33.4297 35.1754 33.4297C34.1606 33.4297 33.3379 34.2524 33.3379 35.2672C33.3379 36.2821 34.1606 37.1047 35.1754 37.1047Z" fill="#3D2F46"/>
<path d="M46.9606 37.1047C47.9754 37.1047 48.7981 36.2821 48.7981 35.2672C48.7981 34.2524 47.9754 33.4297 46.9606 33.4297C45.9457 33.4297 45.123 34.2524 45.123 35.2672C45.123 36.2821 45.9457 37.1047 46.9606 37.1047Z" fill="#3D2F46"/>
<path d="M36.6969 30.799L36.6648 30.6353C36.5764 30.1836 36.1385 29.8892 35.6868 29.9776L31.7886 30.7413C31.3369 30.8298 31.0425 31.2678 31.1309 31.7193L31.163 31.883C31.2514 32.3347 31.6893 32.6291 32.141 32.5407L36.0392 31.777C36.4909 31.6884 36.7853 31.2505 36.6969 30.799ZM50.3483 30.7413L46.4501 29.9776C45.9984 29.8892 45.5605 30.1835 45.472 30.6353L45.44 30.799C45.3515 31.2506 45.6459 31.6886 46.0977 31.777L49.9958 32.5407C50.4474 32.6291 50.8854 32.3347 50.9739 31.883L51.006 31.7193C51.0944 31.2677 50.8 30.8297 50.3483 30.7413Z" fill="#3D2F46"/>
<path d="M47.5381 45.7148C47.4549 47.1187 46.8621 48.3667 45.947 49.3025C45.9263 49.3234 45.9159 49.3338 45.8951 49.3545C45.7807 49.469 45.6663 49.5833 45.5311 49.6873C44.6161 50.488 43.42 51.0184 42.0994 51.1432C41.9122 51.1535 41.7043 51.164 41.5067 51.164C41.2155 51.164 40.9348 51.1432 40.654 51.1119C40.394 51.0703 40.1444 51.0183 39.8949 50.9456C39.874 50.9456 39.8636 50.9352 39.8429 50.9352C39.8012 50.9248 39.7493 50.9041 39.7076 50.8936C37.3782 50.2176 35.6001 48.2002 35.4648 45.7148H47.5381Z" fill="#663430"/>
<path d="M45.9466 49.3024C45.9258 49.3233 45.9155 49.3336 45.8946 49.3544C45.7802 49.4689 45.6659 49.5832 45.5307 49.6872C44.6156 50.4879 43.4196 51.0183 42.099 51.143C41.9118 51.1534 41.7038 51.1639 41.5062 51.1639C41.215 51.1639 40.9343 51.143 40.6535 51.1118C40.3727 51.0702 40.1024 51.0182 39.832 50.9455L39.8424 50.9351C39.9776 50.6023 40.196 50.3007 40.456 50.02C41.1424 49.2609 42.1407 48.7825 43.1701 48.6994C43.9813 48.6474 44.7923 48.8554 45.5619 49.1466C45.6866 49.1984 45.8219 49.24 45.9466 49.3024Z" fill="#EF4F63"/>
<path d="M58.4496 39.2844C60.4691 39.2844 62.1062 37.1704 62.1062 34.5626C62.1062 31.9548 60.4691 29.8408 58.4496 29.8408C56.4301 29.8408 54.793 31.9548 54.793 34.5626C54.793 37.1704 56.4301 39.2844 58.4496 39.2844Z" fill="#FAB687"/>
<path d="M24.5531 39.2844C26.5726 39.2844 28.2097 37.1704 28.2097 34.5626C28.2097 31.9548 26.5726 29.8408 24.5531 29.8408C22.5336 29.8408 20.8965 31.9548 20.8965 34.5626C20.8965 37.1704 22.5336 39.2844 24.5531 39.2844Z" fill="#FAB687"/>
</svg>
