<svg width="83" height="83" viewBox="0 0 83 83" fill="none" xmlns="http://www.w3.org/2000/svg">
<g clip-path="url(#clip0_1_498)">
<path fill-rule="evenodd" clip-rule="evenodd" d="M68.2686 60.8306C68.8869 61.1887 69.0978 61.9803 68.7397 62.5986C68.3816 63.2169 67.59 63.4278 66.9717 63.0697L42.7926 49.1098L42.7924 78.5813C42.7924 79.2947 42.214 79.8731 41.5006 79.8731C40.7871 79.8731 40.2087 79.2947 40.2087 78.5813L40.2089 49.1069L16.0248 63.0698C15.4065 63.4252 14.6172 63.2118 14.2618 62.5936C13.9065 61.9753 14.1198 61.186 14.7381 60.8306L38.9158 46.8717L14.7379 32.9506C14.1197 32.5952 13.9065 31.8059 14.2617 31.1876C14.617 30.5693 15.4063 30.3562 16.0246 30.7113L40.2089 44.6362L40.2087 23.3924C40.2087 22.679 40.7871 22.1006 41.5006 22.1006C42.214 22.1006 42.7924 22.679 42.7924 23.3924L42.7926 44.6362L66.9769 30.7112C67.5952 30.3558 68.3845 30.5692 68.7398 31.1875C69.0952 31.8057 68.8818 32.5951 68.2635 32.9504L44.0885 46.8701L68.2686 60.8306Z" fill="#EEEEEE"/>
<path fill-rule="evenodd" clip-rule="evenodd" d="M15.3799 26.7246C18.2001 26.7246 20.4863 29.0108 20.4863 31.8311C20.4863 34.6513 18.2001 36.9375 15.3799 36.9375C12.5597 36.9375 10.2734 34.6513 10.2734 31.8311C10.2734 29.0108 12.5597 26.7246 15.3799 26.7246ZM67.6187 26.7246C70.4389 26.7246 72.7251 29.0108 72.7251 31.8311C72.7251 34.6513 70.4389 36.9375 67.6187 36.9375C64.7984 36.9375 62.5122 34.6513 62.5122 31.8311C62.5122 29.0108 64.7984 26.7246 67.6187 26.7246ZM41.4993 71.4903C44.3195 71.4903 46.6057 73.7765 46.6057 76.5967C46.6057 79.417 44.3195 81.7032 41.4993 81.7032C38.6791 81.7032 36.3928 79.417 36.3928 76.5967C36.3928 73.7765 38.6791 71.4903 41.4993 71.4903Z" fill="#F6BA1E"/>
<path d="M67.6192 76.0343C75.3976 76.0343 81.7033 69.7287 81.7033 61.9503C81.7033 54.1719 75.3976 47.8662 67.6192 47.8662C59.8408 47.8662 53.5352 54.1719 53.5352 61.9503C53.5352 69.7287 59.8408 76.0343 67.6192 76.0343Z" fill="#BB2FA6"/>
<path fill-rule="evenodd" clip-rule="evenodd" d="M67.6193 63.3086C62.5457 63.3086 58.369 67.1529 57.8398 72.0858C60.3731 74.5306 63.8205 76.0344 67.6191 76.0344C68.3035 76.0344 68.9764 75.9856 69.6346 75.8912C72.6299 75.4619 75.3209 74.0897 77.3977 72.0854C76.8697 67.1514 72.6934 63.3086 67.6193 63.3086Z" fill="#252525"/>
<path d="M67.6192 62.5655C70.3655 62.5655 72.5919 60.3392 72.5919 57.5928C72.5919 54.8465 70.3655 52.6201 67.6192 52.6201C64.8728 52.6201 62.6465 54.8465 62.6465 57.5928C62.6465 60.3392 64.8728 62.5655 67.6192 62.5655Z" fill="#F6DCCD"/>
<path d="M41.5001 29.465C49.2785 29.465 55.5841 23.1594 55.5841 15.3809C55.5841 7.60253 49.2785 1.29688 41.5001 1.29688C33.7217 1.29688 27.416 7.60253 27.416 15.3809C27.416 23.1594 33.7217 29.465 41.5001 29.465Z" fill="#BB2FA6"/>
<path fill-rule="evenodd" clip-rule="evenodd" d="M41.5001 16.7393C36.4267 16.7393 32.2498 20.5835 31.7207 25.5165C34.254 27.9613 37.7014 29.465 41.5 29.465C42.1844 29.465 42.8573 29.4162 43.5155 29.3219C46.5108 28.8926 49.2018 27.5203 51.2786 25.516C50.7506 20.5822 46.5743 16.7393 41.5001 16.7393Z" fill="#252525"/>
<path d="M41.5 15.9952C44.2464 15.9952 46.4728 13.7689 46.4728 11.0225C46.4728 8.27616 44.2464 6.0498 41.5 6.0498C38.7537 6.0498 36.5273 8.27616 36.5273 11.0225C36.5273 13.7689 38.7537 15.9952 41.5 15.9952Z" fill="#F6DCCD"/>
<path d="M19.4619 75.4307C26.9067 73.1769 31.1148 65.3147 28.861 57.8699C26.6072 50.4252 18.7449 46.2171 11.3002 48.4709C3.85546 50.7247 -0.352623 58.5869 1.90117 66.0317C4.15497 73.4764 12.0172 77.6845 19.4619 75.4307Z" fill="#BB2FA6"/>
<path fill-rule="evenodd" clip-rule="evenodd" d="M15.381 63.3086C10.3076 63.3086 6.13069 67.1529 5.60156 72.0858C8.13485 74.5306 11.5823 76.0344 15.3808 76.0344C16.0652 76.0344 16.7381 75.9856 17.3963 75.8912C20.3916 75.4619 23.0826 74.0897 25.1594 72.0854C24.6314 67.1514 20.4552 63.3086 15.381 63.3086Z" fill="#252525"/>
<path d="M15.3809 62.5655C18.1273 62.5655 20.3536 60.3392 20.3536 57.5928C20.3536 54.8465 18.1273 52.6201 15.3809 52.6201C12.6346 52.6201 10.4082 54.8465 10.4082 57.5928C10.4082 60.3392 12.6346 62.5655 15.3809 62.5655Z" fill="#F6DCCD"/>
</g>
<defs>
<clipPath id="clip0_1_498">
<rect width="83" height="83" fill="white"/>
</clipPath>
</defs>
</svg>
