<svg width="74" height="74" viewBox="0 0 74 74" fill="none" xmlns="http://www.w3.org/2000/svg">
<path d="M72.6149 26.4923C75.5254 23.8639 73.5263 19.0401 69.6139 19.2415L58.5663 19.8055C56.099 19.9314 54.0697 17.8971 54.1956 15.4349L54.7596 4.38757C54.961 0.475185 50.1321 -1.52381 47.5087 1.38153L40.0916 9.59401C38.44 11.4268 35.5648 11.4268 33.9082 9.59401L26.4962 1.38657C23.8677 -1.52381 19.0439 0.475186 19.2453 4.39261L19.8092 15.4399C19.9351 17.9072 17.9008 19.9364 15.4385 19.8105L4.391 19.2466C0.478534 19.0452 -1.5205 23.8689 1.3849 26.4973L9.59755 33.9092C11.4304 35.5608 11.4304 38.4359 9.59755 40.0925L1.3849 47.5044C-1.52554 50.1328 0.473498 54.9565 4.391 54.7551L15.4385 54.1912C17.9059 54.0653 19.9351 56.0995 19.8092 58.5618L19.2453 69.6091C19.0439 73.5215 23.8728 75.5205 26.4962 72.6151L33.9082 64.4026C35.5648 62.5698 38.44 62.5698 40.0916 64.4026L47.5036 72.6151C50.1321 75.5255 54.956 73.5265 54.7545 69.6091L54.1906 58.5618C54.0647 56.0945 56.099 54.0653 58.5613 54.1912L69.6088 54.7551C73.5213 54.9565 75.5203 50.1277 72.6099 47.5044L64.3972 40.0925C62.5644 38.4409 62.5644 35.5658 64.3972 33.9092L72.6149 26.4923Z" fill="#AFA1FF"/>
</svg>
