<svg width="24" height="24" viewBox="0 0 24 24" fill="none" xmlns="http://www.w3.org/2000/svg">
<path d="M19.0106 17.4074L18.0413 7.43988C17.9421 6.39088 17.5684 5.3865 16.9579 4.52776C16.3473 3.66901 15.5214 2.9862 14.5631 2.54801C14.5451 1.88047 14.2672 1.24634 13.7887 0.780577C13.3101 0.314814 12.6687 0.0541992 12.0009 0.0541992C11.3332 0.0541992 10.6917 0.314814 10.2132 0.780577C9.73468 1.24634 9.45681 1.88047 9.43875 2.54801C8.48083 2.98714 7.65522 3.67045 7.04475 4.5294C6.43427 5.38834 6.0604 6.39271 5.96063 7.44176L4.9875 17.4186C4.28942 17.4879 3.64197 17.814 3.17078 18.3337C2.69959 18.8534 2.43826 19.5296 2.4375 20.2311V20.9568C2.4375 21.1059 2.49676 21.249 2.60225 21.3545C2.70774 21.46 2.85082 21.5193 3 21.5193H7.93125C8.31527 22.2677 8.89827 22.8956 9.61611 23.3341C10.334 23.7726 11.1588 24.0046 12 24.0046C12.8412 24.0046 13.666 23.7726 14.3839 23.3341C15.1017 22.8956 15.6847 22.2677 16.0687 21.5193H21C21.1492 21.5193 21.2923 21.46 21.3977 21.3545C21.5032 21.249 21.5625 21.1059 21.5625 20.9568V20.0811C21.5605 19.3934 21.2946 18.7328 20.8198 18.2353C20.345 17.7378 19.6975 17.4415 19.0106 17.4074ZM12 1.12488C12.3088 1.12443 12.6095 1.22336 12.8577 1.40705C13.1059 1.59075 13.2884 1.84945 13.3781 2.14488C12.4717 1.93793 11.5302 1.93793 10.6237 2.14488C10.7134 1.84975 10.8956 1.59128 11.1434 1.40761C11.3912 1.22395 11.6915 1.12483 12 1.12488ZM12 22.8749C11.4684 22.8756 10.9438 22.7531 10.4675 22.5169C9.99122 22.2807 9.57618 21.9373 9.255 21.5136H14.7469C14.426 21.9381 14.0108 22.282 13.534 22.5183C13.0573 22.7545 12.5321 22.8766 12 22.8749ZM20.4375 20.3886H3.5625V20.2255C3.56695 19.7758 3.749 19.346 4.06896 19.0299C4.38892 18.7138 4.82086 18.537 5.27063 18.538H5.49937C5.6396 18.5387 5.77501 18.4869 5.87907 18.3929C5.98313 18.2989 6.04832 18.1695 6.06188 18.0299L7.08 7.55801C7.16475 6.64881 7.50248 5.78152 8.05491 5.05444C8.60735 4.32737 9.35239 3.76956 10.2056 3.44426H10.2244C11.3661 3.01575 12.6245 3.01575 13.7662 3.44426L13.8263 3.46676C14.6691 3.79451 15.4046 4.34949 15.9511 5.07007C16.4976 5.79064 16.8336 6.64859 16.9219 7.54863L17.94 18.0205C17.9536 18.1601 18.0187 18.2896 18.1228 18.3835C18.2269 18.4775 18.3623 18.5293 18.5025 18.5286H18.8775C19.2901 18.5281 19.686 18.6913 19.9785 18.9823C20.2709 19.2734 20.436 19.6685 20.4375 20.0811V20.3886Z" fill="#000"/>
</svg>