<svg width="28" height="28" viewBox="0 0 28 28" fill="none" xmlns="http://www.w3.org/2000/svg">
<path d="M10.6032 14.7181H10.0607V18.7912H10.5901C10.6567 18.7923 10.7227 18.7793 10.7838 18.7529C10.8449 18.7265 10.8997 18.6873 10.9445 18.6381C10.9907 18.5914 11.0272 18.5361 11.052 18.4753C11.0768 18.4145 11.0893 18.3494 11.0888 18.2837V15.2212C11.0898 15.1544 11.0771 15.0882 11.0515 15.0265C11.026 14.9648 10.988 14.909 10.9401 14.8625C10.8962 14.8174 10.8439 14.7814 10.7861 14.7566C10.7283 14.7318 10.6661 14.7187 10.6032 14.7181V14.7181ZM7.48822 16.4418C7.53595 16.3952 7.57374 16.3393 7.5993 16.2777C7.62487 16.216 7.63768 16.1498 7.63697 16.0831V15.2081C7.64009 15.1409 7.62969 15.0737 7.60639 15.0106C7.5831 14.9475 7.54738 14.8897 7.50135 14.8406C7.45308 14.7931 7.39551 14.7562 7.33226 14.7321C7.26901 14.708 7.20145 14.6973 7.13385 14.7006H6.6001V16.5906H7.12947C7.19632 16.5921 7.26275 16.5796 7.32452 16.554C7.38629 16.5284 7.44204 16.4902 7.48822 16.4418Z" fill="black"/>
<path d="M20.5625 11.8125H20.125V6.5625C20.125 6.5625 20.125 6.5625 20.125 6.53625C20.1228 6.49753 20.1154 6.45928 20.1031 6.4225V6.38313C20.083 6.33632 20.0549 6.29338 20.02 6.25625L14.77 1.00625C14.7329 0.971366 14.6899 0.943235 14.6431 0.923125H14.6038C14.5602 0.899247 14.5128 0.882972 14.4638 0.875H1.3125C1.19647 0.875 1.08519 0.921094 1.00314 1.00314C0.921094 1.08519 0.875 1.19647 0.875 1.3125V11.8125H0.4375C0.321468 11.8125 0.210188 11.8586 0.128141 11.9406C0.0460937 12.0227 0 12.134 0 12.25V21C0 21.116 0.0460937 21.2273 0.128141 21.3094C0.210188 21.3914 0.321468 21.4375 0.4375 21.4375H0.875V26.6875C0.875 26.8035 0.921094 26.9148 1.00314 26.9969C1.08519 27.0789 1.19647 27.125 1.3125 27.125H19.6875C19.8035 27.125 19.9148 27.0789 19.9969 26.9969C20.0789 26.9148 20.125 26.8035 20.125 26.6875V21.4375H20.5625C20.6785 21.4375 20.7898 21.3914 20.8719 21.3094C20.9539 21.2273 21 21.116 21 21V12.25C21 12.134 20.9539 12.0227 20.8719 11.9406C20.7898 11.8586 20.6785 11.8125 20.5625 11.8125ZM14.875 2.36687L18.6331 6.125H14.875V2.36687ZM19.25 26.25H1.75V21.4375H19.25V26.25ZM5.71812 19.6087V13.7681H7.105C7.29471 13.7597 7.48404 13.7916 7.66051 13.8618C7.83698 13.9319 7.99657 14.0387 8.12875 14.175C8.36992 14.4466 8.49688 14.8008 8.48312 15.1637V16.0125C8.48616 16.1959 8.45206 16.3781 8.38289 16.548C8.31372 16.7179 8.21091 16.8721 8.08062 17.0013C7.95548 17.1338 7.80409 17.2388 7.63612 17.3096C7.46815 17.3804 7.28726 17.4155 7.105 17.4125H6.60188V19.6L5.71812 19.6087ZM9.19188 19.6087V13.7638H10.5744C10.7574 13.7602 10.9391 13.7949 11.1079 13.8657C11.2766 13.9366 11.4287 14.0419 11.5544 14.175C11.6845 14.3033 11.7873 14.4568 11.8565 14.6259C11.9257 14.7951 11.9598 14.9766 11.9569 15.1594V18.2219C11.9596 18.4057 11.9249 18.5881 11.855 18.758C11.785 18.928 11.6813 19.082 11.55 19.2106C11.4244 19.3437 11.2723 19.4491 11.1035 19.5199C10.9347 19.5907 10.753 19.6254 10.57 19.6219L9.19188 19.6087ZM14.805 16.2444V17.1194H13.615V19.6H12.74V13.7638H15.2469V14.6388H13.615V16.2312L14.805 16.2444ZM19.25 11.8125H1.75V1.75H14V6.5625C14 6.67853 14.0461 6.78981 14.1281 6.87186C14.2102 6.95391 14.3215 7 14.4375 7H19.25V11.8125Z" fill="black"/>
</svg>
