<svg width="44" height="44" viewBox="0 0 44 44" fill="none" xmlns="http://www.w3.org/2000/svg">
<path d="M32.2441 28.7788C31.8609 28.3942 31.4055 28.0891 30.9041 27.8809C30.4027 27.6727 29.8651 27.5655 29.3222 27.5655C28.7793 27.5655 28.2417 27.6727 27.7403 27.8809C27.2389 28.0891 26.7836 28.3942 26.4003 28.7788L24.4066 30.7725C22.1618 29.3478 20.082 27.6785 18.2053 25.795C16.3259 23.9149 14.6569 21.8355 13.2278 19.5938L15.2216 17.6C15.6062 17.2168 15.9113 16.7614 16.1195 16.26C16.3277 15.7586 16.4348 15.2211 16.4348 14.6782C16.4348 14.1353 16.3277 13.5977 16.1195 13.0963C15.9113 12.5949 15.6062 12.1395 15.2216 11.7563L11.3303 7.87879C10.9525 7.49296 10.501 7.18702 10.0026 6.97915C9.5042 6.77129 8.9691 6.66574 8.4291 6.66879C7.88526 6.66746 7.34653 6.77368 6.84389 6.98134C6.34126 7.189 5.88466 7.494 5.50035 7.87879L3.63035 9.73504C2.73903 10.6934 2.07381 11.8393 1.68357 13.0885C1.29334 14.3377 1.18802 15.6585 1.37535 16.9538C1.81535 22.11 5.19785 28.3113 10.4091 33.5363C15.6203 38.7613 21.8903 42.13 27.0466 42.625C27.4313 42.6456 27.8169 42.6456 28.2016 42.625C29.3115 42.6716 30.4196 42.4962 31.4608 42.109C32.5021 41.7217 33.4556 41.1306 34.2653 40.37L36.1216 38.5C36.5064 38.1157 36.8114 37.6591 37.019 37.1565C37.2267 36.6539 37.3329 36.1151 37.3316 35.5713C37.3346 35.0313 37.2291 34.4962 37.0212 33.9978C36.8134 33.4994 36.5074 33.0479 36.1216 32.67L32.2441 28.7788ZM34.1828 36.5613L32.3128 38.4175C31.6214 38.9938 30.8143 39.4148 29.946 39.652C29.0778 39.8892 28.1687 39.9371 27.2803 39.7925C22.8116 39.4075 17.1191 36.245 12.4166 31.5425C7.71409 26.84 4.5516 21.1888 4.12535 16.72C3.97707 15.8317 4.02321 14.9217 4.26059 14.0529C4.49797 13.1841 4.92094 12.3771 5.50035 11.6875L7.4391 9.81754C7.56758 9.69011 7.71995 9.58928 7.88747 9.52086C8.055 9.45243 8.23439 9.41775 8.41535 9.41879C8.5963 9.41775 8.77569 9.45243 8.94322 9.52086C9.11074 9.58928 9.26312 9.69011 9.3916 9.81754L13.2828 13.75C13.5389 14.0077 13.6827 14.3562 13.6827 14.7194C13.6827 15.0827 13.5389 15.4312 13.2828 15.6888L10.5328 18.4388C10.3177 18.6529 10.1794 18.9323 10.1396 19.2332C10.0998 19.5342 10.1607 19.8398 10.3128 20.1025C11.9593 22.9054 13.9604 25.4842 16.2666 27.775C18.5574 30.0813 21.1362 32.0824 23.9391 33.7288C24.2018 33.8809 24.5075 33.9419 24.8084 33.9021C25.1094 33.8623 25.3887 33.724 25.6028 33.5088L28.3528 30.7588C28.6105 30.5027 28.959 30.359 29.3222 30.359C29.6855 30.359 30.034 30.5027 30.2916 30.7588L34.1828 34.65C34.3103 34.7785 34.4111 34.9309 34.4795 35.0984C34.548 35.2659 34.5826 35.4453 34.5816 35.6263C34.573 35.9775 34.4303 36.312 34.1828 36.5613ZM36.5753 7.41129C34.6645 5.49313 32.3928 3.9722 29.8913 2.93619C27.3897 1.90019 24.7079 1.36961 22.0003 1.37504C21.6357 1.37504 21.2859 1.51991 21.0281 1.77777C20.7702 2.03563 20.6253 2.38537 20.6253 2.75004C20.6253 3.11471 20.7702 3.46445 21.0281 3.72231C21.2859 3.98018 21.6357 4.12504 22.0003 4.12504C24.3605 4.12496 26.6973 4.59227 28.8759 5.50002C31.0545 6.40776 33.0318 7.73797 34.6937 9.41387C36.3555 11.0898 37.669 13.0782 38.5583 15.2644C39.4477 17.4506 39.8953 19.7912 39.8753 22.1513C39.8753 22.516 40.0202 22.8657 40.2781 23.1236C40.5359 23.3814 40.8857 23.5263 41.2503 23.5263C41.615 23.5263 41.9648 23.3814 42.2226 23.1236C42.4805 22.8657 42.6253 22.516 42.6253 22.1513C42.6517 19.415 42.1299 16.701 41.0909 14.1695C40.0518 11.638 38.5165 9.34009 36.5753 7.41129Z" fill="url(#paint0_linear_1_310)"/>
<path d="M28.7518 15.2757C29.5321 16.0513 30.1495 16.9752 30.5674 17.9929C30.9854 19.0107 31.1955 20.1018 31.1855 21.202C31.1855 21.5666 31.3304 21.9164 31.5883 22.1742C31.8461 22.4321 32.1959 22.577 32.5605 22.577C32.9252 22.577 33.275 22.4321 33.5328 22.1742C33.7907 21.9164 33.9355 21.5666 33.9355 21.202C33.9538 19.7459 33.6827 18.3007 33.138 16.9502C32.5934 15.5997 31.786 14.3708 30.7627 13.3347C29.7395 12.2987 28.5207 11.4761 27.1771 10.9147C25.8334 10.3534 24.3917 10.0643 22.9355 10.0645C22.5709 10.0645 22.2211 10.2093 21.9633 10.4672C21.7054 10.725 21.5605 11.0748 21.5605 11.4395C21.5605 11.8041 21.7054 12.1539 21.9633 12.4117C22.2211 12.6696 22.5709 12.8145 22.9355 12.8145C24.0192 12.8226 25.0905 13.0442 26.0885 13.4665C27.0865 13.8888 27.9915 14.5036 28.7518 15.2757Z" fill="url(#paint1_linear_1_310)"/>
<defs>
<linearGradient id="paint0_linear_1_310" x1="42.6263" y1="22.0077" x2="1.28516" y2="22.0077" gradientUnits="userSpaceOnUse">
<stop stop-color="#CB11AB"/>
<stop offset="1" stop-color="#481173"/>
</linearGradient>
<linearGradient id="paint1_linear_1_310" x1="33.9364" y1="16.3207" x2="21.5605" y2="16.3207" gradientUnits="userSpaceOnUse">
<stop stop-color="#CB11AB"/>
<stop offset="1" stop-color="#481173"/>
</linearGradient>
</defs>
</svg>
