<svg width="65" height="66" viewBox="0 0 65 66" fill="none" xmlns="http://www.w3.org/2000/svg">
<path d="M27.9219 62.6737C31.2262 63.2299 34.6007 63.2299 37.905 62.6737" stroke="#BB2FA6" stroke-width="4"/>
<path d="M27.9219 3.32826C31.2262 2.77209 34.6007 2.77209 37.905 3.32826" stroke="#BB2FA6" stroke-width="4"/>
<path d="M62.5856 28.0098C63.14 31.3144 63.1381 34.6887 62.5801 37.9927" stroke="#B6B6B6" stroke-width="4"/>
<path d="M3.24245 28.0098C2.68814 31.3144 2.69004 34.6887 3.24805 37.9927" stroke="#BB2FA6" stroke-width="4"/>
<path d="M50.5639 8.63252C53.2767 10.5994 55.642 13.0062 57.5615 15.7528" stroke="#BB2FA6" stroke-width="4"/>
<path d="M8.25645 50.2513C10.1787 52.9959 12.5466 55.4001 15.2614 57.3643" stroke="#BB2FA6" stroke-width="4"/>
<path d="M57.2796 50.6518C55.3127 53.3646 52.9059 55.7298 50.1593 57.6494" stroke="#B6B6B6" stroke-width="4"/>
<path d="M15.6579 8.34727C12.9133 10.2695 10.5091 12.6374 8.54492 15.3523" stroke="#BB2FA6" stroke-width="4"/>
<path d="M58.445 17.0337C60.2219 19.8746 61.5117 22.9929 62.2607 26.2589" stroke="#BB2FA6" stroke-width="4"/>
<path d="M3.6136 39.7437C4.36586 43.009 5.65863 46.126 7.43836 48.9651" stroke="#BB2FA6" stroke-width="4"/>
<path d="M48.9039 58.5047C46.063 60.2816 42.9447 61.5711 39.6787 62.3201" stroke="#B6B6B6" stroke-width="4"/>
<path d="M26.1938 3.67596C22.9285 4.42822 19.8117 5.72121 16.9726 7.50094" stroke="#BB2FA6" stroke-width="4"/>
<path d="M39.6843 3.69124C42.948 4.45051 46.062 5.75019 48.8973 7.53601" stroke="#BB2FA6" stroke-width="4"/>
<path d="M16.8548 58.4718C19.6919 60.2548 22.8073 61.551 26.0718 62.307" stroke="#BB2FA6" stroke-width="4"/>
<path d="M62.1876 39.8073C61.4283 43.071 60.1287 46.1852 58.3429 49.0205" stroke="#B6B6B6" stroke-width="4"/>
<path d="M7.40623 16.9798C5.62324 19.8169 4.32669 22.9324 3.57069 26.1968" stroke="#BB2FA6" stroke-width="4"/>
<path d="M55.1432 32.5726C55.1432 45.0416 45.037 55.1471 32.5722 55.1471C20.1042 55.1471 10 45.0416 10 32.5726C10 20.1066 20.1042 10 32.5722 10C45.037 10 55.1432 20.1066 55.1432 32.5726Z" fill="url(#paint0_linear_0_1387)"/>
<path d="M30.8389 31.6436H32.1045C32.5967 31.6436 33.0039 31.5586 33.3262 31.3887C33.6543 31.2188 33.8975 30.9844 34.0557 30.6855C34.2139 30.3867 34.293 30.0439 34.293 29.6572C34.293 29.2529 34.2197 28.9072 34.0732 28.6201C33.9326 28.3271 33.7158 28.1016 33.4229 27.9434C33.1357 27.7852 32.7695 27.7061 32.3242 27.7061C31.9492 27.7061 31.6094 27.7822 31.3047 27.9346C31.0059 28.0811 30.7686 28.292 30.5928 28.5674C30.417 28.8369 30.3291 29.1592 30.3291 29.5342H28.2021C28.2021 28.8545 28.3809 28.251 28.7383 27.7236C29.0957 27.1963 29.582 26.7832 30.1973 26.4844C30.8184 26.1797 31.5156 26.0273 32.2891 26.0273C33.1152 26.0273 33.8359 26.165 34.4512 26.4404C35.0723 26.71 35.5557 27.1143 35.9014 27.6533C36.2471 28.1924 36.4199 28.8604 36.4199 29.6572C36.4199 30.0205 36.335 30.3896 36.165 30.7646C35.9951 31.1396 35.7432 31.4824 35.4092 31.793C35.0752 32.0977 34.6592 32.3467 34.1611 32.54C33.6631 32.7275 33.0859 32.8213 32.4297 32.8213H30.8389V31.6436ZM30.8389 33.2959V32.1357H32.4297C33.1797 32.1357 33.8184 32.2236 34.3457 32.3994C34.8789 32.5752 35.3125 32.8184 35.6465 33.1289C35.9805 33.4336 36.2236 33.7822 36.376 34.1748C36.5342 34.5674 36.6133 34.9834 36.6133 35.4229C36.6133 36.0205 36.5049 36.5537 36.2881 37.0225C36.0771 37.4854 35.7754 37.8779 35.3828 38.2002C34.9902 38.5225 34.5303 38.7656 34.0029 38.9297C33.4814 39.0938 32.9131 39.1758 32.2979 39.1758C31.7471 39.1758 31.2197 39.0996 30.7158 38.9473C30.2119 38.7949 29.7607 38.5693 29.3623 38.2705C28.9639 37.9658 28.6475 37.5879 28.4131 37.1367C28.1846 36.6797 28.0703 36.1523 28.0703 35.5547H30.1885C30.1885 35.9355 30.2764 36.2725 30.4521 36.5654C30.6338 36.8525 30.8857 37.0781 31.208 37.2422C31.5361 37.4062 31.9111 37.4883 32.333 37.4883C32.7783 37.4883 33.1621 37.4092 33.4844 37.251C33.8066 37.0928 34.0527 36.8584 34.2227 36.5479C34.3984 36.2373 34.4863 35.8623 34.4863 35.4229C34.4863 34.9248 34.3896 34.5205 34.1963 34.21C34.0029 33.8994 33.7275 33.6709 33.3701 33.5244C33.0127 33.3721 32.5908 33.2959 32.1045 33.2959H30.8389Z" fill="white"/>
<defs>
<linearGradient id="paint0_linear_0_1387" x1="55.1433" y1="32.5735" x2="10" y2="32.5735" gradientUnits="userSpaceOnUse">
<stop stop-color="#CB11AB"/>
<stop offset="1" stop-color="#481173"/>
</linearGradient>
</defs>
</svg>
