<svg width="40" height="40" viewBox="0 0 40 40" fill="none" xmlns="http://www.w3.org/2000/svg">
<g clip-path="url(#clip0_466_2696)">
<path d="M17.1829 37.984C19.2163 38.3211 21.2929 38.3211 23.3263 37.984" stroke="#BB2FA6" stroke-width="4"/>
<path d="M17.1829 2.01709C19.2163 1.68001 21.2929 1.68001 23.3263 2.01709" stroke="#BB2FA6" stroke-width="4"/>
<path d="M38.5143 16.9756C38.8554 18.9784 38.8543 21.0234 38.5109 23.0258" stroke="#BB2FA6" stroke-width="4"/>
<path d="M1.99545 16.9756C1.65434 18.9784 1.6555 21.0234 1.99889 23.0258" stroke="#BB2FA6" stroke-width="4"/>
<path d="M31.1162 5.23174C32.7857 6.42377 34.2412 7.88247 35.4225 9.54705" stroke="#BB2FA6" stroke-width="4"/>
<path d="M5.08102 30.4553C6.26396 32.1187 7.72113 33.5758 9.39179 34.7662" stroke="#BB2FA6" stroke-width="4"/>
<path d="M35.2491 30.698C34.0387 32.3421 32.5576 33.7756 30.8674 34.939" stroke="#BB2FA6" stroke-width="4"/>
<path d="M9.63569 5.05886C7.94669 6.22387 6.46717 7.65896 5.25847 9.30431" stroke="#BB2FA6" stroke-width="4"/>
<path d="M35.9661 10.3233C37.0596 12.0451 37.8534 13.935 38.3143 15.9144" stroke="#BB2FA6" stroke-width="4"/>
<path d="M2.22381 24.0871C2.68674 26.066 3.48229 27.9551 4.57751 29.6758" stroke="#BB2FA6" stroke-width="4"/>
<path d="M30.0948 35.4573C28.3465 36.5342 26.4276 37.3158 24.4177 37.7697" stroke="#BB2FA6" stroke-width="4"/>
<path d="M16.1193 2.22784C14.1099 2.68376 12.1919 3.46739 10.4447 4.54602" stroke="#BB2FA6" stroke-width="4"/>
<path d="M24.4212 2.23703C26.4296 2.6972 28.3459 3.48488 30.0907 4.5672" stroke="#BB2FA6" stroke-width="4"/>
<path d="M10.3723 35.4374C12.1182 36.518 14.0354 37.3036 16.0443 37.7618" stroke="#BB2FA6" stroke-width="4"/>
<path d="M38.2694 24.1256C37.8021 26.1036 37.0024 27.991 35.9034 29.7094" stroke="#BB2FA6" stroke-width="4"/>
<path d="M4.55783 10.2908C3.46061 12.0102 2.66273 13.8984 2.1975 15.8768" stroke="#BB2FA6" stroke-width="4"/>
<path d="M33.9345 19.7409C33.9345 27.2979 27.7153 33.4224 20.0446 33.4224C12.372 33.4224 6.15405 27.2979 6.15405 19.7409C6.15405 12.1858 12.372 6.06055 20.0446 6.06055C27.7153 6.06055 33.9345 12.1858 33.9345 19.7409Z" fill="url(#paint0_linear_466_2696)"/>
<path d="M24.6671 21.1658V22.8533H15.4386L15.3683 21.5789L20.8878 12.9304H22.5841L20.7472 16.0769L17.5743 21.1658H24.6671ZM23.0675 12.9304V25.7273H20.9493V12.9304H23.0675Z" fill="white"/>
</g>
<defs>
<linearGradient id="paint0_linear_466_2696" x1="33.9345" y1="19.7415" x2="6.15405" y2="19.7415" gradientUnits="userSpaceOnUse">
<stop stop-color="#CB11AB"/>
<stop offset="1" stop-color="#481173"/>
</linearGradient>
<clipPath id="clip0_466_2696">
<rect width="40" height="40" fill="white"/>
</clipPath>
</defs>
</svg>
