<svg width="40" height="40" viewBox="0 0 40 40" fill="none" xmlns="http://www.w3.org/2000/svg">
<g clip-path="url(#clip0_466_2740)">
<path d="M17.1829 37.984C19.2163 38.3211 21.2929 38.3211 23.3263 37.984" stroke="#BB2FA6" stroke-width="4"/>
<path d="M17.1829 2.01709C19.2163 1.68001 21.2929 1.68001 23.3263 2.01709" stroke="#BB2FA6" stroke-width="4"/>
<path d="M38.5143 16.9756C38.8554 18.9784 38.8543 21.0234 38.5109 23.0258" stroke="#B6B6B6" stroke-width="4"/>
<path d="M1.99545 16.9756C1.65434 18.9784 1.6555 21.0234 1.99889 23.0258" stroke="#BB2FA6" stroke-width="4"/>
<path d="M31.1162 5.23174C32.7857 6.42377 34.2412 7.88247 35.4225 9.54705" stroke="#B6B6B6" stroke-width="4"/>
<path d="M5.08102 30.4553C6.26396 32.1187 7.72113 33.5758 9.39179 34.7662" stroke="#BB2FA6" stroke-width="4"/>
<path d="M35.2491 30.698C34.0387 32.3421 32.5576 33.7756 30.8674 34.939" stroke="#B6B6B6" stroke-width="4"/>
<path d="M9.63569 5.05886C7.94669 6.22387 6.46717 7.65896 5.25847 9.30431" stroke="#BB2FA6" stroke-width="4"/>
<path d="M35.9661 10.3233C37.0596 12.0451 37.8534 13.935 38.3143 15.9144" stroke="#B6B6B6" stroke-width="4"/>
<path d="M2.22381 24.0871C2.68674 26.066 3.48229 27.9551 4.57751 29.6758" stroke="#BB2FA6" stroke-width="4"/>
<path d="M30.0948 35.4573C28.3465 36.5342 26.4276 37.3158 24.4177 37.7697" stroke="#B6B6B6" stroke-width="4"/>
<path d="M16.1193 2.22784C14.1099 2.68376 12.1919 3.46739 10.4447 4.54602" stroke="#BB2FA6" stroke-width="4"/>
<path d="M24.4212 2.23703C26.4296 2.6972 28.3459 3.48488 30.0907 4.5672" stroke="#B6B6B6" stroke-width="4"/>
<path d="M10.3723 35.4374C12.1182 36.518 14.0354 37.3036 16.0443 37.7618" stroke="#BB2FA6" stroke-width="4"/>
<path d="M38.2694 24.1256C37.8021 26.1036 37.0024 27.991 35.9034 29.7094" stroke="#B6B6B6" stroke-width="4"/>
<path d="M4.55783 10.2908C3.46061 12.0102 2.66273 13.8984 2.1975 15.8768" stroke="#BB2FA6" stroke-width="4"/>
<path d="M33.9345 19.7409C33.9345 27.2979 27.7153 33.4224 20.0446 33.4224C12.372 33.4224 6.15405 27.2979 6.15405 19.7409C6.15405 12.1858 12.372 6.06055 20.0446 6.06055C27.7153 6.06055 33.9345 12.1858 33.9345 19.7409Z" fill="url(#paint0_linear_466_2740)"/>
<path d="M24.4298 24.0398V25.7273H15.8517V24.2771L20.0177 19.7332C20.4747 19.2175 20.8351 18.7722 21.0987 18.3972C21.3624 18.0222 21.547 17.6853 21.6524 17.3865C21.7638 17.0818 21.8194 16.7859 21.8194 16.4988C21.8194 16.0945 21.7433 15.74 21.5909 15.4353C21.4444 15.1248 21.2276 14.8816 20.9405 14.7058C20.6534 14.5242 20.3048 14.4333 19.8946 14.4333C19.42 14.4333 19.0216 14.5359 18.6993 14.741C18.377 14.946 18.1339 15.2302 17.9698 15.5935C17.8058 15.9509 17.7237 16.3611 17.7237 16.824H15.6056C15.6056 16.0798 15.7755 15.4001 16.1153 14.7849C16.4552 14.1638 16.9474 13.6716 17.5919 13.3083C18.2364 12.9392 19.0128 12.7546 19.921 12.7546C20.7765 12.7546 21.503 12.8982 22.1007 13.1853C22.6983 13.4724 23.1524 13.8796 23.463 14.407C23.7794 14.9343 23.9376 15.5583 23.9376 16.2791C23.9376 16.6775 23.8731 17.073 23.7442 17.4656C23.6153 17.8582 23.4308 18.2507 23.1905 18.6433C22.9561 19.03 22.6778 19.4197 22.3556 19.8123C22.0333 20.199 21.6788 20.5916 21.2921 20.99L18.5235 24.0398H24.4298Z" fill="white"/>
</g>
<defs>
<linearGradient id="paint0_linear_466_2740" x1="33.9345" y1="19.7415" x2="6.15405" y2="19.7415" gradientUnits="userSpaceOnUse">
<stop stop-color="#CB11AB"/>
<stop offset="1" stop-color="#481173"/>
</linearGradient>
<clipPath id="clip0_466_2740">
<rect width="40" height="40" fill="white"/>
</clipPath>
</defs>
</svg>
