<svg width="40" height="40" viewBox="0 0 40 40" fill="none" xmlns="http://www.w3.org/2000/svg">
<g clip-path="url(#clip0_466_2674)">
<path d="M17.1829 37.984C19.2163 38.3211 21.2929 38.3211 23.3263 37.984" stroke="#BB2FA6" stroke-width="4"/>
<path d="M17.1829 2.01709C19.2163 1.68001 21.2929 1.68001 23.3263 2.01709" stroke="#BB2FA6" stroke-width="4"/>
<path d="M38.5143 16.9756C38.8554 18.9784 38.8543 21.0234 38.5109 23.0258" stroke="#B6B6B6" stroke-width="4"/>
<path d="M1.99545 16.9756C1.65434 18.9784 1.6555 21.0234 1.99889 23.0258" stroke="#BB2FA6" stroke-width="4"/>
<path d="M31.1162 5.23174C32.7857 6.42377 34.2412 7.88247 35.4225 9.54705" stroke="#BB2FA6" stroke-width="4"/>
<path d="M5.08102 30.4553C6.26396 32.1187 7.72113 33.5758 9.39179 34.7662" stroke="#BB2FA6" stroke-width="4"/>
<path d="M35.2491 30.698C34.0387 32.3421 32.5576 33.7756 30.8674 34.939" stroke="#B6B6B6" stroke-width="4"/>
<path d="M9.63569 5.05886C7.94669 6.22387 6.46717 7.65896 5.25847 9.30431" stroke="#BB2FA6" stroke-width="4"/>
<path d="M35.9661 10.3233C37.0596 12.0451 37.8534 13.935 38.3143 15.9144" stroke="#BB2FA6" stroke-width="4"/>
<path d="M2.22381 24.0871C2.68674 26.066 3.48229 27.9551 4.57751 29.6758" stroke="#BB2FA6" stroke-width="4"/>
<path d="M30.0948 35.4573C28.3465 36.5342 26.4276 37.3158 24.4177 37.7697" stroke="#B6B6B6" stroke-width="4"/>
<path d="M16.1193 2.22784C14.1099 2.68376 12.1919 3.46739 10.4447 4.54602" stroke="#BB2FA6" stroke-width="4"/>
<path d="M24.4212 2.23703C26.4296 2.6972 28.3459 3.48488 30.0907 4.5672" stroke="#BB2FA6" stroke-width="4"/>
<path d="M10.3723 35.4374C12.1182 36.518 14.0354 37.3036 16.0443 37.7618" stroke="#BB2FA6" stroke-width="4"/>
<path d="M38.2694 24.1256C37.8021 26.1036 37.0024 27.991 35.9034 29.7094" stroke="#B6B6B6" stroke-width="4"/>
<path d="M4.55783 10.2908C3.46061 12.0102 2.66273 13.8984 2.1975 15.8768" stroke="#BB2FA6" stroke-width="4"/>
<path d="M33.9345 19.7409C33.9345 27.2979 27.7153 33.4224 20.0446 33.4224C12.372 33.4224 6.15405 27.2979 6.15405 19.7409C6.15405 12.1858 12.372 6.06055 20.0446 6.06055C27.7153 6.06055 33.9345 12.1858 33.9345 19.7409Z" fill="url(#paint0_linear_466_2674)"/>
<path d="M18.339 18.3708H19.6046C20.0968 18.3708 20.504 18.2859 20.8263 18.116C21.1544 17.946 21.3976 17.7117 21.5558 17.4128C21.714 17.114 21.7931 16.7712 21.7931 16.3845C21.7931 15.9802 21.7198 15.6345 21.5733 15.3474C21.4327 15.0544 21.2159 14.8289 20.9229 14.6707C20.6358 14.5125 20.2696 14.4333 19.8243 14.4333C19.4493 14.4333 19.1095 14.5095 18.8048 14.6619C18.506 14.8083 18.2686 15.0193 18.0929 15.2947C17.9171 15.5642 17.8292 15.8865 17.8292 16.2615H15.7022C15.7022 15.5818 15.881 14.9783 16.2384 14.4509C16.5958 13.9236 17.0821 13.5105 17.6974 13.2117C18.3185 12.907 19.0157 12.7546 19.7892 12.7546C20.6153 12.7546 21.336 12.8923 21.9513 13.1677C22.5724 13.4373 23.0558 13.8416 23.4015 14.3806C23.7472 14.9197 23.92 15.5876 23.92 16.3845C23.92 16.7478 23.8351 17.1169 23.6651 17.4919C23.4952 17.8669 23.2433 18.2097 22.9093 18.5203C22.5753 18.825 22.1593 19.074 21.6612 19.2673C21.1632 19.4548 20.586 19.5486 19.9298 19.5486H18.339V18.3708ZM18.339 20.0232V18.863H19.9298C20.6798 18.863 21.3185 18.9509 21.8458 19.1267C22.379 19.3025 22.8126 19.5457 23.1466 19.8562C23.4806 20.1609 23.7237 20.5095 23.8761 20.9021C24.0343 21.2947 24.1134 21.7107 24.1134 22.1501C24.1134 22.7478 24.005 23.281 23.7882 23.7498C23.5772 24.2126 23.2755 24.6052 22.8829 24.9275C22.4903 25.2498 22.0304 25.4929 21.503 25.657C20.9815 25.821 20.4132 25.9031 19.7979 25.9031C19.2472 25.9031 18.7198 25.8269 18.2159 25.6746C17.712 25.5222 17.2608 25.2966 16.8624 24.9978C16.464 24.6931 16.1476 24.3152 15.9132 23.864C15.6847 23.407 15.5704 22.8796 15.5704 22.282H17.6886C17.6886 22.6628 17.7765 22.9998 17.9522 23.2927C18.1339 23.5798 18.3858 23.8054 18.7081 23.9695C19.0362 24.1335 19.4112 24.2156 19.8331 24.2156C20.2784 24.2156 20.6622 24.1365 20.9845 23.9783C21.3067 23.8201 21.5528 23.5857 21.7228 23.2751C21.8985 22.9646 21.9864 22.5896 21.9864 22.1501C21.9864 21.6521 21.8897 21.2478 21.6964 20.9373C21.503 20.6267 21.2276 20.3982 20.8702 20.2517C20.5128 20.0994 20.0909 20.0232 19.6046 20.0232H18.339Z" fill="white"/>
</g>
<defs>
<linearGradient id="paint0_linear_466_2674" x1="33.9345" y1="19.7415" x2="6.15405" y2="19.7415" gradientUnits="userSpaceOnUse">
<stop stop-color="#CB11AB"/>
<stop offset="1" stop-color="#481173"/>
</linearGradient>
<clipPath id="clip0_466_2674">
<rect width="40" height="40" fill="white"/>
</clipPath>
</defs>
</svg>
