<svg width="65" height="66" viewBox="0 0 65 66" fill="none" xmlns="http://www.w3.org/2000/svg">
<path d="M27.9219 62.6737C31.2262 63.2299 34.6007 63.2299 37.905 62.6737" stroke="#BB2FA6" stroke-width="4"/>
<path d="M27.9219 3.32826C31.2262 2.77209 34.6007 2.77209 37.905 3.32826" stroke="#BB2FA6" stroke-width="4"/>
<path d="M62.5856 28.0098C63.14 31.3144 63.1381 34.6887 62.5801 37.9927" stroke="#B6B6B6" stroke-width="4"/>
<path d="M3.24245 28.0098C2.68814 31.3144 2.69004 34.6887 3.24805 37.9927" stroke="#BB2FA6" stroke-width="4"/>
<path d="M50.5639 8.63252C53.2767 10.5994 55.642 13.0062 57.5615 15.7528" stroke="#B6B6B6" stroke-width="4"/>
<path d="M8.25645 50.2513C10.1787 52.9959 12.5466 55.4001 15.2614 57.3643" stroke="#BB2FA6" stroke-width="4"/>
<path d="M57.2796 50.6518C55.3127 53.3646 52.9059 55.7298 50.1593 57.6494" stroke="#B6B6B6" stroke-width="4"/>
<path d="M15.6579 8.34727C12.9133 10.2695 10.5091 12.6374 8.54492 15.3523" stroke="#BB2FA6" stroke-width="4"/>
<path d="M58.445 17.0337C60.2219 19.8746 61.5117 22.9929 62.2607 26.2589" stroke="#B6B6B6" stroke-width="4"/>
<path d="M3.6136 39.7437C4.36586 43.009 5.65863 46.126 7.43836 48.9651" stroke="#BB2FA6" stroke-width="4"/>
<path d="M48.9039 58.5047C46.063 60.2816 42.9447 61.5711 39.6787 62.3201" stroke="#B6B6B6" stroke-width="4"/>
<path d="M26.1938 3.67596C22.9285 4.42822 19.8117 5.72121 16.9726 7.50094" stroke="#BB2FA6" stroke-width="4"/>
<path d="M39.6843 3.69124C42.948 4.45051 46.062 5.75019 48.8973 7.53601" stroke="#B6B6B6" stroke-width="4"/>
<path d="M16.8548 58.4718C19.6919 60.2548 22.8073 61.551 26.0718 62.307" stroke="#BB2FA6" stroke-width="4"/>
<path d="M62.1876 39.8073C61.4283 43.071 60.1287 46.1852 58.3429 49.0205" stroke="#B6B6B6" stroke-width="4"/>
<path d="M7.40623 16.9798C5.62324 19.8169 4.32669 22.9324 3.57069 26.1968" stroke="#BB2FA6" stroke-width="4"/>
<path d="M55.1432 32.5726C55.1432 45.0416 45.037 55.1471 32.5722 55.1471C20.1042 55.1471 10 45.0416 10 32.5726C10 20.1066 20.1042 10 32.5722 10C45.037 10 55.1432 20.1066 55.1432 32.5726Z" fill="url(#paint0_linear_0_1453)"/>
<path d="M36.9297 37.3125V39H28.3516V37.5498L32.5176 33.0059C32.9746 32.4902 33.335 32.0449 33.5986 31.6699C33.8623 31.2949 34.0469 30.958 34.1523 30.6592C34.2637 30.3545 34.3193 30.0586 34.3193 29.7715C34.3193 29.3672 34.2432 29.0127 34.0908 28.708C33.9443 28.3975 33.7275 28.1543 33.4404 27.9785C33.1533 27.7969 32.8047 27.7061 32.3945 27.7061C31.9199 27.7061 31.5215 27.8086 31.1992 28.0137C30.877 28.2188 30.6338 28.5029 30.4697 28.8662C30.3057 29.2236 30.2236 29.6338 30.2236 30.0967H28.1055C28.1055 29.3525 28.2754 28.6729 28.6152 28.0576C28.9551 27.4365 29.4473 26.9443 30.0918 26.5811C30.7363 26.2119 31.5127 26.0273 32.4209 26.0273C33.2764 26.0273 34.0029 26.1709 34.6006 26.458C35.1982 26.7451 35.6523 27.1523 35.9629 27.6797C36.2793 28.207 36.4375 28.8311 36.4375 29.5518C36.4375 29.9502 36.373 30.3457 36.2441 30.7383C36.1152 31.1309 35.9307 31.5234 35.6904 31.916C35.4561 32.3027 35.1777 32.6924 34.8555 33.085C34.5332 33.4717 34.1787 33.8643 33.792 34.2627L31.0234 37.3125H36.9297Z" fill="white"/>
<defs>
<linearGradient id="paint0_linear_0_1453" x1="55.1433" y1="32.5735" x2="10" y2="32.5735" gradientUnits="userSpaceOnUse">
<stop stop-color="#CB11AB"/>
<stop offset="1" stop-color="#481173"/>
</linearGradient>
</defs>
</svg>
