<svg width="65" height="66" viewBox="0 0 65 66" fill="none" xmlns="http://www.w3.org/2000/svg">
<path d="M27.9219 62.6737C31.2262 63.2299 34.6007 63.2299 37.905 62.6737" stroke="#BB2FA6" stroke-width="4"/>
<path d="M27.9219 3.32826C31.2262 2.77209 34.6007 2.77209 37.905 3.32826" stroke="#BB2FA6" stroke-width="4"/>
<path d="M62.5856 28.0098C63.14 31.3144 63.1381 34.6887 62.5801 37.9927" stroke="#B6B6B6" stroke-width="4"/>
<path d="M3.24245 28.0098C2.68814 31.3144 2.69004 34.6887 3.24805 37.9927" stroke="#BB2FA6" stroke-width="4"/>
<path d="M50.5639 8.63252C53.2767 10.5994 55.642 13.0062 57.5615 15.7528" stroke="#B6B6B6" stroke-width="4"/>
<path d="M8.25645 50.2513C10.1787 52.9959 12.5466 55.4001 15.2614 57.3643" stroke="#BB2FA6" stroke-width="4"/>
<path d="M57.2796 50.6518C55.3127 53.3646 52.9059 55.7298 50.1593 57.6494" stroke="#B6B6B6" stroke-width="4"/>
<path d="M15.6579 8.34727C12.9133 10.2695 10.5091 12.6374 8.54492 15.3523" stroke="#BB2FA6" stroke-width="4"/>
<path d="M58.445 17.0337C60.2219 19.8746 61.5117 22.9929 62.2607 26.2589" stroke="#B6B6B6" stroke-width="4"/>
<path d="M3.6136 39.7437C4.36586 43.009 5.65863 46.126 7.43836 48.9651" stroke="#BB2FA6" stroke-width="4"/>
<path d="M48.9039 58.5047C46.063 60.2816 42.9447 61.5711 39.6787 62.3201" stroke="#B6B6B6" stroke-width="4"/>
<path d="M26.1938 3.67596C22.9285 4.42822 19.8117 5.72121 16.9726 7.50094" stroke="#BB2FA6" stroke-width="4"/>
<path d="M39.6843 3.69124C42.948 4.45051 46.062 5.75019 48.8973 7.53601" stroke="#B6B6B6" stroke-width="4"/>
<path d="M16.8548 58.4718C19.6919 60.2548 22.8073 61.551 26.0718 62.307" stroke="#BB2FA6" stroke-width="4"/>
<path d="M62.1876 39.8073C61.4283 43.071 60.1287 46.1852 58.3429 49.0205" stroke="#B6B6B6" stroke-width="4"/>
<path d="M7.40623 16.9798C5.62324 19.8169 4.32669 22.9324 3.57069 26.1968" stroke="#BB2FA6" stroke-width="4"/>
<path d="M55.1432 32.5726C55.1432 45.0416 45.037 55.1471 32.5722 55.1471C20.1042 55.1471 10 45.0416 10 32.5726C10 20.1066 20.1042 10 32.5722 10C45.037 10 55.1432 20.1066 55.1432 32.5726Z" fill="url(#paint0_linear_0_1431)"/>
<path d="M34.1348 26.1592V39H32.0166V28.6729L28.8789 29.7363V27.9873L33.8799 26.1592H34.1348Z" fill="white"/>
<defs>
<linearGradient id="paint0_linear_0_1431" x1="55.1432" y1="32.5735" x2="10" y2="32.5735" gradientUnits="userSpaceOnUse">
<stop stop-color="#CB11AB"/>
<stop offset="1" stop-color="#481173"/>
</linearGradient>
</defs>
</svg>
