<svg width="28" height="28" viewBox="0 0 28 28" fill="none" xmlns="http://www.w3.org/2000/svg">
<path d="M11.3751 1.16667C9.936 1.16667 8.75008 2.35258 8.75008 3.79167V4.66667C8.75008 4.98983 9.01025 5.25 9.33342 5.25H9.91675C10.2399 5.25 10.5001 4.98983 10.5001 4.66667V3.79167C10.5001 3.29175 10.8752 2.91667 11.3751 2.91667H21.0024L21.0117 6.69901C21.0117 7.18084 21.4026 7.57051 21.8844 7.57226L25.6667 7.58159V24.2072C25.6667 24.7071 25.2917 25.0822 24.7917 25.0822H11.3751C10.8752 25.0822 10.5001 24.7071 10.5001 24.2072V14.5834C10.5001 14.2602 10.2399 14 9.91675 14H9.33342C9.01025 14 8.75008 14.2602 8.75008 14.5834V24.2084C8.75008 25.6475 9.936 26.8334 11.3751 26.8334H24.7917C26.2308 26.8334 27.4167 25.6475 27.4167 24.2084V6.42482C27.4165 6.19284 27.3242 5.97043 27.1601 5.80649L22.7775 1.42334C22.6136 1.25919 22.3912 1.16687 22.1592 1.16667H11.3751ZM2.33341 6.41667C1.68708 6.41667 1.16675 6.937 1.16675 7.58333V11.6667C1.16675 12.313 1.68708 12.8334 2.33341 12.8334H16.9167C17.5631 12.8334 18.0834 12.313 18.0834 11.6667V7.58333C18.0834 6.937 17.5631 6.41667 16.9167 6.41667H2.33341ZM10.0556 8.00916H12.3947C12.6788 8.00916 12.6899 8.07626 12.701 8.34868L12.7302 9.1624V9.18401C12.7302 9.40101 12.652 9.50776 12.4402 9.50776C12.2734 9.50776 12.1667 9.39108 12.1667 9.28025C12.1667 9.26275 12.1608 9.2289 12.1608 9.1624L12.1439 8.61118H11.5752V10.6377H12.0325C12.2606 10.6377 12.3732 10.71 12.3732 10.9387C12.3732 11.1504 12.2664 11.2397 12.0325 11.2397H10.4178C10.1839 11.2397 10.0725 11.1504 10.0725 10.9387C10.0725 10.71 10.1892 10.6377 10.4178 10.6377H10.8746V8.61118H10.3064L10.2889 9.1624V9.22951C10.2889 9.40218 10.1897 9.50776 10.0171 9.50776C9.80533 9.50776 9.72192 9.40101 9.72192 9.18401V9.1624L9.74933 8.34925C9.76042 8.07624 9.7715 8.00976 10.0556 8.00976V8.00916ZM3.49308 8.015H4.61892C5.5155 8.015 5.96641 8.36617 5.96641 9.02358C5.96641 9.72008 5.5155 10.0876 4.61892 10.0876H4.15633V10.6435H4.42875C4.65158 10.6435 4.76358 10.7158 4.76358 10.9387C4.76358 11.1615 4.65158 11.2397 4.42875 11.2397H3.49308C3.27025 11.2397 3.15941 11.1615 3.15941 10.9387C3.15941 10.7497 3.265 10.6435 3.44875 10.6435H3.49308V8.61699H3.45458C3.265 8.61699 3.15941 8.51082 3.15941 8.31599C3.15941 8.09899 3.27025 8.015 3.49308 8.015ZM6.84375 8.015H7.96958C8.86617 8.015 9.31708 8.36617 9.31708 9.02358C9.31708 9.72008 8.86617 10.0876 7.96958 10.0876H7.507V10.6435H7.77942C8.00225 10.6435 8.11425 10.7158 8.11425 10.9387C8.11425 11.1615 8.00225 11.2397 7.77942 11.2397H6.84375C6.62092 11.2397 6.51008 11.1615 6.51008 10.9387C6.51008 10.7497 6.61566 10.6435 6.79942 10.6435H6.84375V8.61699H6.80525C6.61567 8.61699 6.51008 8.51082 6.51008 8.31599C6.51008 8.09899 6.62092 8.015 6.84375 8.015ZM13.4681 8.015H14.164C14.3979 8.015 14.5093 8.09316 14.5093 8.31599C14.5093 8.49974 14.4142 8.6059 14.2305 8.61699L14.598 9.13499L14.955 8.61699C14.7765 8.59949 14.6867 8.49449 14.6867 8.31599C14.6867 8.09316 14.7928 8.015 15.0267 8.015H15.6334C15.8679 8.015 15.9805 8.09316 15.9805 8.31599C15.9805 8.51666 15.8743 8.62226 15.6678 8.62226C15.6404 8.62226 15.6171 8.62225 15.5897 8.61642L14.9107 9.55792L15.7127 10.6377C15.7349 10.6377 15.7577 10.6318 15.7798 10.6318C15.9857 10.6318 16.0907 10.738 16.0907 10.9387C16.0907 11.1615 15.9799 11.2391 15.7454 11.2391H15.0162C14.7829 11.2391 14.6709 11.1615 14.6709 10.9387C14.6709 10.7433 14.7602 10.6488 14.9602 10.6377L14.5426 10.031L14.1138 10.6377C14.3203 10.6435 14.4207 10.738 14.4207 10.9387C14.4207 11.1615 14.3081 11.2391 14.0742 11.2391H13.4395C13.2056 11.2391 13.1 11.1615 13.1 10.9387C13.1 10.738 13.2003 10.6318 13.4062 10.6318C13.429 10.6318 13.4506 10.6377 13.4727 10.6377L14.2247 9.61916L13.5013 8.61642C13.4786 8.61642 13.4564 8.62226 13.4337 8.62226C13.2277 8.62226 13.1216 8.51666 13.1216 8.31599C13.1216 8.09316 13.2342 8.015 13.4681 8.015ZM4.15633 8.6386V9.4745H4.54016C4.96891 9.4745 5.1865 9.324 5.1865 9.051C5.1865 8.778 4.96891 8.6386 4.54016 8.6386H4.15633ZM7.507 8.6386V9.4745H7.89083C8.32017 9.4745 8.53717 9.324 8.53717 9.051C8.53717 8.778 8.32017 8.6386 7.89083 8.6386H7.507ZM11.6667 22.1667C11.3436 22.1667 11.0834 22.4269 11.0834 22.75V23.3334C11.0834 23.6565 11.3436 23.9167 11.6667 23.9167H13.4167C13.7399 23.9167 14.0001 23.6565 14.0001 23.3334V22.75C14.0001 22.4269 13.7399 22.1667 13.4167 22.1667H11.6667ZM15.1667 22.1667C14.8436 22.1667 14.5834 22.4269 14.5834 22.75V23.3334C14.5834 23.6565 14.8436 23.9167 15.1667 23.9167H16.9167C17.2399 23.9167 17.5001 23.6565 17.5001 23.3334V22.75C17.5001 22.4269 17.2399 22.1667 16.9167 22.1667H15.1667ZM18.6667 22.1667C18.3436 22.1667 18.0834 22.4269 18.0834 22.75V23.3334C18.0834 23.6565 18.3436 23.9167 18.6667 23.9167H20.4167C20.7399 23.9167 21.0001 23.6565 21.0001 23.3334V22.75C21.0001 22.4269 20.7399 22.1667 20.4167 22.1667H18.6667ZM22.1667 22.1667C21.8436 22.1667 21.5834 22.4269 21.5834 22.75V23.3334C21.5834 23.6565 21.8436 23.9167 22.1667 23.9167H23.9167C24.2399 23.9167 24.5001 23.6565 24.5001 23.3334V22.75C24.5001 22.4269 24.2399 22.1667 23.9167 22.1667H22.1667Z" fill="#252525"/>
</svg>
