<svg width="116" height="21" viewBox="0 0 116 21" fill="none" xmlns="http://www.w3.org/2000/svg">
<path d="M20.423 13.9948L16.0388 1.00195H12.7698L8.29237 13.9315L3.99805 1.00195H0L6.33829 19.9702H9.99013L14.3277 7.28032L18.662 19.9702H22.2639L28.6022 1.00195H24.8072L20.423 13.9948Z" fill="black"/>
<path d="M34.5631 12.084H43.4081V8.61189H34.5631V4.52729H44.49V1.00195H30.7148V19.9702H44.8428V16.4449H34.5631V12.084Z" fill="black"/>
<path d="M61.585 2.18314C59.9536 1.37831 58.1541 0.973236 56.3353 1.00137H48.2227V19.9763H56.3353C58.1598 20.0071 59.9652 19.6019 61.6016 18.7945C63.1084 18.0419 64.3686 16.8742 65.2335 15.429C66.0804 13.9208 66.5252 12.2202 66.5252 10.4905C66.5252 8.76082 66.0804 7.0602 65.2335 5.55202C64.363 4.10451 63.0972 2.93572 61.585 2.18314ZM52.0742 4.51339H56.1688C57.3665 4.48655 58.5533 4.74559 59.6309 5.26906C60.5641 5.72723 61.342 6.44959 61.8679 7.34632C62.3857 8.30687 62.6568 9.38098 62.6568 10.4722C62.6568 11.5634 62.3857 12.6375 61.8679 13.5981C61.3418 14.4938 60.5638 15.215 59.6309 15.672C58.5536 16.1966 57.3668 16.4568 56.1688 16.431H52.0742V4.51339Z" fill="black"/>
<path d="M81.9686 11.5946C81.9686 13.329 81.5958 14.614 80.8601 15.4129C80.1244 16.2118 79.0791 16.598 77.6476 16.598C74.7148 16.598 73.35 15.0068 73.35 11.6046V1.00195H69.5117V11.6945C69.5117 14.3809 70.2341 16.4881 71.6655 17.9529C73.097 19.4176 75.1043 20.1699 77.631 20.1699C80.1577 20.1699 82.165 19.4309 83.5998 17.9662C85.0345 16.5015 85.7536 14.4009 85.7536 11.6945V1.00195H81.9686V11.5946Z" fill="black"/>
<path d="M109.662 1.00195H106.011L101.673 13.6918L97.3386 1.00195H93.7367L87.3984 19.9702H91.1934L95.5776 6.97738L99.9618 19.9702H103.231L107.708 7.04063L112.003 19.9702H116.001L109.662 1.00195Z" fill="black"/>
</svg>
