<svg width="309" height="176" viewBox="0 0 309 176" fill="none" xmlns="http://www.w3.org/2000/svg">
<g clip-path="url(#clip0_6_2)">
<path d="M21.0991 175.557C21.0991 175.557 -13.307 138.515 15.2805 98.4121C40.6451 62.83 70.2178 65.2623 91.9147 79.7018C101.156 85.8518 127.799 80.4598 150.475 44.2536C181.4 -5.12167 288.595 24.8246 269.05 100.79C259.592 137.551 297.836 138.888 278.349 175.635L21.0991 175.557Z" fill="#F9F2FC"/>
<path d="M260.121 34.74C260.121 34.74 258.973 33.8711 258.677 32.5732C258.457 31.6099 259.009 30.4009 259.054 30.3462L257.516 30.0391C257.516 30.0391 257.061 32.0848 257.832 33.4451C258.068 33.8619 258.753 34.4357 259.194 34.6502C259.68 34.8867 260.121 34.74 260.121 34.74Z" fill="#6BB7BF"/>
<path d="M262.792 33.8019L264.191 35.4067C264.191 35.4067 260.237 36.4594 257.977 33.6549C257.977 33.6548 261.306 34.7834 262.792 33.8019Z" fill="#86D1CD"/>
<path d="M102.673 90.733C102.673 90.733 100.336 89.8099 101.253 87.3297L99.7012 86.3184C99.7012 86.3184 99.0643 87.7566 101.383 90.1787C102.899 91.7636 102.673 90.733 102.673 90.733Z" fill="#5685D8"/>
<path d="M104.966 91.6474C104.966 91.6474 102.726 92.469 100.378 88.9404C100.378 88.9404 101.383 90.1787 103.782 90.0671L104.966 91.6474Z" fill="#739AF0"/>
<path d="M178.917 40.3533C178.917 40.3533 176.995 39.1363 176.793 37.6658C176.793 37.6658 174.922 37.7672 174.518 38.3757C174.518 38.3757 175.377 40.8098 176.389 41.2661C176.389 41.2661 178.664 41.4181 178.917 40.3533Z" fill="#86D1CD"/>
<path d="M249.923 67.2595H212.566V175.154H249.923V67.2595Z" fill="#AFA1FF"/>
<path d="M212.566 67.2595H113.874V175.154H212.566V67.2595Z" fill="#E1A1FF"/>
<path d="M212.566 127.591V120.04L113.874 120.04V127.591L212.566 127.591Z" fill="#AFA1FF"/>
<path d="M249.923 127.591V120.04H212.566V127.591H249.923Z" fill="#9B89FF"/>
<path d="M181.919 68.4153C181.919 68.4153 204.216 53.8874 219.372 58.5555L216.245 61.4838L217.654 66.4046C217.654 66.4046 200.801 60.9009 181.458 69.2431L181.919 68.4153Z" fill="#E1A1FF"/>
<path d="M180.672 65.1252C180.672 65.1252 176.738 64.6485 170.875 63.8398C155.309 61.6928 126.152 57.201 120.919 53.0445C112.696 46.5151 132.182 18.7838 140.616 14.9346C149.051 11.0889 180.672 65.1252 180.672 65.1252Z" fill="#E1A1FF"/>
<path d="M242.36 30.5929C243.765 37.463 180.093 67.1428 180.093 67.1428C180.093 67.1428 181.252 64.0026 183.136 59.0836C183.136 59.0836 183.139 59.0794 183.141 59.0753C190.025 41.113 206.609 -0.570973 212.058 0.00591201C212.605 0.0627729 213.246 0.259045 213.961 0.573338C222.331 4.26618 241.065 24.2658 242.36 30.5929Z" fill="#E1A1FF"/>
<path d="M213.424 6.68228C209.536 13.4554 183.548 58.3752 183.141 59.0753C190.025 41.113 206.609 -0.570973 212.058 0.00591201C212.058 0.00591201 213.137 -0.0250443 213.961 0.573338C214.954 1.29909 215.571 2.94226 213.424 6.68228Z" fill="#9B89FF"/>
<path d="M170.885 63.8397H170.875C155.309 61.6927 126.152 57.2009 120.919 53.0444C118.556 46.3702 124.687 45.8264 129.149 45.3567C133.608 44.8871 170.885 63.8397 170.885 63.8397Z" fill="#9B89FF"/>
<path d="M168.797 67.251C168.797 67.251 172.366 59.109 179.391 58.6582C186.728 58.1874 190.896 67.251 190.896 67.251H168.797Z" fill="#9B89FF"/>
<path d="M214.149 67.2595H110.882V82.0993H214.149V67.2595Z" fill="#D477FF"/>
<path d="M253.072 67.2595H214.149V82.0993H253.072V67.2595Z" fill="#9B89FF"/>
<path d="M172.414 66.0166C172.414 66.0166 152.188 59.5922 138.54 63.8397C122.808 68.7354 123.741 88.2 123.741 88.2L127.44 86.6748L132.435 89.0243C132.435 89.0243 133.278 68.4136 146.104 65.5281C157.194 63.0331 172.414 66.0166 172.414 66.0166Z" fill="#9B89FF"/>
<path d="M162.038 67.2595H154.507V175.143H162.038V67.2595Z" fill="#AFA1FF"/>
<path d="M92.9033 34.8696L85.9888 37.1934L92.6639 57.1639L99.5785 54.8401L92.9033 34.8696Z" fill="#AFA1FF"/>
<path d="M85.9888 37.194L67.7216 43.3332L74.3967 63.3037L92.6639 57.1646L85.9888 37.194Z" fill="#E1A1FF"/>
<path d="M89.7157 48.3633L89.2485 46.9656L70.9813 53.1047L71.4485 54.5025L89.7157 48.3633Z" fill="#9B89FF"/>
<path d="M96.6299 46.0401L96.1627 44.6424L89.2482 46.9662L89.7154 48.3639L96.6299 46.0401Z" fill="#9B89FF"/>
<path d="M80.9407 38.5469C80.9407 38.5469 85.689 34.1162 89.9162 33.7728L89.3116 34.5575L90.013 35.3489C90.013 35.3489 85.2907 35.6733 80.8788 38.7353L80.9407 38.5469Z" fill="#E1A1FF"/>
<path d="M79.9498 38.7822C79.9498 38.7822 79.1923 38.9386 78.057 39.1537C75.0431 39.7246 69.3688 40.7068 68.143 40.2631C66.217 39.5661 68.108 33.2214 69.431 31.9843C70.7541 30.7479 79.9498 38.7822 79.9498 38.7822Z" fill="#E1A1FF"/>
<path d="M89.2309 28.5536C89.9161 29.7377 79.9674 39.1917 79.9674 39.1917C79.9674 39.1917 79.9876 38.5383 80.032 37.5108C80.032 37.5108 80.0323 37.5098 80.0326 37.5088C80.1954 33.756 80.6859 25.0093 81.7302 24.7772C81.8351 24.7536 81.9657 24.7501 82.1175 24.7638C83.8952 24.9268 88.5999 27.4631 89.2309 28.5536Z" fill="#E1A1FF"/>
<path d="M82.3962 25.928C82.0955 27.4235 80.0645 37.354 80.0326 37.5089C80.1954 33.7561 80.686 25.0094 81.7303 24.7773C81.7303 24.7773 81.9281 24.7044 82.1176 24.7639C82.3463 24.8365 82.5621 25.1023 82.3962 25.928Z" fill="#AFA1FF"/>
<path d="M78.0588 39.1531L78.0568 39.1537C75.0429 39.7246 69.3687 40.7068 68.1429 40.2631C67.2926 39.1748 68.3938 38.6927 69.1906 38.3283C69.9868 37.964 78.0588 39.1531 78.0588 39.1531Z" fill="#AFA1FF"/>
<path d="M77.8834 39.9144C77.8834 39.9144 78.0404 38.1854 79.3127 37.665C80.6414 37.1214 81.9736 38.5398 81.9736 38.5398L77.8834 39.9144Z" fill="#AFA1FF"/>
<path d="M86.2817 37.0958L67.1676 43.5195L68.0857 46.2663L87.1998 39.8425L86.2817 37.0958Z" fill="#D477FF"/>
<path d="M93.486 34.6739L86.2817 37.0951L87.1998 39.8418L94.4041 37.4206L93.486 34.6739Z" fill="#9B89FF"/>
<path d="M78.4765 39.461C78.4765 39.461 74.3356 39.53 72.0721 41.1651C69.4633 43.0498 70.84 46.5944 70.84 46.5944L71.4305 46.082L72.5003 46.2062C72.5003 46.2062 71.3812 42.339 73.5766 41.0071C75.475 39.8554 78.4765 39.461 78.4765 39.461Z" fill="#9B89FF"/>
<path d="M76.6361 40.338L75.2422 40.8064L81.9749 60.9492L83.3688 60.4808L76.6361 40.338Z" fill="#9B89FF"/>
<path d="M213.346 78.7056C213.346 78.7056 210.612 80.3206 212.29 83.45C212.29 83.45 209.896 83.0107 209.379 82.294C209.379 82.294 209.44 82.5924 209.528 82.743C209.528 82.743 207.328 82.2428 206.608 81.3221C205.888 80.4014 209.419 69.3704 215.14 72.2271C215.14 72.2271 220.371 73.2004 218.322 79.024C216.273 84.8476 218.209 85.3618 218.209 85.3618C218.209 85.3618 217.6 85.485 217.341 85.416C217.341 85.416 216.999 85.1697 216.98 84.9392C216.98 84.9392 216.967 85.29 217.037 85.4211C217.037 85.4211 214.894 85.0647 214.06 83.9966C213.225 82.9285 212.724 79.8541 213.346 78.7056Z" fill="#233862"/>
<path d="M209.399 88.0811C209.395 88.0823 209.393 88.0836 209.389 88.0848C209.372 88.0823 209.375 88.0811 209.399 88.0811Z" fill="#FFB27D"/>
<path d="M216.044 86.1627C216.124 86.8847 216.221 87.5323 216.263 87.8408C216.359 88.5324 209.816 88.0823 209.399 88.081C209.689 87.9542 210.577 85.1309 210.858 84.054C211.199 82.7478 211.466 81.3368 211.466 81.3368L216.087 81.6295L216.362 81.6466C216.191 82.2784 216.07 82.8748 215.986 83.4284C215.975 83.5028 215.964 83.5785 215.954 83.6517C215.87 84.2663 215.944 85.2712 216.044 86.1627Z" fill="#FFB27D"/>
<path d="M210.829 80.8697C210.829 80.8697 210.08 78.4875 210.231 76.6609C210.339 75.3567 212.191 70.9079 216.642 72.801C216.642 72.801 217.951 73.2905 218.989 74.4812C219.813 75.4282 220.875 77.2819 218.191 80.8803L217.41 82.1295L210.829 80.8697Z" fill="#233862"/>
<path d="M216.044 86.1627C212.812 85.2132 211.441 81.4695 211.441 81.4695C212.808 81.5099 214.588 82.4613 215.986 83.4284C215.975 83.5028 215.964 83.5784 215.954 83.6516C215.87 84.2663 215.944 85.2712 216.044 86.1627Z" fill="#ED975D"/>
<path d="M216.273 84.8474C216.273 84.8474 210.433 83.4002 211.388 79.7677C212.343 76.1352 212.232 73.502 216.001 74.2724C219.77 75.0428 220.127 76.6196 220.102 77.9098C220.078 79.2001 217.816 85.1302 216.273 84.8474Z" fill="#FFB27D"/>
<path d="M218.672 74.8864C218.672 74.8864 215.956 78.7242 213.346 78.7056C210.737 78.687 209.851 77.7494 209.851 77.7494C209.851 77.7494 212.119 76.7542 213.195 74.2518C213.196 74.2518 218.007 72.5399 218.672 74.8864Z" fill="#233862"/>
<path d="M218.187 75.1276C218.187 75.1276 219.124 76.3943 219.17 77.396C219.216 78.3977 218.843 80.336 219.414 80.4181C219.414 80.4181 221.378 77.8407 220.462 75.8448C219.492 73.7283 218.187 75.1276 218.187 75.1276Z" fill="#233862"/>
<path d="M218.369 75.3301C218.369 75.3301 216.057 79.4905 212.597 80.101C212.597 80.101 216.404 78.1783 217.443 75.3027C218.482 72.427 218.369 75.3301 218.369 75.3301Z" fill="#233862"/>
<path d="M215.361 82.5187C215.361 82.5187 215.434 83.0718 215.786 83.2025C216.138 83.3332 217.072 83.5701 217.166 83.5115C217.261 83.4529 217.611 83.0217 217.611 83.0217C217.611 83.0217 216.139 82.4558 215.361 82.5187Z" fill="white"/>
<path d="M213.181 138.085C213.107 138.396 213.033 138.703 212.96 139.008C212.519 140.842 212.11 142.544 211.852 143.967C211.516 145.819 211.437 147.198 211.877 147.777C213.691 150.161 211.877 169.082 211.877 169.082L209.813 171.213C209.813 171.213 206.225 152.533 205.252 149.606C204.809 148.276 204.165 142.592 203.596 136.791C203.567 136.501 203.539 136.21 203.511 135.92C203.412 134.905 203.317 133.894 203.226 132.908C202.715 127.418 202.333 122.718 202.333 122.718C202.333 122.718 206.139 120.035 209.597 119.736C211.634 119.558 213.55 120.208 214.496 122.718C215.874 126.37 214.478 132.675 213.181 138.085Z" fill="#FFB27D"/>
<path d="M213.181 138.085C210.353 136.037 206.375 132.393 204.931 126.42C204.655 123.45 206.99 120.628 209.597 119.736C211.634 119.558 213.55 120.208 214.496 122.718C215.874 126.37 214.478 132.675 213.181 138.085Z" fill="#ED975D"/>
<path d="M223.493 102.005L237.39 105.605V107.232C237.39 107.232 223.561 107.069 222.669 105.524C221.777 103.979 223.493 102.005 223.493 102.005Z" fill="#FFB27D"/>
<path d="M237.389 155.636L236.74 158.325C236.74 158.325 217.941 148.589 215.51 146.719C214.533 145.968 213.243 141.889 212.047 137.274C210.267 130.395 208.698 122.328 208.698 122.328C208.698 122.328 211.333 112.165 218.388 118.385C222.609 122.107 221.953 129.279 221.49 134.858C221.183 138.601 220.961 141.626 222.361 142.411C225.092 143.939 233.105 150.978 235.64 155.821L237.389 155.636Z" fill="#FFB27D"/>
<path d="M205.501 110.461C200.591 109.208 195.194 101.571 195.194 101.571L196.577 100.368C198.008 102.06 203.959 104.974 203.959 104.974C203.927 103.426 203.967 102.014 204.065 100.728C204.725 91.9923 208.009 89.0816 208.906 88.4429C209.05 88.3393 209.133 88.296 209.133 88.296C209.133 88.296 209.137 88.3594 209.142 88.4797C209.155 88.7392 209.179 89.2623 209.203 89.98C209.385 95.327 209.603 111.509 205.501 110.461Z" fill="#FFB27D"/>
<path d="M209.388 99.9762C209.134 106.208 208.204 112.38 205.498 111.983C202.181 111.497 201.317 108.393 201.141 106.085C201.032 104.649 201.189 103.521 201.189 103.521C201.189 103.521 202.822 103.514 203.086 103.27C204.34 102.108 203.968 90.7193 204.588 89.5368C205.209 88.3544 209.236 87.5951 209.236 87.5951C209.236 87.5951 209.642 93.816 209.388 99.9762Z" fill="white"/>
<path d="M209.388 99.9762C209.134 106.208 208.204 112.38 205.498 111.983C202.181 111.497 201.317 108.393 201.141 106.085C201.955 106.044 203.389 105.845 203.959 104.974C204.774 103.726 207.319 95.6981 207.319 95.6981C207.319 95.6981 208.32 97.5003 209.388 99.9762Z" fill="#DFEBFD"/>
<path d="M230.313 102.005C231.212 103.286 230.717 105.768 228.831 107.767C227.66 109.008 226.074 109.742 223.493 109.361C222.368 109.194 219.224 107.415 218.894 105.245C218.835 104.851 218.801 104.621 218.801 104.621C218.801 104.621 217.37 106.058 217.317 106.33C217.292 106.452 217.169 107.537 217.15 107.686C217.127 107.865 217.255 108.525 217.255 108.525C217.255 108.525 210.417 111.523 204.765 108.109C204.765 108.109 203.153 94.2592 204.31 91.9547C204.886 90.8099 208.112 88.5801 209.236 87.5951C209.488 87.3734 209.744 86.7056 209.675 86.2754C209.618 85.912 210.035 85.2992 210.384 85.4108C211.06 85.6277 212.972 86.5763 214.317 86.2145C214.987 86.0359 215.837 85.2594 216.486 85.4371C217.28 85.6545 216.441 87.5702 216.891 87.5952C217.511 87.6258 220.86 88.2975 221.141 88.8391C221.239 89.0278 222.201 91.5829 223.407 94.9645C223.407 94.9645 223.408 94.967 223.409 94.9733C225.673 101.317 228.993 100.126 230.313 102.005Z" fill="white"/>
<path d="M218.801 104.621C218.801 104.621 218.635 99.338 218.209 99.4024C217.783 99.467 211.641 105.395 213.101 107.767C214.56 110.138 218.801 104.621 218.801 104.621Z" fill="#DFEBFD"/>
<path d="M223.493 126.283C223.493 126.283 221.126 127.016 217.639 127.5C213.321 128.099 207.284 128.314 201.894 126.283C201.894 126.283 201.449 118.24 202.727 114.047C204.004 109.852 204.601 107.846 204.601 107.846C204.601 107.846 209.719 109.133 214.916 108.135C215.646 107.996 216.377 107.811 217.096 107.57C217.096 107.57 220.302 114.396 221.184 117.321C222.065 120.245 223.493 126.283 223.493 126.283Z" fill="#C511A9"/>
<path d="M223.493 126.283C223.493 126.283 221.126 127.016 217.639 127.5C211.244 123.864 214.362 108.563 214.362 108.563C214.552 108.409 214.737 108.266 214.916 108.135C215.646 107.996 216.378 107.811 217.096 107.57C217.096 107.57 220.302 114.396 221.184 117.321C222.065 120.245 223.493 126.283 223.493 126.283Z" fill="#9F0C88"/>
<path d="M210.036 109.361C206.245 109.361 204.682 108.052 204.566 107.963L204.321 106.173C204.358 106.2 209.444 109.263 217.317 106.329L217.15 107.686C214.122 108.814 212.005 109.361 210.036 109.361Z" fill="#A43FD4"/>
<path d="M237.39 105.605C237.39 105.605 239.94 104.345 240.953 104.223C241.967 104.101 243.67 104.061 243.67 104.223C243.67 104.386 241.845 105.522 241.358 105.605C240.872 105.687 239.94 106.378 240.223 106.459C240.507 106.541 242.007 106.195 242.027 106.459C242.048 106.724 241.115 106.886 240.953 107.089C240.791 107.293 240.223 107.536 239.311 107.414C238.399 107.293 237.39 107.232 237.39 107.232V105.605Z" fill="#FFB27D"/>
<path d="M196.574 100.364L195.188 101.576C195.188 101.576 192.726 99.7725 192.609 99.0334V98.9595C192.609 98.1907 194.171 96.5941 195.469 96.5349C195.601 96.5349 195.719 96.5644 195.822 96.6237C196.514 97.0571 196.596 98.8633 196.59 99.7979C196.588 100.139 196.574 100.364 196.574 100.364Z" fill="#FFB27D"/>
<path d="M237.39 155.636L236.74 158.325C236.74 158.325 217.942 148.589 215.51 146.719C214.534 145.968 213.243 141.889 212.047 137.274C213.652 137.604 217.117 137.78 221.491 134.858C221.183 138.601 220.961 141.626 222.361 142.411C225.092 143.939 233.105 150.978 235.641 155.821L237.39 155.636Z" fill="#2B478B"/>
<path d="M241.106 156.68C241.106 156.68 241.1 156.679 241.089 156.676C241.005 156.655 240.618 156.527 240.362 155.91C240.193 155.504 240.142 155.171 239.987 154.769L239.352 153.671C238.689 152.794 238.456 152.999 238.456 152.999C238.456 152.999 238.282 153.222 238.026 153.517C237.602 154.002 236.953 154.68 236.493 154.854C236.167 154.976 235.962 155.18 235.836 155.369C235.676 155.606 235.641 155.821 235.641 155.821C235.641 155.821 237.004 156.059 236.885 156.732C236.653 158.036 236.708 158.273 236.732 158.316L236.74 158.325C236.74 158.325 239.065 159.545 239.808 159.784C241.131 160.209 241.822 161.111 242.251 161.523C242.424 161.69 242.665 161.766 242.901 161.728C243.25 161.673 243.703 161.561 243.802 161.346L241.106 156.68Z" fill="#233862"/>
<path d="M211.877 147.777C213.691 150.161 211.877 169.082 211.877 169.082L209.813 171.213C209.813 171.213 206.225 152.533 205.252 149.606C204.809 148.276 204.165 142.592 203.596 136.791C205.316 137.56 209.512 139.236 212.96 139.008C212.519 140.842 212.109 142.543 211.852 143.967C211.516 145.819 211.437 147.198 211.877 147.777Z" fill="#233862"/>
<path d="M213.952 172.162L212.838 172.766C212.433 172.91 212.099 172.951 211.69 173.108C211.068 173.347 210.63 173.817 210.609 173.902C210.295 175.182 209.849 175.101 209.849 175.101L205.375 175.143C205.164 175.037 205.522 174.132 205.693 173.963C206.116 173.545 207.382 173.755 207.844 172.441C208.104 171.703 209.388 169.409 209.388 169.409L209.397 169.401C209.44 169.378 209.678 169.33 210.971 169.6C211.639 169.739 211.916 168.379 211.916 168.379C211.916 168.379 212.128 168.421 212.36 168.589C212.545 168.72 212.742 168.931 212.855 169.262C213.015 169.727 213.671 170.398 214.143 170.836C214.429 171.102 214.647 171.282 214.647 171.282C214.647 171.282 214.845 171.521 213.952 172.162Z" fill="#233862"/>
<path d="M168.982 120.419H149.983V175.29H168.982V120.419Z" fill="#4A75CB"/>
<path d="M149.983 120.419H99.7927V175.29H149.983V120.419Z" fill="#739AF0"/>
<path d="M149.983 151.102V147.261H99.7928V151.102H149.983Z" fill="#AFCDFB"/>
<path d="M168.982 151.102V147.261H149.983V151.102H168.982Z" fill="#88B3FF"/>
<path d="M136.406 119.576C136.406 119.576 151.793 112.572 162.519 115.233L160.377 116.67L161.457 119.207C161.457 119.207 149.524 116.089 136.097 119.989L136.406 119.576Z" fill="#4A75CB"/>
<path d="M133.77 119.306C133.77 119.306 131.769 119.064 128.787 118.653C120.871 117.561 106.043 115.277 103.382 113.163C99.1998 109.842 109.109 95.739 113.399 93.7816C117.688 91.8258 133.77 119.306 133.77 119.306Z" fill="#72A9F7"/>
<path d="M165.141 101.745C165.856 105.239 133.475 120.333 133.475 120.333C133.475 120.333 134.064 118.736 135.023 116.234C135.023 116.234 135.024 116.232 135.025 116.23C138.526 107.095 146.96 85.8961 149.731 86.1895C150.01 86.2184 150.336 86.3182 150.699 86.4781C154.956 88.3561 164.483 98.5271 165.141 101.745Z" fill="#72A9F7"/>
<path d="M150.426 89.5847C148.449 93.0292 135.232 115.874 135.025 116.23C138.526 107.095 146.96 85.896 149.731 86.1893C149.731 86.1893 150.28 86.1736 150.699 86.4779C151.204 86.8471 151.518 87.6828 150.426 89.5847Z" fill="#4A75CB"/>
<path d="M128.793 118.653H128.787C120.871 117.561 106.043 115.277 103.382 113.163C102.18 109.769 105.298 109.492 107.567 109.253C109.835 109.014 128.793 118.653 128.793 118.653Z" fill="#4A75CB"/>
<path d="M127.73 120.388C127.73 120.388 129.546 116.247 133.118 116.018C136.85 115.778 138.969 120.388 138.969 120.388H127.73Z" fill="#4A75CB"/>
<path d="M150.788 120.419H98.271V127.966H150.788V120.419Z" fill="#88B3FF"/>
<path d="M170.583 120.419H150.789V127.966H170.583V120.419Z" fill="#3969B7"/>
<path d="M129.564 119.787C129.564 119.787 119.278 116.52 112.337 118.68C104.336 121.17 104.81 131.069 104.81 131.069L106.692 130.293L109.232 131.488C109.232 131.488 109.661 121.006 116.183 119.539C121.824 118.27 129.564 119.787 129.564 119.787Z" fill="#4A75CB"/>
<path d="M124.287 120.419H120.457V175.764H124.287V120.419Z" fill="#AFCDFB"/>
<path d="M39.0133 97.8887C39.0133 97.8887 53.1604 108.285 56.621 108.034C60.0816 107.783 72.3368 100.201 72.3368 100.201L69.7442 97.1099C69.7442 97.1099 58.645 101.233 56.6128 100.096C54.5806 98.9596 46.6429 89.3103 43.3125 89.8253C39.982 90.3404 36.6914 94.1512 39.0133 97.8887Z" fill="#233862"/>
<path d="M30.6703 176H26.4413C25.9088 175.71 25.4345 175.046 25.2846 174.057C25.0781 172.691 23.5511 171.946 23.2206 170.828C22.8909 169.711 24.583 168.139 24.583 168.139L24.8661 167.773L25.1607 167.393L27.9676 168.056C27.9676 168.056 28.0372 168.726 28.0793 169.58C28.11 170.196 28.126 170.908 28.0915 171.532C28.0089 173.022 28.5069 174.627 29.8274 174.917C30.8034 175.131 30.7598 175.711 30.6703 176Z" fill="#233862"/>
<path d="M55.2137 176H45.5423C45.0772 175.431 45.2486 173.33 45.3189 172.645C45.3335 172.507 45.3435 172.426 45.3435 172.426C45.3435 172.426 48.6461 169.777 49.0997 171.806C49.1134 171.869 49.1303 171.931 49.1487 171.993C49.7202 173.89 52.2837 174.752 53.7641 174.992C54.7264 175.148 55.0822 175.65 55.2137 176Z" fill="#233862"/>
<path d="M53.3709 121.868C53.3709 121.868 52.8695 128.142 52.28 135.683C51.4788 145.928 50.5156 158.511 50.4202 160.895C50.2555 165.035 49.5942 171.656 49.5942 171.656C49.5942 171.656 48.0266 173.229 44.889 172.566C44.889 172.566 42.0931 163.114 41.2944 153.113C41.282 152.949 41.2697 152.784 41.2572 152.619C40.5143 142.438 39.359 120.999 39.359 120.999L53.3709 121.868Z" fill="#C511A9"/>
<path d="M53.3709 121.868C53.3709 121.868 52.8695 128.142 52.28 135.683L41.2945 153.113C41.2821 152.949 41.2698 152.784 41.2573 152.619C40.5144 142.438 39.3591 120.999 39.3591 120.999L53.3709 121.868Z" fill="#9F0C88"/>
<path d="M51.0808 122.613C51.0808 122.613 42.0418 145.334 36.0984 156.012C30.1549 166.69 28.2976 169.67 28.2976 169.67C28.2976 169.67 24.8925 168.304 24.583 167.373C24.583 167.373 26.8559 146.759 30.836 141.734C33.0851 138.894 35.7269 130.373 35.8508 127.393C35.9747 124.414 36.6557 118.516 36.6557 118.516L51.0808 122.613Z" fill="#C511A9"/>
<path d="M45.1226 90.262C41.7493 91.7955 35.3215 89.5341 35.3215 89.5341C35.3215 89.5341 38.2623 86.71 37.4849 81.6712L40.4598 83.5346L42.4806 84.8002C42.4806 84.8002 42.5784 85.6785 42.5619 87.2405C42.5573 87.6513 42.5454 88.1102 42.5212 88.613C44.126 89.2596 45.1226 90.262 45.1226 90.262Z" fill="#FFB27D"/>
<path d="M42.4805 84.8002C42.4805 84.8002 42.5783 85.6785 42.5618 87.2405C40.4788 87.136 37.7662 84.1081 37.7662 84.1081C38.769 83.6817 39.6725 83.5177 40.4597 83.5345L42.4805 84.8002Z" fill="#ED975D"/>
<path d="M43.5429 84.5874C43.5429 84.5874 37.8664 86.2522 36.8868 82.6916C35.9072 79.131 34.5148 76.9478 38.0977 75.7343C41.6806 74.5207 42.7616 75.6838 43.3768 76.7925C43.9921 77.9012 44.9943 84.0624 43.5429 84.5874Z" fill="#FFB27D"/>
<path d="M53.7233 119.631C53.9003 121.272 53.9826 122.294 53.9432 122.334C53.8479 122.435 53.7322 122.503 53.5913 122.52C52.2729 122.661 48.5207 123.858 45.231 123.917C42.4595 123.984 39.9374 123.464 37.1928 122.607C36.8289 122.494 35.9812 122.164 35.9534 121.774C35.9136 121.349 35.882 120.728 35.8413 119.947C35.7019 117.23 35.4664 112.556 34.5096 107.246C34.3339 106.258 34.1864 105.273 34.0658 104.301C33.1674 97.0575 33.8347 90.5101 36.4547 88.0036C36.6803 87.7976 38.2787 88.3551 39.7484 88.8736C41.1074 89.3536 42.3971 89.2687 43.5791 88.876L44.9197 89.8033C46.5606 90.9986 48.4004 92.6706 49.4429 95.4205C50.3311 97.7604 51.2041 102.068 51.939 106.551C52.2719 108.584 52.5904 110.635 52.8429 112.588L52.8514 112.658C52.8921 112.85 52.9176 113.062 52.9409 113.256C52.9876 113.603 53.0324 113.943 53.0766 114.279C53.3498 116.365 53.5708 118.225 53.7233 119.631Z" fill="#2B478B"/>
<path d="M36.8401 82.3431C36.8401 82.3431 37.4225 82.1717 37.228 81.3623C37.0335 80.5529 36.9056 79.4797 37.5954 79.5993C38.2852 79.7189 38.3825 80.2493 38.6185 79.9041C38.8545 79.559 38.7014 78.2436 40.6711 77.9127C42.6408 77.5818 43.5288 78.1759 44.401 77.6585C45.2733 77.1412 45.1539 75.7374 45.1539 75.7374C45.1539 75.7374 44.9519 76.2682 44.5753 76.4748C44.5753 76.4748 45.8587 74.1815 43.9059 72.9514C41.9531 71.7213 40.2528 72.8865 39.2306 73.0735C36.9787 73.4853 35.5298 73.7989 34.9683 75.3831C34.407 76.9672 35.2115 81.0804 36.8401 82.3431Z" fill="#2B478B"/>
<path d="M53.7233 119.631C53.4449 119.682 48.604 120.554 45.3129 118.38C41.9242 116.142 37.9546 102.872 37.9546 102.872C37.9546 102.872 45.5656 111.36 45.7133 111.694C45.8369 111.976 51.3255 113.726 53.0764 114.279C53.3499 116.365 53.5709 118.225 53.7233 119.631Z" fill="#233862"/>
<path d="M93.1666 77.0474L55.517 77.5836L56.0516 115.336L93.7013 114.8L93.1666 77.0474Z" fill="#AFA1FF"/>
<path d="M85.132 77.1619L47.4824 77.6981L48.0171 115.45L85.6667 114.914L85.132 77.1619Z" fill="#E1A1FF"/>
<path d="M66.4478 116.644C65.177 116.62 63.5467 116.072 63.0242 115.811C62.1408 115.371 61.6909 114.944 61.6909 114.944L61.8249 114.105L61.9857 113.103C61.9857 113.103 62.0839 113.087 62.2471 113.07C62.4092 113.053 62.6379 113.035 62.8968 113.031C62.8968 113.031 63.3151 113.158 63.6611 112.848C64.0062 112.538 64.6429 112.328 65.1249 112.444C65.6062 112.56 66.6417 112.452 66.6745 112.621C66.7557 113.029 65.247 112.955 65.0707 113.211C64.9111 113.443 65.0564 113.6 65.086 113.628C65.0883 113.629 65.0898 113.631 65.092 113.633C65.9753 114.526 69.0155 114.85 68.8939 115.559C68.848 115.824 66.9855 116.654 66.4478 116.644Z" fill="#FFB27D"/>
<path d="M35.6367 97.7886C35.6367 97.7886 42.6001 113.93 45.7122 115.468C48.8243 117.007 63.0242 115.811 63.0242 115.811L63.118 113.056C63.118 113.056 50.8877 110.627 49.7076 108.616C48.5275 106.605 46.5449 94.2554 43.4118 93.0113C40.2786 91.7673 35.518 93.3868 35.6367 97.7886Z" fill="#2B478B"/>
<path d="M168.311 18.7453C168.259 18.8087 168.206 18.8713 168.152 18.9328C168.133 18.9537 168.114 18.9744 168.096 18.9946C168.053 19.0414 168.01 19.087 167.966 19.1321C165.866 21.2816 162.431 21.4177 160.166 19.3948C158.006 17.4654 157.67 14.2477 159.283 11.9251C159.411 11.7398 159.552 11.5603 159.705 11.3877C159.761 11.3256 159.817 11.265 159.874 11.2062C159.929 11.1488 159.986 11.0927 160.043 11.0383C160.219 10.8711 160.404 10.7175 160.595 10.5772C160.88 10.3683 161.18 10.1892 161.492 10.0403C162.459 9.5781 163.535 9.4044 164.586 9.52704C165.701 9.65678 166.789 10.1202 167.691 10.9257C169.962 12.9545 170.217 16.4062 168.311 18.7453Z" fill="#CDE0FB"/>
<path d="M163.972 20.3721C162.707 20.3721 161.502 19.9131 160.55 19.0628C159.523 18.1446 158.913 16.8803 158.834 15.5024C158.755 14.1245 159.215 12.7981 160.131 11.7676C161.046 10.737 162.308 10.1257 163.682 10.0462C165.055 9.96569 166.378 10.4285 167.406 11.3467C168.434 12.2648 169.044 13.5292 169.123 14.9072C169.202 16.2851 168.742 17.6115 167.826 18.6421C166.91 19.6726 165.649 20.284 164.275 20.3634C164.174 20.3692 164.072 20.3721 163.972 20.3721ZM163.985 10.3457C163.89 10.3457 163.795 10.3483 163.699 10.3539C162.407 10.4286 161.221 11.0036 160.36 11.9726C159.499 12.9416 159.066 14.1889 159.141 15.4846C159.215 16.7803 159.789 17.9694 160.755 18.8327C161.722 19.6961 162.965 20.1305 164.258 20.0555C165.55 19.9808 166.735 19.4059 167.596 18.4369C168.457 17.4678 168.891 16.2206 168.816 14.9248C168.742 13.6292 168.168 12.4402 167.202 11.5767C166.307 10.7773 165.174 10.3457 163.985 10.3457Z" fill="#AFCDFB"/>
<path d="M162.716 11.6169L164.554 13.4152L167.073 12.9163L165.935 15.2249L167.187 17.4732L164.646 17.1016L162.9 18.9898L162.467 16.4518L160.137 15.3706L162.41 14.1735L162.716 11.6169Z" fill="#AFCDFB"/>
<path d="M295.347 175.929H0.334985C0.150717 175.929 0 175.778 0 175.594V175.479C0 175.294 0.150717 175.143 0.334985 175.143H295.347C295.531 175.143 295.682 175.294 295.682 175.479V175.594C295.682 175.778 295.531 175.929 295.347 175.929Z" fill="#E5E5E5"/>
<path d="M183.426 106.119C183.426 106.119 182.028 107.076 180.472 106.918C179.318 106.801 178.18 105.729 178.136 105.658L177.216 107.263C177.216 107.263 179.32 108.542 181.124 108.192C181.677 108.085 182.573 107.534 182.978 107.121C183.424 106.667 183.426 106.119 183.426 106.119Z" fill="#6BB7BF"/>
<path d="M183.388 102.777L185.7 101.817C185.7 101.817 185.383 106.636 181.412 108.108C181.412 108.108 183.921 104.81 183.388 102.777Z" fill="#86D1CD"/>
<path d="M183.77 144.615C183.77 144.615 182.856 143.502 182.869 142.171C182.879 141.183 183.696 140.135 183.752 140.093L182.328 139.435C182.328 139.435 181.41 141.319 181.845 142.822C181.978 143.282 182.511 144 182.89 144.312C183.308 144.655 183.77 144.615 183.77 144.615Z" fill="#CDE0FB"/>
<path d="M186.586 144.326L187.574 146.213C187.574 146.213 183.485 146.314 181.937 143.059C181.937 143.059 184.913 144.934 186.586 144.326Z" fill="#CDE0FB"/>
</g>
<defs>
<clipPath id="clip0_6_2">
<rect width="309" height="176" fill="white"/>
</clipPath>
</defs>
</svg>
