<svg width="40" height="40" viewBox="0 0 40 40" fill="none" xmlns="http://www.w3.org/2000/svg">
<path d="M26.2426 17.7832L33.9369 22.1259L18.9443 22.7188L11.25 18.376L26.2426 17.7832Z" fill="url(#paint0_linear_407_3744)"/>
<path d="M33.4069 22.4286L32.1187 39.0564L17.5076 39.9163L18.7958 23.2886L33.4069 22.4286Z" fill="url(#paint1_linear_407_3744)"/>
<path d="M18.3979 22.7357L17.1328 39.6478L9.83703 35.2491L11.1022 18.337L18.3979 22.7357Z" fill="url(#paint2_linear_407_3744)"/>
<path d="M26.3064 17.8498C26.3064 17.8498 26.1128 19.8226 25.8417 22.6415L33.9373 22.251L26.3064 17.8498Z" fill="url(#paint3_linear_407_3744)"/>
<path d="M26.2561 17.7949L11.25 18.4131L18.9307 22.7072L33.9369 22.089L26.2561 17.7949ZM11.744 18.5301L26.2197 17.9339L33.4429 21.9721L18.9672 22.5683L11.744 18.5301Z" fill="url(#paint4_linear_407_3744)"/>
<path d="M22.8258 39.7678L26.7215 39.6228L28.3798 22.567L24.484 22.7119L22.8258 39.7678Z" fill="url(#paint5_linear_407_3744)"/>
<path d="M11.5162 36.4195L14.3979 38.2248L16.0492 21.1465L13.1673 19.3412L11.5162 36.4195Z" fill="url(#paint6_linear_407_3744)"/>
<path d="M21.7682 6.5349L31.1608 8.22808L16.3528 14.1573L6.96021 12.4642L21.7682 6.5349Z" fill="url(#paint7_linear_407_3744)"/>
<path d="M31.0395 8.3672L32.0217 11.936L17.374 18.0396L16.3918 14.4708L31.0395 8.3672Z" fill="url(#paint8_linear_407_3744)"/>
<path d="M16.1274 14.2418L17.1096 17.813L7.7984 16.1589L6.81641 12.5876L16.1274 14.2418Z" fill="url(#paint9_linear_407_3744)"/>
<path d="M10.4019 16.6462L13.7716 17.3156L12.8502 13.6148L9.48047 12.9453L10.4019 16.6462Z" fill="url(#paint10_linear_407_3744)"/>
<path d="M22.6866 15.8605L26.3519 14.3601L25.4319 10.6632L21.7667 12.1636L22.6866 15.8605Z" fill="url(#paint11_linear_407_3744)"/>
<path d="M16.7257 8.49139L13.0424 9.95325L21.7619 12.0546L25.4615 10.5863L16.7257 8.49139Z" fill="url(#paint12_linear_407_3744)"/>
<path d="M23.9875 6.85713L9.539 12.9234L10.6661 13.1431L12.9352 13.5854L27.3889 7.52021L23.9875 6.85713Z" fill="url(#paint13_linear_407_3744)"/>
<path d="M25.5013 1.71373C23.0164 0.041308 17.545 7.62567 19.9138 9.56017L21.0244 10.4287C18.9955 6.53811 24.9407 1.43813 26.6119 2.58231L25.5013 1.71373Z" fill="url(#paint14_linear_407_3744)"/>
<path d="M19.9827 9.58923C21.5331 10.4995 26.3863 5.69121 26.0349 2.83519C25.9773 2.36649 25.7844 2.00226 25.4617 1.75291L26.5713 2.60347C29.0508 4.8055 23.5897 10.6361 21.4756 10.5581C21.3307 10.5528 21.1803 10.5063 21.0924 10.4398L19.9827 9.58923Z" fill="url(#paint15_linear_407_3744)"/>
<path d="M21.5589 0.0529659C18.7109 -0.629128 16.2356 8.51924 19.065 9.49099L20.3788 9.9104C17.2027 6.96644 20.9507 -0.00489842 22.8727 0.472373L21.5589 0.0529659Z" fill="url(#paint16_linear_407_3744)"/>
<path d="M19.1828 9.53213C20.9097 9.82815 23.749 3.50989 22.4696 0.935947C22.2597 0.513554 21.9608 0.239296 21.5812 0.12095L22.8838 0.521253C25.8956 1.70071 22.8415 9.20776 20.8766 9.90453C20.742 9.95232 20.5883 9.96322 20.4854 9.93244L19.1828 9.53213Z" fill="url(#paint17_linear_407_3744)"/>
<path d="M9.10438 5.95562C10.417 3.26282 19.0547 6.90499 17.9769 9.76096L17.4519 11.0674C17.2357 6.72342 9.45241 5.4344 8.57944 7.26209L9.10438 5.95562Z" fill="url(#paint18_linear_407_3744)"/>
<path d="M17.9439 9.74915C17.0812 11.3276 10.3472 9.8278 9.14692 7.2415C8.94993 6.81707 8.92506 6.40967 9.07299 6.03066L8.56061 7.32772C7.57419 10.4797 15.3731 12.5206 17.162 11.3466C17.2846 11.2661 17.3904 11.1482 17.4315 11.0462L17.9439 9.74915Z" fill="url(#paint19_linear_407_3744)"/>
<path d="M11.519 2.71838C13.6834 0.642023 20.3867 7.15405 18.3819 9.46794L17.4352 10.5151C18.7682 6.33556 12.0246 2.3499 10.5724 3.76558L11.519 2.71838Z" fill="url(#paint20_linear_407_3744)"/>
<path d="M18.3488 9.39884C16.9953 10.5893 11.312 6.8091 11.118 3.94181C11.0862 3.47128 11.2072 3.0772 11.4775 2.7706L10.5465 3.81779C8.52294 6.4532 14.9976 11.1187 17.063 10.6356C17.2046 10.6025 17.3437 10.528 17.4178 10.4459L18.3488 9.39884Z" fill="url(#paint21_linear_407_3744)"/>
<path d="M14.0148 6.79962C14.6478 5.92009 19.4759 9.01297 18.9155 9.9655L18.0447 11.376C17.0761 9.76591 13.0957 8.26596 13.2011 8.11717L14.0148 6.79962Z" fill="url(#paint22_linear_407_3744)"/>
<path d="M18.9036 9.93713C18.2283 10.0391 13.5471 7.60259 14.007 6.83728L13.2099 8.15035C12.664 9.21669 17.2323 11.7435 17.9366 11.4337C17.9849 11.4125 18.0296 11.3768 18.0505 11.3429L18.9036 9.93713Z" fill="url(#paint23_linear_407_3744)"/>
<path d="M19.0628 10.0181C18.1743 9.40594 21.034 4.41245 21.9917 4.94856L23.4113 5.78394C21.8645 6.81848 20.5393 10.9006 20.3888 10.7986L19.0628 10.0181Z" fill="url(#paint24_linear_407_3744)"/>
<path d="M21.9668 4.96794C22.0927 5.64786 19.8769 10.4702 19.1074 10.0313L20.4275 10.7924C21.4957 11.3078 23.8046 6.59657 23.4736 5.89458C23.4509 5.84649 23.4142 5.80248 23.3801 5.7825L21.9668 4.96794Z" fill="url(#paint25_linear_407_3744)"/>
<path d="M16.2002 10.3997C16.3686 10.1995 21.2173 9.06544 21.4208 9.1377L22.4634 10.0298C20.1772 9.93752 15.7071 11.7081 15.7839 11.5318L16.2002 10.3997Z" fill="url(#paint26_linear_407_3744)"/>
<path d="M21.3921 9.14343C21.1209 9.46758 15.993 11.0174 16.2018 10.4247L15.7959 11.5571C15.4191 12.9161 22.5059 10.8158 22.4927 10.1429C22.4919 10.1023 22.4701 10.0582 22.4375 10.0302L21.3921 9.14343Z" fill="url(#paint27_linear_407_3744)"/>
<defs>
<linearGradient id="paint0_linear_407_3744" x1="2.95786" y1="35.8276" x2="33.8334" y2="8.92715" gradientUnits="userSpaceOnUse">
<stop stop-color="#C460AC"/>
<stop offset="0.167" stop-color="#BF5EAC"/>
<stop offset="0.3724" stop-color="#B05AAC"/>
<stop offset="0.598" stop-color="#9752AC"/>
<stop offset="0.8364" stop-color="#7447AD"/>
<stop offset="1" stop-color="#583EAD"/>
</linearGradient>
<linearGradient id="paint1_linear_407_3744" x1="14.8945" y1="18.6883" x2="27.4561" y2="33.236" gradientUnits="userSpaceOnUse">
<stop offset="0.0235" stop-color="#A6CAFF"/>
<stop offset="0.5923" stop-color="#A59DE2"/>
<stop offset="1" stop-color="#A581D0"/>
</linearGradient>
<linearGradient id="paint2_linear_407_3744" x1="-4.32349" y1="45.7787" x2="21.0393" y2="25.3402" gradientUnits="userSpaceOnUse">
<stop stop-color="#9381D0"/>
<stop offset="0.4077" stop-color="#9A9DE2"/>
<stop offset="0.9765" stop-color="#A6CAFF"/>
</linearGradient>
<linearGradient id="paint3_linear_407_3744" x1="40.4577" y1="34.9138" x2="24.1565" y2="15.2574" gradientUnits="userSpaceOnUse">
<stop stop-color="#C460AC"/>
<stop offset="0.167" stop-color="#BF5EAC"/>
<stop offset="0.3724" stop-color="#B05AAC"/>
<stop offset="0.598" stop-color="#9752AC"/>
<stop offset="0.8364" stop-color="#7447AD"/>
<stop offset="1" stop-color="#583EAD"/>
</linearGradient>
<linearGradient id="paint4_linear_407_3744" x1="2.87482" y1="35.7471" x2="33.6898" y2="8.7615" gradientUnits="userSpaceOnUse">
<stop stop-color="#9381D0"/>
<stop offset="0.4077" stop-color="#9A9DE2"/>
<stop offset="0.9765" stop-color="#A6CAFF"/>
</linearGradient>
<linearGradient id="paint5_linear_407_3744" x1="28.722" y1="31.0348" x2="22.4831" y2="31.2869" gradientUnits="userSpaceOnUse">
<stop stop-color="#CB11AB"/>
<stop offset="1" stop-color="#481173"/>
</linearGradient>
<linearGradient id="paint6_linear_407_3744" x1="16.349" y1="28.6736" x2="11.2158" y2="28.8781" gradientUnits="userSpaceOnUse">
<stop stop-color="#CB11AB"/>
<stop offset="1" stop-color="#481173"/>
</linearGradient>
<linearGradient id="paint7_linear_407_3744" x1="5.37369" y1="33.1967" x2="26.7544" y2="-4.74407" gradientUnits="userSpaceOnUse">
<stop offset="0.0235" stop-color="#A6CAFF"/>
<stop offset="0.5923" stop-color="#9A9DE2"/>
<stop offset="1" stop-color="#9381D0"/>
</linearGradient>
<linearGradient id="paint8_linear_407_3744" x1="15.7647" y1="8.40638" x2="25.6413" y2="14.1246" gradientUnits="userSpaceOnUse">
<stop offset="0.0235" stop-color="#A6CAFF"/>
<stop offset="0.5923" stop-color="#9A9DE2"/>
<stop offset="1" stop-color="#9381D0"/>
</linearGradient>
<linearGradient id="paint9_linear_407_3744" x1="7.00064" y1="23.7866" x2="13.4158" y2="12.5061" gradientUnits="userSpaceOnUse">
<stop stop-color="#9381D0"/>
<stop offset="0.4077" stop-color="#9A9DE2"/>
<stop offset="0.9765" stop-color="#A6CAFF"/>
</linearGradient>
<linearGradient id="paint10_linear_407_3744" x1="13.6775" y1="15.045" x2="9.5745" y2="15.215" gradientUnits="userSpaceOnUse">
<stop stop-color="#CB11AB"/>
<stop offset="1" stop-color="#481173"/>
</linearGradient>
<linearGradient id="paint11_linear_407_3744" x1="26.3025" y1="13.1684" x2="21.816" y2="13.3542" gradientUnits="userSpaceOnUse">
<stop stop-color="#CB11AB"/>
<stop offset="1" stop-color="#481173"/>
</linearGradient>
<linearGradient id="paint12_linear_407_3744" x1="25.4386" y1="10.0289" x2="13.0665" y2="10.5385" gradientUnits="userSpaceOnUse">
<stop stop-color="#CB11AB"/>
<stop offset="1" stop-color="#481173"/>
</linearGradient>
<linearGradient id="paint13_linear_407_3744" x1="27.4856" y1="9.86259" x2="9.44335" y2="10.6079" gradientUnits="userSpaceOnUse">
<stop stop-color="#CB11AB"/>
<stop offset="1" stop-color="#481173"/>
</linearGradient>
<linearGradient id="paint14_linear_407_3744" x1="26.81" y1="5.69815" x2="19.2018" y2="6.18176" gradientUnits="userSpaceOnUse">
<stop stop-color="#CB11AB"/>
<stop offset="1" stop-color="#481173"/>
</linearGradient>
<linearGradient id="paint15_linear_407_3744" x1="27.3403" y1="5.87428" x2="19.7541" y2="6.42159" gradientUnits="userSpaceOnUse">
<stop stop-color="#CB11AB"/>
<stop offset="1" stop-color="#481173"/>
</linearGradient>
<linearGradient id="paint16_linear_407_3744" x1="23.1408" y1="4.80657" x2="17.7037" y2="5.14295" gradientUnits="userSpaceOnUse">
<stop stop-color="#CB11AB"/>
<stop offset="1" stop-color="#481173"/>
</linearGradient>
<linearGradient id="paint17_linear_407_3744" x1="24.2878" y1="4.78156" x2="18.881" y2="5.15424" gradientUnits="userSpaceOnUse">
<stop stop-color="#CB11AB"/>
<stop offset="1" stop-color="#481173"/>
</linearGradient>
<linearGradient id="paint18_linear_407_3744" x1="17.9809" y1="7.81777" x2="8.65315" y2="8.41439" gradientUnits="userSpaceOnUse">
<stop stop-color="#CB11AB"/>
<stop offset="1" stop-color="#481173"/>
</linearGradient>
<linearGradient id="paint19_linear_407_3744" x1="17.8535" y1="8.50386" x2="8.5648" y2="9.17795" gradientUnits="userSpaceOnUse">
<stop stop-color="#CB11AB"/>
<stop offset="1" stop-color="#481173"/>
</linearGradient>
<linearGradient id="paint20_linear_407_3744" x1="18.6146" y1="6.18577" x2="10.7584" y2="6.68618" gradientUnits="userSpaceOnUse">
<stop stop-color="#CB11AB"/>
<stop offset="1" stop-color="#481173"/>
</linearGradient>
<linearGradient id="paint21_linear_407_3744" x1="18.134" y1="6.43002" x2="10.302" y2="6.99687" gradientUnits="userSpaceOnUse">
<stop stop-color="#CB11AB"/>
<stop offset="1" stop-color="#481173"/>
</linearGradient>
<linearGradient id="paint22_linear_407_3744" x1="18.901" y1="8.84459" x2="13.2682" y2="9.20491" gradientUnits="userSpaceOnUse">
<stop stop-color="#CB11AB"/>
<stop offset="1" stop-color="#481173"/>
</linearGradient>
<linearGradient id="paint23_linear_407_3744" x1="18.8313" y1="8.9448" x2="13.2369" y2="9.35206" gradientUnits="userSpaceOnUse">
<stop stop-color="#CB11AB"/>
<stop offset="1" stop-color="#481173"/>
</linearGradient>
<linearGradient id="paint24_linear_407_3744" x1="23.5325" y1="7.69813" x2="18.7919" y2="7.99826" gradientUnits="userSpaceOnUse">
<stop stop-color="#CB11AB"/>
<stop offset="1" stop-color="#481173"/>
</linearGradient>
<linearGradient id="paint25_linear_407_3744" x1="23.6254" y1="7.72459" x2="18.9661" y2="8.05834" gradientUnits="userSpaceOnUse">
<stop stop-color="#CB11AB"/>
<stop offset="1" stop-color="#481173"/>
</linearGradient>
<linearGradient id="paint26_linear_407_3744" x1="22.4703" y1="10.1569" x2="15.7282" y2="10.5201" gradientUnits="userSpaceOnUse">
<stop stop-color="#CB11AB"/>
<stop offset="1" stop-color="#481173"/>
</linearGradient>
<linearGradient id="paint27_linear_407_3744" x1="22.5084" y1="10.3968" x2="15.7291" y2="10.8134" gradientUnits="userSpaceOnUse">
<stop stop-color="#CB11AB"/>
<stop offset="1" stop-color="#481173"/>
</linearGradient>
</defs>
</svg>
