<svg width="64" height="64" viewBox="0 0 64 64" fill="none" xmlns="http://www.w3.org/2000/svg">
<path d="M59.3056 63.6079H4.69445C2.10177 63.6079 0 61.5061 0 58.9134V15.6944C0 13.1018 2.10177 11 4.69445 11H59.3055C61.8982 11 64 13.1018 64 15.6944V58.9134C64 61.5061 61.8982 63.6079 59.3056 63.6079Z" fill="#BB2FA6"/>
<path d="M64 20.3684V15.6945C64 13.1018 61.8982 11 59.3056 11H4.69441C2.10177 11 0 13.1018 0 15.6945V20.3684H64V20.3684Z" fill="url(#paint0_linear_1_563)"/>
<path d="M21.42 21.2323H4.60156V17.6064C4.60156 16.7057 5.33172 15.9756 6.23241 15.9756H19.7892C20.6899 15.9756 21.42 16.7057 21.42 17.6064V21.2323H21.42Z" fill="white"/>
<path d="M38.2384 20.3688H21.4199V17.6064C21.4199 16.7057 22.1501 15.9756 23.0508 15.9756H36.6075C37.5082 15.9756 38.2384 16.7057 38.2384 17.6064V20.3688Z" fill="#EEEEEE"/>
<path d="M58.0619 17.8874C59.0561 17.8874 59.862 17.0815 59.862 16.0873C59.862 15.0931 59.0561 14.2871 58.0619 14.2871C57.0677 14.2871 56.2617 15.0931 56.2617 16.0873C56.2617 17.0815 57.0677 17.8874 58.0619 17.8874Z" fill="#EEEEEE"/>
<path d="M52.5756 17.8874C53.5698 17.8874 54.3757 17.0815 54.3757 16.0873C54.3757 15.0931 53.5698 14.2871 52.5756 14.2871C51.5814 14.2871 50.7754 15.0931 50.7754 16.0873C50.7754 17.0815 51.5814 17.8874 52.5756 17.8874Z" fill="#EEEEEE"/>
<path d="M47.0853 17.8874C48.0795 17.8874 48.8855 17.0815 48.8855 16.0873C48.8855 15.0931 48.0795 14.2871 47.0853 14.2871C46.0911 14.2871 45.2852 15.0931 45.2852 16.0873C45.2852 17.0815 46.0911 17.8874 47.0853 17.8874Z" fill="#EEEEEE"/>
<path d="M24.1389 24.4531H5.70703V57.426H24.1389V24.4531Z" fill="#F6BA1E"/>
<path d="M59.477 24.4531H27.7012V37.2639H59.477V24.4531Z" fill="white"/>
<path d="M59.477 40.751H27.7012V44.5039H59.477V40.751Z" fill="#EEEEEE"/>
<path d="M59.477 47.2119H27.7012V50.9649H59.477V47.2119Z" fill="#EEEEEE"/>
<path d="M59.477 53.6729H27.7012V57.4258H59.477V53.6729Z" fill="#EEEEEE"/>
<defs>
<linearGradient id="paint0_linear_1_563" x1="64" y1="15.6842" x2="0" y2="15.6842" gradientUnits="userSpaceOnUse">
<stop stop-color="#CB11AB"/>
<stop offset="1" stop-color="#481173"/>
</linearGradient>
</defs>
</svg>
