<svg width="64" height="64" viewBox="0 0 64 64" fill="none" xmlns="http://www.w3.org/2000/svg">
<g clip-path="url(#clip0_1_593)">
<path d="M14.5647 46.5957L8.35745 54.3267C7.36246 55.5668 7.54315 57.3653 8.78322 58.3603L9.54511 58.9653C10.7852 59.9603 12.5837 59.7572 13.5787 58.5172L23.1472 46.5957H14.5647ZM29.9819 46.5957L39.5504 58.5172C40.5454 59.7572 42.344 59.9603 43.584 58.9653L44.3459 58.3603C45.586 57.3653 45.7667 55.5668 44.7717 54.3267L38.5645 46.5957H29.9819Z" fill="#BB2FA6"/>
<path d="M5.57978 14.6143C2.48799 14.6143 0 17.1022 0 20.194V40.093C0 43.1848 2.48799 45.6728 5.57978 45.6728H50.7334C53.8252 45.6728 56.3132 43.1848 56.3132 40.093V20.194C56.3132 17.1022 53.8252 14.6143 50.7334 14.6143H5.57978ZM51.4505 16.7207C52.7235 16.7207 53.7586 17.7558 53.7586 19.0288C53.7586 20.3017 52.7235 21.3369 51.4505 21.3369C50.1776 21.3369 49.1424 20.3017 49.1424 19.0288C49.1424 17.7558 50.1776 16.7207 51.4505 16.7207Z" fill="#BB2FA6"/>
<path d="M57.3418 35.7843V24.0169L64.0002 18.5254L63.9286 40.8836L57.3418 35.7843Z" fill="#BB2FA6"/>
<path d="M24.846 6.59467C24.846 10.2368 21.5502 13.1893 17.4845 13.1893C13.4189 13.1893 10.123 10.2368 10.123 6.59467C10.123 2.95253 13.4189 0 17.4845 0C21.5502 0 24.846 2.95253 24.846 6.59467Z" fill="#F6BA1E"/>
<path d="M39.5093 7.66491C39.5093 10.7164 36.7479 13.1902 33.3416 13.1902C29.9352 13.1902 27.1738 10.7164 27.1738 7.66491C27.1738 4.61339 29.9352 2.13965 33.3416 2.13965C36.7479 2.13965 39.5093 4.61339 39.5093 7.66491Z" fill="#F6BA1E"/>
<path d="M52.8754 19.0215C52.8755 19.2163 52.8372 19.4091 52.7627 19.5891C52.6883 19.7691 52.5791 19.9326 52.4414 20.0704C52.3037 20.2081 52.1402 20.3174 51.9603 20.392C51.7804 20.4665 51.5875 20.5049 51.3928 20.5049C51.198 20.5049 51.0051 20.4665 50.8252 20.392C50.6453 20.3174 50.4818 20.2081 50.3441 20.0704C50.2064 19.9326 50.0972 19.7691 50.0228 19.5891C49.9483 19.4091 49.91 19.2163 49.9102 19.0215C49.91 18.8267 49.9483 18.6339 50.0228 18.4539C50.0972 18.2739 50.2064 18.1104 50.3441 17.9726C50.4818 17.8349 50.6453 17.7256 50.8252 17.651C51.0051 17.5765 51.198 17.5381 51.3928 17.5381C51.5875 17.5381 51.7804 17.5765 51.9603 17.651C52.1402 17.7256 52.3037 17.8349 52.4414 17.9726C52.5791 18.1104 52.6883 18.2739 52.7627 18.4539C52.8372 18.6339 52.8755 18.8267 52.8754 19.0215Z" fill="#F6BA1E"/>
</g>
<defs>
<clipPath id="clip0_1_593">
<rect width="64" height="64" fill="white"/>
</clipPath>
</defs>
</svg>
