<svg width="64" height="64" viewBox="0 0 64 64" fill="none" xmlns="http://www.w3.org/2000/svg">
<g clip-path="url(#clip0_1_622)">
<path d="M34.788 18.6273C32.6002 17.1583 29.9749 16.2988 27.1464 16.2988C19.5985 16.2988 13.457 22.4403 13.457 29.9882C13.457 37.5361 19.5985 43.6775 27.1464 43.6775C34.7099 43.6775 40.8357 37.5361 40.8357 29.9882C40.8357 27.1597 39.9762 24.5187 38.5073 22.3465L35.4756 25.3782C36.2414 26.7534 36.6789 28.3317 36.6789 30.0038C36.6789 35.2545 32.3971 39.5363 27.1308 39.5363C21.8644 39.5363 17.5826 35.2545 17.5826 30.0038C17.5826 24.7375 21.8644 20.4556 27.1308 20.4556C28.8029 20.4556 30.3812 20.8932 31.7564 21.6589L34.788 18.6273Z" fill="#EEEEEE"/>
<path d="M29.8197 23.5958C28.9914 23.252 28.085 23.0645 27.1474 23.0645C23.3344 23.0645 20.2246 26.1742 20.2246 29.9873C20.2246 33.8003 23.3344 36.9101 27.1474 36.9101C30.9604 36.9101 34.0702 33.8003 34.0702 29.9873C34.0702 29.034 33.8827 28.1276 33.5389 27.315L30.0697 30.7686C29.5696 31.2687 28.9133 31.55 28.2101 31.55C27.5068 31.55 26.8505 31.2843 26.3504 30.7842C25.3347 29.7529 25.3347 28.0964 26.3504 27.065L29.8197 23.5958Z" fill="#EEEEEE"/>
<path d="M39.3677 14.0494C35.9766 11.4397 31.7416 9.89258 27.1473 9.89258C16.0833 9.89258 7.06641 18.8938 7.06641 29.9734C7.06641 41.0374 16.0833 50.0543 27.1473 50.0543C38.2269 50.0543 47.2281 41.0374 47.2281 29.9734C47.2281 25.3791 45.681 21.1441 43.0713 17.753L40.1021 20.7222C41.9774 23.3319 43.0713 26.5198 43.0713 29.9734C43.0713 38.7559 35.9141 45.8975 27.1316 45.8975C18.3492 45.8975 11.192 38.7559 11.192 29.9734C11.192 21.1754 18.3336 14.0338 27.1316 14.0338C30.5852 14.0338 33.7732 15.1277 36.3829 17.0029L39.3677 14.0494Z" fill="#ECB521"/>
<path d="M53.4153 29.9879C53.4153 23.6902 51.1806 17.9082 47.477 13.3763L44.5235 16.3298C47.4926 20.096 49.2585 24.831 49.2585 29.9879C49.2585 42.1771 39.3509 52.0847 27.1461 52.0847C14.957 52.0847 5.03377 42.1771 5.03377 29.9879C5.03377 17.7832 14.957 7.87556 27.1461 7.87556C32.3031 7.87556 37.0381 9.64143 40.8042 12.6106L43.7578 9.65705C39.2415 5.9378 33.4439 3.71875 27.1461 3.71875C12.6598 3.71875 0.876953 15.5016 0.876953 29.9879C0.876953 38.9266 5.37756 46.8496 12.2379 51.6002L6.61211 61.9298C6.42458 62.2735 6.3777 62.6642 6.48709 63.0393C6.59648 63.4143 6.84651 63.7269 7.19031 63.9144C7.40909 64.0238 7.64349 64.0863 7.89353 64.0863C8.42485 64.0863 8.92492 63.7894 9.17495 63.3206L14.7226 53.1317C18.0199 54.9132 21.7392 56.0071 25.6772 56.2102V62.6173C25.6772 63.4143 26.3335 64.0707 27.1305 64.0707C27.9275 64.0707 28.5838 63.4143 28.5838 62.6173V56.2102C32.5219 55.9914 36.2411 54.8975 39.5384 53.1317L45.0861 63.3206C45.3361 63.7894 45.8362 64.0863 46.3675 64.0863C46.6175 64.0863 46.8519 64.0238 47.0707 63.9144C47.4145 63.7269 47.6645 63.4143 47.7739 63.0393C47.8833 62.6642 47.8364 62.2735 47.6489 61.9298L42.0232 51.6002C48.9147 46.834 53.4153 38.9266 53.4153 29.9879Z" fill="#ECB521"/>
<path d="M56.9337 4.20369C56.7618 3.93803 56.4962 3.76613 56.1993 3.70363L55.1054 3.48485C55.246 3.06291 55.1679 2.60973 54.8397 2.29719C54.6209 2.07841 54.3396 1.95339 54.0427 1.95339C53.9021 1.95339 53.7771 1.98464 53.652 2.0159L53.4333 0.937628C53.3239 0.406306 52.8394 0 52.2925 0C52.2143 0 52.1362 0.0156278 52.0581 0.0312549C51.7455 0.0937634 51.4799 0.281288 51.3236 0.531322C51.1517 0.781356 51.0892 1.0939 51.1517 1.40644L51.6518 3.82864L51.0892 4.39122L50.9017 3.46922C50.7923 2.9379 50.3078 2.54722 49.7609 2.54722C49.6828 2.54722 49.6046 2.54722 49.5265 2.56285C49.2139 2.62536 48.9483 2.81288 48.792 3.06291C48.6201 3.31295 48.5576 3.64112 48.6201 3.93803L49.1202 6.36024L48.4638 7.01657L48.2763 6.09457C48.1669 5.56325 47.6825 5.17258 47.1355 5.17258C47.0574 5.17258 46.9793 5.17257 46.9011 5.1882C46.5886 5.25071 46.3229 5.43824 46.1667 5.68827C45.9948 5.95393 45.9322 6.26647 45.9948 6.56339L46.4948 8.98559L33.0242 22.4562L31.149 24.3314L27.3829 28.0976C26.9297 28.5507 26.9297 29.3008 27.3829 29.7384C27.6016 29.9572 27.8986 30.0822 28.2111 30.0822C28.5236 30.0822 28.8206 29.9572 29.0393 29.7384L32.7898 25.9879L34.6651 24.1126L48.1357 10.6421L50.5579 11.1421C50.636 11.1578 50.7141 11.1734 50.7923 11.1734C51.3392 11.1734 51.8237 10.7671 51.9331 10.2358C51.9956 9.93884 51.9331 9.6263 51.7612 9.36064C51.5893 9.09498 51.3392 8.92308 51.0267 8.86057L50.1047 8.67305L50.761 8.01671L53.1832 8.51678C53.2614 8.53241 53.3395 8.54803 53.4176 8.54803C53.9646 8.54803 54.449 8.14173 54.5584 7.61041C54.6209 7.31349 54.5584 7.00095 54.3865 6.73529C54.2146 6.46963 53.949 6.29773 53.652 6.23522L52.73 6.04769L53.2926 5.48512L55.7148 5.98519C55.793 6.00081 55.8711 6.01644 55.9492 6.01644C56.4962 6.01644 56.9806 5.62576 57.09 5.07881C57.1681 4.7819 57.1056 4.46935 56.9337 4.20369Z" fill="#EEEEEE"/>
</g>
<defs>
<clipPath id="clip0_1_622">
<rect width="64" height="64" fill="white"/>
</clipPath>
</defs>
</svg>
