<svg width="64" height="64" viewBox="0 0 64 64" fill="none" xmlns="http://www.w3.org/2000/svg">
<g clip-path="url(#clip0_1_580)">
<path d="M6.85608 0H63.9991C63.9991 0 57.142 5.59089 57.142 6.85718V20.5715C57.142 21.8378 56.1225 22.8573 54.8562 22.8573H6.85608C5.58976 22.8573 4.57031 21.8378 4.57031 20.5715V2.28573C4.57031 1.01943 5.58976 0 6.85608 0H6.85608Z" fill="#BB2FA6"/>
<path d="M57.1431 27.4287H0C0 27.4287 6.85714 33.0196 6.85714 34.2859V43.4288C6.85714 44.6951 7.87659 45.7145 9.1429 45.7145H57.1431C58.4094 45.7145 59.4288 44.6951 59.4288 43.4288V29.7144C59.4288 28.4481 58.4094 27.4287 57.1431 27.4287Z" fill="#EEEEEE"/>
<path d="M34.2858 50.2861H64.0001C64.0001 50.2861 57.143 55.877 57.143 57.1433V61.7148C57.143 62.9811 56.1235 64.0005 54.8572 64.0005H34.2858C33.0195 64.0005 32 62.9811 32 61.7148V52.5719C32 51.3056 33.0195 50.2861 34.2858 50.2861Z" fill="#BB2FA6"/>
<path fill-rule="evenodd" clip-rule="evenodd" d="M10.2852 5.71289V7.99862H23.9995V5.71289H10.2852ZM28.571 5.71289V7.99862H30.8567V5.71289H28.571ZM35.4281 5.71289V7.99862H44.571V5.71289H35.4281ZM49.1425 5.71289V7.99862H51.4282V5.71289H49.1425ZM10.2852 10.2843V12.5701H14.8566V10.2843H10.2852ZM17.1423 10.2843V12.5701H28.571V10.2843H17.1423ZM30.8567 10.2843V12.5701H51.4282V10.2843H30.8567ZM10.2852 14.8558V17.1415H21.7138V14.8558H10.2852ZM23.9995 14.8558V17.1415H33.1424V14.8558H23.9995ZM35.4281 14.8558V17.1415H37.7139V14.8558H35.4281ZM12.5711 33.1416V35.4273H17.1426V33.1416H12.5711ZM19.4283 33.1416V35.4273H30.8569V33.1416H19.4283ZM33.1427 33.1416V35.4273H53.7142V33.1416H33.1427ZM12.5711 37.7131V39.9988H23.9998V37.7131H12.5711ZM26.2855 37.7131V39.9988H35.4284V37.7131H26.2855ZM37.7141 37.7131V39.9988H39.9998V37.7131H37.7141Z" fill="white"/>
<path d="M40 53.7139H42.2857V55.9996H40V53.7139ZM40 58.2853H42.2857V60.571H40V58.2853Z" fill="white"/>
<path fill-rule="evenodd" clip-rule="evenodd" d="M45.6287 53.7124C45.4307 53.7255 45.2396 53.7899 45.074 53.8993C44.9085 54.0088 44.7743 54.1595 44.6847 54.3366C44.595 54.5136 44.553 54.7109 44.5628 54.9091C44.5725 55.1073 44.6337 55.2995 44.7403 55.4669C45.4958 56.6941 45.4958 57.5926 44.7403 58.8196C44.6558 58.9474 44.5978 59.091 44.5699 59.2417C44.542 59.3924 44.5447 59.5471 44.5778 59.6968C44.6109 59.8465 44.6738 59.988 44.7627 60.1128C44.8516 60.2377 44.9647 60.3434 45.0953 60.4237C45.2258 60.5039 45.3712 60.5573 45.5228 60.5802C45.6744 60.6031 45.829 60.5951 45.9775 60.557C46.1259 60.519 46.2653 60.4516 46.3871 60.3586C46.509 60.2657 46.6109 60.1492 46.6868 60.016C47.799 58.2098 47.7989 56.0768 46.6868 54.2704C46.5792 54.0887 46.4234 53.9404 46.2366 53.8419C46.0498 53.7433 45.8394 53.6986 45.6287 53.7124Z" fill="white"/>
</g>
<defs>
<clipPath id="clip0_1_580">
<rect width="64" height="64" fill="white"/>
</clipPath>
</defs>
</svg>
