<svg width="64" height="64" viewBox="0 0 64 64" fill="none" xmlns="http://www.w3.org/2000/svg">
<g clip-path="url(#clip0_1_605)">
<path d="M40.7294 15.6016V27.5866L26.7656 22.1116V15.6016H40.7294Z" fill="#DEDEDE"/>
<path d="M26.7644 15.6016V22.1116H21.0469C20.5497 22.1114 20.0728 21.9138 19.7213 21.5622C19.3697 21.2106 19.1721 20.7338 19.1719 20.2366V15.6016H26.7644Z" fill="#DEDEDE"/>
<path d="M55 19.8801V47.5104H7.03676e-09V19.8801C-3.07923e-05 19.3669 0.101043 18.8586 0.297452 18.3844C0.49386 17.9102 0.781754 17.4793 1.1447 17.1164C1.50764 16.7534 1.93851 16.4655 2.41273 16.2691C2.88694 16.0727 3.39519 15.9716 3.90847 15.9717H51.0915C51.6048 15.9716 52.1131 16.0727 52.5873 16.2691C53.0615 16.4655 53.4924 16.7534 53.8553 17.1164C54.2183 17.4793 54.5061 17.9102 54.7025 18.3844C54.899 18.8586 55 19.3669 55 19.8801Z" fill="#F6BA1E"/>
<path d="M55 47.5098V51.3479C55 51.8612 54.899 52.3694 54.7025 52.8436C54.5061 53.3178 54.2182 53.7487 53.8553 54.1116C53.4924 54.4746 53.0615 54.7625 52.5873 54.9589C52.1131 55.1553 51.6048 55.2564 51.0915 55.2564H3.90847C3.39519 55.2564 2.88694 55.1553 2.41273 54.9589C1.93852 54.7625 1.50764 54.4746 1.1447 54.1116C0.781761 53.7487 0.493866 53.3178 0.297457 52.8436C0.101048 52.3694 -2.80555e-05 51.8612 5.84132e-09 51.3479V47.5098H55Z" fill="#BB2FA6"/>
<path d="M35.1839 65.4384H19.8132C19.6203 65.4383 19.4307 65.3878 19.2633 65.2918C19.0959 65.1959 18.9565 65.0579 18.859 64.8914C18.7614 64.725 18.709 64.5359 18.7071 64.343C18.7051 64.1501 18.7536 63.96 18.8478 63.7916L20.6653 60.5463C21.3049 59.4028 21.6012 58.0991 21.5186 56.7915C21.488 56.2711 21.3966 55.756 21.2463 55.2568H33.7508C33.4888 56.1325 33.4052 57.0519 33.505 57.9605C33.6048 58.8691 33.886 59.7484 34.3319 60.5463L34.6458 61.1078L36.1493 63.7916C36.2435 63.96 36.292 64.1501 36.29 64.343C36.2881 64.5359 36.2357 64.725 36.1381 64.8914C36.0406 65.0579 35.9012 65.1959 35.7338 65.2918C35.5664 65.3878 35.3768 65.4383 35.1839 65.4384Z" fill="#BB2FA6"/>
<path d="M25.9841 43.3696C27.3593 43.3696 28.474 42.2548 28.474 40.8796C28.474 39.5044 27.3593 38.3896 25.9841 38.3896C24.6089 38.3896 23.4941 39.5044 23.4941 40.8796C23.4941 42.2548 24.6089 43.3696 25.9841 43.3696Z" fill="white"/>
<path d="M36.2281 9H34.9154C34.4336 9 34.043 9.3906 34.043 9.87243V27.6828C34.043 28.1647 34.4336 28.5553 34.9154 28.5553H36.2281C36.7099 28.5553 37.1005 28.1647 37.1005 27.6828V9.87243C37.1005 9.3906 36.7099 9 36.2281 9Z" fill="#BB2FA6"/>
<path d="M34.0445 27.5994L24.2988 23.7775V13.777L34.0445 9.95508V27.5994Z" fill="#EEEEEE"/>
<path d="M20.3087 13.7764H24.2986V23.7775H20.3087C19.9616 23.7775 19.6287 23.6396 19.3833 23.3942C19.1379 23.1488 19 22.8159 19 22.4688V15.085C19 14.9132 19.0338 14.743 19.0996 14.5842C19.1654 14.4254 19.2618 14.2812 19.3833 14.1597C19.5048 14.0381 19.6491 13.9417 19.8079 13.876C19.9666 13.8102 20.1368 13.7764 20.3087 13.7764Z" fill="#BB2FA6"/>
<path d="M24.286 31.9316H22.4228C22.2776 31.9316 22.1367 31.882 22.0236 31.791C21.9104 31.7 21.8318 31.5731 21.8006 31.4312L20.1211 23.7783H23.1786L24.9062 31.1493C24.9281 31.2428 24.9286 31.34 24.9076 31.4337C24.8867 31.5274 24.8448 31.6151 24.7852 31.6904C24.7255 31.7656 24.6496 31.8264 24.5632 31.8682C24.4768 31.9099 24.382 31.9316 24.286 31.9316Z" fill="#EEEEEE"/>
<path d="M37.1016 13.7773C37.7435 13.7773 38.3592 14.0324 38.8131 14.4863C39.2671 14.9402 39.5221 15.5559 39.5221 16.1979V21.5485C39.5221 22.1904 39.2671 22.8061 38.8131 23.26C38.3592 23.714 37.7435 23.969 37.1016 23.969V13.7773Z" fill="#EEEEEE"/>
</g>
<defs>
<clipPath id="clip0_1_605">
<rect width="64" height="64" fill="white"/>
</clipPath>
</defs>
</svg>
