<svg width="64" height="64" viewBox="0 0 64 64" fill="none" xmlns="http://www.w3.org/2000/svg">
<g clip-path="url(#clip0_1_633)">
<path d="M23.5137 62.1285C25.5708 62.1285 27.2269 60.4725 27.2269 58.4153L27.2194 57.9845V54.7021H36.7676V57.9845L36.7677 58.4153C36.7677 60.4725 38.4238 62.1285 40.4809 62.1285" fill="#BB2FA6"/>
<path d="M55.3322 20.7529H8.65198C7.77309 20.7529 7.06061 21.4654 7.06061 22.3443V53.1109C7.06061 53.9897 7.77309 54.7022 8.65198 54.7022H55.3322C56.2111 54.7022 56.9235 53.9897 56.9235 53.1109V22.3443C56.9235 21.4654 56.2111 20.7529 55.3322 20.7529Z" fill="#BB2FA6"/>
<path d="M55.333 21.2832H8.65277C8.06685 21.2832 7.59186 21.7582 7.59186 22.3441V53.1107C7.59186 53.6966 8.06685 54.1716 8.65277 54.1716H55.333C55.9189 54.1716 56.3939 53.6966 56.3939 53.1107V22.3441C56.3939 21.7582 55.9189 21.2832 55.333 21.2832Z" fill="#BB2FA6"/>
<path d="M54.0065 23.6699H9.97858V48.6015H54.0065V23.6699Z" fill="#F6BA1E"/>
<path fill-rule="evenodd" clip-rule="evenodd" d="M30.9311 37.4619C30.6372 37.4619 30.4006 37.6985 30.4006 37.9924V40.8269C29.5445 41.0122 28.728 41.3476 27.9887 41.8174L25.9912 39.8199C25.7834 39.6122 25.4489 39.6122 25.2411 39.8199L23.7409 41.3201C23.5331 41.5278 23.5331 41.8625 23.7409 42.0702L25.7426 44.0718C25.2696 44.8091 24.9307 45.6243 24.7417 46.4796H21.9133C21.6195 46.4796 21.3829 46.7162 21.3829 47.0101V48.6014H27.7877C27.7635 48.4256 27.7504 48.2485 27.7484 48.071C27.7484 46.9455 28.1955 45.8662 28.9913 45.0703C29.7871 44.2745 30.8665 43.8273 31.992 43.8273C33.1175 43.8273 34.1969 44.2745 34.9927 45.0703C35.7886 45.8662 36.2357 46.9455 36.2357 48.071C36.2343 48.2484 36.2219 48.4256 36.1983 48.6014H42.6011V47.0101C42.6011 46.7162 42.3645 46.4796 42.0707 46.4796H39.236C39.0507 45.6235 38.7154 44.807 38.2456 44.0677L40.2431 42.0702C40.4509 41.8625 40.4509 41.5278 40.2431 41.3201L38.7429 39.8199C38.5351 39.6122 38.2006 39.6122 37.9928 39.8199L35.9911 41.8215C35.2538 41.3485 34.4387 41.0097 33.5834 40.8207V37.9924C33.5834 37.6985 33.3468 37.4619 33.0529 37.4619H30.9311H30.9311Z" fill="white"/>
<path d="M31.9918 53.1105C32.8707 53.1105 33.5832 52.398 33.5832 51.5191C33.5832 50.6402 32.8707 49.9277 31.9918 49.9277C31.1129 49.9277 30.4005 50.6402 30.4005 51.5191C30.4005 52.398 31.1129 53.1105 31.9918 53.1105Z" fill="#496078"/>
<path d="M43.1312 62.1279H20.852C20.2661 62.1279 19.7911 62.6029 19.7911 63.1888C19.7911 63.7748 20.2661 64.2498 20.852 64.2498H43.1312C43.7171 64.2498 44.1921 63.7748 44.1921 63.1888C44.1921 62.6029 43.7171 62.1279 43.1312 62.1279Z" fill="#BB2FA6"/>
<path d="M51.6956 12C47.5394 12 44.1934 15.3399 44.1934 19.4882C44.1934 19.8864 44.1934 20.6557 44.1934 20.6557V33.784L49.6775 28.4083C50.8758 27.2123 51.6252 26.9765 53.0596 26.9765H55.7876C59.9438 26.9765 63.2898 23.6368 63.2898 19.4882C63.2898 15.3399 59.9438 12 55.7876 12H51.6956Z" fill="#EEEEEE"/>
<path d="M50.2598 18.8447H55.1046V24.0753L50.2598 23.797V18.8447Z" fill="white"/>
<path fill-rule="evenodd" clip-rule="evenodd" d="M50.8042 23.7356H48.9102V18.9014H51.0146" fill="white"/>
<path fill-rule="evenodd" clip-rule="evenodd" d="M51.0143 21.0029H53.2765H53.3296C54.1251 21.0029 54.8526 20.4194 55.2099 19.4948C55.5673 18.5701 55.4934 17.4622 55.019 16.6314L55.0126 16.5975V15.3651C55.0126 14.5293 54.282 13.8564 53.3746 13.8564H53.3286V15.5378V15.4953C53.3286 16.5883 51.0137 17.8495 51.0137 19.1106" fill="white"/>
<path d="M58.3894 17.6406H56.2654C55.806 17.6406 55.4337 18.0123 55.4337 18.4708C55.4337 18.9293 55.806 19.301 56.2654 19.301H58.3894C58.8487 19.301 59.2211 18.9293 59.2211 18.4708C59.2211 18.0123 58.8487 17.6406 58.3894 17.6406Z" fill="white"/>
<path d="M58.4044 19.3213H55.8317C55.3799 19.3213 55.0137 19.6929 55.0137 20.1514C55.0137 20.6099 55.3799 20.9816 55.8317 20.9816H58.4044C58.8562 20.9816 59.2224 20.6099 59.2224 20.1514C59.2224 19.6929 58.8562 19.3213 58.4044 19.3213Z" fill="white"/>
<path d="M55.7497 21.0244H58.0646C58.4712 21.0244 58.8008 21.3961 58.8008 21.8546C58.8008 22.3131 58.4712 22.6847 58.0646 22.6847H55.7497C55.343 22.6847 55.0134 22.3131 55.0134 21.8546C55.0134 21.3961 55.343 21.0244 55.7497 21.0244Z" fill="white"/>
<path d="M55.6682 22.7051H57.7263C58.0879 22.7051 58.3809 23.0767 58.3809 23.5352C58.3809 23.9937 58.0879 24.3654 57.7263 24.3654H55.6682C55.3066 24.3654 55.0136 23.9937 55.0136 23.5352C55.0136 23.0767 55.3066 22.7051 55.6682 22.7051Z" fill="white"/>
<path d="M49.5315 16.7627H47.1094V24.9964H49.5315V16.7627Z" fill="#BB2FA6"/>
<path d="M48.3228 24.2684C48.5906 24.2684 48.8076 24.0517 48.8076 23.7846C48.8076 23.5174 48.5906 23.3008 48.3228 23.3008C48.055 23.3008 47.838 23.5174 47.838 23.7846C47.838 24.0517 48.055 24.2684 48.3228 24.2684Z" fill="#E6E6E6"/>
<path d="M1.59674 15.1826C1.09716 15.1826 0.695374 15.5826 0.695374 16.0798V25.9556C0.695374 26.4529 1.09716 26.8528 1.59674 26.8528H15.4442H15.5855L18.7309 29.5051V25.2614V25.5681V16.0798C18.7309 15.5826 18.3291 15.1826 17.8295 15.1826H1.59674Z" fill="#EEEEEE"/>
<path d="M2.56842 17.041L9.71205 20.7521L16.8557 17.041" stroke="#BB2FA6" stroke-width="0.5" stroke-linecap="round" stroke-linejoin="round"/>
<path d="M12.7255 29.9854C15.6117 29.9854 17.9353 32.3108 17.9353 35.199C17.9353 35.4765 17.9353 36.012 17.9353 36.012V45.1531L14.1269 41.4101C13.2947 40.5774 12.7743 40.4132 11.7782 40.4132H9.88373C6.99748 40.4132 4.67389 38.0878 4.67389 35.199C4.67389 32.3107 6.99748 29.9854 9.88373 29.9854H12.7255Z" fill="#EEEEEE"/>
<path d="M9.38963 38.5267C9.16729 38.5012 8.68464 38.3899 8.45473 38.31C8.31471 38.2612 8.06327 38.1533 7.896 38.0697L7.59186 37.9178L7.83179 37.9283C8.26379 37.9421 8.8049 37.8286 9.20188 37.6393C9.45255 37.5197 9.78376 37.3054 9.78376 37.2626C9.78376 37.2414 9.70939 37.217 9.56954 37.1894C9.15648 37.112 8.76331 36.8531 8.55944 36.5253C8.47319 36.3866 8.40428 36.2525 8.40428 36.2234C8.40428 36.2128 8.50125 36.2117 8.61983 36.2117C9.0313 36.2117 9.13469 36.1544 8.88463 36.0663C8.48178 35.9245 8.18043 35.6614 7.99637 35.2906C7.92105 35.1391 7.83771 34.8215 7.83771 34.686C7.83771 34.6393 7.83984 34.6393 7.93553 34.686C8.13733 34.7879 8.50383 34.8485 8.50209 34.7783C8.50162 34.7613 8.4517 34.7104 8.39105 34.6646C8.17951 34.5057 7.98058 34.1885 7.90156 33.8842C7.82316 33.582 7.86888 33.0923 7.99895 32.8414L8.03524 32.7713L8.17669 32.9241C8.56302 33.3411 8.96989 33.6471 9.47431 33.9005C9.97578 34.1525 10.5141 34.3083 11.0477 34.3564L11.24 34.3744L11.2244 34.1315C11.2049 33.8273 11.251 33.5736 11.3706 33.3276C11.8024 32.4394 12.958 32.1971 13.7315 32.8323C13.8649 32.9419 13.8795 32.9477 13.9771 32.932C14.1239 32.9086 14.4231 32.8029 14.6176 32.7056C14.7087 32.66 14.7897 32.6228 14.7975 32.6228C14.805 32.6228 14.7706 32.7003 14.7203 32.7965C14.6198 32.9874 14.4562 33.1825 14.3055 33.2913C14.2199 33.3539 14.1681 33.4337 14.2139 33.4337C14.3301 33.4337 14.8248 33.3045 14.9445 33.2429L15.0183 33.2047L14.9221 33.3253C14.7799 33.5033 14.5435 33.7419 14.3965 33.8554L14.2672 33.9551L14.2667 34.2038C14.2657 35.0056 13.9968 35.886 13.5374 36.5963C12.7189 37.8615 11.4074 38.5553 9.86313 38.5397C9.65021 38.5397 9.4372 38.529 9.38978 38.5259L9.38963 38.5267Z" fill="#BB2FA6"/>
</g>
<defs>
<clipPath id="clip0_1_633">
<rect width="64" height="64" fill="white"/>
</clipPath>
</defs>
</svg>
