<svg width="28" height="21" viewBox="0 0 28 21" fill="none" xmlns="http://www.w3.org/2000/svg">
<path d="M12.4062 2.5625V14.25C12.4043 15.9402 11.7321 17.5606 10.5369 18.7557C9.34181 19.9508 7.72142 20.6231 6.03125 20.625C5.74946 20.625 5.47921 20.5131 5.27995 20.3138C5.08069 20.1145 4.96875 19.8443 4.96875 19.5625C4.96875 19.2807 5.08069 19.0105 5.27995 18.8112C5.47921 18.6119 5.74946 18.5 6.03125 18.5C7.15803 18.4987 8.2383 18.0506 9.03506 17.2538C9.83181 16.4571 10.28 15.3768 10.2812 14.25V13.1875H2.3125C1.74911 13.1869 1.20899 12.9628 0.81061 12.5644C0.412235 12.166 0.188144 11.6259 0.1875 11.0625V2.5625C0.188144 1.99911 0.412235 1.45899 0.81061 1.06061C1.20899 0.662235 1.74911 0.438144 2.3125 0.4375H10.2812C10.8446 0.438144 11.3848 0.662235 11.7831 1.06061C12.1815 1.45899 12.4056 1.99911 12.4062 2.5625ZM25.6875 0.4375H17.7188C17.1554 0.438144 16.6152 0.662235 16.2169 1.06061C15.8185 1.45899 15.5944 1.99911 15.5938 2.5625V11.0625C15.5944 11.6259 15.8185 12.166 16.2169 12.5644C16.6152 12.9628 17.1554 13.1869 17.7188 13.1875H25.6875V14.25C25.6862 15.3768 25.2381 16.4571 24.4413 17.2538C23.6446 18.0506 22.5643 18.4987 21.4375 18.5C21.1557 18.5 20.8855 18.6119 20.6862 18.8112C20.4869 19.0105 20.375 19.2807 20.375 19.5625C20.375 19.8443 20.4869 20.1145 20.6862 20.3138C20.8855 20.5131 21.1557 20.625 21.4375 20.625C23.1277 20.6231 24.7481 19.9508 25.9432 18.7557C27.1383 17.5606 27.8106 15.9402 27.8125 14.25V2.5625C27.8119 1.99911 27.5878 1.45899 27.1894 1.06061C26.791 0.662235 26.2509 0.438144 25.6875 0.4375Z" fill="#C4C4C4"/>
<path d="M12.4062 2.5625V14.25C12.4043 15.9402 11.7321 17.5606 10.5369 18.7557C9.34181 19.9508 7.72142 20.6231 6.03125 20.625C5.74946 20.625 5.47921 20.5131 5.27995 20.3138C5.08069 20.1145 4.96875 19.8443 4.96875 19.5625C4.96875 19.2807 5.08069 19.0105 5.27995 18.8112C5.47921 18.6119 5.74946 18.5 6.03125 18.5C7.15803 18.4987 8.2383 18.0506 9.03506 17.2538C9.83181 16.4571 10.28 15.3768 10.2812 14.25V13.1875H2.3125C1.74911 13.1869 1.20899 12.9628 0.81061 12.5644C0.412235 12.166 0.188144 11.6259 0.1875 11.0625V2.5625C0.188144 1.99911 0.412235 1.45899 0.81061 1.06061C1.20899 0.662235 1.74911 0.438144 2.3125 0.4375H10.2812C10.8446 0.438144 11.3848 0.662235 11.7831 1.06061C12.1815 1.45899 12.4056 1.99911 12.4062 2.5625ZM25.6875 0.4375H17.7188C17.1554 0.438144 16.6152 0.662235 16.2169 1.06061C15.8185 1.45899 15.5944 1.99911 15.5938 2.5625V11.0625C15.5944 11.6259 15.8185 12.166 16.2169 12.5644C16.6152 12.9628 17.1554 13.1869 17.7188 13.1875H25.6875V14.25C25.6862 15.3768 25.2381 16.4571 24.4413 17.2538C23.6446 18.0506 22.5643 18.4987 21.4375 18.5C21.1557 18.5 20.8855 18.6119 20.6862 18.8112C20.4869 19.0105 20.375 19.2807 20.375 19.5625C20.375 19.8443 20.4869 20.1145 20.6862 20.3138C20.8855 20.5131 21.1557 20.625 21.4375 20.625C23.1277 20.6231 24.7481 19.9508 25.9432 18.7557C27.1383 17.5606 27.8106 15.9402 27.8125 14.25V2.5625C27.8119 1.99911 27.5878 1.45899 27.1894 1.06061C26.791 0.662235 26.2509 0.438144 25.6875 0.4375Z" fill="url(#paint0_linear_20_11)"/>
<defs>
<linearGradient id="paint0_linear_20_11" x1="1.44145" y1="20.625" x2="26.2166" y2="20.625" gradientUnits="userSpaceOnUse">
<stop stop-color="#4C1175"/>
<stop offset="1" stop-color="#C511A9"/>
</linearGradient>
</defs>
</svg>
