<svg width="28" height="21" viewBox="0 0 28 21" fill="none" xmlns="http://www.w3.org/2000/svg">
<path d="M15.5938 2.5625V14.25C15.5957 15.9402 16.2679 17.5606 17.4631 18.7557C18.6582 19.9508 20.2786 20.6231 21.9688 20.625C22.2505 20.625 22.5208 20.5131 22.7201 20.3138C22.9193 20.1145 23.0312 19.8443 23.0312 19.5625C23.0312 19.2807 22.9193 19.0105 22.7201 18.8112C22.5208 18.6119 22.2505 18.5 21.9688 18.5C20.842 18.4987 19.7617 18.0506 18.9649 17.2538C18.1682 16.4571 17.72 15.3768 17.7188 14.25V13.1875H25.6875C26.2509 13.1869 26.791 12.9628 27.1894 12.5644C27.5878 12.166 27.8119 11.6259 27.8125 11.0625V2.5625C27.8119 1.99911 27.5878 1.45899 27.1894 1.06061C26.791 0.662235 26.2509 0.438144 25.6875 0.4375H17.7188C17.1554 0.438144 16.6152 0.662235 16.2169 1.06061C15.8185 1.45899 15.5944 1.99911 15.5938 2.5625ZM2.3125 0.4375H10.2812C10.8446 0.438144 11.3848 0.662235 11.7831 1.06061C12.1815 1.45899 12.4056 1.99911 12.4062 2.5625V11.0625C12.4056 11.6259 12.1815 12.166 11.7831 12.5644C11.3848 12.9628 10.8446 13.1869 10.2812 13.1875H2.3125V14.25C2.31376 15.3768 2.76194 16.4571 3.55869 17.2538C4.35545 18.0506 5.43572 18.4987 6.5625 18.5C6.84429 18.5 7.11454 18.6119 7.3138 18.8112C7.51306 19.0105 7.625 19.2807 7.625 19.5625C7.625 19.8443 7.51306 20.1145 7.3138 20.3138C7.11454 20.5131 6.84429 20.625 6.5625 20.625C4.87233 20.6231 3.25194 19.9508 2.0568 18.7557C0.861675 17.5606 0.189411 15.9402 0.1875 14.25V2.5625C0.188145 1.99911 0.412235 1.45899 0.81061 1.06061C1.20898 0.662235 1.74911 0.438144 2.3125 0.4375Z" fill="#C4C4C4"/>
<path d="M15.5938 2.5625V14.25C15.5957 15.9402 16.2679 17.5606 17.4631 18.7557C18.6582 19.9508 20.2786 20.6231 21.9688 20.625C22.2505 20.625 22.5208 20.5131 22.7201 20.3138C22.9193 20.1145 23.0312 19.8443 23.0312 19.5625C23.0312 19.2807 22.9193 19.0105 22.7201 18.8112C22.5208 18.6119 22.2505 18.5 21.9688 18.5C20.842 18.4987 19.7617 18.0506 18.9649 17.2538C18.1682 16.4571 17.72 15.3768 17.7188 14.25V13.1875H25.6875C26.2509 13.1869 26.791 12.9628 27.1894 12.5644C27.5878 12.166 27.8119 11.6259 27.8125 11.0625V2.5625C27.8119 1.99911 27.5878 1.45899 27.1894 1.06061C26.791 0.662235 26.2509 0.438144 25.6875 0.4375H17.7188C17.1554 0.438144 16.6152 0.662235 16.2169 1.06061C15.8185 1.45899 15.5944 1.99911 15.5938 2.5625ZM2.3125 0.4375H10.2812C10.8446 0.438144 11.3848 0.662235 11.7831 1.06061C12.1815 1.45899 12.4056 1.99911 12.4062 2.5625V11.0625C12.4056 11.6259 12.1815 12.166 11.7831 12.5644C11.3848 12.9628 10.8446 13.1869 10.2812 13.1875H2.3125V14.25C2.31376 15.3768 2.76194 16.4571 3.55869 17.2538C4.35545 18.0506 5.43572 18.4987 6.5625 18.5C6.84429 18.5 7.11454 18.6119 7.3138 18.8112C7.51306 19.0105 7.625 19.2807 7.625 19.5625C7.625 19.8443 7.51306 20.1145 7.3138 20.3138C7.11454 20.5131 6.84429 20.625 6.5625 20.625C4.87233 20.6231 3.25194 19.9508 2.0568 18.7557C0.861675 17.5606 0.189411 15.9402 0.1875 14.25V2.5625C0.188145 1.99911 0.412235 1.45899 0.81061 1.06061C1.20898 0.662235 1.74911 0.438144 2.3125 0.4375Z" fill="url(#paint0_linear_20_7)"/>
<defs>
<linearGradient id="paint0_linear_20_7" x1="26.5585" y1="20.625" x2="1.78344" y2="20.625" gradientUnits="userSpaceOnUse">
<stop stop-color="#4C1175"/>
<stop offset="1" stop-color="#C511A9"/>
</linearGradient>
</defs>
</svg>
