<svg width="24" height="20" viewBox="0 0 24 20" fill="none" xmlns="http://www.w3.org/2000/svg">
<path d="M18.275 15.5H19.1938C19.4563 15.5 19.7188 15.2 19.7188 14.9V4.1C19.7188 3.8 19.4563 3.5 19.1938 3.5H18.275C18.0125 3.5 17.75 3.8 17.75 4.1V14.9C17.75 15.2 18.0125 15.5 18.275 15.5ZM10.4 15.5H11.3187C11.5812 15.5 11.8438 15.2 11.8438 14.9V5.6C11.8438 5.3 11.5812 5 11.3187 5H10.4C10.1375 5 9.875 5.3 9.875 5.6V14.9C9.875 15.2 10.1375 15.5 10.4 15.5V15.5ZM14.3375 15.5H15.2563C15.5188 15.5 15.7812 15.2 15.7812 14.9V8.6C15.7812 8.3 15.5188 8 15.2563 8H14.3375C14.075 8 13.8125 8.3 13.8125 8.6V14.9C13.8125 15.2 14.075 15.5 14.3375 15.5V15.5ZM22.3438 17.75H3.96875V2.75C3.96875 2.33562 3.67508 2 3.3125 2H2.65625C2.29367 2 2 2.33562 2 2.75V18.5C2 19.3283 2.58775 20 3.3125 20H22.3438C22.7063 20 23 19.6644 23 19.25V18.5C23 18.0856 22.7063 17.75 22.3438 17.75ZM6.4625 15.5H7.38125C7.64375 15.5 7.90625 15.2 7.90625 14.9V11.6C7.90625 11.3 7.64375 11 7.38125 11H6.4625C6.2 11 5.9375 11.3 5.9375 11.6V14.9C5.9375 15.2 6.2 15.5 6.4625 15.5V15.5Z" fill="#4C1175"/>
</svg>
