<svg width="40" height="40" viewBox="0 0 40 40" fill="none" xmlns="http://www.w3.org/2000/svg">
<path d="M17.3235 37.0848C19.2553 37.405 21.2281 37.405 23.1599 37.0848" stroke="#BB2FA6" stroke-width="4"/>
<path d="M17.3235 2.91619C19.2553 2.59597 21.2281 2.59597 23.1599 2.91619" stroke="#BB2FA6" stroke-width="4"/>
<path d="M37.5885 17.1267C37.9126 19.0294 37.9115 20.9721 37.5853 22.8744" stroke="#BB2FA6" stroke-width="4"/>
<path d="M2.89444 17.1267C2.57039 19.0294 2.57149 20.9721 2.89772 22.8744" stroke="#BB2FA6" stroke-width="4"/>
<path d="M30.5593 5.97012C32.1452 7.10255 33.528 8.48832 34.6502 10.0697" stroke="#BB2FA6" stroke-width="4"/>
<path d="M5.82684 29.9325C6.95063 31.5127 8.33494 32.897 9.92207 34.0278" stroke="#BB2FA6" stroke-width="4"/>
<path d="M34.4854 30.1631C33.3355 31.7251 31.9284 33.0869 30.3228 34.192" stroke="#B6B6B6" stroke-width="4"/>
<path d="M10.1538 5.80588C8.54929 6.91265 7.14375 8.27598 5.99549 9.83907" stroke="#BB2FA6" stroke-width="4"/>
<path d="M35.1655 10.8072C36.2043 12.4429 36.9584 14.2382 37.3963 16.1187" stroke="#BB2FA6" stroke-width="4"/>
<path d="M3.11143 23.8825C3.55122 25.7625 4.30699 27.5572 5.34745 29.1918" stroke="#BB2FA6" stroke-width="4"/>
<path d="M29.5888 34.6845C27.928 35.7076 26.105 36.45 24.1956 36.8813" stroke="#B6B6B6" stroke-width="4"/>
<path d="M16.3122 3.11626C14.4032 3.54938 12.5811 4.29383 10.9213 5.31852" stroke="#BB2FA6" stroke-width="4"/>
<path d="M24.1989 3.1251C26.1069 3.56225 27.9274 4.31055 29.585 5.33875" stroke="#BB2FA6" stroke-width="4"/>
<path d="M10.8536 34.6654C12.5122 35.692 14.3335 36.4383 16.242 36.8736" stroke="#BB2FA6" stroke-width="4"/>
<path d="M37.3547 23.9192C36.9108 25.7983 36.151 27.5913 35.107 29.2237" stroke="#BB2FA6" stroke-width="4"/>
<path d="M5.32864 10.7762C4.28628 12.4096 3.5283 14.2034 3.08633 16.0829" stroke="#BB2FA6" stroke-width="4"/>
<path d="M33.2364 19.7539C33.2364 26.9331 27.3282 32.7514 20.041 32.7514C12.752 32.7514 6.845 26.9331 6.845 19.7539C6.845 12.5765 12.752 6.75757 20.041 6.75757C27.3282 6.75757 33.2364 12.5765 33.2364 19.7539Z" fill="url(#paint0_linear_63_241)"/>
<path d="M18.6557 21.9775H18.7729C19.312 21.9775 19.7612 21.9072 20.1205 21.7666C20.4838 21.6221 20.7729 21.4229 20.9877 21.1689C21.2026 20.915 21.3569 20.6162 21.4506 20.2725C21.5444 19.9287 21.5912 19.5557 21.5912 19.1533V17.6826C21.5912 17.335 21.5541 17.0303 21.4799 16.7686C21.4096 16.5029 21.308 16.2822 21.1752 16.1064C21.0463 15.9268 20.8959 15.792 20.7241 15.7021C20.5561 15.6123 20.3745 15.5674 20.1791 15.5674C19.9643 15.5674 19.7709 15.6162 19.5991 15.7139C19.4311 15.8076 19.2885 15.9385 19.1713 16.1064C19.058 16.2705 18.9702 16.4639 18.9077 16.6865C18.8491 16.9053 18.8198 17.1396 18.8198 17.3896C18.8198 17.624 18.8471 17.8506 18.9018 18.0693C18.9604 18.2842 19.0463 18.4756 19.1596 18.6436C19.2729 18.8115 19.4155 18.9443 19.5873 19.042C19.7592 19.1396 19.9604 19.1885 20.1909 19.1885C20.4096 19.1885 20.6108 19.1475 20.7944 19.0654C20.978 18.9795 21.1381 18.8643 21.2748 18.7197C21.4116 18.5752 21.519 18.4131 21.5971 18.2334C21.6752 18.0537 21.7182 17.8701 21.726 17.6826L22.2651 17.8467C22.2651 18.1436 22.2026 18.4365 22.0776 18.7256C21.9565 19.0107 21.7866 19.2725 21.5678 19.5107C21.353 19.7451 21.101 19.9326 20.812 20.0732C20.5268 20.2139 20.2162 20.2842 19.8803 20.2842C19.4741 20.2842 19.1147 20.208 18.8022 20.0557C18.4936 19.8994 18.2358 19.6885 18.0287 19.4229C17.8256 19.1572 17.6733 18.8525 17.5717 18.5088C17.4702 18.165 17.4194 17.8037 17.4194 17.4248C17.4194 17.0146 17.4819 16.6299 17.6069 16.2705C17.7319 15.9111 17.9135 15.5947 18.1518 15.3213C18.3901 15.0439 18.6791 14.8291 19.019 14.6768C19.3627 14.5205 19.7514 14.4424 20.185 14.4424C20.6459 14.4424 21.0502 14.5322 21.3979 14.7119C21.7455 14.8916 22.0385 15.1396 22.2768 15.4561C22.5151 15.7725 22.6948 16.1396 22.8159 16.5576C22.937 16.9756 22.9975 17.4248 22.9975 17.9053V18.4033C22.9975 18.9072 22.9526 19.3936 22.8627 19.8623C22.7729 20.3271 22.6264 20.7588 22.4233 21.1572C22.2241 21.5518 21.9604 21.8994 21.6323 22.2002C21.308 22.4971 20.9096 22.7295 20.437 22.8975C19.9682 23.0615 19.4174 23.1436 18.7846 23.1436H18.6557V21.9775Z" fill="white"/>
<defs>
<linearGradient id="paint0_linear_63_241" x1="33.2364" y1="19.7545" x2="6.845" y2="19.7545" gradientUnits="userSpaceOnUse">
<stop stop-color="#CB11AB"/>
<stop offset="1" stop-color="#481173"/>
</linearGradient>
</defs>
</svg>
