<svg width="99" height="99" viewBox="0 0 99 99" fill="none" xmlns="http://www.w3.org/2000/svg">
<path d="M49.5 6.1875C73.3822 6.1875 92.8125 25.6178 92.8125 49.5C92.8125 73.3822 73.3822 92.8125 49.5 92.8125C25.6178 92.8125 6.1875 73.3822 6.1875 49.5C6.1875 25.6178 25.6178 6.1875 49.5 6.1875ZM49.5 0C22.1621 0 0 22.1621 0 49.5C0 76.8379 22.1621 99 49.5 99C76.8379 99 99 76.8379 99 49.5C99 22.1621 76.8379 0 49.5 0Z" fill="#FBEC9A"/>
<path d="M49.3125 92.625C25.4303 92.625 6 73.1947 6 49.3125C6 25.4303 25.4303 6 49.3125 6C73.1947 6 92.625 25.4303 92.625 49.3125C92.625 73.1947 73.1947 92.625 49.3125 92.625Z" fill="url(#paint0_linear_1_405)"/>
<path d="M6.1875 49.5C6.1875 25.6178 25.6178 6.1875 49.5 6.1875C61.759 6.1875 72.8362 11.3154 80.7237 19.5293L85.1137 15.1393C76.1109 5.81161 63.4868 0 49.5 0C22.1621 0 0 22.1621 0 49.5C0 63.4868 5.81161 76.1109 15.1393 85.1122L19.5293 80.7221C11.3154 72.8362 6.1875 61.759 6.1875 49.5Z" fill="#FCF6C2"/>
<path d="M38.2242 80.4541L39.9817 81.1744L39.691 81.8837L37.9335 81.1634C37.5931 81.0239 37.2953 80.9652 37.04 80.9872C36.7847 81.0092 36.5694 81.0969 36.394 81.2502C36.2156 81.4022 36.0758 81.6017 35.9746 81.8487C35.882 82.0746 35.8447 82.3073 35.8626 82.5469C35.8775 82.7852 35.9657 83.0077 36.1271 83.2146C36.2874 83.4245 36.5377 83.5992 36.878 83.7387L38.4323 84.3757L40.8357 78.5112L41.7077 78.8686L39.0117 85.447L36.5855 84.4526C36.0885 84.2489 35.7035 83.9909 35.4305 83.6784C35.1575 83.366 34.9944 83.0213 34.9414 82.6442C34.8871 82.2702 34.9396 81.8889 35.0989 81.5004C35.2717 81.0787 35.5081 80.7551 35.808 80.5298C36.1079 80.3044 36.4617 80.1838 36.8692 80.1679C37.2756 80.155 37.7272 80.2504 38.2242 80.4541Z" fill="white"/>
<path d="M32.9039 74.4658C33.1991 74.6854 33.4299 74.9341 33.5964 75.2121C33.7583 75.4908 33.8574 75.7856 33.8938 76.0967C33.9276 76.4058 33.897 76.7197 33.8019 77.0385C33.7068 77.3572 33.5485 77.6654 33.3271 77.9632L33.2047 78.1278C32.9482 78.4725 32.669 78.7416 32.3671 78.9348C32.0632 79.1307 31.7538 79.2576 31.4389 79.3155C31.124 79.3734 30.8196 79.3681 30.5258 79.2996C30.2319 79.2311 29.9661 79.1085 29.7284 78.9317C29.4254 78.7063 29.2031 78.4598 29.0614 78.1922C28.917 77.9225 28.8443 77.6413 28.8431 77.3483C28.84 77.0579 28.8987 76.7608 29.0193 76.457C29.1379 76.1557 29.3079 75.8562 29.5294 75.5584L29.7712 75.2332L32.9369 77.5878L32.4969 78.1794L30.056 76.364L30.0152 76.4188C29.8858 76.6146 29.789 76.8266 29.7248 77.0547C29.658 77.2809 29.6537 77.5049 29.7118 77.7267C29.77 77.9484 29.9232 78.1516 30.1713 78.3362C30.3359 78.4586 30.5136 78.536 30.7045 78.5684C30.8934 78.6035 31.088 78.59 31.2883 78.528C31.4886 78.466 31.689 78.3574 31.8895 78.2023C32.0901 78.0472 32.2856 77.8417 32.476 77.5857L32.5983 77.4212C32.7479 77.2201 32.8614 77.0103 32.9386 76.7919C33.0113 76.5742 33.0437 76.3589 33.0356 76.146C33.025 75.9312 32.9708 75.7286 32.8731 75.5382C32.7727 75.3459 32.6232 75.176 32.4247 75.0283C32.1688 74.8379 31.9131 74.7289 31.6578 74.7013C31.4025 74.6737 31.1431 74.6978 30.8798 74.7737L30.7003 74.0987C30.8947 74.0282 31.109 73.9828 31.3433 73.9623C31.5776 73.9418 31.8271 73.9692 32.0917 74.0443C32.3537 74.1175 32.6245 74.258 32.9039 74.4658Z" fill="white"/>
<path d="M24.1444 74.0891L28.2154 70.7218L28.7912 71.4178L24.7201 74.7851L24.1444 74.0891ZM21.9348 71.4177L25.8641 71.4183L26.6701 72.3928L26.1477 73.0023L25.4879 72.2047L22.635 72.2642L21.9348 71.4177ZM26.6251 68.7991L26.0201 71.8215L25.1456 71.7908L25.8938 67.9149L26.6251 68.7991Z" fill="white"/>
<path d="M22.0509 67.1872L21.9498 67.2361C21.607 67.4021 21.265 67.5062 20.9238 67.5485C20.5797 67.5921 20.2538 67.5727 19.9462 67.4901C19.6357 67.409 19.3558 67.2642 19.1066 67.0558C18.8544 66.8487 18.6482 66.5797 18.4879 66.2486C18.3262 65.9146 18.2423 65.5845 18.2363 65.2583C18.2259 64.9306 18.2852 64.6198 18.4142 64.3259C18.5388 64.0305 18.7249 63.7613 18.9726 63.5184C19.2173 63.277 19.5111 63.0732 19.8539 62.9073L19.955 62.8583C20.2978 62.6924 20.6398 62.5883 20.981 62.546C21.3222 62.5038 21.6488 62.5247 21.9607 62.6087C22.2683 62.6913 22.5482 62.8361 22.8004 63.0431C23.0482 63.2486 23.2529 63.5184 23.4146 63.8524C23.5763 64.1864 23.6617 64.5158 23.6706 64.8406C23.6767 65.1668 23.6174 65.4776 23.4928 65.773C23.3638 66.0669 23.177 66.3346 22.9322 66.576C22.6875 66.8175 22.3937 67.0212 22.0509 67.1872ZM21.5562 66.4231L21.6573 66.3742C21.8946 66.2593 22.1052 66.1229 22.2892 65.9651C22.4703 65.8087 22.6145 65.6359 22.7217 65.4465C22.8275 65.2542 22.8862 65.0504 22.8976 64.8351C22.9062 64.6212 22.8558 64.4014 22.7466 64.1758C22.6388 63.9532 22.4991 63.7803 22.3274 63.6573C22.1513 63.5327 21.9558 63.4538 21.7408 63.4205C21.5257 63.3872 21.3007 63.3931 21.0657 63.4381C20.8264 63.4816 20.5881 63.5609 20.3508 63.6758L20.2497 63.7247C20.0153 63.8382 19.8083 63.9746 19.6286 64.1339C19.4446 64.2917 19.2997 64.4668 19.1939 64.659C19.0837 64.8498 19.0229 65.0529 19.0114 65.2682C18.9985 65.4806 19.0467 65.6996 19.1559 65.9252C19.2637 66.1479 19.4057 66.3215 19.5817 66.446C19.7563 66.5676 19.9533 66.6458 20.1727 66.6806C20.3878 66.714 20.6142 66.7074 20.8521 66.6609C21.0871 66.6159 21.3218 66.5366 21.5562 66.4231Z" fill="white"/>
<path d="M19.3606 56.6772L15.0197 55.6534L14.8615 54.7988L20.4848 56.1513L20.5986 56.7659L15.8303 60.0321L15.6721 59.1775L19.3606 56.6772ZM15.7201 59.4368L20.915 58.4751L21.0794 59.3633L15.8845 60.325L15.7201 59.4368ZM20.1738 54.4709L14.9788 55.4325L14.8135 54.5395L20.0085 53.5778L20.1738 54.4709Z" fill="white"/>
<path d="M19.9361 48.2456C19.9035 48.612 19.8124 48.9389 19.6627 49.2262C19.51 49.5101 19.3107 49.7489 19.0647 49.9427C18.819 50.1333 18.5355 50.2715 18.2141 50.3573C17.8927 50.4432 17.5473 50.4697 17.1776 50.4368L16.9733 50.4187C16.5453 50.3806 16.17 50.2835 15.8472 50.1274C15.5213 49.971 15.2512 49.7738 15.037 49.5358C14.8229 49.2978 14.6681 49.0357 14.5726 48.7494C14.4771 48.4632 14.4425 48.1725 14.4687 47.8774C14.5021 47.5013 14.5958 47.1828 14.7497 46.922C14.9039 46.6579 15.1055 46.4487 15.3545 46.2943C15.6003 46.1397 15.8842 46.0342 16.2062 45.9779C16.5249 45.9212 16.8691 45.9093 17.2388 45.9422L17.6424 45.978L17.2932 49.9079L16.5588 49.8426L16.8281 46.8126L16.76 46.8065C16.5254 46.7987 16.2941 46.8272 16.0661 46.8919C15.8384 46.9534 15.6453 47.0669 15.4868 47.2326C15.3283 47.3982 15.2354 47.6351 15.208 47.9431C15.1898 48.1474 15.2169 48.3393 15.2892 48.519C15.3582 48.6983 15.4715 48.8571 15.6292 48.9953C15.7869 49.1335 15.9843 49.2474 16.2214 49.3371C16.4585 49.4268 16.736 49.4858 17.0537 49.514L17.258 49.5322C17.5077 49.5544 17.7458 49.5412 17.9723 49.4927C18.1959 49.4407 18.3963 49.3555 18.5734 49.2373C18.7509 49.1158 18.8952 48.9636 19.0062 48.7806C19.1175 48.5944 19.1841 48.3781 19.206 48.1317C19.2342 47.814 19.1933 47.5391 19.0832 47.3071C18.9731 47.0751 18.8168 46.8667 18.6142 46.682L19.0955 46.1758C19.2573 46.3045 19.4082 46.4634 19.5483 46.6523C19.6883 46.8412 19.7956 47.0681 19.8701 47.3329C19.9449 47.5944 19.9669 47.8987 19.9361 48.2456Z" fill="white"/>
<path d="M18.7239 38.7606L19.4137 39.0068L18.4749 41.6372L17.7851 41.3911L18.7239 38.7606ZM15.6923 40.442L20.6681 42.2178L20.3645 43.0685L15.3887 41.2927L15.6923 40.442ZM16.8133 37.3011L21.7891 39.0769L21.4838 39.9322L16.508 38.1564L16.8133 37.3011Z" fill="white"/>
<path d="M19.2151 32.0144L19.7267 31.2698L21.3124 32.4541C21.7145 32.754 22.0391 33.0461 22.2861 33.3304C22.5331 33.6147 22.7212 33.89 22.8502 34.1563C22.9765 34.4209 23.0591 34.6771 23.0981 34.925C23.1389 35.1703 23.1532 35.4053 23.1411 35.6299L22.8867 36.0002L22.2928 35.5625L22.3939 35.4068C22.35 35.2464 22.3017 35.0868 22.2489 34.9281C22.1933 34.7675 22.113 34.5998 22.008 34.4249C21.9004 34.2483 21.7508 34.0606 21.5595 33.862C21.3673 33.6589 21.1135 33.4391 20.7981 33.2026L19.2151 32.0144ZM19.3423 31.8292L21.1424 29.2093L25.4969 32.201L24.9853 32.9456L21.319 30.4266L20.0305 32.3021L19.3423 31.8292ZM22.1588 35.7489L25.2695 31.2214L27.165 32.5237L26.6535 33.2682L25.3697 32.3862L23.2821 35.4247L24.5659 36.3067L24.0516 37.0553L22.1588 35.7489Z" fill="white"/>
<path d="M28.363 27.9894L26.3102 23.4751L27.0322 22.832L29.5061 28.7956C29.5563 28.9253 29.6008 29.0731 29.6396 29.239C29.683 29.4052 29.704 29.5805 29.7026 29.7649C29.7011 29.9493 29.6629 30.1315 29.588 30.3116C29.5176 30.492 29.3925 30.6623 29.2126 30.8225C29.1591 30.8702 29.0846 30.9235 28.9889 30.9825C28.8933 31.0415 28.8241 31.0814 28.7814 31.1019L28.2906 30.5583C28.3122 30.5434 28.3448 30.5187 28.3883 30.4844C28.4364 30.4503 28.4689 30.4256 28.4859 30.4105C28.6391 30.2741 28.7507 30.1376 28.8209 30.001C28.8932 29.8668 28.9236 29.7199 28.912 29.5601C28.9051 29.4006 28.8559 29.2156 28.7643 29.0051L28.363 27.9894ZM24.407 25.1704L28.1596 27.3205L28.9679 27.8756L28.7038 28.5555L23.6704 25.8264L24.407 25.1704Z" fill="white"/>
<path d="M32.6994 23.2918L33.0486 18.7468L33.8511 18.3216L36.3247 22.9899L35.5222 23.4152L33.7184 20.011L33.3693 24.556L32.5754 24.9766L30.1018 20.3083L30.8956 19.8876L32.6994 23.2918ZM31.7166 17.2864L32.3638 16.9435C32.4827 17.1679 32.5368 17.3952 32.5263 17.6255C32.5142 17.853 32.4377 18.0667 32.2968 18.2666C32.1559 18.4665 31.9531 18.6365 31.6885 18.7768C31.2887 18.9886 30.9159 19.0498 30.5701 18.9604C30.2257 18.8666 29.9636 18.65 29.7837 18.3106L30.4309 17.9677C30.5208 18.1374 30.649 18.2611 30.8154 18.3387C30.9817 18.4163 31.1829 18.3926 31.4187 18.2676C31.6488 18.1457 31.7785 17.9941 31.8077 17.8129C31.8369 17.6316 31.8066 17.4561 31.7166 17.2864Z" fill="white"/>
<path d="M44.9709 18.6089L47.1436 14.6017L48.0498 14.5408L48.404 19.8121L47.4978 19.873L47.2395 16.0292L45.0668 20.0364L44.1704 20.0966L43.8162 14.8253L44.7126 14.7651L44.9709 18.6089Z" fill="white"/>
<path d="M59.4373 18.695L58.5222 18.3684L58.7093 17.8442L59.5554 18.1462C59.7915 18.2304 59.9889 18.268 60.1477 18.259C60.3075 18.2469 60.4357 18.1976 60.5322 18.1111C60.6288 18.0246 60.7028 17.9093 60.7542 17.7652C60.8002 17.6364 60.8097 17.5033 60.7827 17.3658C60.7599 17.2263 60.689 17.0956 60.5701 16.9737C60.4523 16.8487 60.2722 16.7429 60.03 16.6565C59.8338 16.5865 59.6434 16.5583 59.4588 16.5719C59.2753 16.5825 59.1147 16.6306 58.977 16.7162C58.8435 16.7999 58.7504 16.9153 58.6979 17.0625L57.8472 16.7588C57.9555 16.4553 58.1343 16.2254 58.3837 16.069C58.6372 15.9106 58.9294 15.823 59.2603 15.8063C59.5942 15.7907 59.9329 15.8442 60.2762 15.9667C60.5644 16.0696 60.8105 16.1937 61.0143 16.339C61.2224 16.4824 61.3843 16.6438 61.4999 16.8234C61.6167 16.9998 61.6841 17.1933 61.7024 17.4037C61.7247 17.6121 61.6938 17.8344 61.6096 18.0705C61.5494 18.2391 61.4526 18.3843 61.3193 18.5061C61.186 18.6278 61.0234 18.7202 60.8316 18.7831C60.6409 18.8429 60.4268 18.8667 60.1892 18.8545C59.9547 18.8434 59.704 18.7902 59.4373 18.695ZM58.6371 18.0465L59.5522 18.3731C59.8496 18.4793 60.1013 18.6019 60.3074 18.7411C60.5146 18.8773 60.6751 19.0279 60.789 19.193C60.9029 19.3581 60.9692 19.5355 60.9878 19.7254C61.0107 19.9132 60.9849 20.1114 60.9105 20.3199C60.8273 20.5529 60.7048 20.7459 60.5431 20.899C60.3854 21.0502 60.1978 21.1595 59.9802 21.227C59.7625 21.2944 59.5221 21.3192 59.2589 21.3013C58.9988 21.2845 58.7246 21.2247 58.4364 21.1219C58.1145 21.007 57.8215 20.8402 57.5574 20.6215C57.2932 20.4028 57.1041 20.1435 56.9899 19.8435C56.8769 19.5405 56.8844 19.2096 57.0124 18.8509L57.8631 19.1546C57.8095 19.3048 57.8062 19.4643 57.8531 19.6331C57.9 19.8019 57.993 19.9578 58.132 20.1008C58.2742 20.2448 58.4571 20.3568 58.681 20.4367C58.9201 20.522 59.1325 20.5563 59.3182 20.5397C59.5039 20.523 59.6584 20.4675 59.7819 20.3733C59.9085 20.2803 59.9974 20.1617 60.0489 20.0176C60.1156 19.8306 60.1324 19.6672 60.0993 19.5275C60.0662 19.3878 59.9823 19.2646 59.8477 19.1577C59.7171 19.0489 59.5338 18.9524 59.2978 18.8682L58.4516 18.5662L58.6371 18.0465Z" fill="white"/>
<path d="M66.6979 23.9042L68.2041 21.6396C68.3195 21.4662 68.3843 21.2923 68.3986 21.118C68.4173 20.9429 68.381 20.7741 68.2897 20.6117C68.1983 20.4493 68.051 20.3005 67.8477 20.1652C67.658 20.0391 67.4697 19.9607 67.2827 19.9302C67.0985 19.9015 66.9306 19.913 66.779 19.9646C66.6301 20.018 66.5151 20.1057 66.4339 20.2277L65.6818 19.7274C65.7864 19.5702 65.9307 19.4414 66.1147 19.341C66.2988 19.2406 66.5082 19.1785 66.7429 19.1548C66.9821 19.1302 67.2331 19.1525 67.4959 19.2217C67.7633 19.29 68.0297 19.4125 68.2953 19.5892C68.6152 19.8019 68.861 20.0436 69.0328 20.3143C69.2074 20.5868 69.2908 20.8787 69.283 21.1902C69.2797 21.5008 69.169 21.8201 68.9509 22.148L67.588 24.1971C67.4906 24.3435 67.3992 24.5075 67.3136 24.689C67.2307 24.8724 67.1754 25.0408 67.1476 25.1943L67.1043 25.2594L66.3196 24.7375C66.3394 24.6255 66.3862 24.4905 66.46 24.3324C66.5357 24.1716 66.615 24.0289 66.6979 23.9042ZM68.1017 22.0758L67.7583 22.6098L66.998 22.1041C66.7839 21.9617 66.5811 21.8522 66.3896 21.7757C66.1999 21.6964 66.0256 21.6528 65.8667 21.6449C65.7078 21.6369 65.5643 21.6646 65.4361 21.7279C65.3098 21.7886 65.2016 21.8866 65.1114 22.0222C65.0195 22.1604 64.9668 22.3072 64.9534 22.4625C64.9401 22.6178 64.9732 22.7708 65.0528 22.9214C65.1369 23.0712 65.2711 23.2074 65.4555 23.33C65.6858 23.4832 65.9216 23.5696 66.1627 23.5892C66.4037 23.6089 66.6226 23.5824 66.8194 23.51C67.0188 23.4394 67.1668 23.3403 67.2633 23.2129L67.3438 23.7884C67.2491 23.8896 67.1138 23.9814 66.9378 24.0638C66.7618 24.1461 66.561 24.2041 66.3353 24.2377C66.1142 24.2705 65.8794 24.2649 65.6311 24.2209C65.3873 24.176 65.1461 24.0743 64.9076 23.9156C64.6095 23.7173 64.3867 23.4851 64.2392 23.2189C64.0945 22.9545 64.0247 22.6833 64.0298 22.4052C64.0394 22.1262 64.1254 21.8648 64.2876 21.6208C64.4444 21.385 64.6284 21.2083 64.8396 21.0907C65.0525 20.9704 65.2854 20.9083 65.5382 20.9044C65.7928 20.8979 66.0627 20.9445 66.3482 21.0444C66.6336 21.1443 66.9267 21.2943 67.2275 21.4944L68.1017 22.0758Z" fill="white"/>
<path d="M73.3569 24.7704L68.7154 29.0284L68.1014 28.3592L73.4914 23.4145L74.0525 24.0262L73.3569 24.7704ZM74.5975 28.4628L74.5219 28.5322C74.2388 28.7918 73.9454 28.9992 73.6415 29.1543C73.34 29.3072 73.0411 29.4003 72.7447 29.4336C72.4506 29.4693 72.1685 29.4387 71.8986 29.3418C71.6286 29.245 71.3824 29.0754 71.1602 28.8331C70.9335 28.586 70.7741 28.3304 70.6818 28.066C70.5895 27.8017 70.5608 27.5321 70.5957 27.2571C70.6306 26.9821 70.7208 26.705 70.8665 26.4255C71.0144 26.1485 71.2118 25.8702 71.4589 25.5906L71.8619 25.2209C72.1761 24.9856 72.4835 24.803 72.784 24.6731C73.0845 24.5432 73.3745 24.4693 73.6541 24.4514C73.9382 24.4337 74.2081 24.4799 74.4637 24.59C74.7217 24.6978 74.9629 24.8741 75.1874 25.1188C75.4118 25.3635 75.563 25.6246 75.6409 25.9021C75.7212 26.1774 75.7332 26.4601 75.6769 26.7503C75.6206 27.0405 75.4999 27.3302 75.3146 27.6194C75.1339 27.9088 74.8949 28.19 74.5975 28.4628ZM73.9079 27.8629L73.9835 27.7936C74.1778 27.6154 74.3414 27.4277 74.4743 27.2307C74.6096 27.0315 74.7024 26.8293 74.7527 26.6241C74.8076 26.4191 74.8117 26.2165 74.7651 26.0164C74.7208 25.8141 74.615 25.6217 74.4478 25.4394C74.2938 25.2715 74.1307 25.1516 73.9587 25.0797C73.789 25.0102 73.6153 24.9773 73.4377 24.9812C73.2625 24.9829 73.0873 25.0133 72.9119 25.0726C72.7412 25.132 72.5777 25.2091 72.4216 25.3037L71.4897 26.1586C71.3658 26.3607 71.2691 26.5731 71.1996 26.7959C71.1325 27.0164 71.1194 27.2405 71.1603 27.4681C71.2035 27.6934 71.3253 27.9152 71.5256 28.1335C71.6906 28.3134 71.8697 28.434 72.0629 28.4953C72.2607 28.5568 72.4641 28.5691 72.673 28.532C72.8842 28.4973 73.0936 28.4222 73.3013 28.3068C73.5114 28.1891 73.7136 28.0412 73.9079 27.8629Z" fill="white"/>
<path d="M76.6851 34.5504L79.0648 33.2335C79.247 33.1326 79.3846 33.0081 79.4775 32.86C79.5748 32.7131 79.6203 32.5466 79.614 32.3604C79.6077 32.1741 79.5454 31.9742 79.4272 31.7606C79.3168 31.5612 79.1857 31.405 79.0338 31.2918C78.8835 31.1815 78.7292 31.1144 78.5708 31.0904C78.414 31.0693 78.2716 31.0942 78.1434 31.1651L77.706 30.3748C77.8712 30.2834 78.0586 30.2354 78.2683 30.2311C78.4779 30.2267 78.6923 30.268 78.9116 30.355C79.1353 30.4432 79.3479 30.5786 79.5493 30.761C79.7551 30.9448 79.9353 31.1762 80.0898 31.4553C80.2757 31.7914 80.3827 32.1191 80.4106 32.4385C80.4401 32.7607 80.3797 33.0583 80.2294 33.3312C80.0835 33.6054 79.8382 33.8379 79.4936 34.0286L77.3404 35.2202C77.1865 35.3053 77.0299 35.4087 76.8703 35.5305C76.7123 35.6551 76.5857 35.7792 76.4903 35.9026L76.4219 35.9405L75.9656 35.1159C76.0347 35.0256 76.1384 34.9273 76.2768 34.821C76.418 34.7131 76.5541 34.6229 76.6851 34.5504ZM78.773 33.5735L78.2223 33.8894L77.7802 33.0905C77.6557 32.8655 77.5261 32.6749 77.3913 32.5189C77.2594 32.3612 77.1248 32.2422 76.9874 32.162C76.85 32.0818 76.7098 32.0403 76.5669 32.0375C76.4269 32.0332 76.2856 32.0704 76.1432 32.1492C75.998 32.2296 75.8836 32.3356 75.8003 32.4674C75.7169 32.5991 75.6759 32.7501 75.6772 32.9205C75.6829 33.0922 75.7393 33.2749 75.8465 33.4686C75.9805 33.7107 76.1499 33.8959 76.3549 34.0243C76.5599 34.1527 76.7664 34.2301 76.9744 34.2563C77.184 34.2854 77.3609 34.2657 77.5052 34.197L77.3117 34.7449C77.1811 34.7912 77.0187 34.8103 76.8246 34.8024C76.6305 34.7945 76.4255 34.7535 76.2097 34.6795C75.9983 34.6068 75.7925 34.4937 75.5923 34.3403C75.3965 34.1882 75.2293 33.9869 75.0906 33.7362C74.9172 33.4229 74.8263 33.1142 74.818 32.81C74.8112 32.5087 74.8741 32.2358 75.0067 31.9913C75.1437 31.7481 75.3403 31.5555 75.5967 31.4137C75.8445 31.2766 76.0891 31.2044 76.3307 31.1972C76.5751 31.1885 76.8104 31.2405 77.0366 31.3535C77.2657 31.4648 77.4839 31.6306 77.6912 31.8506C77.8986 32.0707 78.0897 32.3388 78.2647 32.655L78.773 33.5735Z" fill="white"/>
<path d="M86.0869 39.9917L86.2809 40.7081C85.9729 40.7915 85.7151 40.8107 85.5073 40.7658C85.3027 40.72 85.1296 40.6286 84.9879 40.4916C84.8471 40.3577 84.724 40.1955 84.6184 40.0048C84.5137 39.8174 84.4084 39.6216 84.3026 39.4176C84.1728 39.1627 84.0152 38.9355 83.8297 38.7362C83.6482 38.5392 83.425 38.3872 83.1599 38.2802C82.8957 38.1763 82.5771 38.1328 82.2039 38.1495C81.8316 38.1694 81.3908 38.2668 80.8818 38.4417L80.4482 38.5591L80.2542 37.8427L80.6878 37.7253C81.2691 37.568 81.7914 37.4855 82.2548 37.4781C82.719 37.4738 83.128 37.5334 83.4818 37.6568C83.8356 37.7802 84.1384 37.9579 84.39 38.1899C84.6426 38.4251 84.8477 38.7034 85.0056 39.0249C85.1191 39.2572 85.2264 39.4541 85.3274 39.6156C85.4316 39.7762 85.5432 39.8893 85.6621 39.9549C85.7819 40.0237 85.9235 40.0359 86.0869 39.9917ZM83.2953 39.6397C83.3855 39.9728 83.4078 40.2854 83.3621 40.5777C83.3165 40.87 83.2147 41.1353 83.0566 41.3737C82.8986 41.6121 82.6909 41.8167 82.4337 41.9875C82.1804 42.1606 81.8888 42.2918 81.5589 42.3812L81.4552 42.4093C81.1002 42.5054 80.7562 42.5429 80.4233 42.5217C80.0945 42.5028 79.7901 42.425 79.5103 42.2883C79.2345 42.1539 78.9954 41.9624 78.7932 41.7136C78.5918 41.468 78.4426 41.1661 78.3456 40.8079C78.2486 40.4497 78.2247 40.1122 78.2738 39.7954C78.3238 39.4817 78.4335 39.1957 78.603 38.9373C78.7756 38.6781 78.9987 38.4558 79.2723 38.2705C79.5498 38.0874 79.8661 37.9478 80.2212 37.8517L80.3249 37.8236C80.4034 37.8023 80.4842 37.7956 80.5673 37.8035C80.6504 37.8114 80.7367 37.8251 80.8263 37.8447C80.9168 37.8674 81.0107 37.8841 81.108 37.8948C81.4223 37.9345 81.7276 38.0222 82.024 38.1578C82.3212 38.2965 82.582 38.4872 82.8062 38.73C83.0345 38.9751 83.1975 39.2784 83.2953 39.6397ZM82.5377 39.6627C82.4509 39.3422 82.3056 39.0983 82.1018 38.9309C81.8988 38.7666 81.6612 38.6674 81.3889 38.6332C81.1197 38.5982 80.8438 38.619 80.561 38.6955L80.4573 38.7236C80.2185 38.7883 79.9999 38.8778 79.8016 38.9922C79.6032 39.1066 79.4361 39.2429 79.3002 39.4011C79.1683 39.5616 79.079 39.7426 79.0324 39.9441C78.9866 40.1487 78.9965 40.372 79.062 40.6139C79.1275 40.8559 79.2312 41.052 79.3731 41.2025C79.515 41.3529 79.683 41.4626 79.877 41.5314C80.0741 41.5995 80.2872 41.6328 80.5162 41.6315C80.7452 41.6302 80.979 41.5973 81.2178 41.5326L81.3215 41.5045C81.5352 41.4467 81.7302 41.3635 81.9066 41.2551C82.0829 41.1466 82.2292 41.0143 82.3454 40.858C82.4624 40.7049 82.5391 40.5274 82.5755 40.3253C82.6158 40.1255 82.6032 39.9047 82.5377 39.6627Z" fill="white"/>
<path d="M80.6884 48.6216L83.4073 48.5521C83.6155 48.5467 83.7951 48.4998 83.9458 48.4113C84.1 48.326 84.2172 48.1992 84.2976 48.0311C84.3779 47.863 84.415 47.6569 84.4087 47.4128C84.4029 47.185 84.3588 46.9859 84.2762 46.8154C84.1938 46.6482 84.0879 46.5174 83.9585 46.423C83.8292 46.3319 83.6913 46.2882 83.5448 46.292L83.5218 45.3889C83.7105 45.3841 83.8989 45.4281 84.0868 45.521C84.2748 45.6139 84.446 45.7495 84.6003 45.9279C84.758 46.1095 84.8841 46.3277 84.9785 46.5825C85.0763 46.8405 85.1293 47.129 85.1374 47.4479C85.1472 47.8319 85.0908 48.172 84.9681 48.4682C84.8455 48.7676 84.6546 49.0037 84.3952 49.1764C84.1392 49.3523 83.8144 49.4453 83.4206 49.4553L80.9605 49.5183C80.7848 49.5228 80.598 49.5422 80.4003 49.5766C80.2026 49.6142 80.033 49.6657 79.8914 49.7312L79.8133 49.7332L79.7892 48.7911C79.8921 48.7429 80.0295 48.7036 80.2013 48.6731C80.3764 48.6426 80.5387 48.6254 80.6884 48.6216ZM82.9915 48.719L82.3572 48.745L82.3338 47.8322C82.3273 47.5751 82.3002 47.3463 82.2528 47.1456C82.2086 46.9448 82.144 46.7771 82.0592 46.6426C81.9743 46.508 81.8692 46.4064 81.7437 46.338C81.6214 46.2695 81.479 46.2373 81.3163 46.2415C81.1503 46.2457 80.9999 46.287 80.8652 46.3654C80.7304 46.4437 80.6243 46.5588 80.5468 46.7105C80.4726 46.8655 80.4383 47.0536 80.444 47.2749C80.451 47.5515 80.5159 47.794 80.6384 48.0026C80.761 48.2111 80.9084 48.375 81.0808 48.4943C81.2533 48.6169 81.4194 48.6811 81.5791 48.6867L81.1545 49.0835C81.0172 49.0642 80.8643 49.0062 80.6958 48.9096C80.5273 48.813 80.3644 48.682 80.2071 48.5167C80.0531 48.3546 79.9228 48.1593 79.816 47.9308C79.7125 47.7055 79.6572 47.4497 79.6498 47.1633C79.6407 46.8054 79.7026 46.4895 79.8356 46.2159C79.9687 45.9454 80.1505 45.7324 80.381 45.5767C80.6148 45.4242 80.8781 45.3442 81.171 45.3367C81.4541 45.3295 81.7045 45.3784 81.9221 45.4836C82.1429 45.5886 82.3276 45.7435 82.4761 45.9481C82.6279 46.1526 82.7449 46.4003 82.8273 46.6913C82.9096 46.9822 82.9554 47.3083 82.9646 47.6695L82.9915 48.719Z" fill="white"/>
<path d="M84.5589 55.9007L79.3852 54.8308L79.5691 53.9414L84.7428 55.0113L84.5589 55.9007ZM84.2 57.6364L83.4827 57.4881L84.3776 53.1607L85.0949 53.309L84.2 57.6364Z" fill="white"/>
<path d="M81.2923 61.6766L80.5745 63.0919C80.3817 63.4723 80.1522 63.7592 79.8861 63.9528C79.623 64.1478 79.3414 64.2532 79.0414 64.2689C78.7429 64.2891 78.447 64.2248 78.1537 64.076C77.936 63.9656 77.7505 63.8241 77.5972 63.6514C77.4467 63.4802 77.3387 63.2831 77.273 63.06C77.2058 62.8397 77.1875 62.5987 77.2182 62.3368C77.2502 62.0793 77.3384 61.8083 77.4827 61.5238L78.4986 59.5206L83.2105 61.9104L82.8019 62.716L78.752 60.662L78.1446 61.8595C78.0268 62.0918 77.9747 62.2989 77.9882 62.481C78.0017 62.6631 78.0598 62.8184 78.1624 62.9471C78.265 63.0758 78.3889 63.177 78.5341 63.2506C78.6763 63.3227 78.8311 63.3629 78.9985 63.3712C79.1659 63.3794 79.3299 63.3367 79.4906 63.243C79.6541 63.1507 79.7948 62.9885 79.9126 62.7562L80.6304 61.3409L81.2923 61.6766ZM80.4519 67.3494L75.7401 64.9597L76.1487 64.1541L80.8605 66.5438L80.4519 67.3494Z" fill="white"/>
<path d="M74.3262 70.8567L75.495 69.5767L76.0352 70.0567L75.0804 71.1024C74.8916 71.3091 74.7551 71.4997 74.6709 71.674C74.5844 71.8507 74.5502 72.0113 74.5683 72.1556C74.5864 72.2999 74.6555 72.427 74.7757 72.5367C74.8695 72.6223 74.9699 72.6765 75.0769 72.6993C75.1841 72.7267 75.2968 72.7216 75.4149 72.684C75.5354 72.6486 75.6603 72.5818 75.7894 72.4838C75.9188 72.3904 76.0549 72.2655 76.1976 72.1093L76.9779 71.2547L73.6173 68.1861L74.2264 67.519L78.1278 71.0815L76.7384 72.6031C76.5123 72.8507 76.2877 73.0533 76.0644 73.2109C75.839 73.3709 75.6181 73.4801 75.4018 73.5383C75.1858 73.6011 74.9765 73.6083 74.7738 73.5599C74.5711 73.5115 74.3785 73.4039 74.1958 73.237C74.078 73.1295 73.9882 73.0034 73.9263 72.8587C73.8644 72.7141 73.8354 72.5575 73.8393 72.3892C73.8432 72.2208 73.8812 72.0439 73.9535 71.8586C74.0281 71.6755 74.1394 71.4884 74.2874 71.2974L74.3262 70.8567ZM72.6098 69.2895L73.9993 67.7678L74.2372 68.5934L73.1507 69.7833C72.9817 69.9684 72.864 70.1431 72.7978 70.3074C72.7339 70.4739 72.7178 70.6267 72.7494 70.7658C72.7813 70.9096 72.8586 71.0374 72.9811 71.1493C73.1037 71.2613 73.2368 71.3255 73.3805 71.342C73.5243 71.3632 73.675 71.3333 73.8326 71.2524C73.9926 71.1737 74.1571 71.0418 74.3262 70.8567L75.2513 69.8435L75.7784 70.338L74.6227 71.6036L74.2002 71.6608C73.988 71.8594 73.7694 71.9926 73.5444 72.0604C73.3194 72.1282 73.1032 72.138 72.896 72.0898C72.6911 72.0438 72.5094 71.9484 72.3507 71.8035C72.168 71.6367 72.0388 71.4548 71.963 71.2578C71.8851 71.0632 71.8585 70.8581 71.8833 70.6427C71.9104 70.4295 71.9845 70.2084 72.1054 69.9794C72.2288 69.7526 72.3969 69.5226 72.6098 69.2895Z" fill="white"/>
<path d="M67.3537 75.205L68.8728 77.4609C68.9892 77.6337 69.1252 77.7599 69.2809 77.8396C69.4356 77.9237 69.6055 77.9545 69.7905 77.932C69.9755 77.9095 70.1692 77.83 70.3717 77.6936C70.5607 77.5664 70.705 77.4221 70.8044 77.261C70.9012 77.1016 70.9546 76.942 70.9647 76.7822C70.9721 76.6241 70.9349 76.4844 70.8531 76.3629L71.6023 75.8583C71.7078 76.0149 71.7718 76.1974 71.7945 76.4059C71.8171 76.6143 71.7946 76.8316 71.7271 77.0576C71.6586 77.2881 71.5423 77.5117 71.3781 77.7282C71.213 77.9493 70.9981 78.1489 70.7335 78.3271C70.4149 78.5417 70.0978 78.6767 69.782 78.7324C69.4636 78.7898 69.1619 78.7556 68.8769 78.6296C68.591 78.5082 68.3381 78.2841 68.1181 77.9574L66.7435 75.9161C66.6453 75.7703 66.5286 75.6232 66.3934 75.4749C66.2555 75.3284 66.1209 75.213 65.9896 75.1287L65.9459 75.0639L66.7276 74.5375C66.8236 74.5985 66.9306 74.6932 67.0485 74.8218C67.1683 74.9531 67.27 75.0808 67.3537 75.205ZM68.5087 77.1999L68.146 76.6788L68.9034 76.1688C69.1167 76.0252 69.2952 75.8794 69.439 75.7316C69.5846 75.5865 69.6913 75.442 69.7593 75.2981C69.8272 75.1542 69.8564 75.011 69.8467 74.8684C69.8388 74.7285 69.7894 74.591 69.6985 74.456C69.6058 74.3183 69.4902 74.2137 69.3517 74.1421C69.2132 74.0705 69.0592 74.0428 68.8895 74.0589C68.719 74.0796 68.5419 74.1517 68.3583 74.2754C68.1288 74.4299 67.959 74.6149 67.8489 74.8303C67.7389 75.0457 67.6798 75.2581 67.6718 75.4676C67.661 75.6789 67.6962 75.8534 67.7772 75.9912L67.2145 75.8462C67.157 75.7201 67.1237 75.56 67.1147 75.3659C67.1057 75.1718 67.1286 74.9641 67.1836 74.7426C67.2377 74.5257 67.3324 74.3108 67.4677 74.098C67.6022 73.8898 67.7882 73.7056 68.0258 73.5456C68.3228 73.3456 68.6225 73.2282 68.9247 73.1934C69.2243 73.1604 69.5017 73.1993 69.7568 73.31C70.011 73.4253 70.22 73.6045 70.3836 73.8475C70.5418 74.0824 70.635 74.3198 70.6632 74.5599C70.6932 74.8026 70.6618 75.0415 70.569 75.2767C70.478 75.5146 70.332 75.7464 70.1308 75.9721C69.9296 76.1979 69.6791 76.4117 69.3794 76.6135L68.5087 77.1999Z" fill="white"/>
<path d="M62.8951 78.4741L61.8895 82.9202L61.0337 83.2243L59.2644 78.2462L60.1201 77.9421L61.4104 81.5721L62.4159 77.1261L63.2625 76.8252L65.0319 81.8033L64.1853 82.1042L62.8951 78.4741ZM62.9952 84.5585L62.3051 84.8038C62.22 84.5646 62.1995 84.3318 62.2434 84.1054C62.2884 83.8822 62.3951 83.6819 62.5636 83.5045C62.732 83.3272 62.9573 83.1884 63.2395 83.0881C63.6659 82.9366 64.0436 82.9301 64.3727 83.0688C64.6998 83.2116 64.9277 83.464 65.0564 83.8259L64.3663 84.0712C64.3019 83.8903 64.1931 83.7493 64.0398 83.6483C63.8864 83.5474 63.684 83.5416 63.4325 83.631C63.1871 83.7182 63.0368 83.8494 62.9816 84.0244C62.9263 84.1995 62.9309 84.3776 62.9952 84.5585Z" fill="white"/>
<path d="M54.5714 51.875C53.764 51.875 53.0219 52.1652 52.4361 52.6504L48.7759 50.2734C48.8843 49.7639 48.8843 49.236 48.7759 48.7266L52.4361 46.3496C53.0219 46.8348 53.764 47.125 54.5714 47.125C56.465 47.125 58 45.53 58 43.5625C58 41.595 56.465 40 54.5714 40C52.6779 40 51.1429 41.595 51.1429 43.5625C51.1429 43.8281 51.1711 44.0869 51.2241 44.3359L47.5639 46.7129C46.9781 46.2277 46.236 45.9375 45.4286 45.9375C43.535 45.9375 42 47.5325 42 49.5C42 51.4675 43.535 53.0625 45.4286 53.0625C46.236 53.0625 46.9781 52.7723 47.5639 52.2871L51.2241 54.6641C51.17 54.9181 51.1428 55.1774 51.1429 55.4375C51.1429 57.405 52.6779 59 54.5714 59C56.465 59 58 57.405 58 55.4375C58 53.47 56.465 51.875 54.5714 51.875Z" fill="white"/>
<defs>
<linearGradient id="paint0_linear_1_405" x1="92.625" y1="49.3125" x2="6" y2="49.3125" gradientUnits="userSpaceOnUse">
<stop stop-color="#CB11AB"/>
<stop offset="1" stop-color="#481173"/>
</linearGradient>
</defs>
</svg>
