<svg width="40" height="40" viewBox="0 0 40 40" fill="none" xmlns="http://www.w3.org/2000/svg">
<path d="M17.3235 37.0848C19.2553 37.405 21.2281 37.405 23.1599 37.0848" stroke="#BB2FA6" stroke-width="4"/>
<path d="M17.3235 2.91619C19.2553 2.59597 21.2281 2.59597 23.1599 2.91619" stroke="#BB2FA6" stroke-width="4"/>
<path d="M37.5885 17.1267C37.9126 19.0294 37.9115 20.9721 37.5853 22.8744" stroke="#B6B6B6" stroke-width="4"/>
<path d="M2.89444 17.1267C2.57039 19.0294 2.57149 20.9721 2.89772 22.8744" stroke="#BB2FA6" stroke-width="4"/>
<path d="M30.5593 5.97012C32.1453 7.10255 33.528 8.48832 34.6502 10.0697" stroke="#B6B6B6" stroke-width="4"/>
<path d="M5.82687 29.9325C6.95066 31.5127 8.33497 32.897 9.9221 34.0278" stroke="#BB2FA6" stroke-width="4"/>
<path d="M34.4854 30.1631C33.3355 31.7251 31.9284 33.0869 30.3228 34.192" stroke="#B6B6B6" stroke-width="4"/>
<path d="M10.1538 5.80588C8.54929 6.91265 7.14375 8.27598 5.99549 9.83907" stroke="#BB2FA6" stroke-width="4"/>
<path d="M35.1655 10.8072C36.2043 12.4429 36.9584 14.2382 37.3963 16.1187" stroke="#B6B6B6" stroke-width="4"/>
<path d="M3.11143 23.8825C3.55122 25.7625 4.30699 27.5572 5.34745 29.1918" stroke="#BB2FA6" stroke-width="4"/>
<path d="M29.5888 34.6845C27.9279 35.7076 26.105 36.45 24.1956 36.8813" stroke="#B6B6B6" stroke-width="4"/>
<path d="M16.3122 3.11626C14.4032 3.54938 12.5811 4.29383 10.9213 5.31852" stroke="#BB2FA6" stroke-width="4"/>
<path d="M24.1989 3.1251C26.1069 3.56225 27.9274 4.31055 29.585 5.33875" stroke="#BB2FA6" stroke-width="4"/>
<path d="M10.8535 34.6654C12.5121 35.692 14.3335 36.4383 16.2419 36.8736" stroke="#BB2FA6" stroke-width="4"/>
<path d="M37.3547 23.9192C36.9108 25.7983 36.151 27.5913 35.107 29.2237" stroke="#B6B6B6" stroke-width="4"/>
<path d="M5.32864 10.7762C4.28628 12.4096 3.5283 14.2034 3.08633 16.0829" stroke="#BB2FA6" stroke-width="4"/>
<path d="M33.2365 19.7539C33.2365 26.9331 27.3282 32.7514 20.0411 32.7514C12.7521 32.7514 6.84503 26.9331 6.84503 19.7539C6.84503 12.5765 12.7521 6.75757 20.0411 6.75757C27.3282 6.75757 33.2365 12.5765 33.2365 19.7539Z" fill="url(#paint0_linear_63_317)"/>
<path d="M21.7846 14.5068H21.9604V15.6611H21.8608C21.3569 15.6611 20.9213 15.7393 20.5541 15.8955C20.1909 16.0518 19.892 16.2666 19.6577 16.54C19.4233 16.8135 19.2475 17.1338 19.1303 17.501C19.017 17.8643 18.9604 18.251 18.9604 18.6611V20.0029C18.9604 20.3428 18.9975 20.6436 19.0717 20.9053C19.1459 21.1631 19.2495 21.3799 19.3823 21.5557C19.519 21.7275 19.6752 21.8584 19.851 21.9482C20.0268 22.0381 20.2162 22.083 20.4194 22.083C20.6303 22.083 20.8217 22.04 20.9936 21.9541C21.1655 21.8643 21.312 21.7412 21.433 21.585C21.5541 21.4287 21.6459 21.2432 21.7084 21.0283C21.7709 20.8135 21.8022 20.5791 21.8022 20.3252C21.8022 20.083 21.7709 19.8564 21.7084 19.6455C21.6498 19.4307 21.562 19.2432 21.4448 19.083C21.3276 18.9189 21.1811 18.792 21.0053 18.7021C20.8334 18.6084 20.6342 18.5615 20.4077 18.5615C20.1264 18.5615 19.8705 18.6279 19.6401 18.7607C19.4135 18.8936 19.2299 19.0674 19.0893 19.2822C18.9526 19.4932 18.8784 19.7178 18.8666 19.9561L18.3276 19.7803C18.3588 19.417 18.4389 19.0908 18.5678 18.8018C18.7006 18.5127 18.8745 18.2666 19.0893 18.0635C19.3041 17.8604 19.5522 17.7061 19.8334 17.6006C20.1186 17.4912 20.4311 17.4365 20.7709 17.4365C21.185 17.4365 21.5444 17.5146 21.8491 17.6709C22.1537 17.8271 22.4057 18.04 22.6049 18.3096C22.808 18.5752 22.9584 18.8799 23.0561 19.2236C23.1577 19.5635 23.2084 19.9189 23.2084 20.29C23.2084 20.7002 23.1459 21.083 23.0209 21.4385C22.8959 21.79 22.7123 22.0986 22.4702 22.3643C22.2319 22.6299 21.9409 22.8369 21.5971 22.9854C21.2573 23.1338 20.8705 23.208 20.437 23.208C19.9799 23.208 19.5717 23.1201 19.2123 22.9443C18.8569 22.7686 18.5541 22.5264 18.3041 22.2178C18.058 21.9092 17.8705 21.5537 17.7416 21.1514C17.6127 20.749 17.5483 20.3232 17.5483 19.874V19.2881C17.5483 18.6396 17.6303 18.0283 17.7944 17.4541C17.9584 16.876 18.2104 16.3662 18.5502 15.9248C18.894 15.4834 19.3334 15.1377 19.8686 14.8877C20.4037 14.6338 21.0424 14.5068 21.7846 14.5068Z" fill="white"/>
<defs>
<linearGradient id="paint0_linear_63_317" x1="33.2365" y1="19.7545" x2="6.84503" y2="19.7545" gradientUnits="userSpaceOnUse">
<stop stop-color="#CB11AB"/>
<stop offset="1" stop-color="#481173"/>
</linearGradient>
</defs>
</svg>
