<svg width="40" height="40" viewBox="0 0 40 40" fill="none" xmlns="http://www.w3.org/2000/svg">
<path d="M17.3235 37.0848C19.2553 37.405 21.2281 37.405 23.1599 37.0848" stroke="#BB2FA6" stroke-width="4"/>
<path d="M17.3235 2.91619C19.2553 2.59597 21.2281 2.59597 23.1599 2.91619" stroke="#B6B6B6" stroke-width="4"/>
<path d="M37.5885 17.1267C37.9126 19.0294 37.9115 20.9721 37.5853 22.8744" stroke="#B6B6B6" stroke-width="4"/>
<path d="M2.89444 17.1267C2.57039 19.0294 2.57149 20.9721 2.89772 22.8744" stroke="#B6B6B6" stroke-width="4"/>
<path d="M30.5593 5.97012C32.1453 7.10255 33.528 8.48832 34.6502 10.0697" stroke="#B6B6B6" stroke-width="4"/>
<path d="M5.82687 29.9325C6.95066 31.5127 8.33497 32.897 9.9221 34.0278" stroke="#B6B6B6" stroke-width="4"/>
<path d="M34.4854 30.1631C33.3355 31.7251 31.9284 33.0869 30.3228 34.192" stroke="#B6B6B6" stroke-width="4"/>
<path d="M10.1538 5.80588C8.54929 6.91265 7.14375 8.27598 5.99549 9.83907" stroke="#B6B6B6" stroke-width="4"/>
<path d="M35.1655 10.8072C36.2043 12.4429 36.9584 14.2382 37.3963 16.1187" stroke="#B6B6B6" stroke-width="4"/>
<path d="M3.11143 23.8825C3.55122 25.7625 4.30699 27.5572 5.34745 29.1918" stroke="#B6B6B6" stroke-width="4"/>
<path d="M29.5888 34.6845C27.9279 35.7076 26.105 36.45 24.1956 36.8813" stroke="#B6B6B6" stroke-width="4"/>
<path d="M16.3122 3.11626C14.4032 3.54938 12.5811 4.29383 10.9213 5.31852" stroke="#B6B6B6" stroke-width="4"/>
<path d="M24.1989 3.1251C26.1069 3.56225 27.9274 4.31055 29.585 5.33875" stroke="#B6B6B6" stroke-width="4"/>
<path d="M10.8535 34.6654C12.5121 35.692 14.3335 36.4383 16.2419 36.8736" stroke="#BB2FA6" stroke-width="4"/>
<path d="M37.3547 23.9192C36.9108 25.7983 36.151 27.5913 35.107 29.2237" stroke="#B6B6B6" stroke-width="4"/>
<path d="M5.32864 10.7762C4.28628 12.4096 3.5283 14.2034 3.08633 16.0829" stroke="#B6B6B6" stroke-width="4"/>
<path d="M33.2365 19.7539C33.2365 26.9331 27.3282 32.7514 20.0411 32.7514C12.7521 32.7514 6.84503 26.9331 6.84503 19.7539C6.84503 12.5765 12.7521 6.75757 20.0411 6.75757C27.3282 6.75757 33.2365 12.5765 33.2365 19.7539Z" fill="url(#paint0_linear_63_136)"/>
<path d="M23.2377 21.9658V23.0908H17.519V22.124L20.2963 19.0947C20.601 18.751 20.8412 18.4541 21.017 18.2041C21.1928 17.9541 21.3159 17.7295 21.3862 17.5303C21.4604 17.3271 21.4975 17.1299 21.4975 16.9385C21.4975 16.6689 21.4467 16.4326 21.3452 16.2295C21.2475 16.0225 21.103 15.8604 20.9116 15.7432C20.7202 15.6221 20.4877 15.5615 20.2143 15.5615C19.8979 15.5615 19.6323 15.6299 19.4174 15.7666C19.2026 15.9033 19.0405 16.0928 18.9311 16.335C18.8217 16.5732 18.767 16.8467 18.767 17.1553H17.3549C17.3549 16.6592 17.4682 16.2061 17.6948 15.7959C17.9213 15.3818 18.2495 15.0537 18.6791 14.8115C19.1088 14.5654 19.6264 14.4424 20.2319 14.4424C20.8022 14.4424 21.2866 14.5381 21.685 14.7295C22.0834 14.9209 22.3862 15.1924 22.5932 15.5439C22.8041 15.8955 22.9096 16.3115 22.9096 16.792C22.9096 17.0576 22.8666 17.3213 22.7807 17.583C22.6948 17.8447 22.5717 18.1064 22.4116 18.3682C22.2553 18.626 22.0698 18.8857 21.8549 19.1475C21.6401 19.4053 21.4037 19.667 21.1459 19.9326L19.3002 21.9658H23.2377Z" fill="white"/>
<defs>
<linearGradient id="paint0_linear_63_136" x1="33.2365" y1="19.7545" x2="6.84503" y2="19.7545" gradientUnits="userSpaceOnUse">
<stop stop-color="#CB11AB"/>
<stop offset="1" stop-color="#481173"/>
</linearGradient>
</defs>
</svg>
