<svg width="40" height="40" viewBox="0 0 40 40" fill="none" xmlns="http://www.w3.org/2000/svg">
<path d="M17.3235 37.0848C19.2553 37.405 21.2281 37.405 23.1599 37.0848" stroke="#BB2FA6" stroke-width="4"/>
<path d="M17.3235 2.91619C19.2553 2.59597 21.2281 2.59597 23.1599 2.91619" stroke="#B6B6B6" stroke-width="4"/>
<path d="M37.5885 17.1267C37.9126 19.0294 37.9115 20.9721 37.5853 22.8744" stroke="#B6B6B6" stroke-width="4"/>
<path d="M2.89444 17.1267C2.57039 19.0294 2.57149 20.9721 2.89772 22.8744" stroke="#BB2FA6" stroke-width="4"/>
<path d="M30.5593 5.97012C32.1453 7.10255 33.528 8.48832 34.6502 10.0697" stroke="#B6B6B6" stroke-width="4"/>
<path d="M5.82687 29.9325C6.95066 31.5127 8.33497 32.897 9.9221 34.0278" stroke="#BB2FA6" stroke-width="4"/>
<path d="M34.4854 30.1631C33.3355 31.7251 31.9284 33.0869 30.3228 34.192" stroke="#B6B6B6" stroke-width="4"/>
<path d="M10.1538 5.80588C8.54929 6.91265 7.14375 8.27598 5.99549 9.83907" stroke="#B6B6B6" stroke-width="4"/>
<path d="M35.1655 10.8072C36.2043 12.4429 36.9584 14.2382 37.3963 16.1187" stroke="#B6B6B6" stroke-width="4"/>
<path d="M3.11143 23.8825C3.55122 25.7625 4.30699 27.5572 5.34745 29.1918" stroke="#BB2FA6" stroke-width="4"/>
<path d="M29.5888 34.6845C27.9279 35.7076 26.105 36.45 24.1956 36.8813" stroke="#B6B6B6" stroke-width="4"/>
<path d="M16.3122 3.11626C14.4032 3.54938 12.5811 4.29383 10.9213 5.31852" stroke="#B6B6B6" stroke-width="4"/>
<path d="M24.1989 3.1251C26.1069 3.56225 27.9274 4.31055 29.585 5.33875" stroke="#B6B6B6" stroke-width="4"/>
<path d="M10.8535 34.6654C12.5121 35.692 14.3335 36.4383 16.2419 36.8736" stroke="#BB2FA6" stroke-width="4"/>
<path d="M37.3547 23.9192C36.9108 25.7983 36.151 27.5913 35.107 29.2237" stroke="#B6B6B6" stroke-width="4"/>
<path d="M5.32864 10.7762C4.28628 12.4096 3.5283 14.2034 3.08633 16.0829" stroke="#B6B6B6" stroke-width="4"/>
<path d="M33.2365 19.7539C33.2365 26.9331 27.3282 32.7514 20.0411 32.7514C12.7521 32.7514 6.84503 26.9331 6.84503 19.7539C6.84503 12.5765 12.7521 6.75757 20.0411 6.75757C27.3282 6.75757 33.2365 12.5765 33.2365 19.7539Z" fill="url(#paint0_linear_63_113)"/>
<path d="M19.1772 18.1865H20.0209C20.3491 18.1865 20.6205 18.1299 20.8354 18.0166C21.0541 17.9033 21.2162 17.7471 21.3217 17.5479C21.4272 17.3486 21.4799 17.1201 21.4799 16.8623C21.4799 16.5928 21.4311 16.3623 21.3334 16.1709C21.2397 15.9756 21.0952 15.8252 20.8998 15.7197C20.7084 15.6143 20.4643 15.5615 20.1674 15.5615C19.9174 15.5615 19.6909 15.6123 19.4877 15.7139C19.2885 15.8115 19.1303 15.9521 19.0131 16.1357C18.8959 16.3154 18.8373 16.5303 18.8373 16.7803H17.4194C17.4194 16.3271 17.5385 15.9248 17.7768 15.5732C18.0151 15.2217 18.3393 14.9463 18.7495 14.7471C19.1635 14.5439 19.6284 14.4424 20.144 14.4424C20.6948 14.4424 21.1752 14.5342 21.5854 14.7178C21.9995 14.8975 22.3217 15.167 22.5522 15.5264C22.7827 15.8857 22.8979 16.3311 22.8979 16.8623C22.8979 17.1045 22.8412 17.3506 22.728 17.6006C22.6147 17.8506 22.4467 18.0791 22.2241 18.2861C22.0014 18.4893 21.7241 18.6553 21.392 18.7842C21.06 18.9092 20.6752 18.9717 20.2377 18.9717H19.1772V18.1865ZM19.1772 19.2881V18.5146H20.2377C20.7377 18.5146 21.1635 18.5732 21.5151 18.6904C21.8705 18.8076 22.1596 18.9697 22.3823 19.1768C22.6049 19.3799 22.767 19.6123 22.8686 19.874C22.9741 20.1357 23.0268 20.4131 23.0268 20.7061C23.0268 21.1045 22.9545 21.46 22.81 21.7725C22.6694 22.0811 22.4682 22.3428 22.2065 22.5576C21.9448 22.7725 21.6381 22.9346 21.2866 23.0439C20.9389 23.1533 20.56 23.208 20.1498 23.208C19.7827 23.208 19.4311 23.1572 19.0952 23.0557C18.7592 22.9541 18.4584 22.8037 18.1928 22.6045C17.9272 22.4014 17.7162 22.1494 17.56 21.8486C17.4077 21.5439 17.3315 21.1924 17.3315 20.7939H18.7436C18.7436 21.0479 18.8022 21.2725 18.9194 21.4678C19.0405 21.6592 19.2084 21.8096 19.4233 21.9189C19.642 22.0283 19.892 22.083 20.1733 22.083C20.4702 22.083 20.726 22.0303 20.9409 21.9248C21.1557 21.8193 21.3198 21.6631 21.433 21.4561C21.5502 21.249 21.6088 20.999 21.6088 20.7061C21.6088 20.374 21.5444 20.1045 21.4155 19.8975C21.2866 19.6904 21.103 19.5381 20.8647 19.4404C20.6264 19.3389 20.3452 19.2881 20.0209 19.2881H19.1772Z" fill="white"/>
<defs>
<linearGradient id="paint0_linear_63_113" x1="33.2365" y1="19.7545" x2="6.84503" y2="19.7545" gradientUnits="userSpaceOnUse">
<stop stop-color="#CB11AB"/>
<stop offset="1" stop-color="#481173"/>
</linearGradient>
</defs>
</svg>
