<svg width="40" height="40" viewBox="0 0 40 40" fill="none" xmlns="http://www.w3.org/2000/svg">
<path d="M17.3235 37.0848C19.2553 37.405 21.2281 37.405 23.1599 37.0848" stroke="#BB2FA6" stroke-width="4"/>
<path d="M17.3235 2.91619C19.2553 2.59597 21.2281 2.59597 23.1599 2.91619" stroke="#BB2FA6" stroke-width="4"/>
<path d="M37.5885 17.1267C37.9126 19.0294 37.9115 20.9721 37.5853 22.8744" stroke="#BB2FA6" stroke-width="4"/>
<path d="M2.89444 17.1267C2.57039 19.0294 2.57149 20.9721 2.89772 22.8744" stroke="#BB2FA6" stroke-width="4"/>
<path d="M30.5593 5.97012C32.1453 7.10255 33.528 8.48832 34.6502 10.0697" stroke="#BB2FA6" stroke-width="4"/>
<path d="M5.82687 29.9325C6.95066 31.5127 8.33497 32.897 9.9221 34.0278" stroke="#BB2FA6" stroke-width="4"/>
<path d="M34.4854 30.1631C33.3355 31.7251 31.9284 33.0869 30.3228 34.192" stroke="#BB2FA6" stroke-width="4"/>
<path d="M10.1538 5.80588C8.54929 6.91265 7.14375 8.27598 5.99549 9.83907" stroke="#BB2FA6" stroke-width="4"/>
<path d="M35.1655 10.8072C36.2043 12.4429 36.9584 14.2382 37.3963 16.1187" stroke="#BB2FA6" stroke-width="4"/>
<path d="M3.11143 23.8825C3.55122 25.7625 4.30699 27.5572 5.34745 29.1918" stroke="#BB2FA6" stroke-width="4"/>
<path d="M29.5888 34.6845C27.9279 35.7076 26.105 36.45 24.1956 36.8813" stroke="#BB2FA6" stroke-width="4"/>
<path d="M16.3122 3.11626C14.4032 3.54938 12.5811 4.29383 10.9213 5.31852" stroke="#BB2FA6" stroke-width="4"/>
<path d="M24.1989 3.1251C26.1069 3.56225 27.9274 4.31055 29.585 5.33875" stroke="#BB2FA6" stroke-width="4"/>
<path d="M10.8535 34.6654C12.5121 35.692 14.3335 36.4383 16.2419 36.8736" stroke="#BB2FA6" stroke-width="4"/>
<path d="M37.3547 23.9192C36.9108 25.7983 36.151 27.5913 35.107 29.2237" stroke="#BB2FA6" stroke-width="4"/>
<path d="M5.32864 10.7762C4.28628 12.4096 3.5283 14.2034 3.08633 16.0829" stroke="#BB2FA6" stroke-width="4"/>
<path d="M33.2365 19.7539C33.2365 26.9331 27.3282 32.7514 20.0411 32.7514C12.7521 32.7514 6.84503 26.9331 6.84503 19.7539C6.84503 12.5765 12.7521 6.75757 20.0411 6.75757C27.3282 6.75757 33.2365 12.5765 33.2365 19.7539Z" fill="url(#paint0_linear_63_55)"/>
<path d="M17.4643 14.5303V23.0908H16.0522V16.2061L13.9604 16.915V15.749L17.2944 14.5303H17.4643ZM25.9897 18.1104V19.5049C25.9897 20.1729 25.9233 20.7432 25.7905 21.2158C25.6616 21.6846 25.4741 22.0654 25.228 22.3584C24.9819 22.6514 24.687 22.8662 24.3432 23.0029C24.0034 23.1396 23.6225 23.208 23.2006 23.208C22.8647 23.208 22.5522 23.165 22.2631 23.0791C21.978 22.9932 21.7202 22.8584 21.4897 22.6748C21.2592 22.4912 21.062 22.2549 20.8979 21.9658C20.7377 21.6729 20.6127 21.3232 20.5229 20.917C20.437 20.5107 20.394 20.04 20.394 19.5049V18.1104C20.394 17.4385 20.4604 16.8721 20.5932 16.4111C20.726 15.9463 20.9155 15.5693 21.1616 15.2803C21.4077 14.9873 21.7006 14.7744 22.0405 14.6416C22.3842 14.5088 22.767 14.4424 23.1889 14.4424C23.5287 14.4424 23.8412 14.4854 24.1264 14.5713C24.4155 14.6533 24.6733 14.7842 24.8998 14.9639C25.1303 15.1436 25.3256 15.3779 25.4858 15.667C25.6498 15.9521 25.7748 16.2979 25.8608 16.7041C25.9467 17.1064 25.9897 17.5752 25.9897 18.1104ZM24.5776 19.7041V17.8994C24.5776 17.5596 24.558 17.2607 24.519 17.0029C24.4799 16.7412 24.4213 16.5205 24.3432 16.3408C24.269 16.1572 24.1752 16.0088 24.062 15.8955C23.9487 15.7783 23.8198 15.6943 23.6752 15.6436C23.5307 15.5889 23.3686 15.5615 23.1889 15.5615C22.9702 15.5615 22.7748 15.6045 22.603 15.6904C22.4311 15.7725 22.2866 15.9053 22.1694 16.0889C22.0522 16.2725 21.9623 16.5146 21.8998 16.8154C21.8412 17.1123 21.812 17.4736 21.812 17.8994V19.7041C21.812 20.0479 21.8315 20.3506 21.8705 20.6123C21.9096 20.874 21.9682 21.0986 22.0463 21.2861C22.1245 21.4697 22.2182 21.6221 22.3276 21.7432C22.4409 21.8604 22.5698 21.9463 22.7143 22.001C22.8627 22.0557 23.0248 22.083 23.2006 22.083C23.4233 22.083 23.6205 22.04 23.7924 21.9541C23.9643 21.8682 24.1088 21.7314 24.226 21.5439C24.3432 21.3525 24.4311 21.1045 24.4897 20.7998C24.5483 20.4951 24.5776 20.1299 24.5776 19.7041Z" fill="white"/>
<defs>
<linearGradient id="paint0_linear_63_55" x1="33.2365" y1="19.7545" x2="6.84503" y2="19.7545" gradientUnits="userSpaceOnUse">
<stop stop-color="#CB11AB"/>
<stop offset="1" stop-color="#481173"/>
</linearGradient>
</defs>
</svg>
