<svg width="40" height="40" viewBox="0 0 40 40" fill="none" xmlns="http://www.w3.org/2000/svg">
<path d="M17.3236 37.0848C19.2554 37.405 21.2281 37.405 23.1599 37.0848" stroke="#BB2FA6" stroke-width="4"/>
<path d="M17.3236 2.91619C19.2554 2.59597 21.2281 2.59597 23.1599 2.91619" stroke="#BB2FA6" stroke-width="4"/>
<path d="M37.5886 17.1267C37.9126 19.0294 37.9115 20.9721 37.5854 22.8744" stroke="#B6B6B6" stroke-width="4"/>
<path d="M2.89444 17.1267C2.57039 19.0294 2.57149 20.9721 2.89772 22.8744" stroke="#BB2FA6" stroke-width="4"/>
<path d="M30.5593 5.97012C32.1453 7.10255 33.528 8.48832 34.6502 10.0697" stroke="#BB2FA6" stroke-width="4"/>
<path d="M5.82681 29.9325C6.9506 31.5127 8.33491 32.897 9.92204 34.0278" stroke="#BB2FA6" stroke-width="4"/>
<path d="M34.4854 30.1631C33.3356 31.7251 31.9285 33.0869 30.3228 34.192" stroke="#B6B6B6" stroke-width="4"/>
<path d="M10.1538 5.80588C8.54929 6.91265 7.14375 8.27598 5.99549 9.83907" stroke="#BB2FA6" stroke-width="4"/>
<path d="M35.1655 10.8072C36.2043 12.4429 36.9584 14.2382 37.3963 16.1187" stroke="#B6B6B6" stroke-width="4"/>
<path d="M3.11143 23.8825C3.55122 25.7625 4.30699 27.5572 5.34745 29.1918" stroke="#BB2FA6" stroke-width="4"/>
<path d="M29.5888 34.6845C27.9279 35.7076 26.105 36.45 24.1956 36.8813" stroke="#B6B6B6" stroke-width="4"/>
<path d="M16.3122 3.11626C14.4033 3.54938 12.5811 4.29383 10.9213 5.31852" stroke="#BB2FA6" stroke-width="4"/>
<path d="M24.1989 3.1251C26.1069 3.56225 27.9274 4.31055 29.585 5.33875" stroke="#BB2FA6" stroke-width="4"/>
<path d="M10.8536 34.6654C12.5122 35.692 14.3335 36.4383 16.242 36.8736" stroke="#BB2FA6" stroke-width="4"/>
<path d="M37.3546 23.9192C36.9107 25.7983 36.151 27.5913 35.107 29.2237" stroke="#B6B6B6" stroke-width="4"/>
<path d="M5.32864 10.7762C4.28628 12.4096 3.5283 14.2034 3.08633 16.0829" stroke="#BB2FA6" stroke-width="4"/>
<path d="M33.2364 19.7539C33.2364 26.9331 27.3281 32.7514 20.041 32.7514C12.752 32.7514 6.84497 26.9331 6.84497 19.7539C6.84497 12.5765 12.752 6.75757 20.041 6.75757C27.3281 6.75757 33.2364 12.5765 33.2364 19.7539Z" fill="url(#paint0_linear_63_367)"/>
<path d="M23.0972 20.7646C23.0972 21.2959 22.9741 21.7432 22.728 22.1064C22.4819 22.4697 22.146 22.7451 21.7202 22.9326C21.2983 23.1162 20.8218 23.208 20.2905 23.208C19.7593 23.208 19.2808 23.1162 18.855 22.9326C18.4292 22.7451 18.0933 22.4697 17.8472 22.1064C17.6011 21.7432 17.478 21.2959 17.478 20.7646C17.478 20.4131 17.5464 20.0947 17.6831 19.8096C17.8198 19.5205 18.0132 19.2725 18.2632 19.0654C18.5171 18.8545 18.814 18.6924 19.1538 18.5791C19.4976 18.4658 19.8726 18.4092 20.2788 18.4092C20.8179 18.4092 21.3003 18.5088 21.7261 18.708C22.1519 18.9072 22.4858 19.1826 22.728 19.5342C22.9741 19.8857 23.0972 20.2959 23.0972 20.7646ZM21.6792 20.6943C21.6792 20.4092 21.6206 20.1592 21.5034 19.9443C21.3862 19.7295 21.2222 19.5635 21.0112 19.4463C20.8003 19.3291 20.5562 19.2705 20.2788 19.2705C19.9976 19.2705 19.7534 19.3291 19.5464 19.4463C19.3394 19.5635 19.1772 19.7295 19.0601 19.9443C18.9468 20.1592 18.8901 20.4092 18.8901 20.6943C18.8901 20.9834 18.9468 21.2334 19.0601 21.4443C19.1733 21.6514 19.3354 21.8096 19.5464 21.9189C19.7573 22.0283 20.0054 22.083 20.2905 22.083C20.5757 22.083 20.8218 22.0283 21.0288 21.9189C21.2358 21.8096 21.396 21.6514 21.5093 21.4443C21.6226 21.2334 21.6792 20.9834 21.6792 20.6943ZM22.9038 16.8037C22.9038 17.2295 22.7905 17.6084 22.564 17.9404C22.3413 18.2725 22.0327 18.5342 21.6382 18.7256C21.2437 18.9131 20.7944 19.0068 20.2905 19.0068C19.7827 19.0068 19.3296 18.9131 18.9312 18.7256C18.5366 18.5342 18.2261 18.2725 17.9995 17.9404C17.7769 17.6084 17.6655 17.2295 17.6655 16.8037C17.6655 16.2959 17.7769 15.8682 17.9995 15.5205C18.2261 15.1689 18.5366 14.9014 18.9312 14.7178C19.3257 14.5342 19.7769 14.4424 20.2847 14.4424C20.7925 14.4424 21.2437 14.5342 21.6382 14.7178C22.0327 14.9014 22.3413 15.1689 22.564 15.5205C22.7905 15.8682 22.9038 16.2959 22.9038 16.8037ZM21.4917 16.8506C21.4917 16.5967 21.4409 16.374 21.3394 16.1826C21.2417 15.9873 21.103 15.835 20.9233 15.7256C20.7437 15.6162 20.5308 15.5615 20.2847 15.5615C20.0386 15.5615 19.8257 15.6143 19.646 15.7197C19.4663 15.8252 19.3276 15.9736 19.23 16.165C19.1323 16.3564 19.0835 16.585 19.0835 16.8506C19.0835 17.1123 19.1323 17.3408 19.23 17.5361C19.3276 17.7275 19.4663 17.8779 19.646 17.9873C19.8296 18.0967 20.0444 18.1514 20.2905 18.1514C20.5366 18.1514 20.7495 18.0967 20.9292 17.9873C21.1089 17.8779 21.2476 17.7275 21.3452 17.5361C21.4429 17.3408 21.4917 17.1123 21.4917 16.8506Z" fill="white"/>
<defs>
<linearGradient id="paint0_linear_63_367" x1="33.2364" y1="19.7545" x2="6.84497" y2="19.7545" gradientUnits="userSpaceOnUse">
<stop stop-color="#CB11AB"/>
<stop offset="1" stop-color="#481173"/>
</linearGradient>
</defs>
</svg>
