<svg width="40" height="40" viewBox="0 0 40 40" fill="none" xmlns="http://www.w3.org/2000/svg">
<path d="M17.3235 37.0848C19.2553 37.405 21.2281 37.405 23.1599 37.0848" stroke="#BB2FA6" stroke-width="4"/>
<path d="M17.3235 2.91619C19.2553 2.59597 21.2281 2.59597 23.1599 2.91619" stroke="#B6B6B6" stroke-width="4"/>
<path d="M37.5885 17.1267C37.9126 19.0294 37.9115 20.9721 37.5853 22.8744" stroke="#B6B6B6" stroke-width="4"/>
<path d="M2.89444 17.1267C2.57039 19.0294 2.57149 20.9721 2.89772 22.8744" stroke="#BB2FA6" stroke-width="4"/>
<path d="M30.5593 5.97012C32.1452 7.10255 33.528 8.48832 34.6502 10.0697" stroke="#B6B6B6" stroke-width="4"/>
<path d="M5.82684 29.9325C6.95063 31.5127 8.33494 32.897 9.92207 34.0278" stroke="#BB2FA6" stroke-width="4"/>
<path d="M34.4854 30.1631C33.3355 31.7251 31.9284 33.0869 30.3228 34.192" stroke="#B6B6B6" stroke-width="4"/>
<path d="M10.1538 5.80588C8.54929 6.91265 7.14375 8.27598 5.99549 9.83907" stroke="#BB2FA6" stroke-width="4"/>
<path d="M35.1655 10.8072C36.2043 12.4429 36.9584 14.2382 37.3963 16.1187" stroke="#B6B6B6" stroke-width="4"/>
<path d="M3.11143 23.8825C3.55122 25.7625 4.30699 27.5572 5.34745 29.1918" stroke="#BB2FA6" stroke-width="4"/>
<path d="M29.5888 34.6845C27.928 35.7076 26.105 36.45 24.1956 36.8813" stroke="#B6B6B6" stroke-width="4"/>
<path d="M16.3122 3.11626C14.4032 3.54938 12.5811 4.29383 10.9213 5.31852" stroke="#BB2FA6" stroke-width="4"/>
<path d="M24.1989 3.1251C26.1069 3.56225 27.9274 4.31055 29.585 5.33875" stroke="#B6B6B6" stroke-width="4"/>
<path d="M10.8536 34.6654C12.5122 35.692 14.3335 36.4383 16.242 36.8736" stroke="#BB2FA6" stroke-width="4"/>
<path d="M37.3547 23.9192C36.9108 25.7983 36.151 27.5913 35.107 29.2237" stroke="#B6B6B6" stroke-width="4"/>
<path d="M5.32864 10.7762C4.28628 12.4096 3.5283 14.2034 3.08633 16.0829" stroke="#BB2FA6" stroke-width="4"/>
<path d="M33.2364 19.7539C33.2364 26.9331 27.3282 32.7514 20.041 32.7514C12.752 32.7514 6.845 26.9331 6.845 19.7539C6.845 12.5765 12.752 6.75757 20.041 6.75757C27.3282 6.75757 33.2364 12.5765 33.2364 19.7539Z" fill="url(#paint0_linear_63_265)"/>
<path d="M19.0014 19.124L17.8764 18.8486L18.3393 14.5596H22.9389V15.7549H19.5112L19.2768 17.8467C19.4096 17.7686 19.5932 17.6924 19.8276 17.6182C20.062 17.54 20.3295 17.501 20.6303 17.501C21.0327 17.501 21.392 17.5674 21.7084 17.7002C22.0287 17.8291 22.3002 18.0186 22.5229 18.2686C22.7455 18.5146 22.9155 18.8154 23.0327 19.1709C23.1498 19.5225 23.2084 19.9189 23.2084 20.3604C23.2084 20.7549 23.1498 21.124 23.0327 21.4678C22.9194 21.8115 22.7475 22.1143 22.517 22.376C22.2866 22.6377 21.9955 22.8428 21.644 22.9912C21.2963 23.1357 20.8842 23.208 20.4077 23.208C20.0522 23.208 19.7104 23.1572 19.3823 23.0557C19.058 22.9502 18.767 22.7959 18.5092 22.5928C18.2514 22.3857 18.0444 22.1318 17.8881 21.8311C17.7319 21.5264 17.642 21.1768 17.6186 20.7822H19.0014C19.0366 21.0596 19.1127 21.2959 19.2299 21.4912C19.351 21.6826 19.5112 21.8291 19.7104 21.9307C19.9096 22.0322 20.1401 22.083 20.4018 22.083C20.6401 22.083 20.8452 22.042 21.017 21.96C21.1889 21.874 21.3315 21.7529 21.4448 21.5967C21.562 21.4365 21.6479 21.249 21.7026 21.0342C21.7612 20.8193 21.7905 20.5811 21.7905 20.3193C21.7905 20.0693 21.7573 19.8408 21.6909 19.6338C21.6284 19.4268 21.5327 19.2471 21.4037 19.0947C21.2787 18.9424 21.1205 18.8252 20.9291 18.7432C20.7377 18.6572 20.517 18.6143 20.267 18.6143C19.9311 18.6143 19.6733 18.6631 19.4936 18.7607C19.3178 18.8584 19.1537 18.9795 19.0014 19.124Z" fill="white"/>
<defs>
<linearGradient id="paint0_linear_63_265" x1="33.2364" y1="19.7545" x2="6.845" y2="19.7545" gradientUnits="userSpaceOnUse">
<stop stop-color="#CB11AB"/>
<stop offset="1" stop-color="#481173"/>
</linearGradient>
</defs>
</svg>
