<svg width="40" height="40" viewBox="0 0 40 40" fill="none" xmlns="http://www.w3.org/2000/svg">
<path d="M17.3235 37.0848C19.2553 37.405 21.2281 37.405 23.1599 37.0848" stroke="#BB2FA6" stroke-width="4"/>
<path d="M17.3235 2.91619C19.2553 2.59597 21.2281 2.59597 23.1599 2.91619" stroke="#B6B6B6" stroke-width="4"/>
<path d="M37.5885 17.1267C37.9126 19.0294 37.9115 20.9721 37.5853 22.8744" stroke="#B6B6B6" stroke-width="4"/>
<path d="M2.89444 17.1267C2.57039 19.0294 2.57149 20.9721 2.89772 22.8744" stroke="#B6B6B6" stroke-width="4"/>
<path d="M30.5593 5.97012C32.1452 7.10255 33.528 8.48832 34.6502 10.0697" stroke="#B6B6B6" stroke-width="4"/>
<path d="M5.82684 29.9325C6.95063 31.5127 8.33494 32.897 9.92207 34.0278" stroke="#B6B6B6" stroke-width="4"/>
<path d="M34.4854 30.1631C33.3355 31.7251 31.9284 33.0869 30.3228 34.192" stroke="#B6B6B6" stroke-width="4"/>
<path d="M10.1538 5.80588C8.54929 6.91265 7.14375 8.27598 5.99549 9.83907" stroke="#B6B6B6" stroke-width="4"/>
<path d="M35.1655 10.8072C36.2043 12.4429 36.9584 14.2382 37.3963 16.1187" stroke="#B6B6B6" stroke-width="4"/>
<path d="M3.11143 23.8825C3.55122 25.7625 4.30699 27.5572 5.34745 29.1918" stroke="#B6B6B6" stroke-width="4"/>
<path d="M29.5888 34.6845C27.928 35.7076 26.105 36.45 24.1956 36.8813" stroke="#B6B6B6" stroke-width="4"/>
<path d="M16.3122 3.11626C14.4032 3.54938 12.5811 4.29383 10.9213 5.31852" stroke="#B6B6B6" stroke-width="4"/>
<path d="M24.1989 3.1251C26.1069 3.56225 27.9274 4.31055 29.585 5.33875" stroke="#B6B6B6" stroke-width="4"/>
<path d="M10.8536 34.6654C12.5122 35.692 14.3335 36.4383 16.242 36.8736" stroke="#B6B6B6" stroke-width="4"/>
<path d="M37.3547 23.9192C36.9108 25.7983 36.151 27.5913 35.107 29.2237" stroke="#B6B6B6" stroke-width="4"/>
<path d="M5.32864 10.7762C4.28628 12.4096 3.5283 14.2034 3.08633 16.0829" stroke="#B6B6B6" stroke-width="4"/>
<path d="M33.2364 19.7539C33.2364 26.9331 27.3282 32.7514 20.041 32.7514C12.752 32.7514 6.845 26.9331 6.845 19.7539C6.845 12.5765 12.752 6.75757 20.041 6.75757C27.3282 6.75757 33.2364 12.5765 33.2364 19.7539Z" fill="url(#paint0_linear_1_512)"/>
<path d="M21.3745 14.5303V23.0908H19.9623V16.2061L17.8705 16.915V15.749L21.2045 14.5303H21.3745Z" fill="white"/>
<defs>
<linearGradient id="paint0_linear_1_512" x1="33.2364" y1="19.7545" x2="6.845" y2="19.7545" gradientUnits="userSpaceOnUse">
<stop stop-color="#CB11AB"/>
<stop offset="1" stop-color="#481173"/>
</linearGradient>
</defs>
</svg>
