<svg width="29" height="35" viewBox="0 0 29 35" fill="none" xmlns="http://www.w3.org/2000/svg">
<path d="M27.9269 2.18385C27.822 1.92373 27.6165 1.71396 27.3498 1.60069L24.9365 0.568628C24.3856 0.333688 23.7386 0.572824 23.4937 1.10144L22.2303 3.82843L21.369 5.68278H5.15337C4.97849 5.68278 4.81235 5.74991 4.68994 5.86738L1.19237 9.22368C1.06995 9.34115 1 9.50057 1 9.66838V33.0534C1 33.8631 1.6864 34.5218 2.53019 34.5218H21.5919C22.4357 34.5218 23.1221 33.8631 23.1221 33.0534V13.2974L26.6416 5.71215L27.9051 2.98516C28.0231 2.72924 28.0318 2.44396 27.9269 2.18385ZM21.8105 33.0534C21.8105 33.1708 21.7144 33.2631 21.5919 33.2631H2.53019C2.40777 33.2631 2.31159 33.1708 2.31159 33.0534V9.9285L5.42443 6.94139H20.7875L18.0463 12.8527C18.0288 12.517 17.7446 12.2527 17.3949 12.2527H5.62554C5.26266 12.2527 4.96974 12.5338 4.96974 12.882C4.96974 13.2303 5.26266 13.5113 5.62554 13.5113H17.3949C17.5523 13.5113 17.6965 13.4568 17.8102 13.3645L15.8778 17.5305L14.4482 20.6099C14.4438 20.6225 14.4394 20.6309 14.435 20.6435C14.4263 20.6644 14.4176 20.6854 14.4132 20.7064C14.4088 20.7274 14.4044 20.7484 14.4001 20.7693C14.4001 20.7819 14.3957 20.7903 14.3913 20.8029L13.8536 26.11C13.8317 26.3408 13.9454 26.5589 14.1421 26.6848H5.62554C5.26266 26.6848 4.96974 26.9659 4.96974 27.3141C4.96974 27.6623 5.26266 27.9434 5.62554 27.9434H18.501C18.8638 27.9434 19.1568 27.6623 19.1568 27.3141C19.1568 26.9659 18.8638 26.6848 18.501 26.6848H14.8854C14.9247 26.6596 14.9597 26.6303 14.9947 26.5925L18.7414 22.6572C18.7414 22.6572 18.7414 22.6531 18.7458 22.6531C18.7895 22.6069 18.8289 22.5524 18.8595 22.4894L20.2891 19.41L21.8149 16.1209V33.0534H21.8105ZM17.1588 22.4601L15.3532 24.3564L15.6111 21.7972L17.1588 22.4601ZM21.8674 12.9114L19.0868 18.9066L17.9239 21.4112L15.9128 20.5512L17.0757 18.0465L22.3964 6.5722L23.1615 4.91503L25.1726 5.77508L21.8674 12.9114ZM25.7103 4.62555L23.6992 3.7655L24.6086 1.80626L26.6197 2.66631L25.7103 4.62555Z" fill="#4C1175" stroke="#4C1175" stroke-width="0.3"/>
<path d="M5.20924 20.4348H13.2255C13.606 20.4348 13.913 20.1726 13.913 19.8478C13.913 19.523 13.606 19.2609 13.2255 19.2609H5.20924C4.82883 19.2609 4.52174 19.523 4.52174 19.8478C4.52174 20.1726 4.82883 20.4348 5.20924 20.4348Z" fill="#4C1175" stroke="#4C1175" stroke-width="0.3"/>
</svg>
