<svg width="8" height="14" viewBox="0 0 8 14" fill="none" xmlns="http://www.w3.org/2000/svg">
<path d="M7.07377 7.2049C7.06202 7.06937 7.00767 6.94108 6.91853 6.8385L1.79087 0.895564C1.73664 0.82865 1.66952 0.773363 1.59352 0.732993C1.51752 0.692623 1.43419 0.668 1.3485 0.660585C1.26281 0.653169 1.1765 0.663112 1.09472 0.689828C1.01295 0.716545 0.93737 0.759481 0.872494 0.816087C0.807618 0.872693 0.754771 0.941807 0.717099 1.01931C0.679428 1.09682 0.657702 1.18113 0.653216 1.26723C0.648731 1.35333 0.661577 1.43946 0.69099 1.52048C0.720403 1.60149 0.765781 1.67575 0.824422 1.73882L5.58655 7.26012L0.824424 12.7814C0.765783 12.8445 0.720405 12.9188 0.690992 12.9998C0.661579 13.0808 0.648733 13.1669 0.653218 13.253C0.657704 13.3391 0.67943 13.4234 0.717102 13.5009C0.754773 13.5784 0.807621 13.6475 0.872497 13.7042C0.937372 13.7608 1.01295 13.8037 1.09473 13.8304C1.1765 13.8571 1.26281 13.8671 1.3485 13.8597C1.43419 13.8523 1.51752 13.8276 1.59352 13.7873C1.66952 13.7469 1.73664 13.6916 1.79088 13.6247L6.91853 7.68175C6.97499 7.61676 7.01782 7.54106 7.04449 7.45914C7.07116 7.37722 7.08111 7.29076 7.07377 7.2049Z" fill="white"/>
</svg>
