<svg width="24" height="24" viewBox="0 0 24 24" fill="none" xmlns="http://www.w3.org/2000/svg">
<path d="M22.8144 21.769L18.5466 17.5328C21.7294 13.8397 21.5486 8.26379 18.0403 4.75172C16.2319 2.90517 13.8087 2 11.4216 2C9.03459 2 6.61136 2.90517 4.76682 4.75172C1.07773 8.44483 1.07773 14.3828 4.76682 18.0759C6.57519 19.8862 8.99842 20.8276 11.4216 20.8276C13.5917 20.8276 15.7979 20.0672 17.534 18.5466L21.8017 22.819C21.9102 22.9276 22.0911 23 22.2719 23C22.4527 23 22.6336 22.9276 22.7782 22.7828C23.0676 22.5293 23.0676 22.0586 22.8144 21.769ZM5.77951 17.0259C4.26047 15.5414 3.46478 13.5138 3.46478 11.4138C3.46478 9.31379 4.29664 7.28621 5.77951 5.76552C7.29854 4.24483 9.28776 3.44828 11.4216 3.44828C13.5555 3.44828 15.5447 4.28104 17.0638 5.76552C18.5466 7.28621 19.3785 9.27759 19.3785 11.4138C19.3785 13.55 18.5466 15.5414 17.0638 17.0621C15.5447 18.5466 13.5194 19.3793 11.4216 19.3793C9.32393 19.3793 7.29854 18.5466 5.77951 17.0259Z" fill="#4C1175"/>
</svg>
