<svg width="20" height="20" viewBox="0 0 20 20" fill="none" xmlns="http://www.w3.org/2000/svg">
<path d="M2.63875 16.6207L5.84237 13.5948C3.45323 10.9569 3.58897 6.97414 6.22246 4.46552C7.57992 3.14655 9.39893 2.5 11.1908 2.5C12.9826 2.5 14.8016 3.14655 16.1863 4.46552C18.9555 7.10345 18.9555 11.3448 16.1863 13.9828C14.8288 15.2759 13.0098 15.9483 11.1908 15.9483C9.56182 15.9483 7.90572 15.4052 6.60255 14.319L3.39893 17.3707C3.31748 17.4483 3.18173 17.5 3.04599 17.5C2.91024 17.5 2.77449 17.4483 2.6659 17.3448C2.4487 17.1638 2.4487 16.8276 2.63875 16.6207ZM15.4261 13.2328C16.5664 12.1724 17.1636 10.7241 17.1636 9.22414C17.1636 7.72414 16.5392 6.27586 15.4261 5.18966C14.2858 4.10345 12.7926 3.53448 11.1908 3.53448C9.58897 3.53448 8.09576 4.12931 6.95549 5.18966C5.84237 6.27586 5.21793 7.69828 5.21793 9.22414C5.21793 10.75 5.84237 12.1724 6.95549 13.2586C8.09576 14.319 9.61612 14.9138 11.1908 14.9138C12.7654 14.9138 14.2858 14.319 15.4261 13.2328Z" fill="#BB2FA6"/>
</svg>
