<svg width="34" height="20" viewBox="0 0 34 20" fill="none" xmlns="http://www.w3.org/2000/svg">
<path d="M3.18115 4.21045H10.0739" stroke="#4C1175" stroke-width="2" stroke-linecap="round"/>
<path d="M3.18115 10.5264H10.0739" stroke="#4C1175" stroke-width="2" stroke-linecap="round"/>
<path d="M3.18115 16.842H14.3157" stroke="#4C1175" stroke-width="2" stroke-linecap="round"/>
<path d="M23.8816 12.2134C23.4932 11.8208 22.86 11.8173 22.4674 12.2057C22.0747 12.5941 22.0712 13.2272 22.4596 13.6199L23.8816 12.2134ZM26.9929 18.2032C27.3813 18.5959 28.0145 18.5994 28.4071 18.211C28.7998 17.8226 28.8033 17.1894 28.4149 16.7968L26.9929 18.2032ZM24.1854 8.84259C24.1854 11.1132 22.3676 12.9352 20.1484 12.9352V14.9352C23.4928 14.9352 26.1854 12.1971 26.1854 8.84259H24.1854ZM20.1484 12.9352C17.9291 12.9352 16.1113 11.1132 16.1113 8.84259H14.1113C14.1113 12.1971 16.8039 14.9352 20.1484 14.9352V12.9352ZM16.1113 8.84259C16.1113 6.57195 17.9291 4.75 20.1484 4.75V2.75C16.8039 2.75 14.1113 5.48812 14.1113 8.84259H16.1113ZM20.1484 4.75C22.3676 4.75 24.1854 6.57195 24.1854 8.84259H26.1854C26.1854 5.48812 23.4928 2.75 20.1484 2.75V4.75ZM22.4596 13.6199L26.9929 18.2032L28.4149 16.7968L23.8816 12.2134L22.4596 13.6199Z" fill="#4C1175"/>
</svg>
