<svg width="20" height="24" viewBox="0 0 20 24" fill="none" xmlns="http://www.w3.org/2000/svg">
<path d="M15.7143 15C14.705 15 13.7774 15.3665 13.0451 15.9795L8.46982 12.9769C8.60531 12.3334 8.60531 11.6666 8.46982 11.023L13.0451 8.0205C13.7774 8.63348 14.705 9 15.7143 9C18.0812 9 20 6.98527 20 4.5C20 2.01473 18.0812 0 15.7143 0C13.3474 0 11.4286 2.01473 11.4286 4.5C11.4286 4.83553 11.4638 5.16234 11.5302 5.47692L6.95491 8.47945C6.22263 7.86652 5.295 7.5 4.28571 7.5C1.91879 7.5 0 9.51473 0 12C0 14.4853 1.91879 16.5 4.28571 16.5C5.295 16.5 6.22263 16.1335 6.95491 15.5205L11.5302 18.5231C11.4626 18.8439 11.4285 19.1714 11.4286 19.5C11.4286 21.9853 13.3474 24 15.7143 24C18.0812 24 20 21.9853 20 19.5C20 17.0147 18.0812 15 15.7143 15Z" fill="#555555"/>
</svg>
