<svg width="39" height="39" viewBox="0 0 39 39" fill="none" xmlns="http://www.w3.org/2000/svg">
<g clip-path="url(#clip0_419_2605)">
<path d="M19.5 2.4375C28.9081 2.4375 36.5625 10.0919 36.5625 19.5C36.5625 28.9081 28.9081 36.5625 19.5 36.5625C10.0919 36.5625 2.4375 28.9081 2.4375 19.5C2.4375 10.0919 10.0919 2.4375 19.5 2.4375ZM19.5 0C8.73052 0 0 8.73052 0 19.5C0 30.2695 8.73052 39 19.5 39C30.2695 39 39 30.2695 39 19.5C39 8.73052 30.2695 0 19.5 0Z" fill="#FBEC9A"/>
<path d="M19.4258 36.4885C10.0176 36.4885 2.36328 28.8342 2.36328 19.426C2.36328 10.0179 10.0176 2.36353 19.4258 2.36353C28.8339 2.36353 36.4883 10.0179 36.4883 19.426C36.4883 28.8342 28.8339 36.4885 19.4258 36.4885Z" fill="url(#paint0_linear_419_2605)"/>
<path d="M2.4375 19.5C2.4375 10.0919 10.0919 2.4375 19.5 2.4375C24.3293 2.4375 28.693 4.45758 31.8002 7.69336L33.5296 5.96395C29.9831 2.28942 25.01 0 19.5 0C8.73052 0 0 8.73052 0 19.5C0 25.01 2.28942 29.9831 5.96395 33.529L7.69336 31.7996C4.45758 28.693 2.4375 24.3293 2.4375 19.5Z" fill="#FCF6C2"/>
<path d="M15.8486 30.848L16.379 31.0562L16.2885 31.2676L15.7581 31.0594C15.6554 31.0191 15.5653 31.0026 15.4878 31.01C15.4103 31.0173 15.3448 31.044 15.2911 31.0901C15.2365 31.1358 15.1934 31.1954 15.1619 31.269C15.1331 31.3364 15.121 31.4055 15.1257 31.4766C15.1294 31.5472 15.1554 31.613 15.2036 31.6739C15.2515 31.7357 15.3268 31.7867 15.4296 31.827L15.8986 32.0111L16.6468 30.2631L16.91 30.3664L16.0707 32.3272L15.3385 32.0398C15.1885 31.9809 15.0726 31.9056 14.9909 31.8137C14.9092 31.7219 14.8609 31.6201 14.8461 31.5084C14.8308 31.3976 14.848 31.2842 14.8976 31.1684C14.9514 31.0427 15.0241 30.946 15.1158 30.8782C15.2075 30.8103 15.3151 30.7734 15.4387 30.7674C15.562 30.7623 15.6986 30.7891 15.8486 30.848Z" fill="white"/>
<path d="M13.5479 28.8487C13.6378 28.9127 13.7079 28.9854 13.7583 29.0669C13.8073 29.1485 13.8371 29.235 13.8477 29.3264C13.8575 29.4172 13.8475 29.5095 13.8179 29.6034C13.7882 29.6973 13.7392 29.7881 13.6709 29.8761L13.6332 29.9247C13.5541 30.0265 13.4682 30.106 13.3755 30.1634C13.2821 30.2215 13.1873 30.2593 13.0908 30.2769C12.9944 30.2945 12.9013 30.2935 12.8115 30.2738C12.7218 30.2542 12.6407 30.2186 12.5683 30.1671C12.476 30.1014 12.4085 30.0293 12.3656 29.9508C12.3219 29.8718 12.3002 29.7893 12.3004 29.7032C12.3 29.6178 12.3185 29.5304 12.3559 29.4408C12.3927 29.3521 12.4453 29.2637 12.5136 29.1758L12.5882 29.0798L13.5522 29.7664L13.4166 29.9411L12.6732 29.4117L12.6606 29.4279C12.6207 29.4857 12.5907 29.5481 12.5706 29.6153C12.5498 29.6819 12.548 29.7478 12.5654 29.8129C12.5828 29.878 12.6293 29.9374 12.7049 29.9912C12.755 30.0269 12.8092 30.0494 12.8675 30.0586C12.9253 30.0686 12.9848 30.0642 13.0462 30.0457C13.1076 30.0271 13.1691 29.9948 13.2307 29.9489C13.2924 29.9029 13.3525 29.8422 13.4112 29.7666L13.449 29.718C13.4951 29.6586 13.5302 29.5968 13.5542 29.5324C13.5769 29.4683 13.5871 29.4049 13.5851 29.3424C13.5822 29.2793 13.566 29.2198 13.5365 29.164C13.5061 29.1076 13.4607 29.0579 13.4003 29.0149C13.3223 28.9594 13.2443 28.9278 13.1662 28.9201C13.0882 28.9124 13.0088 28.92 12.9281 28.9428L12.8744 28.7446C12.934 28.7236 12.9997 28.7098 13.0714 28.7034C13.1431 28.697 13.2194 28.7046 13.3002 28.7262C13.3802 28.7472 13.4628 28.7881 13.5479 28.8487Z" fill="white"/>
<path d="M10.314 28.3822L11.5565 27.3982L11.7336 27.6032L10.4912 28.5873L10.314 28.3822ZM9.63415 27.5952L10.8373 27.6L11.0853 27.8871L10.9261 28.0654L10.7231 27.8304L9.8496 27.8446L9.63415 27.5952ZM11.0672 26.8317L10.8856 27.7185L10.6178 27.7085L10.8421 26.5712L11.0672 26.8317Z" fill="white"/>
<path d="M9.22644 25.8845L9.19588 25.8987C9.09222 25.9467 8.9886 25.9765 8.88502 25.9879C8.78055 25.9998 8.68144 25.993 8.58767 25.9676C8.49302 25.9427 8.40748 25.899 8.33106 25.8365C8.25375 25.7744 8.19019 25.6942 8.1404 25.5957C8.09016 25.4963 8.0636 25.3984 8.06071 25.3018C8.0565 25.2048 8.07351 25.113 8.11176 25.0264C8.14868 24.9394 8.20439 24.8603 8.27889 24.7892C8.3525 24.7185 8.44114 24.6591 8.5448 24.6111L8.57537 24.5969C8.67903 24.5488 8.78265 24.5191 8.88623 24.5076C8.98981 24.4962 9.08914 24.5034 9.18423 24.5292C9.278 24.5546 9.36354 24.5983 9.44085 24.6604C9.51683 24.722 9.57994 24.8024 9.63018 24.9018C9.68041 25.0011 9.70742 25.0989 9.71119 25.195C9.71408 25.2916 9.69706 25.3834 9.66015 25.4704C9.6219 25.557 9.56597 25.6357 9.49235 25.7064C9.41874 25.7771 9.3301 25.8364 9.22644 25.8845ZM9.07359 25.6568L9.10416 25.6427C9.17592 25.6094 9.23951 25.5697 9.29493 25.5236C9.34946 25.4778 9.39272 25.4271 9.4247 25.3714C9.45625 25.3148 9.47342 25.2547 9.47621 25.191C9.47812 25.1277 9.4621 25.0625 9.42817 24.9954C9.39468 24.9292 9.35165 24.8776 9.29906 24.8407C9.24515 24.8033 9.18546 24.7793 9.11999 24.7688C9.05451 24.7583 8.98614 24.7593 8.91486 24.7719C8.84226 24.784 8.77008 24.8068 8.69831 24.84L8.66774 24.8542C8.59687 24.8871 8.53438 24.9268 8.48029 24.9734C8.42487 25.0195 8.38139 25.0709 8.34985 25.1274C8.31698 25.1836 8.29915 25.2435 8.29636 25.3072C8.29312 25.37 8.30847 25.4349 8.3424 25.502C8.37589 25.5683 8.41959 25.6201 8.4735 25.6575C8.52697 25.694 8.5871 25.7178 8.6539 25.7288C8.71938 25.7393 8.7882 25.7381 8.86036 25.725C8.93164 25.7124 9.00271 25.6897 9.07359 25.6568Z" fill="white"/>
<path d="M8.07351 22.2244L6.76538 21.9089L6.71589 21.6529L8.41054 22.0695L8.44613 22.2536L7.01895 23.2205L6.96946 22.9645L8.07351 22.2244ZM6.98447 23.0422L8.54511 22.7656L8.59655 23.0316L7.03591 23.3083L6.98447 23.0422ZM8.31322 21.5661L6.75259 21.8427L6.70087 21.5752L8.26151 21.2986L8.31322 21.5661Z" fill="white"/>
<path d="M8.09923 18.9612C8.08903 19.0711 8.06129 19.1692 8.01601 19.2555C7.96985 19.3408 7.90974 19.4126 7.83567 19.471C7.76169 19.5284 7.67642 19.5701 7.57985 19.5962C7.48328 19.6223 7.37953 19.6306 7.2686 19.6212L7.2073 19.616C7.07886 19.605 6.96628 19.5763 6.86958 19.5299C6.7719 19.4833 6.69105 19.4245 6.62704 19.3534C6.56303 19.2823 6.51685 19.2039 6.48852 19.1182C6.46019 19.0325 6.45013 18.9454 6.45834 18.8569C6.46881 18.7441 6.49729 18.6485 6.54379 18.5701C6.59039 18.4908 6.65115 18.4278 6.72608 18.3813C6.80004 18.3347 6.88538 18.3027 6.98212 18.2855C7.07787 18.2681 7.18122 18.2642 7.29214 18.2736L7.41329 18.2839L7.30392 19.4625L7.08353 19.4437L7.16785 18.535L7.14742 18.5333C7.077 18.5312 7.00753 18.54 6.93902 18.5596C6.8706 18.5783 6.8125 18.6126 6.76472 18.6624C6.71694 18.7123 6.68877 18.7834 6.68019 18.8757C6.67451 18.937 6.68241 18.9945 6.7039 19.0483C6.72442 19.102 6.75826 19.1495 6.80543 19.1907C6.8526 19.232 6.91173 19.2659 6.98281 19.2925C7.05389 19.3192 7.13712 19.3365 7.23247 19.3447L7.29378 19.3499C7.3687 19.3562 7.44019 19.352 7.50826 19.3372C7.57544 19.3214 7.63569 19.2957 7.68901 19.26C7.74243 19.2234 7.78591 19.1776 7.81945 19.1226C7.85308 19.0667 7.87333 19.0018 7.88018 18.9279C7.88903 18.8326 7.87706 18.7502 7.84427 18.6808C7.81148 18.6113 7.7648 18.5491 7.7042 18.4939L7.84927 18.3416C7.89768 18.38 7.9428 18.4275 7.98464 18.484C8.02647 18.5404 8.05842 18.6083 8.08048 18.6876C8.10263 18.766 8.10888 18.8572 8.09923 18.9612Z" fill="white"/>
<path d="M7.81468 15.5361L8.0226 15.6071L7.72997 16.3923L7.52205 16.3212L7.81468 15.5361ZM6.8919 16.0455L8.3917 16.5581L8.29706 16.812L6.79726 16.2995L6.8919 16.0455ZM7.24132 15.108L8.74112 15.6206L8.64596 15.8759L7.14616 15.3633L7.24132 15.108Z" fill="white"/>
<path d="M8.21518 12.9374L8.37316 12.7172L8.85512 13.0623C8.97735 13.1497 9.07589 13.235 9.15076 13.3181C9.22562 13.4012 9.28247 13.4819 9.3213 13.56C9.35932 13.6375 9.38401 13.7128 9.39536 13.7856C9.40729 13.8577 9.41115 13.9268 9.40693 13.993L9.32836 14.1025L9.14784 13.975L9.17907 13.9289C9.16604 13.8818 9.15163 13.8349 9.13582 13.7883C9.11921 13.7412 9.09505 13.692 9.06335 13.6408C9.03083 13.589 8.98555 13.5341 8.92752 13.4761C8.86923 13.4167 8.79216 13.3526 8.69629 13.2837L8.21518 12.9374ZM8.25446 12.8826L8.81039 12.1078L10.1345 12.9789L9.97652 13.1991L8.86167 12.4657L8.46373 13.0203L8.25446 12.8826ZM9.10648 14.0301L10.0672 12.6911L10.6436 13.0703L10.4856 13.2905L10.0952 13.0337L9.45048 13.9323L9.84086 14.1891L9.68202 14.4105L9.10648 14.0301Z" fill="white"/>
<path d="M11.4334 11.2113L10.8011 9.88481L11.0217 9.69659L11.7842 11.4488C11.7996 11.4869 11.8134 11.5303 11.8254 11.579C11.8388 11.6278 11.8454 11.6793 11.8451 11.7334C11.8448 11.7875 11.8332 11.841 11.8104 11.8938C11.789 11.9467 11.7508 11.9966 11.6958 12.0435C11.6794 12.0574 11.6566 12.073 11.6274 12.0903C11.5981 12.1075 11.577 12.1192 11.5639 12.1252L11.4131 11.9653C11.4198 11.9609 11.4297 11.9537 11.443 11.9436C11.4577 11.9337 11.4677 11.9264 11.4729 11.922C11.5197 11.8821 11.5538 11.8421 11.5752 11.8021C11.5972 11.7627 11.6064 11.7196 11.6028 11.6727C11.6005 11.6259 11.5853 11.5716 11.5571 11.5097L11.4334 11.2113ZM10.2193 10.381L11.3705 11.0148L11.6186 11.1784L11.5382 11.3777L9.99416 10.573L10.2193 10.381Z" fill="white"/>
<path d="M13.2068 9.46769L13.299 8.1257L13.542 8.00242L14.3094 9.3892L14.0665 9.51249L13.5069 8.50123L13.4146 9.84322L13.1742 9.96518L12.4068 8.57839L12.6472 8.45643L13.2068 9.46769ZM12.8891 7.69022L13.085 7.5908C13.1219 7.65744 13.1391 7.72478 13.1366 7.79281C13.1336 7.85999 13.111 7.9229 13.0687 7.98156C13.0264 8.04022 12.9652 8.08987 12.8851 8.13052C12.7641 8.19194 12.6508 8.20893 12.5452 8.18149C12.4401 8.15276 12.3596 8.08798 12.3038 7.98715L12.4998 7.88773C12.5277 7.93814 12.5671 7.97506 12.618 7.99849C12.6689 8.02192 12.73 8.01552 12.8014 7.97928C12.8711 7.94393 12.9101 7.89952 12.9184 7.84605C12.9268 7.79257 12.917 7.74063 12.8891 7.69022Z" fill="white"/>
<path d="M17.9919 7.67598L18.6405 6.47612L18.9124 6.45862L19.0233 8.03969L18.7514 8.05719L18.6705 6.90426L18.022 8.10412L17.753 8.12143L17.642 6.54036L17.911 6.52305L17.9919 7.67598Z" fill="white"/>
<path d="M23.5474 7.68286L23.2716 7.5886L23.3299 7.43212L23.5849 7.51928C23.6561 7.5436 23.7157 7.55417 23.7638 7.55099C23.8122 7.5469 23.8511 7.53184 23.8806 7.50582C23.9101 7.47979 23.9329 7.44527 23.9489 7.40226C23.9632 7.36383 23.9665 7.32421 23.9588 7.28341C23.9524 7.242 23.9314 7.20335 23.8958 7.16747C23.8605 7.13066 23.8064 7.09979 23.7334 7.07484C23.6743 7.05463 23.6167 7.04683 23.5608 7.05146C23.5053 7.05517 23.4565 7.06997 23.4146 7.09587C23.3739 7.12117 23.3454 7.15578 23.329 7.19971L23.0726 7.11207C23.1063 7.02148 23.1612 6.95254 23.2372 6.90526C23.3144 6.85737 23.4031 6.83043 23.5032 6.82442C23.6043 6.81874 23.7066 6.83358 23.8101 6.86895C23.897 6.89863 23.971 6.93477 24.0323 6.97735C24.0947 7.01934 24.1432 7.06684 24.1776 7.11987C24.2124 7.17198 24.2321 7.22929 24.237 7.2918C24.2431 7.35372 24.233 7.41991 24.2067 7.49037C24.188 7.5407 24.1582 7.58418 24.1175 7.62081C24.0767 7.65743 24.0272 7.6854 23.969 7.70469C23.9111 7.72308 23.8462 7.73083 23.7744 7.72794C23.7035 7.72536 23.6278 7.71034 23.5474 7.68286ZM23.3074 7.49252L23.5832 7.58678C23.6729 7.61741 23.7486 7.65311 23.8105 7.69386C23.8728 7.7337 23.9209 7.77799 23.9548 7.82672C23.9887 7.87545 24.0082 7.92802 24.0132 7.98441C24.0195 8.04021 24.0111 8.09922 23.9879 8.16144C23.9619 8.23099 23.9243 8.28877 23.8748 8.3348C23.8266 8.38023 23.7695 8.41332 23.7034 8.43407C23.6373 8.45482 23.5645 8.46294 23.4849 8.45844C23.4063 8.45426 23.3235 8.43732 23.2366 8.40764C23.1396 8.37448 23.0515 8.3258 22.9723 8.26159C22.8931 8.19738 22.8367 8.12086 22.8031 8.03202C22.7699 7.94226 22.7733 7.84385 22.8132 7.73679L23.0696 7.82442C23.0529 7.86926 23.0513 7.91671 23.065 7.96676C23.0786 8.01681 23.1063 8.06288 23.1479 8.10495C23.1904 8.14734 23.2454 8.18007 23.3129 8.20312C23.3849 8.22775 23.4491 8.2373 23.5053 8.23176C23.5616 8.22622 23.6085 8.20925 23.6462 8.18086C23.6848 8.15278 23.7121 8.11724 23.7281 8.07423C23.7489 8.01841 23.7546 7.96978 23.745 7.92835C23.7354 7.88691 23.7105 7.85052 23.6701 7.81917C23.6309 7.78723 23.5758 7.7591 23.5046 7.73478L23.2496 7.64762L23.3074 7.49252Z" fill="white"/>
<path d="M26.4056 9.40122L26.8711 8.7311C26.9068 8.67976 26.927 8.62843 26.9317 8.57709C26.9379 8.52548 26.9272 8.47587 26.8997 8.42826C26.8722 8.38065 26.8275 8.33718 26.7657 8.29783C26.7081 8.26111 26.6507 8.23848 26.5937 8.22992C26.5375 8.22189 26.4862 8.22565 26.4397 8.24119C26.3941 8.25726 26.3588 8.28334 26.3337 8.31943L26.1051 8.17386C26.1374 8.12734 26.1818 8.08909 26.2383 8.05911C26.2948 8.02913 26.3589 8.01038 26.4306 8.00286C26.5038 7.99507 26.5804 8.00106 26.6605 8.02085C26.742 8.04036 26.8231 8.07582 26.9038 8.12723C27.001 8.18913 27.0756 8.25973 27.1274 8.33903C27.1801 8.41885 27.2049 8.50462 27.2017 8.59634C27.2 8.68778 27.1654 8.78203 27.098 8.87908L26.6768 9.48543C26.6468 9.52875 26.6184 9.57723 26.5919 9.63087C26.5661 9.68504 26.5488 9.73476 26.5399 9.78002L26.5266 9.79927L26.2881 9.6474C26.2944 9.61439 26.309 9.57453 26.332 9.52782C26.3555 9.48031 26.38 9.43811 26.4056 9.40122ZM26.8388 8.85974L26.7326 9.01772L26.5016 8.87057C26.4365 8.82913 26.3748 8.79736 26.3165 8.77526C26.2587 8.75236 26.2056 8.73992 26.1571 8.73794C26.1086 8.73596 26.0646 8.74443 26.0254 8.76337C25.9866 8.78151 25.9533 8.81063 25.9255 8.85073C25.8971 8.89163 25.8806 8.93496 25.8762 8.98071C25.8717 9.02647 25.8815 9.07143 25.9054 9.11562C25.9308 9.15952 25.9714 9.19931 26.0275 9.23498C26.0975 9.27957 26.1693 9.30448 26.2429 9.3097C26.3165 9.31493 26.3834 9.30666 26.4437 9.28488C26.5048 9.26363 26.5502 9.23415 26.58 9.19642L26.6032 9.36566C26.574 9.39567 26.5325 9.423 26.4785 9.44764C26.4246 9.47229 26.3631 9.48982 26.2941 9.50024C26.2265 9.51038 26.1548 9.50926 26.079 9.49687C26.0046 9.48421 25.9312 9.4548 25.8587 9.40864C25.7681 9.35093 25.7006 9.28307 25.6562 9.20504C25.6126 9.12753 25.5919 9.04784 25.5941 8.96596C25.5978 8.8838 25.6246 8.80663 25.6748 8.73444C25.7232 8.66467 25.7799 8.61223 25.8446 8.57713C25.91 8.54122 25.9812 8.52241 26.0585 8.5207C26.1363 8.51818 26.2186 8.5313 26.3056 8.56007C26.3925 8.58883 26.4817 8.63233 26.5731 8.69056L26.8388 8.85974Z" fill="white"/>
<path d="M29.0208 9.9832L27.6011 11.2303L27.4126 11.0336L29.0612 9.58538L29.2335 9.7652L29.0208 9.9832ZM29.4029 11.0675L29.3798 11.0878C29.2933 11.1639 29.2035 11.2246 29.1104 11.2699C29.0182 11.3146 28.9266 11.3418 28.8359 11.3514C28.7458 11.3617 28.6593 11.3526 28.5765 11.324C28.4938 11.2954 28.4183 11.2455 28.35 11.1743C28.2804 11.1017 28.2314 11.0266 28.203 10.9489C28.1746 10.8713 28.1656 10.7922 28.1762 10.7115C28.1867 10.6308 28.2142 10.5495 28.2587 10.4676C28.3038 10.3864 28.3642 10.3048 28.4397 10.2229L28.5629 10.1146C28.6591 10.0457 28.7532 9.9923 28.8452 9.95435C28.9372 9.91639 29.026 9.89486 29.1116 9.88976C29.1987 9.88472 29.2814 9.89842 29.3597 9.93086C29.4389 9.96267 29.5129 10.0145 29.5818 10.0865C29.6507 10.1584 29.6972 10.2351 29.7212 10.3166C29.7459 10.3974 29.7498 10.4804 29.7327 10.5655C29.7156 10.6507 29.6788 10.7356 29.6222 10.8204C29.567 10.9052 29.4939 10.9876 29.4029 11.0675ZM29.1913 10.8911L29.2145 10.8708C29.2739 10.8186 29.3239 10.7636 29.3645 10.7059C29.4058 10.6475 29.4342 10.5882 29.4495 10.528C29.4662 10.4679 29.4673 10.4084 29.4529 10.3497C29.4392 10.2902 29.4067 10.2337 29.3554 10.1801C29.3081 10.1308 29.2581 10.0955 29.2053 10.0743C29.1533 10.0538 29.1 10.0441 29.0456 10.0451C28.992 10.0455 28.9383 10.0544 28.8846 10.0717C28.8323 10.089 28.7823 10.1115 28.7345 10.1392L28.4495 10.3896C28.4116 10.4488 28.3821 10.5111 28.3609 10.5765C28.3405 10.6412 28.3366 10.7069 28.3493 10.7737C28.3627 10.8399 28.4001 10.905 28.4616 10.9692C28.5122 11.0221 28.5672 11.0576 28.6264 11.0757C28.687 11.0938 28.7494 11.0975 28.8134 11.0868C28.878 11.0767 28.9422 11.0548 29.0057 11.021C29.07 10.9866 29.1319 10.9433 29.1913 10.8911Z" fill="white"/>
<path d="M30.5151 13.3011L31.236 12.9191C31.2912 12.8899 31.3328 12.8535 31.3606 12.81C31.3898 12.7669 31.4032 12.7179 31.4007 12.6629C31.3982 12.6079 31.3787 12.5487 31.342 12.4852C31.3078 12.4261 31.2674 12.3795 31.2208 12.3457C31.1747 12.3127 31.1275 12.2924 31.0791 12.2849C31.0313 12.2782 30.988 12.2852 30.9492 12.3057L30.8136 12.0711C30.8636 12.0446 30.9206 12.031 30.9844 12.0303C31.0482 12.0296 31.1137 12.0424 31.1808 12.0687C31.2492 12.0954 31.3143 12.136 31.3762 12.1904C31.4395 12.2453 31.495 12.3141 31.5429 12.397C31.6006 12.4968 31.6341 12.5938 31.6436 12.6882C31.6536 12.7835 31.636 12.8712 31.5911 12.9513C31.5474 13.0319 31.4734 13.0998 31.369 13.1551L30.7167 13.5008C30.6701 13.5255 30.6226 13.5556 30.5744 13.5911C30.5267 13.6274 30.4884 13.6637 30.4598 13.6999L30.439 13.7109L30.2976 13.4661C30.3184 13.4396 30.3497 13.4109 30.3915 13.3799C30.4342 13.3484 30.4754 13.3222 30.5151 13.3011ZM31.1481 13.0187L30.9813 13.1104L30.8443 12.8732C30.8057 12.8064 30.7656 12.7498 30.7241 12.7033C30.6835 12.6564 30.6421 12.6209 30.6 12.5968C30.5579 12.5727 30.5151 12.5601 30.4715 12.5588C30.4289 12.5571 30.386 12.5677 30.3428 12.5906C30.2988 12.6139 30.2643 12.6449 30.2393 12.6835C30.2143 12.7222 30.2022 12.7667 30.2031 12.817C30.2054 12.8677 30.2231 12.9218 30.2564 12.9793C30.2979 13.0512 30.3501 13.1064 30.4129 13.1449C30.4757 13.1834 30.5389 13.2068 30.6023 13.2152C30.6662 13.2244 30.7201 13.219 30.7638 13.1991L30.7065 13.3604C30.6669 13.3737 30.6175 13.3789 30.5583 13.376C30.4991 13.3731 30.4366 13.3604 30.3706 13.3379C30.306 13.3158 30.243 13.2819 30.1815 13.236C30.1214 13.1905 30.0699 13.1306 30.0269 13.0562C29.9731 12.9632 29.9445 12.8718 29.9411 12.7819C29.9381 12.6929 29.9565 12.6125 29.9961 12.5407C30.0371 12.4693 30.0965 12.413 30.1741 12.3718C30.2492 12.3321 30.3235 12.3115 30.3971 12.31C30.4715 12.3081 30.5433 12.3242 30.6126 12.3582C30.6827 12.3917 30.7496 12.4413 30.8135 12.5069C30.8773 12.5724 30.9363 12.6522 30.9906 12.746L31.1481 13.0187Z" fill="white"/>
<path d="M33.7081 15.4723L33.7687 15.6865C33.676 15.7105 33.5983 15.7155 33.5355 15.7016C33.4736 15.6873 33.4212 15.6596 33.378 15.6183C33.3352 15.578 33.2975 15.5293 33.2652 15.4721C33.233 15.4159 33.2007 15.3572 33.1682 15.296C33.1283 15.2196 33.0801 15.1514 33.0236 15.0915C32.9683 15.0322 32.9005 14.9862 32.8202 14.9535C32.7402 14.9218 32.644 14.908 32.5315 14.9119C32.4192 14.9168 32.2866 14.9447 32.1335 14.9954L32.0031 15.0292L31.9425 14.815L32.0729 14.7812C32.2478 14.7358 32.4051 14.7127 32.5449 14.7118C32.6849 14.7118 32.8084 14.7307 32.9155 14.7685C33.0226 14.8063 33.1144 14.8601 33.191 14.93C33.2679 15.0009 33.3306 15.0845 33.3791 15.1808C33.414 15.2504 33.4469 15.3095 33.4779 15.3579C33.5098 15.4062 33.5438 15.4402 33.5798 15.4601C33.6162 15.4809 33.6589 15.485 33.7081 15.4723ZM32.865 15.3595C32.8932 15.4591 32.9008 15.5524 32.8879 15.6395C32.875 15.7266 32.845 15.8055 32.798 15.8761C32.751 15.9468 32.689 16.0073 32.6119 16.0575C32.536 16.1085 32.4484 16.1468 32.3492 16.1725L32.318 16.1806C32.2112 16.2083 32.1075 16.2185 32.007 16.2113C31.9078 16.2048 31.8158 16.1807 31.731 16.1392C31.6474 16.0983 31.5747 16.0405 31.513 15.9657C31.4515 15.8919 31.4057 15.8014 31.3754 15.6943C31.3451 15.5871 31.3369 15.4864 31.3508 15.392C31.3649 15.2986 31.3972 15.2136 31.4476 15.137C31.4989 15.0601 31.5655 14.9944 31.6475 14.9399C31.7307 14.886 31.8257 14.8453 31.9325 14.8176L31.9637 14.8095C31.9874 14.8034 32.0117 14.8016 32.0368 14.8042C32.0619 14.8067 32.088 14.8111 32.1151 14.8171C32.1424 14.8242 32.1708 14.8294 32.2002 14.8329C32.2951 14.8456 32.3874 14.8726 32.4772 14.9139C32.5673 14.9561 32.6465 15.0137 32.7148 15.0868C32.7844 15.1605 32.8345 15.2514 32.865 15.3595ZM32.6365 15.3643C32.6094 15.2684 32.5649 15.1952 32.5029 15.1447C32.4412 15.0952 32.3693 15.0649 32.287 15.054C32.2057 15.0428 32.1226 15.0482 32.0375 15.0703L32.0063 15.0783C31.9344 15.097 31.8688 15.1231 31.8093 15.1566C31.7498 15.1902 31.6998 15.2304 31.6592 15.2772C31.6199 15.3248 31.5935 15.3785 31.58 15.4385C31.5668 15.4994 31.5704 15.566 31.5909 15.6384C31.6113 15.7108 31.6432 15.7696 31.6864 15.8148C31.7297 15.8601 31.7807 15.8933 31.8394 15.9144C31.899 15.9352 31.9634 15.9458 32.0325 15.946C32.1015 15.9463 32.172 15.9371 32.2438 15.9184L32.275 15.9104C32.3393 15.8937 32.3979 15.8694 32.4508 15.8376C32.5037 15.8057 32.5474 15.7666 32.582 15.7203C32.6169 15.675 32.6395 15.6222 32.6499 15.562C32.6614 15.5025 32.657 15.4366 32.6365 15.3643Z" fill="white"/>
<path d="M32.2701 18.5991L33.0857 18.5791C33.1482 18.5776 33.2021 18.5636 33.2473 18.5371C33.2935 18.5115 33.3286 18.4736 33.3527 18.4231C33.3767 18.3727 33.3878 18.3109 33.3858 18.2377C33.384 18.1694 33.3707 18.1096 33.3458 18.0585C33.3211 18.0083 33.2892 17.969 33.2504 17.9406C33.2115 17.9133 33.1702 17.9001 33.1262 17.9012L33.119 17.6303C33.1756 17.6289 33.2322 17.6422 33.2886 17.6701C33.345 17.698 33.3964 17.7388 33.4428 17.7923C33.4901 17.8469 33.528 17.9124 33.5565 17.9888C33.5859 18.0663 33.6019 18.1528 33.6044 18.2485C33.6075 18.3637 33.5907 18.4657 33.554 18.5545C33.5173 18.6443 33.4601 18.715 33.3823 18.7668C33.3056 18.8194 33.2082 18.8472 33.09 18.8501L32.352 18.8682C32.2993 18.8695 32.2432 18.8752 32.1839 18.8855C32.1246 18.8967 32.0738 18.9121 32.0313 18.9317L32.0079 18.9323L32.0003 18.6497C32.0312 18.6353 32.0724 18.6235 32.1239 18.6144C32.1764 18.6053 32.2251 18.6002 32.2701 18.5991ZM32.961 18.6291L32.7707 18.6367L32.7634 18.3629C32.7614 18.2857 32.7532 18.2171 32.7389 18.1568C32.7255 18.0966 32.7061 18.0463 32.6806 18.0059C32.6551 17.9655 32.6235 17.935 32.5859 17.9144C32.5492 17.8938 32.5064 17.8841 32.4576 17.8853C32.4078 17.8866 32.3627 17.8989 32.3223 17.9223C32.2819 17.9458 32.2501 17.9803 32.2269 18.0258C32.2047 18.0722 32.1945 18.1287 32.1963 18.195C32.1985 18.278 32.218 18.3508 32.2548 18.4134C32.2917 18.476 32.336 18.5252 32.3877 18.5611C32.4395 18.5979 32.4894 18.6172 32.5373 18.619L32.41 18.7378C32.3689 18.732 32.323 18.7146 32.2724 18.6855C32.2218 18.6565 32.1728 18.6171 32.1256 18.5675C32.0794 18.5188 32.0402 18.4602 32.0081 18.3916C31.977 18.324 31.9603 18.2472 31.958 18.1613C31.9551 18.0539 31.9736 17.9592 32.0134 17.8772C32.0532 17.7961 32.1077 17.7322 32.1768 17.6856C32.2469 17.6399 32.3259 17.616 32.4137 17.6139C32.4987 17.6118 32.5738 17.6266 32.6391 17.6582C32.7054 17.6898 32.7609 17.7363 32.8055 17.7977C32.8511 17.8591 32.8863 17.9334 32.9111 18.0208C32.9359 18.1081 32.9497 18.2059 32.9526 18.3143L32.961 18.6291Z" fill="white"/>
<path d="M33.4446 21.3563L31.8899 21.0484L31.9474 20.7821L33.5022 21.09L33.4446 21.3563ZM33.3324 21.8761L33.1168 21.8334L33.3967 20.5376L33.6122 20.5803L33.3324 21.8761Z" fill="white"/>
<path d="M32.332 23.6344L32.1091 24.0551C32.0492 24.1682 31.9785 24.2537 31.897 24.3118C31.8163 24.3702 31.7303 24.4022 31.639 24.4078C31.5482 24.4147 31.4584 24.3966 31.3696 24.3535C31.3037 24.3215 31.2478 24.2802 31.2017 24.2296C31.1564 24.1794 31.1242 24.1214 31.1049 24.0557C31.0852 23.9907 31.0804 23.9195 31.0905 23.842C31.1011 23.7657 31.1288 23.6853 31.1736 23.6008L31.489 23.0053L32.9147 23.6977L32.7879 23.9372L31.5624 23.3421L31.3739 23.698C31.3373 23.7671 31.3208 23.8285 31.3243 23.8823C31.3278 23.9361 31.345 23.9819 31.3758 24.0196C31.4066 24.0573 31.444 24.0869 31.4879 24.1082C31.531 24.1291 31.5779 24.1405 31.6288 24.1425C31.6797 24.1444 31.7297 24.1313 31.7789 24.1031C31.829 24.0753 31.8723 24.0269 31.9088 23.9578L32.1317 23.5371L32.332 23.6344ZM32.0583 25.3145L30.6326 24.6221L30.7595 24.3826L32.1852 25.075L32.0583 25.3145Z" fill="white"/>
<path d="M29.8067 27.015L30.1655 26.6387L30.3308 26.7793L30.0376 27.0867C29.9796 27.1475 29.9377 27.2035 29.9118 27.2547C29.8852 27.3066 29.8746 27.3538 29.8801 27.3961C29.8855 27.4385 29.9066 27.4757 29.9434 27.5078C29.9721 27.5329 30.0028 27.5488 30.0356 27.5554C30.0684 27.5634 30.1029 27.5618 30.1391 27.5507C30.1761 27.5402 30.2144 27.5206 30.254 27.4917C30.2937 27.4642 30.3355 27.4275 30.3793 27.3816L30.6189 27.1303L29.5911 26.2317L29.7781 26.0356L30.9713 27.0788L30.5447 27.5262C30.4753 27.599 30.4063 27.6586 30.3378 27.705C30.2687 27.7521 30.2009 27.7842 30.1346 27.8014C30.0684 27.82 30.0043 27.8222 29.9422 27.8081C29.8801 27.794 29.8212 27.7626 29.7653 27.7137C29.7293 27.6822 29.7018 27.6452 29.683 27.6028C29.6641 27.5604 29.6553 27.5145 29.6566 27.4651C29.6579 27.4157 29.6696 27.3637 29.6919 27.3093C29.7149 27.2555 29.7491 27.2006 29.7945 27.1444L29.8067 27.015ZM29.2818 26.5561L29.7084 26.1087L29.7808 26.3509L29.4472 26.7007C29.3953 26.7551 29.3591 26.8065 29.3387 26.8547C29.3191 26.9036 29.314 26.9485 29.3236 26.9893C29.3333 27.0315 29.3569 27.0689 29.3944 27.1017C29.4319 27.1345 29.4726 27.1533 29.5166 27.158C29.5607 27.1641 29.6069 27.1553 29.6552 27.1315C29.7043 27.1083 29.7548 27.0695 29.8067 27.015L30.0907 26.7172L30.2519 26.862L29.8971 27.2341L29.7676 27.2511C29.7025 27.3095 29.6354 27.3487 29.5664 27.3688C29.4974 27.3888 29.4312 27.3918 29.3677 27.3778C29.305 27.3644 29.2494 27.3365 29.2009 27.2941C29.145 27.2452 29.1055 27.1919 29.0824 27.1341C29.0586 27.077 29.0506 27.0169 29.0583 26.9537C29.0668 26.8911 29.0896 26.8261 29.1268 26.7589C29.1647 26.6922 29.2164 26.6246 29.2818 26.5561Z" fill="white"/>
<path d="M27.2319 28.7279L27.7012 29.3953C27.7372 29.4465 27.779 29.4839 27.8268 29.5077C27.8742 29.5328 27.9262 29.5423 27.9827 29.536C28.0391 29.5298 28.0981 29.5069 28.1597 29.4672C28.2172 29.4301 28.2609 29.388 28.2909 29.3408C28.3201 29.2941 28.3361 29.2472 28.3388 29.2002C28.3407 29.1537 28.329 29.1125 28.3037 29.0765L28.5314 28.9297C28.564 28.976 28.584 29.0299 28.5914 29.0913C28.5988 29.1527 28.5924 29.2166 28.5723 29.2829C28.5519 29.3507 28.5169 29.4162 28.4673 29.4796C28.4173 29.5443 28.3521 29.6026 28.2717 29.6544C28.1749 29.7169 28.0783 29.7559 27.9819 29.7716C27.8848 29.7878 27.7925 29.7771 27.7052 29.7394C27.6175 29.703 27.5397 29.6365 27.4718 29.5398L27.0471 28.9359C27.0167 28.8928 26.9807 28.8492 26.9391 28.8053C26.8966 28.7618 26.8552 28.7276 26.8149 28.7025L26.8014 28.6833L27.039 28.5301C27.0685 28.5482 27.1014 28.5764 27.1377 28.6145C27.1746 28.6534 27.206 28.6912 27.2319 28.7279ZM27.5893 29.3177L27.4773 29.1635L27.7076 29.0151C27.7724 28.9733 27.8266 28.9308 27.8702 28.8876C27.9143 28.8452 27.9466 28.8029 27.967 28.7607C27.9875 28.7185 27.996 28.6764 27.9927 28.6344C27.99 28.5932 27.9746 28.5526 27.9465 28.5127C27.9179 28.4719 27.8823 28.4409 27.8398 28.4195C27.7974 28.3981 27.7502 28.3896 27.6984 28.394C27.6464 28.3997 27.5924 28.4205 27.5366 28.4565C27.4669 28.5015 27.4154 28.5556 27.3823 28.6187C27.3492 28.6819 27.3316 28.7443 27.3297 28.8059C27.3269 28.8681 27.338 28.9196 27.3631 28.9603L27.1908 28.9164C27.173 28.8791 27.1624 28.8319 27.1592 28.7748C27.156 28.7176 27.1625 28.6565 27.1788 28.5915C27.1948 28.5277 27.2233 28.4647 27.2641 28.4023C27.3047 28.3413 27.3611 28.2875 27.4334 28.241C27.5236 28.1828 27.6149 28.1489 27.7072 28.1393C27.7987 28.1302 27.8835 28.1423 27.9617 28.1755C28.0396 28.21 28.1039 28.2632 28.1544 28.3351C28.2033 28.4046 28.2323 28.4747 28.2415 28.5454C28.2512 28.6169 28.2422 28.6872 28.2144 28.7562C28.1871 28.826 28.143 28.8939 28.0821 28.9599C28.0212 29.0259 27.9451 29.0883 27.854 29.147L27.5893 29.3177Z" fill="white"/>
<path d="M25.319 30.0304L25.0293 31.3494L24.7713 31.4372L24.2198 29.9513L24.4777 29.8635L24.8799 30.947L25.1697 29.628L25.4248 29.5411L25.9764 31.027L25.7212 31.1139L25.319 30.0304ZM25.3691 31.8401L25.1611 31.9108C25.1346 31.8394 25.1276 31.7701 25.1402 31.703C25.1531 31.6367 25.1847 31.5775 25.2351 31.5253C25.2855 31.4731 25.3532 31.4325 25.4383 31.4035C25.5668 31.3598 25.681 31.3591 25.7811 31.4013C25.8805 31.4448 25.9503 31.5206 25.9904 31.6286L25.7824 31.6994C25.7623 31.6454 25.7289 31.6031 25.6822 31.5726C25.6355 31.5421 25.5742 31.5398 25.4984 31.5656C25.4245 31.5908 25.3794 31.6293 25.3633 31.6812C25.3471 31.7331 25.3491 31.786 25.3691 31.8401Z" fill="white"/>
<path d="M22.2857 20.9375C21.882 20.9375 21.5109 21.0826 21.218 21.3252L19.3879 20.1367C19.4421 19.882 19.4421 19.618 19.3879 19.3633L21.218 18.1748C21.5109 18.4174 21.882 18.5625 22.2857 18.5625C23.2325 18.5625 24 17.765 24 16.7813C24 15.7975 23.2325 15 22.2857 15C21.3389 15 20.5714 15.7975 20.5714 16.7813C20.5714 16.9141 20.5855 17.0434 20.6121 17.1679L18.782 18.3565C18.4891 18.1138 18.118 17.9688 17.7143 17.9688C16.7675 17.9688 16 18.7662 16 19.75C16 20.7338 16.7675 21.5313 17.7143 21.5313C18.118 21.5313 18.4891 21.3862 18.782 21.1436L20.6121 22.3321C20.585 22.459 20.5714 22.5887 20.5714 22.7188C20.5714 23.7025 21.3389 24.5 22.2857 24.5C23.2325 24.5 24 23.7025 24 22.7188C24 21.735 23.2325 20.9375 22.2857 20.9375Z" fill="white"/>
</g>
<defs>
<linearGradient id="paint0_linear_419_2605" x1="36.4883" y1="19.426" x2="2.36328" y2="19.426" gradientUnits="userSpaceOnUse">
<stop stop-color="#CB11AB"/>
<stop offset="1" stop-color="#481173"/>
</linearGradient>
<clipPath id="clip0_419_2605">
<rect width="39" height="39" fill="white"/>
</clipPath>
</defs>
</svg>
