<svg width="61" height="61" viewBox="0 0 61 61" fill="none" xmlns="http://www.w3.org/2000/svg">
<path d="M30.8142 4.3145C45.3512 4.3145 57.1784 16.0806 57.1784 30.5426C57.1784 45.0047 45.3512 56.7708 30.8142 56.7708C16.2771 56.7708 4.44991 45.0047 4.44991 30.5426C4.44991 16.0806 16.2771 4.3145 30.8142 4.3145ZM30.8142 0.567627C14.1736 0.567627 0.683594 13.988 0.683594 30.5426C0.683594 47.0973 14.1736 60.5177 30.8142 60.5177C47.4547 60.5177 60.9447 47.0973 60.9447 30.5426C60.9447 13.988 47.4547 0.567627 30.8142 0.567627Z" fill="#FBEC9A"/>
<path d="M30.8142 56.9203C16.1941 56.9203 4.29932 45.087 4.29932 30.5423C4.29932 15.9977 16.1941 4.16431 30.8142 4.16431C45.4343 4.16431 57.3291 15.9977 57.3291 30.5423C57.3291 45.087 45.4343 56.9203 30.8142 56.9203Z" fill="url(#paint0_linear_301_2358)"/>
<path d="M4.45108 30.5524C4.45108 16.0857 16.2819 4.31573 30.8235 4.31573C38.2878 4.31573 45.0325 7.42197 49.8351 12.3976L52.5082 9.7383C47.0265 4.08803 39.3399 0.567627 30.8235 0.567627C14.1778 0.567627 0.683594 13.9924 0.683594 30.5524C0.683594 39.025 4.2222 46.6721 9.90168 52.1247L12.5747 49.4654C7.57338 44.6884 4.45108 37.9784 4.45108 30.5524Z" fill="#FCF6C2"/>
<path d="M23.2595 49.7383L23.9313 49.9587L23.7019 50.4358L23.0302 50.2153C22.9386 50.1853 22.8573 50.1756 22.7863 50.1862C22.7153 50.1969 22.6544 50.2238 22.6036 50.2669C22.551 50.3108 22.5089 50.3656 22.4773 50.4313C22.4434 50.5017 22.4257 50.5713 22.4242 50.6401C22.4214 50.7084 22.4397 50.7701 22.4791 50.8252C22.5179 50.8814 22.5832 50.9246 22.6747 50.9546L23.1015 51.0947L24.1044 49.0088L24.7558 49.2226L23.5235 51.7855L22.4454 51.4316C22.2288 51.3606 22.0607 51.2619 21.9409 51.1357C21.8199 51.009 21.749 50.8661 21.728 50.7071C21.7065 50.5492 21.7361 50.3864 21.8168 50.2186C21.8963 50.0531 22.0078 49.9226 22.1512 49.827C22.2945 49.7314 22.4614 49.6747 22.6518 49.6571C22.8404 49.6402 23.043 49.6672 23.2595 49.7383Z" fill="white"/>
<path d="M19.158 47.1496C19.3023 47.2431 19.4143 47.3473 19.494 47.4622C19.5729 47.5781 19.6216 47.6982 19.6399 47.8226C19.6571 47.9463 19.6472 48.0694 19.6102 48.1919C19.5721 48.3137 19.5092 48.4279 19.4216 48.5345L19.3745 48.5919C19.2761 48.7116 19.1671 48.8105 19.0476 48.8888C18.9272 48.968 18.8001 49.0228 18.6662 49.0533C18.5324 49.0837 18.3945 49.0853 18.2527 49.0582C18.1101 49.0321 17.9677 48.973 17.8257 48.8809C17.7 48.7995 17.6028 48.7079 17.5339 48.6063C17.4651 48.5046 17.4248 48.3968 17.413 48.2828C17.4001 48.168 17.4161 48.0497 17.4611 47.9277C17.5049 47.8051 17.5773 47.6824 17.6782 47.5596L17.848 47.3529L19.297 48.2919L19.0353 48.6103L18.1256 48.0208L18.0934 48.06C18.0477 48.1136 18.02 48.1666 18.0105 48.219C17.9998 48.2707 18.0064 48.3197 18.0303 48.366C18.0542 48.4123 18.0951 48.4542 18.153 48.4918C18.2131 48.5307 18.2728 48.5509 18.3319 48.5522C18.39 48.5529 18.4474 48.5391 18.5039 48.511C18.5586 48.4832 18.6126 48.445 18.666 48.3964C18.7194 48.3477 18.7709 48.2932 18.8205 48.2328L18.8676 48.1755C18.9172 48.1151 18.9535 48.0547 18.9765 47.994C18.9985 47.9327 19.007 47.8735 19.002 47.8163C18.9952 47.7594 18.9756 47.7059 18.9432 47.6556C18.9097 47.6046 18.8619 47.559 18.7996 47.5186C18.7242 47.4697 18.6391 47.4347 18.5444 47.4134C18.4497 47.3921 18.3513 47.3946 18.2493 47.421L18.2242 46.9839C18.2991 46.9599 18.3881 46.9475 18.4911 46.9464C18.593 46.9446 18.7015 46.9594 18.8164 46.9907C18.9305 47.023 19.0444 47.076 19.158 47.1496Z" fill="white"/>
<path d="M14.0565 46.1007L15.7201 44.7975L16.1609 45.2863L14.4973 46.5895L14.0565 46.1007ZM13.1396 45.084L14.8028 44.8801L15.1978 45.3181L14.7632 45.7526L14.5264 45.4901L13.7046 45.7106L13.1396 45.084ZM15.3591 44.3972L14.9466 45.2228L14.3204 44.9387L14.7613 43.7344L15.3591 44.3972Z" fill="white"/>
<path d="M12.3592 42.5654L12.3224 42.5833C12.183 42.6511 12.0449 42.6936 11.9081 42.7109C11.77 42.7288 11.6385 42.7203 11.5136 42.6855C11.3886 42.6507 11.2739 42.5885 11.1696 42.4988C11.0641 42.4097 10.9744 42.2911 10.9007 42.1431C10.8263 41.9939 10.7856 41.8508 10.7784 41.7139C10.7695 41.5763 10.7893 41.448 10.8376 41.329C10.8859 41.2099 10.9594 41.1018 11.0579 41.0047C11.1553 40.9082 11.2736 40.826 11.413 40.7583L11.4498 40.7403C11.588 40.6732 11.7261 40.6306 11.8641 40.6127C12.001 40.5954 12.1325 40.6039 12.2586 40.6381C12.3836 40.6729 12.4983 40.7351 12.6026 40.8248C12.707 40.9145 12.796 41.0334 12.8698 41.1814C12.9435 41.3294 12.9848 41.4722 12.9937 41.6098C13.0026 41.7473 12.9829 41.8756 12.9346 41.9947C12.8851 42.1143 12.8117 42.2224 12.7143 42.3189C12.6158 42.416 12.4974 42.4982 12.3592 42.5654ZM12.0288 41.9942L12.0657 41.9763C12.1371 41.9415 12.2013 41.9038 12.2581 41.8632C12.3149 41.8225 12.3607 41.7785 12.3953 41.7313C12.4288 41.6846 12.448 41.634 12.4528 41.5796C12.4577 41.5251 12.4444 41.4664 12.4131 41.4034C12.3823 41.3417 12.3439 41.2967 12.2978 41.2684C12.2511 41.239 12.1988 41.2231 12.141 41.2209C12.0819 41.2191 12.0188 41.2281 11.9515 41.2478C11.8842 41.2675 11.8148 41.2947 11.7434 41.3294L11.7065 41.3474C11.6374 41.381 11.575 41.4178 11.5194 41.4579C11.4625 41.4986 11.4168 41.5425 11.3821 41.5898C11.3463 41.6376 11.3254 41.689 11.3194 41.7441C11.3134 41.7991 11.326 41.8581 11.3574 41.921C11.3882 41.9828 11.4275 42.0281 11.4753 42.057C11.5226 42.0847 11.5763 42.0991 11.6365 42.1002C11.6955 42.1019 11.7587 42.0929 11.826 42.0732C11.8921 42.0541 11.9597 42.0278 12.0288 41.9942Z" fill="white"/>
<path d="M10.4079 37.0212L8.97826 36.847L8.89797 36.3436L11.0826 36.6469L11.1519 37.0809L9.20865 38.2916L9.12806 37.7863L10.4079 37.0212ZM9.15144 37.9329L11.2152 37.4782L11.3189 38.1282L9.2551 38.5828L9.15144 37.9329ZM11.0156 36.2264L8.9518 36.6811L8.84814 36.0311L10.9119 35.5764L11.0156 36.2264Z" fill="white"/>
<path d="M10.8852 31.7354C10.8612 31.9056 10.8131 32.057 10.7409 32.1895C10.6674 32.3221 10.5766 32.4334 10.4685 32.5234C10.3606 32.6122 10.2414 32.6793 10.1108 32.7248C9.98045 32.7689 9.84629 32.7889 9.70832 32.7849L9.63414 32.7828C9.47925 32.7783 9.33908 32.7529 9.21361 32.7065C9.08684 32.6601 8.9799 32.5936 8.89278 32.5069C8.80566 32.4203 8.74366 32.3129 8.70678 32.185C8.6686 32.057 8.66131 31.9092 8.6849 31.7416C8.70578 31.5933 8.74855 31.4612 8.81322 31.3453C8.87789 31.2293 8.96085 31.1321 9.06209 31.0534C9.16351 30.9735 9.28099 30.9141 9.41453 30.8753C9.54825 30.8351 9.69451 30.8174 9.85329 30.822L10.1208 30.8297L9.8801 32.5394L9.46817 32.5275L9.61926 31.4541L9.5685 31.4526C9.4984 31.4493 9.4368 31.4598 9.38371 31.4842C9.33081 31.5072 9.28798 31.5422 9.25523 31.5892C9.22249 31.6361 9.20131 31.6938 9.19169 31.7621C9.1817 31.833 9.18907 31.8921 9.21377 31.9395C9.23865 31.9855 9.27661 32.0222 9.32765 32.0496C9.37756 32.0756 9.43694 32.0948 9.50577 32.1072C9.5746 32.1195 9.64806 32.1268 9.72615 32.1291L9.80034 32.1312C9.87843 32.1335 9.95082 32.1252 10.0175 32.1065C10.0844 32.0864 10.1434 32.057 10.1946 32.0184C10.2446 31.9784 10.286 31.9304 10.3187 31.8744C10.3516 31.8171 10.3732 31.7517 10.3836 31.6782C10.3961 31.5892 10.3915 31.501 10.3699 31.4137C10.3482 31.3263 10.3026 31.2505 10.2333 31.1864L10.6302 30.9008C10.6854 30.9451 10.7361 31.0074 10.7823 31.0877C10.8287 31.1667 10.8625 31.2609 10.8837 31.3703C10.9036 31.4796 10.9041 31.6013 10.8852 31.7354Z" fill="white"/>
<path d="M9.795 25.6196L10.2823 25.7552L9.86937 26.7257L9.38203 26.5901L9.795 25.6196ZM8.68205 26.1481L10.718 26.7146L10.4602 27.3203L8.42432 26.7537L8.68205 26.1481ZM9.16614 25.0105L11.2021 25.577L10.9436 26.1845L8.90765 25.6179L9.16614 25.0105Z" fill="white"/>
<path d="M9.94824 21.4538L10.3481 20.931L10.915 21.2785C11.1187 21.4038 11.2786 21.531 11.3948 21.66C11.5107 21.7874 11.5914 21.9149 11.637 22.0427C11.6814 22.1698 11.6972 22.2949 11.6844 22.4181C11.6712 22.5396 11.6379 22.6566 11.5844 22.7692L11.5416 22.8251L11.1033 22.5809L11.1274 22.5365C11.1077 22.4346 11.0806 22.3487 11.0462 22.2787C11.0115 22.207 10.9689 22.1456 10.9184 22.0946C10.8687 22.0426 10.8107 21.9939 10.7444 21.9486C10.677 21.9026 10.6006 21.8535 10.5152 21.8013L9.94824 21.4538ZM10.0598 21.308L10.9473 20.1475L12.7649 21.2255L12.3662 21.7468L10.9854 20.9279L10.4966 21.567L10.0598 21.308ZM11.0135 22.6855L12.5203 20.7152L13.5081 21.301L13.1083 21.8238L12.5573 21.497L11.8608 22.4077L12.4118 22.7345L12.0013 23.2713L11.0135 22.6855Z" fill="white"/>
<path d="M16.0778 17.3265L15.1925 15.6422L15.7346 15.1882L16.7812 17.4689C16.8045 17.5188 16.8261 17.5752 16.846 17.6382C16.8667 17.7021 16.8767 17.7708 16.8759 17.8442C16.8752 17.9177 16.8556 17.9933 16.8173 18.0711C16.78 18.1481 16.7155 18.225 16.6236 18.302C16.5747 18.3429 16.5365 18.3707 16.509 18.3853C16.4834 18.3999 16.4426 18.4214 16.3867 18.4496L16.0575 18.1132C16.0705 18.1023 16.0815 18.0931 16.0904 18.0856C16.1004 18.0772 16.1114 18.068 16.1234 18.058C16.1773 18.0129 16.2152 17.9718 16.2371 17.9348C16.26 17.897 16.2704 17.8612 16.2683 17.8274C16.2671 17.7928 16.2579 17.7574 16.2405 17.7211L16.0778 17.3265ZM14.667 16.0824L16.02 16.872L16.563 17.324L16.2246 17.6074L14.1265 16.5351L14.667 16.0824Z" fill="white"/>
<path d="M19.2253 14.0694L19.1483 12.7241L19.7308 12.4176L20.7508 14.2684L20.1683 14.5749L19.5744 13.4973L19.6533 14.846L19.069 15.1534L18.049 13.3026L18.6332 12.9952L19.2253 14.0694ZM18.715 11.9459L19.1142 11.7358C19.1708 11.8385 19.1946 11.9436 19.1855 12.0513C19.1771 12.1573 19.1372 12.2577 19.0661 12.3525C18.995 12.4473 18.8943 12.529 18.7641 12.5975C18.5671 12.7012 18.3842 12.7349 18.2156 12.6986C18.0463 12.6612 17.9189 12.5649 17.8335 12.4098L18.231 12.2006C18.2618 12.2565 18.3079 12.297 18.3693 12.322C18.4307 12.3471 18.5057 12.3363 18.5944 12.2896C18.6832 12.2429 18.7331 12.1879 18.7443 12.1247C18.7555 12.0614 18.7457 12.0018 18.715 11.9459Z" fill="white"/>
<path d="M28.3601 10.7248L28.9027 9.43299L29.5567 9.35864L29.6182 11.471L28.9642 11.5453L28.9284 10.3154L28.3859 11.6111L27.7299 11.6857L27.6685 9.57332L28.3244 9.49874L28.3601 10.7248Z" fill="white"/>
<path d="M37.4727 11.5208L37.055 11.4045L37.159 11.1601L37.4205 11.2329C37.4745 11.2479 37.5211 11.2522 37.5603 11.2457C37.6008 11.2395 37.6344 11.2248 37.6612 11.2014C37.6898 11.1772 37.7117 11.1471 37.727 11.1112C37.7402 11.08 37.7473 11.0485 37.7483 11.0166C37.7505 10.985 37.7406 10.9555 37.7187 10.9279C37.6967 10.9004 37.6563 10.8784 37.5973 10.862C37.5484 10.8484 37.5032 10.8425 37.4617 10.8444C37.4202 10.8462 37.3841 10.8569 37.3533 10.8765C37.3231 10.8949 37.2998 10.9232 37.2835 10.9616L36.6475 10.7846C36.701 10.6588 36.7843 10.562 36.8973 10.4943C37.0108 10.4254 37.1408 10.3852 37.2874 10.3737C37.4345 10.3611 37.5845 10.376 37.7376 10.4186C37.8718 10.456 37.9881 10.5024 38.0866 10.5579C38.1855 10.6123 38.2637 10.6742 38.321 10.7438C38.3784 10.8134 38.4128 10.8892 38.4241 10.9715C38.4372 11.0528 38.4241 11.1397 38.3848 11.2319C38.3568 11.2978 38.3139 11.3556 38.2563 11.4052C38.1987 11.4548 38.1295 11.4939 38.0487 11.5223C37.9684 11.5495 37.8789 11.5635 37.7804 11.5642C37.6832 11.5653 37.5806 11.5508 37.4727 11.5208ZM37.11 11.2752L37.5278 11.3914C37.6482 11.4249 37.7493 11.4658 37.8312 11.514C37.9149 11.5614 37.9789 11.6154 38.0233 11.676C38.0676 11.7366 38.092 11.803 38.0963 11.8752C38.1024 11.9466 38.0881 12.023 38.0535 12.1045C38.0142 12.1968 37.9564 12.2731 37.8802 12.3337C37.8044 12.393 37.7145 12.4363 37.6103 12.4636C37.5061 12.4908 37.3919 12.502 37.2678 12.4969C37.1437 12.4918 37.0145 12.4706 36.8803 12.4333C36.7385 12.3938 36.6103 12.334 36.4957 12.2539C36.3811 12.1738 36.3003 12.0769 36.2532 11.9633C36.2061 11.8497 36.2127 11.7222 36.2729 11.5809L36.9089 11.7578C36.8951 11.7902 36.8917 11.8228 36.8988 11.8556C36.9059 11.8883 36.926 11.9187 36.959 11.9467C36.9937 11.9738 37.0437 11.9964 37.109 12.0145C37.173 12.0323 37.2268 12.0359 37.2706 12.0253C37.3157 12.0151 37.352 11.9957 37.3795 11.9672C37.4084 11.9391 37.4299 11.9082 37.4442 11.8746C37.4661 11.8231 37.4737 11.779 37.4668 11.7423C37.46 11.7055 37.4396 11.6744 37.4056 11.6488C37.3733 11.6224 37.3283 11.6012 37.2706 11.5852L37.0091 11.5124L37.11 11.2752Z" fill="white"/>
<path d="M41.9437 13.4613L42.4631 12.7619C42.4988 12.7139 42.5221 12.6684 42.533 12.6255C42.5439 12.5826 42.5406 12.5426 42.5229 12.5057C42.506 12.4678 42.471 12.4336 42.4178 12.4032C42.3749 12.3787 42.3331 12.3644 42.2925 12.3606C42.2519 12.3567 42.2136 12.3639 42.1776 12.382C42.1416 12.4001 42.108 12.4301 42.077 12.4719L41.5056 12.1451C41.5638 12.0667 41.6364 12.0048 41.7234 11.9592C41.8123 11.9132 41.9104 11.8852 42.0178 11.8751C42.1262 11.8656 42.2397 11.8754 42.3583 11.9045C42.4787 11.9331 42.5999 11.9824 42.722 12.0522C42.8678 12.1356 42.9811 12.2324 43.0619 12.3426C43.1438 12.4535 43.1847 12.573 43.1846 12.701C43.1853 12.828 43.1356 12.9589 43.0355 13.0938L42.5196 13.7884C42.4374 13.8992 42.3816 13.9873 42.3525 14.0525C42.3242 14.1167 42.3065 14.1774 42.2995 14.2344L42.2797 14.2611L41.7067 13.9334C41.7184 13.8656 41.7454 13.7902 41.7877 13.7072C41.8319 13.6237 41.8839 13.5418 41.9437 13.4613ZM42.4662 12.8911L42.26 13.1753L42.0074 13.0308C41.9542 13.0004 41.904 12.9813 41.8566 12.9736C41.8103 12.9665 41.767 12.9685 41.7265 12.9796C41.6879 12.9904 41.6527 13.0074 41.6208 13.0309C41.59 13.055 41.5626 13.0832 41.5385 13.1156C41.5153 13.147 41.5022 13.1798 41.4994 13.2139C41.4985 13.2476 41.5071 13.2794 41.5253 13.3091C41.5435 13.3389 41.5701 13.3638 41.6051 13.3838C41.6684 13.42 41.7302 13.4397 41.7906 13.443C41.8529 13.4459 41.908 13.4379 41.9558 13.419C42.0036 13.4002 42.0379 13.3767 42.0589 13.3484L42.0237 13.6366C41.97 13.6655 41.9126 13.6929 41.8514 13.719C41.7913 13.7457 41.7262 13.7651 41.6561 13.7771C41.5878 13.7887 41.5147 13.7886 41.4366 13.7767C41.3592 13.7637 41.277 13.7323 41.19 13.6826C41.077 13.6179 40.9889 13.537 40.9258 13.4399C40.8638 13.3434 40.8329 13.2408 40.833 13.1322C40.834 13.0225 40.8717 12.9175 40.9462 12.8171C41.0114 12.7293 41.0866 12.6606 41.1717 12.611C41.258 12.562 41.3541 12.5336 41.4598 12.5256C41.5656 12.5175 41.6821 12.532 41.8092 12.569C41.9364 12.6059 42.0734 12.6664 42.2204 12.7505L42.4662 12.8911Z" fill="white"/>
<path d="M46.4111 14.9008L44.5011 16.5439L44.0332 16.081L46.2512 14.1729L46.6872 14.6043L46.4111 14.9008ZM46.8593 16.2205L46.8282 16.2472C46.7117 16.3474 46.5911 16.428 46.4664 16.4891C46.3417 16.5501 46.2179 16.5882 46.0948 16.6034C45.9717 16.6185 45.8528 16.6078 45.7382 16.5711C45.6256 16.5345 45.5216 16.469 45.4262 16.3747C45.3364 16.2858 45.2804 16.1911 45.258 16.0905C45.2357 15.9899 45.2402 15.8858 45.2718 15.7782C45.3033 15.6706 45.354 15.562 45.4239 15.4522C45.4938 15.3424 45.5746 15.2335 45.6665 15.1253L45.7065 15.091C45.8377 15.0072 45.9661 14.9361 46.0916 14.8777C46.2182 14.8185 46.3402 14.7786 46.4578 14.758C46.5753 14.7373 46.6867 14.7408 46.7921 14.7683C46.8983 14.7967 46.9963 14.8553 47.0861 14.9442C47.1815 15.0385 47.246 15.1379 47.2797 15.2425C47.3143 15.3479 47.3201 15.4559 47.2971 15.5664C47.2761 15.677 47.2282 15.7876 47.1535 15.8981C47.0787 16.0086 46.9807 16.116 46.8593 16.2205ZM46.3603 15.7843L46.3914 15.7576C46.4535 15.7041 46.5061 15.6511 46.5491 15.5987C46.5931 15.5455 46.6251 15.4931 46.6451 15.4417C46.666 15.3912 46.672 15.3424 46.6631 15.2952C46.6542 15.2481 46.628 15.203 46.5845 15.16C46.5345 15.1105 46.484 15.0761 46.433 15.0566C46.3839 15.0372 46.3324 15.0319 46.2784 15.0406C46.2264 15.0494 46.1716 15.0709 46.1139 15.1051C46.0581 15.1394 45.9981 15.185 45.9339 15.242L45.8125 15.3465C45.7356 15.4092 45.6764 15.4729 45.6349 15.5377C45.5944 15.6017 45.5778 15.6665 45.585 15.7321C45.5923 15.7978 45.6293 15.8636 45.6959 15.9295C45.7404 15.9734 45.7883 16.0007 45.8396 16.0114C45.8919 16.0211 45.9466 16.0177 46.0037 16.0012C46.0618 15.9838 46.1206 15.9562 46.1804 15.9185C46.2401 15.8808 46.3001 15.8361 46.3603 15.7843Z" fill="white"/>
<path d="M48.7651 20.289L49.5293 19.8711C49.5819 19.8423 49.6228 19.8103 49.652 19.7751C49.6812 19.7398 49.697 19.7008 49.6993 19.658C49.7028 19.6145 49.6892 19.5663 49.6585 19.5134C49.6338 19.4705 49.6052 19.4379 49.5727 19.4156C49.5402 19.3933 49.5046 19.3824 49.4658 19.3829C49.4269 19.3833 49.3847 19.3961 49.339 19.421L49.0094 18.8513C49.0951 18.8044 49.1853 18.7796 49.2799 18.7768C49.3763 18.7745 49.4722 18.7933 49.5674 18.8332C49.6633 18.8743 49.7545 18.9357 49.8409 19.0175C49.9291 19.0998 50.0084 19.2019 50.0789 19.3236C50.163 19.469 50.2134 19.612 50.2301 19.7527C50.2475 19.8946 50.2262 20.0256 50.1665 20.1458C50.1078 20.2654 50.0048 20.3655 49.8574 20.4461L49.0983 20.8612C48.9772 20.9274 48.8891 20.9845 48.8341 21.0323C48.7802 21.0796 48.7371 21.1284 48.7046 21.1788L48.6754 21.1948L48.3449 20.6233C48.3864 20.565 48.4443 20.5066 48.5188 20.4481C48.595 20.3901 48.6771 20.3371 48.7651 20.289ZM49.4718 19.9938L49.1653 20.1658L49.0196 19.9139C48.9889 19.861 48.9554 19.8199 48.919 19.7909C48.8833 19.7629 48.8458 19.7448 48.8065 19.7367C48.769 19.729 48.7313 19.7288 48.6934 19.7362C48.6562 19.7447 48.6199 19.7586 48.5845 19.7779C48.5502 19.7967 48.5239 19.8214 48.5057 19.8522C48.4892 19.8835 48.4816 19.9173 48.4831 19.9536C48.4845 19.9899 48.4954 20.0255 48.5156 20.0604C48.5521 20.1236 48.595 20.1705 48.6445 20.2014C48.6957 20.2327 48.7458 20.2505 48.7949 20.2548C48.844 20.2591 48.884 20.2529 48.9149 20.236L48.7507 20.4904C48.692 20.4929 48.6307 20.4922 48.5669 20.4885C48.5038 20.486 48.4399 20.4742 48.3751 20.4532C48.3121 20.4328 48.2505 20.399 48.1901 20.3519C48.1309 20.3041 48.0762 20.2369 48.0261 20.1501C47.9609 20.0374 47.9243 19.9209 47.9164 19.8006C47.9091 19.6814 47.9309 19.5708 47.9817 19.4689C48.0336 19.3663 48.1144 19.285 48.2241 19.2251C48.3201 19.1726 48.4155 19.1426 48.5105 19.1352C48.6061 19.1289 48.7004 19.1464 48.7934 19.1875C48.8863 19.2286 48.9778 19.2958 49.0678 19.389C49.1578 19.4823 49.2452 19.6021 49.33 19.7486L49.4718 19.9938Z" fill="white"/>
<path d="M53.1366 23.7899L53.2675 24.3028C53.1777 24.3295 53.0941 24.3441 53.0169 24.3467C52.9409 24.3489 52.8676 24.3327 52.797 24.298C52.7276 24.263 52.659 24.2019 52.5911 24.1149C52.5248 24.0287 52.4567 23.9092 52.3868 23.7562C52.3404 23.6587 52.2838 23.5818 52.2171 23.5256C52.1504 23.4694 52.0697 23.4323 51.9752 23.4143C51.8822 23.3971 51.7722 23.3979 51.6454 23.4166C51.5189 23.4365 51.3725 23.4732 51.2062 23.5267L51.1557 23.5417L50.9449 23.079L50.9954 23.064C51.2466 22.9907 51.4701 22.9481 51.6658 22.9361C51.8627 22.9238 52.035 22.9384 52.1826 22.9801C52.3305 23.023 52.457 23.0899 52.5621 23.1808C52.6673 23.2718 52.7535 23.3832 52.8208 23.5153C52.8636 23.5989 52.9007 23.6626 52.9319 23.7062C52.9635 23.7511 52.9949 23.7791 53.0259 23.7903C53.0573 23.8027 53.0942 23.8026 53.1366 23.7899ZM52.0892 23.9321C52.1253 24.0734 52.1335 24.2054 52.1138 24.328C52.094 24.4506 52.0504 24.5612 51.983 24.66C51.9156 24.7588 51.828 24.8445 51.7203 24.9172C51.6139 24.9895 51.4921 25.0461 51.3548 25.0869L51.3155 25.0986C51.1782 25.1394 51.0454 25.1557 50.9171 25.1477C50.7901 25.1393 50.6729 25.1062 50.5655 25.0486C50.4581 24.9909 50.3649 24.9073 50.2859 24.7977C50.2072 24.6894 50.1474 24.5552 50.1065 24.395C50.0656 24.2347 50.0556 24.085 50.0765 23.9458C50.0986 23.8062 50.1469 23.6799 50.2214 23.5668C50.2963 23.455 50.3931 23.3583 50.512 23.2769C50.6308 23.1954 50.7677 23.1317 50.9224 23.0857L50.9617 23.074C50.9789 23.0676 50.9979 23.0735 51.0186 23.0917C51.041 23.1109 51.068 23.1327 51.0998 23.1572C51.1331 23.1826 51.1742 23.2016 51.2231 23.2142C51.397 23.2589 51.5421 23.3142 51.6583 23.3802C51.7757 23.4457 51.8689 23.5239 51.9377 23.6147C52.0078 23.7052 52.0583 23.811 52.0892 23.9321ZM51.5715 23.9556C51.5487 23.8661 51.5088 23.8019 51.4519 23.7632C51.3966 23.7253 51.3306 23.7062 51.254 23.7059C51.1777 23.7069 51.0971 23.7199 51.0122 23.7452L50.9729 23.7568C50.9068 23.7765 50.8464 23.8005 50.7919 23.8289C50.7386 23.857 50.6935 23.8907 50.6566 23.9302C50.6209 23.9693 50.5971 24.0151 50.5849 24.0676C50.5731 24.1213 50.5759 24.1822 50.5933 24.2503C50.6104 24.3172 50.6366 24.3698 50.6719 24.4082C50.7072 24.4466 50.7495 24.4727 50.7987 24.4866C50.8491 24.5001 50.9039 24.5042 50.9629 24.4989C51.0233 24.4932 51.0865 24.4805 51.1526 24.4608L51.192 24.4491C51.2556 24.4302 51.3141 24.4067 51.3673 24.3787C51.4219 24.3503 51.467 24.3165 51.5026 24.2774C51.5396 24.238 51.5645 24.1912 51.5776 24.1371C51.5909 24.0842 51.5889 24.0238 51.5715 23.9556Z" fill="white"/>
<path d="M51.3798 28.6117L52.2484 28.5459C52.3081 28.5413 52.3596 28.529 52.4027 28.5088C52.4458 28.4886 52.4794 28.4594 52.5033 28.4212C52.5286 28.3829 52.5417 28.3331 52.5427 28.2719C52.5436 28.2225 52.5358 28.1808 52.5195 28.1469C52.5032 28.1131 52.4783 28.0883 52.4449 28.0726C52.4114 28.057 52.3687 28.0511 52.3168 28.055L52.3277 27.3969C52.425 27.3895 52.5149 27.4042 52.5973 27.4408C52.681 27.4787 52.7533 27.5356 52.8143 27.6116C52.8753 27.6889 52.9217 27.7829 52.9536 27.8936C52.9867 28.0055 53.0022 28.1318 52.9998 28.2724C52.9971 28.4403 52.9667 28.5922 52.9087 28.7279C52.8507 28.8649 52.7652 28.9761 52.6523 29.0614C52.5406 29.1465 52.4011 29.1955 52.2336 29.2082L51.3708 29.2736C51.2332 29.284 51.1286 29.2998 51.0569 29.3208C50.9865 29.3417 50.9245 29.3686 50.8708 29.4012L50.8377 29.4037L50.8486 28.7437C50.914 28.7075 50.9936 28.6781 51.0873 28.6554C51.1823 28.6339 51.2798 28.6193 51.3798 28.6117ZM52.1361 28.6343L51.7855 28.6648L51.7903 28.3739C51.7913 28.3127 51.7837 28.2612 51.7675 28.2196C51.7513 28.1792 51.7285 28.1471 51.6991 28.1233C51.6709 28.1007 51.6388 28.085 51.6026 28.076C51.5664 28.0684 51.5282 28.0661 51.488 28.0691C51.449 28.0721 51.4138 28.0838 51.3823 28.1044C51.3522 28.1262 51.3284 28.154 51.3109 28.1879C51.2935 28.2217 51.2845 28.2588 51.2838 28.2991C51.2826 28.372 51.2952 28.4328 51.3217 28.4816C51.3494 28.5315 51.3831 28.5686 51.4229 28.5929C51.4627 28.6171 51.5001 28.628 51.5352 28.6253L51.264 28.7902C51.2125 28.7681 51.1604 28.7421 51.1078 28.7123C51.0551 28.6838 51.0064 28.6465 50.9618 28.6005C50.9184 28.5557 50.8831 28.4992 50.8557 28.4311C50.8296 28.3628 50.8173 28.2786 50.819 28.1783C50.8211 28.0482 50.8497 27.9264 50.9048 27.813C50.9598 27.7009 51.0352 27.6087 51.1311 27.5364C51.2282 27.464 51.3391 27.4231 51.4638 27.4137C51.5728 27.4054 51.6699 27.4175 51.7549 27.4501C51.84 27.484 51.9117 27.539 51.9701 27.6152C52.0284 27.6914 52.0722 27.7908 52.1013 27.9134C52.1304 28.036 52.1435 28.1819 52.1407 28.3512L52.1361 28.6343Z" fill="white"/>
<path d="M52.447 33.3427L50.3535 33.0538L50.5239 32.416L52.6174 32.7049L52.447 33.3427ZM52.2746 33.988L51.7754 33.9192L52.2875 32.002L52.7867 32.0709L52.2746 33.988Z" fill="white"/>
<path d="M50.6696 37.0007L50.3672 37.5207C50.2651 37.6963 50.1478 37.834 50.0151 37.9337C49.883 38.035 49.7433 38.0968 49.596 38.1189C49.4499 38.1415 49.3054 38.1228 49.1626 38.0627C49.0605 38.0198 48.9774 37.9611 48.9133 37.8864C48.8503 37.8123 48.8089 37.7256 48.789 37.6262C48.7697 37.5284 48.7731 37.4198 48.7991 37.3005C48.8257 37.1828 48.8773 37.0581 48.9539 36.9264L49.4546 36.0654L51.4027 36.8845L51.0708 37.4552L49.5873 36.8314L49.4184 37.1218C49.3805 37.1871 49.3608 37.2439 49.3595 37.2924C49.3576 37.342 49.369 37.384 49.3939 37.4182C49.4188 37.4525 49.4528 37.4787 49.496 37.4969C49.5441 37.5171 49.5916 37.5252 49.6388 37.5212C49.6871 37.5177 49.7333 37.5 49.7772 37.4681C49.8217 37.4377 49.863 37.3899 49.9009 37.3247L50.2033 36.8046L50.6696 37.0007ZM49.9221 39.4306L47.9741 38.6115L48.3059 38.0408L50.254 38.8599L49.9221 39.4306Z" fill="white"/>
<path d="M46.3004 42.2055L46.7566 41.7447L47.0744 41.9983L46.6952 42.3814C46.6576 42.4193 46.6324 42.4531 46.6195 42.4827C46.6057 42.5132 46.6033 42.5405 46.6123 42.5646C46.6214 42.5903 46.6391 42.6139 46.6654 42.6353C46.6916 42.6567 46.7175 42.671 46.743 42.6784C46.7676 42.6867 46.7928 42.688 46.8186 42.6823C46.8434 42.6774 46.8689 42.6664 46.895 42.6492C46.9211 42.6321 46.9484 42.6091 46.9768 42.5804L47.1513 42.4042L45.903 41.3884L46.3661 40.9207L48.0053 42.2545L47.3677 42.8985C47.2696 42.9975 47.1721 43.0785 47.0751 43.1416C46.979 43.2054 46.8848 43.249 46.7923 43.2724C46.7 43.2975 46.6104 43.3014 46.5235 43.2842C46.4366 43.267 46.3543 43.2267 46.2765 43.1635C46.226 43.1224 46.1896 43.0726 46.1671 43.0143C46.1447 42.9559 46.1378 42.891 46.1465 42.8196C46.1543 42.7491 46.1782 42.6733 46.2183 42.5923C46.2594 42.5121 46.3177 42.4293 46.3933 42.3437L46.3004 42.2055ZM45.6323 41.6619L46.1888 41.0997L46.4381 41.5607L46.0231 41.9799C45.9847 42.0188 45.9586 42.0543 45.9449 42.0866C45.9311 42.1189 45.9289 42.1488 45.9381 42.1763C45.9473 42.2039 45.9665 42.2296 45.9958 42.2534C46.0241 42.2764 46.0534 42.2919 46.0838 42.2999C46.1142 42.3079 46.1473 42.3048 46.1833 42.2906C46.2183 42.2774 46.2573 42.249 46.3004 42.2055L46.6631 41.8391L46.9755 42.0982L46.5839 42.4938L46.3562 42.489C46.2337 42.5998 46.1181 42.677 46.0093 42.7205C45.8997 42.7649 45.8002 42.7817 45.7107 42.7707C45.6204 42.7607 45.5418 42.7285 45.4752 42.6743C45.3974 42.611 45.343 42.5417 45.3119 42.4662C45.2799 42.3918 45.2707 42.3116 45.2845 42.2259C45.2992 42.141 45.3354 42.051 45.3931 41.9559C45.4509 41.8626 45.5306 41.7646 45.6323 41.6619Z" fill="white"/>
<path d="M42.4569 45.1897L42.9654 45.897C43.0003 45.9456 43.0374 45.9828 43.0767 46.0084C43.116 46.0341 43.1577 46.0465 43.202 46.0456C43.2469 46.0458 43.2951 46.0292 43.3464 45.9958C43.3878 45.9688 43.4184 45.9388 43.4379 45.9059C43.4575 45.873 43.4651 45.8378 43.4606 45.8004C43.4561 45.7629 43.4386 45.7231 43.4082 45.6808L43.9598 45.3216C44.0168 45.4009 44.0516 45.4861 44.0643 45.5772C44.0766 45.6701 44.0672 45.7639 44.036 45.8587C44.0037 45.9543 43.95 46.0467 43.8748 46.136C43.7993 46.227 43.7027 46.3109 43.5848 46.3877C43.4441 46.4793 43.3022 46.5383 43.1594 46.5646C43.0154 46.5916 42.8785 46.5806 42.7488 46.5316C42.6198 46.4837 42.5063 46.3915 42.4082 46.2551L41.9032 45.5526C41.8226 45.4405 41.7549 45.3597 41.7 45.3101C41.6458 45.2615 41.5912 45.2234 41.536 45.1956L41.5166 45.1687L42.0698 44.8085C42.134 44.8443 42.2 44.896 42.2679 44.9636C42.3353 45.0329 42.3984 45.1083 42.4569 45.1897ZM42.8333 45.8503L42.6248 45.567L42.8686 45.4082C42.9199 45.3748 42.9586 45.3395 42.9848 45.3023C43.0098 45.2658 43.0245 45.2283 43.0288 45.1898C43.0328 45.153 43.0291 45.1167 43.0177 45.0807C43.0051 45.0454 42.987 45.0113 42.9635 44.9786C42.9407 44.9469 42.9125 44.9233 42.879 44.9079C42.8452 44.8942 42.8097 44.8894 42.7725 44.8934C42.7353 44.8974 42.6998 44.9104 42.666 44.9325C42.6049 44.9723 42.5611 45.0171 42.5345 45.067C42.5075 45.1187 42.4944 45.1684 42.4951 45.2161C42.4957 45.2638 42.5063 45.3019 42.5268 45.3304L42.2484 45.1905C42.2398 45.134 42.2341 45.0748 42.2313 45.013C42.2274 44.9519 42.2329 44.8893 42.2478 44.8253C42.2623 44.7631 42.2907 44.7011 42.3329 44.6395C42.3758 44.579 42.4393 44.5213 42.5233 44.4666C42.6324 44.3956 42.7484 44.3519 42.8712 44.3355C42.993 44.3199 43.1088 44.3329 43.2189 44.3746C43.3297 44.4173 43.4216 44.4894 43.4945 44.5909C43.5584 44.6797 43.599 44.7696 43.6165 44.8607C43.6328 44.9525 43.6246 45.0448 43.5919 45.1374C43.5592 45.2301 43.4996 45.3233 43.4131 45.4168C43.3266 45.5104 43.2124 45.6034 43.0706 45.6958L42.8333 45.8503Z" fill="white"/>
<path d="M38.6888 47.8885L38.5496 49.249L37.9328 49.4787L37.2329 47.4847L37.8497 47.255L38.2572 48.416L38.3951 47.0518L39.0138 46.8213L39.7136 48.8154L39.095 49.0458L38.6888 47.8885ZM38.8482 50.088L38.4254 50.2455C38.3866 50.1349 38.3801 50.0262 38.4061 49.9192C38.4312 49.814 38.486 49.7186 38.5705 49.6329C38.655 49.5473 38.7661 49.4788 38.904 49.4274C39.1127 49.3497 39.2963 49.3404 39.455 49.3993C39.6141 49.4595 39.723 49.5732 39.7816 49.7403L39.3607 49.8971C39.3395 49.8369 39.301 49.7901 39.2452 49.7567C39.1893 49.7234 39.1144 49.7242 39.0204 49.7592C38.9265 49.7942 38.869 49.8427 38.848 49.9047C38.827 49.9667 38.8271 50.0278 38.8482 50.088Z" fill="white"/>
<path d="M34.0475 32.2499C33.5092 32.2499 33.0144 32.4434 32.6239 32.7669L30.1837 31.1822C30.256 30.8425 30.256 30.4906 30.1837 30.151L32.6239 28.5663C33.0144 28.8898 33.5092 29.0833 34.0475 29.0833C35.3098 29.0833 36.3332 28.0199 36.3332 26.7083C36.3332 25.3966 35.3098 24.3333 34.0475 24.3333C32.7851 24.3333 31.7617 25.3966 31.7617 26.7083C31.7617 26.8853 31.7806 27.0578 31.8159 27.2238L29.3758 28.8085C28.9852 28.485 28.4905 28.2916 27.9522 28.2916C26.6899 28.2916 25.6665 29.3549 25.6665 30.6666C25.6665 31.9783 26.6899 33.0416 27.9522 33.0416C28.4905 33.0416 28.9852 32.8481 29.3758 32.5247L31.8159 34.1093C31.7799 34.2786 31.7617 34.4515 31.7617 34.6249C31.7617 35.9366 32.7851 36.9999 34.0475 36.9999C35.3098 36.9999 36.3332 35.9366 36.3332 34.6249C36.3332 33.3133 35.3098 32.2499 34.0475 32.2499Z" fill="white"/>
<defs>
<linearGradient id="paint0_linear_301_2358" x1="57.3291" y1="30.5423" x2="4.29932" y2="30.5423" gradientUnits="userSpaceOnUse">
<stop stop-color="#CB11AB"/>
<stop offset="1" stop-color="#481173"/>
</linearGradient>
</defs>
</svg>
