<svg width="60" height="60" viewBox="0 0 60 60" fill="none" xmlns="http://www.w3.org/2000/svg">
<g clip-path="url(#clip0_274_2419)">
<path d="M29.8142 3.3145C44.3512 3.3145 56.1784 15.0806 56.1784 29.5426C56.1784 44.0047 44.3512 55.7708 29.8142 55.7708C15.2771 55.7708 3.44991 44.0047 3.44991 29.5426C3.44991 15.0806 15.2771 3.3145 29.8142 3.3145ZM29.8142 -0.432373C13.1736 -0.432373 -0.316406 12.988 -0.316406 29.5426C-0.316406 46.0973 13.1736 59.5177 29.8142 59.5177C46.4547 59.5177 59.9447 46.0973 59.9447 29.5426C59.9447 12.988 46.4547 -0.432373 29.8142 -0.432373Z" fill="#FBEC9A"/>
<path d="M29.8142 55.9203C15.1941 55.9203 3.29932 44.087 3.29932 29.5423C3.29932 14.9977 15.1941 3.16431 29.8142 3.16431C44.4343 3.16431 56.3291 14.9977 56.3291 29.5423C56.3291 44.087 44.4343 55.9203 29.8142 55.9203Z" fill="url(#paint0_linear_274_2419)"/>
<path d="M3.45108 29.5524C3.45108 15.0857 15.2819 3.31573 29.8235 3.31573C37.2878 3.31573 44.0325 6.42197 48.8351 11.3976L51.5082 8.7383C46.0265 3.08803 38.3399 -0.432373 29.8235 -0.432373C13.1778 -0.432373 -0.316406 12.9924 -0.316406 29.5524C-0.316406 38.025 3.2222 45.6721 8.90168 51.1247L11.5747 48.4654C6.57338 43.6884 3.45108 36.9784 3.45108 29.5524Z" fill="#FCF6C2"/>
<path d="M22.2597 48.7383L22.9315 48.9587L22.7021 49.4358L22.0304 49.2153C21.9388 49.1853 21.8575 49.1756 21.7865 49.1862C21.7155 49.1969 21.6546 49.2238 21.6038 49.2669C21.5512 49.3108 21.5091 49.3656 21.4775 49.4313C21.4436 49.5017 21.4259 49.5713 21.4244 49.6401C21.4216 49.7084 21.4399 49.7701 21.4793 49.8252C21.5181 49.8814 21.5834 49.9246 21.6749 49.9546L22.1017 50.0947L23.1046 48.0088L23.756 48.2226L22.5237 50.7855L21.4456 50.4316C21.229 50.3606 21.0609 50.2619 20.9411 50.1357C20.8201 50.009 20.7492 49.8661 20.7282 49.7071C20.7067 49.5492 20.7363 49.3864 20.817 49.2186C20.8965 49.0531 21.008 48.9226 21.1514 48.827C21.2947 48.7314 21.4616 48.6747 21.652 48.6571C21.8406 48.6402 22.0432 48.6672 22.2597 48.7383Z" fill="white"/>
<path d="M18.1579 46.1496C18.3022 46.2431 18.4142 46.3473 18.4939 46.4622C18.5728 46.5781 18.6215 46.6982 18.6398 46.8226C18.657 46.9463 18.6471 47.0694 18.6101 47.1919C18.572 47.3137 18.5091 47.4279 18.4215 47.5345L18.3744 47.5919C18.276 47.7116 18.167 47.8105 18.0475 47.8888C17.9271 47.968 17.8 48.0228 17.6661 48.0533C17.5323 48.0837 17.3944 48.0853 17.2526 48.0582C17.11 48.0321 16.9676 47.973 16.8256 47.8809C16.6999 47.7995 16.6027 47.7079 16.5338 47.6063C16.465 47.5046 16.4247 47.3968 16.4129 47.2828C16.4 47.168 16.416 47.0497 16.461 46.9277C16.5048 46.8051 16.5772 46.6824 16.6781 46.5596L16.8479 46.3529L18.2969 47.2919L18.0352 47.6103L17.1255 47.0208L17.0933 47.06C17.0476 47.1136 17.0199 47.1666 17.0104 47.219C16.9997 47.2707 17.0063 47.3197 17.0302 47.366C17.0541 47.4123 17.095 47.4542 17.1529 47.4918C17.213 47.5307 17.2727 47.5509 17.3318 47.5522C17.3899 47.5529 17.4473 47.5391 17.5038 47.511C17.5585 47.4832 17.6125 47.445 17.6659 47.3964C17.7193 47.3477 17.7708 47.2932 17.8204 47.2328L17.8675 47.1755C17.9171 47.1151 17.9534 47.0547 17.9764 46.994C17.9984 46.9327 18.0069 46.8735 18.0019 46.8163C17.9951 46.7594 17.9755 46.7059 17.9431 46.6556C17.9096 46.6046 17.8618 46.559 17.7995 46.5186C17.7241 46.4697 17.639 46.4347 17.5443 46.4134C17.4496 46.3921 17.3512 46.3946 17.2492 46.421L17.2241 45.9839C17.299 45.9599 17.388 45.9475 17.491 45.9464C17.5929 45.9446 17.7014 45.9594 17.8163 45.9907C17.9304 46.023 18.0443 46.076 18.1579 46.1496Z" fill="white"/>
<path d="M13.0567 45.1006L14.7203 43.7974L15.1611 44.2862L13.4975 45.5894L13.0567 45.1006ZM12.1398 44.0839L13.803 43.88L14.198 44.318L13.7634 44.7525L13.5266 44.49L12.7048 44.7105L12.1398 44.0839ZM14.3593 43.3971L13.9468 44.2227L13.3206 43.9386L13.7615 42.7343L14.3593 43.3971Z" fill="white"/>
<path d="M11.3594 41.5654L11.3226 41.5833C11.1832 41.6511 11.0451 41.6936 10.9083 41.7109C10.7702 41.7288 10.6387 41.7203 10.5138 41.6855C10.3888 41.6507 10.2741 41.5885 10.1698 41.4988C10.0643 41.4097 9.97463 41.2911 9.90088 41.1431C9.82655 40.9939 9.78581 40.8508 9.77866 40.7139C9.76976 40.5763 9.78948 40.448 9.83781 40.329C9.88614 40.2099 9.95957 40.1018 10.0581 40.0047C10.1555 39.9082 10.2738 39.826 10.4132 39.7583L10.45 39.7403C10.5882 39.6732 10.7263 39.6306 10.8643 39.6127C11.0012 39.5954 11.1327 39.6039 11.2588 39.6381C11.3838 39.6729 11.4985 39.7351 11.6028 39.8248C11.7072 39.9145 11.7962 40.0334 11.87 40.1814C11.9437 40.3294 11.985 40.4722 11.9939 40.6098C12.0028 40.7473 11.9831 40.8756 11.9348 40.9947C11.8853 41.1143 11.8119 41.2224 11.7145 41.3189C11.616 41.416 11.4976 41.4982 11.3594 41.5654ZM11.029 40.9942L11.0659 40.9763C11.1373 40.9415 11.2015 40.9038 11.2583 40.8632C11.3151 40.8225 11.3609 40.7785 11.3955 40.7313C11.429 40.6846 11.4482 40.634 11.453 40.5796C11.4579 40.5251 11.4446 40.4664 11.4133 40.4034C11.3825 40.3417 11.3441 40.2967 11.298 40.2684C11.2513 40.239 11.199 40.2231 11.1412 40.2209C11.0821 40.2191 11.019 40.2281 10.9517 40.2478C10.8844 40.2675 10.815 40.2947 10.7436 40.3294L10.7067 40.3474C10.6376 40.381 10.5752 40.4178 10.5196 40.4579C10.4627 40.4986 10.417 40.5425 10.3823 40.5898C10.3465 40.6376 10.3256 40.689 10.3196 40.7441C10.3136 40.7991 10.3262 40.8581 10.3576 40.921C10.3884 40.9828 10.4277 41.0281 10.4755 41.057C10.5228 41.0847 10.5765 41.0991 10.6367 41.1002C10.6957 41.1019 10.7589 41.0929 10.8262 41.0732C10.8923 41.0541 10.9599 41.0278 11.029 40.9942Z" fill="white"/>
<path d="M9.40775 36.0211L7.97815 35.8469L7.89786 35.3435L10.0825 35.6468L10.1518 36.0808L8.20854 37.2915L8.12795 36.7862L9.40775 36.0211ZM8.15133 36.9328L10.2151 36.4781L10.3188 37.1281L8.25499 37.5827L8.15133 36.9328ZM10.0155 35.2263L7.95169 35.681L7.84803 35.031L9.91182 34.5763L10.0155 35.2263Z" fill="white"/>
<path d="M9.88515 30.7353C9.8612 30.9055 9.8131 31.0569 9.74086 31.1894C9.66732 31.322 9.57651 31.4333 9.46843 31.5233C9.36053 31.6121 9.24131 31.6792 9.11077 31.7247C8.98041 31.7688 8.84625 31.7888 8.70828 31.7848L8.6341 31.7827C8.47921 31.7782 8.33904 31.7528 8.21357 31.7064C8.0868 31.66 7.97986 31.5935 7.89274 31.5068C7.80562 31.4202 7.74362 31.3128 7.70674 31.1849C7.66856 31.0569 7.66127 30.9091 7.68486 30.7415C7.70574 30.5932 7.74851 30.4611 7.81318 30.3452C7.87785 30.2292 7.96081 30.132 8.06205 30.0533C8.16347 29.9734 8.28095 29.914 8.41449 29.8752C8.54821 29.835 8.69447 29.8173 8.85325 29.8219L9.12072 29.8296L8.88006 31.5393L8.46813 31.5274L8.61922 30.454L8.56846 30.4525C8.49836 30.4492 8.43676 30.4597 8.38367 30.4841C8.33077 30.5071 8.28794 30.5421 8.25519 30.5891C8.22245 30.636 8.20127 30.6937 8.19165 30.762C8.18166 30.8329 8.18903 30.892 8.21373 30.9394C8.23861 30.9854 8.27657 31.0221 8.32761 31.0495C8.37752 31.0755 8.4369 31.0947 8.50573 31.1071C8.57456 31.1194 8.64802 31.1267 8.72611 31.129L8.8003 31.1311C8.87839 31.1334 8.95078 31.1251 9.01746 31.1064C9.08432 31.0863 9.14334 31.0569 9.19452 31.0183C9.24458 30.9783 9.28596 30.9303 9.31868 30.8743C9.35158 30.817 9.3732 30.7516 9.38354 30.6781C9.39606 30.5891 9.39149 30.5009 9.36981 30.4136C9.34813 30.3262 9.3026 30.2504 9.23321 30.1863L9.63019 29.9007C9.68537 29.945 9.73606 30.0073 9.78226 30.0876C9.82863 30.1666 9.86242 30.2608 9.88362 30.3702C9.90352 30.4795 9.90403 30.6012 9.88515 30.7353Z" fill="white"/>
<path d="M8.79499 24.6197L9.28233 24.7553L8.86936 25.7258L8.38202 25.5902L8.79499 24.6197ZM7.68204 25.1482L9.71796 25.7147L9.46023 26.3204L7.42431 25.7538L7.68204 25.1482ZM8.16613 24.0106L10.2021 24.5771L9.94357 25.1846L7.90764 24.618L8.16613 24.0106Z" fill="white"/>
<path d="M8.94822 20.4537L9.34807 19.9309L9.91498 20.2784C10.1187 20.4037 10.2786 20.5309 10.3948 20.6599C10.5107 20.7873 10.5914 20.9148 10.637 21.0426C10.6814 21.1697 10.6972 21.2948 10.6844 21.418C10.6712 21.5395 10.6379 21.6565 10.5844 21.7691L10.5416 21.825L10.1033 21.5808L10.1274 21.5364C10.1077 21.4345 10.0806 21.3486 10.0462 21.2786C10.0115 21.2069 9.96892 21.1455 9.9184 21.0945C9.86867 21.0425 9.81067 20.9938 9.74439 20.9485C9.677 20.9025 9.60058 20.8534 9.51514 20.8012L8.94822 20.4537ZM9.05975 20.3079L9.94724 19.1474L11.7649 20.2254L11.3662 20.7467L9.98536 19.9278L9.49653 20.5669L9.05975 20.3079ZM10.0135 21.6854L11.5203 19.7151L12.5081 20.3009L12.1083 20.8237L11.5573 20.4969L10.8608 21.4076L11.4118 21.7344L11.0013 22.2712L10.0135 21.6854Z" fill="white"/>
<path d="M15.078 16.3265L14.1927 14.6422L14.7348 14.1882L15.7814 16.4689C15.8047 16.5188 15.8263 16.5752 15.8462 16.6382C15.8669 16.7021 15.8769 16.7708 15.8761 16.8442C15.8754 16.9177 15.8558 16.9933 15.8175 17.0711C15.7802 17.1481 15.7157 17.225 15.6238 17.302C15.5749 17.3429 15.5367 17.3707 15.5092 17.3853C15.4836 17.3999 15.4428 17.4214 15.3869 17.4496L15.0577 17.1132C15.0707 17.1023 15.0817 17.0931 15.0906 17.0856C15.1006 17.0772 15.1116 17.068 15.1236 17.058C15.1775 17.0129 15.2154 16.9718 15.2373 16.9348C15.2602 16.897 15.2706 16.8612 15.2685 16.8274C15.2673 16.7928 15.2581 16.7574 15.2407 16.7211L15.078 16.3265ZM13.6672 15.0824L15.0202 15.872L15.5632 16.324L15.2248 16.6074L13.1267 15.5351L13.6672 15.0824Z" fill="white"/>
<path d="M18.2254 13.0695L18.1484 11.7242L18.7309 11.4177L19.7509 13.2685L19.1684 13.575L18.5745 12.4974L18.6534 13.8461L18.0691 14.1535L17.0491 12.3027L17.6333 11.9953L18.2254 13.0695ZM17.7151 10.946L18.1143 10.7359C18.1709 10.8386 18.1947 10.9437 18.1856 11.0514C18.1772 11.1574 18.1373 11.2578 18.0662 11.3526C17.9951 11.4474 17.8944 11.5291 17.7642 11.5976C17.5672 11.7013 17.3843 11.735 17.2157 11.6987C17.0464 11.6613 16.919 11.565 16.8336 11.4099L17.2311 11.2007C17.2619 11.2566 17.308 11.2971 17.3694 11.3221C17.4308 11.3472 17.5058 11.3364 17.5945 11.2897C17.6833 11.243 17.7332 11.188 17.7444 11.1248C17.7556 11.0615 17.7458 11.0019 17.7151 10.946Z" fill="white"/>
<path d="M27.3599 9.72485L27.9025 8.43305L28.5565 8.3587L28.618 10.4711L27.964 10.5454L27.9282 9.31549L27.3857 10.6112L26.7297 10.6858L26.6683 8.57338L27.3242 8.4988L27.3599 9.72485Z" fill="white"/>
<path d="M36.4727 10.5207L36.055 10.4044L36.159 10.16L36.4205 10.2328C36.4745 10.2478 36.5211 10.2521 36.5603 10.2456C36.6008 10.2394 36.6344 10.2247 36.6612 10.2013C36.6898 10.1771 36.7117 10.147 36.727 10.1111C36.7402 10.0799 36.7473 10.0484 36.7483 10.0165C36.7505 9.98494 36.7406 9.9554 36.7187 9.92785C36.6967 9.9003 36.6563 9.87833 36.5973 9.86192C36.5484 9.8483 36.5032 9.84243 36.4617 9.84429C36.4202 9.84614 36.3841 9.85686 36.3533 9.87644C36.3231 9.89481 36.2998 9.92317 36.2835 9.96151L35.6475 9.78453C35.701 9.65873 35.7843 9.56197 35.8973 9.49425C36.0108 9.42534 36.1408 9.38515 36.2874 9.37368C36.4345 9.36101 36.5845 9.37597 36.7376 9.41855C36.8718 9.45591 36.9881 9.50235 37.0866 9.55788C37.1855 9.61221 37.2637 9.67416 37.321 9.74372C37.3784 9.81329 37.4128 9.88918 37.4241 9.97139C37.4372 10.0527 37.4241 10.1396 37.3848 10.2318C37.3568 10.2977 37.3139 10.3555 37.2563 10.4051C37.1987 10.4547 37.1295 10.4938 37.0487 10.5222C36.9684 10.5494 36.8789 10.5634 36.7804 10.5641C36.6832 10.5652 36.5806 10.5507 36.4727 10.5207ZM36.11 10.2751L36.5278 10.3913C36.6482 10.4248 36.7493 10.4657 36.8312 10.5139C36.9149 10.5613 36.9789 10.6153 37.0233 10.6759C37.0676 10.7365 37.092 10.8029 37.0963 10.8751C37.1024 10.9465 37.0881 11.0229 37.0535 11.1044C37.0142 11.1967 36.9564 11.273 36.8802 11.3336C36.8044 11.3929 36.7145 11.4362 36.6103 11.4635C36.5061 11.4907 36.3919 11.5019 36.2678 11.4968C36.1437 11.4917 36.0145 11.4705 35.8803 11.4332C35.7385 11.3937 35.6103 11.3339 35.4957 11.2538C35.3811 11.1737 35.3003 11.0768 35.2532 10.9632C35.2061 10.8496 35.2127 10.7221 35.2729 10.5808L35.9089 10.7577C35.8951 10.7901 35.8917 10.8227 35.8988 10.8555C35.9059 10.8882 35.926 10.9186 35.959 10.9466C35.9937 10.9737 36.0437 10.9963 36.109 11.0144C36.173 11.0322 36.2268 11.0358 36.2706 11.0252C36.3157 11.015 36.352 10.9956 36.3795 10.9671C36.4084 10.939 36.4299 10.9081 36.4442 10.8745C36.4661 10.823 36.4737 10.7789 36.4668 10.7422C36.46 10.7054 36.4396 10.6743 36.4056 10.6487C36.3733 10.6223 36.3283 10.6011 36.2706 10.5851L36.0091 10.5123L36.11 10.2751Z" fill="white"/>
<path d="M40.9438 12.4613L41.4632 11.7619C41.4989 11.7139 41.5222 11.6684 41.5331 11.6255C41.544 11.5826 41.5407 11.5426 41.523 11.5057C41.5061 11.4678 41.4711 11.4336 41.4179 11.4032C41.375 11.3787 41.3332 11.3644 41.2926 11.3606C41.252 11.3567 41.2137 11.3639 41.1777 11.382C41.1417 11.4001 41.1081 11.4301 41.0771 11.4719L40.5057 11.1451C40.5639 11.0667 40.6365 11.0048 40.7235 10.9592C40.8124 10.9132 40.9105 10.8852 41.0179 10.8751C41.1263 10.8656 41.2398 10.8754 41.3584 10.9045C41.4788 10.9331 41.6 10.9824 41.7221 11.0522C41.8679 11.1356 41.9812 11.2324 42.062 11.3426C42.1439 11.4535 42.1848 11.573 42.1847 11.701C42.1854 11.828 42.1357 11.9589 42.0356 12.0938L41.5197 12.7884C41.4375 12.8992 41.3817 12.9873 41.3526 13.0525C41.3243 13.1167 41.3066 13.1774 41.2996 13.2344L41.2798 13.2611L40.7068 12.9334C40.7185 12.8656 40.7455 12.7902 40.7878 12.7072C40.832 12.6237 40.884 12.5418 40.9438 12.4613ZM41.4663 11.8911L41.2601 12.1753L41.0075 12.0308C40.9543 12.0004 40.9041 11.9813 40.8567 11.9736C40.8104 11.9665 40.7671 11.9685 40.7266 11.9796C40.688 11.9904 40.6528 12.0074 40.6209 12.0309C40.5901 12.055 40.5627 12.0832 40.5386 12.1156C40.5154 12.147 40.5023 12.1798 40.4995 12.2139C40.4986 12.2476 40.5072 12.2794 40.5254 12.3091C40.5436 12.3389 40.5702 12.3638 40.6052 12.3838C40.6685 12.42 40.7303 12.4397 40.7907 12.443C40.853 12.4459 40.9081 12.4379 40.9559 12.419C41.0037 12.4002 41.038 12.3767 41.059 12.3484L41.0238 12.6366C40.9701 12.6655 40.9127 12.6929 40.8515 12.719C40.7914 12.7457 40.7263 12.7651 40.6562 12.7771C40.5879 12.7887 40.5148 12.7886 40.4367 12.7767C40.3593 12.7637 40.2771 12.7323 40.1901 12.6826C40.0771 12.6179 39.989 12.537 39.9259 12.4399C39.8639 12.3434 39.833 12.2408 39.8331 12.1322C39.8341 12.0225 39.8718 11.9175 39.9463 11.8171C40.0115 11.7293 40.0867 11.6606 40.1718 11.611C40.2581 11.562 40.3542 11.5336 40.4599 11.5256C40.5657 11.5175 40.6822 11.532 40.8093 11.569C40.9365 11.6059 41.0735 11.6664 41.2205 11.7505L41.4663 11.8911Z" fill="white"/>
<path d="M45.4113 13.9008L43.5013 15.5439L43.0334 15.081L45.2514 13.1729L45.6874 13.6043L45.4113 13.9008ZM45.8595 15.2205L45.8284 15.2472C45.7119 15.3474 45.5913 15.428 45.4666 15.4891C45.3419 15.5501 45.2181 15.5882 45.095 15.6034C44.9719 15.6185 44.853 15.6078 44.7384 15.5711C44.6258 15.5345 44.5218 15.469 44.4264 15.3747C44.3366 15.2858 44.2806 15.1911 44.2582 15.0905C44.2359 14.9899 44.2404 14.8858 44.272 14.7782C44.3035 14.6706 44.3542 14.562 44.4241 14.4522C44.494 14.3424 44.5748 14.2335 44.6667 14.1253L44.7067 14.091C44.8379 14.0072 44.9663 13.9361 45.0918 13.8777C45.2184 13.8185 45.3404 13.7786 45.458 13.758C45.5755 13.7373 45.6869 13.7408 45.7923 13.7683C45.8985 13.7967 45.9965 13.8553 46.0863 13.9442C46.1817 14.0385 46.2462 14.1379 46.2799 14.2425C46.3145 14.3479 46.3203 14.4559 46.2973 14.5664C46.2763 14.677 46.2284 14.7876 46.1537 14.8981C46.0789 15.0086 45.9809 15.116 45.8595 15.2205ZM45.3605 14.7843L45.3916 14.7576C45.4537 14.7041 45.5063 14.6511 45.5493 14.5987C45.5933 14.5455 45.6253 14.4931 45.6453 14.4417C45.6662 14.3912 45.6722 14.3424 45.6633 14.2952C45.6544 14.2481 45.6282 14.203 45.5847 14.16C45.5347 14.1105 45.4842 14.0761 45.4332 14.0566C45.3841 14.0372 45.3326 14.0319 45.2786 14.0406C45.2266 14.0494 45.1718 14.0709 45.1141 14.1051C45.0583 14.1394 44.9983 14.185 44.9341 14.242L44.8127 14.3465C44.7358 14.4092 44.6766 14.4729 44.6351 14.5377C44.5946 14.6017 44.578 14.6665 44.5852 14.7321C44.5925 14.7978 44.6295 14.8636 44.6961 14.9295C44.7406 14.9734 44.7885 15.0007 44.8398 15.0114C44.8921 15.0211 44.9468 15.0177 45.0039 15.0012C45.062 14.9838 45.1208 14.9562 45.1806 14.9185C45.2403 14.8808 45.3003 14.8361 45.3605 14.7843Z" fill="white"/>
<path d="M47.7651 19.2889L48.5293 18.871C48.5819 18.8422 48.6228 18.8102 48.652 18.775C48.6812 18.7397 48.697 18.7007 48.6993 18.6579C48.7028 18.6144 48.6892 18.5662 48.6585 18.5133C48.6338 18.4704 48.6052 18.4378 48.5727 18.4155C48.5402 18.3932 48.5046 18.3823 48.4658 18.3828C48.4269 18.3832 48.3847 18.396 48.339 18.4209L48.0094 17.8512C48.0951 17.8043 48.1853 17.7795 48.2799 17.7767C48.3763 17.7744 48.4722 17.7932 48.5674 17.8331C48.6633 17.8742 48.7545 17.9356 48.8409 18.0174C48.9291 18.0997 49.0084 18.2018 49.0789 18.3235C49.163 18.4689 49.2134 18.6119 49.2301 18.7526C49.2475 18.8945 49.2262 19.0255 49.1665 19.1457C49.1078 19.2653 49.0048 19.3654 48.8574 19.446L48.0983 19.8611C47.9772 19.9273 47.8891 19.9844 47.8341 20.0322C47.7802 20.0795 47.7371 20.1283 47.7046 20.1787L47.6754 20.1947L47.3449 19.6232C47.3864 19.5649 47.4443 19.5065 47.5188 19.448C47.595 19.39 47.6771 19.337 47.7651 19.2889ZM48.4718 18.9937L48.1653 19.1657L48.0196 18.9138C47.9889 18.8609 47.9554 18.8198 47.919 18.7908C47.8833 18.7628 47.8458 18.7447 47.8065 18.7366C47.769 18.7289 47.7313 18.7287 47.6934 18.7361C47.6562 18.7446 47.6199 18.7585 47.5845 18.7778C47.5502 18.7966 47.5239 18.8213 47.5057 18.8521C47.4892 18.8834 47.4816 18.9172 47.4831 18.9535C47.4845 18.9898 47.4954 19.0254 47.5156 19.0603C47.5521 19.1235 47.595 19.1704 47.6445 19.2013C47.6957 19.2326 47.7458 19.2504 47.7949 19.2547C47.844 19.259 47.884 19.2528 47.9149 19.2359L47.7507 19.4903C47.692 19.4928 47.6307 19.4921 47.5669 19.4884C47.5038 19.4859 47.4399 19.4741 47.3751 19.4531C47.3121 19.4327 47.2505 19.3989 47.1901 19.3518C47.1309 19.304 47.0762 19.2368 47.0261 19.15C46.9609 19.0373 46.9243 18.9208 46.9164 18.8005C46.9091 18.6813 46.9309 18.5707 46.9817 18.4688C47.0336 18.3662 47.1144 18.2849 47.2241 18.225C47.3201 18.1725 47.4155 18.1425 47.5105 18.1351C47.6061 18.1288 47.7004 18.1463 47.7934 18.1874C47.8863 18.2285 47.9778 18.2957 48.0678 18.3889C48.1578 18.4822 48.2452 18.602 48.33 18.7485L48.4718 18.9937Z" fill="white"/>
<path d="M52.1366 22.7899L52.2675 23.3028C52.1777 23.3295 52.0941 23.3441 52.0169 23.3467C51.9409 23.3489 51.8676 23.3327 51.797 23.298C51.7276 23.263 51.659 23.2019 51.5911 23.1149C51.5248 23.0287 51.4567 22.9092 51.3868 22.7562C51.3404 22.6587 51.2838 22.5818 51.2171 22.5256C51.1504 22.4694 51.0697 22.4323 50.9752 22.4143C50.8822 22.3971 50.7722 22.3979 50.6454 22.4166C50.5189 22.4365 50.3725 22.4732 50.2062 22.5267L50.1557 22.5417L49.9449 22.079L49.9954 22.064C50.2466 21.9907 50.4701 21.9481 50.6658 21.9361C50.8627 21.9238 51.035 21.9384 51.1826 21.9801C51.3305 22.023 51.457 22.0899 51.5621 22.1808C51.6673 22.2718 51.7535 22.3832 51.8208 22.5153C51.8636 22.5989 51.9007 22.6626 51.9319 22.7062C51.9635 22.7511 51.9949 22.7791 52.0259 22.7903C52.0573 22.8027 52.0942 22.8026 52.1366 22.7899ZM51.0892 22.9321C51.1253 23.0734 51.1335 23.2054 51.1138 23.328C51.094 23.4506 51.0504 23.5612 50.983 23.66C50.9156 23.7588 50.828 23.8445 50.7203 23.9172C50.6139 23.9895 50.4921 24.0461 50.3548 24.0869L50.3155 24.0986C50.1782 24.1394 50.0454 24.1557 49.9171 24.1477C49.7901 24.1393 49.6729 24.1062 49.5655 24.0486C49.4581 23.9909 49.3649 23.9073 49.2859 23.7977C49.2072 23.6894 49.1474 23.5552 49.1065 23.395C49.0656 23.2347 49.0556 23.085 49.0765 22.9458C49.0986 22.8062 49.1469 22.6799 49.2214 22.5668C49.2963 22.455 49.3931 22.3583 49.512 22.2769C49.6308 22.1954 49.7677 22.1317 49.9224 22.0857L49.9617 22.074C49.9789 22.0676 49.9979 22.0735 50.0186 22.0917C50.041 22.1109 50.068 22.1327 50.0998 22.1572C50.1331 22.1826 50.1742 22.2016 50.2231 22.2142C50.397 22.2589 50.5421 22.3142 50.6583 22.3802C50.7757 22.4457 50.8689 22.5239 50.9377 22.6147C51.0078 22.7052 51.0583 22.811 51.0892 22.9321ZM50.5715 22.9556C50.5487 22.8661 50.5088 22.8019 50.4519 22.7632C50.3966 22.7253 50.3306 22.7062 50.254 22.7059C50.1777 22.7069 50.0971 22.7199 50.0122 22.7452L49.9729 22.7568C49.9068 22.7765 49.8464 22.8005 49.7919 22.8289C49.7386 22.857 49.6935 22.8907 49.6566 22.9302C49.6209 22.9693 49.5971 23.0151 49.5849 23.0676C49.5731 23.1213 49.5759 23.1822 49.5933 23.2503C49.6104 23.3172 49.6366 23.3698 49.6719 23.4082C49.7072 23.4466 49.7495 23.4727 49.7987 23.4866C49.8491 23.5001 49.9039 23.5042 49.9629 23.4989C50.0233 23.4932 50.0865 23.4805 50.1526 23.4608L50.192 23.4491C50.2556 23.4302 50.3141 23.4067 50.3673 23.3787C50.4219 23.3503 50.467 23.3165 50.5026 23.2774C50.5396 23.238 50.5645 23.1912 50.5776 23.1371C50.5909 23.0842 50.5889 23.0238 50.5715 22.9556Z" fill="white"/>
<path d="M50.3798 27.6116L51.2484 27.5458C51.3081 27.5412 51.3596 27.5289 51.4027 27.5087C51.4458 27.4885 51.4794 27.4593 51.5033 27.4211C51.5286 27.3828 51.5417 27.333 51.5427 27.2718C51.5436 27.2224 51.5358 27.1807 51.5195 27.1468C51.5032 27.113 51.4783 27.0882 51.4449 27.0725C51.4114 27.0569 51.3687 27.051 51.3168 27.0549L51.3277 26.3968C51.425 26.3894 51.5149 26.4041 51.5973 26.4407C51.681 26.4786 51.7533 26.5355 51.8143 26.6115C51.8753 26.6888 51.9217 26.7828 51.9536 26.8935C51.9867 27.0054 52.0022 27.1317 51.9998 27.2723C51.9971 27.4402 51.9667 27.5921 51.9087 27.7278C51.8507 27.8648 51.7652 27.976 51.6523 28.0613C51.5406 28.1464 51.4011 28.1954 51.2336 28.2081L50.3708 28.2735C50.2332 28.2839 50.1286 28.2997 50.0569 28.3207C49.9865 28.3416 49.9245 28.3685 49.8708 28.4011L49.8377 28.4036L49.8486 27.7436C49.914 27.7074 49.9936 27.678 50.0873 27.6553C50.1823 27.6338 50.2798 27.6192 50.3798 27.6116ZM51.1361 27.6342L50.7855 27.6647L50.7903 27.3738C50.7913 27.3126 50.7837 27.2611 50.7675 27.2195C50.7513 27.1791 50.7285 27.147 50.6991 27.1232C50.6709 27.1006 50.6388 27.0849 50.6026 27.0759C50.5664 27.0683 50.5282 27.066 50.488 27.069C50.449 27.072 50.4138 27.0837 50.3823 27.1043C50.3522 27.1261 50.3284 27.1539 50.3109 27.1878C50.2935 27.2216 50.2845 27.2587 50.2838 27.299C50.2826 27.3719 50.2952 27.4327 50.3217 27.4815C50.3494 27.5314 50.3831 27.5685 50.4229 27.5928C50.4627 27.617 50.5001 27.6279 50.5352 27.6252L50.264 27.7901C50.2125 27.768 50.1604 27.742 50.1078 27.7122C50.0551 27.6837 50.0064 27.6464 49.9618 27.6004C49.9184 27.5556 49.8831 27.4991 49.8557 27.431C49.8296 27.3627 49.8173 27.2785 49.819 27.1782C49.8211 27.0481 49.8497 26.9263 49.9048 26.8129C49.9598 26.7008 50.0352 26.6086 50.1311 26.5363C50.2282 26.4639 50.3391 26.423 50.4638 26.4136C50.5728 26.4053 50.6699 26.4174 50.7549 26.45C50.84 26.4839 50.9117 26.5389 50.9701 26.6151C51.0284 26.6913 51.0722 26.7907 51.1013 26.9133C51.1304 27.0359 51.1435 27.1818 51.1407 27.3511L51.1361 27.6342Z" fill="white"/>
<path d="M51.4472 32.3427L49.3537 32.0538L49.5241 31.416L51.6176 31.7049L51.4472 32.3427ZM51.2748 32.988L50.7756 32.9192L51.2877 31.002L51.7869 31.0709L51.2748 32.988Z" fill="white"/>
<path d="M49.6697 36.0007L49.3673 36.5207C49.2652 36.6963 49.1479 36.834 49.0152 36.9337C48.8831 37.035 48.7434 37.0968 48.5961 37.1189C48.45 37.1415 48.3055 37.1228 48.1627 37.0627C48.0606 37.0198 47.9775 36.9611 47.9134 36.8864C47.8504 36.8123 47.809 36.7256 47.7891 36.6262C47.7698 36.5284 47.7732 36.4198 47.7992 36.3005C47.8258 36.1828 47.8774 36.0581 47.954 35.9264L48.4547 35.0654L50.4028 35.8845L50.0709 36.4552L48.5874 35.8314L48.4185 36.1218C48.3806 36.1871 48.3609 36.2439 48.3596 36.2924C48.3577 36.342 48.3691 36.384 48.394 36.4182C48.4189 36.4525 48.4529 36.4787 48.4961 36.4969C48.5442 36.5171 48.5917 36.5252 48.6389 36.5212C48.6872 36.5177 48.7334 36.5 48.7773 36.4681C48.8218 36.4377 48.8631 36.3899 48.901 36.3247L49.2034 35.8046L49.6697 36.0007ZM48.9222 38.4306L46.9742 37.6115L47.306 37.0408L49.2541 37.8599L48.9222 38.4306Z" fill="white"/>
<path d="M45.3006 41.2055L45.7568 40.7447L46.0746 40.9983L45.6954 41.3814C45.6578 41.4193 45.6326 41.4531 45.6197 41.4827C45.6059 41.5132 45.6035 41.5405 45.6125 41.5646C45.6216 41.5903 45.6393 41.6139 45.6656 41.6353C45.6918 41.6567 45.7177 41.671 45.7432 41.6784C45.7678 41.6867 45.793 41.688 45.8188 41.6823C45.8436 41.6774 45.8691 41.6664 45.8952 41.6492C45.9213 41.6321 45.9486 41.6091 45.977 41.5804L46.1515 41.4042L44.9032 40.3884L45.3663 39.9207L47.0055 41.2545L46.3679 41.8985C46.2698 41.9975 46.1723 42.0785 46.0753 42.1416C45.9792 42.2054 45.885 42.249 45.7925 42.2724C45.7002 42.2975 45.6106 42.3014 45.5237 42.2842C45.4368 42.267 45.3545 42.2267 45.2767 42.1635C45.2262 42.1224 45.1898 42.0726 45.1673 42.0143C45.1449 41.9559 45.138 41.891 45.1467 41.8196C45.1545 41.7491 45.1784 41.6733 45.2185 41.5923C45.2596 41.5121 45.3179 41.4293 45.3935 41.3437L45.3006 41.2055ZM44.6325 40.6619L45.189 40.0997L45.4383 40.5607L45.0233 40.9799C44.9849 41.0188 44.9588 41.0543 44.9451 41.0866C44.9313 41.1189 44.9291 41.1488 44.9383 41.1763C44.9475 41.2039 44.9667 41.2296 44.996 41.2534C45.0243 41.2764 45.0536 41.2919 45.084 41.2999C45.1144 41.3079 45.1475 41.3048 45.1835 41.2906C45.2185 41.2774 45.2575 41.249 45.3006 41.2055L45.6633 40.8391L45.9757 41.0982L45.5841 41.4938L45.3564 41.489C45.2339 41.5998 45.1183 41.677 45.0095 41.7205C44.8999 41.7649 44.8004 41.7817 44.7109 41.7707C44.6206 41.7607 44.542 41.7285 44.4754 41.6743C44.3976 41.611 44.3432 41.5417 44.3121 41.4662C44.2801 41.3918 44.2709 41.3116 44.2847 41.2259C44.2994 41.141 44.3356 41.051 44.3933 40.9559C44.4511 40.8626 44.5308 40.7646 44.6325 40.6619Z" fill="white"/>
<path d="M41.4568 44.1897L41.9653 44.897C42.0002 44.9456 42.0373 44.9828 42.0766 45.0084C42.1159 45.0341 42.1576 45.0465 42.2019 45.0456C42.2468 45.0458 42.295 45.0292 42.3463 44.9958C42.3877 44.9688 42.4183 44.9388 42.4378 44.9059C42.4574 44.873 42.465 44.8378 42.4605 44.8004C42.456 44.7629 42.4385 44.7231 42.4081 44.6808L42.9597 44.3216C43.0167 44.4009 43.0515 44.4861 43.0642 44.5772C43.0765 44.6701 43.0671 44.7639 43.0359 44.8587C43.0036 44.9543 42.9499 45.0467 42.8747 45.136C42.7992 45.227 42.7026 45.3109 42.5847 45.3877C42.444 45.4793 42.3021 45.5383 42.1593 45.5646C42.0153 45.5916 41.8784 45.5806 41.7487 45.5316C41.6197 45.4837 41.5062 45.3915 41.4081 45.2551L40.9031 44.5526C40.8225 44.4405 40.7548 44.3597 40.6999 44.3101C40.6457 44.2615 40.5911 44.2234 40.5359 44.1956L40.5165 44.1687L41.0697 43.8085C41.1339 43.8443 41.1999 43.896 41.2678 43.9636C41.3352 44.0329 41.3983 44.1083 41.4568 44.1897ZM41.8332 44.8503L41.6247 44.567L41.8685 44.4082C41.9198 44.3748 41.9585 44.3395 41.9847 44.3023C42.0097 44.2658 42.0244 44.2283 42.0287 44.1898C42.0327 44.153 42.029 44.1167 42.0176 44.0807C42.005 44.0454 41.9869 44.0113 41.9634 43.9786C41.9406 43.9469 41.9124 43.9233 41.8789 43.9079C41.8451 43.8942 41.8096 43.8894 41.7724 43.8934C41.7352 43.8974 41.6997 43.9104 41.6659 43.9325C41.6048 43.9723 41.561 44.0171 41.5344 44.067C41.5074 44.1187 41.4943 44.1684 41.495 44.2161C41.4956 44.2638 41.5062 44.3019 41.5267 44.3304L41.2483 44.1905C41.2397 44.134 41.234 44.0748 41.2312 44.013C41.2273 43.9519 41.2328 43.8893 41.2477 43.8253C41.2622 43.7631 41.2906 43.7011 41.3328 43.6395C41.3757 43.579 41.4392 43.5213 41.5232 43.4666C41.6323 43.3956 41.7483 43.3519 41.8711 43.3355C41.9929 43.3199 42.1087 43.3329 42.2188 43.3746C42.3296 43.4173 42.4215 43.4894 42.4944 43.5909C42.5583 43.6797 42.5989 43.7696 42.6164 43.8607C42.6327 43.9525 42.6245 44.0448 42.5918 44.1374C42.5591 44.2301 42.4995 44.3233 42.413 44.4168C42.3265 44.5104 42.2123 44.6034 42.0705 44.6958L41.8332 44.8503Z" fill="white"/>
<path d="M37.6888 46.8885L37.5496 48.249L36.9328 48.4787L36.2329 46.4847L36.8497 46.255L37.2572 47.416L37.3951 46.0518L38.0138 45.8213L38.7136 47.8154L38.095 48.0458L37.6888 46.8885ZM37.8482 49.088L37.4254 49.2455C37.3866 49.1349 37.3801 49.0262 37.4061 48.9192C37.4312 48.814 37.486 48.7186 37.5705 48.6329C37.655 48.5473 37.7661 48.4788 37.904 48.4274C38.1127 48.3497 38.2963 48.3404 38.455 48.3993C38.6141 48.4595 38.723 48.5732 38.7816 48.7403L38.3607 48.8971C38.3395 48.8369 38.301 48.7901 38.2452 48.7567C38.1893 48.7234 38.1144 48.7242 38.0204 48.7592C37.9265 48.7942 37.869 48.8427 37.848 48.9047C37.827 48.9667 37.8271 49.0278 37.8482 49.088Z" fill="white"/>
<path d="M33.0475 31.2499C32.5092 31.2499 32.0144 31.4434 31.6239 31.7669L29.1837 30.1822C29.256 29.8425 29.256 29.4906 29.1837 29.151L31.6239 27.5663C32.0144 27.8898 32.5092 28.0833 33.0475 28.0833C34.3098 28.0833 35.3332 27.0199 35.3332 25.7083C35.3332 24.3966 34.3098 23.3333 33.0475 23.3333C31.7851 23.3333 30.7617 24.3966 30.7617 25.7083C30.7617 25.8853 30.7806 26.0578 30.8159 26.2238L28.3758 27.8085C27.9852 27.485 27.4905 27.2916 26.9522 27.2916C25.6899 27.2916 24.6665 28.3549 24.6665 29.6666C24.6665 30.9783 25.6899 32.0416 26.9522 32.0416C27.4905 32.0416 27.9852 31.8481 28.3758 31.5247L30.8159 33.1093C30.7799 33.2786 30.7617 33.4515 30.7617 33.6249C30.7617 34.9366 31.7851 35.9999 33.0475 35.9999C34.3098 35.9999 35.3332 34.9366 35.3332 33.6249C35.3332 32.3133 34.3098 31.2499 33.0475 31.2499Z" fill="white"/>
</g>
<defs>
<linearGradient id="paint0_linear_274_2419" x1="56.3291" y1="29.5423" x2="3.29932" y2="29.5423" gradientUnits="userSpaceOnUse">
<stop stop-color="#CB11AB"/>
<stop offset="1" stop-color="#481173"/>
</linearGradient>
<clipPath id="clip0_274_2419">
<rect width="60" height="60" fill="white"/>
</clipPath>
</defs>
</svg>
