<svg width="12" height="11" viewBox="0 0 12 11" fill="none" xmlns="http://www.w3.org/2000/svg">
<path d="M11.9271 1.60614C11.864 1.51166 11.7629 1.45767 11.6492 1.45767H2.56484L2.29951 0.283435C2.26161 0.107975 2.12263 0 1.95838 0H0.353771C0.164251 0 0 0.161963 0 0.377914C0 0.593865 0.164251 0.755828 0.353771 0.755828H1.68041L3.58825 9.19141C3.62615 9.36687 3.76514 9.47485 3.92939 9.47485H4.39687C4.20735 9.62331 4.06837 9.86626 4.06837 10.1497C4.06837 10.6221 4.42214 11 4.86435 11C5.30657 11 5.66034 10.6221 5.66034 10.1497C5.66034 9.86626 5.52136 9.63681 5.33184 9.47485H8.52841C8.33889 9.62331 8.19991 9.86626 8.19991 10.1497C8.19991 10.6221 8.55368 11 8.9959 11C9.43811 11 9.79188 10.6221 9.79188 10.1497C9.79188 9.86626 9.6529 9.63681 9.46338 9.47485H9.6908C9.88032 9.47485 10.0446 9.31288 10.0446 9.09693C10.0446 8.89448 9.88032 8.71902 9.6908 8.71902H4.20735L4.0052 7.84172H10.3731C10.5373 7.84172 10.6763 7.72025 10.7142 7.55828L11.9903 1.93006C12.0156 1.80859 11.9903 1.68712 11.9271 1.60614ZM6.07728 5.20982L5.95094 4.08957H7.99776L7.87141 5.20982H6.07728ZM7.78297 5.96564L7.65662 7.08589H6.27944L6.15309 5.96564H7.78297ZM3.15867 4.08957H5.24339L5.36974 5.20982H3.41137L3.15867 4.08957ZM5.86249 3.33374L5.73615 2.2135H8.19991L8.07356 3.33374H5.86249ZM5.0286 2.2135L5.15495 3.33374H2.98179L2.72909 2.2135H5.0286ZM3.57562 5.96564H5.44555L5.5719 7.08589H3.82831L3.57562 5.96564ZM8.36416 7.08589L8.49051 5.96564H10.3478L10.0951 7.08589H8.36416ZM10.5247 5.20982H8.57895L8.7053 4.08957H10.7774L10.5247 5.20982ZM10.9416 3.33374H8.78111L8.90745 2.2135H11.1943L10.9416 3.33374Z" fill="#252525"/>
</svg>
