<svg width="24" height="24" viewBox="0 0 24 24" fill="none" xmlns="http://www.w3.org/2000/svg">
<path d="M11.6538 3C6.87014 3 3 6.88312 3 11.6538C3 16.4135 6.85615 20.3077 11.6538 20.3077C16.4359 20.3077 20.3077 16.4257 20.3077 11.6538C20.3077 6.8862 16.4398 3 11.6538 3ZM17.7647 16.7565C17.0874 16.4084 16.3198 16.1364 15.5738 15.9428C15.9233 14.7501 16.122 13.4042 16.1501 12H19.6078C19.5323 13.7463 18.8862 15.4148 17.7647 16.7565ZM5.54292 16.7565C4.42145 15.4148 3.77542 13.7463 3.69982 12H7.15758C7.18569 13.4042 7.38435 14.7501 7.7339 15.9428C6.98721 16.1368 6.23245 16.4035 5.54292 16.7565ZM5.54292 6.55112C6.23135 6.90382 6.98832 7.17081 7.7339 7.3649C7.38435 8.55764 7.18569 9.90341 7.15758 11.3077H3.69982C3.77542 9.56131 4.42145 7.89285 5.54292 6.55112ZM15.3598 6.70627C15.0093 5.72915 14.4877 4.70868 13.7579 3.97653C15.0788 4.33937 16.2956 5.03964 17.2782 6.01978C16.6776 6.30965 15.9887 6.54905 15.3598 6.70627ZM12 7.14983V3.72647C12.8453 3.89211 13.645 4.66116 14.2814 5.93424C14.427 6.22543 14.56 6.53537 14.68 6.86117C13.7977 7.03823 12.8926 7.13093 12 7.14983ZM11.3077 7.14983C10.4075 7.13079 9.49994 7.03657 8.62767 6.86117C8.74768 6.53534 8.88067 6.22539 9.02623 5.93424C9.66277 4.66116 10.4624 3.89207 11.3077 3.72647V7.14983ZM11.3077 7.84228V11.3077H7.85C7.87807 9.95316 8.07063 8.6602 8.40855 7.52215C9.30519 7.70773 10.2863 7.82151 11.3077 7.84228ZM11.3077 12V15.4654C10.343 15.485 9.34953 15.59 8.40858 15.7855C8.07063 14.6475 7.87807 13.3545 7.85 12H11.3077ZM11.3077 16.1579V19.5812C10.4624 19.4156 9.66277 18.6465 9.02623 17.3734C8.88063 17.0823 8.74768 16.7723 8.62767 16.4465C9.46633 16.2772 10.379 16.1775 11.3077 16.1579ZM12 16.1579C12.9266 16.1775 13.8355 16.2764 14.68 16.4465C14.56 16.7723 14.427 17.0823 14.2814 17.3734C13.6449 18.6465 12.8453 19.4156 12 19.5812V16.1579ZM12 15.4654V12H15.4577C15.4296 13.3545 15.2371 14.6475 14.8991 15.7855C14.0078 15.6004 13.02 15.4862 12 15.4654ZM12 11.3077V7.84228C13.0329 7.82127 14.0102 7.70586 14.8991 7.52215C15.2371 8.66017 15.4296 9.95316 15.4577 11.3077H12ZM7.94785 6.70627C7.29882 6.54237 6.63036 6.31023 6.02943 6.01978C7.01206 5.03964 8.22886 4.33937 9.54985 3.97653C8.81892 4.70976 8.2975 5.73153 7.94785 6.70627ZM7.94785 16.6014C8.29737 17.5759 8.81885 18.5979 9.54985 19.3312C8.22886 18.9683 7.01206 18.268 6.02943 17.2879C6.63126 16.9969 7.30003 16.7658 7.94785 16.6014ZM15.3598 16.6014C15.9801 16.7565 16.6779 16.9974 17.2783 17.2879C16.2956 18.268 15.0788 18.9683 13.7579 19.3312C14.4888 18.5979 15.0104 17.5758 15.3598 16.6014ZM16.1501 11.3077C16.122 9.90341 15.9233 8.55764 15.5738 7.3649C16.3323 7.16793 17.0918 6.89624 17.7648 6.55116C18.8862 7.89285 19.5323 9.56135 19.6079 11.3077H16.1501V11.3077Z" fill="black"/>
</svg>
