<svg width="31" height="31" viewBox="0 0 31 31" fill="none" xmlns="http://www.w3.org/2000/svg">
<g clip-path="url(#clip0_1_438)">
<path d="M15.5 1.9375C22.9783 1.9375 29.0625 8.02173 29.0625 15.5C29.0625 22.9783 22.9783 29.0625 15.5 29.0625C8.02173 29.0625 1.9375 22.9783 1.9375 15.5C1.9375 8.02173 8.02173 1.9375 15.5 1.9375ZM15.5 0C6.93964 0 0 6.93964 0 15.5C0 24.0604 6.93964 31 15.5 31C24.0604 31 31 24.0604 31 15.5C31 6.93964 24.0604 0 15.5 0Z" fill="#FBEC9A"/>
<path d="M15.4414 29.0039C7.96314 29.0039 1.87891 22.9197 1.87891 15.4414C1.87891 7.96314 7.96314 1.87891 15.4414 1.87891C22.9197 1.87891 29.0039 7.96314 29.0039 15.4414C29.0039 22.9197 22.9197 29.0039 15.4414 29.0039Z" fill="url(#paint0_linear_1_438)"/>
<path d="M1.9375 15.5C1.9375 8.02173 8.02174 1.9375 15.5 1.9375C19.3387 1.9375 22.8073 3.5432 25.2771 6.11523L26.6518 4.74058C23.8327 1.8198 19.8797 0 15.5 0C6.93964 0 0 6.93964 0 15.5C0 19.8797 1.8198 23.8327 4.74058 26.6513L6.11524 25.2766C3.5432 22.8073 1.9375 19.3387 1.9375 15.5Z" fill="#FCF6C2"/>
<path d="M12.225 25.7974L12.7436 26.0333L12.6668 26.2501L12.1481 26.0141C12.0477 25.9684 11.9604 25.948 11.8865 25.9528C11.8125 25.9576 11.7508 25.983 11.7015 26.029C11.6513 26.0745 11.6128 26.1351 11.586 26.2105C11.5615 26.2796 11.5532 26.3511 11.561 26.4252C11.5679 26.4989 11.5959 26.5683 11.6451 26.6334C11.6939 26.6995 11.7685 26.7553 11.869 26.801L12.3276 27.0097L12.9633 25.2177L13.2206 25.3348L12.5076 27.3449L11.7916 27.0192C11.6449 26.9524 11.5302 26.8698 11.4475 26.7712C11.3648 26.6727 11.3137 26.565 11.2942 26.4482C11.2744 26.3323 11.2856 26.2149 11.3277 26.0962C11.3734 25.9674 11.4386 25.8693 11.5234 25.8021C11.6082 25.7348 11.7097 25.7003 11.828 25.6985C11.946 25.6977 12.0783 25.7306 12.225 25.7974Z" fill="white"/>
<path d="M10.2637 23.7012C10.3507 23.7691 10.4191 23.8459 10.4688 23.9316C10.5172 24.0176 10.5473 24.1084 10.5592 24.2042C10.5703 24.2995 10.5626 24.3961 10.5362 24.4942C10.5097 24.5922 10.4648 24.687 10.4013 24.7785L10.3663 24.8291C10.2928 24.935 10.2124 25.0176 10.1251 25.0768C10.0372 25.1369 9.94742 25.1757 9.85576 25.1932C9.76411 25.2108 9.67526 25.2089 9.58921 25.1875C9.50317 25.1662 9.42511 25.1282 9.35503 25.0735C9.2657 25.0039 9.19982 24.9278 9.15739 24.8452C9.11419 24.7621 9.09182 24.6754 9.0903 24.5852C9.08822 24.4958 9.10415 24.4043 9.1381 24.3109C9.17149 24.2182 9.2199 24.1261 9.28333 24.0346L9.3526 23.9347L10.2859 24.6626L10.1599 24.8443L9.44027 24.2831L9.42859 24.3C9.39161 24.3602 9.36421 24.4254 9.3464 24.4956C9.32782 24.5651 9.32747 24.6341 9.34534 24.7025C9.36321 24.7708 9.40873 24.8335 9.48189 24.8905C9.5304 24.9284 9.58258 24.9524 9.63842 24.9625C9.6937 24.9735 9.75044 24.9695 9.80863 24.9506C9.86683 24.9317 9.92487 24.8984 9.98278 24.8509C10.0407 24.8033 10.0969 24.7402 10.1514 24.6615L10.1865 24.611C10.2293 24.5492 10.2616 24.4847 10.2832 24.4175C10.3036 24.3505 10.3121 24.2842 10.3089 24.2187C10.305 24.1525 10.2883 24.0901 10.259 24.0314C10.229 23.9721 10.1847 23.9196 10.1261 23.874C10.0507 23.8151 9.97562 23.7813 9.901 23.7726C9.82638 23.7639 9.75079 23.7711 9.67424 23.7942L9.61914 23.5862C9.67558 23.5647 9.73795 23.5509 9.80624 23.5448C9.87453 23.5387 9.94744 23.5473 10.025 23.5707C10.1017 23.5934 10.1813 23.6369 10.2637 23.7012Z" fill="white"/>
<path d="M7.34998 23.2902L8.55951 22.266L8.73169 22.4752L7.52217 23.4995L7.34998 23.2902ZM6.68917 22.4871L7.8597 22.4805L8.10076 22.7734L7.94573 22.9585L7.74842 22.7187L6.89858 22.7416L6.68917 22.4871ZM8.08391 21.6879L7.90659 22.602L7.64604 22.5942L7.86519 21.4221L8.08391 21.6879Z" fill="white"/>
<path d="M6.42688 20.8417L6.39638 20.856C6.29295 20.9046 6.18952 20.9348 6.08609 20.9467C5.98177 20.959 5.88275 20.9526 5.78903 20.9276C5.69443 20.903 5.60889 20.8596 5.53241 20.7974C5.45504 20.7356 5.39137 20.6555 5.3414 20.5571C5.291 20.4578 5.26424 20.3598 5.26113 20.2632C5.25669 20.1661 5.27347 20.0741 5.31147 19.9872C5.34815 19.8999 5.40361 19.8205 5.47786 19.749C5.55123 19.6779 5.63963 19.6181 5.74306 19.5695L5.77356 19.5552C5.87699 19.5067 5.98042 19.4764 6.08386 19.4646C6.18729 19.4527 6.28653 19.4595 6.38158 19.4849C6.47529 19.5099 6.56083 19.5534 6.6382 19.6152C6.71424 19.6765 6.77747 19.7568 6.82788 19.8561C6.87829 19.9553 6.90549 20.0531 6.90948 20.1493C6.91259 20.246 6.89581 20.338 6.85913 20.4253C6.82113 20.5121 6.76545 20.5911 6.69208 20.6622C6.61871 20.7333 6.53031 20.7931 6.42688 20.8417ZM6.27368 20.6144L6.30418 20.6001C6.37578 20.5665 6.43921 20.5264 6.49446 20.48C6.54882 20.434 6.59191 20.3831 6.62373 20.3272C6.65511 20.2704 6.67211 20.2101 6.67476 20.1463C6.67651 20.0829 6.66037 20.0177 6.62632 19.9507C6.59271 19.8845 6.54961 19.833 6.497 19.7963C6.44306 19.7591 6.38338 19.7353 6.31796 19.7251C6.25254 19.7148 6.18424 19.7161 6.11307 19.729C6.04058 19.7415 5.96853 19.7645 5.89693 19.7981L5.86643 19.8125C5.79571 19.8457 5.73339 19.8857 5.67947 19.9326C5.62422 19.979 5.58091 20.0306 5.54953 20.0874C5.51683 20.1437 5.49916 20.2037 5.49651 20.2675C5.49343 20.3304 5.50891 20.3954 5.54296 20.4625C5.57657 20.5286 5.62034 20.5803 5.67427 20.6176C5.72776 20.6539 5.78789 20.6774 5.85464 20.6882C5.92006 20.6984 5.9888 20.6969 6.06085 20.6836C6.13201 20.6706 6.20296 20.6476 6.27368 20.6144Z" fill="white"/>
<path d="M5.32006 17.3019L3.99025 16.9589L3.93274 16.7045L5.6557 17.1567L5.69705 17.3396L4.28494 18.2619L4.22742 18.0076L5.32006 17.3019ZM4.24487 18.0847L5.81209 17.8482L5.87186 18.1125L4.30465 18.349L4.24487 18.0847ZM5.5426 16.6566L3.97539 16.8931L3.91529 16.6274L5.4825 16.3909L5.5426 16.6566Z" fill="white"/>
<path d="M5.24753 14.2868C5.24335 14.3971 5.22117 14.4946 5.18099 14.5795C5.13987 14.6633 5.08421 14.733 5.014 14.7884C4.94383 14.8428 4.86163 14.881 4.7674 14.9028C4.67317 14.9246 4.57088 14.9283 4.46051 14.9136L4.39952 14.9055C4.27173 14.8886 4.1587 14.8545 4.06043 14.8032C3.96119 14.7518 3.87795 14.6888 3.81073 14.6142C3.7435 14.5396 3.69355 14.4584 3.66087 14.3707C3.62819 14.283 3.61353 14.1948 3.61689 14.106C3.62118 13.9928 3.64424 13.8977 3.68606 13.8209C3.72793 13.7431 3.78471 13.6824 3.85641 13.639C3.92714 13.5954 4.00993 13.5671 4.1048 13.5542C4.1987 13.5412 4.30083 13.542 4.41119 13.5566L4.53172 13.5726L4.48694 14.7553L4.26766 14.7262L4.30219 13.8143L4.28186 13.8116C4.21201 13.8063 4.14369 13.8119 4.0769 13.8286C4.01015 13.8442 3.95445 13.8761 3.90983 13.9241C3.8652 13.9721 3.84113 14.0425 3.83762 14.1352C3.83529 14.1967 3.84622 14.255 3.8704 14.3102C3.89361 14.3653 3.92968 14.4147 3.97862 14.4584C4.02756 14.5022 4.08794 14.5391 4.15977 14.5692C4.2316 14.5994 4.31496 14.6207 4.40983 14.6333L4.47082 14.6414C4.54536 14.6512 4.61594 14.6503 4.68255 14.6385C4.74822 14.6257 4.8065 14.6025 4.85739 14.569C4.90832 14.5346 4.94891 14.4904 4.97916 14.4366C5.00945 14.3817 5.026 14.3172 5.02881 14.2431C5.03243 14.1474 5.01614 14.0639 4.97992 13.9924C4.94371 13.9209 4.89412 13.856 4.83114 13.7976L4.96659 13.6508C5.0166 13.6917 5.06385 13.7416 5.10832 13.8005C5.1528 13.8594 5.18809 13.9293 5.21422 14.0102C5.24038 14.0902 5.25148 14.1824 5.24753 14.2868Z" fill="white"/>
<path d="M4.75603 10.9823L4.95987 11.0643L4.71774 11.8664L4.5139 11.7844L4.75603 10.9823ZM3.89308 11.4732L5.36342 12.065L5.28511 12.3244L3.81477 11.7326L3.89308 11.4732ZM4.1822 10.5154L5.65254 11.1072L5.57381 11.368L4.10346 10.7762L4.1822 10.5154Z" fill="white"/>
<path d="M5.74328 9.16831L5.88856 8.93955L6.35622 9.30768C6.47482 9.40093 6.57079 9.49162 6.64414 9.57975C6.7175 9.66787 6.77362 9.75314 6.81251 9.83553C6.85061 9.91735 6.87595 9.99654 6.88852 10.0731C6.90162 10.1488 6.90696 10.2213 6.90453 10.2906L6.83228 10.4044L6.65716 10.2683L6.68581 10.2205C6.67226 10.1709 6.6574 10.1216 6.64122 10.0725C6.62424 10.0229 6.60004 9.971 6.56859 9.91689C6.53635 9.86219 6.49188 9.80405 6.43517 9.74244C6.37819 9.67943 6.30319 9.61118 6.21015 9.53768L5.74328 9.16831ZM5.7794 9.11143L6.29065 8.30644L7.57362 9.23708L7.42833 9.46584L6.34812 8.68228L5.98217 9.25851L5.7794 9.11143ZM6.61906 10.3256L7.50254 8.93446L8.06103 9.33957L7.91575 9.56833L7.53749 9.29396L6.94458 10.2275L7.32283 10.5019L7.17676 10.7319L6.61906 10.3256Z" fill="white"/>
<path d="M8.41255 7.86453L7.79845 6.49976L8.01208 6.30358L8.75272 8.1069C8.76775 8.14612 8.78111 8.19085 8.79281 8.24109C8.80587 8.29139 8.81229 8.34449 8.81205 8.40037C8.81182 8.45626 8.80067 8.51157 8.77861 8.5663C8.75791 8.6211 8.72095 8.67294 8.66772 8.72181C8.6519 8.73635 8.62982 8.75264 8.60149 8.7707C8.57317 8.78876 8.55268 8.80095 8.54003 8.80727L8.39376 8.64333C8.40016 8.63878 8.4098 8.63125 8.42267 8.62076C8.43691 8.61033 8.44655 8.60281 8.45158 8.59819C8.4969 8.55657 8.52989 8.515 8.55057 8.47348C8.5719 8.43269 8.58076 8.38809 8.57718 8.33968C8.57496 8.29135 8.56014 8.23537 8.53273 8.17172L8.41255 7.86453ZM7.23526 7.01696L8.35146 7.66214L8.59199 7.82899L8.51431 8.03554L7.01731 7.2171L7.23526 7.01696Z" fill="white"/>
<path d="M9.7082 6.41674L9.79978 5.06749L10.0416 4.94199L10.8058 6.33058L10.5639 6.45608L10.0067 5.44351L9.91512 6.79277L9.67589 6.91691L8.91174 5.52832L9.15098 5.40417L9.7082 6.41674ZM9.39162 4.63256L9.58665 4.53135C9.62337 4.59809 9.64049 4.66565 9.63801 4.73403C9.63505 4.80156 9.61254 4.86493 9.57047 4.92416C9.5284 4.98339 9.4675 5.03369 9.38775 5.07507C9.26727 5.1376 9.1545 5.15542 9.04945 5.12854C8.94479 5.10036 8.86468 5.03579 8.80913 4.93483L9.00416 4.83363C9.03193 4.88411 9.07115 4.92095 9.12181 4.94416C9.17247 4.96736 9.23334 4.96052 9.30442 4.92364C9.37376 4.88765 9.41257 4.84276 9.42086 4.78897C9.42914 4.73518 9.41939 4.68304 9.39162 4.63256Z" fill="white"/>
<path d="M13.4741 5.10009L14.0747 3.93123L14.3471 3.92362L14.5254 5.49851L14.2531 5.50613L14.123 4.35771L13.5224 5.52656L13.253 5.53409L13.0746 3.9592L13.3441 3.95166L13.4741 5.10009Z" fill="white"/>
<path d="M18.2135 4.41839L17.9431 4.30956L17.9914 4.14969L18.2414 4.25032C18.3112 4.2784 18.3691 4.29176 18.4152 4.2904C18.4616 4.28811 18.4984 4.27407 18.5255 4.24828C18.5526 4.22248 18.5728 4.18762 18.586 4.14367C18.5979 4.10441 18.5991 4.06347 18.5896 4.02086C18.5813 3.97767 18.5591 3.93676 18.523 3.89812C18.4872 3.85855 18.4335 3.82436 18.3619 3.79556C18.3039 3.77222 18.2481 3.76182 18.1945 3.76437C18.1412 3.76597 18.095 3.77936 18.0559 3.80451C18.018 3.8291 17.9923 3.86383 17.9788 3.90871L17.7274 3.80753C17.7553 3.71497 17.8047 3.64572 17.8754 3.59976C17.9474 3.55323 18.0314 3.52887 18.1276 3.52668C18.2247 3.52486 18.3239 3.54437 18.4254 3.5852C18.5106 3.61948 18.5837 3.65992 18.6448 3.70654C18.7071 3.75258 18.7562 3.80378 18.792 3.86013C18.8281 3.91556 18.8501 3.97577 18.8579 4.04077C18.8669 4.1052 18.8605 4.17342 18.8388 4.2454C18.8233 4.29682 18.7968 4.3407 18.7594 4.37703C18.722 4.41336 18.6758 4.44035 18.6207 4.45801C18.5658 4.47474 18.5038 4.48015 18.4344 4.47426C18.366 4.46874 18.2923 4.45011 18.2135 4.41839ZM17.9727 4.21139L18.2432 4.32023C18.331 4.3556 18.4058 4.39565 18.4675 4.4404C18.5295 4.48421 18.578 4.53206 18.6131 4.58394C18.6483 4.63583 18.6697 4.69111 18.6774 4.74977C18.6863 4.80786 18.6811 4.8687 18.6619 4.93227C18.6405 5.00332 18.6071 5.06171 18.5618 5.10744C18.5177 5.15259 18.4643 5.1846 18.4018 5.20344C18.3392 5.22229 18.2694 5.22778 18.1926 5.21991C18.1166 5.2124 18.036 5.19151 17.9509 5.15723C17.8558 5.11895 17.7684 5.06493 17.6889 4.99518C17.6094 4.92542 17.5512 4.84382 17.5144 4.75037C17.4779 4.65598 17.4761 4.5541 17.5091 4.44471L17.7605 4.54589C17.7467 4.5917 17.7476 4.64083 17.7633 4.69327C17.7789 4.7457 17.8079 4.79457 17.8501 4.83987C17.8932 4.88553 17.9478 4.92167 18.014 4.94828C18.0846 4.97672 18.1469 4.98921 18.2008 4.98573C18.2547 4.98225 18.299 4.96655 18.3339 4.93864C18.3696 4.91109 18.3941 4.87534 18.4074 4.8314C18.4246 4.77437 18.4276 4.72419 18.4162 4.68084C18.4049 4.6375 18.379 4.59877 18.3385 4.56464C18.2992 4.52995 18.2447 4.49857 18.1749 4.47049L17.9249 4.36986L17.9727 4.21139Z" fill="white"/>
<path d="M20.725 6.25927L21.1513 5.56355C21.1839 5.51025 21.2019 5.45673 21.2051 5.40297C21.2096 5.34894 21.1981 5.29677 21.1707 5.24644C21.1432 5.19611 21.0996 5.14986 21.0397 5.10769C20.9838 5.06833 20.9286 5.04374 20.874 5.03393C20.8202 5.02467 20.7714 5.02785 20.7276 5.04346C20.6845 5.05962 20.6515 5.08644 20.6286 5.12392L20.407 4.96788C20.4366 4.91958 20.4779 4.88014 20.5309 4.84954C20.584 4.81895 20.6446 4.80024 20.7128 4.79342C20.7822 4.78634 20.8554 4.79376 20.9323 4.8157C21.0104 4.83737 21.0886 4.87575 21.1669 4.93086C21.2611 4.99721 21.3339 5.07234 21.3854 5.15626C21.4376 5.24073 21.4635 5.33103 21.4629 5.42716C21.4636 5.52302 21.433 5.62132 21.3713 5.72208L20.9856 6.35161C20.9581 6.39657 20.9323 6.44698 20.9084 6.50284C20.8853 6.55926 20.8701 6.61113 20.8628 6.65845L20.8505 6.67843L20.6194 6.51565C20.6245 6.48113 20.6374 6.43956 20.6581 6.39093C20.6792 6.34146 20.7016 6.29758 20.725 6.25927ZM21.1238 5.69796L21.0267 5.86202L20.8027 5.7043C20.7397 5.65988 20.6801 5.62565 20.6239 5.60161C20.5683 5.57674 20.5173 5.56291 20.4711 5.56011C20.4248 5.55731 20.3831 5.56555 20.3462 5.58482C20.3097 5.60326 20.2788 5.6333 20.2533 5.67493C20.2272 5.7174 20.2127 5.76259 20.2096 5.81049C20.2066 5.8584 20.217 5.90569 20.241 5.95238C20.2663 5.99879 20.3061 6.04111 20.3604 6.07935C20.4282 6.12715 20.4973 6.15433 20.5676 6.1609C20.6378 6.16747 20.7014 6.15979 20.7583 6.13786C20.8159 6.11648 20.8585 6.08624 20.8859 6.04713L20.9124 6.22492C20.8854 6.25596 20.8465 6.284 20.7957 6.30903C20.7449 6.33407 20.6868 6.35154 20.6213 6.36144C20.5571 6.37107 20.4888 6.36882 20.4163 6.35472C20.3451 6.34034 20.2743 6.30841 20.2041 6.25893C20.1162 6.19707 20.0502 6.12491 20.0058 6.04243C19.9623 5.96052 19.9405 5.87665 19.9405 5.79083C19.9418 5.70474 19.9655 5.62422 20.0114 5.54928C20.0558 5.47683 20.1084 5.42269 20.1692 5.38685C20.2305 5.35018 20.2979 5.33151 20.3715 5.33086C20.4455 5.32938 20.5244 5.34436 20.608 5.37581C20.6916 5.40727 20.7777 5.4542 20.8663 5.51662L21.1238 5.69796Z" fill="white"/>
<path d="M23.0246 6.80748L21.6536 8.10784L21.4708 7.90576L23.063 6.39573L23.23 6.58043L23.0246 6.80748ZM23.3965 7.92613L23.3742 7.9473C23.2906 8.0266 23.2038 8.09005 23.1139 8.13764C23.0247 8.18456 22.9362 8.21333 22.8484 8.22395C22.7613 8.23529 22.6776 8.22648 22.5975 8.19754C22.5174 8.1686 22.4442 8.11755 22.3781 8.04439C22.3106 7.96978 22.263 7.89244 22.2354 7.81237C22.2077 7.7323 22.1989 7.65051 22.2089 7.56699C22.219 7.48347 22.2454 7.39918 22.2883 7.31413C22.3318 7.22979 22.39 7.14498 22.4629 7.05967L22.582 6.94677C22.6749 6.87482 22.7658 6.81888 22.8547 6.77894C22.9436 6.739 23.0295 6.71607 23.1124 6.71016C23.1966 6.7043 23.2766 6.71786 23.3525 6.75084C23.4291 6.78314 23.5008 6.83624 23.5676 6.91012C23.6344 6.984 23.6795 7.06299 23.7029 7.14709C23.7271 7.23052 23.7309 7.31632 23.7146 7.40449C23.6982 7.49267 23.6627 7.5808 23.6082 7.66891C23.5549 7.75706 23.4844 7.8428 23.3965 7.92613ZM23.1915 7.74522L23.2138 7.72405C23.2712 7.66961 23.3195 7.61238 23.3586 7.55236C23.3985 7.49166 23.4258 7.43013 23.4405 7.36776C23.4565 7.30545 23.4575 7.24396 23.4435 7.18329C23.4301 7.12194 23.3985 7.06375 23.3488 7.0087C23.3029 6.958 23.2545 6.92188 23.2034 6.90034C23.153 6.87953 23.1015 6.86986 23.0488 6.87134C22.9969 6.87214 22.945 6.88169 22.8931 6.89997C22.8425 6.91831 22.7942 6.94198 22.748 6.97097L22.4727 7.23205C22.4362 7.29358 22.4078 7.35821 22.3874 7.42596C22.3678 7.49302 22.3642 7.56106 22.3765 7.63005C22.3896 7.69838 22.426 7.7655 22.4856 7.83141C22.5347 7.88573 22.5879 7.92204 22.6453 7.94032C22.704 7.95865 22.7643 7.96201 22.8262 7.9504C22.8887 7.93952 22.9507 7.91638 23.0121 7.88098C23.0743 7.8449 23.1341 7.79965 23.1915 7.74522Z" fill="white"/>
<path d="M24.3255 10.0937L25.0421 9.70349C25.097 9.67361 25.1382 9.63667 25.1659 9.59268C25.195 9.54907 25.2083 9.49958 25.2059 9.44421C25.2034 9.38884 25.184 9.32937 25.1477 9.26579C25.1137 9.20645 25.0736 9.15993 25.0273 9.12621C24.9815 9.09334 24.9346 9.0733 24.8866 9.06608C24.8391 9.05971 24.7961 9.06703 24.7575 9.08805L24.6229 8.85282C24.6726 8.82574 24.7292 8.8116 24.7927 8.81041C24.8561 8.80922 24.9211 8.82162 24.9877 8.84761C25.0557 8.87398 25.1204 8.91434 25.1819 8.96869C25.2447 9.02343 25.2998 9.09233 25.3474 9.1754C25.4046 9.27543 25.4379 9.37292 25.4472 9.46789C25.457 9.56371 25.4396 9.65215 25.3948 9.7332C25.3514 9.81464 25.2778 9.88361 25.1741 9.94012L24.5257 10.2932C24.4793 10.3184 24.4322 10.349 24.3843 10.3852C24.3368 10.4221 24.2988 10.4589 24.2703 10.4956L24.2497 10.5068L24.1093 10.2614C24.13 10.2346 24.1611 10.2054 24.2026 10.1739C24.2451 10.1419 24.286 10.1151 24.3255 10.0937ZM24.9547 9.80442L24.7889 9.89803L24.6529 9.66026C24.6146 9.5933 24.5748 9.53657 24.5336 9.49009C24.4932 9.44314 24.4522 9.4077 24.4104 9.38377C24.3685 9.35984 24.326 9.34743 24.2827 9.34653C24.2403 9.34516 24.1977 9.35615 24.1548 9.3795C24.1111 9.40331 24.0768 9.43478 24.0519 9.47389C24.027 9.513 24.015 9.55789 24.0159 9.60855C24.0181 9.6596 24.0357 9.71394 24.0687 9.77158C24.1099 9.84364 24.1617 9.8988 24.2241 9.93709C24.2865 9.97538 24.3492 9.99848 24.4122 10.0064C24.4757 10.0152 24.5292 10.0094 24.5727 9.98906L24.5157 10.1519C24.4763 10.1655 24.4272 10.1711 24.3684 10.1687C24.3096 10.1662 24.2475 10.1539 24.1819 10.1318C24.1178 10.11 24.0552 10.0763 23.9941 10.0306C23.9345 9.98529 23.8833 9.92533 23.8406 9.85073C23.7873 9.75749 23.7589 9.66565 23.7556 9.57522C23.7527 9.48563 23.771 9.40453 23.8104 9.33191C23.8512 9.25967 23.9102 9.20254 23.9874 9.16051C24.062 9.11988 24.1358 9.09857 24.2089 9.09657C24.2829 9.0941 24.3542 9.10972 24.423 9.14342C24.4926 9.17666 24.5591 9.22605 24.6225 9.2916C24.6859 9.35714 24.7445 9.43696 24.7983 9.53105L24.9547 9.80442Z" fill="white"/>
<path d="M27.449 12.1594L27.5145 12.3722C27.4214 12.3946 27.3431 12.3985 27.2794 12.3837C27.2167 12.3688 27.1631 12.3406 27.1188 12.2992C27.0747 12.2586 27.0358 12.2099 27.0019 12.1529C26.9683 12.0968 26.9345 12.0383 26.9005 11.9773C26.8587 11.9011 26.8087 11.833 26.7504 11.7729C26.6934 11.7134 26.6241 11.667 26.5424 11.6335C26.461 11.601 26.3636 11.5859 26.2501 11.5882C26.1369 11.5914 26.0035 11.6171 25.85 11.6651L25.719 11.6967L25.6536 11.4839L25.7846 11.4523C25.9602 11.41 26.1185 11.3893 26.2596 11.3904C26.4009 11.3924 26.526 11.4129 26.6349 11.4518C26.7437 11.4907 26.8375 11.5453 26.9162 11.6156C26.9952 11.6868 27.0602 11.7704 27.1111 11.8664C27.1477 11.9357 27.1822 11.9946 27.2144 12.043C27.2475 12.0911 27.2825 12.1253 27.3193 12.1455C27.3564 12.1666 27.3997 12.1713 27.449 12.1594ZM26.5957 12.0358C26.6261 12.1347 26.6357 12.2271 26.6244 12.3131C26.6131 12.399 26.5845 12.4766 26.5384 12.5459C26.4924 12.6151 26.431 12.6741 26.3542 12.7227C26.2786 12.772 26.191 12.8086 26.0913 12.8327L26.0599 12.8402C25.9527 12.8661 25.8482 12.8747 25.7467 12.8661C25.6464 12.8583 25.553 12.8331 25.4665 12.7908C25.3813 12.7492 25.3068 12.691 25.243 12.6161C25.1795 12.5422 25.1314 12.452 25.0987 12.3456C25.066 12.2392 25.0557 12.1394 25.0678 12.0463C25.0802 11.954 25.1111 11.8704 25.1604 11.7953C25.2107 11.72 25.2767 11.656 25.3583 11.6032C25.4412 11.5511 25.5363 11.5122 25.6436 11.4863L25.6749 11.4787C25.6987 11.473 25.7232 11.4716 25.7486 11.4745C25.7739 11.4774 25.8004 11.4821 25.8278 11.4885C25.8556 11.4958 25.8843 11.5014 25.9141 11.5053C26.0101 11.5192 26.1039 11.5473 26.1954 11.5894C26.2871 11.6324 26.3682 11.6906 26.4387 11.7638C26.5104 11.8378 26.5627 11.9284 26.5957 12.0358ZM26.3652 12.0372C26.3359 11.942 26.2895 11.869 26.2259 11.8181C26.1627 11.7682 26.0894 11.7372 26.0062 11.7252C25.9239 11.713 25.84 11.7172 25.7546 11.7378L25.7232 11.7453C25.6511 11.7627 25.5853 11.7876 25.5259 11.82C25.4665 11.8523 25.4169 11.8914 25.3769 11.9371C25.3381 11.9836 25.3126 12.0364 25.3002 12.0955C25.288 12.1556 25.293 12.2216 25.3151 12.2934C25.3372 12.3653 25.3706 12.4239 25.4151 12.4693C25.4597 12.5147 25.5118 12.5483 25.5715 12.57C25.6321 12.5915 25.6973 12.6028 25.767 12.6041C25.8368 12.6053 25.9077 12.5972 25.9799 12.5798L26.0112 12.5723C26.0757 12.5567 26.1344 12.5335 26.1871 12.5028C26.2399 12.472 26.2833 12.434 26.3173 12.3887C26.3515 12.3443 26.3733 12.2924 26.3826 12.233C26.3931 12.1744 26.3873 12.1091 26.3652 12.0372Z" fill="white"/>
<path d="M26.0478 15.0944L26.8636 15.1067C26.9261 15.1077 26.9794 15.0958 27.0234 15.0712C27.0685 15.0475 27.1019 15.0111 27.1237 14.9618C27.1454 14.9125 27.1536 14.8513 27.1483 14.7783C27.1433 14.7101 27.1272 14.65 27.1 14.5981C27.0729 14.5471 27.0392 14.5067 26.999 14.4769C26.9588 14.4481 26.9168 14.4333 26.8728 14.4327L26.8531 14.1624C26.9097 14.1632 26.9669 14.1787 27.0247 14.2087C27.0825 14.2388 27.1359 14.2814 27.1848 14.3367C27.2347 14.3929 27.2757 14.4596 27.3077 14.537C27.3407 14.6153 27.3607 14.7022 27.3677 14.7977C27.3761 14.9126 27.364 15.0136 27.3313 15.1006C27.2988 15.1887 27.2447 15.2569 27.1693 15.3054C27.0949 15.3549 26.9986 15.3787 26.8804 15.377L26.1422 15.3658C26.0895 15.365 26.0337 15.3686 25.9748 15.3764C25.9159 15.3853 25.8657 15.3986 25.8241 15.4165L25.8006 15.4161L25.78 15.1342C25.8103 15.121 25.851 15.1109 25.9022 15.1039C25.9543 15.0969 26.0029 15.0937 26.0478 15.0944ZM26.741 15.1516L26.5509 15.1516L26.5309 14.8784C26.5253 14.8015 26.5139 14.7327 26.4968 14.6721C26.4806 14.6116 26.4589 14.5607 26.4315 14.5194C26.4041 14.4781 26.371 14.4465 26.3324 14.4245C26.2947 14.4025 26.2514 14.3912 26.2026 14.3904C26.1528 14.3897 26.1082 14.4002 26.0688 14.422C26.0295 14.4438 25.9992 14.4769 25.9781 14.5213C25.958 14.5667 25.9504 14.6226 25.9552 14.6888C25.9612 14.7716 25.9842 14.8449 26.0239 14.9087C26.0637 14.9726 26.1104 15.0234 26.1638 15.0611C26.2174 15.0999 26.2682 15.1211 26.3163 15.1247L26.1943 15.2382C26.1528 15.2307 26.1061 15.2116 26.0541 15.1806C26.0021 15.1497 25.9513 15.1085 25.9017 15.0572C25.8531 15.0068 25.8112 14.9469 25.7759 14.8772C25.7416 14.8086 25.7213 14.7315 25.715 14.6458C25.7072 14.5386 25.7213 14.445 25.7574 14.3647C25.7935 14.2855 25.8451 14.224 25.9122 14.1803C25.9802 14.1375 26.0582 14.1168 26.1461 14.1181C26.231 14.1194 26.307 14.1371 26.3738 14.1712C26.4417 14.2053 26.4994 14.2538 26.5469 14.3168C26.5954 14.3798 26.6341 14.4553 26.6629 14.5433C26.6918 14.6313 26.7102 14.7294 26.7181 14.8375L26.741 15.1516Z" fill="white"/>
<path d="M27.3453 17.7373L25.8085 17.3497L25.8498 17.0804L27.3866 17.468L27.3453 17.7373ZM27.2647 18.2629L27.0517 18.2092L27.2526 16.8988L27.4656 16.9525L27.2647 18.2629Z" fill="white"/>
<path d="M25.536 19.3459L25.3397 19.7797C25.287 19.8962 25.2228 19.9837 25.1473 20.0421C25.0725 20.101 24.9917 20.132 24.9048 20.1353C24.8183 20.1399 24.7318 20.1184 24.6454 20.0708C24.5813 20.0355 24.5262 19.9907 24.4802 19.9365C24.4351 19.8827 24.402 19.8212 24.381 19.7518C24.3596 19.6834 24.3523 19.6087 24.3589 19.5279C24.366 19.4485 24.3893 19.3651 24.4287 19.2779L24.7065 18.664L26.0948 19.4286L25.9831 19.6755L24.7898 19.0183L24.6237 19.3854C24.5915 19.4565 24.5782 19.5203 24.5837 19.5767C24.5892 19.633 24.6073 19.6814 24.6382 19.7218C24.6691 19.7621 24.706 19.7941 24.7487 19.8176C24.7907 19.8407 24.8359 19.854 24.8846 19.8574C24.9333 19.8609 24.9805 19.8486 25.0263 19.8205C25.073 19.7928 25.1125 19.7434 25.1447 19.6723L25.3409 19.2385L25.536 19.3459ZM25.3406 21.0956L23.9523 20.3309L24.064 20.084L25.4523 20.8487L25.3406 21.0956Z" fill="white"/>
<path d="M23.5645 22.266L23.9055 21.8734L24.0653 22.0197L23.7868 22.3405C23.7317 22.4039 23.692 22.4623 23.6675 22.5157C23.6425 22.5698 23.6328 22.6189 23.6384 22.6631C23.644 22.7072 23.6646 22.746 23.7002 22.7795C23.7279 22.8055 23.7575 22.822 23.7891 22.8289C23.8206 22.8372 23.8538 22.8355 23.8884 22.8239C23.9238 22.8129 23.9603 22.7924 23.9981 22.7623C24.036 22.7336 24.0757 22.6953 24.1173 22.6474L24.345 22.3853L23.3505 21.4499L23.5282 21.2453L24.6827 22.3312L24.2774 22.7979C24.2114 22.8739 24.1458 22.936 24.0805 22.9844C24.0145 23.0336 23.9498 23.0672 23.8863 23.0852C23.823 23.1046 23.7614 23.107 23.7017 23.0924C23.642 23.0778 23.5852 23.045 23.5311 22.9942C23.4963 22.9614 23.4696 22.9229 23.4511 22.8787C23.4326 22.8345 23.4237 22.7867 23.4245 22.7352C23.4253 22.6837 23.4361 22.6296 23.457 22.5728C23.4786 22.5167 23.5109 22.4594 23.554 22.4008L23.5645 22.266ZM23.0566 21.7883L23.462 21.3216L23.5336 21.5739L23.2167 21.9388C23.1673 21.9956 23.1331 22.0492 23.114 22.0995C23.0955 22.1505 23.0911 22.1972 23.1007 22.2397C23.1104 22.2836 23.1334 22.3227 23.1696 22.3568C23.2059 22.3909 23.2452 22.4104 23.2874 22.4154C23.3298 22.4217 23.374 22.4124 23.4202 22.3875C23.4671 22.3633 23.5152 22.3228 23.5645 22.266L23.8344 21.9553L23.9904 22.106L23.6533 22.4942L23.5291 22.5121C23.4672 22.573 23.4032 22.614 23.3371 22.6349C23.2711 22.6559 23.2076 22.6591 23.1466 22.6445C23.0862 22.6307 23.0326 22.6016 22.9856 22.5575C22.9316 22.5066 22.8932 22.4511 22.8705 22.3909C22.8472 22.3315 22.839 22.2688 22.8458 22.2029C22.8533 22.1376 22.8747 22.0699 22.9097 21.9998C22.9455 21.9303 22.9945 21.8598 23.0566 21.7883Z" fill="white"/>
<path d="M21.4906 23.6391L21.9506 24.313C21.9859 24.3646 22.0269 24.4022 22.0738 24.4259C22.1205 24.451 22.1716 24.46 22.2272 24.4531C22.2828 24.4462 22.3409 24.4222 22.4016 24.3812C22.4582 24.3429 22.5014 24.2996 22.531 24.2512C22.5599 24.2035 22.5757 24.1556 22.5785 24.1078C22.5805 24.0604 22.5691 24.0186 22.5443 23.9823L22.7688 23.8306C22.8008 23.8774 22.8203 23.9319 22.8274 23.9943C22.8345 24.0567 22.8281 24.1217 22.8081 24.1895C22.7879 24.2586 22.7532 24.3256 22.7042 24.3906C22.6549 24.4569 22.5906 24.5169 22.5113 24.5705C22.4158 24.635 22.3207 24.6758 22.2258 24.6927C22.1302 24.7102 22.0394 24.7003 21.9536 24.6628C21.8674 24.6267 21.7911 24.5599 21.7245 24.4623L21.3082 23.8526C21.2785 23.809 21.2432 23.7651 21.2023 23.7208C21.1606 23.6771 21.12 23.6427 21.0804 23.6176L21.0672 23.5982L21.3014 23.4399C21.3303 23.458 21.3626 23.4863 21.3983 23.5247C21.4345 23.5639 21.4653 23.602 21.4906 23.6391ZM21.8408 24.2352L21.731 24.0795L21.9579 23.9261C22.0218 23.8829 22.0753 23.8391 22.1183 23.7947C22.1618 23.7511 22.1937 23.7078 22.2139 23.6646C22.2341 23.6215 22.2427 23.5786 22.2396 23.5359C22.237 23.494 22.2219 23.4529 22.1944 23.4126C22.1663 23.3715 22.1314 23.3403 22.0897 23.319C22.0479 23.2977 22.0016 23.2895 21.9506 23.2945C21.8994 23.3009 21.8462 23.3226 21.7912 23.3598C21.7225 23.4063 21.6717 23.4619 21.6389 23.5264C21.6062 23.591 21.5887 23.6547 21.5866 23.7174C21.5837 23.7807 21.5945 23.8329 21.6191 23.8741L21.4497 23.8312C21.4322 23.7935 21.422 23.7456 21.419 23.6875C21.416 23.6294 21.4226 23.5672 21.4388 23.5008C21.4547 23.4359 21.4829 23.3714 21.5232 23.3076C21.5633 23.2451 21.619 23.1898 21.6902 23.1417C21.7792 23.0815 21.8691 23.0461 21.9599 23.0354C22.0499 23.0252 22.1334 23.0366 22.2102 23.0695C22.2868 23.1038 22.3499 23.1572 22.3995 23.2298C22.4474 23.3 22.4757 23.3709 22.4846 23.4428C22.494 23.5154 22.4849 23.587 22.4573 23.6575C22.4303 23.7288 22.3867 23.7983 22.3266 23.8661C22.2664 23.9338 22.1915 23.9981 22.1017 24.0588L21.8408 24.2352Z" fill="white"/>
<path d="M20.1343 24.6202L19.8578 25.9276L19.5992 26.0133L19.0267 24.5353L19.2853 24.4497L19.7028 25.5274L19.9792 24.2199L20.2351 24.1352L20.8076 25.6132L20.5518 25.6979L20.1343 24.6202ZM20.2057 26.4166L19.9971 26.4856C19.9696 26.4146 19.9618 26.3458 19.9736 26.2792C19.9859 26.2135 20.017 26.1549 20.0671 26.1034C20.1173 26.0518 20.185 26.012 20.2703 25.9837C20.3991 25.9411 20.5141 25.941 20.6153 25.9835C20.716 26.0272 20.7871 26.1028 20.8287 26.2103L20.6201 26.2794C20.5993 26.2256 20.5652 26.1835 20.5178 26.153C20.4704 26.1224 20.4087 26.1197 20.3327 26.1449C20.2585 26.1695 20.2136 26.2074 20.198 26.2589C20.1823 26.3103 20.1849 26.3628 20.2057 26.4166Z" fill="white"/>
<path d="M18.2857 15.9375C17.882 15.9375 17.5109 16.0826 17.218 16.3252L15.3879 15.1367C15.4421 14.882 15.4421 14.618 15.3879 14.3633L17.218 13.1748C17.5109 13.4174 17.882 13.5625 18.2857 13.5625C19.2325 13.5625 20 12.765 20 11.7812C20 10.7975 19.2325 10 18.2857 10C17.3389 10 16.5714 10.7975 16.5714 11.7812C16.5714 11.9141 16.5855 12.0434 16.6121 12.1679L14.782 13.3565C14.4891 13.1138 14.118 12.9688 13.7143 12.9688C12.7675 12.9688 12 13.7662 12 14.75C12 15.7338 12.7675 16.5312 13.7143 16.5312C14.118 16.5312 14.4891 16.3862 14.782 16.1436L16.6121 17.3321C16.585 17.459 16.5714 17.5887 16.5714 17.7188C16.5714 18.7025 17.3389 19.5 18.2857 19.5C19.2325 19.5 20 18.7025 20 17.7188C20 16.735 19.2325 15.9375 18.2857 15.9375Z" fill="white"/>
</g>
<defs>
<linearGradient id="paint0_linear_1_438" x1="29.0039" y1="15.4414" x2="1.87891" y2="15.4414" gradientUnits="userSpaceOnUse">
<stop stop-color="#CB11AB"/>
<stop offset="1" stop-color="#481173"/>
</linearGradient>
<clipPath id="clip0_1_438">
<rect width="31" height="31" fill="white"/>
</clipPath>
</defs>
</svg>
