<svg width="84" height="17" viewBox="0 0 84 17" fill="none" xmlns="http://www.w3.org/2000/svg">
<path d="M7.05269 1.74808C7.09759 1.60988 7.29311 1.60988 7.33801 1.74807L8.48324 5.27272C8.57025 5.54054 8.81983 5.72186 9.10142 5.72186H12.8075C12.9528 5.72186 13.0132 5.90781 12.8956 5.99322L9.89738 8.17157C9.66956 8.33709 9.57423 8.63048 9.66125 8.89829L10.8065 12.4229C10.8514 12.5611 10.6932 12.6761 10.5757 12.5906L7.57741 10.4123C7.34959 10.2468 7.04111 10.2468 6.81329 10.4123L3.81504 12.5906C3.69748 12.6761 3.53931 12.5611 3.58422 12.4229L4.72944 8.89829C4.81646 8.63048 4.72113 8.33709 4.49332 8.17157L1.49507 5.99322C1.37751 5.90781 1.43793 5.72186 1.58324 5.72186H5.28927C5.57087 5.72186 5.82044 5.54054 5.90746 5.27272L7.05269 1.74808Z" fill="#F6BA1E" stroke="#F6BA1E" stroke-width="0.5"/>
<path d="M23.6582 1.74808C23.7031 1.60988 23.8986 1.60988 23.9435 1.74807L25.0887 5.27272C25.1757 5.54054 25.4253 5.72186 25.7069 5.72186H29.4129C29.5582 5.72186 29.6187 5.90781 29.5011 5.99322L26.5028 8.17157C26.275 8.33709 26.1797 8.63048 26.2667 8.89829L27.412 12.4229C27.4569 12.5611 27.2987 12.6761 27.1811 12.5906L24.1829 10.4123C23.9551 10.2468 23.6466 10.2468 23.4188 10.4123L20.4205 12.5906C20.303 12.6761 20.1448 12.5611 20.1897 12.4229L21.3349 8.89829C21.4219 8.63048 21.3266 8.33709 21.0988 8.17157L18.1005 5.99322C17.983 5.90781 18.0434 5.72186 18.1887 5.72186H21.8947C22.1763 5.72186 22.4259 5.54054 22.5129 5.27272L23.6582 1.74808Z" fill="#F6BA1E" stroke="#F6BA1E" stroke-width="0.5"/>
<path d="M40.2636 1.74808C40.3085 1.60988 40.504 1.60988 40.5489 1.74807L41.6942 5.27272C41.7812 5.54054 42.0308 5.72186 42.3124 5.72186H46.0184C46.1637 5.72186 46.2241 5.90781 46.1066 5.99322L43.1083 8.17157C42.8805 8.33709 42.7852 8.63048 42.8722 8.89829L44.0174 12.4229C44.0623 12.5611 43.9042 12.6761 43.7866 12.5906L40.7883 10.4123C40.5605 10.2468 40.252 10.2468 40.0242 10.4123L37.026 12.5906C36.9084 12.6761 36.7503 12.5611 36.7952 12.4229L37.9404 8.89829C38.0274 8.63048 37.9321 8.33709 37.7043 8.17157L34.706 5.99322C34.5885 5.90781 34.6489 5.72186 34.7942 5.72186H38.5002C38.7818 5.72186 39.0314 5.54054 39.1184 5.27272L40.2636 1.74808Z" fill="#F6BA1E" stroke="#F6BA1E" stroke-width="0.5"/>
<path d="M57.4511 1.74808C57.496 1.60988 57.6915 1.60988 57.7364 1.74807L58.8817 5.27272C58.9687 5.54054 59.2183 5.72186 59.4999 5.72186H63.2059C63.3512 5.72186 63.4116 5.90781 63.2941 5.99322L60.2958 8.17157C60.068 8.33709 59.9727 8.63048 60.0597 8.89829L61.2049 12.4229C61.2498 12.5611 61.0917 12.6761 60.9741 12.5906L57.9758 10.4123C57.748 10.2468 57.4395 10.2468 57.2117 10.4123L54.2135 12.5906C54.0959 12.6761 53.9378 12.5611 53.9827 12.4229L55.1279 8.89829C55.2149 8.63048 55.1196 8.33709 54.8918 8.17157L51.8935 5.99322C51.776 5.90781 51.8364 5.72186 51.9817 5.72186H55.6877C55.9693 5.72186 56.2189 5.54054 56.3059 5.27272L57.4511 1.74808Z" fill="#F6BA1E" stroke="#F6BA1E" stroke-width="0.5"/>
<path d="M75.0527 1.74808C75.0976 1.60988 75.2931 1.60988 75.338 1.74807L76.4832 5.27272C76.5703 5.54054 76.8198 5.72186 77.1014 5.72186H80.8075C80.9528 5.72186 81.0132 5.90781 80.8956 5.99322L77.8974 8.17157C77.6696 8.33709 77.5742 8.63048 77.6613 8.89829L78.8065 12.4229C78.8514 12.5611 78.6932 12.6761 78.5757 12.5906L75.5774 10.4123C75.3496 10.2468 75.0411 10.2468 74.8133 10.4123L71.815 12.5906C71.6975 12.6761 71.5393 12.5611 71.5842 12.4229L72.7294 8.89829C72.8165 8.63048 72.7211 8.33709 72.4933 8.17157L69.4951 5.99322C69.3775 5.90781 69.4379 5.72186 69.5832 5.72186H73.2893C73.5709 5.72186 73.8204 5.54054 73.9075 5.27272L75.0527 1.74808Z" stroke="#F6BA1E" stroke-width="0.5"/>
<path d="M75 10.2998V1.7998L73.5 5.7998H69.5L73 8.7998L71.5 12.7998L75 10.2998Z" fill="#F6BA1E"/>
</svg>
