<svg width="65" height="66" viewBox="0 0 65 66" fill="none" xmlns="http://www.w3.org/2000/svg">
<path d="M27.9209 62.6737C31.2253 63.2299 34.5997 63.2299 37.9041 62.6737" stroke="#BB2FA6" stroke-width="4"/>
<path d="M27.9209 3.32826C31.2253 2.77209 34.5997 2.77209 37.9041 3.32826" stroke="#BB2FA6" stroke-width="4"/>
<path d="M62.5856 28.0098C63.14 31.3144 63.1381 34.6887 62.5801 37.9927" stroke="#BB2FA6" stroke-width="4"/>
<path d="M3.23952 28.0098C2.68521 31.3144 2.68711 34.6887 3.24512 37.9927" stroke="#BB2FA6" stroke-width="4"/>
<path d="M50.5604 8.63252C53.2733 10.5994 55.6385 13.0062 57.5581 15.7528" stroke="#BB2FA6" stroke-width="4"/>
<path d="M8.25498 50.2513C10.1773 52.9959 12.5452 55.4001 15.26 57.3643" stroke="#BB2FA6" stroke-width="4"/>
<path d="M57.2762 50.6518C55.3093 53.3646 52.9025 55.7298 50.1559 57.6494" stroke="#B6B6B6" stroke-width="4"/>
<path d="M15.6564 8.34727C12.9118 10.2695 10.5076 12.6374 8.54346 15.3523" stroke="#BB2FA6" stroke-width="4"/>
<path d="M58.4396 17.0337C60.2165 19.8746 61.5064 22.9929 62.2554 26.2589" stroke="#BB2FA6" stroke-width="4"/>
<path d="M3.61018 39.7437C4.36244 43.009 5.65521 46.126 7.43494 48.9651" stroke="#BB2FA6" stroke-width="4"/>
<path d="M48.9014 58.5047C46.0605 60.2816 42.9423 61.5711 39.6762 62.3201" stroke="#B6B6B6" stroke-width="4"/>
<path d="M26.1918 3.67596C22.9265 4.42822 19.8097 5.72121 16.9706 7.50094" stroke="#BB2FA6" stroke-width="4"/>
<path d="M39.6804 3.69124C42.9441 4.45051 46.0581 5.75019 48.8934 7.53601" stroke="#BB2FA6" stroke-width="4"/>
<path d="M16.8533 58.4718C19.6904 60.2548 22.8058 61.551 26.0703 62.307" stroke="#BB2FA6" stroke-width="4"/>
<path d="M62.1842 39.8073C61.4249 43.071 60.1253 46.1852 58.3395 49.0205" stroke="#BB2FA6" stroke-width="4"/>
<path d="M7.40427 16.9798C5.62129 19.8169 4.32474 22.9324 3.56874 26.1968" stroke="#BB2FA6" stroke-width="4"/>
<path d="M55.1428 32.5726C55.1428 45.0416 45.0365 55.1471 32.5717 55.1471C20.1037 55.1471 9.99951 45.0416 9.99951 32.5726C9.99951 20.1066 20.1037 10 32.5717 10C45.0365 10 55.1428 20.1066 55.1428 32.5726Z" fill="url(#paint0_linear_143_1385)"/>
<path d="M31.1904 33.0498L29.5029 32.6367L30.1973 26.2031H37.0967V27.9961H31.9551L31.6035 31.1338C31.8027 31.0166 32.0781 30.9023 32.4297 30.791C32.7812 30.6738 33.1826 30.6152 33.6338 30.6152C34.2373 30.6152 34.7764 30.7148 35.251 30.9141C35.7314 31.1074 36.1387 31.3916 36.4727 31.7666C36.8066 32.1357 37.0615 32.5869 37.2373 33.1201C37.4131 33.6475 37.501 34.2422 37.501 34.9043C37.501 35.4961 37.4131 36.0498 37.2373 36.5654C37.0674 37.0811 36.8096 37.5352 36.4639 37.9277C36.1182 38.3203 35.6816 38.6279 35.1543 38.8506C34.6328 39.0674 34.0146 39.1758 33.2998 39.1758C32.7666 39.1758 32.2539 39.0996 31.7617 38.9473C31.2754 38.7891 30.8389 38.5576 30.4521 38.2529C30.0654 37.9424 29.7549 37.5615 29.5205 37.1104C29.2861 36.6533 29.1514 36.1289 29.1162 35.5371H31.1904C31.2432 35.9531 31.3574 36.3076 31.5332 36.6006C31.7148 36.8877 31.9551 37.1074 32.2539 37.2598C32.5527 37.4121 32.8984 37.4883 33.291 37.4883C33.6484 37.4883 33.9561 37.4268 34.2139 37.3037C34.4717 37.1748 34.6855 36.9932 34.8555 36.7588C35.0312 36.5186 35.1602 36.2373 35.2422 35.915C35.3301 35.5928 35.374 35.2354 35.374 34.8428C35.374 34.4678 35.3242 34.125 35.2246 33.8145C35.1309 33.5039 34.9873 33.2344 34.7939 33.0059C34.6064 32.7773 34.3691 32.6016 34.082 32.4785C33.7949 32.3496 33.4639 32.2852 33.0889 32.2852C32.585 32.2852 32.1982 32.3584 31.9287 32.5049C31.665 32.6514 31.4189 32.833 31.1904 33.0498Z" fill="white"/>
<defs>
<linearGradient id="paint0_linear_143_1385" x1="55.1428" y1="32.5735" x2="9.99951" y2="32.5735" gradientUnits="userSpaceOnUse">
<stop stop-color="#CB11AB"/>
<stop offset="1" stop-color="#481173"/>
</linearGradient>
</defs>
</svg>
