<svg width="65" height="66" viewBox="0 0 65 66" fill="none" xmlns="http://www.w3.org/2000/svg">
<path d="M27.9209 62.6737C31.2253 63.2299 34.5997 63.2299 37.9041 62.6737" stroke="#BB2FA6" stroke-width="4"/>
<path d="M27.9209 3.32826C31.2253 2.77209 34.5997 2.77209 37.9041 3.32826" stroke="#BB2FA6" stroke-width="4"/>
<path d="M62.5856 28.0098C63.14 31.3144 63.1381 34.6887 62.5801 37.9927" stroke="#BB2FA6" stroke-width="4"/>
<path d="M3.23952 28.0098C2.68521 31.3144 2.68711 34.6887 3.24512 37.9927" stroke="#BB2FA6" stroke-width="4"/>
<path d="M50.5604 8.63252C53.2733 10.5994 55.6385 13.0062 57.5581 15.7528" stroke="#BB2FA6" stroke-width="4"/>
<path d="M8.25498 50.2513C10.1773 52.9959 12.5452 55.4001 15.26 57.3643" stroke="#BB2FA6" stroke-width="4"/>
<path d="M57.2762 50.6518C55.3093 53.3646 52.9025 55.7298 50.1559 57.6494" stroke="#BB2FA6" stroke-width="4"/>
<path d="M15.6564 8.34727C12.9118 10.2695 10.5076 12.6374 8.54346 15.3523" stroke="#BB2FA6" stroke-width="4"/>
<path d="M58.4396 17.0337C60.2165 19.8746 61.5064 22.9929 62.2554 26.2589" stroke="#BB2FA6" stroke-width="4"/>
<path d="M3.61018 39.7437C4.36244 43.009 5.65521 46.126 7.43494 48.9651" stroke="#BB2FA6" stroke-width="4"/>
<path d="M48.9014 58.5047C46.0605 60.2816 42.9423 61.5711 39.6762 62.3201" stroke="#B6B6B6" stroke-width="4"/>
<path d="M26.1918 3.67596C22.9265 4.42822 19.8097 5.72121 16.9706 7.50094" stroke="#BB2FA6" stroke-width="4"/>
<path d="M39.6804 3.69124C42.9441 4.45051 46.0581 5.75019 48.8934 7.53601" stroke="#BB2FA6" stroke-width="4"/>
<path d="M16.8533 58.4718C19.6904 60.2548 22.8058 61.551 26.0703 62.307" stroke="#BB2FA6" stroke-width="4"/>
<path d="M62.1842 39.8073C61.4249 43.071 60.1253 46.1852 58.3395 49.0205" stroke="#BB2FA6" stroke-width="4"/>
<path d="M7.40427 16.9798C5.62129 19.8169 4.32474 22.9324 3.56874 26.1968" stroke="#BB2FA6" stroke-width="4"/>
<path d="M55.1428 32.5726C55.1428 45.0416 45.0365 55.1471 32.5717 55.1471C20.1037 55.1471 9.99951 45.0416 9.99951 32.5726C9.99951 20.1066 20.1037 10 32.5717 10C45.0365 10 55.1428 20.1066 55.1428 32.5726Z" fill="url(#paint0_linear_143_1405)"/>
<path d="M35.3652 26.124H35.6289V27.8555H35.4795C34.7236 27.8555 34.0703 27.9727 33.5195 28.207C32.9746 28.4414 32.5264 28.7637 32.1748 29.1738C31.8232 29.584 31.5596 30.0645 31.3838 30.6152C31.2139 31.1602 31.1289 31.7402 31.1289 32.3555V34.3682C31.1289 34.8779 31.1846 35.3291 31.2959 35.7217C31.4072 36.1084 31.5625 36.4336 31.7617 36.6973C31.9668 36.9551 32.2012 37.1514 32.4648 37.2861C32.7285 37.4209 33.0127 37.4883 33.3174 37.4883C33.6338 37.4883 33.9209 37.4238 34.1787 37.2949C34.4365 37.1602 34.6562 36.9756 34.8379 36.7412C35.0195 36.5068 35.1572 36.2285 35.251 35.9062C35.3447 35.584 35.3916 35.2324 35.3916 34.8516C35.3916 34.4883 35.3447 34.1484 35.251 33.832C35.1631 33.5098 35.0312 33.2285 34.8555 32.9883C34.6797 32.7422 34.46 32.5518 34.1963 32.417C33.9385 32.2764 33.6396 32.2061 33.2998 32.2061C32.8779 32.2061 32.4941 32.3057 32.1484 32.5049C31.8086 32.7041 31.5332 32.9648 31.3223 33.2871C31.1172 33.6035 31.0059 33.9404 30.9883 34.2979L30.1797 34.0342C30.2266 33.4893 30.3467 33 30.54 32.5664C30.7393 32.1328 31 31.7637 31.3223 31.459C31.6445 31.1543 32.0166 30.9229 32.4385 30.7646C32.8662 30.6006 33.335 30.5186 33.8447 30.5186C34.4658 30.5186 35.0049 30.6357 35.4619 30.8701C35.9189 31.1045 36.2969 31.4238 36.5957 31.8281C36.9004 32.2266 37.126 32.6836 37.2725 33.1992C37.4248 33.709 37.501 34.2422 37.501 34.7988C37.501 35.4141 37.4072 35.9883 37.2197 36.5215C37.0322 37.0488 36.7568 37.5117 36.3936 37.9102C36.0361 38.3086 35.5996 38.6191 35.084 38.8418C34.5742 39.0645 33.9941 39.1758 33.3438 39.1758C32.6582 39.1758 32.0459 39.0439 31.5068 38.7803C30.9736 38.5166 30.5195 38.1533 30.1445 37.6904C29.7754 37.2275 29.4941 36.6943 29.3008 36.0908C29.1074 35.4873 29.0107 34.8486 29.0107 34.1748V33.2959C29.0107 32.3232 29.1338 31.4062 29.3799 30.5449C29.626 29.6777 30.0039 28.9131 30.5137 28.251C31.0293 27.5889 31.6885 27.0703 32.4912 26.6953C33.2939 26.3145 34.252 26.124 35.3652 26.124Z" fill="white"/>
<defs>
<linearGradient id="paint0_linear_143_1405" x1="55.1428" y1="32.5735" x2="9.99951" y2="32.5735" gradientUnits="userSpaceOnUse">
<stop stop-color="#CB11AB"/>
<stop offset="1" stop-color="#481173"/>
</linearGradient>
</defs>
</svg>
