<svg width="65" height="66" viewBox="0 0 65 66" fill="none" xmlns="http://www.w3.org/2000/svg">
<path d="M27.9209 62.6737C31.2253 63.2299 34.5997 63.2299 37.9041 62.6737" stroke="#BB2FA6" stroke-width="4"/>
<path d="M27.9209 3.32826C31.2253 2.77209 34.5997 2.77209 37.9041 3.32826" stroke="#B6B6B6" stroke-width="4"/>
<path d="M62.5856 28.0098C63.14 31.3144 63.1381 34.6887 62.5801 37.9927" stroke="#B6B6B6" stroke-width="4"/>
<path d="M3.23952 28.0098C2.68521 31.3144 2.68711 34.6887 3.24512 37.9927" stroke="#B6B6B6" stroke-width="4"/>
<path d="M50.56 8.63252C53.2728 10.5994 55.638 13.0062 57.5576 15.7528" stroke="#B6B6B6" stroke-width="4"/>
<path d="M8.25498 50.2513C10.1773 52.9959 12.5452 55.4001 15.26 57.3643" stroke="#BB2FA6" stroke-width="4"/>
<path d="M57.2762 50.6518C55.3093 53.3646 52.9025 55.7298 50.1559 57.6494" stroke="#B6B6B6" stroke-width="4"/>
<path d="M15.656 8.34727C12.9113 10.2695 10.5071 12.6374 8.54297 15.3523" stroke="#B6B6B6" stroke-width="4"/>
<path d="M58.4391 17.0337C60.216 19.8746 61.5059 22.9929 62.2549 26.2589" stroke="#B6B6B6" stroke-width="4"/>
<path d="M3.61067 39.7437C4.36293 43.009 5.6557 46.126 7.43543 48.9651" stroke="#B6B6B6" stroke-width="4"/>
<path d="M48.9014 58.5047C46.0605 60.2816 42.9423 61.5711 39.6762 62.3201" stroke="#B6B6B6" stroke-width="4"/>
<path d="M26.1918 3.67596C22.9265 4.42822 19.8097 5.72121 16.9706 7.50094" stroke="#B6B6B6" stroke-width="4"/>
<path d="M39.6804 3.69124C42.9441 4.45051 46.0581 5.75019 48.8934 7.53601" stroke="#B6B6B6" stroke-width="4"/>
<path d="M16.8528 58.4718C19.6899 60.2548 22.8054 61.551 26.0698 62.307" stroke="#BB2FA6" stroke-width="4"/>
<path d="M62.1842 39.8073C61.4249 43.071 60.1253 46.1852 58.3395 49.0205" stroke="#B6B6B6" stroke-width="4"/>
<path d="M7.40427 16.9798C5.62129 19.8169 4.32474 22.9324 3.56874 26.1968" stroke="#B6B6B6" stroke-width="4"/>
<path d="M55.1428 32.5726C55.1428 45.0416 45.0365 55.1471 32.5717 55.1471C20.1037 55.1471 9.99951 45.0416 9.99951 32.5726C9.99951 20.1066 20.1037 10 32.5717 10C45.0365 10 55.1428 20.1066 55.1428 32.5726Z" fill="url(#paint0_linear_143_1305)"/>
<path d="M34.75 26.1592V39H32.6318V28.6729L29.4941 29.7363V27.9873L34.4951 26.1592H34.75Z" fill="white"/>
<defs>
<linearGradient id="paint0_linear_143_1305" x1="55.1428" y1="32.5735" x2="9.99951" y2="32.5735" gradientUnits="userSpaceOnUse">
<stop stop-color="#CB11AB"/>
<stop offset="1" stop-color="#481173"/>
</linearGradient>
</defs>
</svg>
