<svg width="65" height="66" viewBox="0 0 65 66" fill="none" xmlns="http://www.w3.org/2000/svg">
<path d="M27.9209 62.6737C31.2253 63.2299 34.5997 63.2299 37.9041 62.6737" stroke="#BB2FA6" stroke-width="4"/>
<path d="M27.9209 3.32826C31.2253 2.77209 34.5997 2.77209 37.9041 3.32826" stroke="#B6B6B6" stroke-width="4"/>
<path d="M62.5856 28.0098C63.14 31.3144 63.1381 34.6887 62.5801 37.9927" stroke="#B6B6B6" stroke-width="4"/>
<path d="M3.23952 28.0098C2.68521 31.3144 2.68711 34.6887 3.24512 37.9927" stroke="#BB2FA6" stroke-width="4"/>
<path d="M50.5604 8.63252C53.2733 10.5994 55.6385 13.0062 57.5581 15.7528" stroke="#B6B6B6" stroke-width="4"/>
<path d="M8.25498 50.2513C10.1773 52.9959 12.5452 55.4001 15.26 57.3643" stroke="#BB2FA6" stroke-width="4"/>
<path d="M57.2762 50.6518C55.3093 53.3646 52.9025 55.7298 50.1559 57.6494" stroke="#B6B6B6" stroke-width="4"/>
<path d="M15.6564 8.34727C12.9118 10.2695 10.5076 12.6374 8.54346 15.3523" stroke="#B6B6B6" stroke-width="4"/>
<path d="M58.4396 17.0337C60.2165 19.8746 61.5064 22.9929 62.2554 26.2589" stroke="#B6B6B6" stroke-width="4"/>
<path d="M3.61018 39.7437C4.36244 43.009 5.65521 46.126 7.43494 48.9651" stroke="#BB2FA6" stroke-width="4"/>
<path d="M48.9014 58.5047C46.0605 60.2816 42.9423 61.5711 39.6762 62.3201" stroke="#B6B6B6" stroke-width="4"/>
<path d="M26.1918 3.67596C22.9265 4.42822 19.8097 5.72121 16.9706 7.50094" stroke="#B6B6B6" stroke-width="4"/>
<path d="M39.6804 3.69124C42.9441 4.45051 46.0581 5.75019 48.8934 7.53601" stroke="#B6B6B6" stroke-width="4"/>
<path d="M16.8533 58.4718C19.6904 60.2548 22.8058 61.551 26.0703 62.307" stroke="#BB2FA6" stroke-width="4"/>
<path d="M62.1842 39.8073C61.4249 43.071 60.1253 46.1852 58.3395 49.0205" stroke="#B6B6B6" stroke-width="4"/>
<path d="M7.40427 16.9798C5.62129 19.8169 4.32474 22.9324 3.56874 26.1968" stroke="#B6B6B6" stroke-width="4"/>
<path d="M55.1428 32.5726C55.1428 45.0416 45.0365 55.1471 32.5717 55.1471C20.1037 55.1471 9.99951 45.0416 9.99951 32.5726C9.99951 20.1066 20.1037 10 32.5717 10C45.0365 10 55.1428 20.1066 55.1428 32.5726Z" fill="url(#paint0_linear_143_1325)"/>
<path d="M37.5449 37.3125V39H28.9668V37.5498L33.1328 33.0059C33.5898 32.4902 33.9502 32.0449 34.2139 31.6699C34.4775 31.2949 34.6621 30.958 34.7676 30.6592C34.8789 30.3545 34.9346 30.0586 34.9346 29.7715C34.9346 29.3672 34.8584 29.0127 34.7061 28.708C34.5596 28.3975 34.3428 28.1543 34.0557 27.9785C33.7686 27.7969 33.4199 27.7061 33.0098 27.7061C32.5352 27.7061 32.1367 27.8086 31.8145 28.0137C31.4922 28.2188 31.249 28.5029 31.085 28.8662C30.9209 29.2236 30.8389 29.6338 30.8389 30.0967H28.7207C28.7207 29.3525 28.8906 28.6729 29.2305 28.0576C29.5703 27.4365 30.0625 26.9443 30.707 26.5811C31.3516 26.2119 32.1279 26.0273 33.0361 26.0273C33.8916 26.0273 34.6182 26.1709 35.2158 26.458C35.8135 26.7451 36.2676 27.1523 36.5781 27.6797C36.8945 28.207 37.0527 28.8311 37.0527 29.5518C37.0527 29.9502 36.9883 30.3457 36.8594 30.7383C36.7305 31.1309 36.5459 31.5234 36.3057 31.916C36.0713 32.3027 35.793 32.6924 35.4707 33.085C35.1484 33.4717 34.7939 33.8643 34.4072 34.2627L31.6387 37.3125H37.5449Z" fill="white"/>
<defs>
<linearGradient id="paint0_linear_143_1325" x1="55.1428" y1="32.5735" x2="9.99951" y2="32.5735" gradientUnits="userSpaceOnUse">
<stop stop-color="#CB11AB"/>
<stop offset="1" stop-color="#481173"/>
</linearGradient>
</defs>
</svg>
