<svg width="65" height="66" viewBox="0 0 65 66" fill="none" xmlns="http://www.w3.org/2000/svg">
<path d="M27.9209 62.6737C31.2253 63.2299 34.5997 63.2299 37.9041 62.6737" stroke="#BB2FA6" stroke-width="4"/>
<path d="M27.9209 3.32826C31.2253 2.77209 34.5997 2.77209 37.9041 3.32826" stroke="#BB2FA6" stroke-width="4"/>
<path d="M62.5856 28.0098C63.14 31.3144 63.1381 34.6887 62.5801 37.9927" stroke="#B6B6B6" stroke-width="4"/>
<path d="M3.23952 28.0098C2.68521 31.3144 2.68711 34.6887 3.24512 37.9927" stroke="#BB2FA6" stroke-width="4"/>
<path d="M50.5604 8.63252C53.2733 10.5994 55.6385 13.0062 57.5581 15.7528" stroke="#BB2FA6" stroke-width="4"/>
<path d="M8.25498 50.2513C10.1773 52.9959 12.5452 55.4001 15.26 57.3643" stroke="#BB2FA6" stroke-width="4"/>
<path d="M57.2762 50.6518C55.3093 53.3646 52.9025 55.7298 50.1559 57.6494" stroke="#B6B6B6" stroke-width="4"/>
<path d="M15.6564 8.34727C12.9118 10.2695 10.5076 12.6374 8.54346 15.3523" stroke="#BB2FA6" stroke-width="4"/>
<path d="M58.4396 17.0337C60.2165 19.8746 61.5064 22.9929 62.2554 26.2589" stroke="#B6B6B6" stroke-width="4"/>
<path d="M3.61018 39.7437C4.36244 43.009 5.65521 46.126 7.43494 48.9651" stroke="#BB2FA6" stroke-width="4"/>
<path d="M48.9014 58.5047C46.0605 60.2816 42.9423 61.5711 39.6762 62.3201" stroke="#B6B6B6" stroke-width="4"/>
<path d="M26.1918 3.67596C22.9265 4.42822 19.8097 5.72121 16.9706 7.50094" stroke="#BB2FA6" stroke-width="4"/>
<path d="M39.6804 3.69124C42.9441 4.45051 46.0581 5.75019 48.8934 7.53601" stroke="#BB2FA6" stroke-width="4"/>
<path d="M16.8533 58.4718C19.6904 60.2548 22.8058 61.551 26.0703 62.307" stroke="#BB2FA6" stroke-width="4"/>
<path d="M62.1842 39.8073C61.4249 43.071 60.1253 46.1852 58.3395 49.0205" stroke="#B6B6B6" stroke-width="4"/>
<path d="M7.40427 16.9798C5.62129 19.8169 4.32474 22.9324 3.56874 26.1968" stroke="#BB2FA6" stroke-width="4"/>
<path d="M55.1428 32.5726C55.1428 45.0416 45.0365 55.1471 32.5717 55.1471C20.1037 55.1471 9.99951 45.0416 9.99951 32.5726C9.99951 20.1066 20.1037 10 32.5717 10C45.0365 10 55.1428 20.1066 55.1428 32.5726Z" fill="url(#paint0_linear_143_1365)"/>
<path d="M37.7822 34.4385V36.126H28.5537L28.4834 34.8516L34.0029 26.2031H35.6992L33.8623 29.3496L30.6895 34.4385H37.7822ZM36.1826 26.2031V39H34.0645V26.2031H36.1826Z" fill="white"/>
<defs>
<linearGradient id="paint0_linear_143_1365" x1="55.1428" y1="32.5735" x2="9.99951" y2="32.5735" gradientUnits="userSpaceOnUse">
<stop stop-color="#CB11AB"/>
<stop offset="1" stop-color="#481173"/>
</linearGradient>
</defs>
</svg>
