<svg width="65" height="66" viewBox="0 0 65 66" fill="none" xmlns="http://www.w3.org/2000/svg">
<path d="M27.9209 62.6737C31.2253 63.2299 34.5997 63.2299 37.9041 62.6737" stroke="#BB2FA6" stroke-width="4"/>
<path d="M27.9209 3.32826C31.2253 2.77209 34.5997 2.77209 37.9041 3.32826" stroke="#B6B6B6" stroke-width="4"/>
<path d="M62.5856 28.0098C63.14 31.3144 63.1381 34.6887 62.5801 37.9927" stroke="#B6B6B6" stroke-width="4"/>
<path d="M3.23952 28.0098C2.68521 31.3144 2.68711 34.6887 3.24512 37.9927" stroke="#BB2FA6" stroke-width="4"/>
<path d="M50.5604 8.63252C53.2733 10.5994 55.6385 13.0062 57.5581 15.7528" stroke="#B6B6B6" stroke-width="4"/>
<path d="M8.25498 50.2513C10.1773 52.9959 12.5452 55.4001 15.26 57.3643" stroke="#BB2FA6" stroke-width="4"/>
<path d="M57.2762 50.6518C55.3093 53.3646 52.9025 55.7298 50.1559 57.6494" stroke="#B6B6B6" stroke-width="4"/>
<path d="M15.6564 8.34727C12.9118 10.2695 10.5076 12.6374 8.54346 15.3523" stroke="#BB2FA6" stroke-width="4"/>
<path d="M58.4396 17.0337C60.2165 19.8746 61.5064 22.9929 62.2554 26.2589" stroke="#B6B6B6" stroke-width="4"/>
<path d="M3.61018 39.7437C4.36244 43.009 5.65521 46.126 7.43494 48.9651" stroke="#BB2FA6" stroke-width="4"/>
<path d="M48.9014 58.5047C46.0605 60.2816 42.9423 61.5711 39.6762 62.3201" stroke="#B6B6B6" stroke-width="4"/>
<path d="M26.1918 3.67596C22.9265 4.42822 19.8097 5.72121 16.9706 7.50094" stroke="#BB2FA6" stroke-width="4"/>
<path d="M39.6804 3.69124C42.9441 4.45051 46.0581 5.75019 48.8934 7.53601" stroke="#B6B6B6" stroke-width="4"/>
<path d="M16.8533 58.4718C19.6904 60.2548 22.8058 61.551 26.0703 62.307" stroke="#BB2FA6" stroke-width="4"/>
<path d="M62.1842 39.8073C61.4249 43.071 60.1253 46.1852 58.3395 49.0205" stroke="#B6B6B6" stroke-width="4"/>
<path d="M7.40427 16.9798C5.62129 19.8169 4.32474 22.9324 3.56874 26.1968" stroke="#BB2FA6" stroke-width="4"/>
<path d="M55.1428 32.5726C55.1428 45.0416 45.0365 55.1471 32.5717 55.1471C20.1037 55.1471 9.99951 45.0416 9.99951 32.5726C9.99951 20.1066 20.1037 10 32.5717 10C45.0365 10 55.1428 20.1066 55.1428 32.5726Z" fill="url(#paint0_linear_143_1345)"/>
<path d="M31.4541 31.6436H32.7197C33.2119 31.6436 33.6191 31.5586 33.9414 31.3887C34.2695 31.2188 34.5127 30.9844 34.6709 30.6855C34.8291 30.3867 34.9082 30.0439 34.9082 29.6572C34.9082 29.2529 34.835 28.9072 34.6885 28.6201C34.5479 28.3271 34.3311 28.1016 34.0381 27.9434C33.751 27.7852 33.3848 27.7061 32.9395 27.7061C32.5645 27.7061 32.2246 27.7822 31.9199 27.9346C31.6211 28.0811 31.3838 28.292 31.208 28.5674C31.0322 28.8369 30.9443 29.1592 30.9443 29.5342H28.8174C28.8174 28.8545 28.9961 28.251 29.3535 27.7236C29.7109 27.1963 30.1973 26.7832 30.8125 26.4844C31.4336 26.1797 32.1309 26.0273 32.9043 26.0273C33.7305 26.0273 34.4512 26.165 35.0664 26.4404C35.6875 26.71 36.1709 27.1143 36.5166 27.6533C36.8623 28.1924 37.0352 28.8604 37.0352 29.6572C37.0352 30.0205 36.9502 30.3896 36.7803 30.7646C36.6104 31.1396 36.3584 31.4824 36.0244 31.793C35.6904 32.0977 35.2744 32.3467 34.7764 32.54C34.2783 32.7275 33.7012 32.8213 33.0449 32.8213H31.4541V31.6436ZM31.4541 33.2959V32.1357H33.0449C33.7949 32.1357 34.4336 32.2236 34.9609 32.3994C35.4941 32.5752 35.9277 32.8184 36.2617 33.1289C36.5957 33.4336 36.8389 33.7822 36.9912 34.1748C37.1494 34.5674 37.2285 34.9834 37.2285 35.4229C37.2285 36.0205 37.1201 36.5537 36.9033 37.0225C36.6924 37.4854 36.3906 37.8779 35.998 38.2002C35.6055 38.5225 35.1455 38.7656 34.6182 38.9297C34.0967 39.0938 33.5283 39.1758 32.9131 39.1758C32.3623 39.1758 31.835 39.0996 31.3311 38.9473C30.8271 38.7949 30.376 38.5693 29.9775 38.2705C29.5791 37.9658 29.2627 37.5879 29.0283 37.1367C28.7998 36.6797 28.6855 36.1523 28.6855 35.5547H30.8037C30.8037 35.9355 30.8916 36.2725 31.0674 36.5654C31.249 36.8525 31.501 37.0781 31.8232 37.2422C32.1514 37.4062 32.5264 37.4883 32.9482 37.4883C33.3936 37.4883 33.7773 37.4092 34.0996 37.251C34.4219 37.0928 34.668 36.8584 34.8379 36.5479C35.0137 36.2373 35.1016 35.8623 35.1016 35.4229C35.1016 34.9248 35.0049 34.5205 34.8115 34.21C34.6182 33.8994 34.3428 33.6709 33.9854 33.5244C33.6279 33.3721 33.2061 33.2959 32.7197 33.2959H31.4541Z" fill="white"/>
<defs>
<linearGradient id="paint0_linear_143_1345" x1="55.1428" y1="32.5735" x2="9.99951" y2="32.5735" gradientUnits="userSpaceOnUse">
<stop stop-color="#CB11AB"/>
<stop offset="1" stop-color="#481173"/>
</linearGradient>
</defs>
</svg>
