<svg width="13" height="11" viewBox="0 0 13 11" fill="none" xmlns="http://www.w3.org/2000/svg">
<path d="M9.96607 7.86965H10.5139C10.6704 7.86965 10.8269 7.71313 10.8269 7.55661V1.92182C10.8269 1.7653 10.6704 1.60878 10.5139 1.60878H9.96607C9.80954 1.60878 9.65302 1.7653 9.65302 1.92182V7.55661C9.65302 7.71313 9.80954 7.86965 9.96607 7.86965ZM5.27041 7.86965H5.81824C5.97476 7.86965 6.13128 7.71313 6.13128 7.55661V2.70443C6.13128 2.54791 5.97476 2.39139 5.81824 2.39139H5.27041C5.11389 2.39139 4.95737 2.54791 4.95737 2.70443V7.55661C4.95737 7.71313 5.11389 7.86965 5.27041 7.86965V7.86965ZM7.61824 7.86965H8.16607C8.32259 7.86965 8.47911 7.71313 8.47911 7.55661V4.26965C8.47911 4.11313 8.32259 3.95661 8.16607 3.95661H7.61824C7.46172 3.95661 7.3052 4.11313 7.3052 4.26965V7.55661C7.3052 7.71313 7.46172 7.86965 7.61824 7.86965V7.86965ZM12.3922 9.04356H1.43563V1.21748C1.43563 1.00128 1.26052 0.826172 1.04433 0.826172H0.653023C0.436827 0.826172 0.261719 1.00128 0.261719 1.21748V9.43487C0.261719 9.86701 0.612181 10.2175 1.04433 10.2175H12.3922C12.6083 10.2175 12.7835 10.0424 12.7835 9.82617V9.43487C12.7835 9.21867 12.6083 9.04356 12.3922 9.04356ZM2.92259 7.86965H3.47041C3.62694 7.86965 3.78346 7.71313 3.78346 7.55661V5.83487C3.78346 5.67835 3.62694 5.52182 3.47041 5.52182H2.92259C2.76607 5.52182 2.60954 5.67835 2.60954 5.83487V7.55661C2.60954 7.71313 2.76607 7.86965 2.92259 7.86965V7.86965Z" fill="black"/>
</svg>
