<svg width="44" height="44" viewBox="0 0 44 44" fill="none" xmlns="http://www.w3.org/2000/svg">
<path d="M22.7586 32.6203H3.03448C2.22969 32.6203 1.45786 32.3006 0.888779 31.7315C0.319703 31.1624 0 30.3906 0 29.5858V14.4134C0 13.6086 0.319703 12.8368 0.888779 12.2677C1.45786 11.6986 2.22969 11.3789 3.03448 11.3789H22.7586C23.5634 11.3789 24.3353 11.6986 24.9043 12.2677C25.4734 12.8368 25.7931 13.6086 25.7931 14.4134V29.5858C25.7931 30.3906 25.4734 31.1624 24.9043 31.7315C24.3353 32.3006 23.5634 32.6203 22.7586 32.6203ZM28.8276 17.4479V26.5513L35.5717 31.0484C35.8003 31.2009 36.0661 31.2885 36.3406 31.3018C36.6151 31.315 36.888 31.2535 37.1303 31.1237C37.3725 30.994 37.575 30.8008 37.716 30.565C37.857 30.3291 37.9314 30.0594 37.931 29.7846V14.2146C37.9311 13.9399 37.8566 13.6704 37.7154 13.4348C37.5743 13.1991 37.3718 13.0062 37.1296 12.8766C36.8874 12.747 36.6146 12.6856 36.3402 12.6989C36.0658 12.7123 35.8002 12.7998 35.5717 12.9523L28.8276 17.4479Z" fill="url(#paint0_linear_143_934)"/>
<defs>
<linearGradient id="paint0_linear_143_934" x1="37.931" y1="21.9996" x2="0" y2="21.9996" gradientUnits="userSpaceOnUse">
<stop stop-color="#CB11AB"/>
<stop offset="1" stop-color="#481173"/>
</linearGradient>
</defs>
</svg>
