<svg width="44" height="44" viewBox="0 0 44 44" fill="none" xmlns="http://www.w3.org/2000/svg">
<path d="M44 38.9678H0V42.5084H44V38.9678Z" fill="url(#paint0_linear_143_943)"/>
<path d="M6.71699 36.169V29.0121C4.50324 30.1259 3.07324 32.3809 3.07324 34.9177V37.5509H7.08824C6.85449 37.1384 6.71699 36.6777 6.71699 36.169ZM40.927 34.9177C40.927 32.3809 39.5039 30.1259 37.2832 29.0121V36.1759C37.2832 36.6777 37.1389 37.1384 36.9051 37.5509H40.9201V34.9177H40.927ZM9.50824 37.5509H34.492C35.2482 37.5509 35.867 36.9321 35.867 36.1759V22.8177C35.867 22.2402 35.4064 21.7796 34.8357 21.7796H19.2295C19.2226 21.7796 19.2226 21.7796 19.2157 21.7796H9.16449C8.59387 21.7796 8.13324 22.2402 8.13324 22.8177V36.1759C8.13324 36.9321 8.75199 37.5509 9.50824 37.5509ZM17.387 27.4446H26.6132C27.0051 27.4446 27.3214 27.7609 27.3214 28.1527C27.3214 28.5515 27.0051 28.8609 26.6132 28.8609H17.387C16.9951 28.8609 16.6789 28.5515 16.6789 28.1527C16.6789 27.7609 16.9951 27.4446 17.387 27.4446ZM17.387 30.4559H26.6132C27.0051 30.4559 27.3214 30.7721 27.3214 31.164C27.3214 31.5627 27.0051 31.8721 26.6132 31.8721H17.387C16.9951 31.8721 16.6789 31.5627 16.6789 31.164C16.6789 30.779 16.9951 30.4559 17.387 30.4559ZM18.6932 7.63086L15.5514 10.4427V10.7865C15.5514 15.2552 17.0364 18.899 19.4426 20.3702H24.5714C26.8126 18.9952 28.2564 15.7159 28.4282 11.6321C24.2757 12.0721 20.0957 8.84773 18.6932 7.63086Z" fill="url(#paint1_linear_143_943)"/>
<path d="M14.128 10.7803C14.128 10.5328 14.128 10.2716 14.1555 10.0378C14.1693 9.85906 14.2518 9.69406 14.3824 9.58406L18.2118 6.15344C18.4868 5.90594 18.9062 5.91281 19.1743 6.16719C19.2293 6.21531 24.4818 11.1928 28.978 10.0928C29.1912 10.0447 29.418 10.0928 29.5899 10.2234C29.7618 10.3609 29.858 10.5672 29.858 10.7872C29.858 14.8159 28.7099 18.2809 26.7712 20.3709H32.2849V11.7772C32.2849 9.01344 31.2193 6.43531 29.2805 4.51031C27.328 2.56469 24.743 1.49219 21.9999 1.49219C16.3212 1.49219 11.7012 6.10531 11.7012 11.7772V20.3641H17.2218C15.283 18.2741 14.128 14.8091 14.128 10.7803Z" fill="url(#paint2_linear_143_943)"/>
<defs>
<linearGradient id="paint0_linear_143_943" x1="44" y1="40.7381" x2="0" y2="40.7381" gradientUnits="userSpaceOnUse">
<stop stop-color="#CB11AB"/>
<stop offset="1" stop-color="#481173"/>
</linearGradient>
<linearGradient id="paint1_linear_143_943" x1="40.927" y1="22.5909" x2="3.07324" y2="22.5909" gradientUnits="userSpaceOnUse">
<stop stop-color="#CB11AB"/>
<stop offset="1" stop-color="#481173"/>
</linearGradient>
<linearGradient id="paint2_linear_143_943" x1="32.2849" y1="10.9316" x2="11.7012" y2="10.9316" gradientUnits="userSpaceOnUse">
<stop stop-color="#CB11AB"/>
<stop offset="1" stop-color="#481173"/>
</linearGradient>
</defs>
</svg>
