<svg width="44" height="44" viewBox="0 0 44 44" fill="none" xmlns="http://www.w3.org/2000/svg">
<path d="M21.3125 10.3125C20.4008 10.3125 19.5265 9.95034 18.8818 9.30568C18.2372 8.66102 17.875 7.78668 17.875 6.875V2.0625H2.0625C1.51549 2.0625 0.990886 2.2798 0.604092 2.66659C0.217298 3.05339 0 3.57799 0 4.125V37.125C0 37.672 0.217298 38.1966 0.604092 38.5834C0.990886 38.9702 1.51549 39.1875 2.0625 39.1875H16.5413C15.6297 37.7489 15.1523 36.078 15.1662 34.375C15.1698 32.0129 16.107 29.7479 17.7734 28.0737C19.4398 26.3996 21.7004 25.452 24.0625 25.4375C24.7576 25.4351 25.4503 25.5182 26.125 25.685V10.3125H21.3125ZM13.0625 26.8125H4.8125C4.63016 26.8125 4.4553 26.7401 4.32636 26.6111C4.19743 26.4822 4.125 26.3073 4.125 26.125C4.125 25.9427 4.19743 25.7678 4.32636 25.6389C4.4553 25.5099 4.63016 25.4375 4.8125 25.4375H13.0625C13.2448 25.4375 13.4197 25.5099 13.5486 25.6389C13.6776 25.7678 13.75 25.9427 13.75 26.125C13.75 26.3073 13.6776 26.4822 13.5486 26.6111C13.4197 26.7401 13.2448 26.8125 13.0625 26.8125ZM21.3125 21.3125H4.8125C4.63016 21.3125 4.4553 21.2401 4.32636 21.1111C4.19743 20.9822 4.125 20.8073 4.125 20.625C4.125 20.4427 4.19743 20.2678 4.32636 20.1389C4.4553 20.0099 4.63016 19.9375 4.8125 19.9375H21.3125C21.4948 19.9375 21.6697 20.0099 21.7986 20.1389C21.9276 20.2678 22 20.4427 22 20.625C22 20.8073 21.9276 20.9822 21.7986 21.1111C21.6697 21.2401 21.4948 21.3125 21.3125 21.3125ZM21.3125 15.8125H4.8125C4.63016 15.8125 4.4553 15.7401 4.32636 15.6111C4.19743 15.4822 4.125 15.3073 4.125 15.125C4.125 14.9427 4.19743 14.7678 4.32636 14.6389C4.4553 14.5099 4.63016 14.4375 4.8125 14.4375H21.3125C21.4948 14.4375 21.6697 14.5099 21.7986 14.6389C21.9276 14.7678 22 14.9427 22 15.125C22 15.3073 21.9276 15.4822 21.7986 15.6111C21.6697 15.7401 21.4948 15.8125 21.3125 15.8125Z" fill="url(#paint0_linear_143_929)"/>
<path d="M26.6063 27.2528L26.4138 27.1841C25.6536 26.9407 24.8606 26.8155 24.0625 26.8128C22.6181 26.8138 21.2042 27.2285 19.988 28.0077C18.7718 28.787 17.8042 29.8982 17.1997 31.21C16.5951 32.5218 16.3789 33.9793 16.5765 35.4102C16.7742 36.841 17.3774 38.1853 18.315 39.2841L18.3975 39.3803C19.1619 40.2398 20.1123 40.9137 21.1764 41.3506C22.2404 41.7874 23.3901 41.9758 24.538 41.9014C25.6858 41.8269 26.8016 41.4916 27.8003 40.921C28.799 40.3504 29.6545 39.5594 30.3014 38.6084C30.9484 37.6573 31.3699 36.5712 31.5339 35.4327C31.6978 34.2942 31.5999 33.1332 31.2476 32.0383C30.8952 30.9433 30.2978 29.9431 29.5006 29.1139C28.7035 28.2846 27.7277 27.6481 26.6475 27.2528H26.6063ZM26.8125 35.0628H24.75V37.1253C24.75 37.3077 24.6776 37.4825 24.5486 37.6115C24.4197 37.7404 24.2448 37.8128 24.0625 37.8128C23.8802 37.8128 23.7053 37.7404 23.5764 37.6115C23.4474 37.4825 23.375 37.3077 23.375 37.1253V35.0628H21.1475C20.995 35.0252 20.8599 34.9364 20.7649 34.8113C20.6698 34.6862 20.6204 34.5324 20.625 34.3753C20.625 34.193 20.6974 34.0181 20.8264 33.8892C20.9553 33.7602 21.1302 33.6878 21.3125 33.6878H23.375V31.6253C23.371 31.4736 23.4194 31.3251 23.512 31.2049C23.6047 31.0847 23.736 31 23.8838 30.9653H24.0625C24.2448 30.9653 24.4197 31.0377 24.5486 31.1667C24.6776 31.2956 24.75 31.4705 24.75 31.6528V33.7153H26.8125C26.9948 33.7153 27.1697 33.7878 27.2986 33.9167C27.4276 34.0456 27.5 34.2205 27.5 34.4028C27.5 34.5852 27.4276 34.76 27.2986 34.889C27.1697 35.0179 26.9948 35.0903 26.8125 35.0903V35.0628ZM25.1488 8.93781H21.3125C20.7655 8.93781 20.2409 8.72051 19.8541 8.33372C19.4673 7.94693 19.25 7.42232 19.25 6.87531V3.03906L25.1488 8.93781Z" fill="url(#paint1_linear_143_929)"/>
<defs>
<linearGradient id="paint0_linear_143_929" x1="26.125" y1="20.625" x2="0" y2="20.625" gradientUnits="userSpaceOnUse">
<stop stop-color="#CB11AB"/>
<stop offset="1" stop-color="#481173"/>
</linearGradient>
<linearGradient id="paint1_linear_143_929" x1="31.6111" y1="22.4781" x2="16.5054" y2="22.4781" gradientUnits="userSpaceOnUse">
<stop stop-color="#CB11AB"/>
<stop offset="1" stop-color="#481173"/>
</linearGradient>
</defs>
</svg>
