<svg width="44" height="44" viewBox="0 0 44 44" fill="none" xmlns="http://www.w3.org/2000/svg">
<path d="M43.1475 2.86035H0.8525C0.385 2.86035 0 3.24535 0 3.71285V26.916H44V3.71285C44 3.24535 43.615 2.86035 43.1475 2.86035ZM15.4275 12.891L19.6281 8.69035C19.8756 8.44285 20.2744 8.41535 20.5562 8.62848L23.8012 11.0622L26.3725 8.4841L26.3381 8.49098H26.3175C25.9325 8.49098 25.6231 8.18848 25.6094 7.80348C25.5956 7.4116 25.8981 7.08848 26.29 7.07473L28.1256 7.00598C28.1256 7.00598 28.1325 7.01285 28.1394 7.00598C28.1806 7.00598 28.2219 7.01973 28.2769 7.03348C28.4213 7.0541 28.5519 7.1091 28.655 7.21223C28.6963 7.25348 28.7169 7.30848 28.7512 7.36348C28.765 7.39098 28.7925 7.41848 28.8063 7.45285C28.82 7.48723 28.82 7.5216 28.8269 7.56973C28.8406 7.61785 28.8544 7.67285 28.8544 7.73473C28.8544 7.73473 28.8544 7.7416 28.8544 7.74848L28.7925 9.5841C28.7788 9.9691 28.4694 10.2647 28.0844 10.2647H28.0569C27.665 10.251 27.3625 9.92098 27.3762 9.5291V9.5016L24.3719 12.506C24.1244 12.7535 23.7256 12.7879 23.4437 12.5747L20.1987 10.141L16.4381 13.9016C16.2938 14.046 16.115 14.1147 15.9363 14.1147C15.7506 14.1147 15.5719 14.046 15.4344 13.9016C15.1525 13.6197 15.1525 13.1729 15.4275 12.891ZM30.8688 22.7704H13.1313C12.7394 22.7704 12.4231 22.4541 12.4231 22.0622V10.3885C12.4231 9.9966 12.7394 9.68035 13.1313 9.68035C13.5231 9.68035 13.8394 9.9966 13.8394 10.3885V21.3541H16.1562V17.8616C16.1562 17.4697 16.4725 17.1535 16.8644 17.1535C17.2631 17.1535 17.5725 17.4697 17.5725 17.8616V21.3541H20.3569V14.5891C20.3569 14.1972 20.6731 13.881 21.065 13.881C21.4637 13.881 21.7731 14.1972 21.7731 14.5891V21.3541H24.5644V16.4591C24.5644 16.0672 24.8737 15.751 25.2725 15.751C25.6644 15.751 25.9806 16.0672 25.9806 16.4591V21.3541H28.765V13.661C28.765 13.2622 29.0744 12.9529 29.4731 12.9529C29.865 12.9529 30.1813 13.2622 30.1813 13.661V21.3541H30.8688C31.2606 21.3541 31.5769 21.6704 31.5769 22.0622C31.5837 22.4541 31.2606 22.7704 30.8688 22.7704ZM0 32.7529C0 33.2204 0.385 33.6054 0.8525 33.6054H18.2188L15.5513 37.9985H11.4537V41.1472H32.5462V37.9985H28.4488L25.7812 33.6054H43.1475C43.615 33.6054 44 33.2204 44 32.7529V28.3391H0V32.7529ZM22 29.1916C22.9762 29.1916 23.7738 29.9891 23.7738 30.9654C23.7738 31.9416 22.9762 32.7322 22 32.7322C21.0238 32.7322 20.2262 31.9416 20.2262 30.9654C20.2262 29.996 21.0238 29.1916 22 29.1916Z" fill="url(#paint0_linear_143_938)"/>
<path d="M22 31.8104C22.4675 31.8104 22.8525 31.4323 22.8525 30.9648C22.8525 30.4973 22.4675 30.1123 22 30.1123C21.5325 30.1123 21.1475 30.4973 21.1475 30.9648C21.1475 31.4392 21.5325 31.8104 22 31.8104Z" fill="url(#paint1_linear_143_938)"/>
<defs>
<linearGradient id="paint0_linear_143_938" x1="44" y1="22.0038" x2="0" y2="22.0038" gradientUnits="userSpaceOnUse">
<stop stop-color="#CB11AB"/>
<stop offset="1" stop-color="#481173"/>
</linearGradient>
<linearGradient id="paint1_linear_143_938" x1="22.8525" y1="30.9614" x2="21.1475" y2="30.9614" gradientUnits="userSpaceOnUse">
<stop stop-color="#CB11AB"/>
<stop offset="1" stop-color="#481173"/>
</linearGradient>
</defs>
</svg>
