<svg width="44" height="44" viewBox="0 0 44 44" fill="none" xmlns="http://www.w3.org/2000/svg">
<g clip-path="url(#clip0_1_322)">
<path d="M44 26.125C43.998 24.4468 43.5213 22.8034 42.625 21.3846V16.1975C42.6203 11.9032 40.9123 7.78609 37.8758 4.7495C34.8392 1.71291 30.7222 0.00482954 26.4278 0H17.5722C13.2779 0.00482953 9.16083 1.71291 6.1243 4.7495C3.08777 7.78608 1.37977 11.9032 1.37502 16.1975V21.3846C0.682361 22.4814 0.237823 23.7162 0.0725403 25.0028C-0.092742 26.2894 0.0252274 27.5965 0.418187 28.8327C0.811147 30.0689 1.4696 31.2042 2.34743 32.1592C3.22525 33.1142 4.30124 33.8657 5.50002 34.3612V35.0625C5.50109 35.9738 5.8636 36.8475 6.50803 37.492C7.15245 38.1364 8.02617 38.4989 8.93752 38.5H10.3125C11.2239 38.4989 12.0976 38.1364 12.742 37.492C13.3864 36.8475 13.749 35.9738 13.75 35.0625V17.1875C13.749 16.2761 13.3864 15.4024 12.742 14.758C12.0976 14.1135 11.2239 13.751 10.3125 13.75H8.93752C8.02617 13.751 7.15245 14.1135 6.50803 14.758C5.8636 15.4024 5.50109 16.2761 5.50002 17.1875V17.8887C5.02144 18.0887 4.56134 18.3303 4.12502 18.6108V16.1975C4.13007 13.054 5.23512 10.0113 7.24852 7.59722C9.26193 5.18311 12.0567 3.54976 15.1483 2.98041C15.2021 3.30011 15.3674 3.59043 15.6148 3.79993C15.8622 4.00943 16.1758 4.12459 16.5 4.12499H27.5C27.8242 4.12459 28.1378 4.00943 28.3852 3.79993C28.6327 3.59043 28.7979 3.30011 28.8518 2.98041C31.9433 3.54976 34.7381 5.18311 36.7515 7.59723C38.7649 10.0113 39.87 13.054 39.875 16.1975V18.6108C39.4387 18.3303 38.9786 18.0887 38.5 17.8887V17.1875C38.499 16.2761 38.1364 15.4024 37.492 14.758C36.8476 14.1135 35.9739 13.751 35.0625 13.75H33.6875C32.7762 13.751 31.9025 14.1135 31.258 14.758C30.6136 15.4024 30.2511 16.2761 30.25 17.1875V35.0625C30.2502 35.6249 30.3885 36.1788 30.6527 36.6754C30.9168 37.1719 31.2988 37.5961 31.7652 37.9106C30.8161 38.9574 29.6594 39.795 28.3686 40.3699C27.0779 40.9448 25.6816 41.2445 24.2686 41.2499H22C21.6354 41.2499 21.2856 41.3948 21.0278 41.6526C20.7699 41.9105 20.625 42.2602 20.625 42.6249C20.625 42.9896 20.7699 43.3393 21.0278 43.5972C21.2856 43.8551 21.6354 43.9999 22 43.9999H24.2686C26.3369 43.9922 28.3732 43.4888 30.2067 42.5318C32.0403 41.5749 33.6177 40.1922 34.8067 38.4999C35.2784 38.5314 35.7515 38.4661 36.1969 38.3078C36.6423 38.1495 37.0506 37.9018 37.3966 37.5797C37.7426 37.2577 38.019 36.8682 38.2088 36.4353C38.3985 36.0023 38.4977 35.5351 38.5 35.0625V34.3612C40.1243 33.6803 41.5122 32.536 42.4903 31.0713C43.4684 29.6066 43.9935 27.8862 44 26.125ZM8.25002 17.1875C8.25021 17.0052 8.3227 16.8304 8.45159 16.7015C8.58048 16.5726 8.75524 16.5001 8.93752 16.5H10.3125C10.4948 16.5001 10.6696 16.5726 10.7985 16.7015C10.9274 16.8304 10.9998 17.0052 11 17.1875V35.0625C10.9998 35.2447 10.9274 35.4195 10.7985 35.5484C10.6696 35.6773 10.4948 35.7498 10.3125 35.75H8.93752C8.75524 35.7498 8.58048 35.6773 8.45159 35.5484C8.3227 35.4195 8.25021 35.2447 8.25002 35.0625V17.1875ZM5.50002 20.9878V31.2621C4.81355 30.8057 4.22564 30.2162 3.77113 29.5285C3.31661 28.8408 3.00473 28.0689 2.85395 27.2585C2.70318 26.4481 2.71657 25.6156 2.89335 24.8105C3.07013 24.0053 3.4067 23.2439 3.88311 22.5711L3.89596 22.5519C4.33177 21.9379 4.87524 21.408 5.50002 20.9878ZM35.75 35.0625C35.7498 35.2447 35.6773 35.4195 35.5485 35.5484C35.4196 35.6773 35.2448 35.7498 35.0625 35.75H33.6875C33.5052 35.7498 33.3305 35.6773 33.2016 35.5484C33.0727 35.4195 33.0002 35.2447 33 35.0625V17.1875C33.0002 17.0052 33.0727 16.8304 33.2016 16.7015C33.3305 16.5726 33.5052 16.5001 33.6875 16.5H35.0625C35.2448 16.5001 35.4196 16.5726 35.5485 16.7015C35.6773 16.8304 35.7498 17.0052 35.75 17.1875V35.0625ZM38.5 31.2621V20.9878C39.1248 21.408 39.6683 21.9379 40.1041 22.5519L40.1169 22.5712C40.5933 23.2439 40.9299 24.0054 41.1067 24.8105C41.2835 25.6156 41.2969 26.4481 41.1461 27.2585C40.9953 28.0689 40.6834 28.8408 40.2289 29.5285C39.7744 30.2162 39.1865 30.8057 38.5 31.2621V31.2621Z" fill="url(#paint0_linear_1_322)"/>
<path d="M24.0625 21.3125V22.6875C24.0623 22.8698 23.9898 23.0445 23.8609 23.1734C23.732 23.3023 23.5573 23.3748 23.375 23.375H22C21.6353 23.375 21.2856 23.5199 21.0277 23.7777C20.7699 24.0356 20.625 24.3853 20.625 24.75V26.125C20.625 26.4897 20.7699 26.8394 21.0277 27.0973C21.2856 27.3551 21.6353 27.5 22 27.5C22.3647 27.5 22.7144 27.3551 22.9723 27.0973C23.2301 26.8394 23.375 26.4897 23.375 26.125C24.2864 26.1239 25.1601 25.7614 25.8045 25.117C26.4489 24.4726 26.8114 23.5989 26.8125 22.6875V21.3125C26.8114 20.4011 26.4489 19.5274 25.8045 18.883C25.1601 18.2386 24.2864 17.8761 23.375 17.875H19.9375C19.5728 17.875 19.2231 18.0199 18.9652 18.2777C18.7074 18.5356 18.5625 18.8853 18.5625 19.25C18.5625 19.6147 18.7074 19.9644 18.9652 20.2223C19.2231 20.4801 19.5728 20.625 19.9375 20.625H23.375C23.5573 20.6252 23.732 20.6977 23.8609 20.8266C23.9898 20.9555 24.0623 21.1302 24.0625 21.3125Z" fill="url(#paint1_linear_1_322)"/>
<path d="M22 31.625C22.7594 31.625 23.375 31.0094 23.375 30.25C23.375 29.4906 22.7594 28.875 22 28.875C21.2406 28.875 20.625 29.4906 20.625 30.25C20.625 31.0094 21.2406 31.625 22 31.625Z" fill="url(#paint2_linear_1_322)"/>
</g>
<defs>
<linearGradient id="paint0_linear_1_322" x1="44" y1="22" x2="0" y2="22" gradientUnits="userSpaceOnUse">
<stop stop-color="#CB11AB"/>
<stop offset="1" stop-color="#481173"/>
</linearGradient>
<linearGradient id="paint1_linear_1_322" x1="26.8125" y1="22.6875" x2="18.5625" y2="22.6875" gradientUnits="userSpaceOnUse">
<stop stop-color="#CB11AB"/>
<stop offset="1" stop-color="#481173"/>
</linearGradient>
<linearGradient id="paint2_linear_1_322" x1="23.375" y1="30.25" x2="20.625" y2="30.25" gradientUnits="userSpaceOnUse">
<stop stop-color="#CB11AB"/>
<stop offset="1" stop-color="#481173"/>
</linearGradient>
<clipPath id="clip0_1_322">
<rect width="44" height="44" fill="white"/>
</clipPath>
</defs>
</svg>
