<svg width="24" height="24" viewBox="0 0 24 24" fill="none" xmlns="http://www.w3.org/2000/svg">
<path d="M20.549 4H4.451C3.8012 4.00079 3.17824 4.25928 2.71876 4.71876C2.25928 5.17824 2.00079 5.8012 2 6.451V18.024C2.0002 18.3228 2.08964 18.6148 2.25686 18.8624C2.42408 19.1101 2.66145 19.3021 2.93855 19.414C3.21564 19.5258 3.51982 19.5523 3.8121 19.4902C4.10438 19.428 4.37142 19.2799 4.579 19.065L5.693 17.911C5.97756 17.6171 6.31817 17.3833 6.69468 17.2234C7.07119 17.0635 7.47594 16.9807 7.885 16.98H20.549C21.1988 16.9792 21.8218 16.7207 22.2812 16.2612C22.7407 15.8018 22.9992 15.1788 23 14.529V6.451C22.9992 5.8012 22.7407 5.17824 22.2812 4.71876C21.8218 4.25928 21.1988 4.00079 20.549 4ZM22 14.529C21.9997 14.9137 21.8468 15.2827 21.5747 15.5547C21.3027 15.8268 20.9337 15.9797 20.549 15.98H7.885C7.34196 15.981 6.80464 16.091 6.30481 16.3033C5.80499 16.5156 5.3528 16.8259 4.975 17.216L3.86 18.371C3.79083 18.4428 3.70178 18.4922 3.6043 18.513C3.50682 18.5338 3.40535 18.525 3.31291 18.4877C3.22048 18.4504 3.1413 18.3863 3.08554 18.3037C3.02979 18.2211 3 18.1237 3 18.024V6.451C3.00053 6.06633 3.15357 5.69757 3.42557 5.42557C3.69757 5.15357 4.06633 5.00053 4.451 5H20.551C20.9353 5.00106 21.3036 5.15433 21.5751 5.42628C21.8467 5.69822 21.9995 6.06668 22 6.451V14.529Z" fill="#C4C4C4"/>
<path d="M7.99318 10.0291C7.79936 10.0291 7.60989 10.0865 7.44873 10.1942C7.28757 10.3019 7.16196 10.455 7.08778 10.634C7.01361 10.8131 6.9942 11.0101 7.03201 11.2002C7.06983 11.3903 7.16316 11.565 7.30022 11.702C7.43728 11.8391 7.61189 11.9324 7.802 11.9702C7.9921 12.008 8.18914 11.9886 8.36821 11.9145C8.54729 11.8403 8.70034 11.7147 8.80802 11.5535C8.91571 11.3924 8.97318 11.2029 8.97318 11.0091C8.97318 10.7491 8.86993 10.4999 8.68615 10.3161C8.50236 10.1323 8.2531 10.0291 7.99318 10.0291ZM12.5092 10.0291C12.3153 10.0289 12.1257 10.0862 11.9645 10.1937C11.8032 10.3013 11.6774 10.4543 11.6031 10.6333C11.5287 10.8124 11.5092 11.0095 11.5469 11.1996C11.5846 11.3898 11.6779 11.5645 11.8149 11.7017C11.9519 11.8388 12.1265 11.9323 12.3166 11.9701C12.5068 12.008 12.7039 11.9887 12.883 11.9146C13.0621 11.8404 13.2152 11.7148 13.323 11.5536C13.4307 11.3924 13.4882 11.2029 13.4882 11.0091C13.4882 10.7493 13.3851 10.5002 13.2015 10.3164C13.0179 10.1327 12.7689 10.0293 12.5092 10.0291ZM17.0252 10.0291C16.8313 10.0289 16.6417 10.0862 16.4805 10.1937C16.3192 10.3013 16.1934 10.4543 16.1191 10.6333C16.0447 10.8124 16.0252 11.0095 16.0629 11.1996C16.1006 11.3898 16.1938 11.5645 16.3309 11.7017C16.4679 11.8388 16.6425 11.9323 16.8326 11.9701C17.0228 12.008 17.2199 11.9887 17.399 11.9146C17.5781 11.8404 17.7312 11.7148 17.839 11.5536C17.9467 11.3924 18.0042 11.2029 18.0042 11.0091C18.0042 10.7493 17.9011 10.5002 17.7175 10.3164C17.5339 10.1327 17.2849 10.0293 17.0252 10.0291Z" fill="#C4C4C4"/>
</svg>
