<svg width="76" height="76" viewBox="0 0 76 76" fill="none" xmlns="http://www.w3.org/2000/svg">
<g filter="url(#filter0_d_1_85)">
<circle cx="38" cy="34" r="32" fill="white"/>
</g>
<path d="M44.6232 38.3826C44.3755 38.134 44.0811 37.9367 43.757 37.8021C43.4328 37.6675 43.0853 37.5982 42.7343 37.5982C42.3834 37.5982 42.0359 37.6675 41.7117 37.8021C41.3876 37.9367 41.0932 38.134 40.8455 38.3826L39.5566 39.6715C38.1054 38.7504 36.7608 37.6713 35.5477 36.4537C34.3327 35.2382 33.2537 33.894 32.3299 32.4448L33.6188 31.1559C33.8674 30.9082 34.0646 30.6138 34.1992 30.2896C34.3338 29.9655 34.4031 29.618 34.4031 29.267C34.4031 28.916 34.3338 28.5685 34.1992 28.2444C34.0646 27.9203 33.8674 27.6259 33.6188 27.3781L31.1032 24.8715C30.859 24.622 30.5671 24.4243 30.2449 24.2899C29.9227 24.1555 29.5768 24.0873 29.2277 24.0892C28.8761 24.0884 28.5278 24.157 28.2029 24.2913C27.878 24.4255 27.5828 24.6227 27.3343 24.8715L26.1255 26.0715C25.5493 26.691 25.1192 27.4318 24.8669 28.2394C24.6147 29.0469 24.5466 29.9008 24.6677 30.7381C24.9521 34.0715 27.1388 38.0804 30.5077 41.4581C33.8766 44.8359 37.9299 47.0137 41.2632 47.3337C41.5119 47.347 41.7612 47.347 42.0099 47.3337C42.7274 47.3638 43.4438 47.2504 44.1169 47.0001C44.79 46.7497 45.4064 46.3675 45.9299 45.8759L47.1299 44.667C47.3787 44.4186 47.5758 44.1234 47.7101 43.7985C47.8443 43.4735 47.913 43.1253 47.9121 42.7737C47.9141 42.4246 47.8459 42.0787 47.7115 41.7565C47.5771 41.4343 47.3793 41.1424 47.1299 40.8981L44.6232 38.3826ZM45.8766 43.4137L44.6677 44.6137C44.2207 44.9862 43.6989 45.2584 43.1376 45.4117C42.5763 45.5651 41.9886 45.5961 41.4143 45.5026C38.5255 45.2537 34.8455 43.2092 31.8055 40.1692C28.7655 37.1292 26.721 33.4759 26.4455 30.587C26.3496 30.0127 26.3794 29.4245 26.5329 28.8628C26.6863 28.3012 26.9598 27.7795 27.3343 27.3337L28.5877 26.1248C28.6707 26.0424 28.7692 25.9772 28.8775 25.933C28.9858 25.8888 29.1018 25.8663 29.2188 25.867C29.3358 25.8663 29.4517 25.8888 29.56 25.933C29.6683 25.9772 29.7668 26.0424 29.8499 26.1248L32.3655 28.667C32.531 28.8336 32.6239 29.0589 32.6239 29.2937C32.6239 29.5285 32.531 29.7538 32.3655 29.9204L30.5877 31.6981C30.4486 31.8366 30.3592 32.0171 30.3334 32.2117C30.3077 32.4063 30.3471 32.6039 30.4455 32.7737C31.5098 34.5856 32.8034 36.2527 34.2943 37.7337C35.7753 39.2246 37.4424 40.5182 39.2543 41.5826C39.4242 41.6809 39.6218 41.7203 39.8163 41.6946C40.0109 41.6689 40.1915 41.5795 40.3299 41.4404L42.1077 39.6626C42.2742 39.497 42.4995 39.4041 42.7343 39.4041C42.9692 39.4041 43.1945 39.497 43.361 39.6626L45.8766 42.1781C45.959 42.2612 46.0241 42.3597 46.0684 42.468C46.1126 42.5763 46.135 42.6923 46.1343 42.8092C46.1288 43.0363 46.0365 43.2525 45.8766 43.4137ZM47.4232 24.5692C46.1879 23.3292 44.7193 22.346 43.1022 21.6762C41.4851 21.0065 39.7513 20.6635 38.001 20.667C37.7653 20.667 37.5392 20.7607 37.3725 20.9274C37.2058 21.0941 37.1121 21.3202 37.1121 21.5559C37.1121 21.7917 37.2058 22.0177 37.3725 22.1844C37.5392 22.3511 37.7653 22.4448 38.001 22.4448C39.5268 22.4447 41.0374 22.7468 42.4458 23.3337C43.8542 23.9205 45.1325 24.7804 46.2068 25.8638C47.2811 26.9472 48.1302 28.2327 48.7052 29.646C49.2801 31.0593 49.5695 32.5724 49.5566 34.0981C49.5566 34.3339 49.6502 34.56 49.8169 34.7267C49.9836 34.8934 50.2097 34.987 50.4455 34.987C50.6812 34.987 50.9073 34.8934 51.074 34.7267C51.2407 34.56 51.3343 34.3339 51.3343 34.0981C51.3514 32.3292 51.0141 30.5747 50.3424 28.9382C49.6707 27.3016 48.6781 25.8161 47.4232 24.5692Z" fill="#A43FD4"/>
<path d="M42.3637 29.654C42.8682 30.1555 43.2673 30.7527 43.5375 31.4106C43.8077 32.0686 43.9435 32.7739 43.9371 33.4852C43.9371 33.7209 44.0307 33.947 44.1974 34.1137C44.3641 34.2804 44.5902 34.374 44.826 34.374C45.0617 34.374 45.2878 34.2804 45.4545 34.1137C45.6212 33.947 45.7148 33.7209 45.7148 33.4852C45.7266 32.5439 45.5514 31.6096 45.1993 30.7365C44.8472 29.8635 44.3252 29.0691 43.6637 28.3993C43.0022 27.7295 42.2143 27.1977 41.3457 26.8348C40.4771 26.4719 39.5451 26.2851 38.6037 26.2852C38.368 26.2852 38.1419 26.3788 37.9752 26.5455C37.8085 26.7122 37.7148 26.9383 37.7148 27.174C37.7148 27.4098 37.8085 27.6359 37.9752 27.8026C38.1419 27.9693 38.368 28.0629 38.6037 28.0629C39.3042 28.0682 39.9969 28.2114 40.642 28.4845C41.2872 28.7575 41.8722 29.1549 42.3637 29.654Z" fill="#A43FD4"/>
<defs>
<filter id="filter0_d_1_85" x="0" y="0" width="76" height="76" filterUnits="userSpaceOnUse" color-interpolation-filters="sRGB">
<feFlood flood-opacity="0" result="BackgroundImageFix"/>
<feColorMatrix in="SourceAlpha" type="matrix" values="0 0 0 0 0 0 0 0 0 0 0 0 0 0 0 0 0 0 127 0" result="hardAlpha"/>
<feOffset dy="4"/>
<feGaussianBlur stdDeviation="3"/>
<feComposite in2="hardAlpha" operator="out"/>
<feColorMatrix type="matrix" values="0 0 0 0 0 0 0 0 0 0 0 0 0 0 0 0 0 0 0.1 0"/>
<feBlend mode="normal" in2="BackgroundImageFix" result="effect1_dropShadow_1_85"/>
<feBlend mode="normal" in="SourceGraphic" in2="effect1_dropShadow_1_85" result="shape"/>
</filter>
</defs>
</svg>
