<svg width="64" height="64" viewBox="0 0 64 64" fill="none" xmlns="http://www.w3.org/2000/svg">
<g clip-path="url(#clip0_1_151)">
<path d="M28.9403 31.8953C28.7337 31.8955 28.5329 31.8274 28.369 31.7017C28.2051 31.576 28.0873 31.3997 28.0339 31.2002C27.9804 31.0007 27.9944 30.7891 28.0736 30.5983C28.1527 30.4075 28.2927 30.2482 28.4717 30.1451L34.5937 26.6206C34.7005 26.5591 34.8182 26.5191 34.9404 26.5031C35.0626 26.4871 35.1867 26.4953 35.3057 26.5272C35.4246 26.5592 35.5362 26.6143 35.6338 26.6894C35.7315 26.7645 35.8134 26.8581 35.8749 26.9649C35.9364 27.0716 35.9762 27.1895 35.9921 27.3117C36.008 27.4338 35.9996 27.5579 35.9675 27.6769C35.9355 27.7958 35.8802 27.9073 35.805 28.0049C35.7298 28.1025 35.6361 28.1843 35.5293 28.2456L29.4072 31.7701C29.2653 31.8521 29.1042 31.8953 28.9403 31.8953ZM35.0607 37.5055C34.8967 37.5055 34.7357 37.4623 34.5937 37.3803L28.4718 33.8558C28.2563 33.7317 28.0989 33.5272 28.0343 33.2871C27.9696 33.047 28.003 32.791 28.1271 32.5755C28.2511 32.36 28.4557 32.2027 28.6958 32.138C28.9359 32.0734 29.1919 32.1067 29.4073 32.2308L35.5293 35.7553C35.7083 35.8584 35.8483 36.0177 35.9274 36.2085C36.0066 36.3993 36.0205 36.6109 35.9671 36.8104C35.9137 37.0099 35.7959 37.1862 35.632 37.3119C35.4681 37.4376 35.2672 37.5056 35.0607 37.5055H35.0607Z" fill="#676E87"/>
<path d="M37.7541 29.144C39.2752 29.144 40.5083 27.9109 40.5083 26.3899C40.5083 24.8688 39.2752 23.6357 37.7541 23.6357C36.2331 23.6357 35 24.8688 35 26.3899C35 27.9109 36.2331 29.144 37.7541 29.144Z" fill="#A43FD4"/>
<path d="M37.7541 40.3647C39.2752 40.3647 40.5083 39.1316 40.5083 37.6106C40.5083 36.0895 39.2752 34.8564 37.7541 34.8564C36.2331 34.8564 35 36.0895 35 37.6106C35 39.1316 36.2331 40.3647 37.7541 40.3647Z" fill="#A43FD4"/>
<path d="M26.3908 34.5082C27.9119 34.5082 29.145 33.2752 29.145 31.7541C29.145 30.2331 27.9119 29 26.3908 29C24.8698 29 23.6367 30.2331 23.6367 31.7541C23.6367 33.2752 24.8698 34.5082 26.3908 34.5082Z" fill="#A43FD4"/>
<path d="M24.824 12.8813C24.8237 15.8863 23.6907 18.7807 21.651 20.9875C19.6113 23.1942 16.8147 24.5511 13.819 24.7875C13.509 24.8125 13.1961 24.825 12.8803 24.825C10.2642 24.8291 7.71986 23.9701 5.64155 22.3812V22.38C4.02542 21.1484 2.75024 19.5248 1.93666 17.6628C1.12307 15.8009 0.797989 13.7621 0.992158 11.7395C1.18633 9.71685 1.89333 7.77719 3.04628 6.10402C4.19922 4.43085 5.75999 3.0795 7.58091 2.17782C9.40183 1.27614 11.4227 0.853948 13.4523 0.951185C15.4819 1.04842 17.4532 1.66187 19.1796 2.7335C20.9059 3.80513 22.3304 5.29949 23.3181 7.07522C24.3058 8.85095 24.8241 10.8493 24.8241 12.8813H24.824Z" fill="white"/>
<path d="M63.0633 12.8813C63.068 15.8908 61.9317 18.7902 59.8833 20.995C59.4163 21.4989 58.9069 21.9619 58.3608 22.3788C56.5359 23.7757 54.3447 24.6129 52.0533 24.7888C51.7458 24.8125 51.4333 24.825 51.1196 24.825C48.7573 24.825 46.4481 24.1245 44.484 22.8121C42.5198 21.4997 40.989 19.6344 40.085 17.452C39.181 15.2695 38.9444 12.868 39.4053 10.5512C39.8661 8.2343 41.0037 6.10613 42.674 4.43576C44.3444 2.76539 46.4726 1.62786 48.7894 1.167C51.1063 0.706149 53.5078 0.942674 55.6902 1.84667C57.8726 2.75066 59.738 4.28153 61.0504 6.24567C62.3628 8.20981 63.0633 10.519 63.0633 12.8813L63.0633 12.8813Z" fill="white"/>
<path d="M63.0633 51.0746C63.0634 54.0799 61.9306 56.9748 59.8908 59.1818C57.8511 61.3889 55.0542 62.7458 52.0583 62.9821C51.7483 63.0059 51.4354 63.018 51.1195 63.0183C48.7573 63.0184 46.4481 62.3179 44.484 61.0055C42.5198 59.6931 40.989 57.8277 40.085 55.6453C39.181 53.4629 38.9444 51.0614 39.4053 48.7445C39.8661 46.4276 41.0037 44.2995 42.674 42.6291C44.3444 40.9587 46.4726 39.8212 48.7894 39.3604C51.1063 38.8995 53.5078 39.136 55.6902 40.04C57.8726 40.944 59.738 42.4749 61.0504 44.439C62.3628 46.4032 63.0633 48.7124 63.0633 51.0746Z" fill="white"/>
<path d="M24.825 51.0746C24.8244 54.0801 23.691 56.9749 21.6508 59.1819C19.6107 61.3888 16.8136 62.7458 13.8175 62.9821C13.5087 63.0059 13.1966 63.018 12.8812 63.0184C10.519 63.0184 8.20978 62.3179 6.24565 61.0055C4.28151 59.6931 2.75065 57.8277 1.84666 55.6453C0.942672 53.4628 0.706149 51.0613 1.167 48.7445C1.62786 46.4276 2.76539 44.2995 4.43576 42.6291C6.10612 40.9587 8.23429 39.8212 10.5512 39.3604C12.868 38.8995 15.2695 39.136 17.4519 40.04C19.6344 40.944 21.4997 42.4749 22.8121 44.439C24.1245 46.4032 24.825 48.7124 24.825 51.0746L24.825 51.0746Z" fill="white"/>
<path d="M35.648 7.2488L35.6604 7.25063C35.706 7.25732 35.7519 7.26069 35.798 7.2607C36.0347 7.26036 36.2625 7.17051 36.4357 7.00917C36.6089 6.84783 36.7147 6.62695 36.7318 6.39087C36.7489 6.15479 36.6761 5.92097 36.5279 5.73635C36.3798 5.55173 36.1673 5.42998 35.9331 5.39553L35.9207 5.39369C35.6748 5.35772 35.4246 5.42086 35.2252 5.56924C35.0259 5.71762 34.8936 5.9391 34.8574 6.18499C34.8213 6.43088 34.8842 6.68106 35.0325 6.88054C35.1807 7.08002 35.4021 7.21248 35.648 7.2488ZM32.006 6.98323H32.0186C32.2672 6.98323 32.5057 6.88446 32.6815 6.70865C32.8573 6.53283 32.9561 6.29437 32.9561 6.04573C32.9561 5.79709 32.8573 5.55864 32.6815 5.38282C32.5057 5.20701 32.2672 5.10823 32.0186 5.10823H32.006C31.7574 5.10823 31.5189 5.20701 31.3431 5.38282C31.1673 5.55864 31.0685 5.79709 31.0685 6.04573C31.0685 6.29437 31.1673 6.53283 31.3431 6.70865C31.5189 6.88446 31.7574 6.98323 32.006 6.98323ZM28.2262 7.25472C28.2723 7.25471 28.3182 7.25134 28.3638 7.24465L28.3762 7.24282C28.6221 7.20653 28.8436 7.07409 28.9918 6.8746C29.1401 6.67511 29.2031 6.4249 29.1669 6.17899C29.1308 5.93307 28.9985 5.71158 28.799 5.56319C28.5996 5.41481 28.3495 5.3517 28.1035 5.38771L28.0911 5.38954C27.8569 5.424 27.6444 5.54575 27.4963 5.73037C27.3481 5.91499 27.2753 6.14881 27.2924 6.38489C27.3095 6.62097 27.4153 6.84185 27.5885 7.00319C27.7617 7.16453 27.9895 7.25438 28.2262 7.25472ZM57.7626 29.5328C57.7898 29.5328 57.8172 29.5317 57.8447 29.5293C57.9672 29.5186 58.0864 29.484 58.1955 29.4273C58.3046 29.3706 58.4014 29.2929 58.4805 29.1988C58.5596 29.1047 58.6193 28.9959 58.6564 28.8786C58.6934 28.7614 58.707 28.638 58.6963 28.5156L58.692 28.4748C58.6686 28.2964 58.5943 28.1285 58.478 27.9913C58.3617 27.854 58.2082 27.7532 58.0361 27.7009C57.864 27.6485 57.6804 27.6469 57.5073 27.6962C57.3343 27.7455 57.1791 27.8435 57.0604 27.9787C56.9416 28.1139 56.8644 28.2804 56.8378 28.4584C56.8112 28.6363 56.8365 28.8181 56.9106 28.9821C56.9847 29.1461 57.1044 29.2852 57.2555 29.3829C57.4066 29.4805 57.5827 29.5326 57.7626 29.5328ZM51.1187 25.7627C53.6664 25.7627 56.1568 25.0072 58.2751 23.5917C60.3935 22.1763 62.0445 20.1645 63.0194 17.8108C63.9944 15.457 64.2495 12.867 63.7524 10.3683C63.2554 7.86956 62.0286 5.57433 60.2271 3.77285C58.4256 1.97137 56.1304 0.744545 53.6316 0.247522C51.1329 -0.249501 48.5429 0.00559849 46.1891 0.980561C43.8354 1.95552 41.8236 3.60656 40.4082 5.72488C38.9928 7.84321 38.2373 10.3337 38.2373 12.8814C38.2412 16.2965 39.5996 19.5707 42.0145 21.9856C44.4293 24.4004 47.7035 25.7588 51.1187 25.7627H51.1187ZM51.1187 23.8877C48.8946 23.8901 46.7226 23.2148 44.8919 21.9518C45.2822 20.602 46.1005 19.4155 47.2235 18.5711C48.3466 17.7267 49.7137 17.2701 51.1188 17.2701C52.5239 17.27 53.8909 17.7266 55.0141 18.5709C56.1372 19.4153 56.9555 20.6017 57.3458 21.9515C55.5151 23.2147 53.3429 23.8901 51.1187 23.8877H51.1187ZM47.3949 11.6708C47.3949 10.9343 47.6133 10.2144 48.0225 9.60201C48.4317 8.98965 49.0133 8.51238 49.6937 8.23055C50.3741 7.94871 51.1228 7.87498 51.8452 8.01867C52.5675 8.16236 53.231 8.51702 53.7518 9.0378C54.2726 9.55857 54.6272 10.2221 54.7709 10.9444C54.9146 11.6668 54.8408 12.4155 54.559 13.0959C54.2771 13.7763 53.7998 14.3579 53.1875 14.7671C52.5751 15.1762 51.8552 15.3946 51.1187 15.3946C50.1314 15.3935 49.1849 15.0008 48.4868 14.3027C47.7887 13.6046 47.396 12.6581 47.3949 11.6708H47.3949ZM51.1187 1.87502C53.2967 1.87397 55.4261 2.51947 57.2369 3.72974C59.0477 4.94 60.4586 6.66056 61.2906 8.6734C62.1227 10.6862 62.3385 12.9008 61.9108 15.0364C61.4831 17.172 60.4311 19.1327 58.888 20.6698C58.0807 18.6401 56.5128 17.0058 54.5182 16.1151C55.4486 15.404 56.1327 14.4191 56.4741 13.2989C56.8154 12.1787 56.797 10.9797 56.4212 9.87051C56.0455 8.76137 55.3315 7.79797 54.3796 7.11588C53.4277 6.43379 52.2859 6.06735 51.1148 6.06814C49.9437 6.06893 48.8024 6.4369 47.8514 7.12028C46.9005 7.80365 46.1877 8.76802 45.8135 9.87766C45.4393 10.9873 45.4224 12.1864 45.7653 13.3061C46.1082 14.4258 46.7935 15.4098 47.7249 16.1197C45.7297 17.0092 44.1602 18.6419 43.3502 20.6707C41.8069 19.1336 40.7546 17.173 40.3267 15.0373C39.8988 12.9016 40.1145 10.6869 40.9465 8.67396C41.7785 6.66098 43.1893 4.94028 45.0002 3.7299C46.8111 2.51953 48.9405 1.87397 51.1187 1.87502ZM58.8301 32.4831L58.8318 32.4447C58.8319 32.4401 58.8321 32.4355 58.8321 32.431L58.8322 32.4303L58.8338 32.3919C58.8374 32.2691 58.8167 32.1469 58.773 32.0321C58.7294 31.9173 58.6635 31.8123 58.5792 31.723C58.4949 31.6337 58.3939 31.5618 58.2818 31.5116C58.1698 31.4613 58.0489 31.4337 57.9262 31.4301C57.9167 31.4298 57.9072 31.4297 57.8976 31.4297C57.6551 31.4302 57.4223 31.5246 57.2479 31.693C57.0736 31.8614 56.9713 32.0909 56.9624 32.3332C56.9619 32.3439 56.9617 32.3545 56.9615 32.3651C56.9611 32.372 56.9607 32.379 56.9605 32.3859C56.949 32.6322 57.0351 32.8732 57.2002 33.0563C57.3653 33.2395 57.596 33.3501 57.8422 33.3642C57.8604 33.3653 57.8784 33.3658 57.8965 33.3658C58.1353 33.3656 58.3651 33.274 58.5386 33.1099C58.7122 32.9458 58.8165 32.7215 58.8301 32.4831ZM51.1187 38.1936C48.571 38.1936 46.0805 38.9491 43.9622 40.3645C41.8438 41.7799 40.1928 43.7917 39.2179 46.1455C38.2429 48.4993 37.9878 51.0893 38.4848 53.588C38.9819 56.0867 40.2087 58.382 42.0102 60.1835C43.8117 61.985 46.1069 63.2118 48.6056 63.7088C51.1044 64.2058 53.6944 63.9508 56.0482 62.9758C58.4019 62.0008 60.4137 60.3498 61.8291 58.2315C63.2445 56.1131 64 53.6227 64 51.075C63.9962 47.6598 62.6378 44.3856 60.2229 41.9708C57.808 39.5559 54.5338 38.1975 51.1187 38.1936ZM51.1187 62.0813C48.8946 62.0838 46.7226 61.4085 44.8919 60.1455C45.2822 58.7957 46.1005 57.6092 47.2236 56.7648C48.3466 55.9204 49.7137 55.4638 51.1188 55.4638C52.5239 55.4638 53.8909 55.9203 55.014 56.7646C56.1372 57.609 56.9555 58.7954 57.3458 60.1452C55.5151 61.4084 53.3429 62.0838 51.1187 62.0813ZM47.3949 49.8645C47.3949 49.128 47.6133 48.4081 48.0225 47.7957C48.4317 47.1834 49.0132 46.7061 49.6937 46.4242C50.3741 46.1424 51.1228 46.0686 51.8451 46.2123C52.5675 46.356 53.231 46.7107 53.7518 47.2314C54.2725 47.7522 54.6272 48.4157 54.7709 49.1381C54.9146 49.8604 54.8408 50.6091 54.559 51.2895C54.2771 51.97 53.7998 52.5515 53.1875 52.9607C52.5751 53.3699 51.8552 53.5883 51.1187 53.5883C50.1314 53.5872 49.1849 53.1945 48.4868 52.4964C47.7887 51.7983 47.396 50.8518 47.3949 49.8645L47.3949 49.8645ZM58.888 58.8635C58.0807 56.8337 56.5128 55.1994 54.5182 54.3088C55.4486 53.5977 56.1327 52.6127 56.4741 51.4926C56.8154 50.3724 56.797 49.1733 56.4212 48.0642C56.0455 46.955 55.3315 45.9916 54.3796 45.3095C53.4277 44.6275 52.2859 44.261 51.1148 44.2618C49.9437 44.2626 48.8024 44.6306 47.8514 45.3139C46.9005 45.9973 46.1877 46.9617 45.8135 48.0713C45.4393 49.181 45.4224 50.38 45.7653 51.4998C46.1082 52.6195 46.7935 53.6035 47.7249 54.3134C45.7297 55.2029 44.1602 56.8356 43.3502 58.8644C41.8069 57.3267 40.7547 55.3657 40.3268 53.2296C39.8988 51.0936 40.1144 48.8786 40.9462 46.8651C41.778 44.8517 43.1886 43.1303 44.9993 41.9191C46.8101 40.7079 48.9396 40.0613 51.1181 40.0612C53.2966 40.0611 55.4261 40.7074 57.237 41.9184C59.0479 43.1295 60.4587 44.8506 61.2907 46.864C62.1227 48.8774 62.3385 51.0924 61.9108 53.2285C61.4831 55.3646 60.4311 57.3257 58.888 58.8635V58.8635ZM56.558 36.0099C56.5108 36.2527 56.5616 36.5044 56.6993 36.7098C56.8371 36.9153 57.0505 37.0579 57.2931 37.1065C57.5356 37.1551 57.7876 37.1057 57.9938 36.9691C58.2001 36.8325 58.3438 36.6198 58.3938 36.3775L58.4011 36.339C58.4437 36.095 58.3879 35.844 58.2459 35.6411C58.104 35.4381 57.8873 35.2997 57.6435 35.2562C57.3997 35.2127 57.1485 35.2676 56.9451 35.4088C56.7416 35.5501 56.6024 35.7662 56.558 36.0099H56.558ZM35.798 57.6082C35.7519 57.6082 35.706 57.6116 35.6604 57.6183L35.648 57.6201C35.4021 57.6565 35.1807 57.7889 35.0325 57.9884C34.8842 58.1879 34.8213 58.4381 34.8574 58.684C34.8936 58.9298 35.0259 59.1513 35.2252 59.2997C35.4246 59.4481 35.6748 59.5112 35.9207 59.4752L35.9331 59.4734C36.1673 59.439 36.3798 59.3172 36.5279 59.1326C36.6761 58.948 36.7489 58.7142 36.7318 58.4781C36.7147 58.242 36.6089 58.0211 36.4357 57.8598C36.2625 57.6984 36.0347 57.6086 35.798 57.6082ZM12.8814 38.1936C10.3337 38.1936 7.84319 38.9491 5.72486 40.3645C3.60653 41.7799 1.9555 43.7917 0.980541 46.1455C0.00558144 48.4993 -0.249512 51.0893 0.247517 53.588C0.744547 56.0867 1.97138 58.382 3.77287 60.1835C5.57435 61.985 7.86959 63.2118 10.3683 63.7088C12.8671 64.2058 15.4571 63.9508 17.8108 62.9758C20.1646 62.0008 22.1764 60.3498 23.5918 58.2315C25.0072 56.1131 25.7627 53.6227 25.7627 51.075C25.7588 47.6598 24.4005 44.3856 21.9856 41.9708C19.5707 39.5559 16.2965 38.1975 12.8814 38.1936H12.8814ZM12.8814 62.0813C10.6572 62.0838 8.48517 61.4085 6.65449 60.1454C7.02249 58.8806 7.76626 57.7575 8.78716 56.9251C9.80806 56.0927 11.0579 55.5903 12.3709 55.4845C12.5391 55.4997 12.7092 55.5087 12.8814 55.5087C13.0525 55.5087 13.2216 55.4997 13.3889 55.4847C14.7032 55.5874 15.9548 56.0886 16.9768 56.9214C17.9988 57.7541 18.7424 58.8787 19.1085 60.1452C17.2778 61.4084 15.1056 62.0838 12.8814 62.0813H12.8814ZM9.1349 49.8872C9.13472 49.1664 9.34247 48.4609 9.73323 47.8552C10.124 47.2495 10.6812 46.7695 11.338 46.4725C11.9948 46.1756 12.7233 46.0744 13.4361 46.1811C14.1489 46.2879 14.8159 46.598 15.3569 47.0742C15.8979 47.5505 16.2901 48.1727 16.4863 48.8663C16.6825 49.5599 16.6745 50.2953 16.4633 50.9845C16.252 51.6736 15.8464 52.2871 15.2951 52.7515C14.7439 53.2159 14.0704 53.5115 13.3554 53.6027C13.1979 53.5939 13.0398 53.5883 12.8809 53.5883C12.7232 53.5883 12.5667 53.5943 12.4109 53.6031C11.5065 53.4876 10.6752 53.0467 10.0723 52.3628C9.46938 51.679 9.13615 50.7989 9.1349 49.8872ZM20.6507 58.8635C19.8491 56.8486 18.2979 55.2227 16.3229 54.3274C17.2502 53.6094 17.9297 52.6194 18.2663 51.496C18.6028 50.3725 18.5796 49.1719 18.1999 48.0624C17.8201 46.9528 17.1029 45.9897 16.1485 45.3081C15.1941 44.6265 14.0505 44.2604 12.8777 44.2612C11.705 44.2619 10.5618 44.6295 9.6083 45.3123C8.65482 45.9951 7.93877 46.9591 7.56044 48.0691C7.1821 49.1792 7.16043 50.3798 7.49845 51.5028C7.83647 52.6258 8.51726 53.615 9.44548 54.3318C7.4697 55.2258 5.91689 56.8502 5.1128 58.8643C3.56957 57.3266 2.51736 55.3656 2.08942 53.2296C1.66148 51.0935 1.87706 48.8785 2.70886 46.865C3.54066 44.8516 4.95126 43.1302 6.76203 41.919C8.5728 40.7078 10.7023 40.0612 12.8808 40.0611C15.0593 40.061 17.1888 40.7074 18.9997 41.9184C20.8106 43.1294 22.2214 44.8506 23.0534 46.864C23.8854 48.8773 24.1012 51.0923 23.6735 53.2285C23.2458 55.3646 22.1938 57.3257 20.6507 58.8635H20.6507ZM32.0186 57.8857H32.006C31.7574 57.8857 31.5189 57.9845 31.3431 58.1603C31.1673 58.3361 31.0685 58.5746 31.0685 58.8232C31.0685 59.0718 31.1673 59.3103 31.3431 59.4861C31.5189 59.6619 31.7574 59.7607 32.006 59.7607H32.0186C32.2672 59.7607 32.5057 59.6619 32.6815 59.4861C32.8573 59.3103 32.9561 59.0718 32.9561 58.8232C32.9561 58.5746 32.8573 58.3361 32.6815 58.1603C32.5057 57.9845 32.2672 57.8857 32.0186 57.8857ZM33.8717 58.056L33.8729 58.0722L33.8622 57.8894L33.8717 58.056ZM28.3762 57.6261L28.3638 57.6243C28.3182 57.6176 28.2723 57.6142 28.2262 57.6142C27.9895 57.6146 27.7617 57.7044 27.5885 57.8657C27.4153 58.0271 27.3095 58.248 27.2924 58.484C27.2753 58.7201 27.3481 58.9539 27.4963 59.1386C27.6444 59.3232 27.8569 59.4449 28.0911 59.4794L28.1035 59.4812C28.3495 59.5172 28.5996 59.4541 28.799 59.3057C28.9985 59.1574 29.1308 58.9359 29.1669 58.6899C29.2031 58.444 29.1401 58.1938 28.9918 57.9943C28.8436 57.7948 28.6221 57.6624 28.3762 57.6261ZM30.062 58.0122L30.0735 57.8828L30.0626 58.0038L30.062 58.0122ZM37.631 57.4444L37.6322 57.4497L37.611 57.3467L37.631 57.4444ZM41.3018 37.6101C41.3022 36.846 41.0653 36.1006 40.6239 35.4768C40.1825 34.8531 39.5583 34.3818 38.8376 34.128C38.1168 33.8742 37.335 33.8505 36.6002 34.0601C35.8654 34.2697 35.2137 34.7022 34.7353 35.298L30.0335 32.5911C30.0974 32.1996 30.0974 31.8004 30.0335 31.4089L34.7354 28.702C35.2972 29.3984 36.0932 29.8665 36.9749 30.0189C37.8566 30.1714 38.7636 29.9978 39.5266 29.5305C40.2897 29.0632 40.8566 28.3341 41.1215 27.4795C41.3864 26.6249 41.3312 25.703 40.9662 24.8861C40.6012 24.0691 39.9514 23.413 39.1381 23.04C38.3248 22.6671 37.4035 22.6029 36.5463 22.8595C35.6891 23.116 34.9546 23.6757 34.4799 24.4342C34.0051 25.1926 33.8227 26.0979 33.9665 26.981L29.2647 29.6879C28.786 29.0921 28.1341 28.6596 27.3992 28.45C26.6642 28.2405 25.8823 28.2642 25.1613 28.5179C24.4404 28.7717 23.816 29.2429 23.3743 29.8667C22.9327 30.4904 22.6954 31.2358 22.6955 32.0001C22.6955 32.7644 22.9327 33.5098 23.3744 34.1335C23.8161 34.7572 24.4405 35.2285 25.1614 35.4822C25.8824 35.7359 26.6643 35.7596 27.3993 35.55C28.1342 35.3405 28.786 34.9079 29.2647 34.3121L33.9665 37.0191C33.8849 37.5223 33.9083 38.0369 34.0354 38.5306C34.1625 39.0243 34.3904 39.4863 34.7049 39.8875C35.0194 40.2887 35.4135 40.6204 35.8625 40.8618C36.3116 41.1032 36.8057 41.2489 37.3138 41.2898C37.8219 41.3308 38.333 41.2661 38.8149 41.0997C39.2968 40.9334 39.739 40.669 40.1136 40.3233C40.4883 39.9776 40.7873 39.5581 40.9918 39.0911C41.1962 38.6242 41.3018 38.1199 41.3018 37.6101V37.6101ZM37.6101 24.5733C37.9694 24.5732 38.3206 24.6798 38.6194 24.8794C38.9181 25.079 39.151 25.3627 39.2885 25.6946C39.426 26.0266 39.462 26.3918 39.3919 26.7442C39.3218 27.0966 39.1488 27.4203 38.8947 27.6743C38.6407 27.9284 38.317 28.1014 37.9646 28.1715C37.6122 28.2416 37.247 28.2057 36.915 28.0682C36.5831 27.9307 36.2994 27.6978 36.0997 27.3991C35.9001 27.1004 35.7936 26.7491 35.7936 26.3898C35.7942 25.9082 35.9857 25.4465 36.3263 25.106C36.6668 24.7654 37.1285 24.5738 37.6101 24.5733V24.5733ZM26.3899 33.8165C26.0306 33.8165 25.6794 33.71 25.3807 33.5104C25.0819 33.3108 24.8491 33.0271 24.7116 32.6952C24.5741 32.3632 24.5381 31.998 24.6082 31.6456C24.6783 31.2932 24.8513 30.9695 25.1054 30.7155C25.3594 30.4614 25.6831 30.2884 26.0355 30.2183C26.3879 30.1482 26.7531 30.1842 27.0851 30.3217C27.417 30.4592 27.7007 30.692 27.9003 30.9908C28.0999 31.2895 28.2064 31.6407 28.2064 32C28.2059 32.4816 28.0143 32.9433 27.6738 33.2839C27.3332 33.6244 26.8715 33.816 26.3899 33.8166V33.8165ZM37.6101 39.4268C37.2508 39.4268 36.8996 39.3202 36.6009 39.1206C36.3022 38.921 36.0693 38.6373 35.9319 38.3053C35.7944 37.9734 35.7584 37.6081 35.8285 37.2558C35.8986 36.9034 36.0716 36.5797 36.3257 36.3257C36.5797 36.0716 36.9034 35.8986 37.2558 35.8285C37.6081 35.7584 37.9734 35.7944 38.3053 35.9319C38.6373 36.0693 38.921 36.3022 39.1206 36.6009C39.3202 36.8996 39.4268 37.2508 39.4268 37.6101C39.4262 38.0918 39.2347 38.5535 38.8941 38.8941C38.5535 39.2347 38.0918 39.4262 37.6101 39.4268V39.4268ZM12.8814 25.7626C15.429 25.7626 17.9195 25.0072 20.0378 23.5917C22.1562 22.1763 23.8072 20.1645 24.7821 17.8108C25.7571 15.457 26.0122 12.867 25.5151 10.3683C25.0181 7.86954 23.7913 5.57431 21.9898 3.77283C20.1883 1.97135 17.893 0.744531 15.3943 0.247509C12.8956 -0.249512 10.3056 0.00558895 7.95182 0.980553C5.59807 1.95552 3.58629 3.60655 2.17088 5.72488C0.755466 7.84321 -2.61609e-06 10.3337 5.78961e-06 12.8814C0.00387469 16.2965 1.36226 19.5707 3.77714 21.9856C6.19203 24.4004 9.4662 25.7588 12.8814 25.7627V25.7626ZM12.8814 23.8876C10.6572 23.8901 8.48519 23.2148 6.65452 21.9517C7.04479 20.6019 7.8631 19.4154 8.98619 18.5711C10.1093 17.7267 11.4763 17.2701 12.8814 17.27C14.2866 17.27 15.6536 17.7266 16.7768 18.5709C17.8999 19.4153 18.7182 20.6017 19.1086 21.9515C17.2778 23.2147 15.1056 23.8901 12.8814 23.8877V23.8876ZM9.15761 11.6708C9.15762 10.9343 9.37602 10.2144 9.7852 9.602C10.1944 8.98964 10.776 8.51237 11.4564 8.23053C12.1368 7.9487 12.8855 7.87497 13.6079 8.01866C14.3302 8.16235 14.9937 8.51701 15.5145 9.03778C16.0352 9.55856 16.3899 10.2221 16.5336 10.9444C16.6772 11.6667 16.6035 12.4155 16.3216 13.0959C16.0398 13.7763 15.5625 14.3579 14.9502 14.767C14.3378 15.1762 13.6178 15.3946 12.8814 15.3946C11.8941 15.3935 10.9476 15.0008 10.2495 14.3027C9.55137 13.6046 9.15869 12.6581 9.1576 11.6708L9.15761 11.6708ZM12.8814 1.87502C15.0594 1.87397 17.1887 2.51947 18.9996 3.72974C20.8104 4.94 22.2212 6.66056 23.0533 8.6734C23.8854 10.6862 24.1012 12.9008 23.6735 15.0364C23.2458 17.172 22.1938 19.1327 20.6507 20.6698C19.8433 18.6402 18.2754 17.0059 16.2809 16.1151C17.2113 15.404 17.8954 14.4191 18.2368 13.2989C18.5782 12.1787 18.5597 10.9797 18.184 9.87053C17.8083 8.76138 17.0942 7.79797 16.1423 7.11587C15.1904 6.43377 14.0486 6.06733 12.8775 6.06811C11.7065 6.06889 10.5651 6.43686 9.61415 7.12024C8.66317 7.80361 7.95041 8.76798 7.57617 9.87763C7.20194 10.9873 7.18508 12.1863 7.52797 13.3061C7.87085 14.4258 8.55622 15.4098 9.48762 16.1197C7.49244 17.0092 5.92293 18.6419 5.11283 20.6706C3.56955 19.1335 2.51729 17.1729 2.08938 15.0372C1.66148 12.9016 1.87719 10.6869 2.70919 8.67392C3.54118 6.66095 4.95201 4.94025 6.7629 3.72989C8.57378 2.51952 10.7032 1.87397 12.8814 1.87502ZM6.09992 33.2899C6.10917 33.2899 6.11857 33.2898 6.12794 33.2896C6.3761 33.2822 6.61118 33.1766 6.78149 32.996C6.9518 32.8154 7.0434 32.5745 7.03614 32.3263L7.03443 32.2879C7.02162 32.106 6.95597 31.9319 6.84554 31.7868C6.73512 31.6417 6.58473 31.532 6.41284 31.4711C6.24095 31.4103 6.05503 31.401 5.87792 31.4444C5.70082 31.4877 5.54022 31.5818 5.41586 31.7152C5.2915 31.8485 5.20878 32.0153 5.17787 32.195C5.14695 32.3747 5.16918 32.5595 5.24183 32.7267C5.31448 32.894 5.43438 33.0364 5.58681 33.1364C5.73925 33.2365 5.91758 33.2898 6.09992 33.2899ZM5.94633 32.3581L6.10041 32.3538L5.93256 32.3588L5.94633 32.3581ZM6.13172 29.5036C6.16842 29.5079 6.20534 29.5101 6.24229 29.5101C6.47141 29.5098 6.69245 29.4254 6.86356 29.2731C7.03466 29.1207 7.14394 28.9108 7.17069 28.6833L7.17496 28.6425C7.18844 28.4596 7.14787 28.2767 7.05831 28.1166C6.96875 27.9565 6.83414 27.8263 6.67119 27.742C6.50825 27.6578 6.32414 27.6233 6.14175 27.6428C5.95935 27.6623 5.7867 27.7349 5.64523 27.8517C5.50376 27.9684 5.39971 28.1242 5.34599 28.2996C5.29228 28.475 5.29127 28.6623 5.34309 28.8382C5.39491 29.0142 5.49728 29.1711 5.63748 29.2894C5.77769 29.4076 5.94955 29.4821 6.13172 29.5036V29.5036ZM6.50593 37.0506C6.64269 37.0506 6.77781 37.0207 6.90178 36.9629C7.02575 36.9051 7.13557 36.8209 7.22352 36.7162C7.31148 36.6115 7.37544 36.4888 7.41091 36.3567C7.44638 36.2246 7.4525 36.0863 7.42884 35.9516L7.42155 35.9131C7.38362 35.7407 7.29774 35.5826 7.17382 35.4569C7.04989 35.3312 6.89297 35.2431 6.72114 35.2028C6.54932 35.1625 6.36959 35.1715 6.20268 35.2289C6.03578 35.2863 5.88849 35.3897 5.77782 35.5272C5.66714 35.6647 5.59759 35.8307 5.57717 36.006C5.55675 36.1813 5.5863 36.3588 5.66241 36.518C5.73852 36.6773 5.85809 36.8118 6.00734 36.906C6.15658 37.0002 6.32942 37.0503 6.50592 37.0506H6.50593ZM6.35722 36.1405L6.50703 36.1143L6.34394 36.1431L6.35722 36.1405Z" fill="#272A33"/>
</g>
<defs>
<clipPath id="clip0_1_151">
<rect width="64" height="64" fill="white"/>
</clipPath>
</defs>
</svg>
