<svg width="64" height="64" viewBox="0 0 64 64" fill="none" xmlns="http://www.w3.org/2000/svg">
<path d="M32 33.333C38.6274 33.333 44 27.9604 44 21.333C44 14.7056 38.6274 9.33301 32 9.33301C25.3726 9.33301 20 14.7056 20 21.333C20 27.9604 25.3726 33.333 32 33.333Z" fill="#A43FD4"/>
<path d="M18.6667 50.667L45.3333 50.667C46.8061 50.667 48 49.4731 48 48.0003V32.0003C48 30.5276 46.8061 29.3337 45.3333 29.3337L18.6667 29.3337C17.1939 29.3337 16 30.5276 16 32.0003L16 48.0003C16 49.4731 17.1939 50.667 18.6667 50.667Z" fill="white"/>
<path d="M49.8141 53.5997C44.719 57.7955 38.3053 60.0565 31.7053 59.9835C25.1052 59.9106 18.7431 57.5084 13.742 53.2009C8.74079 48.8935 5.42209 42.9577 4.37164 36.4414C3.32119 29.9251 4.60653 23.2472 8.00079 17.5863V19.9997C8.00079 20.3533 8.14127 20.6924 8.39132 20.9425C8.64136 21.1925 8.9805 21.333 9.33413 21.333C9.68775 21.333 10.0269 21.1925 10.2769 20.9425C10.527 20.6924 10.6675 20.3533 10.6675 19.9997V14.6663C10.6675 14.3127 10.527 13.9736 10.2769 13.7235C10.0269 13.4735 9.68775 13.333 9.33413 13.333H4.00079C3.64717 13.333 3.30803 13.4735 3.05798 13.7235C2.80793 13.9736 2.66746 14.3127 2.66746 14.6663C2.66746 15.02 2.80793 15.3591 3.05798 15.6091C3.30803 15.8592 3.64717 15.9997 4.00079 15.9997H5.84079C-6.57254 36.213 8.00079 62.6663 32.0008 62.6663C39.1234 62.6601 46.0229 60.1812 51.5208 55.653C51.7931 55.4267 51.9643 55.1015 51.9968 54.7489C52.0293 54.3963 51.9204 54.0453 51.6941 53.773C51.4678 53.5007 51.1426 53.3295 50.79 53.297C50.4375 53.2645 50.0864 53.3734 49.8141 53.5997ZM60.0008 47.9997H58.1608C70.5741 27.7863 56.0008 1.33301 32.0008 1.33301C24.8782 1.33927 17.9787 3.81819 12.4808 8.34634C12.346 8.4584 12.2345 8.59592 12.1529 8.75105C12.0712 8.90617 12.0209 9.07587 12.0048 9.25044C11.9887 9.42502 12.0071 9.60105 12.0591 9.7685C12.111 9.93594 12.1954 10.0915 12.3075 10.2263C12.4195 10.3612 12.557 10.4726 12.7122 10.5543C12.8673 10.636 13.037 10.6863 13.2116 10.7024C13.3861 10.7185 13.5622 10.7 13.7296 10.6481C13.8971 10.5961 14.0526 10.5117 14.1875 10.3997C19.2826 6.20383 25.6963 3.94284 32.2963 4.0158C38.8964 4.08876 45.2584 6.49097 50.2596 10.7984C55.2608 15.1059 58.5795 21.0416 59.6299 27.5579C60.6804 34.0743 59.3951 40.7522 56.0008 46.413V43.9997C56.0008 43.6461 55.8603 43.3069 55.6103 43.0569C55.3602 42.8068 55.0211 42.6663 54.6675 42.6663C54.3138 42.6663 53.9747 42.8068 53.7247 43.0569C53.4746 43.3069 53.3341 43.6461 53.3341 43.9997V49.333C53.3341 49.6866 53.4746 50.0258 53.7247 50.2758C53.9747 50.5259 54.3138 50.6663 54.6675 50.6663H60.0008C60.3544 50.6663 60.6936 50.5259 60.9436 50.2758C61.1937 50.0258 61.3341 49.6866 61.3341 49.333C61.3341 48.9794 61.1937 48.6402 60.9436 48.3902C60.6936 48.1402 60.3544 47.9997 60.0008 47.9997Z" fill="#252525"/>
<path d="M45.3327 52H18.666C17.6051 52 16.5877 51.5786 15.8376 50.8284C15.0874 50.0783 14.666 49.0609 14.666 48V32C14.666 30.9391 15.0874 29.9217 15.8376 29.1716C16.5877 28.4214 17.6051 28 18.666 28H45.3327C46.3935 28 47.411 28.4214 48.1611 29.1716C48.9113 29.9217 49.3327 30.9391 49.3327 32V48C49.3327 49.0609 48.9113 50.0783 48.1611 50.8284C47.411 51.5786 46.3935 52 45.3327 52ZM18.666 30.6667C18.3124 30.6667 17.9733 30.8071 17.7232 31.0572C17.4732 31.3072 17.3327 31.6464 17.3327 32V48C17.3327 48.3536 17.4732 48.6928 17.7232 48.9428C17.9733 49.1929 18.3124 49.3333 18.666 49.3333H45.3327C45.6863 49.3333 46.0254 49.1929 46.2755 48.9428C46.5255 48.6928 46.666 48.3536 46.666 48V32C46.666 31.6464 46.5255 31.3072 46.2755 31.0572C46.0254 30.8071 45.6863 30.6667 45.3327 30.6667H18.666Z" fill="#252525"/>
<path d="M40 44H46.6667V36H40C38.9391 36 37.9217 36.4214 37.1716 37.1716C36.4214 37.9217 36 38.9391 36 40C36 41.0609 36.4214 42.0783 37.1716 42.8284C37.9217 43.5786 38.9391 44 40 44Z" fill="#BEC6C6"/>
<path d="M39.9993 41.3337C40.7357 41.3337 41.3327 40.7367 41.3327 40.0003C41.3327 39.2639 40.7357 38.667 39.9993 38.667C39.263 38.667 38.666 39.2639 38.666 40.0003C38.666 40.7367 39.263 41.3337 39.9993 41.3337Z" fill="#F8F9F9"/>
<path d="M28.3564 24H23.4834V23.0332L25.7832 20.582C26.099 20.237 26.3317 19.9359 26.4814 19.6787C26.6344 19.4215 26.7109 19.1774 26.7109 18.9463C26.7109 18.6305 26.6312 18.3831 26.4717 18.2041C26.3122 18.0218 26.0843 17.9307 25.7881 17.9307C25.4691 17.9307 25.2168 18.0413 25.0312 18.2627C24.849 18.4808 24.7578 18.7689 24.7578 19.127H23.3418C23.3418 18.694 23.4443 18.2985 23.6494 17.9404C23.8577 17.5824 24.1507 17.3024 24.5283 17.1006C24.9059 16.8955 25.334 16.793 25.8125 16.793C26.5449 16.793 27.113 16.9688 27.5166 17.3203C27.9235 17.6719 28.127 18.1683 28.127 18.8096C28.127 19.1611 28.0358 19.5192 27.8535 19.8838C27.6712 20.2484 27.3587 20.6732 26.916 21.1582L25.2998 22.8623H28.3564V24ZM34.0107 21.0605C34.0107 22.0436 33.8073 22.7956 33.4004 23.3164C32.9935 23.8372 32.3978 24.0977 31.6133 24.0977C30.8385 24.0977 30.2461 23.8421 29.8359 23.3311C29.4258 22.82 29.2158 22.0876 29.2061 21.1338V19.8252C29.2061 18.8324 29.4111 18.0788 29.8213 17.5645C30.2347 17.0501 30.8288 16.793 31.6035 16.793C32.3783 16.793 32.9707 17.0485 33.3809 17.5596C33.791 18.0674 34.001 18.7982 34.0107 19.752V21.0605ZM32.5996 19.625C32.5996 19.0358 32.5182 18.6077 32.3555 18.3408C32.196 18.0706 31.9453 17.9355 31.6035 17.9355C31.2715 17.9355 31.0257 18.0641 30.8662 18.3213C30.71 18.5752 30.627 18.974 30.6172 19.5176V21.2461C30.6172 21.8255 30.6953 22.2568 30.8516 22.54C31.0111 22.82 31.265 22.96 31.6133 22.96C31.9583 22.96 32.2074 22.8249 32.3604 22.5547C32.5133 22.2845 32.5931 21.8711 32.5996 21.3145V19.625ZM34.9482 18.2578C34.9482 17.8216 35.0898 17.4684 35.373 17.1982C35.6562 16.9248 36.0273 16.7881 36.4863 16.7881C36.9518 16.7881 37.3262 16.9232 37.6094 17.1934C37.8926 17.4603 38.0342 17.8232 38.0342 18.2822V18.6338C38.0342 19.0732 37.8926 19.4264 37.6094 19.6934C37.3262 19.9603 36.9551 20.0938 36.4961 20.0938C36.0339 20.0938 35.6595 19.9603 35.373 19.6934C35.0898 19.4232 34.9482 19.0602 34.9482 18.6045V18.2578ZM35.8857 18.6338C35.8857 18.8291 35.9411 18.987 36.0518 19.1074C36.1657 19.2246 36.3138 19.2832 36.4961 19.2832C36.6784 19.2832 36.8232 19.223 36.9307 19.1025C37.0381 18.9821 37.0918 18.821 37.0918 18.6191V18.2578C37.0918 18.0625 37.0381 17.9046 36.9307 17.7842C36.8232 17.6637 36.6751 17.6035 36.4863 17.6035C36.3073 17.6035 36.1624 17.6637 36.0518 17.7842C35.9411 17.9014 35.8857 18.0658 35.8857 18.2773V18.6338ZM38.3467 22.2568C38.3467 21.8174 38.4899 21.4642 38.7764 21.1973C39.0628 20.9271 39.4339 20.792 39.8896 20.792C40.3519 20.792 40.7246 20.9255 41.0078 21.1924C41.2943 21.4561 41.4375 21.8206 41.4375 22.2861V22.6377C41.4375 23.0739 41.2975 23.4271 41.0176 23.6973C40.7376 23.9642 40.3649 24.0977 39.8994 24.0977C39.4307 24.0977 39.0547 23.9626 38.7715 23.6924C38.4883 23.4222 38.3467 23.0641 38.3467 22.6182V22.2568ZM39.2842 22.6377C39.2842 22.8167 39.3428 22.9697 39.46 23.0967C39.5771 23.2236 39.7236 23.2871 39.8994 23.2871C40.2965 23.2871 40.4951 23.0674 40.4951 22.6279V22.2568C40.4951 22.0615 40.4398 21.9053 40.3291 21.7881C40.2184 21.6676 40.0719 21.6074 39.8896 21.6074C39.7074 21.6074 39.5609 21.6676 39.4502 21.7881C39.3395 21.9053 39.2842 22.0664 39.2842 22.2715V22.6377ZM36.7744 23.4678L36.0859 23.0967L39.5576 17.54L40.2461 17.9111L36.7744 23.4678Z" fill="white"/>
</svg>
