<svg width="64" height="64" viewBox="0 0 64 64" fill="none" xmlns="http://www.w3.org/2000/svg">
<path d="M62.9434 62.1319H48.7958C49.331 61.4758 49.6233 60.6542 49.6233 59.8066V7.72051C49.6166 6.72726 49.2168 5.77733 48.5118 5.07963C47.8068 4.38194 46.8543 3.99362 45.8637 4.00008H18.1362C17.1457 3.99362 16.1932 4.38195 15.4882 5.07964C14.7832 5.77733 14.3834 6.72727 14.3767 7.72051V59.8066C14.3766 60.6542 14.669 61.4758 15.2041 62.1319H1.05662C0.924664 62.1146 0.790549 62.1257 0.663231 62.1646C0.535913 62.2034 0.418323 62.269 0.318314 62.3571C0.218304 62.4451 0.138178 62.5535 0.0832864 62.6751C0.0283944 62.7966 0 62.9285 0 63.062C0 63.1954 0.0283944 63.3273 0.0832864 63.4489C0.138178 63.5705 0.218304 63.6789 0.318314 63.7669C0.418323 63.855 0.535913 63.9206 0.663231 63.9594C0.790549 63.9982 0.924664 64.0094 1.05662 63.9921H62.9434C63.0753 64.0094 63.2094 63.9982 63.3368 63.9594C63.4641 63.9206 63.5817 63.855 63.6817 63.7669C63.7817 63.6789 63.8618 63.5705 63.9167 63.4489C63.9716 63.3273 64 63.1954 64 63.062C64 62.9285 63.9716 62.7966 63.9167 62.6751C63.8618 62.5535 63.7817 62.4451 63.6817 62.3571C63.5817 62.269 63.4641 62.2034 63.3368 62.1646C63.2094 62.1257 63.0753 62.1146 62.9434 62.1319ZM16.2318 7.72051C16.239 7.22079 16.4435 6.74432 16.8005 6.39559C17.1575 6.04687 17.6379 5.85436 18.1362 5.8603H45.8637C46.3621 5.85432 46.8425 6.04681 47.1995 6.39554C47.5566 6.74428 47.7611 7.22078 47.7682 7.72051V11.4409H16.2318V7.72051ZM16.2318 13.3012H47.7682V54.226H38.4928V30.5082C38.4928 30.2615 38.3951 30.0249 38.2211 29.8505C38.0472 29.6761 37.8112 29.5781 37.5652 29.5781C37.3192 29.5781 37.0833 29.6761 36.9094 29.8505C36.7354 30.0249 36.6377 30.2615 36.6377 30.5082V54.226H34.7826V35.6238C34.7826 35.3771 34.6849 35.1405 34.511 34.9661C34.337 34.7917 34.1011 34.6937 33.8551 34.6937C33.6091 34.6937 33.3732 34.7917 33.1992 34.9661C33.0253 35.1405 32.9275 35.3771 32.9275 35.6238V54.226H31.0725V31.9033C31.0725 31.6567 30.9747 31.4201 30.8008 31.2457C30.6268 31.0712 30.3909 30.9732 30.1449 30.9732C29.8989 30.9732 29.663 31.0712 29.489 31.2457C29.3151 31.4201 29.2174 31.6567 29.2174 31.9033V54.226H27.3623V39.3442C27.3623 39.0975 27.2646 38.861 27.0906 38.6865C26.9167 38.5121 26.6808 38.4141 26.4348 38.4141C26.1888 38.4141 25.9528 38.5121 25.7789 38.6865C25.6049 38.861 25.5072 39.0975 25.5072 39.3442V54.226H16.2318V13.3012ZM16.2318 56.0862H47.7682V59.8066C47.7611 60.3063 47.5566 60.7828 47.1995 61.1316C46.8425 61.4803 46.3621 61.6728 45.8637 61.6668H18.1362C17.6379 61.6728 17.1575 61.4802 16.8005 61.1315C16.4435 60.7828 16.239 60.3063 16.2318 59.8066V56.0862Z" fill="#252525"/>
<path d="M29.4431 23.8185C29.4591 23.819 29.4741 23.8232 29.4902 23.8232C29.6321 23.8212 29.7728 23.7979 29.9078 23.7542L33.0893 25.7521C33.1237 26.1185 33.2981 26.4575 33.5762 26.6987C33.8543 26.9398 34.2146 27.0644 34.5822 27.0466C34.9498 27.0289 35.2964 26.8701 35.5499 26.6033C35.8034 26.3365 35.9444 25.9822 35.9433 25.6142C35.9433 25.5939 35.9382 25.575 35.9374 25.5549L39.3808 22.5517C39.4296 22.5592 39.4788 22.5642 39.5282 22.5665C39.8382 22.5717 40.1417 22.4779 40.3948 22.2988C40.6479 22.1196 40.8372 21.8645 40.9354 21.5704C41.0337 21.2763 41.0356 20.9586 40.9409 20.6634C40.8462 20.3681 40.6599 20.1108 40.4091 19.9286C40.1582 19.7464 39.8557 19.649 39.5457 19.6504C39.2357 19.6518 38.9341 19.752 38.6849 19.9365C38.4357 20.1209 38.2518 20.38 38.1598 20.6761C38.0678 20.9722 38.0726 21.2899 38.1735 21.583L35.0666 24.2925C34.8601 24.2048 34.6356 24.1675 34.4118 24.1837C34.1881 24.1999 33.9713 24.2692 33.7796 24.3858L30.905 22.581C30.9158 22.5175 30.9223 22.4534 30.9244 22.3891C30.9248 22.1756 30.8776 21.9648 30.7862 21.7719C30.6948 21.579 30.5615 21.409 30.396 21.2741C30.2305 21.1393 30.037 21.0432 29.8297 20.9926C29.6223 20.9421 29.4062 20.9385 29.1973 20.9821C28.9883 21.0257 28.7918 21.1154 28.6219 21.2446C28.452 21.3739 28.3131 21.5394 28.2153 21.7291C28.1176 21.9189 28.0634 22.128 28.0568 22.3414C28.0501 22.5547 28.0912 22.7669 28.1769 22.9623L24.6254 27.4221C24.5743 27.4141 24.5229 27.4089 24.4712 27.4066C24.161 27.402 23.8575 27.4966 23.6048 27.6767C23.3522 27.8567 23.1637 28.1128 23.0669 28.4076C22.97 28.7023 22.9699 29.0203 23.0665 29.3151C23.1631 29.6099 23.3513 29.8662 23.6038 30.0464C23.8563 30.2267 24.1598 30.3216 24.47 30.3173C24.7802 30.313 25.0809 30.2097 25.3282 30.0224C25.5756 29.8351 25.7566 29.5737 25.8449 29.2763C25.9333 28.9789 25.9243 28.6611 25.8192 28.3692L29.4431 23.8185Z" fill="#252525"/>
<path d="M27.8333 60H36.1667C36.3877 60 36.5996 59.9022 36.7559 59.728C36.9122 59.5539 37 59.3177 37 59.0714C37 58.8252 36.9122 58.589 36.7559 58.4148C36.5996 58.2407 36.3877 58.1429 36.1667 58.1429H27.8333C27.6123 58.1429 27.4004 58.2407 27.2441 58.4148C27.0878 58.589 27 58.8252 27 59.0714C27 59.3177 27.0878 59.5539 27.2441 59.728C27.4004 59.9022 27.6123 60 27.8333 60ZM28.6667 9.85714H35.3333C35.5543 9.85714 35.7663 9.75931 35.9226 9.58517C36.0789 9.41103 36.1667 9.17484 36.1667 8.92857C36.1667 8.6823 36.0789 8.44611 35.9226 8.27197C35.7663 8.09783 35.5543 8 35.3333 8H28.6667C28.4457 8 28.2337 8.09783 28.0774 8.27197C27.9211 8.44611 27.8333 8.6823 27.8333 8.92857C27.8333 9.17484 27.9211 9.41103 28.0774 9.58517C28.2337 9.75931 28.4457 9.85714 28.6667 9.85714Z" fill="#BB2FA6"/>
</svg>
