<svg width="64" height="64" viewBox="0 0 64 64" fill="none" xmlns="http://www.w3.org/2000/svg">
<path d="M63.375 54.625H0.625C0.275 54.625 0 54.35 0 54V10C0 9.65 0.275 9.375 0.625 9.375H63.375C63.725 9.375 64 9.65 64 10V16C64 16.35 63.725 16.625 63.375 16.625H6.75V15.375H62.75V10.625H1.25V53.375H62.75V18.5H64V54C64 54.35 63.725 54.625 63.375 54.625Z" fill="#0D0D0D"/>
<path d="M51.75 12.375H50.5V13.625H51.75V12.375Z" fill="#0D0D0D"/>
<path d="M55.25 12.375H54V13.625H55.25V12.375Z" fill="#0D0D0D"/>
<path d="M58.75 12.375H57.5V13.625H58.75V12.375Z" fill="#0D0D0D"/>
<path d="M41.7617 47.125H4.26172C3.91172 47.125 3.63672 46.85 3.63672 46.5V20.875C3.63672 20.525 3.91172 20.25 4.26172 20.25H41.7617C42.1117 20.25 42.3867 20.525 42.3867 20.875V46.5C42.3867 46.85 42.0992 47.125 41.7617 47.125ZM4.88672 45.875H41.1367V21.5H4.88672V45.875Z" fill="#0D0D0D"/>
<path d="M30.75 49.5H4.25V50.75H30.75V49.5Z" fill="#0D0D0D"/>
<path d="M58.75 28.625H47.125C46.775 28.625 46.5 28.35 46.5 28V20.875C46.5 20.525 46.775 20.25 47.125 20.25H58.75C59.1 20.25 59.375 20.525 59.375 20.875V28C59.375 28.35 59.1 28.625 58.75 28.625ZM47.75 27.375H58.125V21.5H47.75V27.375Z" fill="#0D0D0D"/>
<path d="M58.75 30.75H47.125V32H58.75V30.75Z" fill="#0D0D0D"/>
<path d="M58.75 43.75H47.125C46.775 43.75 46.5 43.475 46.5 43.125V36C46.5 35.65 46.775 35.375 47.125 35.375H58.75C59.1 35.375 59.375 35.65 59.375 36V43.125C59.375 43.475 59.1 43.75 58.75 43.75ZM47.75 42.5H58.125V36.625H47.75V42.5Z" fill="#0D0D0D"/>
<path d="M58.75 45.875H47.125V47.125H58.75V45.875Z" fill="#0D0D0D"/>
<path d="M41.75 49.5H35.5V50.75H41.75V49.5Z" fill="#0D0D0D"/>
<path d="M20.8724 38C20.7793 38 20.6862 37.9622 20.6034 37.9118C20.4483 37.7985 20.3552 37.5969 20.3552 37.3702V29.5853C20.3552 29.3711 20.4483 29.1696 20.6034 29.0436C20.7586 28.9176 20.9448 28.9176 21.1103 29.0184L27.5034 32.9109C27.6793 33.0116 27.7931 33.2384 27.7931 33.4777C27.7931 33.7171 27.6793 33.9312 27.5034 34.0446L21.1103 37.937C21.0276 37.9748 20.9552 38 20.8724 38ZM21.3897 30.6056V36.3498L26.1069 33.4777L21.3897 30.6056ZM30.4828 16.2829H19.5172C19.2276 16.2829 19 16.0058 19 15.6531V12.6298C19 12.2771 19.2276 12 19.5172 12H30.4828C30.7724 12 31 12.2771 31 12.6298V15.6531C31 16.0058 30.7724 16.2829 30.4828 16.2829ZM20.0345 15.0233H29.9655V13.2597H20.0345V15.0233Z" fill="#A43FD4"/>
<path d="M4.625 16.25H1V15H4V12.625C4 12.275 4.275 12 4.625 12H17.875C18.225 12 18.5 12.275 18.5 12.625V15.625H17.25V13.25H5.25V15.625C5.25 15.975 4.975 16.25 4.625 16.25Z" fill="#0D0D0D"/>
</svg>
