<svg width="64" height="64" viewBox="0 0 64 64" fill="none" xmlns="http://www.w3.org/2000/svg">
<path d="M8.26886 37C8.18519 37 8.10032 36.9774 8.02285 36.9298L0.241731 32.1451C0.12969 32.0759 0.0481624 31.9631 0.0155037 31.8307C-0.0169167 31.6984 0.00191571 31.558 0.0681867 31.4402L10.3106 13.252C10.4472 13.0088 10.745 12.9276 10.9772 13.0705L18.7583 17.8552C18.8703 17.9244 18.9518 18.0372 18.9845 18.1696C19.0169 18.3019 18.9981 18.4423 18.9318 18.5601L8.68937 36.7483C8.59831 36.9103 8.43573 37 8.26886 37ZM1.15856 31.5194L8.09675 35.7857L17.8414 18.4809L10.9033 14.2146L1.15856 31.5194Z" fill="#A43FD4"/>
<path d="M11.5609 36.8366C11.4751 36.8366 11.388 36.8149 11.3085 36.7691L8.50682 35.154C8.39187 35.0874 8.30823 34.979 8.27472 34.8517C8.24146 34.7244 8.26078 34.5894 8.32877 34.4761L17.4818 19.2421C17.6222 19.0083 17.9274 18.9306 18.1656 19.0676L20.9673 20.6822C21.0823 20.7487 21.1659 20.8572 21.1994 20.9845C21.2327 21.1118 21.2133 21.2467 21.1454 21.36L11.9923 36.5945C11.8989 36.7503 11.7321 36.8366 11.5609 36.8366ZM9.44716 34.5523L11.3843 35.6689L20.0267 21.2839L18.0898 20.1678L9.44716 34.5523ZM6.16096 32.2251C5.78849 32.2251 5.41187 32.1311 5.0685 31.9329C4.56886 31.6451 4.214 31.1832 4.06946 30.6331C3.92517 30.0845 4.00734 29.5132 4.30057 29.0253C4.90538 28.0186 6.23287 27.6811 7.26101 28.2732C7.76065 28.561 8.11551 29.0229 8.26005 29.573C8.40434 30.1216 8.32217 30.6929 8.02894 31.1808C7.6259 31.8514 6.90248 32.2251 6.16096 32.2251ZM6.16634 28.9679C5.76746 28.9679 5.37885 29.1685 5.16241 29.5286C5.00614 29.7889 4.96236 30.0932 5.03915 30.3853C5.11643 30.6794 5.30646 30.9263 5.57401 31.0805C6.12746 31.3987 6.84183 31.2189 7.1671 30.6775C7.32337 30.4171 7.36715 30.1129 7.29036 29.8208C7.21308 29.5267 7.02305 29.2798 6.7555 29.1255C6.75525 29.1255 6.75525 29.1255 6.75525 29.1255C6.57012 29.019 6.36689 28.9679 6.16634 28.9679ZM51.6749 37C51.5013 37 51.3325 36.9108 51.2399 36.7517L42.3072 21.3923C42.2409 21.2786 42.2235 21.1431 42.2588 21.0163C42.294 20.8895 42.3791 20.782 42.495 20.7174L45.3197 19.1413C45.5594 19.0078 45.8639 19.0897 46.0011 19.3255L54.9337 34.6849C55 34.7986 55.0174 34.9341 54.9822 35.0609C54.9469 35.1877 54.8618 35.2952 54.7459 35.3598L51.9212 36.9359C51.8432 36.9793 51.7586 37 51.6749 37ZM43.4268 21.3321L51.8613 35.8347L53.8141 34.7451L45.3796 20.2425L43.4268 21.3321Z" fill="#252525"/>
<path d="M55.5865 37C55.4156 37 55.2495 36.9074 55.1583 36.7421L45.0652 18.4303C45 18.3121 44.9829 18.1714 45.0175 18.0398C45.0522 17.9081 45.136 17.7964 45.2501 17.7293L53.1711 13.0665C53.4072 12.9278 53.7064 13.0129 53.8417 13.2578L63.9348 31.5696C64 31.6878 64.0171 31.8285 63.9824 31.9602C63.9478 32.0918 63.864 32.2035 63.7499 32.2706L55.8289 36.9334C55.7521 36.9785 55.6688 37 55.5865 37ZM46.1671 18.3677L55.7699 35.7899L62.8329 31.6322L53.2301 14.2101L46.1671 18.3677Z" fill="#A43FD4"/>
<path d="M57.806 32.3513C57.0419 32.3513 56.2982 31.9518 55.8935 31.24C55.6032 30.7294 55.5282 30.1357 55.6824 29.5681C55.8374 28.999 56.2041 28.5244 56.7156 28.2326C57.7675 27.6334 59.1114 28.0023 59.7103 29.0565C60.0009 29.5671 60.0759 30.1613 59.9217 30.7284C59.7667 31.2976 59.3997 31.7716 58.8884 32.0634C58.5467 32.2587 58.174 32.3513 57.806 32.3513ZM57.8003 28.9699C57.6019 28.9699 57.401 29.0195 57.2165 29.1246C56.9426 29.2813 56.7462 29.5351 56.6633 29.8394C56.5811 30.1418 56.621 30.4581 56.776 30.7304C57.0978 31.2966 57.8207 31.4938 58.3873 31.1714C58.6612 31.0152 58.8579 30.7615 58.9406 30.4576C59.023 30.1553 58.9828 29.8384 58.8278 29.5661C58.6108 29.1842 58.2113 28.9699 57.8003 28.9699ZM31.5913 24.8107C31.4964 24.8107 31.4003 24.7842 31.3149 24.7281C25.7772 21.1035 22.2739 24.3687 22.2394 24.4027C22.0753 24.5599 21.8275 24.5894 21.6315 24.4743L19.3413 23.1243C19.099 22.9811 19.0173 22.6673 19.1591 22.423C19.3008 22.1782 19.6117 22.0956 19.8548 22.2393L21.8438 23.4116C22.9029 22.6252 26.6316 20.4422 31.8686 23.8681C32.1043 24.0223 32.1713 24.3397 32.0184 24.5774C31.921 24.7286 31.7579 24.8107 31.5913 24.8107ZM14.4671 38.8431C14.4577 38.8431 14.448 38.8426 14.4386 38.8421C14.158 38.8266 13.9434 38.5848 13.9588 38.302L14.0711 36.2627L12.2519 35.1905C12.0095 35.0473 11.9278 34.7335 12.0696 34.4892C12.2112 34.2444 12.5228 34.1623 12.7654 34.3055L14.8527 35.5359C15.0174 35.633 15.1142 35.8147 15.1038 36.0069L14.9744 38.3591C14.9593 38.6319 14.735 38.8431 14.4671 38.8431ZM34.2646 55C33.7104 55 33.1492 54.8568 32.6379 54.5555L31.4048 53.8447C31.1609 53.704 31.0765 53.3912 31.2158 53.1454C31.3554 52.8991 31.6662 52.814 31.9098 52.9547L33.1472 53.668C34.1996 54.2882 35.5541 53.9378 36.171 52.8881C36.4967 52.3335 36.5966 51.7183 36.4518 51.1556C36.3214 50.6481 36.0041 50.2336 35.5343 49.9568L35.248 49.7881C35.0056 49.6454 34.9239 49.3311 35.0657 49.0868C35.2075 48.842 35.5181 48.7594 35.7615 48.9031L36.0478 49.0718C36.7463 49.4837 37.2395 50.1325 37.4366 50.8983C37.6497 51.7273 37.5109 52.6193 37.046 53.4107C36.4463 54.4314 35.3691 55 34.2646 55Z" fill="black"/>
<path d="M39.7192 51C39.1558 51 38.5856 50.875 38.066 50.6121L35.2598 49.1908C35.0096 49.064 34.9256 48.786 35.0718 48.5697C35.2178 48.3529 35.5384 48.2802 35.7893 48.407L38.5956 49.8283C39.6534 50.3634 41.021 50.0597 41.6432 49.15C41.9431 48.7115 42.0271 48.199 41.8798 47.7065C41.7316 47.2113 41.3675 46.7959 40.8546 46.5361L37.5165 44.8462C37.2666 44.7194 37.1823 44.4414 37.3285 44.225C37.4745 44.0083 37.7959 43.9356 38.046 44.0623L41.3841 45.7523C42.1397 46.1349 42.6762 46.748 42.8951 47.4786C43.1131 48.207 42.9889 48.9647 42.5456 49.6128C41.9362 50.5035 40.8418 51 39.7192 51Z" fill="black"/>
<path d="M43.7639 48C43.2083 48 42.6458 47.856 42.1333 47.5532L37.2562 44.6699C37.0097 44.5238 36.9266 44.2036 37.0708 43.9544C37.215 43.7047 37.5315 43.6209 37.7785 43.767L42.6557 46.6503C43.6985 47.2667 45.0483 46.9169 45.6618 45.8689C45.9575 45.3639 46.0404 44.7735 45.8951 44.2062C45.7489 43.6357 45.3897 43.1572 44.8838 42.858L40.0067 39.9747C39.7602 39.8286 39.6771 39.5084 39.8213 39.2592C39.9655 39.0095 40.2817 38.9258 40.529 39.0718L45.4062 41.9551C46.1515 42.3958 46.6806 43.1021 46.8966 43.9437C47.1115 44.7827 46.989 45.6555 46.5518 46.4021C45.9507 47.428 44.8712 48 43.7639 48Z" fill="black"/>
<path d="M47.6825 44C47.1128 44 46.5361 43.8626 46.0107 43.5737L40.2537 40.4066C40.0096 40.272 39.9273 39.977 40.0701 39.7474C40.2129 39.5173 40.526 39.4401 40.7708 39.5747L46.5279 42.7418C47.615 43.3394 49.0196 43.0001 49.6593 41.9843C49.9674 41.4949 50.054 40.9223 49.9024 40.3722C49.7501 39.8193 49.376 39.3549 48.8488 39.0651L43.0918 35.898C42.8477 35.7634 42.7655 35.4684 42.9082 35.2388C43.051 35.0091 43.3644 34.9315 43.609 35.0661L49.366 38.2332C50.13 38.6534 50.6727 39.3272 50.894 40.1304C51.1143 40.9307 50.9888 41.7636 50.5406 42.4755C49.9244 43.4542 48.8173 44 47.6825 44Z" fill="black"/>
<path d="M43.4998 35.7201C43.4142 35.7201 43.3274 35.6974 43.2481 35.6495L33.8304 29.9618C33.5923 29.8182 33.5121 29.5017 33.6514 29.2558C33.7906 29.0094 34.0963 28.9267 34.3348 29.0709L43.7526 34.7586C43.9906 34.9022 44.0709 35.2187 43.9316 35.4646C43.8387 35.6289 43.6716 35.7201 43.4998 35.7201ZM16.1444 44C15.0259 44.0005 13.9417 43.3852 13.376 42.3048C12.9794 41.5479 12.8933 40.6771 13.1333 39.8537C13.374 39.0263 13.9143 38.3465 14.6547 37.9383L20.0463 34.9637C21.5692 34.1227 23.4743 34.7123 24.2932 36.2764C24.6895 37.0333 24.7759 37.9036 24.5361 38.727C24.2954 39.5539 23.755 40.2347 23.0147 40.6429L17.6226 43.6175C17.1521 43.877 16.6447 44 16.1444 44ZM21.5272 35.6123C21.1852 35.6123 20.8388 35.6964 20.5171 35.8738L15.1252 38.8484C14.6213 39.1266 14.2537 39.5887 14.09 40.1511C13.9273 40.7094 13.9856 41.3 14.2546 41.814C14.8125 42.8793 16.1124 43.2804 17.1521 42.7074L22.5439 39.7328C23.0479 39.4546 23.4157 38.992 23.5794 38.4297C23.7419 37.8713 23.6833 37.2807 23.4145 36.7672C23.0289 36.031 22.2897 35.6123 21.5272 35.6123ZM20.2817 35.4187H20.2866H20.2817Z" fill="black"/>
<path d="M19.1834 48C18.0517 48 16.9533 47.4152 16.3807 46.3879C15.9794 45.669 15.892 44.8419 16.1345 44.0593C16.3782 43.2729 16.9254 42.6263 17.6749 42.2379L23.322 39.3633C24.8621 38.5658 26.7904 39.1252 27.6194 40.6114C28.0209 41.3312 28.1081 42.1588 27.8651 42.9414C27.6214 43.7274 27.0744 44.3735 26.325 44.7614L20.6763 47.6374C20.2012 47.8831 19.6889 48 19.1834 48ZM24.8196 39.9806C24.4734 39.9806 24.1226 40.0606 23.7968 40.2292C23.7959 40.2297 23.7946 40.2306 23.7936 40.2311L18.1482 43.1047C17.641 43.3672 17.2689 43.8073 17.1032 44.3414C16.9385 44.8725 16.998 45.4334 17.2701 45.9214C17.8354 46.9339 19.1503 47.3156 20.2032 46.7706L25.8518 43.8945C26.3588 43.6321 26.7309 43.1929 26.8966 42.6588C27.0613 42.1277 27.0023 41.5664 26.7299 41.0779C26.3395 40.3786 25.5916 39.9806 24.8196 39.9806ZM23.5586 39.7967H23.5635H23.5586Z" fill="black"/>
<path d="M24.1225 51C23.0121 51 21.9351 50.4575 21.3734 49.5044C20.9797 48.837 20.894 48.0696 21.1321 47.3435C21.3712 46.6144 21.9077 46.0141 22.6429 45.6541L27.4108 43.3369C28.9228 42.5975 30.8134 43.1156 31.6266 44.4949C32.0204 45.1627 32.1059 45.9301 31.8678 46.6561C31.6285 47.3857 31.092 47.9856 30.357 48.3455L25.5889 50.6627C25.1222 50.8916 24.6188 51 24.1225 51ZM28.8804 43.9097C28.5408 43.9097 28.1966 43.9839 27.8771 44.1403C27.8766 44.1407 27.8761 44.1407 27.8756 44.1412L23.109 46.4575C22.61 46.7019 22.2447 47.1098 22.0821 47.6057C21.9208 48.098 21.9789 48.6188 22.2459 49.0716C22.8001 50.0118 24.0898 50.3646 25.1229 49.8594L29.891 47.5421C30.39 47.2978 30.755 46.8899 30.9176 46.394C31.0791 45.9016 31.021 45.3809 30.754 44.9276C30.3713 44.2789 29.6376 43.9097 28.8804 43.9097ZM27.6433 43.739H27.6481H27.6433Z" fill="black"/>
<path d="M28.8117 55C27.6965 55 26.6211 54.3976 26.0554 53.3381C25.6568 52.5917 25.5673 51.7319 25.8039 50.9173C26.0415 50.0993 26.5787 49.4252 27.3167 49.0189L29.8606 47.5003C29.8655 47.4973 29.8706 47.4944 29.8757 47.4919C31.3924 46.6559 33.2984 47.23 34.1219 48.7729C34.5205 49.5188 34.61 50.3786 34.3731 51.1932C34.1356 52.0112 33.5983 52.6858 32.8604 53.0916L30.3167 54.6102C29.8367 54.8745 29.32 55 28.8117 55ZM30.3562 48.3856L27.8052 49.9076C27.2877 50.1929 26.9222 50.6515 26.7607 51.2076C26.6001 51.7598 26.6608 52.3433 26.9315 52.8501C27.4929 53.9007 28.7929 54.2915 29.8282 53.7214L32.3721 52.2029C32.8893 51.9176 33.2551 51.459 33.4166 50.9034C33.5769 50.3507 33.5165 49.7677 33.2458 49.2614C32.6854 48.2123 31.3907 47.821 30.3562 48.3856ZM28.4277 36.27C27.8369 36.27 27.2387 36.1151 26.6939 35.7895C25.9019 35.3165 25.3393 34.5577 25.11 33.6531C24.8815 32.7524 25.0116 31.8144 25.4762 31.0128L28.5271 25.7491C28.724 25.4096 29.0166 25.1482 29.3738 24.9933L35.9105 22.1633C36.0891 22.0862 36.2784 22.0384 36.4731 22.0219C37.2006 21.9637 39.6307 21.9034 41.4919 23.5156L43.5205 22.3968C43.7639 22.2619 44.0661 22.356 44.1966 22.6035C44.3275 22.8509 44.2371 23.1606 43.9947 23.294L41.6554 24.5841C41.4634 24.6901 41.2269 24.6563 41.0709 24.5014C39.4836 22.9281 37.2116 22.9819 36.5545 23.0386C36.4651 23.0461 36.3817 23.067 36.2999 23.1024L29.7631 25.9323C29.6038 26.0011 29.4734 26.1176 29.3857 26.2689L26.3348 31.5326C26.0066 32.0987 25.9145 32.7614 26.0761 33.3977C26.2381 34.037 26.6364 34.5742 27.1978 34.9093C28.3554 35.6013 29.8509 35.208 30.5321 34.0335L33.2974 29.2627C33.4378 29.0202 33.7433 28.9406 33.9811 29.084C34.2182 29.2274 34.2966 29.54 34.1561 29.7825L31.3907 34.5533C30.7519 35.6556 29.6043 36.27 28.4277 36.27ZM48.745 39.0054C48.4806 39.0054 48.2599 38.7928 48.247 38.5199L48.133 36.1002C48.1244 35.9155 48.2143 35.7402 48.3681 35.6426L50.2376 34.4557C50.472 34.3078 50.7792 34.38 50.9249 34.62C51.0701 34.859 50.9985 35.1731 50.7643 35.322L49.1441 36.3506L49.244 38.4711C49.2571 38.7524 49.0447 38.9914 48.7694 39.0049C48.7613 39.0054 48.7533 39.0054 48.745 39.0054Z" fill="black"/>
</svg>
