<svg width="64" height="64" viewBox="0 0 64 64" fill="none" xmlns="http://www.w3.org/2000/svg">
<path d="M2.64569 32.0289C-0.881897 36.8071 -0.881897 44.188 2.64569 48.9662C3.15329 49.6537 3.99081 50.0408 4.8448 49.9601C28.3946 47.7359 34.0445 47.7451 57.7497 49.9888C58.4819 50.0581 59.2331 49.8043 59.7248 49.2604C63.9471 44.5897 64.2039 37.0767 59.8117 31.8853C59.2939 31.2733 58.5057 30.9347 57.7049 31.0105C34.0374 33.25 28.3798 33.2579 4.8448 31.0349C3.99081 30.9543 3.15328 31.3414 2.64569 32.0289Z" fill="white"/>
<path d="M48.9998 10H15L15.0002 23.5844C15.0002 29.4719 49 29.4719 49 23.5844L48.9998 10Z" fill="#A43FD4"/>
<path d="M6 9.00052L31.9945 2L58 9.00052L31.9945 16L6 9.00052Z" fill="white"/>
<path d="M58 18C56.8954 18 56 18.9024 56 20.0155V23H60V20.0155C60 18.9024 59.1046 18 58 18Z" fill="#A43FD4"/>
<path d="M25 23C26.1046 23 27 22.1046 27 21C27 19.8954 26.1046 19 25 19C23.8954 19 23 19.8954 23 21C23 22.1046 23.8954 23 25 23Z" fill="white"/>
<path d="M32 23C33.1046 23 34 22.1046 34 21C34 19.8954 33.1046 19 32 19C30.8954 19 30 19.8954 30 21C30 22.1046 30.8954 23 32 23Z" fill="white"/>
<path d="M39 23C40.1046 23 41 22.1046 41 21C41 19.8954 40.1046 19 39 19C37.8954 19 37 19.8954 37 21C37 22.1046 37.8954 23 39 23Z" fill="white"/>
<path d="M32 11C34.2091 11 36 10.1046 36 9C36 7.89543 34.2091 7 32 7C29.7909 7 28 7.89543 28 9C28 10.1046 29.7909 11 32 11Z" fill="#A43FD4"/>
<path d="M60.6747 31.5026C60.0446 30.758 59.1046 30.3609 58.1446 30.4502C34.7394 32.6529 28.8361 32.674 5.37275 30.48C4.34268 30.3807 3.33264 30.8374 2.72251 31.6714C-0.907502 36.5761 -0.907502 44.2608 2.72251 49.1754C3.33264 49.9995 4.34268 50.4661 5.37275 50.3668C13.863 49.5626 20.0332 49.0562 25.5934 48.8378V60.5039C25.5934 60.6826 25.6935 60.8514 25.8635 60.9407C26.0234 61.0202 26.2233 61.0103 26.3735 60.9109L31.9838 57.1977L37.7438 60.9209C37.9067 61.0218 38.1074 61.0237 38.2538 60.9407C38.414 60.8514 38.5138 60.6826 38.5138 60.5039V48.8676C43.9141 49.1158 49.9742 49.6222 58.1844 50.3966C58.2845 50.4066 58.3746 50.4066 58.4745 50.4066C59.2946 50.4066 60.0646 50.0789 60.5746 49.5031C65.1048 44.509 65.1449 36.7747 60.6747 31.5026ZM37.5037 33.0515C39.194 38.1944 39.2038 43.1289 37.5238 47.7159H26.8034C28.5335 42.7517 28.5335 37.8271 26.8134 33.0515C36.271 33.1861 32.3766 33.0685 37.5037 33.0515ZM5.28266 49.374C4.6027 49.4336 3.93251 49.1357 3.53259 48.5797C0.142585 44.0027 0.142585 36.8342 3.53259 32.2572C3.93251 31.7111 4.6027 31.4033 5.28266 31.4629C13.873 32.2771 20.1133 32.7934 25.7336 33.0118C27.5735 37.8172 27.5635 42.8013 25.7033 47.8351C20.0832 48.0436 13.873 48.5598 5.28266 49.374ZM37.5138 59.5805L32.2536 56.185C32.077 56.0751 31.866 56.0842 31.7035 56.185L26.5935 59.5706V48.8081C30.2935 48.679 33.7636 48.6889 37.5138 48.8379V59.5805ZM59.8346 48.8379C59.4647 49.2449 58.8746 49.4534 58.2845 49.4038C50.0342 48.6194 43.9539 48.1131 38.5238 47.8748C40.194 43.1885 40.2038 38.1846 38.5338 32.9721C43.9442 32.7239 50.0142 32.2175 58.2347 31.443C58.8746 31.3835 59.4945 31.6416 59.9147 32.1381C64.0547 37.0328 64.0247 44.2112 59.8346 48.8379ZM6.07272 9.65982L14.053 11.725V23.7087C14.053 27.3624 23.7135 28.6631 31.9838 28.6631C40.2539 28.6631 49.9043 27.3624 49.9043 23.7087V11.725L57.2644 9.81872V17.3346C56.0344 17.5729 55.0945 18.6551 55.0945 19.9458V23.1428C55.0945 23.4109 55.3144 23.6392 55.5945 23.6392H59.9345C60.2147 23.6392 60.4345 23.4109 60.4345 23.1428V19.9458C60.4345 18.6551 59.4945 17.5729 58.2645 17.3346V9.17335C58.2645 8.91224 58.0406 8.70633 57.8446 8.68686L32.1037 2.01491C32.0236 1.99503 31.9335 1.99503 31.8537 2.01491L6.07272 8.69679C5.85274 8.75637 5.70259 8.95495 5.70259 9.17335C5.7026 9.40167 5.85274 9.60026 6.07272 9.65982ZM48.9043 23.7087C48.9043 25.9327 41.4739 27.6702 31.9838 27.6702C22.4932 27.6702 15.053 25.9327 15.053 23.7087V11.9831L31.8537 16.3318C31.8937 16.3418 31.9335 16.3516 31.9735 16.3516C32.0236 16.3516 32.0636 16.3418 32.1037 16.3318L48.9043 11.9831V23.7087ZM59.4345 19.9458V22.6464H56.0945V19.9458C56.0945 19.0324 56.8445 18.2877 57.7645 18.2877C58.6844 18.2877 59.4345 19.0324 59.4345 19.9458ZM31.9735 3.00775L53.8644 8.67691H36.4839C36.0137 7.55498 33.9438 6.95929 31.9838 6.95929C29.7435 6.95929 27.3735 7.73369 27.3735 9.17333C27.3735 10.8409 30.2853 11.3973 31.9838 11.3973C33.4675 11.3973 35.9817 10.9613 36.4937 9.66976C42.9601 9.66976 47.3208 9.66976 53.8644 9.66976C44.334 12.1307 41.6037 12.845 31.9735 15.339C29.5406 14.7085 40.7858 17.6228 8.18267 9.17333L31.9735 3.00775ZM31.9838 10.4045C30.8113 10.4045 28.3736 9.93688 28.3736 9.17333C28.3736 8.68685 29.8135 7.95215 31.9838 7.95215C34.1538 7.95215 35.5938 8.68685 35.5938 9.17333C35.5938 9.9552 33.1986 10.4045 31.9838 10.4045Z" fill="#010101"/>
</svg>
