<svg width="32" height="37" viewBox="0 0 32 37" fill="none" xmlns="http://www.w3.org/2000/svg">
<path d="M16.0001 19C19.8599 19 23 15.6356 23 11.5001C23 7.36455 19.8599 4 16.0001 4C12.1402 4 9 7.36455 9 11.5001C9 15.6356 12.1402 19 16.0001 19Z" fill="#4C1175"/>
<path d="M28.9696 30.6471C27.8832 24.4776 22.4286 20 16 20C9.57139 20 4.11685 24.4776 3.0304 30.6471C2.92628 31.2381 3.09237 31.8385 3.4862 32.2942C3.87391 32.7428 4.44142 33 5.04315 33H26.9568C27.5586 33 28.1261 32.7428 28.5138 32.2942C28.9076 31.8385 29.0737 31.2381 28.9696 30.6471Z" fill="#4C1175"/>
</svg>
