<svg width="40" height="40" viewBox="0 0 40 40" fill="none" xmlns="http://www.w3.org/2000/svg">
<path fill-rule="evenodd" clip-rule="evenodd" d="M5.3155 5.3155C3 7.631 3 11.3589 3 18.8125V20.1875C3 27.64 3 31.369 5.3155 33.6845C7.631 36 11.3589 36 18.8125 36H20.1875C27.64 36 31.369 36 33.6845 33.6845C36 31.369 36 27.6411 36 20.1875V18.8125C36 11.36 36 7.631 33.6845 5.3155C31.369 3 27.6411 3 20.1875 3H18.8125C11.36 3 7.631 3 5.3155 5.3155ZM9.53179 13.3125H11.9375C12.5524 13.3125 12.7834 13.582 13.0144 14.2486C14.1914 17.6762 16.1758 20.6726 16.9909 20.6726C17.2978 20.6726 17.4375 20.5318 17.4375 19.7541V16.211C17.3824 15.2024 17.03 14.7661 16.769 14.4429C16.6079 14.2434 16.4816 14.0871 16.4816 13.8658C16.4816 13.5963 16.7115 13.3125 17.0932 13.3125H20.875C21.3854 13.3125 21.5625 13.5853 21.5625 14.1969V18.9643C21.5625 19.4736 21.7836 19.6529 21.9365 19.6529C22.2423 19.6529 22.4975 19.4736 23.0585 18.9126C24.7921 16.9755 26.0153 13.9934 26.0153 13.9934C26.1682 13.6359 26.4509 13.3125 27.0625 13.3125H29.4682C30.1964 13.3125 30.3504 13.6876 30.1964 14.1969C29.8906 15.5994 26.9591 19.7288 26.9591 19.7288C26.7039 20.1369 26.6016 20.3404 26.9591 20.7991C27.0852 20.9758 27.3544 21.2397 27.6621 21.5413C27.9769 21.8498 28.332 22.1979 28.6157 22.5327C29.6497 23.6954 30.4285 24.6766 30.6452 25.352C30.8443 26.0307 30.5 26.375 29.8125 26.375H27.4057C26.7613 26.375 26.4372 26.0141 25.7361 25.2338C25.4389 24.903 25.0741 24.497 24.5886 24.0111C23.1597 22.635 22.5492 22.4568 22.1917 22.4568C21.7077 22.4568 21.5625 22.5943 21.5625 23.2818V25.44C21.5625 26.0307 21.3733 26.375 19.8432 26.375C17.2945 26.375 14.4928 24.8273 12.5051 21.9717C9.52189 17.7917 8.70679 14.6303 8.70679 13.9934C8.70679 13.6359 8.84429 13.3125 9.53179 13.3125Z" fill="white"/>
</svg>
