<svg width="28" height="28" viewBox="0 0 28 28" fill="none" xmlns="http://www.w3.org/2000/svg">
<g clip-path="url(#clip0_188_35)">
<path d="M27.4167 3.49981H16.3334V0.583145C16.3348 0.496847 16.3171 0.411311 16.2814 0.332705C16.2458 0.254099 16.1931 0.184382 16.1273 0.128581C16.0614 0.0727795 15.984 0.0322853 15.9007 0.0100178C15.8173 -0.0122497 15.73 -0.0157355 15.6451 -0.000188225L0.478411 2.91648C0.342519 2.94133 0.219855 3.0136 0.132261 3.12042C0.0446656 3.22724 -0.00217537 3.36169 7.76474e-05 3.49981V24.4998C0.000576949 24.6359 0.0486699 24.7676 0.136027 24.872C0.223385 24.9764 0.344505 25.047 0.478411 25.0715L15.6451 27.9881H15.7501C15.9048 27.9881 16.0532 27.9267 16.1626 27.8173C16.272 27.7079 16.3334 27.5595 16.3334 27.4048V24.4998H27.4167C27.5715 24.4998 27.7198 24.4384 27.8292 24.329C27.9386 24.2196 28.0001 24.0712 28.0001 23.9165V4.08315C28.0001 3.92844 27.9386 3.78006 27.8292 3.67067C27.7198 3.56127 27.5715 3.49981 27.4167 3.49981ZM12.8334 9.48481L10.5001 18.2348C10.4659 18.3621 10.3896 18.474 10.2837 18.5524C10.1778 18.6308 10.0484 18.671 9.91674 18.6665C9.78658 18.6717 9.65842 18.6331 9.5527 18.557C9.44698 18.4809 9.36978 18.3716 9.33341 18.2465L7.56008 11.9698L5.83341 17.6748C5.80312 17.8002 5.72866 17.9105 5.62368 17.9855C5.51869 18.0605 5.3902 18.0952 5.26174 18.0831C5.12653 18.0898 4.99322 18.0492 4.88467 17.9683C4.77612 17.8874 4.69907 17.7713 4.66674 17.6398L2.91674 10.6398C2.87961 10.4851 2.90546 10.322 2.9886 10.1863C3.07174 10.0507 3.20537 9.95361 3.36008 9.91648C3.51479 9.87935 3.67791 9.9052 3.81356 9.98834C3.94921 10.0715 4.04628 10.2051 4.08341 10.3598L5.32008 15.3298L7.00008 9.74148C7.05085 9.6267 7.13203 9.52799 7.23484 9.45602C7.33766 9.38405 7.45819 9.34156 7.58341 9.33314C7.71358 9.32796 7.84173 9.3665 7.94745 9.44262C8.05317 9.51874 8.13037 9.62805 8.16674 9.75314L9.91674 15.8898L11.6667 9.18148C11.707 9.02677 11.807 8.89437 11.9448 8.81342C12.0827 8.73247 12.247 8.70959 12.4017 8.74981C12.5565 8.79004 12.6888 8.89007 12.7698 9.02791C12.8508 9.16575 12.8736 9.3301 12.8334 9.48481ZM26.8334 23.3331H16.3334V21.5831H25.0834C25.2381 21.5831 25.3865 21.5217 25.4959 21.4123C25.6053 21.3029 25.6667 21.1545 25.6667 20.9998C25.6667 20.8451 25.6053 20.6967 25.4959 20.5873C25.3865 20.4779 25.2381 20.4165 25.0834 20.4165H16.3334V18.0831H25.0834C25.2381 18.0831 25.3865 18.0217 25.4959 17.9123C25.6053 17.8029 25.6667 17.6545 25.6667 17.4998C25.6667 17.3451 25.6053 17.1967 25.4959 17.0873C25.3865 16.9779 25.2381 16.9165 25.0834 16.9165H16.3334V14.5831H25.0834C25.2381 14.5831 25.3865 14.5217 25.4959 14.4123C25.6053 14.3029 25.6667 14.1545 25.6667 13.9998C25.6667 13.8451 25.6053 13.6967 25.4959 13.5873C25.3865 13.4779 25.2381 13.4165 25.0834 13.4165H16.3334V11.0831H25.0834C25.2381 11.0831 25.3865 11.0217 25.4959 10.9123C25.6053 10.8029 25.6667 10.6545 25.6667 10.4998C25.6667 10.3451 25.6053 10.1967 25.4959 10.0873C25.3865 9.97794 25.2381 9.91648 25.0834 9.91648H16.3334V7.58315H25.0834C25.2381 7.58315 25.3865 7.52169 25.4959 7.41229C25.6053 7.30289 25.6667 7.15452 25.6667 6.99981C25.6667 6.8451 25.6053 6.69673 25.4959 6.58733C25.3865 6.47794 25.2381 6.41648 25.0834 6.41648H16.3334V4.66648H26.8334V23.3331Z" fill="#252525"/>
</g>
<defs>
<clipPath id="clip0_188_35">
<rect width="28" height="28" fill="white"/>
</clipPath>
</defs>
</svg>
